<?xml version="1.0" encoding="utf-8"?>
<!-- Generator: Adobe Illustrator 22.0.1, SVG Export Plug-In . SVG Version: 6.00 Build 0)  -->
<svg version="1.1" id="LOGO_x27_S" xmlns="http://www.w3.org/2000/svg" xmlns:xlink="http://www.w3.org/1999/xlink" x="0px" y="0px"
	 width="224.925px" height="42.271px" viewBox="0 0 224.925 42.271" enable-background="new 0 0 224.925 42.271"
	 xml:space="preserve">
<g id="brand-sadvantage">
	<g id="sa-bol_1_">
		<g id="sa-globe_1_">
			
				<radialGradient id="SVGID_1_" cx="549.7502" cy="-128.0836" r="12.4548" gradientTransform="matrix(1.2447 0 0 1.2453 -651.4319 167.6143)" gradientUnits="userSpaceOnUse">
				<stop  offset="0" style="stop-color:#FFFFFF"/>
				<stop  offset="1" style="stop-color:#E0E1E2"/>
			</radialGradient>
			<path fill="url(#SVGID_1_)" d="M41.541,20.812c0-11.48-9.3-20.781-20.772-20.781c-5.057,0-9.691,1.811-13.293,4.814l29.25,29.266
				C39.729,30.503,41.541,25.872,41.541,20.812z"/>
			
				<radialGradient id="SVGID_2_" cx="529.1408" cy="-108.4731" r="15.8331" gradientTransform="matrix(1.2447 0 0 1.2453 -651.4319 167.6143)" gradientUnits="userSpaceOnUse">
				<stop  offset="0" style="stop-color:#FFFFFF"/>
				<stop  offset="1" style="stop-color:#E0E1E2"/>
			</radialGradient>
			<path fill="url(#SVGID_2_)" d="M7.476,4.845C2.906,8.658,0,14.394,0,20.812c0,11.475,9.299,20.779,20.769,20.779
				c6.413,0,12.146-2.912,15.957-7.481L7.476,4.845z"/>
		</g>
		<g id="sa-shadow_1_">
			<defs>
				<path id="SVGID_3_" d="M41.563,21.507c-0.4,11.471-10.02,20.443-21.482,20.041C8.615,41.148-0.352,31.525,0.049,20.054
					C0.448,8.585,10.066-0.389,21.53,0.013C32.994,0.413,41.962,10.035,41.563,21.507z"/>
			</defs>
			<clipPath id="SVGID_4_">
				<use xlink:href="#SVGID_3_"  overflow="visible"/>
			</clipPath>
			<g clip-path="url(#SVGID_4_)">
				<path fill="#EFF0F0" d="M14.871,0.667c-7.377,3.631-2.073,11.023,4.069,19.578c9.161,12.768,14.214,19.631,7.346,22.035
					c-1.114,0.389-2.273,0.545-2.861,0.658c6.487-1.916,2.669-7.457-4.002-16.5C10.808,14.767,5.208,4.865,12.056,1.525
					C12.849,1.136,13.808,0.81,14.871,0.667"/>
				<path fill="#EFF0F0" d="M10.814,2.396c-6.821,5.5-1.557,13.5,7.247,25.08c6.03,7.928,11.037,15.189,3.518,15.873
					c-1.388,0.129-2.237-0.031-2.408-0.027c7.547-0.271,2.627-6.42-3.444-14.025C9.819,21.898,0.679,10.761,8.262,3.788
					C8.903,3.197,9.842,2.685,10.814,2.396"/>
				<g>
					<path fill="#EFF0F0" d="M14.212,1.677c0.123,0.002,0.249-0.008,0.377-0.004c0.14,0.006,0.282,0.018,0.426,0.033
						c4.373,0.514,9.916,6.658,15.889,14.463c5.826,7.605,10.065,12.561,9.988,5.889c0.004,0.445,1.121,3.215-0.52,5.309
						c-2.034,2.596-6.271-3.125-14.567-13.699C21.45,8.117,17.562,3.161,13.646,3.009c-0.158-0.004-0.316-0.004-0.474,0.006
						c-0.146,0.01-0.462,0.068-0.462,0.068c-0.156,0.213-0.267,0.383-0.384,0.604c-2.145,4.057,2.501,9.693,7.737,16.041
						c9.519,11.545,14.75,17.742,8.535,20.57c-1.014,0.461-2.076,0.697-2.619,0.854c5.901-2.332,1.917-7.357-4.99-15.52
						C13.622,16.929,8.261,9.23,10.067,4.712c0.04-0.092,0.075-0.182,0.121-0.273c0.067-0.145,0.146-0.283,0.229-0.422
						c0.408-0.656,1.063-1.443,1.907-1.834C13.151,1.796,13.689,1.669,14.212,1.677z"/>
					<path fill="#EFF0F0" d="M38.61,12.027c-2.44-6.648-7.079-0.889-12.449,5.777c-0.902,1.121-2.776,3.318-2.776,3.318
						c-2.886,3.258-5.761,3.604-7.987,1.043c-0.875-1-1.176-1.656-1.407-2.016c2.219,2.658,5.16,1.961,7.689-0.928
						c0,0,1.717-2.047,2.602-3.113c5.562-6.705,11.202-12.022,13.632-6.41C38.2,10.367,38.445,11.031,38.61,12.027"/>
				</g>
			</g>
		</g>
		<g id="sa_1_">
			
				<radialGradient id="SVGID_5_" cx="546.8683" cy="-102.0018" r="31.1044" gradientTransform="matrix(1.2447 0 0 1.2453 -651.4319 167.6143)" gradientUnits="userSpaceOnUse">
				<stop  offset="0" style="stop-color:#444B4F"/>
				<stop  offset="0.108" style="stop-color:#484E52"/>
				<stop  offset="0.231" style="stop-color:#51565B"/>
				<stop  offset="0.361" style="stop-color:#616569"/>
				<stop  offset="0.456" style="stop-color:#717377"/>
				<stop  offset="0.5278" style="stop-color:#75767A"/>
				<stop  offset="0.5932" style="stop-color:#7F7F83"/>
				<stop  offset="0.656" style="stop-color:#919093"/>
				<stop  offset="0.6978" style="stop-color:#A4A2A5"/>
				<stop  offset="0.7625" style="stop-color:#9E9DA0"/>
				<stop  offset="0.8243" style="stop-color:#919093"/>
				<stop  offset="0.8849" style="stop-color:#7C7D80"/>
				<stop  offset="0.9445" style="stop-color:#626568"/>
				<stop  offset="1" style="stop-color:#444B4F"/>
			</radialGradient>
			<path fill="url(#SVGID_5_)" d="M10.864,1.624c-6.626,5.734-1.086,13.547,8.12,24.811c6.299,7.711,11.558,14.795,4.067,15.744
				c-1.381,0.174-2.237,0.045-2.408,0.055c7.531-0.535,2.398-6.508-3.932-13.894c-6.16-7.19-15.687-18-8.351-25.234
				C8.983,2.495,9.903,1.947,10.864,1.624"/>
			<g>
				
					<linearGradient id="SVGID_6_" gradientUnits="userSpaceOnUse" x1="4789.123" y1="-2892.4678" x2="4763.1416" y2="-2923.3865" gradientTransform="matrix(-0.3128 0.873 1.1049 0.4254 4732.1812 -2913.4927)">
					<stop  offset="0" style="stop-color:#BF5B28"/>
					<stop  offset="0.1243" style="stop-color:#C45F27"/>
					<stop  offset="0.2659" style="stop-color:#D16A26"/>
					<stop  offset="0.4155" style="stop-color:#EA7E22"/>
					<stop  offset="0.456" style="stop-color:#F68720"/>
					<stop  offset="0.5406" style="stop-color:#F68921;stop-opacity:0.9301"/>
					<stop  offset="0.6177" style="stop-color:#F79127;stop-opacity:0.8663"/>
					<stop  offset="0.6918" style="stop-color:#F99E32;stop-opacity:0.805"/>
					<stop  offset="0.6978" style="stop-color:#F9A033;stop-opacity:0.8"/>
					<stop  offset="0.8016" style="stop-color:#F99D31;stop-opacity:0.8687"/>
					<stop  offset="0.9008" style="stop-color:#F8942A;stop-opacity:0.9343"/>
					<stop  offset="0.9977" style="stop-color:#F68720;stop-opacity:0.9985"/>
					<stop  offset="1" style="stop-color:#F68720"/>
				</linearGradient>
				<path fill="url(#SVGID_6_)" d="M14.391,0.519c0.129,0.004,0.26-0.006,0.39,0c0.148,0.004,0.295,0.016,0.444,0.033
					c4.547,0.533,10.311,6.92,16.521,15.025c6.056,7.904,10.464,13.053,10.385,6.119c0.005,0.463,1.163,3.338-0.542,5.518
					c-2.113,2.699-6.52-3.248-15.146-14.234c-4.526-5.768-8.57-10.92-12.642-11.074c-0.166-0.008-0.328-0.004-0.492,0.004
					c-0.151,0.01-0.479,0.072-0.479,0.072c-0.166,0.219-0.279,0.398-0.4,0.627c-2.227,4.213,2.602,10.072,8.048,16.67
					c9.893,11.994,15.334,18.434,8.87,21.371c-1.051,0.48-2.16,0.727-2.724,0.889c6.137-2.428,1.995-7.647-5.188-16.129
					C13.775,16.369,8.204,8.367,10.08,3.675c0.041-0.098,0.082-0.191,0.126-0.285c0.071-0.15,0.153-0.297,0.241-0.438
					c0.423-0.684,1.102-1.5,1.981-1.908C13.289,0.646,13.848,0.513,14.391,0.519z"/>
				
					<radialGradient id="SVGID_7_" cx="2935.8528" cy="2971.2039" r="23.2715" gradientTransform="matrix(1 0 0.0252 1.0004 -2996.9819 -2952.0759)" gradientUnits="userSpaceOnUse">
					<stop  offset="0" style="stop-color:#BF5B28"/>
					<stop  offset="0.1243" style="stop-color:#C45F27"/>
					<stop  offset="0.2659" style="stop-color:#D16A26"/>
					<stop  offset="0.4155" style="stop-color:#EA7E22"/>
					<stop  offset="0.456" style="stop-color:#F68720"/>
					<stop  offset="0.5406" style="stop-color:#F68921;stop-opacity:0.9301"/>
					<stop  offset="0.6177" style="stop-color:#F79127;stop-opacity:0.8663"/>
					<stop  offset="0.6918" style="stop-color:#F99E32;stop-opacity:0.805"/>
					<stop  offset="0.6978" style="stop-color:#F9A033;stop-opacity:0.8"/>
					<stop  offset="0.8016" style="stop-color:#F99D31;stop-opacity:0.8687"/>
					<stop  offset="0.9008" style="stop-color:#F8942A;stop-opacity:0.9343"/>
					<stop  offset="0.9977" style="stop-color:#F68720;stop-opacity:0.9985"/>
					<stop  offset="1" style="stop-color:#F68720"/>
				</radialGradient>
				<path fill="url(#SVGID_7_)" d="M39.758,11.277c-2.537-6.91-7.359-0.926-12.941,6c-0.939,1.166-2.89,3.449-2.89,3.449
					c-3.001,3.385-5.989,3.744-8.306,1.086c-0.907-1.043-1.22-1.726-1.462-2.098c2.308,2.76,5.365,2.039,7.997-0.963
					c0,0,1.783-2.129,2.701-3.234c5.788-6.969,11.648-12.492,14.177-6.662C39.333,9.548,39.586,10.24,39.758,11.277"/>
			</g>
		</g>
	</g>
	<g id="shoppingadvies_1_">
		<g id="shopping_12_">
			<g id="shopping_13_">
				<path fill="#4C4F53" d="M51.48,35.679h5.774c0.589,0,0.988-0.209,1.179-0.475c0.171-0.248,0.246-0.818,0.246-1.16
					c0-0.57-0.227-0.893-0.38-1.045c-0.322-0.303-0.911-0.455-2.374-0.797l-1.748-0.398c-1.539-0.361-2.09-0.855-2.317-1.121
					c-0.438-0.494-0.551-1.121-0.551-1.672c0-0.666,0.151-1.178,0.513-1.635c0.627-0.816,1.481-0.873,2.432-0.873h4.825v0.893
					h-5.225c-0.228,0-0.798,0.019-1.12,0.342c-0.343,0.342-0.361,0.932-0.361,1.197c0,0.342,0.038,0.93,0.418,1.311
					c0.342,0.342,1.387,0.607,1.729,0.684l1.824,0.418c1.216,0.285,2.09,0.475,2.679,0.949c0.627,0.494,0.722,1.084,0.722,1.748
					c0,0.703-0.133,1.635-0.874,2.146c-0.494,0.342-1.178,0.381-1.577,0.381H51.48V35.679z"/>
				<path fill="#4C4F53" d="M61.266,23.273h0.987v3.23h3.686c1.007,0,1.767,0.19,2.337,0.721c0.722,0.686,0.874,1.654,0.874,2.66
					v6.688h-0.988v-6.801c0-0.438-0.038-1.234-0.494-1.768c-0.475-0.551-1.082-0.607-1.634-0.607h-3.78v9.176h-0.987V23.273z"/>
				<path fill="#4C4F53" d="M71.925,27.492c0.987-0.969,2.45-1.104,3.723-1.104c1.273,0,2.736,0.135,3.724,1.104
					c1.102,1.082,1.254,2.867,1.254,3.988c0,2.186-0.607,3.42-1.254,4.066c-1.102,1.082-2.83,1.139-3.724,1.139
					c-0.893,0-2.621-0.057-3.723-1.139c-0.646-0.646-1.254-1.881-1.254-4.066C70.671,30.359,70.822,28.574,71.925,27.492z
					 M72.551,34.824c0.798,0.873,2.071,0.969,3.097,0.969c1.026,0,2.299-0.096,3.097-0.969c0.836-0.912,0.817-2.432,0.817-3.248
					c0-0.875,0-2.471-0.798-3.363c-0.779-0.855-2.166-0.93-3.116-0.93c-0.949,0-2.336,0.074-3.115,0.93
					c-0.798,0.893-0.798,2.488-0.798,3.363C71.734,32.392,71.716,33.911,72.551,34.824z"/>
				<path fill="#4C4F53" d="M83.134,39.8h-0.987V27.757c0-0.533,0.322-0.836,0.475-0.951c0.38-0.283,0.836-0.303,1.121-0.303h2.545
					c0.665,0,2.014,0.094,3.002,1.158c1.026,1.084,1.063,2.527,1.063,3.725c0,1.271-0.075,2.582-0.798,3.684
					c-0.798,1.197-1.938,1.502-3.571,1.502h-2.85V39.8z M86.383,35.679c0.911,0,1.823-0.361,2.336-1.141
					c0.456-0.703,0.57-1.709,0.57-3.02c0-1.387-0.133-2.146-0.361-2.66c-0.475-1.065-1.52-1.463-2.432-1.463H83.59
					c-0.095,0-0.228,0.076-0.304,0.133c-0.133,0.113-0.152,0.229-0.152,0.361v7.789H86.383z"/>
				<path fill="#4C4F53" d="M92.861,39.8h-0.987V27.757c0-0.533,0.322-0.836,0.475-0.951c0.38-0.283,0.836-0.303,1.121-0.303h2.545
					c0.665,0,2.014,0.094,3.002,1.158c1.025,1.084,1.063,2.527,1.063,3.725c0,1.271-0.075,2.582-0.798,3.684
					c-0.798,1.197-1.937,1.502-3.571,1.502h-2.85V39.8z M96.11,35.679c0.911,0,1.823-0.361,2.336-1.141
					c0.456-0.703,0.57-1.709,0.57-3.02c0-1.387-0.133-2.146-0.361-2.66c-0.475-1.065-1.519-1.463-2.432-1.463h-2.906
					c-0.095,0-0.228,0.076-0.304,0.133c-0.133,0.113-0.152,0.229-0.152,0.361v7.789H96.11z"/>
				<path fill="#4C4F53" d="M101.603,24.679v-1.406h1.063v1.406H101.603z M101.641,26.503h0.987v10.068h-0.987V26.503z"/>
				<path fill="#4C4F53" d="M104.566,27.814c0-0.266,0.019-0.666,0.228-0.932c0.266-0.342,0.684-0.379,0.988-0.379h3.609
					c0.949,0,1.729,0.133,2.336,0.74c0.305,0.305,0.779,0.949,0.779,2.336v6.992h-0.988v-6.744c0-0.855-0.095-1.367-0.437-1.805
					c-0.418-0.531-0.987-0.627-1.634-0.627h-3.571c-0.095,0-0.209,0-0.266,0.076c-0.058,0.076-0.058,0.229-0.058,0.303v8.797h-0.987
					V27.814z"/>
				<path fill="#4C4F53" d="M117.903,36.572c-1.102,0-2.279-0.076-3.077-1.311c-0.646-1.008-0.798-2.414-0.798-3.971
					c0-1.576,0.171-2.793,1.12-3.762c0.836-0.855,1.748-1.025,3.002-1.025h2.508c0.531,0,1.102,0.037,1.538,0.361
					c0.514,0.379,0.589,0.969,0.589,1.404v7.145c0,1.234-0.133,2.469-0.816,3.268c-0.893,1.025-2.565,1.119-3.191,1.119h-4.027
					v-0.893h4.027c0.38,0,1.576-0.018,2.261-0.627c0.475-0.418,0.722-1.139,0.76-1.709H117.903z M121.798,28.212
					c0-0.285-0.038-0.494-0.285-0.664c-0.209-0.133-0.418-0.152-0.607-0.152h-3.116c-0.949,0-1.538,0.361-1.861,0.703
					c-0.779,0.816-0.836,2.299-0.836,3.381c0,2.621,0.607,3.363,0.76,3.553c0.589,0.684,1.444,0.646,1.995,0.646h3.951V28.212z"/>
			</g>
		</g>
		<g id="advantage">
			<g>
				<path fill="#F68720" d="M131.371,26.697c1.234,0,2.051,0.438,2.488,0.873c0.836,0.816,0.95,2.014,0.95,2.83v4.219
					c0,0.531-0.038,1.139-0.494,1.615c-0.476,0.492-1.14,0.531-1.71,0.531h-5.927c-0.627,0-1.312-0.039-1.843-0.531
					c-0.779-0.703-0.817-2.033-0.817-2.832c0-0.873,0.076-1.937,0.874-2.545c0.551-0.418,1.197-0.438,1.786-0.438h4.407v-0.152
					c0-0.17-0.02-0.436-0.19-0.664c-0.285-0.381-0.76-0.398-1.14-0.398h-5.054v-2.508H131.371z M128.445,32.814
					c-0.114,0-0.38,0.018-0.551,0.17c-0.134,0.133-0.152,0.305-0.152,0.475c0,0.152,0.019,0.305,0.152,0.438
					c0.133,0.115,0.342,0.172,0.513,0.172h1.938c0.19,0,0.437-0.039,0.551-0.133c0.171-0.133,0.19-0.324,0.19-0.494v-0.627H128.445z
					"/>
				<path fill="#F68720" d="M146.399,23.466v11.17c0,0.438-0.058,1.064-0.323,1.445c-0.437,0.645-1.178,0.684-1.729,0.684h-4.996
					c-1.558,0-2.66-0.684-3.173-1.938c-0.398-0.951-0.456-2.109-0.456-3.344c0-1.234,0.058-2.395,0.741-3.363
					c0.874-1.234,2.299-1.424,3.344-1.424h2.868v-3.23H146.399z M141.041,29.281c-0.607,0-0.988,0.303-1.197,0.607
					c-0.36,0.512-0.398,1.254-0.398,1.805c0,0.949,0.095,1.424,0.266,1.748c0.342,0.664,1.007,0.74,1.33,0.74h0.893
					c0.361,0,0.514-0.113,0.551-0.152c0.19-0.17,0.19-0.531,0.19-0.684v-4.064H141.041z"/>
				<path fill="#F68720" d="M152.688,32.509c0.038,0.113,0.134,0.342,0.247,0.342c0.114,0,0.209-0.229,0.247-0.342l2.299-5.813
					h3.875l-4.255,9.27c-0.38,0.836-1.349,0.912-2.166,0.912c-0.816,0-1.785-0.076-2.165-0.912l-4.256-9.27h3.876L152.688,32.509z"
					/>
				<path fill="#F68720" d="M166.596,26.697c1.234,0,2.051,0.438,2.488,0.873c0.836,0.816,0.95,2.014,0.95,2.83v4.219
					c0,0.531-0.038,1.139-0.494,1.615c-0.476,0.492-1.14,0.531-1.71,0.531h-5.927c-0.627,0-1.311-0.039-1.843-0.531
					c-0.779-0.703-0.817-2.033-0.817-2.832c0-0.873,0.076-1.937,0.874-2.545c0.551-0.418,1.197-0.438,1.786-0.438h4.407v-0.152
					c0-0.17-0.02-0.436-0.191-0.664c-0.285-0.381-0.76-0.398-1.14-0.398h-5.054v-2.508H166.596z M163.67,32.814
					c-0.114,0-0.38,0.018-0.551,0.17c-0.134,0.133-0.152,0.305-0.152,0.475c0,0.152,0.019,0.305,0.152,0.438
					c0.133,0.115,0.342,0.172,0.513,0.172h1.938c0.19,0,0.436-0.039,0.551-0.133c0.171-0.133,0.191-0.324,0.191-0.494v-0.627H163.67
					z"/>
				<path fill="#F68720" d="M171.176,28.501c0-0.381,0.019-0.855,0.418-1.234c0.569-0.57,1.576-0.57,2.203-0.57h3.496
					c1.158,0,2.355,0.076,3.381,0.893c1.121,0.892,1.254,2.109,1.254,2.982v6.193h-3.724v-5.111c0-0.701-0.057-1.271-0.418-1.729
					c-0.322-0.418-0.778-0.607-1.538-0.607h-0.665c-0.152,0-0.361,0.019-0.514,0.152c-0.19,0.17-0.171,0.379-0.171,0.57v6.725
					h-3.723V28.501z"/>
				<path fill="#F68720" d="M188.275,36.765c-0.741,0-2.09,0-3.116-0.684c-0.836-0.57-1.272-1.559-1.272-2.471v-4.33h-1.425v-2.584
					h1.425v-3.23h3.724v3.23h2.868v2.584h-2.868v2.299c0,0.74,0.095,1.519,0.645,2.014c0.514,0.455,1.159,0.475,1.634,0.475h0.551
					v2.697H188.275z"/>
				<path fill="#F68720" d="M198.136,26.697c1.234,0,2.051,0.438,2.488,0.873c0.836,0.816,0.95,2.014,0.95,2.83v4.219
					c0,0.531-0.038,1.139-0.494,1.615c-0.476,0.492-1.14,0.531-1.71,0.531h-5.927c-0.627,0-1.311-0.039-1.843-0.531
					c-0.779-0.703-0.817-2.033-0.817-2.832c0-0.873,0.076-1.937,0.874-2.545c0.551-0.418,1.197-0.438,1.786-0.438h4.407v-0.152
					c0-0.17-0.02-0.436-0.19-0.664c-0.285-0.381-0.76-0.398-1.14-0.398h-5.054v-2.508H198.136z M195.21,32.814
					c-0.114,0-0.38,0.018-0.551,0.17c-0.134,0.133-0.152,0.305-0.152,0.475c0,0.152,0.018,0.305,0.152,0.438
					c0.133,0.115,0.342,0.172,0.513,0.172h1.938c0.19,0,0.436-0.039,0.551-0.133c0.171-0.133,0.19-0.324,0.19-0.494v-0.627H195.21z"
					/>
				<path fill="#F68720" d="M203.19,37.753h4.483c0.398,0,0.987,0.018,1.367-0.268c0.209-0.17,0.381-0.455,0.438-0.721h-3.211
					c-1.063,0-2.223-0.076-3.001-1.273c-0.551-0.855-0.779-2.051-0.779-3.799c0-1.957,0.285-2.926,1.026-3.781
					c0.76-0.893,1.614-1.215,3.191-1.215h4.142c0.589,0,1.273,0.037,1.767,0.455c0.513,0.438,0.589,1.084,0.589,1.52v6.973
					c0,1.33-0.152,2.412-0.798,3.211c-0.76,0.969-2.033,1.33-3.571,1.33h-5.643V37.753z M209.478,30.191
					c0-0.266-0.038-0.475-0.285-0.644c-0.189-0.133-0.398-0.152-0.589-0.152h-0.418c-0.532,0-1.102,0.037-1.501,0.551
					c-0.171,0.209-0.398,0.664-0.398,1.881c0,0.893,0.151,1.424,0.418,1.729c0.475,0.551,1.178,0.514,1.71,0.514h1.063V30.191z"/>
				<path fill="#F68720" d="M218.201,36.765c-1.501,0-2.774,0-3.572-1.311c-0.437-0.723-0.513-1.787-0.513-3.609
					c0-1.844-0.095-3.344,0.817-4.275c0.931-0.949,2.85-0.988,4.749-0.988c2.032,0,3.362,0.039,4.16,0.686
					c0.969,0.777,1.083,2.279,1.083,3.381c0,0.646-0.038,1.387-0.608,1.842c-0.322,0.267-0.646,0.285-0.987,0.285h-5.49
					c-0.019,0.266,0.038,0.609,0.171,0.818c0.323,0.512,1.007,0.475,1.672,0.475h4.882v2.697H218.201z M220.594,30.419
					c0.531,0,0.607-0.342,0.607-0.531c0-0.266-0.133-0.57-0.684-0.684c-0.304-0.057-0.798-0.076-0.988-0.076
					c-0.437,0-1.025,0.02-1.292,0.17c-0.38,0.209-0.436,0.609-0.398,1.121H220.594z"/>
			</g>
		</g>
	</g>
</g>
<g id="brand-se_1_">
</g>
<g id="brand-kn_1_">
</g>
<g id="brand-pn_1_">
</g>
<g id="brand-cn_1_">
</g>
<g id="brand-esn_1_">
</g>
<g id="brand-osn_1_">
</g>
</svg>
