<?xml version="1.0" encoding="utf-8"?>
<!-- Generator: Adobe Illustrator 22.0.1, SVG Export Plug-In . SVG Version: 6.00 Build 0)  -->
<svg version="1.1" id="LOGO_x27_S" xmlns="http://www.w3.org/2000/svg" xmlns:xlink="http://www.w3.org/1999/xlink" x="0px" y="0px"
	 width="224.925px" height="42.271px" viewBox="0 0 224.925 42.271" enable-background="new 0 0 224.925 42.271"
	 xml:space="preserve">
<g id="brand-sadvantage">
	<g>
		<path fill="#FFFFFF" d="M28.467,11.427C31.16,8.61,33.704,6.6,35.744,6.431c-3.78-3.939-9.085-6.401-14.975-6.401
			c-1.723,0-3.391,0.225-4.991,0.621C19.406,1.429,23.757,5.675,28.467,11.427z"/>
		<path fill="#FFFFFF" d="M30.028,13.371c0.569,0.72,1.141,1.453,1.718,2.206c4.29,5.599,7.75,9.81,9.377,9.328
			c0.265-1.325,0.418-2.69,0.418-4.094c0-4.705-1.58-9.028-4.213-12.511C35.366,7.765,32.853,10.079,30.028,13.371z"/>
		<path fill="#FFFFFF" d="M19.821,23.476c-1.525,0.309-2.959-0.241-4.199-1.664c-0.907-1.043-1.22-1.727-1.462-2.098
			c1.177,1.407,2.549,1.905,3.96,1.661c-5.855-7.356-9.63-13.721-8.039-17.7c0.041-0.098,0.082-0.191,0.126-0.285
			c0.071-0.15,0.153-0.297,0.241-0.438c0.054-0.087,0.124-0.179,0.186-0.27c-0.53,0.297-1.045,0.615-1.545,0.956
			c-3.551,5.52,1.724,12.798,9.896,22.796c5.02,6.145,9.371,11.888,7.144,14.449c1.005-0.268,1.979-0.609,2.917-1.018
			c2.047-2.838-1.779-7.572-7.609-14.457C20.885,24.759,20.348,24.115,19.821,23.476z"/>
		<path fill="#FFFFFF" d="M28.338,15.396c-0.5,0.613-1.008,1.242-1.522,1.88c-0.939,1.166-2.89,3.449-2.89,3.449
			c-0.416,0.469-0.832,0.874-1.246,1.227c6.556,7.979,10.536,13.195,9.213,16.4c1.822-1.159,3.454-2.59,4.831-4.242
			c1.536-1.844,2.754-3.958,3.583-6.258C38.086,27.759,34.37,23.09,28.338,15.396z"/>
		<path fill="#FFFFFF" d="M23.614,41.389c2.599-1.974-1.755-7.045-6.902-13.05C11.263,21.98,3.19,12.79,6.472,5.745
			C2.487,9.532,0,14.879,0,20.812c0,11.475,9.299,20.779,20.769,20.779C21.735,41.591,22.683,41.517,23.614,41.389z"/>
		<path fill="#FFFFFF" d="M26.722,13.334c-0.094-0.12-0.183-0.233-0.278-0.355c-4.526-5.768-8.57-10.92-12.642-11.074
			c-0.166-0.008-0.328-0.004-0.492,0.004c-0.151,0.01-0.479,0.072-0.479,0.072c-0.166,0.219-0.279,0.398-0.4,0.627
			c-2.228,4.213,2.602,10.072,8.048,16.67c0.174,0.21,0.342,0.415,0.513,0.622c0.395-0.335,0.785-0.715,1.166-1.149
			c0,0,1.783-2.129,2.701-3.234C25.479,14.768,26.102,14.038,26.722,13.334z"/>
	</g>
	<g id="shopping_9_">
		<g id="shopping_10_">
			<path fill="#FFFFFF" d="M51.48,35.679h5.774c0.589,0,0.988-0.209,1.179-0.475c0.171-0.248,0.246-0.818,0.246-1.16
				c0-0.57-0.227-0.893-0.38-1.045c-0.322-0.303-0.911-0.455-2.374-0.797l-1.748-0.398c-1.539-0.361-2.09-0.856-2.317-1.121
				c-0.438-0.494-0.551-1.121-0.551-1.672c0-0.666,0.151-1.178,0.513-1.635c0.627-0.816,1.481-0.873,2.432-0.873h4.825v0.893h-5.225
				c-0.228,0-0.798,0.02-1.12,0.342c-0.343,0.342-0.361,0.932-0.361,1.197c0,0.342,0.038,0.93,0.418,1.31
				c0.342,0.342,1.387,0.607,1.729,0.684l1.824,0.418c1.216,0.285,2.09,0.475,2.679,0.949c0.627,0.494,0.722,1.084,0.722,1.748
				c0,0.703-0.133,1.635-0.874,2.146c-0.494,0.342-1.178,0.381-1.577,0.381H51.48V35.679z"/>
			<path fill="#FFFFFF" d="M61.266,23.273h0.987v3.23h3.686c1.007,0,1.767,0.189,2.337,0.721c0.722,0.686,0.874,1.654,0.874,2.66
				v6.688h-0.988v-6.801c0-0.438-0.038-1.234-0.494-1.768c-0.475-0.551-1.082-0.607-1.634-0.607h-3.78v9.176h-0.987V23.273z"/>
			<path fill="#FFFFFF" d="M71.925,27.492c0.987-0.969,2.45-1.104,3.723-1.104c1.273,0,2.736,0.135,3.724,1.104
				c1.102,1.082,1.254,2.867,1.254,3.988c0,2.185-0.607,3.42-1.254,4.066c-1.102,1.082-2.83,1.139-3.724,1.139
				c-0.893,0-2.621-0.057-3.723-1.139c-0.646-0.646-1.254-1.881-1.254-4.066C70.671,30.359,70.822,28.573,71.925,27.492z
				 M72.551,34.824c0.798,0.873,2.071,0.969,3.097,0.969c1.026,0,2.299-0.096,3.097-0.969c0.836-0.912,0.817-2.432,0.817-3.248
				c0-0.875,0-2.471-0.798-3.363c-0.779-0.855-2.166-0.93-3.116-0.93c-0.949,0-2.336,0.074-3.115,0.93
				c-0.798,0.893-0.798,2.488-0.798,3.363C71.734,32.392,71.716,33.911,72.551,34.824z"/>
			<path fill="#FFFFFF" d="M83.134,39.8h-0.987V27.757c0-0.533,0.322-0.836,0.475-0.951c0.38-0.283,0.836-0.303,1.121-0.303h2.545
				c0.665,0,2.014,0.094,3.002,1.158c1.026,1.084,1.063,2.527,1.063,3.725c0,1.272-0.075,2.582-0.798,3.684
				c-0.798,1.197-1.938,1.502-3.571,1.502h-2.85V39.8z M86.383,35.679c0.911,0,1.823-0.361,2.336-1.141
				c0.456-0.703,0.57-1.709,0.57-3.02c0-1.387-0.133-2.146-0.361-2.66c-0.475-1.064-1.52-1.463-2.432-1.463H83.59
				c-0.095,0-0.228,0.076-0.304,0.133c-0.133,0.113-0.152,0.228-0.152,0.361v7.789H86.383z"/>
			<path fill="#FFFFFF" d="M92.861,39.8h-0.987V27.757c0-0.533,0.322-0.836,0.475-0.951c0.38-0.283,0.836-0.303,1.121-0.303h2.545
				c0.665,0,2.014,0.094,3.002,1.158c1.025,1.084,1.063,2.527,1.063,3.725c0,1.272-0.075,2.582-0.798,3.684
				c-0.798,1.197-1.937,1.502-3.571,1.502h-2.85V39.8z M96.11,35.679c0.911,0,1.823-0.361,2.336-1.141
				c0.456-0.703,0.57-1.709,0.57-3.02c0-1.387-0.133-2.146-0.361-2.66c-0.475-1.064-1.519-1.463-2.432-1.463h-2.906
				c-0.095,0-0.228,0.076-0.304,0.133c-0.133,0.113-0.152,0.228-0.152,0.361v7.789H96.11z"/>
			<path fill="#FFFFFF" d="M101.603,24.679v-1.406h1.063v1.406H101.603z M101.641,26.503h0.987v10.068h-0.987V26.503z"/>
			<path fill="#FFFFFF" d="M104.566,27.814c0-0.266,0.019-0.666,0.228-0.932c0.266-0.342,0.684-0.379,0.988-0.379h3.609
				c0.949,0,1.729,0.133,2.336,0.74c0.305,0.305,0.779,0.949,0.779,2.336v6.992h-0.988v-6.744c0-0.855-0.095-1.367-0.437-1.805
				c-0.418-0.531-0.987-0.627-1.634-0.627h-3.571c-0.095,0-0.209,0-0.266,0.076c-0.058,0.076-0.058,0.229-0.058,0.303v8.797h-0.987
				V27.814z"/>
			<path fill="#FFFFFF" d="M117.903,36.572c-1.102,0-2.279-0.076-3.077-1.311c-0.646-1.008-0.798-2.414-0.798-3.971
				c0-1.576,0.171-2.793,1.12-3.762c0.836-0.856,1.748-1.025,3.002-1.025h2.508c0.531,0,1.102,0.037,1.538,0.361
				c0.514,0.379,0.589,0.969,0.589,1.404v7.145c0,1.234-0.133,2.469-0.816,3.268c-0.893,1.025-2.565,1.119-3.191,1.119h-4.027
				v-0.893h4.027c0.38,0,1.576-0.018,2.261-0.627c0.475-0.418,0.722-1.139,0.76-1.709H117.903z M121.798,28.212
				c0-0.285-0.038-0.494-0.285-0.664c-0.209-0.133-0.418-0.152-0.607-0.152h-3.116c-0.949,0-1.538,0.361-1.861,0.703
				c-0.779,0.816-0.836,2.299-0.836,3.381c0,2.621,0.607,3.363,0.76,3.553c0.589,0.684,1.444,0.646,1.995,0.646h3.951V28.212z"/>
		</g>
	</g>
	<g id="advantage_1_">
		<g>
			<path fill="#FFFFFF" d="M131.371,26.697c1.234,0,2.051,0.438,2.488,0.873c0.836,0.816,0.95,2.014,0.95,2.83v4.219
				c0,0.531-0.038,1.139-0.494,1.615c-0.476,0.492-1.14,0.531-1.71,0.531h-5.927c-0.627,0-1.312-0.039-1.843-0.531
				c-0.779-0.703-0.817-2.033-0.817-2.832c0-0.873,0.076-1.938,0.874-2.545c0.551-0.418,1.197-0.438,1.786-0.438h4.407v-0.152
				c0-0.17-0.02-0.436-0.19-0.664c-0.285-0.381-0.76-0.398-1.14-0.398h-5.054v-2.508H131.371z M128.445,32.814
				c-0.114,0-0.38,0.017-0.551,0.17c-0.134,0.133-0.152,0.305-0.152,0.475c0,0.152,0.019,0.305,0.152,0.438
				c0.133,0.115,0.342,0.172,0.513,0.172h1.938c0.19,0,0.437-0.039,0.551-0.133c0.171-0.133,0.19-0.324,0.19-0.494v-0.627H128.445z"
				/>
			<path fill="#FFFFFF" d="M146.399,23.466v11.17c0,0.438-0.058,1.064-0.323,1.445c-0.437,0.645-1.178,0.684-1.729,0.684h-4.996
				c-1.558,0-2.66-0.684-3.173-1.938c-0.398-0.951-0.456-2.109-0.456-3.344c0-1.234,0.058-2.395,0.741-3.363
				c0.874-1.234,2.299-1.424,3.344-1.424h2.868v-3.23H146.399z M141.041,29.281c-0.607,0-0.988,0.303-1.197,0.607
				c-0.36,0.512-0.398,1.254-0.398,1.805c0,0.949,0.095,1.424,0.266,1.748c0.342,0.664,1.007,0.74,1.33,0.74h0.893
				c0.361,0,0.514-0.113,0.551-0.152c0.19-0.17,0.19-0.531,0.19-0.684v-4.064H141.041z"/>
			<path fill="#FFFFFF" d="M152.688,32.509c0.038,0.113,0.134,0.342,0.247,0.342c0.114,0,0.209-0.229,0.247-0.342l2.299-5.813h3.875
				l-4.255,9.269c-0.38,0.836-1.349,0.912-2.166,0.912c-0.816,0-1.785-0.076-2.165-0.912l-4.256-9.269h3.876L152.688,32.509z"/>
			<path fill="#FFFFFF" d="M166.596,26.697c1.234,0,2.051,0.438,2.488,0.873c0.836,0.816,0.95,2.014,0.95,2.83v4.219
				c0,0.531-0.038,1.139-0.494,1.615c-0.476,0.492-1.14,0.531-1.71,0.531h-5.927c-0.627,0-1.311-0.039-1.843-0.531
				c-0.779-0.703-0.817-2.033-0.817-2.832c0-0.873,0.076-1.938,0.874-2.545c0.551-0.418,1.197-0.438,1.786-0.438h4.407v-0.152
				c0-0.17-0.02-0.436-0.191-0.664c-0.285-0.381-0.76-0.398-1.14-0.398h-5.054v-2.508H166.596z M163.67,32.814
				c-0.114,0-0.38,0.017-0.551,0.17c-0.134,0.133-0.152,0.305-0.152,0.475c0,0.152,0.019,0.305,0.152,0.438
				c0.133,0.115,0.342,0.172,0.513,0.172h1.938c0.19,0,0.436-0.039,0.551-0.133c0.171-0.133,0.191-0.324,0.191-0.494v-0.627H163.67z
				"/>
			<path fill="#FFFFFF" d="M171.176,28.501c0-0.381,0.019-0.856,0.418-1.234c0.569-0.57,1.576-0.57,2.203-0.57h3.496
				c1.158,0,2.355,0.076,3.381,0.893c1.121,0.893,1.254,2.109,1.254,2.982v6.193h-3.724v-5.111c0-0.701-0.057-1.272-0.418-1.729
				c-0.322-0.418-0.778-0.607-1.538-0.607h-0.665c-0.152,0-0.361,0.02-0.514,0.152c-0.19,0.17-0.171,0.379-0.171,0.57v6.725h-3.723
				V28.501z"/>
			<path fill="#FFFFFF" d="M188.275,36.765c-0.741,0-2.09,0-3.116-0.684c-0.836-0.57-1.272-1.558-1.272-2.471v-4.33h-1.425v-2.584
				h1.425v-3.23h3.724v3.23h2.868v2.584h-2.868v2.299c0,0.74,0.095,1.52,0.645,2.014c0.514,0.455,1.159,0.475,1.634,0.475h0.551
				v2.697H188.275z"/>
			<path fill="#FFFFFF" d="M198.136,26.697c1.234,0,2.051,0.438,2.488,0.873c0.836,0.816,0.95,2.014,0.95,2.83v4.219
				c0,0.531-0.038,1.139-0.494,1.615c-0.476,0.492-1.14,0.531-1.71,0.531h-5.927c-0.627,0-1.311-0.039-1.843-0.531
				c-0.779-0.703-0.817-2.033-0.817-2.832c0-0.873,0.076-1.938,0.874-2.545c0.551-0.418,1.197-0.438,1.786-0.438h4.407v-0.152
				c0-0.17-0.02-0.436-0.19-0.664c-0.285-0.381-0.76-0.398-1.14-0.398h-5.054v-2.508H198.136z M195.21,32.814
				c-0.114,0-0.38,0.017-0.551,0.17c-0.134,0.133-0.152,0.305-0.152,0.475c0,0.152,0.018,0.305,0.152,0.438
				c0.133,0.115,0.342,0.172,0.513,0.172h1.938c0.19,0,0.436-0.039,0.551-0.133c0.171-0.133,0.19-0.324,0.19-0.494v-0.627H195.21z"
				/>
			<path fill="#FFFFFF" d="M203.19,37.753h4.483c0.398,0,0.987,0.018,1.367-0.268c0.209-0.17,0.381-0.455,0.438-0.721h-3.211
				c-1.063,0-2.223-0.076-3.001-1.273c-0.551-0.855-0.779-2.051-0.779-3.799c0-1.957,0.285-2.926,1.026-3.781
				c0.76-0.893,1.614-1.215,3.191-1.215h4.142c0.589,0,1.273,0.037,1.767,0.455c0.513,0.438,0.589,1.084,0.589,1.52v6.973
				c0,1.33-0.152,2.412-0.798,3.211c-0.76,0.969-2.033,1.33-3.571,1.33h-5.643V37.753z M209.478,30.191
				c0-0.266-0.038-0.475-0.285-0.645c-0.189-0.133-0.398-0.152-0.589-0.152h-0.418c-0.532,0-1.102,0.037-1.501,0.551
				c-0.171,0.209-0.398,0.664-0.398,1.881c0,0.893,0.151,1.424,0.418,1.729c0.475,0.551,1.178,0.514,1.71,0.514h1.063V30.191z"/>
			<path fill="#FFFFFF" d="M218.201,36.765c-1.501,0-2.774,0-3.572-1.311c-0.437-0.723-0.513-1.787-0.513-3.609
				c0-1.844-0.095-3.344,0.817-4.275c0.931-0.949,2.85-0.988,4.749-0.988c2.032,0,3.362,0.039,4.16,0.686
				c0.969,0.777,1.083,2.279,1.083,3.381c0,0.646-0.038,1.387-0.608,1.842c-0.322,0.267-0.646,0.285-0.987,0.285h-5.49
				c-0.019,0.266,0.038,0.609,0.171,0.818c0.323,0.512,1.007,0.475,1.672,0.475h4.882v2.697H218.201z M220.594,30.419
				c0.531,0,0.607-0.342,0.607-0.531c0-0.266-0.133-0.57-0.684-0.684c-0.304-0.057-0.798-0.076-0.988-0.076
				c-0.437,0-1.025,0.02-1.292,0.17c-0.38,0.209-0.436,0.609-0.398,1.121H220.594z"/>
		</g>
	</g>
</g>
<g id="brand-se_1_">
</g>
<g id="brand-kn_1_">
</g>
<g id="brand-pn_1_">
</g>
<g id="brand-cn_1_">
</g>
<g id="brand-esn_1_">
</g>
<g id="brand-osn_1_">
</g>
</svg>
