<?xml version="1.0" encoding="utf-8"?>
<!-- Generator: Adobe Illustrator 22.0.1, SVG Export Plug-In . SVG Version: 6.00 Build 0)  -->
<svg version="1.1" id="LOGO_x27_S" xmlns="http://www.w3.org/2000/svg" xmlns:xlink="http://www.w3.org/1999/xlink" x="0px" y="0px"
	 width="209.044px" height="43.226px" viewBox="0 0 209.044 43.226" enable-background="new 0 0 209.044 43.226"
	 xml:space="preserve">
<g id="brand-sadvantage">
</g>
<g id="brand-se_1_">
	<g id="se-bol">
		<g id="se-globe">
			
				<radialGradient id="SVGID_1_" cx="520.4148" cy="-90.0781" r="13.0385" gradientTransform="matrix(1.216 0 0 1.2158 -599.2368 117.8307)" gradientUnits="userSpaceOnUse">
				<stop  offset="0" style="stop-color:#FFFFFF"/>
				<stop  offset="1" style="stop-color:#E0E1E2"/>
			</radialGradient>
			<path fill="url(#SVGID_1_)" d="M42.484,21.294c0-11.732-9.51-21.24-21.242-21.24c-5.173,0-9.913,1.852-13.596,4.924
				l29.915,29.908C40.635,31.203,42.484,26.466,42.484,21.294z"/>
			
				<radialGradient id="SVGID_2_" cx="498.8403" cy="-69.5486" r="16.5751" gradientTransform="matrix(1.216 0 0 1.2158 -599.2368 117.8307)" gradientUnits="userSpaceOnUse">
				<stop  offset="0" style="stop-color:#FFFFFF"/>
				<stop  offset="1" style="stop-color:#E0E1E2"/>
			</radialGradient>
			<path fill="url(#SVGID_2_)" d="M7.646,4.978C2.975,8.873,0,14.736,0,21.294c0,11.729,9.509,21.236,21.242,21.236
				c6.559,0,12.423-2.973,16.319-7.644L7.646,4.978z"/>
		</g>
		<g id="se-shadow">
			<defs>
				<path id="SVGID_10_" d="M42.506,22.005C42.098,33.728,32.262,42.9,20.537,42.488C8.81,42.08-0.36,32.246,0.047,20.521
					C0.457,8.798,10.293-0.372,22.02,0.037C33.744,0.447,42.917,10.281,42.506,22.005z"/>
			</defs>
			<clipPath id="SVGID_4_">
				<use xlink:href="#SVGID_10_"  overflow="visible"/>
			</clipPath>
			<g clip-path="url(#SVGID_4_)">
				<g>
					<path fill="#F0F0F0" d="M38.81,35.234c-0.669,1.033-1.451,1.875-2.208,2.52c-3.675,3.133-7.267,1.217-10.835-3.602
						c-0.372-0.5-1.878-2.504-2.011-2.715l-0.072-0.096c0,0-2.022-2.607-3.166-4.041C11.24,15.662,5.35,5.91,12.261,2.224
						c1.97-1.049,2.891-0.885,2.891-0.885c-7.457,3.982-1.977,11.103,4.647,19.639c2.498,3.223,6.518,8.566,6.518,8.566l0.067,0.086
						c0.445,0.631,1.424,2.061,2.035,2.965C31.352,36.951,34.498,38.88,38.81,35.234"/>
					<path fill="#F0F0F0" d="M27.168,21.117c-1.419-1.756-2.517-1.52-4.482,0.566c0,0-3.579,4.385-6.305,1.5
						c-0.747-0.791-0.956-1.383-1.175-1.654c2.387,2.979,5.92-0.963,5.92-0.963c2.304-2.266,4.502-2.647,5.686-0.186
						C26.892,20.541,27.168,21.117,27.168,21.117z"/>
				</g>
				<path fill="#F0F0F0" d="M10.979,2.474c-6.975,5.621-1.593,13.799,7.416,25.631c6.166,8.102,11.287,15.525,3.598,16.225
					c-1.419,0.131-2.288-0.031-2.461-0.029c7.716-0.277,2.684-6.559-3.524-14.332C9.962,22.404,0.615,11.023,8.371,3.898
					C9.026,3.294,9.986,2.769,10.979,2.474"/>
			</g>
		</g>
		<g id="se">
			
				<radialGradient id="SVGID_5_" cx="517.3333" cy="-62.774" r="32.5599" gradientTransform="matrix(1.216 0 0 1.2158 -599.2368 117.8307)" gradientUnits="userSpaceOnUse">
				<stop  offset="0" style="stop-color:#444B4F"/>
				<stop  offset="0.108" style="stop-color:#484E52"/>
				<stop  offset="0.231" style="stop-color:#51565B"/>
				<stop  offset="0.361" style="stop-color:#616569"/>
				<stop  offset="0.456" style="stop-color:#717377"/>
				<stop  offset="0.5278" style="stop-color:#75767A"/>
				<stop  offset="0.5932" style="stop-color:#7F7F83"/>
				<stop  offset="0.656" style="stop-color:#919093"/>
				<stop  offset="0.6978" style="stop-color:#A4A2A5"/>
				<stop  offset="0.7625" style="stop-color:#9E9DA0"/>
				<stop  offset="0.8243" style="stop-color:#919093"/>
				<stop  offset="0.8849" style="stop-color:#7C7D80"/>
				<stop  offset="0.9445" style="stop-color:#626568"/>
				<stop  offset="1" style="stop-color:#444B4F"/>
			</radialGradient>
			<path fill="url(#SVGID_5_)" d="M11.031,1.687C4.255,7.546,9.92,15.531,19.337,27.044c6.443,7.879,11.819,15.117,4.161,16.09
				c-1.413,0.176-2.289,0.043-2.461,0.055c7.704-0.547,2.453-6.652-4.024-14.199c-6.3-7.35-16.042-18.399-8.539-25.789
				C9.108,2.576,10.05,2.013,11.031,1.687"/>
			<g>
				<linearGradient id="SVGID_6_" gradientUnits="userSpaceOnUse" x1="35.7538" y1="37.3247" x2="10.393" y2="2.4184">
					<stop  offset="0" style="stop-color:#010101"/>
					<stop  offset="0.2094" style="stop-color:#030404"/>
					<stop  offset="0.3327" style="stop-color:#0B0C0C"/>
					<stop  offset="0.4338" style="stop-color:#161717"/>
					<stop  offset="0.5228" style="stop-color:#222323"/>
					<stop  offset="0.6039" style="stop-color:#2F3030"/>
					<stop  offset="0.6781" style="stop-color:#3E3E3E"/>
					<stop  offset="0.7438" style="stop-color:#4F4F4F"/>
					<stop  offset="0.8887" style="stop-color:#4F4F4F;stop-opacity:0.8"/>
					<stop  offset="0.9548" style="stop-color:#3D3E3D;stop-opacity:0.9188"/>
					<stop  offset="1" style="stop-color:#343433"/>
				</linearGradient>
				<path fill="url(#SVGID_6_)" d="M39.156,33.904c-0.671,1.033-1.453,1.877-2.208,2.521c-3.677,3.131-7.267,1.217-10.838-3.604
					c-0.371-0.5-1.876-2.502-2.007-2.715l-0.073-0.098c0,0-2.023-2.603-3.167-4.039C11.587,14.33,5.694,4.582,12.608,0.898
					c1.968-1.053,2.889-0.889,2.889-0.889c-7.458,3.982-1.977,11.102,4.647,19.639c2.502,3.225,6.518,8.566,6.518,8.566l0.068,0.086
					c0.444,0.631,1.425,2.061,2.034,2.967C31.698,35.623,34.843,37.55,39.156,33.904"/>
				
					<radialGradient id="SVGID_7_" cx="2671.031" cy="4229.4292" r="9.0576" gradientTransform="matrix(-0.5605 -0.5604 1.5929 -2.2876 -5224.3193 11194.3428)" gradientUnits="userSpaceOnUse">
					<stop  offset="0" style="stop-color:#010101"/>
					<stop  offset="0.259" style="stop-color:#030303"/>
					<stop  offset="0.377" style="stop-color:#0A0B0B"/>
					<stop  offset="0.4664" style="stop-color:#141515"/>
					<stop  offset="0.5415" style="stop-color:#202121"/>
					<stop  offset="0.6075" style="stop-color:#2C2D2C"/>
					<stop  offset="0.6672" style="stop-color:#393A3A"/>
					<stop  offset="0.7208" style="stop-color:#4A4A4A"/>
					<stop  offset="0.7356" style="stop-color:#4F4F4F"/>
					<stop  offset="0.843" style="stop-color:#4F4F4F;stop-opacity:0.8"/>
					<stop  offset="0.9362" style="stop-color:#3D3E3D;stop-opacity:0.9188"/>
					<stop  offset="1" style="stop-color:#343433"/>
				</radialGradient>
				<path fill="url(#SVGID_7_)" d="M27.513,19.785c-1.418-1.752-2.515-1.518-4.481,0.568c0,0-3.581,4.387-6.306,1.502
					c-0.745-0.791-0.955-1.385-1.176-1.658c2.388,2.981,5.923-0.961,5.923-0.961c2.304-2.266,4.503-2.649,5.689-0.186
					C27.236,19.208,27.513,19.785,27.513,19.785z"/>
			</g>
		</g>
	</g>
	<g id="shoppingexclusief">
		<g id="shopping_8_">
			<g id="shopping_7_">
				<path fill="#4C4F53" d="M51.481,35.677h5.774c0.589,0,0.988-0.209,1.179-0.475c0.171-0.247,0.246-0.817,0.246-1.159
					c0-0.57-0.227-0.893-0.38-1.045c-0.322-0.304-0.911-0.455-2.374-0.797l-1.748-0.399c-1.539-0.361-2.09-0.854-2.317-1.121
					c-0.438-0.493-0.551-1.12-0.551-1.672c0-0.665,0.151-1.178,0.513-1.634c0.627-0.816,1.481-0.873,2.432-0.873h4.825v0.893h-5.225
					c-0.228,0-0.798,0.018-1.12,0.342c-0.343,0.342-0.361,0.931-0.361,1.197c0,0.342,0.038,0.93,0.418,1.311
					c0.342,0.342,1.387,0.607,1.729,0.684l1.824,0.418c1.216,0.285,2.09,0.475,2.679,0.949c0.627,0.494,0.722,1.084,0.722,1.748
					c0,0.703-0.133,1.634-0.874,2.146c-0.494,0.342-1.178,0.381-1.577,0.381h-5.813V35.677z"/>
				<path fill="#4C4F53" d="M61.266,23.272h0.987v3.23h3.685c1.007,0,1.767,0.189,2.337,0.721c0.722,0.685,0.874,1.653,0.874,2.66
					v6.688h-0.988V29.77c0-0.438-0.038-1.235-0.494-1.768c-0.475-0.551-1.082-0.607-1.634-0.607h-3.78v9.176h-0.987V23.272z"/>
				<path fill="#4C4F53" d="M71.925,27.49c0.987-0.969,2.45-1.103,3.723-1.103c1.273,0,2.736,0.134,3.724,1.103
					c1.102,1.083,1.254,2.868,1.254,3.989c0,2.185-0.607,3.42-1.254,4.066c-1.102,1.083-2.83,1.14-3.724,1.14
					c-0.893,0-2.621-0.057-3.723-1.14c-0.646-0.646-1.254-1.881-1.254-4.066C70.671,30.358,70.823,28.573,71.925,27.49z
					 M72.551,34.823c0.798,0.873,2.071,0.969,3.097,0.969c1.026,0,2.299-0.096,3.097-0.969c0.836-0.912,0.817-2.432,0.817-3.248
					c0-0.875,0-2.471-0.798-3.363c-0.779-0.856-2.166-0.931-3.116-0.931c-0.949,0-2.336,0.075-3.115,0.931
					c-0.798,0.892-0.798,2.488-0.798,3.363C71.735,32.391,71.716,33.911,72.551,34.823z"/>
				<path fill="#4C4F53" d="M83.134,39.799h-0.987V27.756c0-0.533,0.322-0.836,0.475-0.951c0.38-0.284,0.836-0.303,1.121-0.303
					h2.545c0.665,0,2.014,0.094,3.002,1.158c1.026,1.083,1.063,2.527,1.063,3.724c0,1.272-0.075,2.583-0.798,3.685
					c-0.798,1.197-1.938,1.502-3.571,1.502h-2.85V39.799z M86.383,35.677c0.911,0,1.823-0.36,2.336-1.14
					c0.456-0.703,0.57-1.71,0.57-3.021c0-1.387-0.133-2.146-0.361-2.659c-0.475-1.065-1.52-1.463-2.432-1.463H83.59
					c-0.095,0-0.228,0.076-0.304,0.133c-0.133,0.113-0.152,0.229-0.152,0.361v7.788H86.383z"/>
				<path fill="#4C4F53" d="M92.862,39.799h-0.987V27.756c0-0.533,0.322-0.836,0.475-0.951c0.38-0.284,0.836-0.303,1.121-0.303
					h2.545c0.665,0,2.014,0.094,3.002,1.158c1.025,1.083,1.063,2.527,1.063,3.724c0,1.272-0.075,2.583-0.798,3.685
					c-0.798,1.197-1.938,1.502-3.571,1.502h-2.85V39.799z M96.111,35.677c0.911,0,1.823-0.36,2.336-1.14
					c0.456-0.703,0.57-1.71,0.57-3.021c0-1.387-0.133-2.146-0.361-2.659c-0.475-1.065-1.519-1.463-2.432-1.463h-2.906
					c-0.095,0-0.228,0.076-0.304,0.133c-0.133,0.113-0.152,0.229-0.152,0.361v7.788H96.111z"/>
				<path fill="#4C4F53" d="M101.603,24.678v-1.406h1.063v1.406H101.603z M101.641,26.502h0.987v10.068h-0.987V26.502z"/>
				<path fill="#4C4F53" d="M104.567,27.813c0-0.266,0.019-0.666,0.228-0.932c0.266-0.342,0.684-0.379,0.988-0.379h3.609
					c0.949,0,1.729,0.133,2.336,0.74c0.305,0.305,0.779,0.949,0.779,2.336v6.992h-0.988v-6.744c0-0.855-0.095-1.368-0.437-1.805
					c-0.418-0.532-0.987-0.627-1.634-0.627h-3.571c-0.095,0-0.209,0-0.266,0.076c-0.058,0.076-0.058,0.228-0.058,0.303v8.797h-0.987
					V27.813z"/>
				<path fill="#4C4F53" d="M117.904,36.571c-1.102,0-2.279-0.076-3.077-1.312c-0.646-1.007-0.798-2.413-0.798-3.97
					c0-1.577,0.171-2.793,1.12-3.762c0.836-0.855,1.748-1.025,3.002-1.025h2.508c0.531,0,1.102,0.037,1.538,0.36
					c0.514,0.38,0.589,0.969,0.589,1.405v7.144c0,1.235-0.133,2.47-0.816,3.268c-0.893,1.026-2.565,1.12-3.191,1.12h-4.027v-0.893
					h4.027c0.38,0,1.576-0.019,2.261-0.627c0.475-0.418,0.722-1.14,0.76-1.709H117.904z M121.798,28.211
					c0-0.285-0.038-0.494-0.285-0.664c-0.209-0.134-0.418-0.152-0.607-0.152h-3.116c-0.949,0-1.538,0.361-1.861,0.703
					c-0.779,0.816-0.836,2.298-0.836,3.381c0,2.621,0.607,3.363,0.76,3.553c0.589,0.684,1.444,0.646,1.995,0.646h3.951V28.211z"/>
			</g>
		</g>
		<g id="exclusief_3_">
			<g id="exclusief_2_">
				<path fill="#010101" d="M128.164,36.571c-1.501,0-2.774,0-3.572-1.312c-0.437-0.722-0.513-1.786-0.513-3.609
					c0-1.843-0.095-3.343,0.817-4.274c0.931-0.949,2.85-0.988,4.749-0.988c2.032,0,3.362,0.039,4.16,0.685
					c0.969,0.778,1.083,2.28,1.083,3.382c0,0.646-0.038,1.387-0.608,1.842c-0.322,0.267-0.646,0.285-0.987,0.285h-5.49
					c-0.019,0.266,0.038,0.608,0.171,0.817c0.323,0.513,1.007,0.475,1.672,0.475h4.882v2.698H128.164z M130.557,30.225
					c0.531,0,0.607-0.342,0.607-0.531c0-0.267-0.133-0.57-0.684-0.685c-0.304-0.057-0.798-0.075-0.988-0.075
					c-0.436,0-1.025,0.019-1.292,0.17c-0.38,0.209-0.437,0.608-0.398,1.121H130.557z"/>
				<path fill="#010101" d="M142.831,36.571l-1.861-2.85l-1.862,2.85h-4.331l4.009-5.168l-3.686-4.9h4.236l1.634,2.583l1.634-2.583
					h4.236l-3.686,4.9l4.009,5.168H142.831z"/>
				<path fill="#010101" d="M151.02,36.571c-0.855,0-2.166-0.114-3.078-1.197c-0.778-0.912-0.893-2.166-0.893-3.705
					c0-1.463,0.076-3.039,1.121-4.121c0.778-0.817,1.843-1.045,3.039-1.045h5.415v2.545h-3.686c-1.273,0-1.71,0.57-1.919,1.216
					c-0.133,0.399-0.171,0.817-0.171,1.33c0,1.159,0.209,1.577,0.304,1.747c0.456,0.741,1.425,0.685,1.995,0.685h3.686v2.546H151.02
					z"/>
				<path fill="#010101" d="M157.747,23.272h3.723v13.299h-3.723V23.272z"/>
				<path fill="#010101" d="M166.333,26.502v5.015c0,0.95,0.152,1.425,0.361,1.729c0.418,0.589,1.14,0.627,1.577,0.627h0.684
					c0.304,0,0.513-0.075,0.645-0.209c0.191-0.19,0.191-0.418,0.191-0.608v-6.553h3.724v8.016c0,0.57-0.076,1.141-0.627,1.596
					c-0.514,0.418-1.216,0.457-1.634,0.457h-4.559c-1.425,0-2.299-0.418-2.812-0.855c-1.045-0.855-1.272-2.203-1.272-3.723v-5.49
					H166.333z"/>
				<path fill="#010101" d="M174.542,33.873h5.49c0.057,0,0.171-0.038,0.228-0.075c0.058-0.039,0.096-0.096,0.096-0.19
					c0-0.134-0.096-0.191-0.172-0.228c-0.133-0.076-0.342-0.134-1.14-0.399l-2.165-0.703c-0.912-0.304-1.691-0.702-2.071-1.329
					c-0.285-0.476-0.38-1.197-0.38-1.691c0-0.627,0.114-1.273,0.475-1.805c0.532-0.798,1.292-0.949,2.337-0.949h6.726v2.583h-5.472
					c-0.133,0-0.285-0.019-0.437,0.019c-0.096,0.02-0.171,0.039-0.171,0.172c0,0.151,0.095,0.189,0.209,0.228
					c0.455,0.151,0.322,0.133,0.76,0.284l2.545,0.855c1.064,0.361,1.843,0.665,2.318,1.367c0.475,0.685,0.513,1.502,0.513,1.939
					c0,0.741-0.152,1.596-0.836,2.146c-0.532,0.418-1.14,0.475-1.652,0.475h-7.2V33.873z"/>
				<path fill="#010101" d="M185.144,25.495v-2.223h3.723v2.223H185.144z M185.144,26.502h3.723v10.068h-3.723V26.502z"/>
				<path fill="#010101" d="M193.865,36.571c-1.501,0-2.774,0-3.572-1.312c-0.437-0.722-0.513-1.786-0.513-3.609
					c0-1.843-0.095-3.343,0.817-4.274c0.931-0.949,2.85-0.988,4.749-0.988c2.032,0,3.362,0.039,4.16,0.685
					c0.969,0.778,1.083,2.28,1.083,3.382c0,0.646-0.038,1.387-0.608,1.842c-0.322,0.267-0.645,0.285-0.987,0.285h-5.49
					c-0.019,0.266,0.038,0.608,0.171,0.817c0.323,0.513,1.007,0.475,1.672,0.475h4.882v2.698H193.865z M196.258,30.225
					c0.531,0,0.607-0.342,0.607-0.531c0-0.267-0.133-0.57-0.684-0.685c-0.304-0.057-0.798-0.075-0.988-0.075
					c-0.436,0-1.025,0.019-1.292,0.17c-0.38,0.209-0.436,0.608-0.398,1.121H196.258z"/>
				<path fill="#010101" d="M202.51,36.571v-7.409h-1.501v-2.659h1.501c0.038-0.912,0.418-1.957,1.367-2.584
					c0.685-0.456,1.995-0.836,5.167-0.799v2.318c-1.671,0.02-2.108,0.076-2.394,0.247c-0.418,0.247-0.437,0.646-0.418,0.817h2.812
					v2.659h-2.812v7.409H202.51z"/>
			</g>
		</g>
	</g>
</g>
<g id="brand-kn_1_">
</g>
<g id="brand-pn_1_">
</g>
<g id="brand-cn_1_">
</g>
<g id="brand-esn_1_">
</g>
<g id="brand-osn_1_">
</g>
</svg>
