<?xml version="1.0" encoding="utf-8"?>
<!-- Generator: Adobe Illustrator 26.0.1, SVG Export Plug-In . SVG Version: 6.00 Build 0)  -->
<svg version="1.1" id="LOGO_x27_S" xmlns="http://www.w3.org/2000/svg" xmlns:xlink="http://www.w3.org/1999/xlink" x="0px" y="0px"
	 viewBox="0 0 122.693 16.538" enable-background="new 0 0 122.693 16.538" xml:space="preserve">
<g id="TypeFont__x28_MagistralBlackC_Regular_en_MagistralC_Regular_x29_" display="none">
	<text transform="matrix(1 0 0 1 -0.5703 13.2978)" display="inline"><tspan x="0" y="0" fill="#1794D2" font-family="'MagistralBlackC'" font-size="19px">m</tspan><tspan x="16.34" y="0" fill="#1794D2" font-family="'MagistralBlackC'" font-size="19px" letter-spacing="-1">i</tspan><tspan x="19.646" y="0" fill="#1794D2" font-family="'MagistralBlackC'" font-size="19px">jn.</tspan></text>
</g>
<g id="TypeFont__x28_MagistralBlackC_Regular_en_MagistralC_Regular_x29__copy" display="none">
	<text transform="matrix(1 0 0 1 43.0845 13.2978)" display="inline"><tspan x="0" y="0" fill="#4C4F53" font-family="'MagistralC'" font-size="19px">s</tspan><tspan x="9.576" y="0" fill="#4C4F53" font-family="'MagistralC'" font-size="19px">t</tspan><tspan x="15.617" y="0" fill="#4C4F53" font-family="'MagistralC'" font-size="19px">ad-gemeente</tspan></text>
	<text transform="matrix(1 0 0 1 43.0845 13.2978)" display="inline"><tspan x="0" y="0" fill="#4C4F53" font-family="'MagistralC'" font-size="19px">s</tspan><tspan x="9.576" y="0" fill="#4C4F53" font-family="'MagistralC'" font-size="19px">t</tspan><tspan x="15.617" y="0" fill="#4C4F53" font-family="'MagistralC'" font-size="19px">ad</tspan></text>
	<text transform="matrix(1 0 0 1 43.0845 13.2978)" display="inline" fill="#4C4F53" font-family="'MagistralC'" font-size="19px">gemeente</text>
</g>
<g id="mijn.">
	<g>
		<path fill="#1794D2" d="M0,5.034C0,4.73,0.057,4.293,0.36,3.913c0.513-0.646,1.197-0.684,1.995-0.684h8.644
			c1.14,0,2.375,0.304,3.135,1.007c0.702,0.665,1.063,1.786,1.063,2.716v6.345h-3.724V7.713c0-0.418-0.038-1.045-0.398-1.425
			c-0.209-0.228-0.627-0.437-1.197-0.437H9.46v7.447H5.736V5.851H4.312c-0.322,0-0.437,0.095-0.493,0.152
			C3.742,6.098,3.723,6.326,3.723,6.516v6.782H0V5.034z"/>
		<path fill="#1794D2" d="M16.34,2.223V0h3.723v2.223H16.34z M16.34,3.229h3.723v10.068H16.34V3.229z"/>
		<path fill="#1794D2" d="M18.315,14.134c1.102,0.019,1.576-0.076,2.09-0.475c0.475-0.38,0.76-0.855,0.76-1.918V3.229h3.724v9.29
			c0,0.874-0.134,2.432-1.463,3.287c-0.969,0.627-2.451,0.779-5.11,0.722V14.134z M21.165,2.223V0h3.724v2.223H21.165z"/>
		<path fill="#1794D2" d="M26.03,5.034c0-0.38,0.019-0.855,0.418-1.235c0.569-0.57,1.576-0.57,2.203-0.57h3.495
			c1.159,0,2.356,0.076,3.382,0.893c1.121,0.893,1.254,2.109,1.254,2.983v6.193h-3.724v-5.11c0-0.703-0.057-1.272-0.418-1.729
			c-0.322-0.418-0.778-0.608-1.538-0.608h-0.665c-0.152,0-0.361,0.019-0.514,0.152c-0.189,0.171-0.171,0.38-0.171,0.57v6.725H26.03
			V5.034z"/>
		<path fill="#1794D2" d="M38.304,13.298V9.878h3.761v3.419H38.304z"/>
	</g>
</g>
<g id="stad-gemeente">
	<g display="none">
		<path display="inline" fill="#4C4F53" d="M43.826,12.405H49.6c0.589,0,0.988-0.209,1.179-0.475
			c0.171-0.247,0.246-0.817,0.246-1.159c0-0.57-0.228-0.893-0.38-1.044c-0.322-0.304-0.911-0.456-2.374-0.798L46.523,8.53
			c-1.539-0.361-2.09-0.855-2.317-1.121c-0.438-0.494-0.551-1.121-0.551-1.672c0-0.665,0.151-1.178,0.513-1.634
			c0.627-0.817,1.481-0.874,2.432-0.874h4.825v0.893H46.2c-0.228,0-0.798,0.019-1.12,0.342c-0.343,0.342-0.361,0.931-0.361,1.197
			c0,0.342,0.038,0.931,0.418,1.311c0.342,0.342,1.387,0.608,1.729,0.684l1.824,0.418c1.216,0.285,2.09,0.475,2.679,0.95
			c0.627,0.494,0.722,1.083,0.722,1.748c0,0.703-0.133,1.634-0.874,2.147c-0.494,0.342-1.178,0.38-1.577,0.38h-5.812V12.405z"/>
		<path display="inline" fill="#4C4F53" d="M57.353,13.298c-0.854,0-1.805,0.038-2.432-0.589c-0.627-0.608-0.684-1.596-0.684-2.792
			V4.122h-1.387V3.229h1.387V0h0.987v3.229h2.773v0.893h-2.773v5.585c0,0.855-0.057,2.014,0.57,2.451
			c0.228,0.152,0.665,0.247,1.785,0.247h0.532v0.893H57.353z"/>
		<path display="inline" fill="#4C4F53" d="M64.971,3.229c0.684,0,1.367,0.266,1.767,0.703c0.531,0.57,0.607,1.406,0.607,2.014
			v6.022c0,0.266-0.019,0.741-0.342,1.044c-0.304,0.285-0.798,0.285-1.14,0.285h-3.876c-0.569,0-1.272-0.019-1.823-0.456
			c-0.836-0.684-0.893-2.052-0.893-2.66c0-0.817,0.113-1.767,0.836-2.375c0.551-0.456,1.311-0.532,1.88-0.532h4.37V5.775
			c0-0.323-0.134-0.893-0.38-1.197c-0.209-0.247-0.589-0.456-1.064-0.456h-4.882V3.229H64.971z M61.76,8.168
			c-0.589,0-0.95,0.285-1.102,0.494c-0.247,0.323-0.323,0.855-0.323,1.558c0,0.608,0.057,1.33,0.398,1.748
			c0.209,0.247,0.57,0.437,0.988,0.437h4.065c0.114,0,0.304,0,0.437-0.114c0.134-0.114,0.134-0.209,0.134-0.342V8.168H61.76z"/>
		<path display="inline" fill="#4C4F53" d="M76.826,12.937c-0.284,0.342-0.778,0.361-1.102,0.361h-3.135
			c-0.987,0-2.526-0.228-3.268-2.033c-0.398-0.969-0.455-2.166-0.455-3.268c0-1.102,0.057-2.242,0.76-3.268
			c0.911-1.33,2.299-1.5,3.419-1.5h3.059V0h0.988v11.835C77.092,12.215,77.016,12.69,76.826,12.937z M72.818,4.122
			c-0.741,0-1.805,0.152-2.394,1.14c-0.342,0.57-0.494,1.462-0.494,2.887c0,1.824,0.189,2.432,0.285,2.698
			c0.513,1.387,1.805,1.558,2.603,1.558h2.526c0.114,0,0.456,0,0.608-0.152c0.113-0.133,0.151-0.494,0.151-0.703V4.122H72.818z"/>
		<path display="inline" fill="#4C4F53" d="M78.994,7.599h5.699v1.102h-5.699V7.599z"/>
		<path display="inline" fill="#4C4F53" d="M90.088,13.298c-1.102,0-2.279-0.076-3.077-1.311c-0.646-1.007-0.798-2.413-0.798-3.97
			c0-1.577,0.171-2.792,1.12-3.761c0.836-0.855,1.748-1.026,3.002-1.026h2.508c0.531,0,1.102,0.038,1.538,0.361
			c0.514,0.38,0.589,0.969,0.589,1.406v7.143c0,1.235-0.133,2.47-0.816,3.268c-0.893,1.026-2.564,1.121-3.191,1.121h-4.027v-0.893
			h4.027c0.38,0,1.576-0.019,2.261-0.626c0.475-0.418,0.722-1.14,0.76-1.71H90.088z M93.983,4.939c0-0.285-0.038-0.494-0.285-0.665
			c-0.209-0.133-0.418-0.152-0.607-0.152h-3.116c-0.949,0-1.538,0.361-1.861,0.703c-0.779,0.817-0.836,2.298-0.836,3.381
			c0,2.622,0.607,3.363,0.76,3.553c0.589,0.684,1.444,0.646,1.995,0.646h3.951V4.939z"/>
		<path display="inline" fill="#4C4F53" d="M99.969,13.298c-0.817,0-1.881-0.209-2.66-1.235c-0.779-1.007-0.816-2.28-0.816-3.761
			c0-1.406,0.075-3.116,1.349-4.18c0.912-0.76,2.146-0.893,3.153-0.893c0.703,0,1.748,0.095,2.564,0.57
			c0.399,0.247,1.615,1.083,1.615,3.191c0,0.285-0.02,0.969-0.418,1.311c-0.305,0.266-0.779,0.304-1.064,0.304h-6.136
			c-0.019,0.589,0.019,1.52,0.171,2.052c0.228,0.817,0.912,1.748,2.242,1.748h4.938v0.893H99.969z M103.692,7.713
			c0.438,0,0.418-0.532,0.418-0.665c0-0.988-0.342-1.653-0.684-2.052c-0.722-0.855-1.71-0.874-2.603-0.874
			c-1.007,0-2.09,0.038-2.793,1.216c-0.398,0.665-0.456,1.387-0.475,2.375H103.692z"/>
		<path display="inline" fill="#4C4F53" d="M106.695,4.92c0-0.38,0.038-0.817,0.228-1.14c0.323-0.494,0.854-0.551,1.14-0.551h9.347
			c0.798,0,1.577,0.152,2.109,0.627c0.626,0.551,0.778,1.443,0.778,2.279v7.162h-0.987V6.06c0-0.456-0.058-1.045-0.418-1.444
			c-0.418-0.456-1.064-0.494-1.501-0.494h-3.4v9.176h-0.988V4.122h-4.711c-0.171,0-0.361,0.019-0.494,0.171
			c-0.114,0.133-0.114,0.342-0.114,0.532v8.473h-0.987V4.92z"/>
		<path display="inline" fill="#4C4F53" d="M125.295,13.298c-0.817,0-1.881-0.209-2.66-1.235c-0.779-1.007-0.816-2.28-0.816-3.761
			c0-1.406,0.075-3.116,1.349-4.18c0.912-0.76,2.146-0.893,3.153-0.893c0.703,0,1.748,0.095,2.564,0.57
			c0.399,0.247,1.615,1.083,1.615,3.191c0,0.285-0.02,0.969-0.418,1.311c-0.305,0.266-0.779,0.304-1.064,0.304h-6.136
			c-0.019,0.589,0.019,1.52,0.171,2.052c0.228,0.817,0.912,1.748,2.242,1.748h4.938v0.893H125.295z M129.018,7.713
			c0.438,0,0.418-0.532,0.418-0.665c0-0.988-0.342-1.653-0.684-2.052c-0.722-0.855-1.71-0.874-2.603-0.874
			c-1.007,0-2.09,0.038-2.793,1.216c-0.398,0.665-0.456,1.387-0.475,2.375H129.018z"/>
		<path display="inline" fill="#4C4F53" d="M135.119,13.298c-0.817,0-1.881-0.209-2.66-1.235c-0.778-1.007-0.816-2.28-0.816-3.761
			c0-1.406,0.075-3.116,1.349-4.18c0.912-0.76,2.146-0.893,3.153-0.893c0.703,0,1.748,0.095,2.564,0.57
			c0.399,0.247,1.615,1.083,1.615,3.191c0,0.285-0.02,0.969-0.418,1.311c-0.305,0.266-0.779,0.304-1.064,0.304h-6.136
			c-0.019,0.589,0.019,1.52,0.171,2.052c0.228,0.817,0.912,1.748,2.242,1.748h4.938v0.893H135.119z M138.841,7.713
			c0.438,0,0.418-0.532,0.418-0.665c0-0.988-0.342-1.653-0.684-2.052c-0.722-0.855-1.71-0.874-2.603-0.874
			c-1.007,0-2.09,0.038-2.793,1.216c-0.398,0.665-0.456,1.387-0.475,2.375H138.841z"/>
		<path display="inline" fill="#4C4F53" d="M141.845,4.54c0-0.266,0.019-0.665,0.228-0.931c0.266-0.342,0.684-0.38,0.988-0.38h3.609
			c0.949,0,1.729,0.133,2.336,0.741c0.305,0.304,0.779,0.95,0.779,2.336v6.991h-0.988V6.554c0-0.854-0.095-1.368-0.437-1.805
			c-0.418-0.532-0.987-0.627-1.634-0.627h-3.571c-0.095,0-0.209,0-0.266,0.076c-0.058,0.076-0.058,0.228-0.058,0.304v8.796h-0.987
			V4.54z"/>
		<path display="inline" fill="#4C4F53" d="M155.429,13.298c-0.854,0-1.805,0.038-2.432-0.589c-0.627-0.608-0.684-1.596-0.684-2.792
			V4.122h-1.387V3.229h1.387V0h0.987v3.229h2.773v0.893h-2.773v5.585c0,0.855-0.057,2.014,0.57,2.451
			c0.228,0.152,0.665,0.247,1.785,0.247h0.532v0.893H155.429z"/>
		<path display="inline" fill="#4C4F53" d="M160.046,13.298c-0.817,0-1.881-0.209-2.66-1.235c-0.778-1.007-0.816-2.28-0.816-3.761
			c0-1.406,0.075-3.116,1.349-4.18c0.912-0.76,2.146-0.893,3.153-0.893c0.703,0,1.748,0.095,2.564,0.57
			c0.399,0.247,1.615,1.083,1.615,3.191c0,0.285-0.02,0.969-0.418,1.311c-0.305,0.266-0.779,0.304-1.064,0.304h-6.136
			c-0.019,0.589,0.019,1.52,0.171,2.052c0.228,0.817,0.912,1.748,2.242,1.748h4.938v0.893H160.046z M163.769,7.713
			c0.438,0,0.418-0.532,0.418-0.665c0-0.988-0.342-1.653-0.684-2.052c-0.722-0.855-1.71-0.874-2.603-0.874
			c-1.007,0-2.09,0.038-2.793,1.216c-0.398,0.665-0.456,1.387-0.475,2.375H163.769z"/>
	</g>
	<g display="none">
		<path display="inline" fill="#4C4F53" d="M43.826,12.405H49.6c0.589,0,0.988-0.209,1.179-0.475
			c0.171-0.247,0.246-0.817,0.246-1.159c0-0.57-0.228-0.893-0.38-1.044c-0.322-0.304-0.911-0.456-2.374-0.798L46.523,8.53
			c-1.539-0.361-2.09-0.855-2.317-1.121c-0.438-0.494-0.551-1.121-0.551-1.672c0-0.665,0.151-1.178,0.513-1.634
			c0.627-0.817,1.481-0.874,2.432-0.874h4.825v0.893H46.2c-0.228,0-0.798,0.019-1.12,0.342c-0.343,0.342-0.361,0.931-0.361,1.197
			c0,0.342,0.038,0.931,0.418,1.311c0.342,0.342,1.387,0.608,1.729,0.684l1.824,0.418c1.216,0.285,2.09,0.475,2.679,0.95
			c0.627,0.494,0.722,1.083,0.722,1.748c0,0.703-0.133,1.634-0.874,2.147c-0.494,0.342-1.178,0.38-1.577,0.38h-5.812V12.405z"/>
		<path display="inline" fill="#4C4F53" d="M57.353,13.298c-0.854,0-1.805,0.038-2.432-0.589c-0.627-0.608-0.684-1.596-0.684-2.792
			V4.122h-1.387V3.229h1.387V0h0.987v3.229h2.773v0.893h-2.773v5.585c0,0.855-0.057,2.014,0.57,2.451
			c0.228,0.152,0.665,0.247,1.785,0.247h0.532v0.893H57.353z"/>
		<path display="inline" fill="#4C4F53" d="M64.971,3.229c0.684,0,1.367,0.266,1.767,0.703c0.531,0.57,0.607,1.406,0.607,2.014
			v6.022c0,0.266-0.019,0.741-0.342,1.044c-0.304,0.285-0.798,0.285-1.14,0.285h-3.876c-0.569,0-1.272-0.019-1.823-0.456
			c-0.836-0.684-0.893-2.052-0.893-2.66c0-0.817,0.113-1.767,0.836-2.375c0.551-0.456,1.311-0.532,1.88-0.532h4.37V5.775
			c0-0.323-0.134-0.893-0.38-1.197c-0.209-0.247-0.589-0.456-1.064-0.456h-4.882V3.229H64.971z M61.76,8.168
			c-0.589,0-0.95,0.285-1.102,0.494c-0.247,0.323-0.323,0.855-0.323,1.558c0,0.608,0.057,1.33,0.398,1.748
			c0.209,0.247,0.57,0.437,0.988,0.437h4.065c0.114,0,0.304,0,0.437-0.114c0.134-0.114,0.134-0.209,0.134-0.342V8.168H61.76z"/>
		<path display="inline" fill="#4C4F53" d="M76.826,12.937c-0.284,0.342-0.778,0.361-1.102,0.361h-3.135
			c-0.987,0-2.526-0.228-3.268-2.033c-0.398-0.969-0.455-2.166-0.455-3.268c0-1.102,0.057-2.242,0.76-3.268
			c0.911-1.33,2.299-1.5,3.419-1.5h3.059V0h0.988v11.835C77.092,12.215,77.016,12.69,76.826,12.937z M72.818,4.122
			c-0.741,0-1.805,0.152-2.394,1.14c-0.342,0.57-0.494,1.462-0.494,2.887c0,1.824,0.189,2.432,0.285,2.698
			c0.513,1.387,1.805,1.558,2.603,1.558h2.526c0.114,0,0.456,0,0.608-0.152c0.113-0.133,0.151-0.494,0.151-0.703V4.122H72.818z"/>
	</g>
	<g>
		<path fill="#4C4F53" d="M47.53,13.298c-1.102,0-2.279-0.076-3.077-1.311c-0.646-1.007-0.798-2.413-0.798-3.97
			c0-1.577,0.171-2.792,1.12-3.761c0.836-0.855,1.748-1.026,3.002-1.026h2.508c0.531,0,1.102,0.038,1.538,0.361
			c0.514,0.38,0.589,0.969,0.589,1.406v7.143c0,1.235-0.133,2.47-0.816,3.268c-0.893,1.026-2.564,1.121-3.191,1.121h-4.027v-0.893
			h4.027c0.38,0,1.576-0.019,2.261-0.626c0.475-0.418,0.722-1.14,0.76-1.71H47.53z M51.424,4.939c0-0.285-0.038-0.494-0.285-0.665
			c-0.209-0.133-0.418-0.152-0.607-0.152h-3.116c-0.949,0-1.538,0.361-1.861,0.703c-0.779,0.817-0.836,2.298-0.836,3.381
			c0,2.622,0.607,3.363,0.76,3.553c0.589,0.684,1.444,0.646,1.995,0.646h3.951V4.939z"/>
		<path fill="#4C4F53" d="M57.41,13.298c-0.817,0-1.881-0.209-2.66-1.235c-0.778-1.007-0.816-2.28-0.816-3.761
			c0-1.406,0.075-3.116,1.349-4.18c0.912-0.76,2.146-0.893,3.153-0.893c0.703,0,1.748,0.095,2.564,0.57
			c0.399,0.247,1.615,1.083,1.615,3.191c0,0.285-0.02,0.969-0.418,1.311c-0.305,0.266-0.779,0.304-1.064,0.304h-6.136
			c-0.019,0.589,0.019,1.52,0.171,2.052c0.228,0.817,0.912,1.748,2.242,1.748h4.938v0.893H57.41z M61.132,7.713
			c0.438,0,0.418-0.532,0.418-0.665c0-0.988-0.342-1.653-0.684-2.052c-0.722-0.855-1.71-0.874-2.603-0.874
			c-1.007,0-2.09,0.038-2.793,1.216c-0.398,0.665-0.456,1.387-0.475,2.375H61.132z"/>
		<path fill="#4C4F53" d="M64.136,4.92c0-0.38,0.038-0.817,0.228-1.14c0.323-0.494,0.854-0.551,1.14-0.551h9.347
			c0.798,0,1.577,0.152,2.109,0.627c0.626,0.551,0.778,1.443,0.778,2.279v7.162H76.75V6.06c0-0.456-0.058-1.045-0.418-1.444
			c-0.418-0.456-1.064-0.494-1.501-0.494h-3.4v9.176h-0.988V4.122h-4.711c-0.171,0-0.361,0.019-0.494,0.171
			c-0.114,0.133-0.114,0.342-0.114,0.532v8.473h-0.987V4.92z"/>
		<path fill="#4C4F53" d="M82.737,13.298c-0.817,0-1.881-0.209-2.66-1.235c-0.779-1.007-0.816-2.28-0.816-3.761
			c0-1.406,0.075-3.116,1.349-4.18c0.912-0.76,2.146-0.893,3.153-0.893c0.703,0,1.748,0.095,2.564,0.57
			c0.399,0.247,1.615,1.083,1.615,3.191c0,0.285-0.02,0.969-0.418,1.311c-0.305,0.266-0.779,0.304-1.064,0.304h-6.136
			c-0.019,0.589,0.019,1.52,0.171,2.052c0.228,0.817,0.912,1.748,2.242,1.748h4.938v0.893H82.737z M86.459,7.713
			c0.438,0,0.418-0.532,0.418-0.665c0-0.988-0.342-1.653-0.684-2.052c-0.722-0.855-1.71-0.874-2.603-0.874
			c-1.007,0-2.09,0.038-2.793,1.216c-0.398,0.665-0.456,1.387-0.475,2.375H86.459z"/>
		<path fill="#4C4F53" d="M92.56,13.298c-0.817,0-1.881-0.209-2.66-1.235c-0.778-1.007-0.816-2.28-0.816-3.761
			c0-1.406,0.075-3.116,1.349-4.18c0.912-0.76,2.146-0.893,3.153-0.893c0.703,0,1.748,0.095,2.564,0.57
			c0.399,0.247,1.615,1.083,1.615,3.191c0,0.285-0.02,0.969-0.418,1.311c-0.305,0.266-0.779,0.304-1.064,0.304h-6.136
			c-0.019,0.589,0.019,1.52,0.171,2.052c0.228,0.817,0.912,1.748,2.242,1.748h4.938v0.893H92.56z M96.283,7.713
			c0.438,0,0.418-0.532,0.418-0.665c0-0.988-0.342-1.653-0.684-2.052c-0.722-0.855-1.71-0.874-2.603-0.874
			c-1.007,0-2.09,0.038-2.793,1.216c-0.398,0.665-0.456,1.387-0.475,2.375H96.283z"/>
		<path fill="#4C4F53" d="M99.287,4.54c0-0.266,0.019-0.665,0.228-0.931c0.266-0.342,0.684-0.38,0.988-0.38h3.609
			c0.949,0,1.729,0.133,2.336,0.741c0.305,0.304,0.779,0.95,0.779,2.336v6.991h-0.988V6.554c0-0.854-0.095-1.368-0.437-1.805
			c-0.418-0.532-0.987-0.627-1.634-0.627h-3.571c-0.095,0-0.209,0-0.266,0.076c-0.058,0.076-0.058,0.228-0.058,0.304v8.796h-0.987
			V4.54z"/>
		<path fill="#4C4F53" d="M112.871,13.298c-0.854,0-1.805,0.038-2.432-0.589c-0.627-0.608-0.684-1.596-0.684-2.792V4.122h-1.387
			V3.229h1.387V0h0.987v3.229h2.773v0.893h-2.773v5.585c0,0.855-0.057,2.014,0.57,2.451c0.228,0.152,0.665,0.247,1.785,0.247h0.532
			v0.893H112.871z"/>
		<path fill="#4C4F53" d="M117.488,13.298c-0.817,0-1.881-0.209-2.66-1.235c-0.778-1.007-0.816-2.28-0.816-3.761
			c0-1.406,0.075-3.116,1.349-4.18c0.912-0.76,2.146-0.893,3.153-0.893c0.703,0,1.748,0.095,2.564,0.57
			c0.399,0.247,1.615,1.083,1.615,3.191c0,0.285-0.02,0.969-0.418,1.311c-0.305,0.266-0.779,0.304-1.064,0.304h-6.136
			c-0.019,0.589,0.019,1.52,0.171,2.052c0.228,0.817,0.912,1.748,2.242,1.748h4.938v0.893H117.488z M121.21,7.713
			c0.438,0,0.418-0.532,0.418-0.665c0-0.988-0.342-1.653-0.684-2.052c-0.722-0.855-1.71-0.874-2.603-0.874
			c-1.007,0-2.09,0.038-2.793,1.216c-0.398,0.665-0.456,1.387-0.475,2.375H121.21z"/>
	</g>
</g>
<g id="mijn._kopie" display="none">
	<text transform="matrix(1 0 0 1 -0.5703 13.2978)" display="inline"><tspan x="0" y="0" fill="#1794D2" font-family="'MagistralBlackC'" font-size="19px">m</tspan><tspan x="16.34" y="0" fill="#1794D2" font-family="'MagistralBlackC'" font-size="19px" letter-spacing="-1">i</tspan><tspan x="19.646" y="0" fill="#1794D2" font-family="'MagistralBlackC'" font-size="19px">jn.</tspan></text>
</g>
<g id="stad-gemeente_kopie" display="none">
	<text transform="matrix(1 0 0 1 43.0845 13.2978)" display="inline"><tspan x="0" y="0" fill="#4C4F53" font-family="'MagistralC'" font-size="19px">s</tspan><tspan x="9.576" y="0" fill="#4C4F53" font-family="'MagistralC'" font-size="19px">t</tspan><tspan x="15.617" y="0" fill="#4C4F53" font-family="'MagistralC'" font-size="19px">ad-gemeente</tspan></text>
	<text transform="matrix(1 0 0 1 43.0845 13.2978)" display="inline"><tspan x="0" y="0" fill="#4C4F53" font-family="'MagistralC'" font-size="19px">s</tspan><tspan x="9.576" y="0" fill="#4C4F53" font-family="'MagistralC'" font-size="19px">t</tspan><tspan x="15.617" y="0" fill="#4C4F53" font-family="'MagistralC'" font-size="19px">ad</tspan></text>
	<text transform="matrix(1 0 0 1 43.0845 13.2978)" display="inline" fill="#4C4F53" font-family="'MagistralC'" font-size="19px">gemeente</text>
</g>
<g id="mijn._kopie_2" display="none">
	<text transform="matrix(1 0 0 1 -0.5703 13.2978)" display="inline"><tspan x="0" y="0" fill="#1794D2" font-family="'MagistralBlackC'" font-size="19px">m</tspan><tspan x="16.34" y="0" fill="#1794D2" font-family="'MagistralBlackC'" font-size="19px" letter-spacing="-1">i</tspan><tspan x="19.646" y="0" fill="#1794D2" font-family="'MagistralBlackC'" font-size="19px">jn.</tspan></text>
</g>
<g id="stad-gemeente_kopie_2" display="none">
	<text transform="matrix(1 0 0 1 43.0845 13.2978)" display="inline"><tspan x="0" y="0" fill="#4C4F53" font-family="'MagistralC'" font-size="19px">s</tspan><tspan x="9.576" y="0" fill="#4C4F53" font-family="'MagistralC'" font-size="19px">t</tspan><tspan x="15.617" y="0" fill="#4C4F53" font-family="'MagistralC'" font-size="19px">ad-gemeente</tspan></text>
	<text transform="matrix(1 0 0 1 43.0845 13.2978)" display="inline"><tspan x="0" y="0" fill="#4C4F53" font-family="'MagistralC'" font-size="19px">s</tspan><tspan x="9.576" y="0" fill="#4C4F53" font-family="'MagistralC'" font-size="19px">t</tspan><tspan x="15.617" y="0" fill="#4C4F53" font-family="'MagistralC'" font-size="19px">ad</tspan></text>
	<text transform="matrix(1 0 0 1 43.0845 13.2978)" display="inline" fill="#4C4F53" font-family="'MagistralC'" font-size="19px">gemeente</text>
	<g display="inline">
		<path fill="#4C4F53" d="M47.53,13.298c-1.102,0-2.279-0.076-3.077-1.311c-0.646-1.007-0.798-2.413-0.798-3.97
			c0-1.577,0.171-2.792,1.12-3.761c0.836-0.855,1.748-1.026,3.002-1.026h2.508c0.531,0,1.102,0.038,1.538,0.361
			c0.514,0.38,0.589,0.969,0.589,1.406v7.143c0,1.235-0.133,2.47-0.816,3.268c-0.893,1.026-2.564,1.121-3.191,1.121h-4.027v-0.893
			h4.027c0.38,0,1.576-0.019,2.261-0.626c0.475-0.418,0.722-1.14,0.76-1.71H47.53z M51.424,4.939c0-0.285-0.038-0.494-0.285-0.665
			c-0.209-0.133-0.418-0.152-0.607-0.152h-3.116c-0.949,0-1.538,0.361-1.861,0.703c-0.779,0.817-0.836,2.298-0.836,3.381
			c0,2.622,0.607,3.363,0.76,3.553c0.589,0.684,1.444,0.646,1.995,0.646h3.951V4.939z"/>
		<path fill="#4C4F53" d="M57.41,13.298c-0.817,0-1.881-0.209-2.66-1.235c-0.778-1.007-0.816-2.28-0.816-3.761
			c0-1.406,0.075-3.116,1.349-4.18c0.912-0.76,2.146-0.893,3.153-0.893c0.703,0,1.748,0.095,2.564,0.57
			c0.399,0.247,1.615,1.083,1.615,3.191c0,0.285-0.02,0.969-0.418,1.311c-0.305,0.266-0.779,0.304-1.064,0.304h-6.136
			c-0.019,0.589,0.019,1.52,0.171,2.052c0.228,0.817,0.912,1.748,2.242,1.748h4.938v0.893H57.41z M61.132,7.713
			c0.438,0,0.418-0.532,0.418-0.665c0-0.988-0.342-1.653-0.684-2.052c-0.722-0.855-1.71-0.874-2.603-0.874
			c-1.007,0-2.09,0.038-2.793,1.216c-0.398,0.665-0.456,1.387-0.475,2.375H61.132z"/>
		<path fill="#4C4F53" d="M64.136,4.92c0-0.38,0.038-0.817,0.228-1.14c0.323-0.494,0.854-0.551,1.14-0.551h9.347
			c0.798,0,1.577,0.152,2.109,0.627c0.626,0.551,0.778,1.443,0.778,2.279v7.162H76.75V6.06c0-0.456-0.058-1.045-0.418-1.444
			c-0.418-0.456-1.064-0.494-1.501-0.494h-3.4v9.176h-0.988V4.122h-4.711c-0.171,0-0.361,0.019-0.494,0.171
			c-0.114,0.133-0.114,0.342-0.114,0.532v8.473h-0.987V4.92z"/>
		<path fill="#4C4F53" d="M82.737,13.298c-0.817,0-1.881-0.209-2.66-1.235c-0.779-1.007-0.816-2.28-0.816-3.761
			c0-1.406,0.075-3.116,1.349-4.18c0.912-0.76,2.146-0.893,3.153-0.893c0.703,0,1.748,0.095,2.564,0.57
			c0.399,0.247,1.615,1.083,1.615,3.191c0,0.285-0.02,0.969-0.418,1.311c-0.305,0.266-0.779,0.304-1.064,0.304h-6.136
			c-0.019,0.589,0.019,1.52,0.171,2.052c0.228,0.817,0.912,1.748,2.242,1.748h4.938v0.893H82.737z M86.459,7.713
			c0.438,0,0.418-0.532,0.418-0.665c0-0.988-0.342-1.653-0.684-2.052c-0.722-0.855-1.71-0.874-2.603-0.874
			c-1.007,0-2.09,0.038-2.793,1.216c-0.398,0.665-0.456,1.387-0.475,2.375H86.459z"/>
		<path fill="#4C4F53" d="M92.56,13.298c-0.817,0-1.881-0.209-2.66-1.235c-0.778-1.007-0.816-2.28-0.816-3.761
			c0-1.406,0.075-3.116,1.349-4.18c0.912-0.76,2.146-0.893,3.153-0.893c0.703,0,1.748,0.095,2.564,0.57
			c0.399,0.247,1.615,1.083,1.615,3.191c0,0.285-0.02,0.969-0.418,1.311c-0.305,0.266-0.779,0.304-1.064,0.304h-6.136
			c-0.019,0.589,0.019,1.52,0.171,2.052c0.228,0.817,0.912,1.748,2.242,1.748h4.938v0.893H92.56z M96.283,7.713
			c0.438,0,0.418-0.532,0.418-0.665c0-0.988-0.342-1.653-0.684-2.052c-0.722-0.855-1.71-0.874-2.603-0.874
			c-1.007,0-2.09,0.038-2.793,1.216c-0.398,0.665-0.456,1.387-0.475,2.375H96.283z"/>
		<path fill="#4C4F53" d="M99.287,4.54c0-0.266,0.019-0.665,0.228-0.931c0.266-0.342,0.684-0.38,0.988-0.38h3.609
			c0.949,0,1.729,0.133,2.336,0.741c0.305,0.304,0.779,0.95,0.779,2.336v6.991h-0.988V6.554c0-0.854-0.095-1.368-0.437-1.805
			c-0.418-0.532-0.987-0.627-1.634-0.627h-3.571c-0.095,0-0.209,0-0.266,0.076c-0.058,0.076-0.058,0.228-0.058,0.304v8.796h-0.987
			V4.54z"/>
		<path fill="#4C4F53" d="M112.871,13.298c-0.854,0-1.805,0.038-2.432-0.589c-0.627-0.608-0.684-1.596-0.684-2.792V4.122h-1.387
			V3.229h1.387V0h0.987v3.229h2.773v0.893h-2.773v5.585c0,0.855-0.057,2.014,0.57,2.451c0.228,0.152,0.665,0.247,1.785,0.247h0.532
			v0.893H112.871z"/>
		<path fill="#4C4F53" d="M117.488,13.298c-0.817,0-1.881-0.209-2.66-1.235c-0.778-1.007-0.816-2.28-0.816-3.761
			c0-1.406,0.075-3.116,1.349-4.18c0.912-0.76,2.146-0.893,3.153-0.893c0.703,0,1.748,0.095,2.564,0.57
			c0.399,0.247,1.615,1.083,1.615,3.191c0,0.285-0.02,0.969-0.418,1.311c-0.305,0.266-0.779,0.304-1.064,0.304h-6.136
			c-0.019,0.589,0.019,1.52,0.171,2.052c0.228,0.817,0.912,1.748,2.242,1.748h4.938v0.893H117.488z M121.21,7.713
			c0.438,0,0.418-0.532,0.418-0.665c0-0.988-0.342-1.653-0.684-2.052c-0.722-0.855-1.71-0.874-2.603-0.874
			c-1.007,0-2.09,0.038-2.793,1.216c-0.398,0.665-0.456,1.387-0.475,2.375H121.21z"/>
	</g>
</g>
<g>
</g>
<g>
</g>
<g>
</g>
<g>
</g>
<g>
</g>
<g>
</g>
<g>
</g>
<g>
</g>
<g>
</g>
<g>
</g>
<g>
</g>
<g>
</g>
<g>
</g>
<g>
</g>
<g>
</g>
<g>
</g>
</svg>
