<?xml version="1.0" encoding="utf-8"?>
<!-- Generator: Adobe Illustrator 26.0.1, SVG Export Plug-In . SVG Version: 6.00 Build 0)  -->
<svg version="1.1" id="LOGO_x27_S" xmlns="http://www.w3.org/2000/svg" xmlns:xlink="http://www.w3.org/1999/xlink" x="0px" y="0px"
	 viewBox="0 0 113.827 10.296" enable-background="new 0 0 113.827 10.296" xml:space="preserve">
<g id="TypeFont__x28_MagistralBlackC_Regular_en_MagistralC_Regular_x29_" display="none">
	<text transform="matrix(1 0 0 1 -0.5703 10.1826)" display="inline"><tspan x="0" y="0" fill="#1794D2" font-family="'MagistralBlackC'" font-size="19px">m</tspan><tspan x="16.34" y="0" fill="#1794D2" font-family="'MagistralBlackC'" font-size="19px" letter-spacing="-1">i</tspan><tspan x="19.646" y="0" fill="#1794D2" font-family="'MagistralBlackC'" font-size="19px">jn.</tspan></text>
</g>
<g id="TypeFont__x28_MagistralBlackC_Regular_en_MagistralC_Regular_x29__copy" display="none">
	<text transform="matrix(1 0 0 1 43.0845 10.1826)" display="inline"><tspan x="0" y="0" fill="#4C4F53" font-family="'MagistralC'" font-size="19px">s</tspan><tspan x="9.576" y="0" fill="#4C4F53" font-family="'MagistralC'" font-size="19px">t</tspan><tspan x="15.617" y="0" fill="#4C4F53" font-family="'MagistralC'" font-size="19px">ad-gemeente</tspan></text>
	<text transform="matrix(1 0 0 1 43.0845 10.1826)" display="inline"><tspan x="0" y="0" fill="#4C4F53" font-family="'MagistralC'" font-size="19px">s</tspan><tspan x="9.576" y="0" fill="#4C4F53" font-family="'MagistralC'" font-size="19px">t</tspan><tspan x="15.617" y="0" fill="#4C4F53" font-family="'MagistralC'" font-size="19px">ad</tspan></text>
	<text transform="matrix(1 0 0 1 43.0845 10.1826)" display="inline" fill="#4C4F53" font-family="'MagistralC'" font-size="19px">gemeente</text>
</g>
<g id="mijn." display="none">
	<g display="inline">
		<path fill="#1794D2" d="M0,1.919c0-0.304,0.057-0.741,0.36-1.121c0.513-0.646,1.197-0.684,1.995-0.684h8.644
			c1.14,0,2.375,0.304,3.135,1.007c0.702,0.665,1.063,1.786,1.063,2.716v6.345h-3.724V4.598c0-0.418-0.038-1.045-0.398-1.425
			c-0.209-0.228-0.627-0.437-1.197-0.437H9.46v7.447H5.736V2.736H4.312c-0.322,0-0.437,0.095-0.493,0.152
			C3.742,2.983,3.723,3.21,3.723,3.4v6.782H0V1.919z"/>
		<path fill="#1794D2" d="M16.34-0.893v-2.223h3.723v2.223H16.34z M16.34,0.114h3.723v10.068H16.34V0.114z"/>
		<path fill="#1794D2" d="M18.315,11.019c1.102,0.019,1.576-0.076,2.09-0.475c0.475-0.38,0.76-0.855,0.76-1.918V0.114h3.724v9.29
			c0,0.874-0.134,2.432-1.463,3.287c-0.969,0.627-2.451,0.779-5.11,0.722V11.019z M21.165-0.893v-2.223h3.724v2.223H21.165z"/>
		<path fill="#1794D2" d="M26.03,1.919c0-0.38,0.019-0.855,0.418-1.235c0.569-0.57,1.576-0.57,2.203-0.57h3.495
			c1.159,0,2.356,0.076,3.382,0.893c1.121,0.893,1.254,2.109,1.254,2.983v6.193h-3.724v-5.11c0-0.703-0.057-1.272-0.418-1.729
			c-0.322-0.418-0.778-0.608-1.538-0.608h-0.665c-0.152,0-0.361,0.019-0.514,0.152c-0.189,0.171-0.171,0.38-0.171,0.57v6.725H26.03
			V1.919z"/>
		<path fill="#1794D2" d="M38.304,10.183V6.763h3.761v3.419H38.304z"/>
	</g>
</g>
<g id="stad-gemeente" display="none">
	<g>
		<path display="inline" fill="#4C4F53" d="M43.826,9.29H49.6c0.589,0,0.988-0.209,1.179-0.475c0.171-0.247,0.246-0.817,0.246-1.159
			c0-0.57-0.228-0.893-0.38-1.044c-0.322-0.304-0.911-0.456-2.374-0.798l-1.748-0.399c-1.539-0.361-2.09-0.855-2.317-1.121
			c-0.438-0.494-0.551-1.121-0.551-1.672c0-0.665,0.151-1.178,0.513-1.634c0.627-0.817,1.481-0.874,2.432-0.874h4.825v0.893H46.2
			c-0.228,0-0.798,0.019-1.12,0.342c-0.343,0.342-0.361,0.931-0.361,1.197c0,0.342,0.038,0.931,0.418,1.311
			c0.342,0.342,1.387,0.608,1.729,0.684l1.824,0.418c1.216,0.285,2.09,0.475,2.679,0.95c0.627,0.494,0.722,1.083,0.722,1.748
			c0,0.703-0.133,1.634-0.874,2.147c-0.494,0.342-1.178,0.38-1.577,0.38h-5.812V9.29z"/>
		<path display="inline" fill="#4C4F53" d="M57.353,10.183c-0.854,0-1.805,0.038-2.432-0.589c-0.627-0.608-0.684-1.596-0.684-2.792
			V1.007h-1.387V0.114h1.387v-3.229h0.987v3.229h2.773v0.893h-2.773v5.585c0,0.855-0.057,2.014,0.57,2.451
			c0.228,0.152,0.665,0.247,1.785,0.247h0.532v0.893H57.353z"/>
		<path display="inline" fill="#4C4F53" d="M64.971,0.114c0.684,0,1.367,0.266,1.767,0.703c0.531,0.57,0.607,1.406,0.607,2.014
			v6.022c0,0.266-0.019,0.741-0.342,1.044c-0.304,0.285-0.798,0.285-1.14,0.285h-3.876c-0.569,0-1.272-0.019-1.823-0.456
			c-0.836-0.684-0.893-2.052-0.893-2.66c0-0.817,0.113-1.767,0.836-2.375c0.551-0.456,1.311-0.532,1.88-0.532h4.37V2.66
			c0-0.323-0.134-0.893-0.38-1.197c-0.209-0.247-0.589-0.456-1.064-0.456h-4.882V0.114H64.971z M61.76,5.053
			c-0.589,0-0.95,0.285-1.102,0.494c-0.247,0.323-0.323,0.855-0.323,1.558c0,0.608,0.057,1.33,0.398,1.748
			c0.209,0.247,0.57,0.437,0.988,0.437h4.065c0.114,0,0.304,0,0.437-0.114c0.134-0.114,0.134-0.209,0.134-0.342V5.053H61.76z"/>
		<path display="inline" fill="#4C4F53" d="M76.826,9.822c-0.284,0.342-0.778,0.361-1.102,0.361h-3.135
			c-0.987,0-2.526-0.228-3.268-2.033c-0.398-0.969-0.455-2.166-0.455-3.268c0-1.102,0.057-2.242,0.76-3.268
			c0.911-1.33,2.299-1.5,3.419-1.5h3.059v-3.229h0.988V8.72C77.092,9.1,77.016,9.575,76.826,9.822z M72.818,1.007
			c-0.741,0-1.805,0.152-2.394,1.14c-0.342,0.57-0.494,1.462-0.494,2.887c0,1.824,0.189,2.432,0.285,2.698
			c0.513,1.387,1.805,1.558,2.603,1.558h2.526c0.114,0,0.456,0,0.608-0.152c0.113-0.133,0.151-0.494,0.151-0.703V1.007H72.818z"/>
		<path display="inline" fill="#4C4F53" d="M78.994,4.483h5.699v1.102h-5.699V4.483z"/>
		<path display="inline" fill="#4C4F53" d="M90.088,10.183c-1.102,0-2.279-0.076-3.077-1.311c-0.646-1.007-0.798-2.413-0.798-3.97
			c0-1.577,0.171-2.792,1.12-3.761c0.836-0.855,1.748-1.026,3.002-1.026h2.508c0.531,0,1.102,0.038,1.538,0.361
			c0.514,0.38,0.589,0.969,0.589,1.406v7.143c0,1.235-0.133,2.47-0.816,3.268c-0.893,1.026-2.564,1.121-3.191,1.121h-4.027v-0.893
			h4.027c0.38,0,1.576-0.019,2.261-0.626c0.475-0.418,0.722-1.14,0.76-1.71H90.088z M93.983,1.824c0-0.285-0.038-0.494-0.285-0.665
			c-0.209-0.133-0.418-0.152-0.607-0.152h-3.116c-0.949,0-1.538,0.361-1.861,0.703c-0.779,0.817-0.836,2.298-0.836,3.381
			c0,2.622,0.607,3.363,0.76,3.553c0.589,0.684,1.444,0.646,1.995,0.646h3.951V1.824z"/>
		<path display="inline" fill="#4C4F53" d="M99.969,10.183c-0.817,0-1.881-0.209-2.66-1.235c-0.779-1.007-0.816-2.28-0.816-3.761
			c0-1.406,0.075-3.116,1.349-4.18c0.912-0.76,2.146-0.893,3.153-0.893c0.703,0,1.748,0.095,2.564,0.57
			c0.399,0.247,1.615,1.083,1.615,3.191c0,0.285-0.02,0.969-0.418,1.311c-0.305,0.266-0.779,0.304-1.064,0.304h-6.136
			c-0.019,0.589,0.019,1.52,0.171,2.052c0.228,0.817,0.912,1.748,2.242,1.748h4.938v0.893H99.969z M103.692,4.598
			c0.438,0,0.418-0.532,0.418-0.665c0-0.988-0.342-1.653-0.684-2.052c-0.722-0.855-1.71-0.874-2.603-0.874
			c-1.007,0-2.09,0.038-2.793,1.216c-0.398,0.665-0.456,1.387-0.475,2.375H103.692z"/>
		<path display="inline" fill="#4C4F53" d="M106.695,1.805c0-0.38,0.038-0.817,0.228-1.14c0.323-0.494,0.854-0.551,1.14-0.551h9.347
			c0.798,0,1.577,0.152,2.109,0.627c0.626,0.551,0.778,1.443,0.778,2.279v7.162h-0.987V2.945c0-0.456-0.058-1.045-0.418-1.444
			c-0.418-0.456-1.064-0.494-1.501-0.494h-3.4v9.176h-0.988V1.007h-4.711c-0.171,0-0.361,0.019-0.494,0.171
			c-0.114,0.133-0.114,0.342-0.114,0.532v8.473h-0.987V1.805z"/>
		<path display="inline" fill="#4C4F53" d="M125.295,10.183c-0.817,0-1.881-0.209-2.66-1.235c-0.779-1.007-0.816-2.28-0.816-3.761
			c0-1.406,0.075-3.116,1.349-4.18c0.912-0.76,2.146-0.893,3.153-0.893c0.703,0,1.748,0.095,2.564,0.57
			c0.399,0.247,1.615,1.083,1.615,3.191c0,0.285-0.02,0.969-0.418,1.311c-0.305,0.266-0.779,0.304-1.064,0.304h-6.136
			c-0.019,0.589,0.019,1.52,0.171,2.052c0.228,0.817,0.912,1.748,2.242,1.748h4.938v0.893H125.295z M129.018,4.598
			c0.438,0,0.418-0.532,0.418-0.665c0-0.988-0.342-1.653-0.684-2.052c-0.722-0.855-1.71-0.874-2.603-0.874
			c-1.007,0-2.09,0.038-2.793,1.216c-0.398,0.665-0.456,1.387-0.475,2.375H129.018z"/>
		<path display="inline" fill="#4C4F53" d="M135.119,10.183c-0.817,0-1.881-0.209-2.66-1.235c-0.778-1.007-0.816-2.28-0.816-3.761
			c0-1.406,0.075-3.116,1.349-4.18c0.912-0.76,2.146-0.893,3.153-0.893c0.703,0,1.748,0.095,2.564,0.57
			c0.399,0.247,1.615,1.083,1.615,3.191c0,0.285-0.02,0.969-0.418,1.311c-0.305,0.266-0.779,0.304-1.064,0.304h-6.136
			c-0.019,0.589,0.019,1.52,0.171,2.052c0.228,0.817,0.912,1.748,2.242,1.748h4.938v0.893H135.119z M138.841,4.598
			c0.438,0,0.418-0.532,0.418-0.665c0-0.988-0.342-1.653-0.684-2.052c-0.722-0.855-1.71-0.874-2.603-0.874
			c-1.007,0-2.09,0.038-2.793,1.216c-0.398,0.665-0.456,1.387-0.475,2.375H138.841z"/>
		<path display="inline" fill="#4C4F53" d="M141.845,1.425c0-0.266,0.019-0.665,0.228-0.931c0.266-0.342,0.684-0.38,0.988-0.38
			h3.609c0.949,0,1.729,0.133,2.336,0.741c0.305,0.304,0.779,0.95,0.779,2.336v6.991h-0.988V3.438c0-0.854-0.095-1.368-0.437-1.805
			c-0.418-0.532-0.987-0.627-1.634-0.627h-3.571c-0.095,0-0.209,0-0.266,0.076c-0.058,0.076-0.058,0.228-0.058,0.304v8.796h-0.987
			V1.425z"/>
		<path display="inline" fill="#4C4F53" d="M155.429,10.183c-0.854,0-1.805,0.038-2.432-0.589c-0.627-0.608-0.684-1.596-0.684-2.792
			V1.007h-1.387V0.114h1.387v-3.229h0.987v3.229h2.773v0.893h-2.773v5.585c0,0.855-0.057,2.014,0.57,2.451
			c0.228,0.152,0.665,0.247,1.785,0.247h0.532v0.893H155.429z"/>
		<path display="inline" fill="#4C4F53" d="M160.046,10.183c-0.817,0-1.881-0.209-2.66-1.235c-0.778-1.007-0.816-2.28-0.816-3.761
			c0-1.406,0.075-3.116,1.349-4.18c0.912-0.76,2.146-0.893,3.153-0.893c0.703,0,1.748,0.095,2.564,0.57
			c0.399,0.247,1.615,1.083,1.615,3.191c0,0.285-0.02,0.969-0.418,1.311c-0.305,0.266-0.779,0.304-1.064,0.304h-6.136
			c-0.019,0.589,0.019,1.52,0.171,2.052c0.228,0.817,0.912,1.748,2.242,1.748h4.938v0.893H160.046z M163.769,4.598
			c0.438,0,0.418-0.532,0.418-0.665c0-0.988-0.342-1.653-0.684-2.052c-0.722-0.855-1.71-0.874-2.603-0.874
			c-1.007,0-2.09,0.038-2.793,1.216c-0.398,0.665-0.456,1.387-0.475,2.375H163.769z"/>
	</g>
	<g>
		<path display="inline" fill="#4C4F53" d="M43.826,9.29H49.6c0.589,0,0.988-0.209,1.179-0.475c0.171-0.247,0.246-0.817,0.246-1.159
			c0-0.57-0.228-0.893-0.38-1.044c-0.322-0.304-0.911-0.456-2.374-0.798l-1.748-0.399c-1.539-0.361-2.09-0.855-2.317-1.121
			c-0.438-0.494-0.551-1.121-0.551-1.672c0-0.665,0.151-1.178,0.513-1.634c0.627-0.817,1.481-0.874,2.432-0.874h4.825v0.893H46.2
			c-0.228,0-0.798,0.019-1.12,0.342c-0.343,0.342-0.361,0.931-0.361,1.197c0,0.342,0.038,0.931,0.418,1.311
			c0.342,0.342,1.387,0.608,1.729,0.684l1.824,0.418c1.216,0.285,2.09,0.475,2.679,0.95c0.627,0.494,0.722,1.083,0.722,1.748
			c0,0.703-0.133,1.634-0.874,2.147c-0.494,0.342-1.178,0.38-1.577,0.38h-5.812V9.29z"/>
		<path display="inline" fill="#4C4F53" d="M57.353,10.183c-0.854,0-1.805,0.038-2.432-0.589c-0.627-0.608-0.684-1.596-0.684-2.792
			V1.007h-1.387V0.114h1.387v-3.229h0.987v3.229h2.773v0.893h-2.773v5.585c0,0.855-0.057,2.014,0.57,2.451
			c0.228,0.152,0.665,0.247,1.785,0.247h0.532v0.893H57.353z"/>
		<path display="inline" fill="#4C4F53" d="M64.971,0.114c0.684,0,1.367,0.266,1.767,0.703c0.531,0.57,0.607,1.406,0.607,2.014
			v6.022c0,0.266-0.019,0.741-0.342,1.044c-0.304,0.285-0.798,0.285-1.14,0.285h-3.876c-0.569,0-1.272-0.019-1.823-0.456
			c-0.836-0.684-0.893-2.052-0.893-2.66c0-0.817,0.113-1.767,0.836-2.375c0.551-0.456,1.311-0.532,1.88-0.532h4.37V2.66
			c0-0.323-0.134-0.893-0.38-1.197c-0.209-0.247-0.589-0.456-1.064-0.456h-4.882V0.114H64.971z M61.76,5.053
			c-0.589,0-0.95,0.285-1.102,0.494c-0.247,0.323-0.323,0.855-0.323,1.558c0,0.608,0.057,1.33,0.398,1.748
			c0.209,0.247,0.57,0.437,0.988,0.437h4.065c0.114,0,0.304,0,0.437-0.114c0.134-0.114,0.134-0.209,0.134-0.342V5.053H61.76z"/>
		<path display="inline" fill="#4C4F53" d="M76.826,9.822c-0.284,0.342-0.778,0.361-1.102,0.361h-3.135
			c-0.987,0-2.526-0.228-3.268-2.033c-0.398-0.969-0.455-2.166-0.455-3.268c0-1.102,0.057-2.242,0.76-3.268
			c0.911-1.33,2.299-1.5,3.419-1.5h3.059v-3.229h0.988V8.72C77.092,9.1,77.016,9.575,76.826,9.822z M72.818,1.007
			c-0.741,0-1.805,0.152-2.394,1.14c-0.342,0.57-0.494,1.462-0.494,2.887c0,1.824,0.189,2.432,0.285,2.698
			c0.513,1.387,1.805,1.558,2.603,1.558h2.526c0.114,0,0.456,0,0.608-0.152c0.113-0.133,0.151-0.494,0.151-0.703V1.007H72.818z"/>
	</g>
	<g display="inline">
		<path fill="#4C4F53" d="M47.53,10.183c-1.102,0-2.279-0.076-3.077-1.311c-0.646-1.007-0.798-2.413-0.798-3.97
			c0-1.577,0.171-2.792,1.12-3.761c0.836-0.855,1.748-1.026,3.002-1.026h2.508c0.531,0,1.102,0.038,1.538,0.361
			c0.514,0.38,0.589,0.969,0.589,1.406v7.143c0,1.235-0.133,2.47-0.816,3.268c-0.893,1.026-2.564,1.121-3.191,1.121h-4.027v-0.893
			h4.027c0.38,0,1.576-0.019,2.261-0.626c0.475-0.418,0.722-1.14,0.76-1.71H47.53z M51.424,1.824c0-0.285-0.038-0.494-0.285-0.665
			c-0.209-0.133-0.418-0.152-0.607-0.152h-3.116c-0.949,0-1.538,0.361-1.861,0.703c-0.779,0.817-0.836,2.298-0.836,3.381
			c0,2.622,0.607,3.363,0.76,3.553c0.589,0.684,1.444,0.646,1.995,0.646h3.951V1.824z"/>
		<path fill="#4C4F53" d="M57.41,10.183c-0.817,0-1.881-0.209-2.66-1.235c-0.778-1.007-0.816-2.28-0.816-3.761
			c0-1.406,0.075-3.116,1.349-4.18c0.912-0.76,2.146-0.893,3.153-0.893c0.703,0,1.748,0.095,2.564,0.57
			c0.399,0.247,1.615,1.083,1.615,3.191c0,0.285-0.02,0.969-0.418,1.311c-0.305,0.266-0.779,0.304-1.064,0.304h-6.136
			c-0.019,0.589,0.019,1.52,0.171,2.052C55.395,8.359,56.08,9.29,57.41,9.29h4.938v0.893H57.41z M61.132,4.598
			c0.438,0,0.418-0.532,0.418-0.665c0-0.988-0.342-1.653-0.684-2.052c-0.722-0.855-1.71-0.874-2.603-0.874
			c-1.007,0-2.09,0.038-2.793,1.216c-0.398,0.665-0.456,1.387-0.475,2.375H61.132z"/>
		<path fill="#4C4F53" d="M64.136,1.805c0-0.38,0.038-0.817,0.228-1.14c0.323-0.494,0.854-0.551,1.14-0.551h9.347
			c0.798,0,1.577,0.152,2.109,0.627c0.626,0.551,0.778,1.443,0.778,2.279v7.162H76.75V2.945c0-0.456-0.058-1.045-0.418-1.444
			c-0.418-0.456-1.064-0.494-1.501-0.494h-3.4v9.176h-0.988V1.007h-4.711c-0.171,0-0.361,0.019-0.494,0.171
			c-0.114,0.133-0.114,0.342-0.114,0.532v8.473h-0.987V1.805z"/>
		<path fill="#4C4F53" d="M82.737,10.183c-0.817,0-1.881-0.209-2.66-1.235c-0.779-1.007-0.816-2.28-0.816-3.761
			c0-1.406,0.075-3.116,1.349-4.18c0.912-0.76,2.146-0.893,3.153-0.893c0.703,0,1.748,0.095,2.564,0.57
			c0.399,0.247,1.615,1.083,1.615,3.191c0,0.285-0.02,0.969-0.418,1.311c-0.305,0.266-0.779,0.304-1.064,0.304h-6.136
			c-0.019,0.589,0.019,1.52,0.171,2.052c0.228,0.817,0.912,1.748,2.242,1.748h4.938v0.893H82.737z M86.459,4.598
			c0.438,0,0.418-0.532,0.418-0.665c0-0.988-0.342-1.653-0.684-2.052c-0.722-0.855-1.71-0.874-2.603-0.874
			c-1.007,0-2.09,0.038-2.793,1.216c-0.398,0.665-0.456,1.387-0.475,2.375H86.459z"/>
		<path fill="#4C4F53" d="M92.56,10.183c-0.817,0-1.881-0.209-2.66-1.235c-0.778-1.007-0.816-2.28-0.816-3.761
			c0-1.406,0.075-3.116,1.349-4.18c0.912-0.76,2.146-0.893,3.153-0.893c0.703,0,1.748,0.095,2.564,0.57
			c0.399,0.247,1.615,1.083,1.615,3.191c0,0.285-0.02,0.969-0.418,1.311c-0.305,0.266-0.779,0.304-1.064,0.304h-6.136
			c-0.019,0.589,0.019,1.52,0.171,2.052C90.545,8.359,91.23,9.29,92.56,9.29h4.938v0.893H92.56z M96.283,4.598
			c0.438,0,0.418-0.532,0.418-0.665c0-0.988-0.342-1.653-0.684-2.052c-0.722-0.855-1.71-0.874-2.603-0.874
			c-1.007,0-2.09,0.038-2.793,1.216c-0.398,0.665-0.456,1.387-0.475,2.375H96.283z"/>
		<path fill="#4C4F53" d="M99.287,1.425c0-0.266,0.019-0.665,0.228-0.931c0.266-0.342,0.684-0.38,0.988-0.38h3.609
			c0.949,0,1.729,0.133,2.336,0.741c0.305,0.304,0.779,0.95,0.779,2.336v6.991h-0.988V3.438c0-0.854-0.095-1.368-0.437-1.805
			c-0.418-0.532-0.987-0.627-1.634-0.627h-3.571c-0.095,0-0.209,0-0.266,0.076c-0.058,0.076-0.058,0.228-0.058,0.304v8.796h-0.987
			V1.425z"/>
		<path fill="#4C4F53" d="M112.871,10.183c-0.854,0-1.805,0.038-2.432-0.589c-0.627-0.608-0.684-1.596-0.684-2.792V1.007h-1.387
			V0.114h1.387v-3.229h0.987v3.229h2.773v0.893h-2.773v5.585c0,0.855-0.057,2.014,0.57,2.451c0.228,0.152,0.665,0.247,1.785,0.247
			h0.532v0.893H112.871z"/>
		<path fill="#4C4F53" d="M117.488,10.183c-0.817,0-1.881-0.209-2.66-1.235c-0.778-1.007-0.816-2.28-0.816-3.761
			c0-1.406,0.075-3.116,1.349-4.18c0.912-0.76,2.146-0.893,3.153-0.893c0.703,0,1.748,0.095,2.564,0.57
			c0.399,0.247,1.615,1.083,1.615,3.191c0,0.285-0.02,0.969-0.418,1.311c-0.305,0.266-0.779,0.304-1.064,0.304h-6.136
			c-0.019,0.589,0.019,1.52,0.171,2.052c0.228,0.817,0.912,1.748,2.242,1.748h4.938v0.893H117.488z M121.21,4.598
			c0.438,0,0.418-0.532,0.418-0.665c0-0.988-0.342-1.653-0.684-2.052c-0.722-0.855-1.71-0.874-2.603-0.874
			c-1.007,0-2.09,0.038-2.793,1.216c-0.398,0.665-0.456,1.387-0.475,2.375H121.21z"/>
	</g>
</g>
<g id="ville-commune__x28_type_x29_" display="none">
	<text transform="matrix(1 0 0 1 33.9333 10.1826)"><tspan x="0" y="0" display="inline" fill="#4C4F53" font-family="'MagistralC'" font-size="19px">ville-</tspan><tspan x="34.864" y="0" display="inline" fill="#4C4F53" font-family="'MagistralC'" font-size="19px">c</tspan><tspan x="43.643" y="0" display="inline" fill="#4C4F53" font-family="'MagistralC'" font-size="19px">ommune</tspan></text>
	<text transform="matrix(1 0 0 1 33.9333 10.1826)" display="inline"><tspan x="0" y="0" fill="#4C4F53" font-family="'MagistralC'" font-size="19px">c</tspan><tspan x="8.778" y="0" fill="#4C4F53" font-family="'MagistralC'" font-size="19px">ommune</tspan></text>
	<text transform="matrix(1 0 0 1 33.9333 10.1826)" fill="#4C4F53" font-family="'MagistralC'" font-size="19px">ville</text>
</g>
<g id="ma._kopie__x28_type_x29_" display="none">
	
		<text transform="matrix(1 0 0 1 -0.5703 10.1826)" display="inline" fill="#1794D2" font-family="'MagistralBlackC'" font-size="19px">ma.</text>
	<g display="inline">
		<path fill="#1794D2" d="M0,1.919c0-0.304,0.057-0.741,0.36-1.121c0.513-0.646,1.197-0.684,1.995-0.684h8.644
			c1.14,0,2.375,0.304,3.135,1.007c0.702,0.665,1.063,1.786,1.063,2.716v6.345h-3.724V4.598c0-0.418-0.038-1.045-0.398-1.425
			c-0.209-0.228-0.627-0.437-1.197-0.437H9.46v7.447H5.736V2.736H4.312c-0.322,0-0.437,0.095-0.493,0.152
			C3.742,2.983,3.723,3.21,3.723,3.4v6.782H0V1.919z"/>
		<path fill="#1794D2" d="M23.464,0.114c1.234,0,2.051,0.437,2.488,0.874c0.836,0.817,0.95,2.014,0.95,2.831v4.218
			c0,0.532-0.038,1.14-0.494,1.615c-0.476,0.494-1.14,0.532-1.71,0.532h-5.927c-0.627,0-1.312-0.038-1.843-0.532
			c-0.779-0.703-0.817-2.033-0.817-2.831c0-0.874,0.076-1.938,0.874-2.546c0.551-0.418,1.197-0.437,1.786-0.437h4.407V3.686
			c0-0.171-0.02-0.437-0.19-0.665c-0.285-0.38-0.76-0.399-1.14-0.399h-5.054V0.114H23.464z M20.538,6.231
			c-0.114,0-0.38,0.019-0.551,0.171c-0.134,0.133-0.152,0.304-0.152,0.475c0,0.152,0.019,0.304,0.152,0.437
			c0.133,0.114,0.342,0.171,0.513,0.171h1.938c0.19,0,0.437-0.038,0.551-0.133c0.171-0.133,0.19-0.323,0.19-0.494V6.231H20.538z"/>
		<path fill="#1794D2" d="M28.424,10.183V6.763h3.761v3.419H28.424z"/>
	</g>
</g>
<g id="ma.">
	<g>
		<path fill="#1794D2" d="M0,1.919c0-0.304,0.057-0.741,0.36-1.121c0.513-0.646,1.197-0.684,1.995-0.684h8.644
			c1.14,0,2.375,0.304,3.135,1.007c0.702,0.665,1.063,1.786,1.063,2.716v6.345h-3.724V4.598c0-0.418-0.038-1.045-0.398-1.425
			c-0.209-0.228-0.627-0.437-1.197-0.437H9.46v7.447H5.736V2.736H4.312c-0.322,0-0.437,0.095-0.493,0.152
			C3.742,2.983,3.723,3.21,3.723,3.4v6.782H0V1.919z"/>
		<path fill="#1794D2" d="M23.464,0.114c1.234,0,2.051,0.437,2.488,0.874c0.836,0.817,0.95,2.014,0.95,2.831v4.218
			c0,0.532-0.038,1.14-0.494,1.615c-0.476,0.494-1.14,0.532-1.71,0.532h-5.927c-0.627,0-1.312-0.038-1.843-0.532
			c-0.779-0.703-0.817-2.033-0.817-2.831c0-0.874,0.076-1.938,0.874-2.546c0.551-0.418,1.197-0.437,1.786-0.437h4.407V3.686
			c0-0.171-0.02-0.437-0.19-0.665c-0.285-0.38-0.76-0.399-1.14-0.399h-5.054V0.114H23.464z M20.538,6.231
			c-0.114,0-0.38,0.019-0.551,0.171c-0.134,0.133-0.152,0.304-0.152,0.475c0,0.152,0.019,0.304,0.152,0.437
			c0.133,0.114,0.342,0.171,0.513,0.171h1.938c0.19,0,0.437-0.038,0.551-0.133c0.171-0.133,0.19-0.323,0.19-0.494V6.231H20.538z"/>
		<path fill="#1794D2" d="M28.424,10.183V6.763h3.761v3.419H28.424z"/>
	</g>
</g>
<g id="ville-commune_kopie">
	<g display="none">
		<path display="inline" fill="#4C4F53" d="M37.999,8.891c0.057,0.133,0.19,0.418,0.285,0.418s0.228-0.285,0.285-0.418l3.248-8.776
			h1.007l-3.495,9.309c-0.267,0.722-0.665,0.874-1.045,0.874s-0.779-0.152-1.045-0.874l-3.496-9.309h1.007L37.999,8.891z"/>
		<path display="inline" fill="#4C4F53" d="M43.586-1.709v-1.406h1.063v1.406H43.586z M43.624,0.114h0.987v10.068h-0.987V0.114z"/>
		<path display="inline" fill="#4C4F53" d="M46.55-3.115h0.987v13.298H46.55V-3.115z"/>
		<path display="inline" fill="#4C4F53" d="M49.438-3.115h0.987v13.298h-0.987V-3.115z"/>
		<path display="inline" fill="#4C4F53" d="M55.422,10.183c-0.817,0-1.881-0.209-2.66-1.235c-0.779-1.007-0.816-2.28-0.816-3.761
			c0-1.406,0.075-3.116,1.349-4.18c0.912-0.76,2.146-0.893,3.153-0.893c0.703,0,1.748,0.095,2.564,0.57
			c0.399,0.247,1.615,1.083,1.615,3.191c0,0.285-0.02,0.969-0.418,1.311C59.904,5.452,59.43,5.49,59.145,5.49h-6.136
			c-0.019,0.589,0.019,1.52,0.171,2.052c0.228,0.817,0.912,1.748,2.242,1.748h4.938v0.893H55.422z M59.145,4.598
			c0.438,0,0.418-0.532,0.418-0.665c0-0.988-0.342-1.653-0.684-2.052c-0.722-0.855-1.71-0.874-2.603-0.874
			c-1.007,0-2.09,0.038-2.793,1.216c-0.398,0.665-0.456,1.387-0.475,2.375H59.145z"/>
		<path display="inline" fill="#4C4F53" d="M62.148,4.483h5.699v1.102h-5.699V4.483z"/>
		<path display="inline" fill="#4C4F53" d="M73.243,10.183c-1.425,0-2.375-0.57-2.964-1.273c-0.798-0.95-0.911-2.146-0.911-3.628
			c0-1.368,0.075-2.963,1.14-4.046c0.589-0.589,1.558-1.121,3.135-1.121h3.4v0.893h-3.515c-1.615,0-2.603,0.855-2.907,2.052
			c-0.133,0.551-0.189,1.862-0.189,2.356c0,0.665,0.095,1.805,0.342,2.375c0.589,1.33,2.052,1.5,2.964,1.5h3.533v0.893H73.243z"/>
		<path display="inline" fill="#4C4F53" d="M79.4,1.102C80.388,0.133,81.851,0,83.123,0c1.273,0,2.736,0.133,3.724,1.102
			c1.102,1.083,1.254,2.869,1.254,3.989c0,2.185-0.607,3.419-1.254,4.065c-1.102,1.083-2.83,1.14-3.724,1.14
			c-0.893,0-2.621-0.057-3.723-1.14c-0.646-0.646-1.254-1.881-1.254-4.065C78.146,3.971,78.298,2.185,79.4,1.102z M80.026,8.435
			c0.798,0.874,2.071,0.969,3.097,0.969c1.026,0,2.299-0.095,3.097-0.969c0.836-0.912,0.817-2.432,0.817-3.249
			c0-0.874,0-2.47-0.798-3.363c-0.779-0.855-2.166-0.931-3.116-0.931c-0.949,0-2.336,0.076-3.115,0.931
			C79.21,2.717,79.21,4.312,79.21,5.187C79.21,6.003,79.191,7.523,80.026,8.435z"/>
		<path display="inline" fill="#4C4F53" d="M89.622,1.805c0-0.38,0.038-0.817,0.228-1.14c0.323-0.494,0.854-0.551,1.14-0.551h9.347
			c0.798,0,1.577,0.152,2.109,0.627c0.626,0.551,0.778,1.443,0.778,2.279v7.162h-0.987V2.945c0-0.456-0.058-1.045-0.418-1.444
			c-0.418-0.456-1.064-0.494-1.501-0.494h-3.4v9.176h-0.988V1.007h-4.711c-0.171,0-0.361,0.019-0.494,0.171
			c-0.114,0.133-0.114,0.342-0.114,0.532v8.473h-0.987V1.805z"/>
		<path display="inline" fill="#4C4F53" d="M105.126,1.805c0-0.38,0.038-0.817,0.228-1.14c0.323-0.494,0.854-0.551,1.14-0.551h9.347
			c0.798,0,1.577,0.152,2.109,0.627c0.626,0.551,0.778,1.443,0.778,2.279v7.162h-0.987V2.945c0-0.456-0.058-1.045-0.418-1.444
			c-0.418-0.456-1.064-0.494-1.501-0.494h-3.4v9.176h-0.988V1.007h-4.711c-0.171,0-0.361,0.019-0.494,0.171
			c-0.114,0.133-0.114,0.342-0.114,0.532v8.473h-0.987V1.805z"/>
		<path display="inline" fill="#4C4F53" d="M128.172,9.879c-0.381,0.304-0.97,0.304-1.521,0.304h-2.735
			c-1.063,0-1.805-0.095-2.45-0.684c-0.798-0.722-0.836-1.709-0.836-2.355V0.114h0.987v6.725c0,1.045,0.19,1.52,0.399,1.786
			c0.437,0.589,1.178,0.665,1.994,0.665h2.793c0.247,0,0.513-0.057,0.665-0.209c0.189-0.19,0.189-0.475,0.189-0.626v-8.34h0.988
			v8.473C128.646,8.986,128.59,9.537,128.172,9.879z"/>
		<path display="inline" fill="#4C4F53" d="M130.548,1.425c0-0.266,0.019-0.665,0.228-0.931c0.266-0.342,0.684-0.38,0.988-0.38
			h3.609c0.949,0,1.729,0.133,2.336,0.741c0.305,0.304,0.779,0.95,0.779,2.336v6.991H137.5V3.438c0-0.854-0.095-1.368-0.437-1.805
			c-0.418-0.532-0.987-0.627-1.634-0.627h-3.571c-0.095,0-0.209,0-0.266,0.076c-0.058,0.076-0.058,0.228-0.058,0.304v8.796h-0.987
			V1.425z"/>
		<path display="inline" fill="#4C4F53" d="M143.486,10.183c-0.817,0-1.881-0.209-2.66-1.235c-0.779-1.007-0.816-2.28-0.816-3.761
			c0-1.406,0.075-3.116,1.349-4.18c0.912-0.76,2.146-0.893,3.153-0.893c0.703,0,1.748,0.095,2.564,0.57
			c0.399,0.247,1.615,1.083,1.615,3.191c0,0.285-0.02,0.969-0.418,1.311c-0.305,0.266-0.779,0.304-1.064,0.304h-6.136
			c-0.019,0.589,0.019,1.52,0.171,2.052c0.228,0.817,0.912,1.748,2.242,1.748h4.938v0.893H143.486z M147.209,4.598
			c0.438,0,0.418-0.532,0.418-0.665c0-0.988-0.342-1.653-0.684-2.052c-0.722-0.855-1.71-0.874-2.603-0.874
			c-1.007,0-2.09,0.038-2.793,1.216c-0.398,0.665-0.456,1.387-0.475,2.375H147.209z"/>
	</g>
	<g>
		<path fill="#4C4F53" d="M38.379,10.183c-1.425,0-2.375-0.57-2.964-1.273c-0.798-0.95-0.911-2.146-0.911-3.628
			c0-1.368,0.075-2.963,1.14-4.046c0.589-0.589,1.558-1.121,3.135-1.121h3.4v0.893h-3.515c-1.615,0-2.603,0.855-2.906,2.052
			c-0.134,0.551-0.19,1.862-0.19,2.356c0,0.665,0.095,1.805,0.342,2.375c0.589,1.33,2.052,1.5,2.964,1.5h3.533v0.893H38.379z"/>
		<path fill="#4C4F53" d="M44.535,1.102C45.523,0.133,46.986,0,48.259,0c1.273,0,2.736,0.133,3.724,1.102
			c1.102,1.083,1.254,2.869,1.254,3.989c0,2.185-0.607,3.419-1.254,4.065c-1.102,1.083-2.83,1.14-3.724,1.14
			c-0.893,0-2.621-0.057-3.724-1.14c-0.646-0.646-1.253-1.881-1.253-4.065C43.282,3.971,43.434,2.185,44.535,1.102z M45.162,8.435
			c0.798,0.874,2.071,0.969,3.097,0.969c1.026,0,2.299-0.095,3.097-0.969c0.836-0.912,0.817-2.432,0.817-3.249
			c0-0.874,0-2.47-0.798-3.363c-0.779-0.855-2.166-0.931-3.116-0.931c-0.949,0-2.336,0.076-3.115,0.931
			c-0.798,0.893-0.798,2.489-0.798,3.363C44.346,6.003,44.327,7.523,45.162,8.435z"/>
		<path fill="#4C4F53" d="M54.758,1.805c0-0.38,0.038-0.817,0.228-1.14c0.323-0.494,0.854-0.551,1.14-0.551h9.347
			c0.798,0,1.577,0.152,2.109,0.627c0.626,0.551,0.778,1.443,0.778,2.279v7.162h-0.987V2.945c0-0.456-0.058-1.045-0.418-1.444
			c-0.418-0.456-1.064-0.494-1.501-0.494h-3.4v9.176h-0.988V1.007h-4.711c-0.171,0-0.361,0.019-0.494,0.171
			c-0.114,0.133-0.114,0.342-0.114,0.532v8.473h-0.987V1.805z"/>
		<path fill="#4C4F53" d="M70.262,1.805c0-0.38,0.038-0.817,0.228-1.14c0.323-0.494,0.854-0.551,1.14-0.551h9.347
			c0.798,0,1.577,0.152,2.109,0.627c0.626,0.551,0.778,1.443,0.778,2.279v7.162h-0.987V2.945c0-0.456-0.058-1.045-0.418-1.444
			c-0.418-0.456-1.064-0.494-1.501-0.494h-3.4v9.176h-0.988V1.007h-4.711c-0.171,0-0.361,0.019-0.494,0.171
			c-0.114,0.133-0.114,0.342-0.114,0.532v8.473h-0.987V1.805z"/>
		<path fill="#4C4F53" d="M93.308,9.879c-0.381,0.304-0.97,0.304-1.521,0.304h-2.735c-1.063,0-1.805-0.095-2.45-0.684
			c-0.798-0.722-0.836-1.709-0.836-2.355V0.114h0.987v6.725c0,1.045,0.19,1.52,0.399,1.786c0.437,0.589,1.178,0.665,1.994,0.665
			h2.793c0.247,0,0.513-0.057,0.665-0.209c0.189-0.19,0.189-0.475,0.189-0.626v-8.34h0.988v8.473
			C93.782,8.986,93.726,9.537,93.308,9.879z"/>
		<path fill="#4C4F53" d="M95.684,1.425c0-0.266,0.019-0.665,0.228-0.931c0.266-0.342,0.684-0.38,0.988-0.38h3.609
			c0.949,0,1.729,0.133,2.336,0.741c0.305,0.304,0.779,0.95,0.779,2.336v6.991h-0.987V3.438c0-0.854-0.096-1.368-0.438-1.805
			c-0.418-0.532-0.987-0.627-1.634-0.627h-3.571c-0.095,0-0.209,0-0.266,0.076c-0.058,0.076-0.058,0.228-0.058,0.304v8.796h-0.987
			V1.425z"/>
		<path fill="#4C4F53" d="M108.622,10.183c-0.817,0-1.881-0.209-2.66-1.235c-0.778-1.007-0.816-2.28-0.816-3.761
			c0-1.406,0.075-3.116,1.349-4.18c0.912-0.76,2.146-0.893,3.153-0.893c0.703,0,1.748,0.095,2.564,0.57
			c0.399,0.247,1.615,1.083,1.615,3.191c0,0.285-0.02,0.969-0.418,1.311c-0.305,0.266-0.779,0.304-1.064,0.304h-6.136
			c-0.019,0.589,0.019,1.52,0.171,2.052c0.228,0.817,0.912,1.748,2.242,1.748h4.938v0.893H108.622z M112.345,4.598
			c0.438,0,0.418-0.532,0.418-0.665c0-0.988-0.342-1.653-0.684-2.052c-0.722-0.855-1.71-0.874-2.603-0.874
			c-1.007,0-2.09,0.038-2.793,1.216c-0.398,0.665-0.456,1.387-0.475,2.375H112.345z"/>
	</g>
	<g display="none">
		<path display="inline" fill="#4C4F53" d="M37.999,8.891c0.057,0.133,0.19,0.418,0.285,0.418s0.228-0.285,0.285-0.418l3.248-8.776
			h1.007l-3.495,9.309c-0.267,0.722-0.665,0.874-1.045,0.874s-0.779-0.152-1.045-0.874l-3.496-9.309h1.007L37.999,8.891z"/>
		<path display="inline" fill="#4C4F53" d="M43.586-1.709v-1.406h1.063v1.406H43.586z M43.624,0.114h0.987v10.068h-0.987V0.114z"/>
		<path display="inline" fill="#4C4F53" d="M46.55-3.115h0.987v13.298H46.55V-3.115z"/>
		<path display="inline" fill="#4C4F53" d="M49.438-3.115h0.987v13.298h-0.987V-3.115z"/>
		<path display="inline" fill="#4C4F53" d="M55.422,10.183c-0.817,0-1.881-0.209-2.66-1.235c-0.779-1.007-0.816-2.28-0.816-3.761
			c0-1.406,0.075-3.116,1.349-4.18c0.912-0.76,2.146-0.893,3.153-0.893c0.703,0,1.748,0.095,2.564,0.57
			c0.399,0.247,1.615,1.083,1.615,3.191c0,0.285-0.02,0.969-0.418,1.311C59.904,5.452,59.43,5.49,59.145,5.49h-6.136
			c-0.019,0.589,0.019,1.52,0.171,2.052c0.228,0.817,0.912,1.748,2.242,1.748h4.938v0.893H55.422z M59.145,4.598
			c0.438,0,0.418-0.532,0.418-0.665c0-0.988-0.342-1.653-0.684-2.052c-0.722-0.855-1.71-0.874-2.603-0.874
			c-1.007,0-2.09,0.038-2.793,1.216c-0.398,0.665-0.456,1.387-0.475,2.375H59.145z"/>
	</g>
</g>
<g>
</g>
<g>
</g>
<g>
</g>
<g>
</g>
<g>
</g>
<g>
</g>
<g>
</g>
<g>
</g>
<g>
</g>
<g>
</g>
<g>
</g>
<g>
</g>
<g>
</g>
<g>
</g>
<g>
</g>
<g>
</g>
</svg>
