<?xml version="1.0" standalone="no"?>
<!DOCTYPE svg PUBLIC "-//W3C//DTD SVG 20010904//EN"
 "http://www.w3.org/TR/2001/REC-SVG-20010904/DTD/svg10.dtd">
<svg version="1.0" xmlns="http://www.w3.org/2000/svg"
 width="700.000000pt" height="700.000000pt" viewBox="0 0 700.000000 700.000000"
 preserveAspectRatio="xMidYMid meet">
<metadata>
Created by potrace 1.11, written by Peter Selinger 2001-2013
</metadata>
<g transform="translate(0.000000,700.000000) scale(0.100000,-0.100000)"
fill="#000000" stroke="none">
<path d="M2744 6992 c-10 -2 -30 -7 -44 -12 -14 -4 -38 -11 -53 -14 -18 -5
-25 -11 -20 -19 4 -8 1 -7 -10 2 -11 9 -17 10 -17 2 0 -6 -7 -11 -15 -11 -30
0 -127 -49 -119 -61 4 -8 3 -9 -5 -5 -6 4 -24 1 -39 -7 -189 -97 -317 -215
-394 -365 -32 -62 -36 -65 -138 -120 -57 -31 -163 -95 -235 -142 -71 -47 -136
-90 -143 -94 -21 -12 75 133 131 199 28 33 79 88 115 123 35 34 58 62 52 62
-24 0 -179 -79 -251 -127 -70 -48 -209 -179 -246 -233 -9 -14 -24 -32 -32 -40
-42 -43 -156 -243 -190 -336 -7 -17 -26 -46 -43 -64 -27 -30 -120 -138 -167
-195 -79 -96 -209 -288 -291 -432 -29 -51 -54 -93 -56 -93 -2 0 3 20 10 45 8
25 13 45 11 45 -6 0 46 142 72 200 49 104 155 252 253 351 l96 97 -55 -20
c-132 -50 -253 -131 -366 -245 -132 -134 -244 -302 -307 -463 -29 -74 -67
-208 -74 -260 -2 -19 -8 -63 -12 -97 -17 -124 -5 -315 29 -486 19 -92 19 -104
5 -200 -21 -142 -24 -169 -32 -282 -13 -178 -7 -514 11 -615 2 -14 7 -50 10
-80 17 -161 80 -425 150 -635 93 -278 256 -596 433 -843 128 -178 185 -246
359 -427 29 -30 125 -120 198 -185 173 -155 457 -340 705 -462 255 -125 596
-240 809 -274 37 -6 48 -14 77 -54 62 -86 156 -117 371 -119 l123 -2 -20 52
c-11 29 -19 54 -17 55 1 1 99 4 217 7 118 3 225 8 238 11 35 8 26 -8 -15 -27
-49 -21 -123 -47 -148 -53 -11 -2 -31 -6 -45 -9 -53 -11 -77 -15 -125 -21 -27
-4 -52 -9 -55 -11 -6 -7 320 5 375 13 53 7 205 42 230 52 62 26 160 78 191
103 20 16 55 34 78 39 381 97 730 254 1056 474 110 74 267 194 329 251 106 97
128 114 151 120 182 46 434 228 595 430 22 28 42 52 45 55 18 17 79 111 68
104 -24 -14 -93 -69 -96 -76 -2 -5 -8 -8 -14 -8 -5 0 -24 -11 -41 -24 -37 -28
-163 -95 -224 -119 l-41 -16 85 122 c116 166 191 294 278 472 63 130 161 368
170 415 2 8 14 51 28 95 24 74 50 174 61 235 3 14 8 36 11 50 18 83 41 239 55
385 8 89 6 561 -3 600 -3 11 -8 47 -11 80 -78 691 -411 1396 -896 1900 -82 85
-185 182 -260 245 -36 30 -67 57 -70 60 -14 15 -165 124 -245 177 -332 221
-686 374 -1080 468 -116 28 -311 62 -405 70 -36 3 -85 8 -110 12 -58 7 -440 7
-505 -1 -27 -3 -79 -8 -115 -11 -36 -4 -72 -8 -80 -10 -8 -2 -39 -7 -69 -10
-30 -4 -63 -9 -75 -11 -12 -3 -52 -11 -91 -19 -96 -19 -371 -91 -387 -101 -25
-16 17 49 69 105 12 14 19 29 16 35 -3 6 -2 8 2 3 11 -10 56 33 48 46 -3 6 -1
7 5 3 14 -8 74 43 65 56 -3 7 -1 8 6 4 7 -5 34 9 66 33 30 23 59 41 65 41 5 0
10 5 10 11 0 5 5 7 10 4 6 -3 13 1 16 9 3 9 9 14 13 12 4 -3 13 0 21 5 14 9
-42 9 -96 1z"/>
</g>
</svg>
