<?xml version="1.0" standalone="no"?>
<!DOCTYPE svg PUBLIC "-//W3C//DTD SVG 20010904//EN"
 "http://www.w3.org/TR/2001/REC-SVG-20010904/DTD/svg10.dtd">
<svg version="1.0" xmlns="http://www.w3.org/2000/svg"
 width="700.000000pt" height="700.000000pt" viewBox="0 0 700.000000 700.000000"
 preserveAspectRatio="xMidYMid meet">
<metadata>
Created by potrace 1.11, written by Peter Selinger 2001-2013
</metadata>
<g transform="translate(0.000000,700.000000) scale(0.100000,-0.100000)"
fill="#000000" stroke="none">
<path d="M3567 6994 c-1 -1 -29 -4 -62 -7 -231 -23 -395 -101 -470 -224 -1 -1
-19 -5 -41 -8 -210 -31 -588 -135 -775 -215 -60 -25 -68 -27 -56 -10 56 80
217 216 330 280 32 18 57 34 55 35 -4 4 -162 -38 -248 -66 -157 -50 -357 -174
-459 -285 -36 -40 -86 -110 -111 -156 -44 -80 -49 -86 -145 -150 -55 -37 -101
-67 -103 -68 -8 -1 58 105 105 168 60 81 58 78 158 181 l70 72 -55 -25 c-109
-48 -246 -128 -307 -179 -145 -119 -314 -363 -378 -544 -10 -29 -34 -69 -53
-90 -19 -21 -60 -69 -91 -108 -31 -38 -58 -72 -61 -75 -12 -11 -138 -189 -177
-250 -109 -171 -273 -487 -288 -556 -2 -6 -10 -27 -18 -45 -45 -97 -146 -439
-163 -549 -3 -19 -9 -51 -14 -70 -5 -19 -11 -55 -14 -80 -3 -25 -10 -76 -15
-115 -22 -165 -30 -447 -16 -625 8 -104 33 -319 39 -328 2 -4 7 -29 10 -56 4
-27 9 -52 11 -55 1 -3 6 -22 9 -41 9 -58 54 -224 90 -333 129 -391 347 -783
609 -1097 128 -153 355 -372 497 -480 25 -19 47 -37 50 -40 3 -3 28 -22 55
-41 28 -18 52 -36 55 -39 35 -35 319 -200 465 -270 161 -78 443 -183 565 -211
19 -4 55 -13 80 -19 25 -6 53 -13 63 -15 10 -2 26 -6 35 -9 9 -3 33 -8 52 -11
19 -3 60 -10 90 -15 30 -5 77 -12 105 -16 27 -3 61 -8 75 -10 130 -17 403 -22
624 -11 135 7 138 6 115 -11 -55 -42 -136 -71 -289 -102 l-85 -18 131 3 c276
8 494 69 611 171 36 32 120 65 200 79 18 3 44 10 58 15 44 17 42 12 -10 -26
-28 -20 -90 -56 -140 -80 -49 -25 -76 -42 -60 -38 63 13 296 75 322 85 16 6
37 15 48 19 125 49 240 123 317 202 41 42 95 81 181 130 180 103 456 299 539
381 9 9 21 17 25 17 5 0 18 8 29 18 10 10 41 38 68 62 l49 45 -32 -61 c-26
-49 -127 -193 -150 -214 -3 -3 -24 -25 -46 -49 l-40 -43 45 28 c163 103 357
284 473 439 100 135 175 296 202 435 4 19 26 67 50 105 157 254 308 613 385
915 24 91 25 97 40 180 6 30 12 65 14 76 2 12 7 39 10 60 3 22 8 50 11 64 24
138 34 468 20 668 -7 101 -32 311 -39 332 -3 8 -7 32 -10 52 -26 179 -135 537
-222 726 -65 142 -176 355 -200 383 -8 8 -14 18 -14 22 0 26 -230 338 -340
461 -67 76 -255 262 -325 322 -411 355 -917 609 -1451 728 -60 14 -129 28
-154 31 -24 4 -47 8 -50 10 -3 2 -34 6 -70 10 -35 3 -67 8 -70 10 -13 8 -221
19 -362 20 -82 0 -148 3 -148 6 0 15 91 89 133 107 39 17 59 24 127 39 46 11
115 17 197 17 50 1 89 3 87 5 -5 5 -10 6 -89 17 -44 6 -262 13 -268 8z m-2042
-1124 c43 -44 77 -82 74 -84 -3 -3 -42 33 -88 79 -46 47 -79 85 -74 85 4 0 44
-36 88 -80z"/>
</g>
</svg>
