<?xml version="1.0" encoding="utf-8"?>
<!-- Generator: Adobe Illustrator 22.0.1, SVG Export Plug-In . SVG Version: 6.00 Build 0)  -->
<svg version="1.1" id="LOGO_x27_S" xmlns="http://www.w3.org/2000/svg" xmlns:xlink="http://www.w3.org/1999/xlink" x="0px" y="0px"
	 width="198.469px" height="44.471px" viewBox="0 0 198.469 44.471" enable-background="new 0 0 198.469 44.471"
	 xml:space="preserve">
<g id="brand-sadvantage">
</g>
<g id="brand-se_1_">
</g>
<g id="brand-kn_1_">
</g>
<g id="brand-pn_1_">
</g>
<g id="brand-cn_1_">
</g>
<g id="brand-esn_1_">
</g>
<g id="brand-osn_1_">
	<g id="osn-bol">
		<g id="osn-globe">
			
				<radialGradient id="SVGID_1_" cx="351.7479" cy="-211.6958" r="16.9904" gradientTransform="matrix(0.9331 0 0 0.9331 -294.6288 207.0876)" gradientUnits="userSpaceOnUse">
				<stop  offset="0" style="stop-color:#FFFFFF"/>
				<stop  offset="1" style="stop-color:#E0E1E2"/>
			</radialGradient>
			<path fill="url(#SVGID_1_)" d="M42.483,22.536c0-11.732-9.51-21.242-21.241-21.242c-5.173,0-9.911,1.851-13.595,4.923
				L37.56,36.129C40.632,32.445,42.483,27.708,42.483,22.536z"/>
			
				<radialGradient id="SVGID_2_" cx="323.6327" cy="-184.9425" r="21.6001" gradientTransform="matrix(0.9331 0 0 0.9331 -294.6288 207.0876)" gradientUnits="userSpaceOnUse">
				<stop  offset="0" style="stop-color:#FFFFFF"/>
				<stop  offset="1" style="stop-color:#E0E1E2"/>
			</radialGradient>
			<path fill="url(#SVGID_2_)" d="M7.647,6.217C2.975,10.114,0,15.976,0,22.536c0,11.731,9.511,21.241,21.242,21.241
				c6.559,0,12.421-2.976,16.318-7.647L7.647,6.217z"/>
		</g>
		<g id="osn-shadow">
			<defs>
				<path id="SVGID_56_" d="M42.506,23.248C42.097,34.971,32.26,44.144,20.538,43.733C8.813,43.325-0.359,33.488,0.049,21.764
					C0.458,10.04,10.295,0.868,22.019,1.277C33.745,1.687,42.916,11.522,42.506,23.248z"/>
			</defs>
			<clipPath id="SVGID_4_">
				<use xlink:href="#SVGID_56_"  overflow="visible"/>
			</clipPath>
			<g clip-path="url(#SVGID_4_)">
				<path fill="#EFF0F0" d="M10.55,3.714c-6.975,5.622-1.592,13.799,7.415,25.634c6.165,8.103,11.287,15.525,3.598,16.227
					c-1.419,0.13-2.29-0.032-2.463-0.028c7.718-0.278,2.685-6.562-3.523-14.336C9.535,23.647,0.188,12.264,7.942,5.138
					C8.599,4.533,9.559,4.008,10.55,3.714"/>
				<g>
					<path fill="#EFF0F0" d="M15.212,1.946c-7.546,3.713-2.121,11.267,4.161,20.013c9.37,13.051,14.535,20.066,7.514,22.524
						c-1.143,0.397-2.326,0.556-2.93,0.674c6.636-1.96,2.732-7.624-4.09-16.866C11.056,16.357,5.329,6.236,12.33,2.822
						C13.142,2.426,14.123,2.092,15.212,1.946"/>
					<path fill="#EFF0F0" d="M15.203,1.919c-8.105,3.32-0.799,9.389,7.661,16.414c12.368,10.274,18.193,16.003,13.074,20.99
						c-1.199,1.168-1.997,1.576-2.428,1.887c5.223-4.873-0.142-9.653-12.659-20.362C12.338,13.566,5.534,6.165,12.356,2.872
						C13.167,2.48,13.976,2.151,15.203,1.919"/>
					<path fill="#EFF0F0" d="M25.135,1.642c-8.893-1.294-3.643,5.84-1.667,8.524c3.105,4.216,6.613,8.117,9.635,12.397
						c1.128,1.598,2.698,4.036,3.763,6.579c2.414,5.758,0.885,8.376-1.087,10.386c-0.642,0.652-0.798,0.742-0.798,0.742
						c-0.846,0.712-1.915,1.383-1.915,1.383c4.858-4.238,3.299-10.316-7.027-23.664C19.481,9.509,13.404,0.926,22.511,1.205
						C23.338,1.231,24.316,1.521,25.135,1.642"/>
				</g>
			</g>
		</g>
		<g id="osn">
			
				<radialGradient id="SVGID_5_" cx="347.2733" cy="-176.1145" r="42.4309" gradientTransform="matrix(0.9331 0 0 0.9331 -294.6288 207.0876)" gradientUnits="userSpaceOnUse">
				<stop  offset="0" style="stop-color:#E19526"/>
				<stop  offset="0.1424" style="stop-color:#E49925"/>
				<stop  offset="0.3045" style="stop-color:#EDA524"/>
				<stop  offset="0.456" style="stop-color:#FCB721"/>
				<stop  offset="0.5158" style="stop-color:#FBB726;stop-opacity:0.9506"/>
				<stop  offset="0.5703" style="stop-color:#F7B734;stop-opacity:0.9055"/>
				<stop  offset="0.6228" style="stop-color:#F2B747;stop-opacity:0.8621"/>
				<stop  offset="0.6737" style="stop-color:#EBB95F;stop-opacity:0.8199"/>
				<stop  offset="0.6978" style="stop-color:#E7B96C;stop-opacity:0.8"/>
				<stop  offset="0.7702" style="stop-color:#E8B969;stop-opacity:0.8479"/>
				<stop  offset="0.8393" style="stop-color:#EBB95F;stop-opacity:0.8937"/>
				<stop  offset="0.9071" style="stop-color:#F0B84E;stop-opacity:0.9385"/>
				<stop  offset="0.9737" style="stop-color:#F8B732;stop-opacity:0.9826"/>
				<stop  offset="1" style="stop-color:#FCB721"/>
			</radialGradient>
			<path fill="url(#SVGID_5_)" d="M10.603,2.926c-6.775,5.861-1.112,13.847,8.304,25.36c6.444,7.881,11.821,15.122,4.162,16.093
				c-1.413,0.176-2.289,0.044-2.462,0.054c7.703-0.546,2.452-6.652-4.024-14.203c-6.3-7.35-16.04-18.399-8.538-25.792
				C8.679,3.813,9.62,3.253,10.603,2.926"/>
			<g>
				
					<radialGradient id="SVGID_6_" cx="347.2725" cy="-176.0896" r="42.4365" gradientTransform="matrix(0.9331 0 0 0.9331 -294.6288 207.0876)" gradientUnits="userSpaceOnUse">
					<stop  offset="0" style="stop-color:#4C4F53"/>
					<stop  offset="0.1155" style="stop-color:#4F5255"/>
					<stop  offset="0.2472" style="stop-color:#585B5E"/>
					<stop  offset="0.3862" style="stop-color:#67696D"/>
					<stop  offset="0.456" style="stop-color:#717377"/>
					<stop  offset="0.5278" style="stop-color:#75767A"/>
					<stop  offset="0.5932" style="stop-color:#7F7F83"/>
					<stop  offset="0.656" style="stop-color:#919093"/>
					<stop  offset="0.6978" style="stop-color:#A4A2A5"/>
					<stop  offset="0.7651" style="stop-color:#9E9D9F"/>
					<stop  offset="0.8293" style="stop-color:#919092"/>
					<stop  offset="0.8922" style="stop-color:#7C7C7F"/>
					<stop  offset="0.9541" style="stop-color:#626467"/>
					<stop  offset="1" style="stop-color:#4C4F53"/>
				</radialGradient>
				<path fill="url(#SVGID_6_)" d="M15.197,0.996C7.786,4.97,13.472,12.33,20.054,20.851c9.821,12.716,15.227,19.548,8.294,22.247
					c-1.128,0.439-2.304,0.636-2.904,0.777c6.564-2.19,2.464-7.714-4.676-16.714c-9.22-11.618-15.298-21.532-8.419-25.19
					C13.146,1.547,14.116,1.18,15.197,0.996"/>
				
					<radialGradient id="SVGID_7_" cx="453.8232" cy="-638.8503" r="42.4132" gradientTransform="matrix(0.9102 -0.2051 0.2058 0.9132 -247.6631 717.1309)" gradientUnits="userSpaceOnUse">
					<stop  offset="0" style="stop-color:#4C4F53;stop-opacity:0.85"/>
					<stop  offset="0.1155" style="stop-color:#4F5255;stop-opacity:0.888"/>
					<stop  offset="0.2472" style="stop-color:#585B5E;stop-opacity:0.9313"/>
					<stop  offset="0.3862" style="stop-color:#67696D;stop-opacity:0.977"/>
					<stop  offset="0.456" style="stop-color:#717377"/>
					<stop  offset="0.5278" style="stop-color:#75767A"/>
					<stop  offset="0.5932" style="stop-color:#7F7F83"/>
					<stop  offset="0.656" style="stop-color:#919093"/>
					<stop  offset="0.6978" style="stop-color:#A4A2A5"/>
					<stop  offset="0.7651" style="stop-color:#9E9D9F"/>
					<stop  offset="0.8293" style="stop-color:#919092"/>
					<stop  offset="0.8922" style="stop-color:#7C7C7F"/>
					<stop  offset="0.9541" style="stop-color:#626467"/>
					<stop  offset="1" style="stop-color:#4C4F53"/>
				</radialGradient>
				<path fill="url(#SVGID_7_)" d="M15.359,0.942c-7.828,3.555-0.434,9.417,8.128,16.207c12.519,9.923,18.446,15.49,13.609,20.626
					c-1.133,1.207-1.902,1.633-2.313,1.958c4.947-5.027-0.497-9.654-13.178-20.012C12.983,12.679,6.03,5.47,12.602,1.979
					C13.383,1.563,14.165,1.209,15.359,0.942"/>
				
					<radialGradient id="SVGID_8_" cx="347.263" cy="-176.0904" r="42.4073" gradientTransform="matrix(0.9331 0 0 0.9331 -294.6288 207.0876)" gradientUnits="userSpaceOnUse">
					<stop  offset="0" style="stop-color:#4C4F53"/>
					<stop  offset="0.1155" style="stop-color:#4F5255"/>
					<stop  offset="0.2472" style="stop-color:#585B5E"/>
					<stop  offset="0.3862" style="stop-color:#67696D"/>
					<stop  offset="0.456" style="stop-color:#717377"/>
					<stop  offset="0.5278" style="stop-color:#75767A"/>
					<stop  offset="0.5932" style="stop-color:#7F7F83"/>
					<stop  offset="0.656" style="stop-color:#919093"/>
					<stop  offset="0.6978" style="stop-color:#A4A2A5"/>
					<stop  offset="0.7651" style="stop-color:#9E9D9F"/>
					<stop  offset="0.8293" style="stop-color:#919092"/>
					<stop  offset="0.8922" style="stop-color:#7C7C7F"/>
					<stop  offset="0.9541" style="stop-color:#626467"/>
					<stop  offset="1" style="stop-color:#4C4F53"/>
				</radialGradient>
				<path fill="url(#SVGID_8_)" d="M25.105,0.345c-8.933-0.981-3.438,5.965-1.368,8.578c3.248,4.106,6.892,7.882,10.061,12.053
					c1.184,1.559,2.837,3.941,3.989,6.443c2.614,5.671,1.178,8.34-0.722,10.417c-0.62,0.676-0.771,0.771-0.771,0.771
					c-0.822,0.739-1.868,1.447-1.868,1.447c4.709-4.407,2.938-10.424-7.848-23.405C19.728,8.405,13.356,0.04,22.468,0
					C23.295-0.003,24.284,0.253,25.105,0.345"/>
			</g>
		</g>
	</g>
	<g id="ondernemers__x26__shoppingnetwerk">
		<g id="ondernemers__x26__1_">
			<g id="ondernemers_3_">
				<g id="ondernemers_1_">
					<path fill="#FCB721" d="M61.62,7.224c1.256,1.121,1.331,3.116,1.331,4.123c0,1.007-0.075,3.001-1.331,4.122
						c-1.104,0.969-2.891,1.026-4.489,1.026c-1.598,0-3.386-0.057-4.489-1.026c-1.255-1.121-1.332-3.115-1.332-4.122
						c0-1.007,0.076-3.001,1.332-4.123c1.103-0.969,2.892-1.026,4.489-1.026C58.729,6.198,60.516,6.255,61.62,7.224z M55.476,13.113
						c0.076,0.114,0.514,0.684,1.655,0.684c1.008,0,1.465-0.437,1.636-0.684c0.304-0.418,0.38-1.045,0.38-1.767
						c0-1.064-0.171-1.539-0.362-1.805c-0.19-0.247-0.628-0.646-1.654-0.646c-1.028,0-1.465,0.399-1.655,0.646
						c-0.133,0.19-0.361,0.627-0.361,1.805C55.115,12.448,55.324,12.904,55.476,13.113z"/>
					<path fill="#FCB721" d="M64.437,8.117c0-0.38,0.019-0.855,0.418-1.235c0.57-0.57,1.578-0.57,2.206-0.57h3.499
						c1.161,0,2.359,0.076,3.386,0.892c1.123,0.893,1.255,2.109,1.255,2.983v6.193h-3.729v-5.11c0-0.703-0.057-1.273-0.418-1.729
						c-0.322-0.418-0.779-0.608-1.54-0.608H68.85c-0.153,0-0.362,0.019-0.515,0.152c-0.189,0.171-0.171,0.38-0.171,0.57v6.725
						h-3.727V8.117z"/>
					<path fill="#FCB721" d="M87.377,3.083v11.17c0,0.437-0.058,1.064-0.324,1.444c-0.437,0.646-1.179,0.684-1.73,0.684h-5.003
						c-1.559,0-2.663-0.684-3.177-1.937c-0.399-0.95-0.457-2.109-0.457-3.344c0-1.235,0.058-2.394,0.742-3.362
						c0.875-1.235,2.302-1.425,3.348-1.425h2.872V3.083H87.377z M82.013,8.896c-0.608,0-0.989,0.304-1.199,0.608
						c-0.361,0.513-0.399,1.254-0.399,1.805c0,0.95,0.095,1.425,0.266,1.747c0.342,0.665,1.008,0.741,1.332,0.741h0.894
						c0.362,0,0.514-0.114,0.551-0.152c0.191-0.171,0.191-0.532,0.191-0.684V8.896H82.013z"/>
					<path fill="#FCB721" d="M92.953,16.38c-1.503,0-2.778,0-3.577-1.311c-0.437-0.722-0.513-1.786-0.513-3.609
						c0-1.843-0.095-3.343,0.818-4.274c0.932-0.95,2.853-0.988,4.755-0.988c2.035,0,3.367,0.038,4.165,0.684
						c0.97,0.779,1.084,2.28,1.084,3.381c0,0.646-0.038,1.387-0.609,1.843c-0.323,0.266-0.646,0.285-0.989,0.285h-5.497
						c-0.019,0.266,0.038,0.608,0.171,0.817c0.324,0.513,1.008,0.475,1.674,0.475h4.888v2.698H92.953z M95.349,10.035
						c0.532,0,0.608-0.342,0.608-0.532c0-0.266-0.133-0.57-0.685-0.684c-0.304-0.057-0.799-0.076-0.989-0.076
						c-0.437,0-1.027,0.019-1.294,0.171c-0.38,0.209-0.437,0.608-0.399,1.121H95.349z"/>
					<path fill="#FCB721" d="M101.171,10.548c0-0.969,0.075-2.375,1.198-3.287c1.103-0.912,2.739-0.95,3.729-0.95h2.473v2.622
						h-1.293c-0.723,0-1.407,0.095-1.883,0.722c-0.437,0.589-0.495,1.349-0.495,1.919v4.806h-3.728V10.548z"/>
					<path fill="#FCB721" d="M109.713,8.117c0-0.38,0.019-0.855,0.418-1.235c0.57-0.57,1.578-0.57,2.206-0.57h3.501
						c1.16,0,2.358,0.076,3.385,0.892c1.123,0.893,1.256,2.109,1.256,2.983v6.193h-3.729v-5.11c0-0.703-0.057-1.273-0.418-1.729
						c-0.323-0.418-0.779-0.608-1.54-0.608h-0.666c-0.152,0-0.362,0.019-0.514,0.152c-0.189,0.171-0.171,0.38-0.171,0.57v6.725
						h-3.728V8.117z"/>
					<path fill="#FCB721" d="M126.054,16.38c-1.503,0-2.778,0-3.577-1.311c-0.437-0.722-0.514-1.786-0.514-3.609
						c0-1.843-0.095-3.343,0.818-4.274c0.932-0.95,2.854-0.988,4.755-0.988c2.035,0,3.366,0.038,4.165,0.684
						c0.97,0.779,1.085,2.28,1.085,3.381c0,0.646-0.038,1.387-0.609,1.843c-0.322,0.266-0.646,0.285-0.988,0.285h-5.497
						c-0.019,0.266,0.038,0.608,0.171,0.817c0.324,0.513,1.008,0.475,1.674,0.475h4.888v2.698H126.054z M128.45,10.035
						c0.532,0,0.608-0.342,0.608-0.532c0-0.266-0.133-0.57-0.684-0.684c-0.304-0.057-0.799-0.076-0.99-0.076
						c-0.437,0-1.026,0.019-1.293,0.171c-0.38,0.209-0.437,0.608-0.399,1.121H128.45z"/>
					<path fill="#FCB721" d="M134.272,8.117c0-0.304,0.057-0.741,0.361-1.121c0.513-0.646,1.199-0.684,1.998-0.684h8.654
						c1.141,0,2.378,0.304,3.139,1.007c0.703,0.665,1.065,1.786,1.065,2.716v6.345h-3.729v-5.585c0-0.418-0.038-1.045-0.399-1.425
						c-0.209-0.228-0.628-0.437-1.199-0.437h-0.419v7.447h-3.729V8.934h-1.426c-0.323,0-0.437,0.095-0.494,0.152
						c-0.077,0.095-0.096,0.323-0.096,0.513v6.782h-3.727V8.117z"/>
					<path fill="#FCB721" d="M155.064,16.38c-1.503,0-2.778,0-3.577-1.311c-0.437-0.722-0.514-1.786-0.514-3.609
						c0-1.843-0.095-3.343,0.818-4.274c0.932-0.95,2.854-0.988,4.755-0.988c2.035,0,3.366,0.038,4.165,0.684
						c0.97,0.779,1.085,2.28,1.085,3.381c0,0.646-0.038,1.387-0.609,1.843c-0.322,0.266-0.646,0.285-0.988,0.285h-5.497
						c-0.019,0.266,0.038,0.608,0.171,0.817c0.324,0.513,1.008,0.475,1.674,0.475h4.888v2.698H155.064z M157.461,10.035
						c0.532,0,0.608-0.342,0.608-0.532c0-0.266-0.133-0.57-0.684-0.684c-0.304-0.057-0.799-0.076-0.99-0.076
						c-0.437,0-1.026,0.019-1.294,0.171c-0.38,0.209-0.437,0.608-0.399,1.121H157.461z"/>
					<path fill="#FCB721" d="M163.283,10.548c0-0.969,0.075-2.375,1.198-3.287c1.103-0.912,2.739-0.95,3.728-0.95h2.473v2.622
						h-1.294c-0.722,0-1.407,0.095-1.883,0.722c-0.438,0.589-0.495,1.349-0.495,1.919v4.806h-3.727V10.548z"/>
					<path fill="#FCB721" d="M171.71,13.683h5.497c0.057,0,0.171-0.038,0.228-0.076c0.058-0.038,0.096-0.095,0.096-0.19
						c0-0.133-0.096-0.19-0.172-0.228c-0.133-0.076-0.342-0.133-1.141-0.399l-2.168-0.703c-0.913-0.304-1.693-0.703-2.074-1.33
						c-0.286-0.475-0.38-1.197-0.38-1.691c0-0.627,0.114-1.273,0.475-1.805c0.533-0.798,1.294-0.95,2.34-0.95h6.734v2.583h-5.479
						c-0.133,0-0.285-0.019-0.437,0.019c-0.096,0.019-0.171,0.038-0.171,0.171c0,0.152,0.095,0.19,0.209,0.228
						c0.456,0.152,0.323,0.133,0.761,0.285l2.548,0.855c1.066,0.361,1.845,0.665,2.321,1.368c0.475,0.684,0.513,1.501,0.513,1.938
						c0,0.741-0.152,1.596-0.837,2.146c-0.533,0.418-1.141,0.475-1.654,0.475h-7.21V13.683z"/>
				</g>
			</g>
			<g id="_x26__3_">
				<g id="_x26__2_">
					<path fill="#4C4F53" d="M196.75,15.33c0,0.558-0.103,0.763-0.191,0.866c-0.221,0.264-0.676,0.25-0.926,0.25h-3.057
						c-0.618,0-1.382,0-1.955-0.69c-0.529-0.646-0.559-1.453-0.559-2.114c0-0.617,0.044-1.218,0.324-1.615
						c0.22-0.323,0.647-0.602,1.131-0.69v-0.029c-0.25-0.029-0.691-0.132-1.029-0.616c-0.353-0.5-0.426-1.204-0.426-1.806
						c0-0.573,0.059-1.541,0.618-2.114c0.323-0.338,0.881-0.602,1.749-0.602h4.395v0.69h-4.262c-0.398,0-0.897,0.044-1.235,0.353
						c-0.455,0.425-0.441,1.204-0.441,1.615c0,0.455-0.015,1.204,0.411,1.659c0.324,0.352,0.971,0.528,1.529,0.528h5.644v0.69h-1.72
						V15.33z M195.941,15.667c0.103-0.088,0.103-0.294,0.103-0.396v-3.567h-3.733c-0.779,0-1.117,0.426-1.249,0.661
						c-0.176,0.323-0.176,0.778-0.176,1.424c0,0.47,0,1.013,0.25,1.395c0.367,0.558,0.955,0.572,1.426,0.572h2.822
						C195.559,15.755,195.838,15.77,195.941,15.667z"/>
				</g>
			</g>
		</g>
		<g id="shoppingnetwerk_1_">
			<g id="shopping_3_">
				<g id="shopping_2_">
					<path fill="#FCB721" d="M51.424,33.683h5.49c0.057,0,0.171-0.038,0.228-0.076c0.058-0.038,0.096-0.095,0.096-0.19
						c0-0.133-0.096-0.19-0.172-0.228c-0.133-0.076-0.342-0.133-1.14-0.399l-2.165-0.703c-0.912-0.304-1.691-0.703-2.071-1.33
						c-0.285-0.475-0.38-1.197-0.38-1.691c0-0.627,0.114-1.273,0.475-1.805c0.532-0.798,1.292-0.95,2.337-0.95h6.726v2.583h-5.472
						c-0.133,0-0.285-0.019-0.437,0.019c-0.096,0.019-0.171,0.038-0.171,0.171c0,0.152,0.095,0.19,0.209,0.228
						c0.455,0.152,0.322,0.133,0.76,0.285l2.545,0.855c1.064,0.361,1.843,0.665,2.318,1.368c0.475,0.684,0.513,1.501,0.513,1.938
						c0,0.741-0.152,1.596-0.836,2.146c-0.532,0.418-1.14,0.475-1.652,0.475h-7.2V33.683z"/>
					<path fill="#FCB721" d="M62.026,23.083h3.723v3.23h2.223c1.141,0,2.337-0.038,3.401,0.741c0.931,0.684,1.387,1.767,1.387,2.754
						v6.573h-3.724v-5.129c0-0.475-0.038-1.178-0.57-1.729c-0.456-0.494-1.025-0.589-1.538-0.589h-1.179v7.447h-3.723V23.083z"/>
					<path fill="#FCB721" d="M83.969,27.224c1.254,1.121,1.329,3.116,1.329,4.122c0,1.007-0.075,3.001-1.329,4.122
						c-1.103,0.969-2.888,1.026-4.483,1.026c-1.596,0-3.382-0.057-4.483-1.026c-1.254-1.121-1.33-3.115-1.33-4.122
						c0-1.007,0.076-3.001,1.33-4.122c1.102-0.969,2.888-1.026,4.483-1.026C81.082,26.198,82.867,26.255,83.969,27.224z
						 M77.833,33.113c0.076,0.114,0.514,0.684,1.653,0.684c1.007,0,1.463-0.437,1.634-0.684c0.304-0.418,0.38-1.045,0.38-1.767
						c0-1.064-0.171-1.539-0.361-1.805c-0.189-0.247-0.627-0.646-1.652-0.646c-1.026,0-1.463,0.399-1.653,0.646
						c-0.133,0.19-0.36,0.627-0.36,1.805C77.472,32.448,77.681,32.904,77.833,33.113z"/>
					<path fill="#FCB721" d="M89.936,39.61h-3.723V28.23c0-0.57,0.095-1.14,0.684-1.558c0.456-0.323,0.95-0.361,1.425-0.361h4.673
						c0.665,0,1.976,0.076,2.907,1.045c1.007,1.044,1.083,2.716,1.083,3.685c0,0.874-0.038,2.831-0.817,3.952
						c-0.912,1.292-2.432,1.387-3.477,1.387h-2.755V39.61z M91.57,33.683c0.817,0,1.216-0.456,1.387-0.779
						c0.209-0.399,0.229-0.931,0.229-1.577c0-0.57-0.02-1.064-0.171-1.463c-0.323-0.817-1.102-0.855-1.33-0.855h-1.311
						c-0.076,0-0.247,0.076-0.304,0.133c-0.076,0.076-0.134,0.228-0.134,0.342v4.198H91.57z"/>
					<path fill="#FCB721" d="M101.621,39.61h-3.723V28.23c0-0.57,0.095-1.14,0.684-1.558c0.456-0.323,0.95-0.361,1.425-0.361h4.673
						c0.665,0,1.976,0.076,2.907,1.045c1.007,1.044,1.083,2.716,1.083,3.685c0,0.874-0.038,2.831-0.817,3.952
						c-0.912,1.292-2.432,1.387-3.477,1.387h-2.755V39.61z M103.254,33.683c0.817,0,1.216-0.456,1.387-0.779
						c0.209-0.399,0.229-0.931,0.229-1.577c0-0.57-0.02-1.064-0.171-1.463c-0.323-0.817-1.102-0.855-1.33-0.855h-1.311
						c-0.076,0-0.247,0.076-0.304,0.133c-0.076,0.076-0.134,0.228-0.134,0.342v4.198H103.254z"/>
					<path fill="#FCB721" d="M109.583,25.305v-2.223h3.723v2.223H109.583z M109.583,26.312h3.723V36.38h-3.723V26.312z"/>
					<path fill="#FCB721" d="M114.447,28.117c0-0.38,0.019-0.855,0.418-1.235c0.569-0.57,1.576-0.57,2.203-0.57h3.496
						c1.158,0,2.355,0.076,3.381,0.892c1.121,0.893,1.254,2.109,1.254,2.983v6.193h-3.724v-5.11c0-0.703-0.057-1.272-0.418-1.728
						c-0.322-0.418-0.778-0.608-1.538-0.608h-0.665c-0.152,0-0.361,0.019-0.514,0.152c-0.189,0.171-0.171,0.38-0.171,0.57v6.725
						h-3.723V28.117z"/>
					<path fill="#FCB721" d="M126.815,37.368h4.483c0.398,0,0.987,0.019,1.367-0.266c0.209-0.171,0.381-0.456,0.438-0.722h-3.211
						c-1.063,0-2.223-0.076-3.001-1.273c-0.551-0.855-0.779-2.052-0.779-3.799c0-1.957,0.285-2.926,1.026-3.78
						c0.76-0.893,1.614-1.216,3.191-1.216h4.142c0.589,0,1.273,0.038,1.767,0.455c0.513,0.437,0.589,1.083,0.589,1.52v6.972
						c0,1.33-0.152,2.413-0.798,3.21c-0.76,0.969-2.033,1.33-3.572,1.33h-5.642V37.368z M133.103,29.807
						c0-0.266-0.038-0.475-0.285-0.646c-0.189-0.133-0.398-0.152-0.589-0.152h-0.418c-0.532,0-1.102,0.038-1.501,0.551
						c-0.171,0.209-0.398,0.665-0.398,1.88c0,0.893,0.151,1.425,0.418,1.729c0.475,0.551,1.178,0.513,1.71,0.513h1.063V29.807z"/>
				</g>
			</g>
			<g id="netwerk_3_">
				<g id="netwerk_2_">
					<path fill="#4C4F53" d="M137.918,27.622c0-0.266,0.019-0.665,0.228-0.931c0.266-0.342,0.684-0.38,0.988-0.38h3.609
						c0.949,0,1.729,0.133,2.336,0.741c0.305,0.304,0.779,0.949,0.779,2.336v6.991h-0.988v-6.744c0-0.854-0.095-1.367-0.437-1.805
						c-0.418-0.531-0.987-0.627-1.634-0.627h-3.571c-0.095,0-0.209,0-0.266,0.076c-0.058,0.076-0.058,0.229-0.058,0.304v8.796
						h-0.987V27.622z"/>
					<path fill="#4C4F53" d="M150.857,36.379c-0.817,0-1.881-0.209-2.66-1.234c-0.779-1.007-0.816-2.28-0.816-3.762
						c0-1.405,0.075-3.115,1.349-4.18c0.912-0.76,2.146-0.893,3.153-0.893c0.703,0,1.748,0.095,2.564,0.57
						c0.399,0.247,1.615,1.083,1.615,3.191c0,0.285-0.02,0.969-0.418,1.311c-0.305,0.266-0.779,0.304-1.064,0.304h-6.136
						c-0.019,0.589,0.018,1.521,0.171,2.052c0.228,0.817,0.912,1.748,2.242,1.748h4.938v0.892H150.857z M154.58,30.794
						c0.438,0,0.418-0.532,0.418-0.665c0-0.987-0.342-1.652-0.684-2.052c-0.722-0.854-1.71-0.874-2.603-0.874
						c-1.007,0-2.09,0.038-2.793,1.216c-0.398,0.665-0.456,1.387-0.475,2.375H154.58z"/>
					<path fill="#4C4F53" d="M161.326,36.379c-0.855,0-1.805,0.038-2.432-0.589c-0.627-0.607-0.684-1.596-0.684-2.792v-5.795h-1.387
						v-0.893h1.387v-3.229h0.987v3.229h2.773v0.893h-2.773v5.586c0,0.854-0.057,2.014,0.57,2.45
						c0.228,0.152,0.665,0.247,1.785,0.247h0.532v0.892H161.326z"/>
					<path fill="#4C4F53" d="M164.955,35.202c0.038,0.133,0.114,0.304,0.209,0.304c0.114,0,0.171-0.228,0.189-0.284l2.147-8.188
						c0.189-0.702,0.607-0.836,0.911-0.836c0.305,0,0.723,0.134,0.912,0.836l2.147,8.188c0.019,0.057,0.076,0.284,0.19,0.284
						c0.095,0,0.171-0.171,0.209-0.304l2.261-8.891h0.987l-2.47,9.347c-0.113,0.437-0.342,0.836-0.969,0.836
						c-0.74,0-0.949-0.57-1.025-0.854l-2.09-7.865c-0.019-0.114-0.076-0.342-0.152-0.342c-0.075,0-0.133,0.227-0.151,0.342
						l-2.09,7.865c-0.076,0.284-0.285,0.854-1.026,0.854c-0.626,0-0.854-0.399-0.969-0.836l-2.47-9.347h0.988L164.955,35.202z"/>
					<path fill="#4C4F53" d="M178.977,36.379c-0.817,0-1.881-0.209-2.66-1.234c-0.778-1.007-0.816-2.28-0.816-3.762
						c0-1.405,0.075-3.115,1.349-4.18c0.912-0.76,2.146-0.893,3.153-0.893c0.703,0,1.748,0.095,2.564,0.57
						c0.4,0.247,1.615,1.083,1.615,3.191c0,0.285-0.02,0.969-0.418,1.311c-0.305,0.266-0.779,0.304-1.064,0.304h-6.136
						c-0.019,0.589,0.019,1.521,0.171,2.052c0.227,0.817,0.912,1.748,2.242,1.748h4.938v0.892H178.977z M182.7,30.794
						c0.438,0,0.418-0.532,0.418-0.665c0-0.987-0.342-1.652-0.684-2.052c-0.722-0.854-1.71-0.874-2.603-0.874
						c-1.007,0-2.09,0.038-2.793,1.216c-0.398,0.665-0.456,1.387-0.475,2.375H182.7z"/>
					<path fill="#4C4F53" d="M185.703,29.769c0-1.026,0.133-1.919,0.893-2.641c0.418-0.399,1.121-0.817,2.47-0.817h0.684v0.893
						h-0.607c-0.551,0-1.387,0.058-1.938,0.703c-0.418,0.513-0.513,1.273-0.513,2.09v6.383h-0.987V29.769z"/>
					<path fill="#4C4F53" d="M190.509,36.379V23.082h0.987v13.298H190.509z M197.101,36.379l-4.085-3.761
						c-0.228-0.209-0.778-0.761-0.778-1.444c0-0.551,0.304-0.969,0.798-1.443l3.648-3.42h1.33l-4.37,4.104
						c-0.266,0.266-0.342,0.551-0.342,0.722c0,0.342,0.267,0.703,0.532,0.95l4.636,4.293H197.101z"/>
				</g>
			</g>
		</g>
	</g>
</g>
</svg>
