<?xml version="1.0" encoding="utf-8"?>
<!-- Generator: Adobe Illustrator 22.0.1, SVG Export Plug-In . SVG Version: 6.00 Build 0)  -->
<svg version="1.1" id="LOGO_x27_S" xmlns="http://www.w3.org/2000/svg" xmlns:xlink="http://www.w3.org/1999/xlink" x="0px" y="0px"
	 width="198.5px" height="44.5px" viewBox="0 0 198.5 44.5" style="enable-background:new 0 0 198.5 44.5;" xml:space="preserve">
<style type="text/css">
	.st0{fill:url(#SVGID_1_);}
	.st1{fill:url(#SVGID_2_);}
	.st2{opacity:0.2;}
	.st3{fill:#B4B2B4;}
	.st4{clip-path:url(#SVGID_4_);}
	.st5{fill:#EFF0F0;}
	.st6{fill:url(#SVGID_5_);}
	.st7{enable-background:new    ;}
	.st8{fill:#E19526;}
	.st9{fill:#FCB721;}
	.st10{fill:url(#SVGID_6_);}
	.st11{fill:url(#SVGID_7_);}
	.st12{fill:url(#SVGID_8_);}
	.st13{fill:url(#SVGID_9_);}
	.st14{fill:#4C4F53;}
</style>
<g id="brand-sadvantage">
</g>
<g id="brand-se_1_">
</g>
<g id="brand-kn_1_">
</g>
<g id="brand-pn_1_">
</g>
<g id="brand-cn_1_">
</g>
<g id="brand-esn_1_">
</g>
<g id="brand-esn">
	<g id="osn-bol_1_">
		<g id="osn-globe_1_">
			
				<radialGradient id="SVGID_1_" cx="346.1609" cy="255.1625" r="16.4179" gradientTransform="matrix(0.9331 0 0 -0.9331 -290.5479 248.0736)" gradientUnits="userSpaceOnUse">
				<stop  offset="0" style="stop-color:#FFFFFF"/>
				<stop  offset="1" style="stop-color:#E0E1E2"/>
			</radialGradient>
			<path class="st0" d="M41.1,22.5C41.1,11.2,31.9,2,20.5,2c-5,0-9.6,1.8-13.1,4.8l28.9,28.9C39.3,32.1,41.1,27.5,41.1,22.5z"/>
			
				<radialGradient id="SVGID_2_" cx="318.9931" cy="229.3107" r="20.8722" gradientTransform="matrix(0.9331 0 0 -0.9331 -290.5479 248.0736)" gradientUnits="userSpaceOnUse">
				<stop  offset="0" style="stop-color:#FFFFFF"/>
				<stop  offset="1" style="stop-color:#E0E1E2"/>
			</radialGradient>
			<path class="st1" d="M7.4,6.8C2.9,10.5,0,16.2,0,22.5c0,11.3,9.2,20.5,20.5,20.5c6.3,0,12-2.9,15.8-7.4L7.4,6.8z"/>
			<g class="st2">
				<path class="st3" d="M10,29.1C10.1,29.1,10.1,29.1,10,29.1c0.1,0.1,0.1,0.1,0.2,0.2l-2.6,1.8L7,31.4c-0.1,0.1-0.3,0.2-0.4,0.3
					c-0.1,0.1-0.3,0.1-0.4,0.2C6.1,31.9,6,32,5.9,32c-0.1,0-0.2,0.1-0.4,0.1c0,0-0.1,0-0.1,0c0,0-0.1,0-0.1,0c0,0,0,0,0,0
					c0,0,0,0,0,0c0,0-0.1,0-0.1,0c0,0-0.1,0-0.1,0c-0.1,0-0.1,0-0.1,0c0,0-0.1,0-0.1-0.1c0,0-0.1-0.1-0.1-0.1c0,0-0.1-0.1-0.1-0.1
					L7,30.1l0.5-0.4c0.1-0.1,0.3-0.2,0.4-0.3c0.1-0.1,0.3-0.2,0.4-0.2c0.1-0.1,0.3-0.1,0.4-0.2S9.1,29,9.2,29c0.1,0,0.1,0,0.2,0
					c0.1,0,0.1,0,0.1,0c0,0,0.1,0,0.1,0c0,0,0.1,0,0.1,0c0,0,0.1,0,0.1,0C10,29,10,29,10,29.1z"/>
				<path class="st3" d="M19.4,41.1c0.1,0,0.2,0,0.3,0c0,0,0.2,0,0.2,0c0,0,0,0-0.1,0c-0.1,0-0.1,0.1-0.2,0.1
					c-0.1,0-0.1,0.1-0.2,0.1c-1,0.3-1.9,0.4-2,0.4c-0.1,0-0.2,0-0.3,0c0,0-0.1,0-0.1,0c-0.1,0-0.2,0-0.2,0c0,0-0.1,0-0.1,0
					c-0.1,0-0.2,0-0.3,0c-0.1,0-0.2,0-0.3,0c0,0-0.1,0-0.1,0c-0.1,0-0.1,0-0.2,0c0,0-0.1,0-0.1,0c-0.1,0-0.2,0-0.3,0
					c-0.1,0-0.3,0-0.4,0c0,0-0.1,0-0.1,0c-0.1,0-0.2,0-0.3,0c0,0-0.1,0-0.1,0c-0.1,0-0.2,0-0.3,0c0,0-0.1,0-0.1,0
					c-0.1,0-0.2,0-0.3,0c-0.2,0-0.3-0.1-0.4-0.1c0,0-0.1,0-0.1,0c-0.1,0-0.2,0-0.3-0.1c0,0-0.1,0-0.1,0c-0.1,0-0.2,0-0.3-0.1
					c0,0-0.1,0-0.1,0c-0.1,0-0.3-0.1-0.4-0.1c-1.7-0.5-3.4-1.4-4.9-2.6c-1.5-1.2-2.8-2.7-3.9-4.4c-1.1-1.7-1.9-3.7-2.4-5.8
					c-0.3-1.1-0.4-2.1-0.5-3.2c0-0.1,0-0.3,0-0.4c0,0,0-0.1,0-0.1c0-0.1,0-0.2,0-0.3c0-0.1,0-0.1,0-0.2c0-0.1,0-0.2,0-0.3
					c0-0.1,0-0.1,0-0.2c0-0.1,0-0.2,0-0.2c0-0.1,0-0.2,0-0.3c0-0.2,0-0.4,0-0.6c0,0,0-0.1,0-0.1c0-0.2,0-0.3,0-0.5
					c0.1-1,0.3-2.9,0.9-4.3c0.8-2.2,1.5-3.4,1.6-3.5c-0.3,0.9-0.7,1.9-0.9,3c-0.2,1-0.4,2.1-0.5,3.2c-0.1,1.1-0.1,2.2,0,3.3
					c0.1,1.1,0.3,2.3,0.6,3.4c0.6,2.3,1.5,4.4,2.7,6.2C6,35.2,7.4,36.7,9,38c1.6,1.2,3.3,2.1,5.2,2.7c0.1,0,0.3,0.1,0.4,0.1
					c0,0,0.1,0,0.1,0c0.1,0,0.2,0,0.3,0.1c0,0,0.1,0,0.1,0c0.1,0,0.2,0,0.3,0.1c0,0,0.1,0,0.1,0c0.1,0,0.2,0,0.3,0.1
					c0,0,0.1,0,0.1,0c0.1,0,0.3,0,0.4,0.1c0,0,0.1,0,0.1,0c0.1,0,0.2,0,0.3,0c0,0,0.1,0,0.1,0c0.1,0,0.2,0,0.3,0c0,0,0.1,0,0.1,0
					c0.1,0,0.2,0,0.3,0c0,0,0.1,0,0.1,0c0.1,0,0.1,0,0.1,0c0.1,0,0.1,0,0.2,0c0,0,0.1,0,0.1,0c0.1,0,0.2,0,0.2,0c0,0,0.1,0,0.1,0
					c0.1,0,0.2,0,0.3,0c0,0,0,0,0.1,0c0.1,0,0.2,0,0.2,0c0,0,0.1,0,0.1,0c0.1,0,0.2,0,0.2,0C19.3,41.1,19.4,41.1,19.4,41.1z"/>
			</g>
		</g>
		<g id="osn-shadow_1_">
			<g>
				<defs>
					<path id="SVGID_3_" d="M41.1,23.2C40.7,34.5,31.2,43.4,19.8,43C8.5,42.6-0.3,33.1,0,21.8C0.4,10.5,9.9,1.6,21.3,2
						C32.6,2.4,41.5,11.9,41.1,23.2z"/>
				</defs>
				<clipPath id="SVGID_4_">
					<use xlink:href="#SVGID_3_"  style="overflow:visible;"/>
				</clipPath>
				<g class="st4">
					<path class="st5" d="M10.2,4.3c-6.7,5.4-1.5,13.3,7.2,24.8c6,7.8,10.9,15,3.5,15.7c-1.4,0.1-2.2,0-2.4,0
						c7.5-0.3,2.6-6.3-3.4-13.9C9.2,23.6,0.2,12.6,7.7,5.7C8.3,5.1,9.2,4.6,10.2,4.3"/>
					<g>
						<path class="st5" d="M14.7,2.6c-7.3,3.6-2,10.9,4,19.3c9.1,12.6,14,19.4,7.3,21.8c-1.1,0.4-2.2,0.5-2.8,0.7
							c6.4-1.9,2.6-7.4-4-16.3c-8.5-11.5-14-21.3-7.3-24.6C12.7,3.1,13.6,2.8,14.7,2.6"/>
						<path class="st5" d="M14.7,2.6c-7.8,3.2-0.8,9.1,7.4,15.9c12,9.9,17.6,15.5,12.6,20.3c-1.2,1.1-1.9,1.5-2.3,1.8
							c5-4.7-0.1-9.3-12.2-19.7c-8.2-7-14.8-14.2-8.2-17.4C12.7,3.1,13.5,2.8,14.7,2.6"/>
						<path class="st5" d="M24.3,2.3c-8.6-1.3-3.5,5.6-1.6,8.2c3,4.1,6.4,7.8,9.3,12c1.1,1.5,2.6,3.9,3.6,6.4
							c2.3,5.6,0.9,8.1-1.1,10c-0.6,0.6-0.8,0.7-0.8,0.7C33,40.4,32,41,32,41c4.7-4.1,3.2-10-6.8-22.9C18.8,9.9,13,1.6,21.8,1.9
							C22.6,1.9,23.5,2.2,24.3,2.3"/>
					</g>
				</g>
			</g>
		</g>
		<g id="osn_1_">
			
				<radialGradient id="SVGID_5_" cx="341.8371" cy="220.7802" r="41.0011" gradientTransform="matrix(0.9331 0 0 -0.9331 -290.5479 248.0736)" gradientUnits="userSpaceOnUse">
				<stop  offset="0" style="stop-color:#E19526"/>
				<stop  offset="0.1424" style="stop-color:#E49925"/>
				<stop  offset="0.3045" style="stop-color:#EDA524"/>
				<stop  offset="0.456" style="stop-color:#FCB721"/>
				<stop  offset="0.5158" style="stop-color:#FBB726;stop-opacity:0.9506"/>
				<stop  offset="0.5703" style="stop-color:#F7B734;stop-opacity:0.9055"/>
				<stop  offset="0.6228" style="stop-color:#F2B747;stop-opacity:0.8621"/>
				<stop  offset="0.6737" style="stop-color:#EBB95F;stop-opacity:0.8199"/>
				<stop  offset="0.6978" style="stop-color:#E7B96C;stop-opacity:0.8"/>
				<stop  offset="0.7702" style="stop-color:#E8B969;stop-opacity:0.8479"/>
				<stop  offset="0.8393" style="stop-color:#EBB95F;stop-opacity:0.8937"/>
				<stop  offset="0.9071" style="stop-color:#F0B84E;stop-opacity:0.9385"/>
				<stop  offset="0.9737" style="stop-color:#F8B732;stop-opacity:0.9826"/>
				<stop  offset="1" style="stop-color:#FCB721"/>
			</radialGradient>
			<path class="st6" d="M10.2,3.6c-6.5,5.7-1.1,13.4,8,24.5c6.2,7.6,11.4,14.6,4,15.6c-1.4,0.2-2.2,0-2.4,0.1
				c7.4-0.5,2.4-6.4-3.9-13.7C9.9,22.9,0.5,12.2,7.8,5C8.4,4.4,9.3,3.9,10.2,3.6"/>
			<g class="st7">
				<g>
					<path class="st8" d="M10.2,28.9l-2.6,1.8L7,31.1c-0.1,0.1-0.2,0.1-0.3,0.2c0.1-0.1,0.2-0.1,0.3-0.2C7.1,31,7.2,31,7.2,30.9
						l0.5-0.4l2.6-1.8L10.2,28.9z"/>
					<path class="st8" d="M10.4,28.7C10.4,28.7,10.4,28.7,10.4,28.7C10.4,28.6,10.4,28.6,10.4,28.7c0-0.1-0.1-0.1-0.1-0.1
						c0,0,0,0,0,0c0,0,0,0,0,0c0,0,0,0,0,0c0,0,0,0,0,0c0,0,0,0,0,0c0,0,0,0,0,0c0,0,0,0,0,0c0,0,0,0,0,0c0,0,0,0,0,0c0,0,0,0-0.1,0
						c0,0,0,0,0,0c0,0,0,0,0,0c0,0,0,0-0.1,0c0,0,0,0,0,0c0,0,0,0,0,0c0,0,0,0,0,0c0,0,0,0,0,0c0,0,0,0,0,0c0,0,0,0-0.1,0
						c0,0-0.1,0-0.1,0c0,0-0.1,0-0.1,0c-0.1,0-0.1,0-0.2,0c-0.1,0-0.3,0.1-0.4,0.1c-0.1,0-0.3,0.1-0.4,0.2c-0.1,0.1-0.3,0.1-0.4,0.2
						c-0.1,0-0.1,0.1-0.2,0.1l-0.3,0.2c0.1,0,0.1-0.1,0.2-0.1C8.1,29,8.3,29,8.4,28.9c0.1-0.1,0.3-0.1,0.4-0.2
						c0.1,0,0.3-0.1,0.4-0.1c0.1,0,0.1,0,0.2,0c0.1,0,0.1,0,0.1,0c0,0,0.1,0,0.1,0c0,0,0,0,0.1,0c0,0,0,0,0,0c0,0,0,0,0,0
						c0,0,0,0,0,0c0,0,0.1,0,0.1,0c0,0,0,0,0,0c0,0,0,0,0.1,0c0,0,0,0,0,0c0,0,0,0,0,0c0,0,0,0,0,0c0,0,0,0,0,0c0,0,0,0,0,0
						c0,0,0,0,0,0c0,0,0,0,0,0.1L10.4,28.7z"/>
				</g>
				<path class="st9" d="M10,28.7C10,28.7,10.1,28.7,10,28.7c0.1,0.1,0.1,0.1,0.2,0.2l-2.6,1.8L7,31.1c-0.1,0.1-0.3,0.2-0.4,0.3
					c-0.1,0.1-0.3,0.1-0.4,0.2c-0.1,0.1-0.3,0.1-0.4,0.1c-0.1,0-0.2,0.1-0.4,0.1c0,0-0.1,0-0.1,0c0,0-0.1,0-0.1,0c0,0,0,0,0,0
					c0,0,0,0,0,0c0,0-0.1,0-0.1,0c0,0-0.1,0-0.1,0c-0.1,0-0.1,0-0.1,0c0,0-0.1,0-0.1-0.1c0,0-0.1-0.1-0.1-0.1c0,0-0.1-0.1-0.1-0.1
					L7,29.8l0.5-0.4c0.1-0.1,0.3-0.2,0.4-0.3C8.1,29,8.3,29,8.4,28.9c0.1-0.1,0.3-0.1,0.4-0.2c0.1,0,0.3-0.1,0.4-0.1
					c0.1,0,0.1,0,0.2,0c0.1,0,0.1,0,0.1,0c0,0,0.1,0,0.1,0c0,0,0.1,0,0.1,0c0,0,0.1,0,0.1,0C9.9,28.6,10,28.7,10,28.7z"/>
				<path class="st8" d="M20.4,40.8c-0.1,0-0.2,0-0.3,0c0,0-0.1,0-0.1,0c-0.1,0-0.1,0-0.2,0c0,0-0.1,0-0.1,0c-0.1,0-0.2,0-0.2,0
					c0,0,0,0-0.1,0c-0.1,0-0.2,0-0.3,0c0,0-0.1,0-0.1,0c-0.1,0-0.2,0-0.2,0c0,0-0.1,0-0.1,0c-0.1,0-0.1,0-0.2,0c0,0-0.1,0-0.1,0
					c0,0,0,0,0,0c0,0-0.1,0-0.1,0c-0.1,0-0.2,0-0.3,0c0,0-0.1,0-0.1,0c-0.1,0-0.2,0-0.3,0c0,0-0.1,0-0.1,0c-0.1,0-0.2,0-0.3,0
					c0,0-0.1,0-0.1,0c-0.1,0-0.3,0-0.4-0.1c0,0-0.1,0-0.1,0c-0.1,0-0.2,0-0.3-0.1c0,0,0,0,0,0c0,0-0.1,0-0.1,0c-0.1,0-0.2,0-0.3-0.1
					c0,0-0.1,0-0.1,0c-0.1,0-0.2,0-0.3-0.1c0,0-0.1,0-0.1,0c-0.1,0-0.3-0.1-0.4-0.1c-0.1,0-0.3-0.1-0.4-0.1
					c-0.5-0.2-1.1-0.4-1.6-0.6c-0.5-0.2-1.1-0.5-1.6-0.8c-0.5-0.3-1.1-0.7-1.6-1.1c0,0,0,0,0,0c-0.6-0.5-1.1-0.9-1.7-1.5
					c-0.7-0.7-1.4-1.5-2-2.3c-0.2-0.2-0.3-0.5-0.5-0.8c-1.2-1.8-2.1-3.9-2.7-6.2c-0.3-1.1-0.5-2.3-0.6-3.4c-0.1-0.6-0.1-1.1-0.1-1.7
					c0-0.6,0-1.1,0-1.7c0-0.6,0.1-1.1,0.2-1.7c0.1-0.5,0.2-1,0.3-1.5c0.1-0.3,0.1-0.5,0.2-0.8c0.2-0.8,0.5-1.5,0.7-2.1l-0.3,0.2
					c-0.2,0.6-0.5,1.4-0.7,2.1c-0.1,0.3-0.1,0.5-0.2,0.8c-0.1,0.5-0.2,1-0.3,1.5C2,19.2,2,19.8,1.9,20.4c0,0.5-0.1,1.1,0,1.7
					c0,0.5,0,1.1,0.1,1.7c0.1,1.1,0.3,2.3,0.6,3.4c0.6,2.3,1.5,4.4,2.7,6.2c0.2,0.3,0.3,0.5,0.5,0.8c0.6,0.8,1.3,1.6,2,2.3
					c0.5,0.5,1.1,1,1.7,1.5c0,0,0,0,0,0c0.5,0.4,1,0.8,1.6,1.1c0.5,0.3,1,0.6,1.6,0.8c0.5,0.2,1,0.4,1.6,0.6c0.1,0,0.3,0.1,0.4,0.1
					c0.1,0,0.3,0.1,0.4,0.1c0,0,0.1,0,0.1,0c0.1,0,0.2,0,0.3,0.1c0,0,0.1,0,0.1,0c0.1,0,0.2,0,0.3,0.1c0,0,0.1,0,0.1,0c0,0,0,0,0,0
					c0.1,0,0.2,0,0.3,0.1c0,0,0.1,0,0.1,0c0.1,0,0.3,0,0.4,0.1c0,0,0.1,0,0.1,0c0.1,0,0.2,0,0.3,0c0,0,0.1,0,0.1,0
					c0.1,0,0.2,0,0.3,0c0,0,0.1,0,0.1,0c0.1,0,0.2,0,0.3,0c0,0,0.1,0,0.1,0c0,0,0,0,0,0c0.1,0,0.1,0,0.1,0c0.1,0,0.1,0,0.2,0
					c0,0,0.1,0,0.1,0c0.1,0,0.2,0,0.2,0c0,0,0.1,0,0.1,0c0.1,0,0.2,0,0.3,0c0,0,0,0,0.1,0c0.1,0,0.2,0,0.2,0c0,0,0.1,0,0.1,0
					c0.1,0,0.2,0,0.2,0c0,0,0.1,0,0.1,0c0.1,0,0.2,0,0.3,0c0,0,0.2,0,0.2,0c0,0,0,0,0,0c0,0,0,0,0,0l0.3-0.2c0,0,0,0,0,0
					c0,0,0,0,0,0C20.6,40.7,20.4,40.8,20.4,40.8z"/>
				
					<radialGradient id="SVGID_6_" cx="-1780.2098" cy="232.1612" r="79.8473" gradientTransform="matrix(0.4491 0 0 -0.4491 813.6098 146.3494)" gradientUnits="userSpaceOnUse">
					<stop  offset="0" style="stop-color:#E19526"/>
					<stop  offset="0.1424" style="stop-color:#E49925"/>
					<stop  offset="0.3045" style="stop-color:#EDA524"/>
					<stop  offset="0.456" style="stop-color:#FCB721"/>
					<stop  offset="0.5158" style="stop-color:#FBB726;stop-opacity:0.9506"/>
					<stop  offset="0.5703" style="stop-color:#F7B734;stop-opacity:0.9055"/>
					<stop  offset="0.6228" style="stop-color:#F2B747;stop-opacity:0.8621"/>
					<stop  offset="0.6737" style="stop-color:#EBB95F;stop-opacity:0.8199"/>
					<stop  offset="0.6978" style="stop-color:#E7B96C;stop-opacity:0.8"/>
					<stop  offset="0.7702" style="stop-color:#E8B969;stop-opacity:0.8479"/>
					<stop  offset="0.8393" style="stop-color:#EBB95F;stop-opacity:0.8937"/>
					<stop  offset="0.9071" style="stop-color:#F0B84E;stop-opacity:0.9385"/>
					<stop  offset="0.9737" style="stop-color:#F8B732;stop-opacity:0.9826"/>
					<stop  offset="1" style="stop-color:#FCB721"/>
				</radialGradient>
				<path class="st10" d="M19.8,41c0.1,0,0.2,0,0.3,0c0,0,0.2,0,0.2,0c0,0,0,0-0.1,0c-0.1,0-0.1,0.1-0.2,0.1c-0.1,0-0.1,0.1-0.2,0.1
					c-1,0.3-1.9,0.4-2,0.4c-0.1,0-0.2,0-0.3,0c0,0-0.1,0-0.1,0c-0.1,0-0.2,0-0.2,0c0,0-0.1,0-0.1,0c-0.1,0-0.2,0-0.3,0
					c-0.1,0-0.2,0-0.3,0c0,0-0.1,0-0.1,0c-0.1,0-0.1,0-0.2,0c0,0-0.1,0-0.1,0c-0.1,0-0.2,0-0.3,0c-0.1,0-0.3,0-0.4,0
					c0,0-0.1,0-0.1,0c-0.1,0-0.2,0-0.3,0c0,0-0.1,0-0.1,0c-0.1,0-0.2,0-0.3,0c0,0-0.1,0-0.1,0c-0.1,0-0.2,0-0.3-0.1
					c-0.2,0-0.3,0-0.4-0.1c0,0-0.1,0-0.1,0c-0.1,0-0.2,0-0.3-0.1c0,0-0.1,0-0.1,0c-0.1,0-0.2,0-0.3-0.1c0,0-0.1,0-0.1,0
					c-0.1,0-0.3-0.1-0.4-0.1c-1.7-0.5-3.4-1.4-4.9-2.6c-1.5-1.2-2.8-2.7-3.9-4.4c-1.1-1.7-1.9-3.7-2.4-5.8c-0.3-1.1-0.4-2.1-0.5-3.2
					c0-0.1,0-0.3,0-0.4c0,0,0-0.1,0-0.1c0-0.1,0-0.2,0-0.3c0-0.1,0-0.1,0-0.2c0-0.1,0-0.2,0-0.3c0-0.1,0-0.1,0-0.2
					c0-0.1,0-0.2,0-0.2c0-0.1,0-0.2,0-0.3c0-0.2,0-0.4,0-0.6c0,0,0-0.1,0-0.1c0-0.2,0-0.3,0-0.5c0.1-1,0.3-2.9,0.9-4.3
					c0.8-2.2,1.5-3.4,1.6-3.5c-0.3,0.9-0.7,1.9-0.9,3c-0.2,1-0.4,2.1-0.5,3.2c-0.1,1.1-0.1,2.2,0,3.3c0.1,1.1,0.3,2.3,0.6,3.4
					c0.6,2.3,1.5,4.4,2.7,6.2c1.2,1.8,2.6,3.4,4.2,4.6c1.6,1.2,3.3,2.1,5.2,2.7c0.1,0,0.3,0.1,0.4,0.1c0,0,0.1,0,0.1,0
					c0.1,0,0.2,0,0.3,0.1c0,0,0.1,0,0.1,0c0.1,0,0.2,0,0.3,0.1c0,0,0.1,0,0.1,0c0.1,0,0.2,0,0.3,0.1c0,0,0.1,0,0.1,0
					c0.1,0,0.3,0,0.4,0.1c0,0,0.1,0,0.1,0c0.1,0,0.2,0,0.3,0c0,0,0.1,0,0.1,0c0.1,0,0.2,0,0.3,0c0,0,0.1,0,0.1,0c0.1,0,0.2,0,0.3,0
					c0,0,0.1,0,0.1,0c0.1,0,0.1,0,0.1,0c0.1,0,0.1,0,0.2,0c0,0,0.1,0,0.1,0c0.1,0,0.2,0,0.2,0c0,0,0.1,0,0.1,0c0.1,0,0.2,0,0.3,0
					c0,0,0,0,0.1,0c0.1,0,0.2,0,0.2,0c0,0,0.1,0,0.1,0c0.1,0,0.2,0,0.2,0C19.7,41,19.8,41,19.8,41z"/>
			</g>
			<g>
				
					<radialGradient id="SVGID_7_" cx="341.8364" cy="220.7561" r="41.0065" gradientTransform="matrix(0.9331 0 0 -0.9331 -290.5479 248.0736)" gradientUnits="userSpaceOnUse">
					<stop  offset="0" style="stop-color:#4C4F53"/>
					<stop  offset="0.1155" style="stop-color:#4F5255"/>
					<stop  offset="0.2472" style="stop-color:#585B5E"/>
					<stop  offset="0.3862" style="stop-color:#67696D"/>
					<stop  offset="0.456" style="stop-color:#717377"/>
					<stop  offset="0.5278" style="stop-color:#75767A"/>
					<stop  offset="0.5932" style="stop-color:#7F7F83"/>
					<stop  offset="0.656" style="stop-color:#919093"/>
					<stop  offset="0.6978" style="stop-color:#A4A2A5"/>
					<stop  offset="0.7651" style="stop-color:#9E9D9F"/>
					<stop  offset="0.8293" style="stop-color:#919092"/>
					<stop  offset="0.8922" style="stop-color:#7C7C7F"/>
					<stop  offset="0.9541" style="stop-color:#626467"/>
					<stop  offset="1" style="stop-color:#4C4F53"/>
				</radialGradient>
				<path class="st11" d="M14.7,1.7c-7.2,3.8-1.7,11,4.7,19.2c9.5,12.3,14.7,18.9,8,21.5c-1.1,0.4-2.2,0.6-2.8,0.8
					C30.9,41,27,35.7,20.1,27C11.2,15.8,5.3,6.2,11.9,2.7C12.7,2.2,13.6,1.9,14.7,1.7"/>
				
					<radialGradient id="SVGID_8_" cx="446.4596" cy="698.4583" r="40.984" gradientTransform="matrix(0.9102 -0.2051 -0.2058 -0.9132 -229.8373 769.434)" gradientUnits="userSpaceOnUse">
					<stop  offset="0" style="stop-color:#4C4F53;stop-opacity:0.85"/>
					<stop  offset="0.1155" style="stop-color:#4F5255;stop-opacity:0.888"/>
					<stop  offset="0.2472" style="stop-color:#585B5E;stop-opacity:0.9313"/>
					<stop  offset="0.3862" style="stop-color:#67696D;stop-opacity:0.977"/>
					<stop  offset="0.456" style="stop-color:#717377"/>
					<stop  offset="0.5278" style="stop-color:#75767A"/>
					<stop  offset="0.5932" style="stop-color:#7F7F83"/>
					<stop  offset="0.656" style="stop-color:#919093"/>
					<stop  offset="0.6978" style="stop-color:#A4A2A5"/>
					<stop  offset="0.7651" style="stop-color:#9E9D9F"/>
					<stop  offset="0.8293" style="stop-color:#919092"/>
					<stop  offset="0.8922" style="stop-color:#7C7C7F"/>
					<stop  offset="0.9541" style="stop-color:#626467"/>
					<stop  offset="1" style="stop-color:#4C4F53"/>
				</radialGradient>
				<path class="st12" d="M14.8,1.7c-7.6,3.4-0.4,9.1,7.9,15.7c12.1,9.6,17.8,15,13.2,19.9c-1.1,1.2-1.8,1.6-2.2,1.9
					c4.8-4.9-0.5-9.3-12.7-19.3C12.5,13,5.8,6,12.2,2.7C12.9,2.3,13.7,1.9,14.8,1.7"/>
				
					<radialGradient id="SVGID_9_" cx="341.8272" cy="220.7569" r="40.9783" gradientTransform="matrix(0.9331 0 0 -0.9331 -290.5479 248.0736)" gradientUnits="userSpaceOnUse">
					<stop  offset="0" style="stop-color:#4C4F53"/>
					<stop  offset="0.1155" style="stop-color:#4F5255"/>
					<stop  offset="0.2472" style="stop-color:#585B5E"/>
					<stop  offset="0.3862" style="stop-color:#67696D"/>
					<stop  offset="0.456" style="stop-color:#717377"/>
					<stop  offset="0.5278" style="stop-color:#75767A"/>
					<stop  offset="0.5932" style="stop-color:#7F7F83"/>
					<stop  offset="0.656" style="stop-color:#919093"/>
					<stop  offset="0.6978" style="stop-color:#A4A2A5"/>
					<stop  offset="0.7651" style="stop-color:#9E9D9F"/>
					<stop  offset="0.8293" style="stop-color:#919092"/>
					<stop  offset="0.8922" style="stop-color:#7C7C7F"/>
					<stop  offset="0.9541" style="stop-color:#626467"/>
					<stop  offset="1" style="stop-color:#4C4F53"/>
				</radialGradient>
				<path class="st13" d="M24.3,1.1c-8.6-0.9-3.3,5.8-1.3,8.3c3.1,4,6.7,7.6,9.7,11.6c1.1,1.5,2.7,3.8,3.9,6.2
					c2.5,5.5,1.1,8.1-0.7,10.1c-0.6,0.7-0.7,0.7-0.7,0.7c-0.8,0.7-1.8,1.4-1.8,1.4c4.6-4.3,2.8-10.1-7.6-22.6c-6.6-8-12.8-16-4-16.1
					C22.5,0.7,23.5,1,24.3,1.1"/>
			</g>
		</g>
	</g>
	<g id="entrepreneurs_1_">
		<path class="st9" d="M53.8,16.4c-1.5,0-2.7,0-3.5-1.3c-0.4-0.7-0.5-1.7-0.5-3.5c0-1.8-0.1-3.2,0.8-4.1c0.9-0.9,2.8-1,4.6-1
			c2,0,3.2,0,4,0.7c0.9,0.8,1,2.2,1,3.3c0,0.6,0,1.3-0.6,1.8c-0.3,0.3-0.6,0.3-1,0.3h-5.3c0,0.3,0,0.6,0.2,0.8
			c0.3,0.5,1,0.5,1.6,0.5H60v2.6L53.8,16.4L53.8,16.4z M56.1,10.2c0.5,0,0.6-0.3,0.6-0.5c0-0.3-0.1-0.6-0.7-0.7
			C55.8,9,55.3,9,55.1,9c-0.4,0-1,0-1.2,0.2c-0.4,0.2-0.4,0.6-0.4,1.1H56.1z"/>
		<path class="st9" d="M61.7,8.4c0-0.4,0-0.8,0.4-1.2c0.5-0.6,1.5-0.6,2.1-0.6h3.4c1.1,0,2.3,0.1,3.3,0.9c1.1,0.9,1.2,2,1.2,2.9v6
			h-3.6v-4.9c0-0.7-0.1-1.2-0.4-1.7c-0.3-0.4-0.8-0.6-1.5-0.6H66c-0.1,0-0.3,0-0.5,0.1c-0.2,0.2-0.2,0.4-0.2,0.6v6.5h-3.6L61.7,8.4
			L61.7,8.4z"/>
		<path class="st9" d="M78.8,16.4c-0.7,0-2,0-3-0.7c-0.8-0.6-1.2-1.5-1.2-2.4V9.1h-1.4V6.6h1.4V3.5h3.6v3.1h2.8v2.5h-2.8v2.2
			c0,0.7,0.1,1.5,0.6,1.9c0.5,0.4,1.1,0.5,1.6,0.5h0.5v2.6L78.8,16.4L78.8,16.4z"/>
		<path class="st9" d="M82,10.7c0-0.9,0.1-2.3,1.2-3.2c1.1-0.9,2.6-0.9,3.6-0.9h2.4v2.5h-1.2c-0.7,0-1.4,0.1-1.8,0.7
			c-0.4,0.6-0.5,1.3-0.5,1.9v4.6H82V10.7z"/>
		<path class="st9" d="M94,16.4c-1.5,0-2.7,0-3.5-1.3c-0.4-0.7-0.5-1.7-0.5-3.5c0-1.8-0.1-3.2,0.8-4.1c0.9-0.9,2.8-1,4.6-1
			c2,0,3.2,0,4,0.7c0.9,0.8,1,2.2,1,3.3c0,0.6,0,1.3-0.6,1.8c-0.3,0.3-0.6,0.3-1,0.3h-5.3c0,0.3,0,0.6,0.2,0.8
			c0.3,0.5,1,0.5,1.6,0.5h4.7v2.6L94,16.4L94,16.4z M96.3,10.2c0.5,0,0.6-0.3,0.6-0.5c0-0.3-0.1-0.6-0.7-0.7C95.9,9,95.4,9,95.3,9
			c-0.4,0-1,0-1.2,0.2c-0.4,0.2-0.4,0.6-0.4,1.1H96.3z"/>
		<path class="st9" d="M105.5,19.5h-3.6v-11c0-0.6,0.1-1.1,0.7-1.5c0.4-0.3,0.9-0.3,1.4-0.3h4.5c0.6,0,1.9,0.1,2.8,1
			c1,1,1,2.6,1,3.6c0,0.8,0,2.7-0.8,3.8c-0.9,1.2-2.4,1.3-3.4,1.3h-2.7V19.5z M107.1,13.7c0.8,0,1.2-0.4,1.3-0.8
			c0.2-0.4,0.2-0.9,0.2-1.5c0-0.6,0-1-0.2-1.4c-0.3-0.8-1.1-0.8-1.3-0.8h-1.3c-0.1,0-0.2,0.1-0.3,0.1c-0.1,0.1-0.1,0.2-0.1,0.3v4.1
			L107.1,13.7L107.1,13.7z"/>
		<path class="st9" d="M113.8,10.7c0-0.9,0.1-2.3,1.2-3.2c1.1-0.9,2.6-0.9,3.6-0.9h2.4v2.5h-1.2c-0.7,0-1.4,0.1-1.8,0.7
			c-0.4,0.6-0.5,1.3-0.5,1.9v4.6h-3.6V10.7z"/>
		<path class="st9" d="M125.7,16.4c-1.5,0-2.7,0-3.5-1.3c-0.4-0.7-0.5-1.7-0.5-3.5c0-1.8-0.1-3.2,0.8-4.1c0.9-0.9,2.8-1,4.6-1
			c2,0,3.2,0,4,0.7c0.9,0.8,1,2.2,1,3.3c0,0.6,0,1.3-0.6,1.8c-0.3,0.3-0.6,0.3-1,0.3h-5.3c0,0.3,0,0.6,0.2,0.8
			c0.3,0.5,1,0.5,1.6,0.5h4.7v2.6L125.7,16.4L125.7,16.4z M128,10.2c0.5,0,0.6-0.3,0.6-0.5c0-0.3-0.1-0.6-0.7-0.7
			C127.7,9,127.2,9,127,9c-0.4,0-1,0-1.2,0.2c-0.4,0.2-0.4,0.6-0.4,1.1H128z"/>
		<path class="st9" d="M133.7,8.4c0-0.4,0-0.8,0.4-1.2c0.5-0.6,1.5-0.6,2.1-0.6h3.4c1.1,0,2.3,0.1,3.3,0.9c1.1,0.9,1.2,2,1.2,2.9v6
			h-3.6v-4.9c0-0.7-0.1-1.2-0.4-1.7c-0.3-0.4-0.8-0.6-1.5-0.6h-0.6c-0.1,0-0.3,0-0.5,0.1c-0.2,0.2-0.2,0.4-0.2,0.6v6.5h-3.6
			L133.7,8.4L133.7,8.4z"/>
		<path class="st9" d="M149.4,16.4c-1.5,0-2.7,0-3.5-1.3c-0.4-0.7-0.5-1.7-0.5-3.5c0-1.8-0.1-3.2,0.8-4.1c0.9-0.9,2.8-1,4.6-1
			c2,0,3.2,0,4,0.7c0.9,0.8,1,2.2,1,3.3c0,0.6,0,1.3-0.6,1.8c-0.3,0.3-0.6,0.3-1,0.3h-5.3c0,0.3,0,0.6,0.2,0.8
			c0.3,0.5,1,0.5,1.6,0.5h4.7v2.6L149.4,16.4L149.4,16.4z M151.7,10.2c0.5,0,0.6-0.3,0.6-0.5c0-0.3-0.1-0.6-0.7-0.7
			c-0.3-0.1-0.8-0.1-1-0.1c-0.4,0-1,0-1.2,0.2c-0.4,0.2-0.4,0.6-0.4,1.1H151.7z"/>
		<path class="st9" d="M161,6.6v4.8c0,0.9,0.1,1.4,0.3,1.7c0.4,0.6,1.1,0.6,1.5,0.6h0.7c0.3,0,0.5-0.1,0.6-0.2
			c0.2-0.2,0.2-0.4,0.2-0.6V6.6h3.6v7.7c0,0.6-0.1,1.1-0.6,1.5c-0.5,0.4-1.2,0.4-1.6,0.4h-4.4c-1.4,0-2.2-0.4-2.7-0.8
			c-1-0.8-1.2-2.1-1.2-3.6V6.6L161,6.6L161,6.6z"/>
		<path class="st9" d="M169.5,10.7c0-0.9,0.1-2.3,1.2-3.2c1.1-0.9,2.6-0.9,3.6-0.9h2.4v2.5h-1.2c-0.7,0-1.4,0.1-1.8,0.7
			c-0.4,0.6-0.5,1.3-0.5,1.9v4.6h-3.6L169.5,10.7L169.5,10.7z"/>
		<path class="st9" d="M177.7,13.7h5.3c0.1,0,0.2,0,0.2-0.1c0.1,0,0.1-0.1,0.1-0.2c0-0.1-0.1-0.2-0.2-0.2c-0.1-0.1-0.3-0.1-1.1-0.4
			l-2.1-0.7c-0.9-0.3-1.6-0.7-2-1.3c-0.3-0.5-0.4-1.2-0.4-1.6c0-0.6,0.1-1.2,0.5-1.7c0.5-0.8,1.2-0.9,2.3-0.9h6.5v2.5h-5.3
			c-0.1,0-0.3,0-0.4,0c-0.1,0-0.2,0-0.2,0.2c0,0.1,0.1,0.2,0.2,0.2c0.4,0.1,0.3,0.1,0.7,0.3l2.5,0.8c1,0.3,1.8,0.6,2.2,1.3
			c0.5,0.7,0.5,1.5,0.5,1.9c0,0.7-0.1,1.5-0.8,2.1c-0.5,0.4-1.1,0.5-1.6,0.5h-7L177.7,13.7L177.7,13.7z"/>
	</g>
	<g id="_x26__1_">
		<path class="st14" d="M196.8,15.3c0,0.5-0.1,0.7-0.2,0.8c-0.2,0.3-0.7,0.2-0.9,0.2h-3c-0.6,0-1.3,0-1.9-0.7
			c-0.5-0.6-0.5-1.4-0.5-2c0-0.6,0-1.2,0.3-1.6c0.2-0.3,0.6-0.6,1.1-0.7v0c-0.2,0-0.7-0.1-1-0.6c-0.3-0.5-0.4-1.2-0.4-1.7
			c0-0.6,0.1-1.5,0.6-2c0.3-0.3,0.9-0.6,1.7-0.6h4.2v0.7h-4.1c-0.4,0-0.9,0-1.2,0.3c-0.4,0.4-0.4,1.2-0.4,1.6c0,0.4,0,1.2,0.4,1.6
			c0.3,0.3,0.9,0.5,1.5,0.5h5.4v0.7h-1.7L196.8,15.3L196.8,15.3z M196,15.7c0.1-0.1,0.1-0.3,0.1-0.4v-3.4h-3.6
			c-0.8,0-1.1,0.4-1.2,0.6c-0.2,0.3-0.2,0.8-0.2,1.4c0,0.5,0,1,0.2,1.3c0.4,0.5,0.9,0.6,1.4,0.6h2.7C195.7,15.8,195.9,15.8,196,15.7
			z"/>
	</g>
	<g id="shopping_1_">
		<path class="st9" d="M50,33.1h5.3c0.1,0,0.2,0,0.2-0.1c0.1,0,0.1-0.1,0.1-0.2c0-0.1-0.1-0.2-0.2-0.2c-0.1-0.1-0.3-0.1-1.1-0.4
			l-2.1-0.7c-0.9-0.3-1.6-0.7-2-1.3c-0.3-0.5-0.4-1.2-0.4-1.6c0-0.6,0.1-1.2,0.5-1.7c0.5-0.8,1.2-0.9,2.3-0.9h6.5v2.5h-5.3
			c-0.1,0-0.3,0-0.4,0c-0.1,0-0.2,0-0.2,0.2c0,0.1,0.1,0.2,0.2,0.2c0.4,0.1,0.3,0.1,0.7,0.3l2.5,0.8c1,0.3,1.8,0.6,2.2,1.3
			c0.5,0.7,0.5,1.5,0.5,1.9c0,0.7-0.1,1.5-0.8,2.1c-0.5,0.4-1.1,0.5-1.6,0.5h-7L50,33.1L50,33.1z"/>
		<path class="st9" d="M60.2,22.8h3.6V26H66c1.1,0,2.3,0,3.3,0.7c0.9,0.7,1.3,1.7,1.3,2.7v6.4H67v-5c0-0.5,0-1.1-0.6-1.7
			c-0.4-0.5-1-0.6-1.5-0.6h-1.1v7.2h-3.6V22.8z"/>
		<path class="st9" d="M81.4,26.8c1.2,1.1,1.3,3,1.3,4s-0.1,2.9-1.3,4c-1.1,0.9-2.8,1-4.3,1c-1.5,0-3.3-0.1-4.3-1
			c-1.2-1.1-1.3-3-1.3-4s0.1-2.9,1.3-4c1.1-0.9,2.8-1,4.3-1C78.6,25.8,80.4,25.9,81.4,26.8z M75.5,32.5c0.1,0.1,0.5,0.7,1.6,0.7
			c1,0,1.4-0.4,1.6-0.7c0.3-0.4,0.4-1,0.4-1.7c0-1-0.2-1.5-0.3-1.7c-0.2-0.2-0.6-0.6-1.6-0.6c-1,0-1.4,0.4-1.6,0.6
			c-0.1,0.2-0.3,0.6-0.3,1.7C75.1,31.9,75.3,32.3,75.5,32.5z"/>
		<path class="st9" d="M87.2,38.8h-3.6v-11c0-0.6,0.1-1.1,0.7-1.5c0.4-0.3,0.9-0.3,1.4-0.3h4.5c0.6,0,1.9,0.1,2.8,1c1,1,1,2.6,1,3.6
			c0,0.8,0,2.7-0.8,3.8c-0.9,1.2-2.4,1.3-3.4,1.3h-2.7V38.8z M88.8,33.1c0.8,0,1.2-0.4,1.3-0.8c0.2-0.4,0.2-0.9,0.2-1.5
			c0-0.6,0-1-0.2-1.4c-0.3-0.8-1.1-0.8-1.3-0.8h-1.3c-0.1,0-0.2,0.1-0.3,0.1c-0.1,0.1-0.1,0.2-0.1,0.3v4.1L88.8,33.1L88.8,33.1z"/>
		<path class="st9" d="M98.5,38.8h-3.6v-11c0-0.6,0.1-1.1,0.7-1.5C96,26,96.5,26,96.9,26h4.5c0.6,0,1.9,0.1,2.8,1c1,1,1,2.6,1,3.6
			c0,0.8,0,2.7-0.8,3.8c-0.9,1.2-2.4,1.3-3.4,1.3h-2.7V38.8z M100.1,33.1c0.8,0,1.2-0.4,1.3-0.8c0.2-0.4,0.2-0.9,0.2-1.5
			c0-0.6,0-1-0.2-1.4c-0.3-0.8-1.1-0.8-1.3-0.8h-1.3c-0.1,0-0.2,0.1-0.3,0.1c-0.1,0.1-0.1,0.2-0.1,0.3v4.1L100.1,33.1L100.1,33.1z"
			/>
		<path class="st9" d="M106.2,25v-2.1h3.6V25H106.2z M106.2,26h3.6v9.7h-3.6V26z"/>
		<path class="st9" d="M110.9,27.7c0-0.4,0-0.8,0.4-1.2c0.5-0.6,1.5-0.6,2.1-0.6h3.4c1.1,0,2.3,0.1,3.3,0.9c1.1,0.9,1.2,2,1.2,2.9v6
			h-3.6v-4.9c0-0.7-0.1-1.2-0.4-1.7c-0.3-0.4-0.8-0.6-1.5-0.6h-0.6c-0.1,0-0.3,0-0.5,0.1c-0.2,0.2-0.2,0.4-0.2,0.6v6.5h-3.6
			L110.9,27.7L110.9,27.7z"/>
		<path class="st9" d="M122.8,36.6h4.3c0.4,0,1,0,1.3-0.3c0.2-0.2,0.4-0.4,0.4-0.7h-3.1c-1,0-2.1-0.1-2.9-1.2
			c-0.5-0.8-0.8-2-0.8-3.7c0-1.9,0.3-2.8,1-3.7c0.7-0.9,1.6-1.2,3.1-1.2h4c0.6,0,1.2,0,1.7,0.4c0.5,0.4,0.6,1,0.6,1.5v6.7
			c0,1.3-0.1,2.3-0.8,3.1c-0.7,0.9-2,1.3-3.5,1.3h-5.5C122.8,39,122.8,36.6,122.8,36.6z M128.9,29.3c0-0.3,0-0.5-0.3-0.6
			c-0.2-0.1-0.4-0.1-0.6-0.1h-0.4c-0.5,0-1.1,0-1.5,0.5c-0.2,0.2-0.4,0.6-0.4,1.8c0,0.9,0.1,1.4,0.4,1.7c0.5,0.5,1.1,0.5,1.7,0.5h1
			L128.9,29.3L128.9,29.3z"/>
	</g>
	<g id="network_1_">
		<path class="st14" d="M133.6,27.2c0-0.3,0-0.6,0.2-0.9c0.3-0.3,0.7-0.4,1-0.4h3.8c1,0,1.8,0.1,2.5,0.7c0.3,0.3,0.8,0.9,0.8,2.3
			v6.8h-1v-6.5c0-0.8-0.1-1.3-0.5-1.7c-0.4-0.5-1-0.6-1.7-0.6h-3.7c-0.1,0-0.2,0-0.3,0.1c-0.1,0.1-0.1,0.2-0.1,0.3v8.5h-1
			L133.6,27.2L133.6,27.2z"/>
		<path class="st14" d="M147.1,35.7c-0.9,0-2-0.2-2.8-1.2c-0.8-1-0.9-2.2-0.9-3.6c0-1.4,0.1-3,1.4-4c1-0.7,2.3-0.9,3.3-0.9
			c0.7,0,1.8,0.1,2.7,0.6c0.4,0.2,1.7,1,1.7,3.1c0,0.3,0,0.9-0.4,1.3c-0.3,0.3-0.8,0.3-1.1,0.3h-6.4c0,0.6,0,1.5,0.2,2
			c0.2,0.8,1,1.7,2.4,1.7h5.2v0.9C152.3,35.7,147.1,35.7,147.1,35.7z M151,30.3c0.5,0,0.4-0.5,0.4-0.6c0-1-0.4-1.6-0.7-2
			c-0.8-0.8-1.8-0.8-2.7-0.8c-1.1,0-2.2,0-2.9,1.2c-0.4,0.6-0.5,1.3-0.5,2.3C144.6,30.3,151,30.3,151,30.3z"/>
		<path class="st14" d="M158.1,35.7c-0.9,0-1.9,0-2.6-0.6c-0.7-0.6-0.7-1.5-0.7-2.7v-5.6h-1.5V26h1.5v-3.1h1V26h2.9v0.9h-2.9v5.4
			c0,0.8-0.1,1.9,0.6,2.4c0.2,0.1,0.7,0.2,1.9,0.2h0.6v0.9L158.1,35.7L158.1,35.7z"/>
		<path class="st14" d="M161.9,34.5c0,0.1,0.1,0.3,0.2,0.3c0.1,0,0.2-0.2,0.2-0.3l2.3-7.9c0.2-0.7,0.6-0.8,1-0.8
			c0.3,0,0.8,0.1,1,0.8l2.3,7.9c0,0.1,0.1,0.3,0.2,0.3c0.1,0,0.2-0.2,0.2-0.3l2.4-8.6h1l-2.6,9c-0.1,0.4-0.4,0.8-1,0.8
			c-0.8,0-1-0.6-1.1-0.8l-2.2-7.6c0-0.1-0.1-0.3-0.2-0.3c-0.1,0-0.1,0.2-0.2,0.3l-2.2,7.6c-0.1,0.3-0.3,0.8-1.1,0.8
			c-0.7,0-0.9-0.4-1-0.8l-2.6-9h1L161.9,34.5z"/>
		<path class="st14" d="M174.3,26.9c1-0.9,2.6-1.1,3.9-1.1c1.3,0,2.9,0.1,3.9,1.1c1.2,1,1.3,2.8,1.3,3.9c0,2.1-0.6,3.3-1.3,3.9
			c-1.2,1-3,1.1-3.9,1.1c-0.9,0-2.8-0.1-3.9-1.1c-0.7-0.6-1.3-1.8-1.3-3.9C173,29.7,173.2,28,174.3,26.9z M175,34
			c0.8,0.8,2.2,0.9,3.3,0.9c1.1,0,2.4-0.1,3.3-0.9c0.9-0.9,0.9-2.4,0.9-3.1c0-0.8,0-2.4-0.8-3.2c-0.8-0.8-2.3-0.9-3.3-0.9
			c-1,0-2.5,0.1-3.3,0.9c-0.8,0.9-0.8,2.4-0.8,3.2C174.1,31.6,174.1,33.1,175,34z"/>
		<path class="st14" d="M185,29.3c0-1,0.1-1.9,0.9-2.6c0.4-0.4,1.2-0.8,2.6-0.8h0.7v0.9h-0.6c-0.6,0-1.5,0.1-2,0.7
			c-0.4,0.5-0.5,1.2-0.5,2v6.2h-1V29.3z"/>
		<path class="st14" d="M190.1,35.7V22.8h1v12.8H190.1z M197,35.7l-4.3-3.6c-0.2-0.2-0.8-0.7-0.8-1.4c0-0.5,0.3-0.9,0.8-1.4l3.8-3.3
			h1.4l-4.6,4c-0.3,0.3-0.4,0.5-0.4,0.7c0,0.3,0.3,0.7,0.6,0.9l4.9,4.1H197z"/>
	</g>
</g>
</svg>
