<?xml version="1.0" encoding="utf-8"?>
<!-- Generator: Adobe Illustrator 22.0.1, SVG Export Plug-In . SVG Version: 6.00 Build 0)  -->
<svg version="1.1" id="LOGO_x27_S" xmlns="http://www.w3.org/2000/svg" xmlns:xlink="http://www.w3.org/1999/xlink" x="0px" y="0px"
	 width="198.469px" height="44.471px" viewBox="0 0 198.469 44.471" enable-background="new 0 0 198.469 44.471"
	 xml:space="preserve">
<g id="brand-sadvantage">
</g>
<g id="brand-se_1_">
</g>
<g id="brand-kn_1_">
</g>
<g id="brand-pn_1_">
</g>
<g id="brand-cn_1_">
</g>
<g id="brand-esn_1_">
</g>
<g id="brand-osn_1_">
	<g>
		<path fill="#FFFFFF" d="M26.06,43.226c0.486-0.113,0.964-0.248,1.437-0.393c3.373-2.666-0.529-7.859-6.728-15.672
			C13.287,17.733,7.875,9.428,9.775,4.677C9.308,4.978,8.854,5.295,8.413,5.631c-2.847,5.561,2.45,12.82,10.493,22.656
			C24.155,34.705,28.694,40.698,26.06,43.226z"/>
		<path fill="#FFFFFF" d="M21.605,19.722c-2.57-2.1-4.989-4.213-6.948-6.239c1.491,2.308,3.402,4.784,5.397,7.368
			c8.311,10.761,13.457,17.307,10.644,20.701c2.086-1.04,3.975-2.413,5.601-4.049C37.946,33.208,32.405,28.544,21.605,19.722z"/>
		<path fill="#FFFFFF" d="M20.445,1.329c-1.217,1.892,1.858,5.782,3.293,7.593c3.248,4.105,6.893,7.882,10.062,12.053
			c1.184,1.559,2.837,3.941,3.989,6.443c1.305,2.832,1.601,4.916,1.332,6.55c2.118-3.303,3.362-7.218,3.362-11.433
			c0-11.732-9.51-21.242-21.241-21.242C20.973,1.294,20.711,1.32,20.445,1.329z"/>
		<path fill="#FFFFFF" d="M23.52,43.652c2.904-1.954-1.596-7.194-6.936-13.421C11.23,23.986,3.4,15.071,5.767,7.996
			C2.194,11.797,0,16.907,0,22.536c0,11.731,9.511,21.241,21.242,21.241C22.012,43.777,22.771,43.732,23.52,43.652z"/>
		<path fill="#FFFFFF" d="M23.487,17.149c3.834,3.039,7.045,5.668,9.523,8.002c-1.608-2.456-3.738-5.262-6.431-8.503
			c-5.102-6.139-9.933-12.342-8.307-15.128c-1.983,0.278-3.878,0.824-5.646,1.611c-0.189,0.263-0.351,0.533-0.479,0.812
			C11.222,7.42,17.018,12.02,23.487,17.149z"/>
	</g>
	<g id="ondernemers__x26__2_">
		<g id="ondernemers_2_">
			<g id="ondernemers_4_">
				<path fill="#FFFFFF" d="M61.62,7.224c1.256,1.121,1.331,3.116,1.331,4.122c0,1.007-0.075,3.002-1.331,4.122
					c-1.104,0.969-2.891,1.026-4.489,1.026c-1.598,0-3.386-0.057-4.489-1.026c-1.255-1.121-1.332-3.115-1.332-4.122
					c0-1.007,0.076-3.001,1.332-4.122c1.103-0.969,2.892-1.026,4.489-1.026C58.729,6.198,60.516,6.255,61.62,7.224z M55.476,13.113
					c0.076,0.114,0.514,0.684,1.655,0.684c1.008,0,1.465-0.437,1.636-0.684c0.304-0.418,0.38-1.045,0.38-1.767
					c0-1.064-0.171-1.539-0.362-1.805c-0.19-0.247-0.628-0.646-1.654-0.646c-1.028,0-1.465,0.399-1.655,0.646
					c-0.133,0.19-0.361,0.627-0.361,1.805C55.115,12.448,55.324,12.904,55.476,13.113z"/>
				<path fill="#FFFFFF" d="M64.437,8.117c0-0.38,0.019-0.855,0.418-1.235c0.57-0.57,1.578-0.57,2.206-0.57h3.499
					c1.161,0,2.359,0.076,3.386,0.893c1.123,0.893,1.255,2.109,1.255,2.983v6.193h-3.729v-5.11c0-0.703-0.057-1.273-0.418-1.729
					c-0.322-0.418-0.779-0.608-1.54-0.608H68.85c-0.153,0-0.362,0.019-0.515,0.152c-0.189,0.171-0.171,0.38-0.171,0.57v6.725h-3.727
					V8.117z"/>
				<path fill="#FFFFFF" d="M87.377,3.082v11.17c0,0.437-0.058,1.064-0.324,1.444c-0.437,0.646-1.179,0.684-1.73,0.684h-5.003
					c-1.559,0-2.663-0.684-3.177-1.938c-0.399-0.95-0.457-2.109-0.457-3.344c0-1.235,0.058-2.394,0.742-3.362
					c0.875-1.235,2.302-1.425,3.348-1.425h2.872V3.082H87.377z M82.013,8.896c-0.608,0-0.989,0.304-1.199,0.608
					c-0.361,0.513-0.399,1.254-0.399,1.805c0,0.95,0.095,1.425,0.266,1.748c0.342,0.665,1.008,0.741,1.332,0.741h0.894
					c0.362,0,0.514-0.114,0.551-0.152c0.191-0.171,0.191-0.532,0.191-0.684V8.896H82.013z"/>
				<path fill="#FFFFFF" d="M92.953,16.38c-1.503,0-2.778,0-3.577-1.311c-0.437-0.722-0.513-1.786-0.513-3.609
					c0-1.843-0.095-3.343,0.818-4.274c0.932-0.95,2.853-0.988,4.755-0.988c2.035,0,3.367,0.038,4.165,0.684
					c0.97,0.779,1.084,2.28,1.084,3.381c0,0.646-0.038,1.387-0.609,1.843c-0.323,0.266-0.646,0.285-0.989,0.285h-5.497
					c-0.019,0.266,0.038,0.608,0.171,0.817c0.324,0.513,1.008,0.475,1.674,0.475h4.888v2.698H92.953z M95.349,10.035
					c0.532,0,0.608-0.342,0.608-0.532c0-0.266-0.133-0.57-0.685-0.684c-0.304-0.057-0.799-0.076-0.989-0.076
					c-0.437,0-1.027,0.019-1.294,0.171c-0.38,0.209-0.437,0.608-0.399,1.121H95.349z"/>
				<path fill="#FFFFFF" d="M101.171,10.548c0-0.969,0.075-2.375,1.198-3.287c1.103-0.912,2.739-0.95,3.729-0.95h2.473v2.622h-1.293
					c-0.723,0-1.407,0.095-1.883,0.722c-0.437,0.589-0.495,1.349-0.495,1.919v4.806h-3.728V10.548z"/>
				<path fill="#FFFFFF" d="M109.713,8.117c0-0.38,0.019-0.855,0.418-1.235c0.57-0.57,1.578-0.57,2.206-0.57h3.501
					c1.16,0,2.358,0.076,3.385,0.893c1.123,0.893,1.256,2.109,1.256,2.983v6.193h-3.729v-5.11c0-0.703-0.057-1.273-0.418-1.729
					c-0.323-0.418-0.779-0.608-1.54-0.608h-0.666c-0.152,0-0.362,0.019-0.514,0.152c-0.189,0.171-0.171,0.38-0.171,0.57v6.725
					h-3.728V8.117z"/>
				<path fill="#FFFFFF" d="M126.054,16.38c-1.503,0-2.778,0-3.577-1.311c-0.437-0.722-0.514-1.786-0.514-3.609
					c0-1.843-0.095-3.343,0.818-4.274c0.932-0.95,2.854-0.988,4.755-0.988c2.035,0,3.366,0.038,4.165,0.684
					c0.97,0.779,1.085,2.28,1.085,3.381c0,0.646-0.038,1.387-0.609,1.843c-0.322,0.266-0.646,0.285-0.988,0.285h-5.497
					c-0.019,0.266,0.038,0.608,0.171,0.817c0.324,0.513,1.008,0.475,1.674,0.475h4.888v2.698H126.054z M128.45,10.035
					c0.532,0,0.608-0.342,0.608-0.532c0-0.266-0.133-0.57-0.684-0.684c-0.304-0.057-0.799-0.076-0.99-0.076
					c-0.437,0-1.026,0.019-1.293,0.171c-0.38,0.209-0.437,0.608-0.399,1.121H128.45z"/>
				<path fill="#FFFFFF" d="M134.272,8.117c0-0.304,0.057-0.741,0.361-1.121c0.513-0.646,1.199-0.684,1.998-0.684h8.654
					c1.141,0,2.378,0.304,3.139,1.007c0.703,0.665,1.065,1.786,1.065,2.716v6.345h-3.729v-5.585c0-0.418-0.038-1.045-0.399-1.425
					c-0.209-0.228-0.628-0.437-1.199-0.437h-0.419v7.447h-3.729V8.934h-1.426c-0.323,0-0.437,0.095-0.494,0.152
					c-0.077,0.095-0.096,0.323-0.096,0.513v6.782h-3.727V8.117z"/>
				<path fill="#FFFFFF" d="M155.064,16.38c-1.503,0-2.778,0-3.577-1.311c-0.437-0.722-0.514-1.786-0.514-3.609
					c0-1.843-0.095-3.343,0.818-4.274c0.932-0.95,2.854-0.988,4.755-0.988c2.035,0,3.366,0.038,4.165,0.684
					c0.97,0.779,1.085,2.28,1.085,3.381c0,0.646-0.038,1.387-0.609,1.843c-0.322,0.266-0.646,0.285-0.988,0.285h-5.497
					c-0.019,0.266,0.038,0.608,0.171,0.817c0.324,0.513,1.008,0.475,1.674,0.475h4.888v2.698H155.064z M157.461,10.035
					c0.532,0,0.608-0.342,0.608-0.532c0-0.266-0.133-0.57-0.684-0.684c-0.304-0.057-0.799-0.076-0.99-0.076
					c-0.437,0-1.026,0.019-1.294,0.171c-0.38,0.209-0.437,0.608-0.399,1.121H157.461z"/>
				<path fill="#FFFFFF" d="M163.283,10.548c0-0.969,0.075-2.375,1.198-3.287c1.103-0.912,2.739-0.95,3.728-0.95h2.473v2.622h-1.294
					c-0.722,0-1.407,0.095-1.883,0.722c-0.438,0.589-0.495,1.349-0.495,1.919v4.806h-3.727V10.548z"/>
				<path fill="#FFFFFF" d="M171.71,13.683h5.497c0.057,0,0.171-0.038,0.228-0.076c0.058-0.038,0.096-0.095,0.096-0.19
					c0-0.133-0.096-0.19-0.172-0.228c-0.133-0.076-0.342-0.133-1.141-0.399l-2.168-0.703c-0.913-0.304-1.693-0.703-2.074-1.33
					c-0.286-0.475-0.38-1.197-0.38-1.691c0-0.627,0.114-1.273,0.475-1.805c0.533-0.798,1.294-0.95,2.34-0.95h6.734v2.584h-5.479
					c-0.133,0-0.285-0.019-0.437,0.019c-0.096,0.019-0.171,0.038-0.171,0.171c0,0.152,0.095,0.19,0.209,0.228
					c0.456,0.152,0.323,0.133,0.761,0.285l2.548,0.855c1.066,0.361,1.845,0.665,2.321,1.368c0.475,0.684,0.513,1.501,0.513,1.938
					c0,0.741-0.152,1.596-0.837,2.146c-0.533,0.418-1.141,0.475-1.654,0.475h-7.21V13.683z"/>
			</g>
		</g>
		<g id="_x26__1_">
			<g id="_x26__4_">
				<path fill="#FFFFFF" d="M196.75,15.33c0,0.558-0.103,0.763-0.191,0.866c-0.221,0.264-0.676,0.249-0.926,0.249h-3.057
					c-0.618,0-1.382,0-1.955-0.69c-0.529-0.646-0.559-1.453-0.559-2.114c0-0.617,0.044-1.218,0.324-1.615
					c0.22-0.323,0.647-0.602,1.131-0.69v-0.029c-0.25-0.029-0.691-0.132-1.029-0.616c-0.353-0.5-0.426-1.204-0.426-1.806
					c0-0.573,0.059-1.542,0.618-2.114c0.323-0.338,0.881-0.602,1.749-0.602h4.395v0.69h-4.262c-0.398,0-0.897,0.044-1.235,0.353
					c-0.455,0.425-0.441,1.204-0.441,1.615c0,0.455-0.015,1.204,0.411,1.659c0.324,0.352,0.971,0.528,1.529,0.528h5.644v0.69h-1.72
					V15.33z M195.941,15.667c0.103-0.088,0.103-0.294,0.103-0.397v-3.567h-3.733c-0.779,0-1.117,0.426-1.249,0.661
					c-0.176,0.323-0.176,0.778-0.176,1.424c0,0.47,0,1.013,0.25,1.395c0.367,0.558,0.955,0.572,1.426,0.572h2.822
					C195.559,15.755,195.838,15.77,195.941,15.667z"/>
			</g>
		</g>
	</g>
	<g id="shoppingnetwerk_2_">
		<g id="shopping_1_">
			<g id="shopping_4_">
				<path fill="#FFFFFF" d="M51.424,33.683h5.49c0.057,0,0.171-0.038,0.228-0.076c0.058-0.038,0.096-0.095,0.096-0.19
					c0-0.133-0.096-0.19-0.172-0.228c-0.133-0.076-0.342-0.133-1.14-0.399l-2.165-0.703c-0.912-0.304-1.691-0.703-2.071-1.33
					c-0.285-0.475-0.38-1.197-0.38-1.691c0-0.627,0.114-1.273,0.475-1.805c0.532-0.798,1.292-0.95,2.337-0.95h6.726v2.583h-5.472
					c-0.133,0-0.285-0.019-0.437,0.019c-0.096,0.019-0.171,0.038-0.171,0.171c0,0.152,0.095,0.19,0.209,0.228
					c0.455,0.152,0.322,0.133,0.76,0.285l2.545,0.855c1.064,0.361,1.843,0.665,2.318,1.368c0.475,0.684,0.513,1.501,0.513,1.938
					c0,0.741-0.152,1.596-0.836,2.146c-0.532,0.418-1.14,0.475-1.652,0.475h-7.2V33.683z"/>
				<path fill="#FFFFFF" d="M62.026,23.083h3.723v3.229h2.223c1.141,0,2.337-0.038,3.401,0.741c0.931,0.684,1.387,1.767,1.387,2.754
					v6.573h-3.724v-5.129c0-0.475-0.038-1.178-0.57-1.729c-0.456-0.494-1.025-0.589-1.538-0.589h-1.179v7.447h-3.723V23.083z"/>
				<path fill="#FFFFFF" d="M83.969,27.224c1.254,1.121,1.329,3.116,1.329,4.122c0,1.007-0.075,3.001-1.329,4.122
					c-1.103,0.969-2.888,1.026-4.483,1.026c-1.596,0-3.382-0.057-4.483-1.026c-1.254-1.121-1.33-3.115-1.33-4.122
					c0-1.007,0.076-3.001,1.33-4.122c1.102-0.969,2.888-1.026,4.483-1.026C81.082,26.198,82.867,26.255,83.969,27.224z
					 M77.833,33.113c0.076,0.114,0.514,0.684,1.653,0.684c1.007,0,1.463-0.437,1.634-0.684c0.304-0.418,0.38-1.045,0.38-1.767
					c0-1.064-0.171-1.539-0.361-1.805c-0.189-0.247-0.627-0.646-1.652-0.646c-1.026,0-1.463,0.399-1.653,0.646
					c-0.133,0.19-0.36,0.627-0.36,1.805C77.472,32.448,77.681,32.904,77.833,33.113z"/>
				<path fill="#FFFFFF" d="M89.936,39.61h-3.723V28.23c0-0.57,0.095-1.14,0.684-1.558c0.456-0.323,0.95-0.361,1.425-0.361h4.673
					c0.665,0,1.976,0.076,2.907,1.045c1.007,1.044,1.083,2.716,1.083,3.685c0,0.874-0.038,2.831-0.817,3.952
					c-0.912,1.292-2.432,1.387-3.477,1.387h-2.755V39.61z M91.57,33.683c0.817,0,1.216-0.456,1.387-0.779
					c0.209-0.399,0.229-0.931,0.229-1.577c0-0.57-0.02-1.064-0.171-1.463c-0.323-0.817-1.102-0.855-1.33-0.855h-1.311
					c-0.076,0-0.247,0.076-0.304,0.133c-0.076,0.076-0.134,0.228-0.134,0.342v4.198H91.57z"/>
				<path fill="#FFFFFF" d="M101.621,39.61h-3.723V28.23c0-0.57,0.095-1.14,0.684-1.558c0.456-0.323,0.95-0.361,1.425-0.361h4.673
					c0.665,0,1.976,0.076,2.907,1.045c1.007,1.044,1.083,2.716,1.083,3.685c0,0.874-0.038,2.831-0.817,3.952
					c-0.912,1.292-2.432,1.387-3.477,1.387h-2.755V39.61z M103.254,33.683c0.817,0,1.216-0.456,1.387-0.779
					c0.209-0.399,0.229-0.931,0.229-1.577c0-0.57-0.02-1.064-0.171-1.463c-0.323-0.817-1.102-0.855-1.33-0.855h-1.311
					c-0.076,0-0.247,0.076-0.304,0.133c-0.076,0.076-0.134,0.228-0.134,0.342v4.198H103.254z"/>
				<path fill="#FFFFFF" d="M109.583,25.305v-2.223h3.723v2.223H109.583z M109.583,26.312h3.723V36.38h-3.723V26.312z"/>
				<path fill="#FFFFFF" d="M114.447,28.117c0-0.38,0.019-0.855,0.418-1.235c0.569-0.57,1.576-0.57,2.203-0.57h3.496
					c1.158,0,2.355,0.076,3.381,0.892c1.121,0.893,1.254,2.109,1.254,2.983v6.193h-3.724v-5.11c0-0.703-0.057-1.273-0.418-1.729
					c-0.322-0.418-0.778-0.608-1.538-0.608h-0.665c-0.152,0-0.361,0.019-0.514,0.152c-0.189,0.171-0.171,0.38-0.171,0.57v6.725
					h-3.723V28.117z"/>
				<path fill="#FFFFFF" d="M126.815,37.368h4.483c0.398,0,0.987,0.019,1.367-0.266c0.209-0.171,0.381-0.456,0.438-0.722h-3.211
					c-1.063,0-2.223-0.076-3.001-1.273c-0.551-0.855-0.779-2.052-0.779-3.799c0-1.957,0.285-2.926,1.026-3.78
					c0.76-0.893,1.614-1.216,3.191-1.216h4.142c0.589,0,1.273,0.038,1.767,0.455c0.513,0.437,0.589,1.083,0.589,1.52v6.972
					c0,1.33-0.152,2.413-0.798,3.21c-0.76,0.969-2.033,1.33-3.572,1.33h-5.642V37.368z M133.103,29.807
					c0-0.266-0.038-0.475-0.285-0.646c-0.189-0.133-0.398-0.152-0.589-0.152h-0.418c-0.532,0-1.102,0.038-1.501,0.551
					c-0.171,0.209-0.398,0.665-0.398,1.88c0,0.893,0.151,1.425,0.418,1.729c0.475,0.551,1.178,0.513,1.71,0.513h1.063V29.807z"/>
			</g>
		</g>
		<g id="netwerk_1_">
			<g id="netwerk_6_">
				<path fill="#FFFFFF" d="M137.918,27.622c0-0.266,0.019-0.665,0.228-0.931c0.266-0.342,0.684-0.38,0.988-0.38h3.609
					c0.949,0,1.729,0.133,2.336,0.741c0.305,0.304,0.779,0.949,0.779,2.336v6.991h-0.988v-6.744c0-0.854-0.095-1.367-0.437-1.805
					c-0.418-0.531-0.987-0.627-1.634-0.627h-3.571c-0.095,0-0.209,0-0.266,0.076c-0.058,0.076-0.058,0.229-0.058,0.304v8.796h-0.987
					V27.622z"/>
				<path fill="#FFFFFF" d="M150.857,36.379c-0.817,0-1.881-0.209-2.66-1.234c-0.779-1.007-0.816-2.28-0.816-3.762
					c0-1.405,0.075-3.115,1.349-4.18c0.912-0.76,2.146-0.893,3.153-0.893c0.703,0,1.748,0.095,2.564,0.57
					c0.399,0.247,1.615,1.083,1.615,3.191c0,0.285-0.02,0.969-0.418,1.311c-0.305,0.266-0.779,0.304-1.064,0.304h-6.136
					c-0.019,0.589,0.018,1.521,0.171,2.052c0.228,0.817,0.912,1.748,2.242,1.748h4.938v0.892H150.857z M154.58,30.794
					c0.438,0,0.418-0.532,0.418-0.665c0-0.987-0.342-1.652-0.684-2.052c-0.722-0.854-1.71-0.874-2.603-0.874
					c-1.007,0-2.09,0.038-2.793,1.216c-0.398,0.665-0.456,1.387-0.475,2.375H154.58z"/>
				<path fill="#FFFFFF" d="M161.326,36.379c-0.855,0-1.805,0.038-2.432-0.589c-0.627-0.607-0.684-1.596-0.684-2.792v-5.795h-1.387
					v-0.893h1.387v-3.23h0.987v3.23h2.773v0.893h-2.773v5.586c0,0.854-0.057,2.014,0.57,2.45c0.228,0.152,0.665,0.247,1.785,0.247
					h0.532v0.892H161.326z"/>
				<path fill="#FFFFFF" d="M164.955,35.202c0.038,0.133,0.114,0.304,0.209,0.304c0.114,0,0.171-0.227,0.189-0.284l2.147-8.188
					c0.189-0.702,0.607-0.836,0.911-0.836c0.305,0,0.723,0.134,0.912,0.836l2.147,8.188c0.019,0.057,0.076,0.284,0.19,0.284
					c0.095,0,0.171-0.171,0.209-0.304l2.261-8.891h0.987l-2.47,9.347c-0.113,0.437-0.342,0.836-0.969,0.836
					c-0.74,0-0.949-0.57-1.025-0.854l-2.09-7.865c-0.019-0.114-0.076-0.342-0.152-0.342c-0.075,0-0.133,0.227-0.151,0.342
					l-2.09,7.865c-0.076,0.284-0.285,0.854-1.026,0.854c-0.626,0-0.854-0.399-0.969-0.836l-2.47-9.347h0.988L164.955,35.202z"/>
				<path fill="#FFFFFF" d="M178.977,36.379c-0.817,0-1.881-0.209-2.66-1.234c-0.778-1.007-0.816-2.28-0.816-3.762
					c0-1.405,0.075-3.115,1.349-4.18c0.912-0.76,2.146-0.893,3.153-0.893c0.703,0,1.748,0.095,2.564,0.57
					c0.4,0.247,1.615,1.083,1.615,3.191c0,0.285-0.02,0.969-0.418,1.311c-0.305,0.266-0.779,0.304-1.064,0.304h-6.136
					c-0.019,0.589,0.019,1.521,0.171,2.052c0.227,0.817,0.912,1.748,2.242,1.748h4.938v0.892H178.977z M182.7,30.794
					c0.438,0,0.418-0.532,0.418-0.665c0-0.987-0.342-1.652-0.684-2.052c-0.722-0.854-1.71-0.874-2.603-0.874
					c-1.007,0-2.09,0.038-2.793,1.216c-0.398,0.665-0.456,1.387-0.475,2.375H182.7z"/>
				<path fill="#FFFFFF" d="M185.703,29.769c0-1.026,0.133-1.919,0.893-2.641c0.418-0.399,1.121-0.817,2.47-0.817h0.684v0.893
					h-0.607c-0.551,0-1.387,0.058-1.938,0.703c-0.418,0.513-0.513,1.273-0.513,2.09v6.383h-0.987V29.769z"/>
				<path fill="#FFFFFF" d="M190.509,36.379V23.081h0.987v13.298H190.509z M197.101,36.379l-4.085-3.761
					c-0.228-0.209-0.778-0.761-0.778-1.444c0-0.551,0.304-0.969,0.798-1.443l3.648-3.42h1.33l-4.37,4.103
					c-0.266,0.266-0.342,0.551-0.342,0.722c0,0.342,0.267,0.703,0.532,0.95l4.636,4.293H197.101z"/>
			</g>
		</g>
	</g>
</g>
</svg>
