<?xml version="1.0" encoding="utf-8"?>
<!-- Generator: Adobe Illustrator 22.0.1, SVG Export Plug-In . SVG Version: 6.00 Build 0)  -->
<svg version="1.1" id="LOGO_x27_S" xmlns="http://www.w3.org/2000/svg" xmlns:xlink="http://www.w3.org/1999/xlink" x="0px" y="0px"
	 width="198.5px" height="44.5px" viewBox="0 0 198.5 44.5" style="enable-background:new 0 0 198.5 44.5;" xml:space="preserve">
<style type="text/css">
	.st0{fill:#FFFFFF;}
</style>
<g id="brand-sadvantage">
</g>
<g id="brand-se_1_">
</g>
<g id="brand-kn_1_">
</g>
<g id="brand-pn_1_">
</g>
<g id="brand-cn_1_">
</g>
<g id="brand-esn_1_">
</g>
<g>
	<g>
		<path class="st0" d="M22.8,42.9c2.3-2-1.9-6.9-6.9-12.8C10.8,24,3.3,15.4,5.5,8.5C2.1,12.2,0,17.1,0,22.5c0,2.1,0.3,4.1,0.9,6
			c0,0,0,0,0,0c0,0,0,0,0,0c0,0,0,0,0,0.1c0.5,2.1,1.3,4,2.4,5.7c1.1,1.7,2.4,3.2,3.9,4.4s3.2,2.1,4.9,2.6c0.1,0,0.3,0.1,0.4,0.1
			h0.1c0,0,0.1,0,0.1,0c0.1,0,0.1,0.1,0.2,0.1c2.4,1,5,1.5,7.7,1.5C21.3,43,22.1,43,22.8,42.9z M3.3,14.2L3.6,14
			c-0.2,0.6-0.5,1.3-0.7,2.1c-0.1,0.3-0.1,0.5-0.2,0.8c-0.1,0.5-0.2,1-0.3,1.5c-0.1,0.6-0.2,1.1-0.2,1.7c0,0.6,0,1.1,0,1.7
			c0,0.6,0,1.1,0.1,1.7c0.1,1.1,0.3,2.3,0.6,3.4c0.4,1.6,1,3.2,1.7,4.6L7,29.8l0.5-0.4c0.1-0.1,0.3-0.2,0.4-0.3
			C8.1,29,8.3,29,8.4,28.9c0.1-0.1,0.3-0.1,0.4-0.2c0.1,0,0.3-0.1,0.4-0.1c0.1,0,0.1,0,0.2,0c0.1,0,0.1,0,0.1,0h0.1
			c0.1,0,0.1,0,0.1,0c0,0,0,0,0.1,0c0,0,0.1,0,0.1,0c0,0,0,0,0,0H10c0.1,0,0.1,0,0.1,0c0.1,0,0.1,0,0.1,0c0.1,0,0.1,0,0.1,0
			s0.1,0,0.1,0.1h-0.1l-0.1,0.2l-2.6,1.8L7,31.1c-0.1,0.1-0.3,0.2-0.4,0.3c-0.1,0.1-0.3,0.1-0.4,0.2c-0.1,0.1-0.3,0.1-0.4,0.1
			c-0.1,0-0.2,0.1-0.4,0.1H5.3H5.2H5.1H5c-0.1,0-0.1,0-0.1,0s-0.1,0-0.1-0.1l-0.1-0.1c0.3,0.5,0.6,1,0.9,1.5
			c0.2,0.3,0.3,0.6,0.5,0.8c0.6,0.8,1.3,1.6,2,2.3c0.6,0.6,1.1,1,1.7,1.5c0.5,0.4,1.1,0.8,1.6,1.1c0.5,0.3,1.1,0.6,1.6,0.8
			c0.5,0.2,1.1,0.4,1.6,0.6c0.1,0,0.3,0.1,0.4,0.1s0.3,0.1,0.4,0.1h0.1c0.1,0.1,0.2,0.1,0.3,0.1h0.1c0.1,0.1,0.2,0.1,0.3,0.1h0.1
			c0.1,0.1,0.2,0.1,0.3,0.1h0.1c0.1,0.1,0.3,0.1,0.4,0.1h0.1c0.1,0,0.2,0,0.3,0h0.1c0.1,0,0.2,0,0.3,0H18c0.1,0,0.2,0,0.3,0h0.1h0.1
			c0.1,0,0.1,0,0.2,0h0.1c0,0,0.1,0,0.2,0h0.1c0.1,0,0.2,0,0.3,0c0.1,0,0.1,0,0.1,0s0.1,0,0.2,0h0.1c0.1,0,0.1,0,0.2,0h0.1
			c0.1,0,0.2,0,0.3,0c0,0,0.2-0.1,0.2,0.1l-0.3,0.2h-0.2c0,0-0.1,0-0.1,0c-0.1,0-0.1,0.1-0.2,0.1c-1,0.3-1.9,0.4-2,0.4
			c-0.1,0-0.2,0-0.3,0h-0.1c-0.1,0-0.2,0-0.2,0h-0.1c-0.1,0-0.2,0-0.3,0c-0.1,0-0.2,0-0.3,0h-0.1c-0.1,0-0.1,0-0.2,0h-0.1
			c-0.1,0-0.2,0-0.3,0c-0.1,0-0.3,0-0.4,0h-0.1c-0.1,0-0.2,0-0.3,0h-0.1c-0.1,0-0.2,0-0.3,0h-0.1c-0.1,0-0.2,0-0.3-0.1
			c-0.2,0-0.3,0-0.4-0.1h-0.1c-0.1,0-0.2,0-0.3-0.1h-0.1c-0.1,0-0.2,0-0.3-0.1h-0.1c-0.1,0-0.3-0.1-0.4-0.1
			c-1.7-0.5-3.4-1.4-4.9-2.6s-2.8-2.7-3.9-4.4c-1.1-1.7-1.9-3.7-2.4-5.8c-0.3-1.1-0.4-2.1-0.5-3.2c0-0.1,0-0.3,0-0.4v-0.1
			c0-0.1,0-0.2,0-0.3c0-0.1,0-0.1,0-0.2c0-0.1,0-0.2,0-0.3c0-0.1,0-0.1,0-0.2c0-0.1,0-0.2,0-0.2c0-0.1,0-0.2,0-0.3
			c0-0.2,0-0.4,0-0.6v-0.1c0-0.2,0-0.3,0-0.5c0.1-1,0.3-2.9,0.9-4.3c0.8-2.2,1.5-3.4,1.6-3.5V14.2z"/>
		<path class="st0" d="M22.7,17.4c4,3.2,7.3,5.9,9.7,8.3c-1.6-2.5-3.8-5.4-6.6-8.9c-4.9-5.9-9.6-11.9-8.1-14.6
			c-2,0.3-3.8,0.8-5.6,1.6c-0.2,0.3-0.4,0.6-0.5,0.9C10.9,8.1,16.5,12.5,22.7,17.4z"/>
		<path class="st0" d="M20.1,27C12.9,17.9,7.6,9.9,9.4,5.3C9,5.6,8.5,5.9,8.1,6.3c-2.7,5.4,2.4,12.4,10.1,21.8
			c5,6.1,9.3,11.8,7,14.4c0.5-0.1,1.1-0.3,1.6-0.4C29.7,39.3,26,34.4,20.1,27z"/>
		<path class="st0" d="M19.9,2c-1.3,1.8,1.7,5.6,3.1,7.4c3.1,4,6.7,7.6,9.7,11.6c1.1,1.5,2.7,3.8,3.9,6.2c1.2,2.7,1.5,4.7,1.3,6.3
			c2-3.2,3.2-7,3.2-11C41.1,11.2,31.9,2,20.5,2C20.3,2,20.1,2,19.9,2z"/>
		<path class="st0" d="M21,19.9c-2.5-2.1-4.9-4.1-6.9-6.1c1.4,2.2,3.3,4.6,5.3,7.1c7.9,10.3,12.8,16.5,10.4,19.9c2-1,3.9-2.4,5.5-4
			C36.5,32.7,31.1,28.2,21,19.9z"/>
		<path class="st0" d="M10,28.7c0.1,0.1,0.1,0.1,0.1,0.1l0.2-0.1H10L10,28.7z"/>
	</g>
	<path class="st0" d="M53.8,16.4c-1.5,0-2.7,0-3.5-1.3c-0.4-0.7-0.5-1.7-0.5-3.5s-0.1-3.2,0.8-4.1c0.9-0.9,2.8-1,4.6-1
		c2,0,3.2,0,4,0.7c0.9,0.8,1,2.2,1,3.3c0,0.6,0,1.3-0.6,1.8c-0.3,0.3-0.6,0.3-1,0.3h-5.3c0,0.3,0,0.6,0.2,0.8c0.3,0.5,1,0.5,1.6,0.5
		H60v2.6L53.8,16.4L53.8,16.4z M56.1,10.2c0.5,0,0.6-0.3,0.6-0.5c0-0.3-0.1-0.6-0.7-0.7c-0.2,0-0.7,0-0.9,0c-0.4,0-1,0-1.2,0.2
		c-0.4,0.2-0.4,0.6-0.4,1.1h2.6V10.2z"/>
	<path class="st0" d="M61.7,8.4c0-0.4,0-0.8,0.4-1.2c0.5-0.6,1.5-0.6,2.1-0.6h3.4c1.1,0,2.3,0.1,3.3,0.9c1.1,0.9,1.2,2,1.2,2.9v6
		h-3.6v-4.9c0-0.7-0.1-1.2-0.4-1.7c-0.3-0.4-0.8-0.6-1.5-0.6H66c-0.1,0-0.3,0-0.5,0.1c-0.2,0.2-0.2,0.4-0.2,0.6v6.5h-3.6L61.7,8.4
		L61.7,8.4z"/>
	<path class="st0" d="M78.8,16.4c-0.7,0-2,0-3-0.7c-0.8-0.6-1.2-1.5-1.2-2.4V9.1h-1.4V6.6h1.4V3.5h3.6v3.1H81v2.5h-2.8v2.2
		c0,0.7,0.1,1.5,0.6,1.9s1.1,0.5,1.6,0.5h0.5v2.6L78.8,16.4L78.8,16.4z"/>
	<path class="st0" d="M82,10.7c0-0.9,0.1-2.3,1.2-3.2s2.6-0.9,3.6-0.9h2.4v2.5H88c-0.7,0-1.4,0.1-1.8,0.7c-0.4,0.6-0.5,1.3-0.5,1.9
		v4.6H82V10.7z"/>
	<path class="st0" d="M94,16.4c-1.5,0-2.7,0-3.5-1.3c-0.4-0.7-0.5-1.7-0.5-3.5s-0.1-3.2,0.8-4.1s2.8-1,4.6-1c2,0,3.2,0,4,0.7
		c0.9,0.8,1,2.2,1,3.3c0,0.6,0,1.3-0.6,1.8c-0.3,0.3-0.6,0.3-1,0.3h-5.3c0,0.3,0,0.6,0.2,0.8c0.3,0.5,1,0.5,1.6,0.5h4.7v2.6L94,16.4
		L94,16.4z M96.3,10.2c0.5,0,0.6-0.3,0.6-0.5c0-0.3-0.1-0.6-0.7-0.7c-0.3,0-0.8,0-0.9,0c-0.4,0-1,0-1.2,0.2
		c-0.4,0.2-0.4,0.6-0.4,1.1h2.6V10.2z"/>
	<path class="st0" d="M105.5,19.5h-3.6v-11c0-0.6,0.1-1.1,0.7-1.5c0.4-0.3,0.9-0.3,1.4-0.3h4.5c0.6,0,1.9,0.1,2.8,1c1,1,1,2.6,1,3.6
		c0,0.8,0,2.7-0.8,3.8c-0.9,1.2-2.4,1.3-3.4,1.3h-2.7L105.5,19.5L105.5,19.5z M107.1,13.7c0.8,0,1.2-0.4,1.3-0.8
		c0.2-0.4,0.2-0.9,0.2-1.5s0-1-0.2-1.4c-0.3-0.8-1.1-0.8-1.3-0.8h-1.3c-0.1,0-0.2,0.1-0.3,0.1c-0.1,0.1-0.1,0.2-0.1,0.3v4.1
		L107.1,13.7L107.1,13.7z"/>
	<path class="st0" d="M113.8,10.7c0-0.9,0.1-2.3,1.2-3.2s2.6-0.9,3.6-0.9h2.4v2.5h-1.2c-0.7,0-1.4,0.1-1.8,0.7
		c-0.4,0.6-0.5,1.3-0.5,1.9v4.6h-3.6L113.8,10.7L113.8,10.7z"/>
	<path class="st0" d="M125.7,16.4c-1.5,0-2.7,0-3.5-1.3c-0.4-0.7-0.5-1.7-0.5-3.5s-0.1-3.2,0.8-4.1s2.8-1,4.6-1c2,0,3.2,0,4,0.7
		c0.9,0.8,1,2.2,1,3.3c0,0.6,0,1.3-0.6,1.8c-0.3,0.3-0.6,0.3-1,0.3h-5.3c0,0.3,0,0.6,0.2,0.8c0.3,0.5,1,0.5,1.6,0.5h4.7v2.6
		L125.7,16.4L125.7,16.4z M128,10.2c0.5,0,0.6-0.3,0.6-0.5c0-0.3-0.1-0.6-0.7-0.7c-0.2,0-0.7,0-0.9,0c-0.4,0-1,0-1.2,0.2
		c-0.4,0.2-0.4,0.6-0.4,1.1h2.6V10.2z"/>
	<path class="st0" d="M133.7,8.4c0-0.4,0-0.8,0.4-1.2c0.5-0.6,1.5-0.6,2.1-0.6h3.4c1.1,0,2.3,0.1,3.3,0.9c1.1,0.9,1.2,2,1.2,2.9v6
		h-3.6v-4.9c0-0.7-0.1-1.2-0.4-1.7c-0.3-0.4-0.8-0.6-1.5-0.6H138c-0.1,0-0.3,0-0.5,0.1c-0.2,0.2-0.2,0.4-0.2,0.6v6.5h-3.6L133.7,8.4
		L133.7,8.4z"/>
	<path class="st0" d="M149.4,16.4c-1.5,0-2.7,0-3.5-1.3c-0.4-0.7-0.5-1.7-0.5-3.5s-0.1-3.2,0.8-4.1c0.9-0.9,2.8-1,4.6-1
		c2,0,3.2,0,4,0.7c0.9,0.8,1,2.2,1,3.3c0,0.6,0,1.3-0.6,1.8c-0.3,0.3-0.6,0.3-1,0.3h-5.3c0,0.3,0,0.6,0.2,0.8c0.3,0.5,1,0.5,1.6,0.5
		h4.7v2.6L149.4,16.4L149.4,16.4z M151.7,10.2c0.5,0,0.6-0.3,0.6-0.5c0-0.3-0.1-0.6-0.7-0.7c-0.3-0.1-0.8-0.1-1-0.1
		c-0.4,0-1,0-1.2,0.2c-0.4,0.2-0.4,0.6-0.4,1.1H151.7z"/>
	<path class="st0" d="M161,6.6v4.8c0,0.9,0.1,1.4,0.3,1.7c0.4,0.6,1.1,0.6,1.5,0.6h0.7c0.3,0,0.5-0.1,0.6-0.2
		c0.2-0.2,0.2-0.4,0.2-0.6V6.6h3.6v7.7c0,0.6-0.1,1.1-0.6,1.5s-1.2,0.4-1.6,0.4h-4.4c-1.4,0-2.2-0.4-2.7-0.8c-1-0.8-1.2-2.1-1.2-3.6
		V6.6H161L161,6.6z"/>
	<path class="st0" d="M169.5,10.7c0-0.9,0.1-2.3,1.2-3.2c1.1-0.9,2.6-0.9,3.6-0.9h2.4v2.5h-1.2c-0.7,0-1.4,0.1-1.8,0.7
		c-0.4,0.6-0.5,1.3-0.5,1.9v4.6h-3.6L169.5,10.7L169.5,10.7z"/>
	<path class="st0" d="M177.7,13.7h5.3c0.1,0,0.2,0,0.2-0.1c0.1,0,0.1-0.1,0.1-0.2c0-0.1-0.1-0.2-0.2-0.2c-0.1-0.1-0.3-0.1-1.1-0.4
		l-2.1-0.7c-0.9-0.3-1.6-0.7-2-1.3c-0.3-0.5-0.4-1.2-0.4-1.6c0-0.6,0.1-1.2,0.5-1.7c0.5-0.8,1.2-0.9,2.3-0.9h6.5v2.5h-5.3
		c-0.1,0-0.3,0-0.4,0c-0.1,0-0.2,0-0.2,0.2c0,0.1,0.1,0.2,0.2,0.2c0.4,0.1,0.3,0.1,0.7,0.3l2.5,0.8c1,0.3,1.8,0.6,2.2,1.3
		c0.5,0.7,0.5,1.5,0.5,1.9c0,0.7-0.1,1.5-0.8,2.1c-0.5,0.4-1.1,0.5-1.6,0.5h-7L177.7,13.7L177.7,13.7z"/>
	<path class="st0" d="M196.8,15.3c0,0.5-0.1,0.7-0.2,0.8c-0.2,0.3-0.7,0.2-0.9,0.2h-3c-0.6,0-1.3,0-1.9-0.7c-0.5-0.6-0.5-1.4-0.5-2
		s0-1.2,0.3-1.6c0.2-0.3,0.6-0.6,1.1-0.7l0,0c-0.2,0-0.7-0.1-1-0.6s-0.4-1.2-0.4-1.7c0-0.6,0.1-1.5,0.6-2c0.3-0.3,0.9-0.6,1.7-0.6
		h4.2v0.7h-4.1c-0.4,0-0.9,0-1.2,0.3c-0.4,0.4-0.4,1.2-0.4,1.6s0,1.2,0.4,1.6c0.3,0.3,0.9,0.5,1.5,0.5h5.4v0.7h-1.7L196.8,15.3
		L196.8,15.3z M196,15.7c0.1-0.1,0.1-0.3,0.1-0.4v-3.4h-3.6c-0.8,0-1.1,0.4-1.2,0.6c-0.2,0.3-0.2,0.8-0.2,1.4c0,0.5,0,1,0.2,1.3
		c0.4,0.5,0.9,0.6,1.4,0.6h2.7C195.7,15.8,195.9,15.8,196,15.7z"/>
	<path class="st0" d="M50,33.1h5.3c0.1,0,0.2,0,0.2-0.1c0.1,0,0.1-0.1,0.1-0.2c0-0.1-0.1-0.2-0.2-0.2c-0.1-0.1-0.3-0.1-1.1-0.4
		l-2.1-0.7c-0.9-0.3-1.6-0.7-2-1.3c-0.3-0.5-0.4-1.2-0.4-1.6c0-0.6,0.1-1.2,0.5-1.7c0.5-0.8,1.2-0.9,2.3-0.9h6.5v2.5h-5.3
		c-0.1,0-0.3,0-0.4,0c-0.1,0-0.2,0-0.2,0.2c0,0.1,0.1,0.2,0.2,0.2c0.4,0.1,0.3,0.1,0.7,0.3l2.5,0.8c1,0.3,1.8,0.6,2.2,1.3
		c0.5,0.7,0.5,1.5,0.5,1.9c0,0.7-0.1,1.5-0.8,2.1c-0.5,0.4-1.1,0.5-1.6,0.5h-7L50,33.1L50,33.1z"/>
	<path class="st0" d="M60.2,22.8h3.6V26H66c1.1,0,2.3,0,3.3,0.7c0.9,0.7,1.3,1.7,1.3,2.7v6.4H67v-5c0-0.5,0-1.1-0.6-1.7
		c-0.4-0.5-1-0.6-1.5-0.6h-1.1v7.2h-3.6C60.2,35.7,60.2,22.8,60.2,22.8z"/>
	<path class="st0" d="M81.4,26.8c1.2,1.1,1.3,3,1.3,4s-0.1,2.9-1.3,4c-1.1,0.9-2.8,1-4.3,1s-3.3-0.1-4.3-1c-1.2-1.1-1.3-3-1.3-4
		s0.1-2.9,1.3-4c1.1-0.9,2.8-1,4.3-1S80.4,25.9,81.4,26.8z M75.5,32.5c0.1,0.1,0.5,0.7,1.6,0.7c1,0,1.4-0.4,1.6-0.7
		c0.3-0.4,0.4-1,0.4-1.7c0-1-0.2-1.5-0.3-1.7c-0.2-0.2-0.6-0.6-1.6-0.6s-1.4,0.4-1.6,0.6c-0.1,0.2-0.3,0.6-0.3,1.7
		C75.1,31.9,75.3,32.3,75.5,32.5z"/>
	<path class="st0" d="M87.2,38.8h-3.6v-11c0-0.6,0.1-1.1,0.7-1.5c0.4-0.3,0.9-0.3,1.4-0.3h4.5c0.6,0,1.9,0.1,2.8,1c1,1,1,2.6,1,3.6
		c0,0.8,0,2.7-0.8,3.8c-0.9,1.2-2.4,1.3-3.4,1.3h-2.7L87.2,38.8L87.2,38.8z M88.8,33.1c0.8,0,1.2-0.4,1.3-0.8
		c0.2-0.4,0.2-0.9,0.2-1.5s0-1-0.2-1.4c-0.3-0.8-1.1-0.8-1.3-0.8h-1.3c-0.1,0-0.2,0.1-0.3,0.1c-0.1,0.1-0.1,0.2-0.1,0.3v4.1H88.8
		L88.8,33.1z"/>
	<path class="st0" d="M98.5,38.8h-3.6v-11c0-0.6,0.1-1.1,0.7-1.5C96,26,96.5,26,96.9,26h4.5c0.6,0,1.9,0.1,2.8,1c1,1,1,2.6,1,3.6
		c0,0.8,0,2.7-0.8,3.8c-0.9,1.2-2.4,1.3-3.4,1.3h-2.7v3.1H98.5z M100.1,33.1c0.8,0,1.2-0.4,1.3-0.8c0.2-0.4,0.2-0.9,0.2-1.5
		s0-1-0.2-1.4c-0.3-0.8-1.1-0.8-1.3-0.8h-1.3c-0.1,0-0.2,0.1-0.3,0.1c-0.1,0.1-0.1,0.2-0.1,0.3v4.1H100.1L100.1,33.1z"/>
	<path class="st0" d="M106.2,25v-2.1h3.6V25H106.2z M106.2,26h3.6v9.7h-3.6V26z"/>
	<path class="st0" d="M110.9,27.7c0-0.4,0-0.8,0.4-1.2c0.5-0.6,1.5-0.6,2.1-0.6h3.4c1.1,0,2.3,0.1,3.3,0.9c1.1,0.9,1.2,2,1.2,2.9v6
		h-3.6v-4.9c0-0.7-0.1-1.2-0.4-1.7c-0.3-0.4-0.8-0.6-1.5-0.6h-0.6c-0.1,0-0.3,0-0.5,0.1c-0.2,0.2-0.2,0.4-0.2,0.6v6.5h-3.6
		L110.9,27.7L110.9,27.7z"/>
	<path class="st0" d="M122.8,36.6h4.3c0.4,0,1,0,1.3-0.3c0.2-0.2,0.4-0.4,0.4-0.7h-3.1c-1,0-2.1-0.1-2.9-1.2c-0.5-0.8-0.8-2-0.8-3.7
		c0-1.9,0.3-2.8,1-3.7c0.7-0.9,1.6-1.2,3.1-1.2h4c0.6,0,1.2,0,1.7,0.4s0.6,1,0.6,1.5v6.7c0,1.3-0.1,2.3-0.8,3.1
		c-0.7,0.9-2,1.3-3.5,1.3h-5.5C122.8,39,122.8,36.6,122.8,36.6z M128.9,29.3c0-0.3,0-0.5-0.3-0.6c-0.2-0.1-0.4-0.1-0.6-0.1h-0.4
		c-0.5,0-1.1,0-1.5,0.5c-0.2,0.2-0.4,0.6-0.4,1.8c0,0.9,0.1,1.4,0.4,1.7c0.5,0.5,1.1,0.5,1.7,0.5h1L128.9,29.3L128.9,29.3z"/>
	<path class="st0" d="M133.6,27.2c0-0.3,0-0.6,0.2-0.9c0.3-0.3,0.7-0.4,1-0.4h3.8c1,0,1.8,0.1,2.5,0.7c0.3,0.3,0.8,0.9,0.8,2.3v6.8
		h-1v-6.5c0-0.8-0.1-1.3-0.5-1.7c-0.4-0.5-1-0.6-1.7-0.6H135c-0.1,0-0.2,0-0.3,0.1s-0.1,0.2-0.1,0.3v8.5h-1V27.2L133.6,27.2z"/>
	<path class="st0" d="M147.1,35.7c-0.9,0-2-0.2-2.8-1.2s-0.9-2.2-0.9-3.6s0.1-3,1.4-4c1-0.7,2.3-0.9,3.3-0.9c0.7,0,1.8,0.1,2.7,0.6
		c0.4,0.2,1.7,1,1.7,3.1c0,0.3,0,0.9-0.4,1.3c-0.3,0.3-0.8,0.3-1.1,0.3h-6.4c0,0.6,0,1.5,0.2,2c0.2,0.8,1,1.7,2.4,1.7h5.2v0.9
		C152.3,35.7,147.1,35.7,147.1,35.7z M151,30.3c0.5,0,0.4-0.5,0.4-0.6c0-1-0.4-1.6-0.7-2c-0.8-0.8-1.8-0.8-2.7-0.8
		c-1.1,0-2.2,0-2.9,1.2c-0.4,0.6-0.5,1.3-0.5,2.3C144.6,30.3,151,30.3,151,30.3z"/>
	<path class="st0" d="M158.1,35.7c-0.9,0-1.9,0-2.6-0.6c-0.7-0.6-0.7-1.5-0.7-2.7v-5.6h-1.5V26h1.5v-3.1h1V26h2.9v0.9h-2.9v5.4
		c0,0.8-0.1,1.9,0.6,2.4c0.2,0.1,0.7,0.2,1.9,0.2h0.6v0.9L158.1,35.7L158.1,35.7z"/>
	<path class="st0" d="M161.9,34.5c0,0.1,0.1,0.3,0.2,0.3c0.1,0,0.2-0.2,0.2-0.3l2.3-7.9c0.2-0.7,0.6-0.8,1-0.8c0.3,0,0.8,0.1,1,0.8
		l2.3,7.9c0,0.1,0.1,0.3,0.2,0.3c0.1,0,0.2-0.2,0.2-0.3l2.4-8.6h1l-2.6,9c-0.1,0.4-0.4,0.8-1,0.8c-0.8,0-1-0.6-1.1-0.8l-2.2-7.6
		c0-0.1-0.1-0.3-0.2-0.3c-0.1,0-0.1,0.2-0.2,0.3l-2.2,7.6c-0.1,0.3-0.3,0.8-1.1,0.8c-0.7,0-0.9-0.4-1-0.8l-2.6-9h1L161.9,34.5z"/>
	<path class="st0" d="M174.3,26.9c1-0.9,2.6-1.1,3.9-1.1c1.3,0,2.9,0.1,3.9,1.1c1.2,1,1.3,2.8,1.3,3.9c0,2.1-0.6,3.3-1.3,3.9
		c-1.2,1-3,1.1-3.9,1.1s-2.8-0.1-3.9-1.1c-0.7-0.6-1.3-1.8-1.3-3.9C173,29.7,173.2,28,174.3,26.9z M175,34c0.8,0.8,2.2,0.9,3.3,0.9
		s2.4-0.1,3.3-0.9c0.9-0.9,0.9-2.4,0.9-3.1c0-0.8,0-2.4-0.8-3.2c-0.8-0.8-2.3-0.9-3.3-0.9s-2.5,0.1-3.3,0.9
		c-0.8,0.9-0.8,2.4-0.8,3.2C174.1,31.6,174.1,33.1,175,34z"/>
	<path class="st0" d="M185,29.3c0-1,0.1-1.9,0.9-2.6c0.4-0.4,1.2-0.8,2.6-0.8h0.7v0.9h-0.6c-0.6,0-1.5,0.1-2,0.7
		c-0.4,0.5-0.5,1.2-0.5,2v6.2h-1L185,29.3L185,29.3z"/>
	<path class="st0" d="M190.1,35.7V22.8h1v12.8h-1V35.7z M197,35.7l-4.3-3.6c-0.2-0.2-0.8-0.7-0.8-1.4c0-0.5,0.3-0.9,0.8-1.4l3.8-3.3
		h1.4l-4.6,4c-0.3,0.3-0.4,0.5-0.4,0.7c0,0.3,0.3,0.7,0.6,0.9l4.9,4.1C198.4,35.7,197,35.7,197,35.7z"/>
</g>
</svg>
