<?xml version="1.0" encoding="utf-8"?>
<!-- Generator: Adobe Illustrator 22.0.1, SVG Export Plug-In . SVG Version: 6.00 Build 0)  -->
<svg version="1.1" id="LOGO_x27_S" xmlns="http://www.w3.org/2000/svg" xmlns:xlink="http://www.w3.org/1999/xlink" x="0px" y="0px"
	 width="200.2px" height="44.5px" viewBox="0 0 200.2 44.5" style="enable-background:new 0 0 200.2 44.5;" xml:space="preserve">
<style type="text/css">
	.st0{display:none;}
	.st1{display:inline;fill:#4C4F53;}
	.st2{font-family:'MagistralC';}
	.st3{font-size:14.6798px;}
	.st4{display:inline;fill:#E72C6A;}
	.st5{font-family:'MagistralBlackC';}
	.st6{font-size:19px;}
	.st7{display:inline;fill:#EFF0F0;}
	.st8{fill:url(#SVGID_1_);}
	.st9{fill:url(#SVGID_2_);}
	.st10{clip-path:url(#SVGID_4_);fill:#EFF0F0;}
	.st11{clip-path:url(#SVGID_6_);fill:#E0E1E2;}
	.st12{clip-path:url(#SVGID_8_);}
	.st13{fill:#F0F0F0;}
	.st14{fill:url(#SVGID_9_);}
	.st15{fill:url(#SVGID_10_);}
	.st16{fill:url(#SVGID_11_);}
	.st17{fill:#FCB721;}
	.st18{fill:#4C4F53;}
</style>
<g id="brand-sa_1_">
</g>
<g id="brand-sadvantage">
</g>
<g id="brand-se_1_">
</g>
<g id="brand-rebatenetwork">
</g>
<g id="brand-pn_1_">
</g>
<g id="brand-cn_1_">
</g>
<g id="brand-eshopn">
</g>
<g id="TypeFont__x28_MagistralBlackC_Regular_en_MagistralC_Regular_x29_" class="st0">
	<text transform="matrix(1 0 0 1 189.4473 16.2148)" class="st1 st2 st3">&amp;</text>
	<text transform="matrix(1 0 0 1 51.2603 16.1498)" class="st4 st5 st6">rabais</text>
	<text transform="matrix(1 0 0 1 137.2603 36.1498)" class="st1 st2 st6">reseau</text>
</g>
<g id="TypeFont__x28_MagistralBlackC_Regular_en_MagistralC_Regular_x29__copy" class="st0">
	<text transform="matrix(1 0 0 1 189.4473 16.2148)" class="st1 st2 st3">&amp;</text>
	<text transform="matrix(1 0 0 1 51.2603 16.1498)" class="st7 st5 st6">ondernemers</text>
	<text transform="matrix(1 0 0 1 137.2603 36.1498)" class="st1 st2 st6">netwerk</text>
</g>
<g id="brand-rse">
	<g id="osn-bol_1_">
		<g id="osn-globe_1_">
			
				<radialGradient id="SVGID_1_" cx="347.3027" cy="255.6201" r="16.9904" gradientTransform="matrix(0.9331 0 0 -0.9331 -290.481 248.0736)" gradientUnits="userSpaceOnUse">
				<stop  offset="0" style="stop-color:#FFFFFF"/>
				<stop  offset="1" style="stop-color:#E0E1E2"/>
			</radialGradient>
			<path class="st8" d="M42.5,22.5c0-11.7-9.5-21.2-21.2-21.2c-5.2,0-9.9,1.9-13.6,4.9l29.9,29.9C40.6,32.4,42.5,27.7,42.5,22.5z"/>
			
				<radialGradient id="SVGID_2_" cx="319.1875" cy="228.8668" r="21.6001" gradientTransform="matrix(0.9331 0 0 -0.9331 -290.481 248.0736)" gradientUnits="userSpaceOnUse">
				<stop  offset="0" style="stop-color:#FFFFFF"/>
				<stop  offset="1" style="stop-color:#E0E1E2"/>
			</radialGradient>
			<path class="st9" d="M7.6,6.2C3,10.1,0,16,0,22.5c0,11.7,9.5,21.2,21.2,21.2c6.6,0,12.4-3,16.3-7.6L7.6,6.2z"/>
		</g>
		<g id="osn-shadow_1_">
			<g>
				<defs>
					<path id="SVGID_3_" d="M42.5,23.2c-0.4,11.7-10.2,20.9-22,20.5C8.8,43.3-0.4,33.5,0,21.8C0.5,10,10.3,0.9,22,1.3
						C33.7,1.7,42.9,11.5,42.5,23.2z"/>
				</defs>
				<clipPath id="SVGID_4_">
					<use xlink:href="#SVGID_3_"  style="overflow:visible;"/>
				</clipPath>
				<path class="st10" d="M10.2,3.9c-6.8,5.9-1.1,13.8,8.3,25.4c6.4,7.9,11.8,15.1,4.2,16.1c-1.4,0.2-2.3,0-2.5,0.1
					c7.7-0.5,2.5-6.7-4-14.2c-6.3-7.4-16-18.4-8.5-25.8C8.3,4.8,9.3,4.3,10.2,3.9"/>
			</g>
			<g>
				<defs>
					<path id="SVGID_5_" d="M42.5,23.2c-0.4,11.7-10.2,20.9-22,20.5C8.8,43.3-0.4,33.5,0,21.8C0.5,10,10.3,0.9,22,1.3
						C33.7,1.7,42.9,11.5,42.5,23.2z"/>
				</defs>
				<clipPath id="SVGID_6_">
					<use xlink:href="#SVGID_5_"  style="overflow:visible;"/>
				</clipPath>
				<path class="st11" d="M4.9,8.9c-6.8,5.9-1,13.8,8.3,25.4c4.6,5.7,6.3,8.5,7.1,11.2c0,0-0.7,0-1.1,0c-1.2,0-1.8-0.5-1.8-0.5
					s-3.1-4.8-6.5-8.7c-6.3-7.3-16-18.4-8.5-25.8C2.9,9.8,3.9,9.3,4.9,8.9"/>
			</g>
			<g>
				<defs>
					<path id="SVGID_7_" d="M42.5,23.2c-0.4,11.7-10.2,20.9-22,20.5C8.8,43.3-0.4,33.5,0,21.8C0.5,10,10.3,0.9,22,1.3
						C33.7,1.7,42.9,11.5,42.5,23.2z"/>
				</defs>
				<clipPath id="SVGID_8_">
					<use xlink:href="#SVGID_7_"  style="overflow:visible;"/>
				</clipPath>
				<g class="st12">
					<path class="st13" d="M40.4,34.9c-0.7,1-1.5,1.9-2.2,2.5c-3.7,3.1-7.3,1.2-10.8-3.6c-0.4-0.5-1.9-2.5-2-2.7L25.3,31
						c0,0-2-2.6-3.2-4C12.8,15.3,6.9,5.6,13.9,1.9c2-1.1,2.9-0.9,2.9-0.9c-7.5,4-2,11.1,4.6,19.6c2.5,3.2,6.5,8.6,6.5,8.6l0.1,0.1
						c0.4,0.6,1.4,2.1,2,3C33,36.6,36.1,38.6,40.4,34.9"/>
					<path class="st13" d="M28.8,20.8c-1.4-1.8-2.5-1.5-4.5,0.6c0,0-3.6,4.4-6.3,1.5c-0.7-0.8-1-1.4-1.2-1.7c2.4,3,5.9-1,5.9-1
						c2.3-2.3,4.5-2.6,5.7-0.2C28.5,20.2,28.8,20.8,28.8,20.8z"/>
				</g>
			</g>
		</g>
		<g id="osn_1_">
			
				<radialGradient id="SVGID_9_" cx="342.8951" cy="220.0389" r="42.4309" gradientTransform="matrix(0.9331 0 0 -0.9331 -290.481 248.0736)" gradientUnits="userSpaceOnUse">
				<stop  offset="0" style="stop-color:#E19526"/>
				<stop  offset="0.1424" style="stop-color:#E49925"/>
				<stop  offset="0.3045" style="stop-color:#EDA524"/>
				<stop  offset="0.456" style="stop-color:#FCB721"/>
				<stop  offset="0.5158" style="stop-color:#FBB726;stop-opacity:0.9506"/>
				<stop  offset="0.5703" style="stop-color:#F7B734;stop-opacity:0.9055"/>
				<stop  offset="0.6228" style="stop-color:#F2B747;stop-opacity:0.8621"/>
				<stop  offset="0.6737" style="stop-color:#EBB95F;stop-opacity:0.8199"/>
				<stop  offset="0.6978" style="stop-color:#E7B96C;stop-opacity:0.8"/>
				<stop  offset="0.7702" style="stop-color:#E8B969;stop-opacity:0.8479"/>
				<stop  offset="0.8393" style="stop-color:#EBB95F;stop-opacity:0.8937"/>
				<stop  offset="0.9071" style="stop-color:#F0B84E;stop-opacity:0.9385"/>
				<stop  offset="0.9737" style="stop-color:#F8B732;stop-opacity:0.9826"/>
				<stop  offset="1" style="stop-color:#FCB721"/>
			</radialGradient>
			<path class="st14" d="M10.7,2.9C3.9,8.8,9.6,16.8,19,28.3c6.4,7.9,11.8,15.1,4.2,16.1c-1.4,0.2-2.3,0-2.5,0.1
				c7.7-0.5,2.5-6.7-4-14.2c-6.3-7.4-16-18.4-8.5-25.8C8.7,3.8,9.7,3.3,10.7,2.9"/>
			
				<radialGradient id="SVGID_10_" cx="336.135" cy="219.8174" r="39.7748" gradientTransform="matrix(0.9331 0 0 -0.9331 -290.481 248.0736)" gradientUnits="userSpaceOnUse">
				<stop  offset="0" style="stop-color:#4C4F53"/>
				<stop  offset="0.1155" style="stop-color:#4F5255"/>
				<stop  offset="0.2472" style="stop-color:#585B5E"/>
				<stop  offset="0.3862" style="stop-color:#67696D"/>
				<stop  offset="0.456" style="stop-color:#717377"/>
				<stop  offset="0.5278" style="stop-color:#75767A"/>
				<stop  offset="0.5932" style="stop-color:#7F7F83"/>
				<stop  offset="0.656" style="stop-color:#919093"/>
				<stop  offset="0.6978" style="stop-color:#A4A2A5"/>
				<stop  offset="0.7651" style="stop-color:#9E9D9F"/>
				<stop  offset="0.8293" style="stop-color:#919092"/>
				<stop  offset="0.8922" style="stop-color:#7C7C7F"/>
				<stop  offset="0.9541" style="stop-color:#626467"/>
				<stop  offset="1" style="stop-color:#4C4F53"/>
			</radialGradient>
			<path class="st15" d="M5.3,7.9c-6.8,5.9-1,13.8,8.3,25.4c4.6,5.7,6.3,8.5,7.1,11.2c0,0-0.7,0-1.1,0c-1.2,0-1.8-0.5-1.8-0.5
				s-3.1-4.8-6.5-8.7C5,27.9-4.8,16.8,2.7,9.4C3.4,8.8,4.3,8.3,5.3,7.9"/>
			<g>
				
					<linearGradient id="SVGID_11_" gradientUnits="userSpaceOnUse" x1="40.828" y1="26.0231" x2="11.2604" y2="26.0231" gradientTransform="matrix(1 0 0 -1 0 45)">
					<stop  offset="0" style="stop-color:#E19526"/>
					<stop  offset="0.1424" style="stop-color:#E49925"/>
					<stop  offset="0.3045" style="stop-color:#EDA524"/>
					<stop  offset="0.456" style="stop-color:#FCB721"/>
					<stop  offset="0.5158" style="stop-color:#FBB726;stop-opacity:0.9506"/>
					<stop  offset="0.5703" style="stop-color:#F7B734;stop-opacity:0.9055"/>
					<stop  offset="0.6228" style="stop-color:#F2B747;stop-opacity:0.8621"/>
					<stop  offset="0.6737" style="stop-color:#EBB95F;stop-opacity:0.8199"/>
					<stop  offset="0.6978" style="stop-color:#E7B96C;stop-opacity:0.8"/>
					<stop  offset="1" style="stop-color:#FCB721"/>
				</linearGradient>
				<path class="st16" d="M40.8,33.9c-0.7,1-1.5,1.9-2.2,2.5c-3.7,3.1-7.3,1.2-10.8-3.6c-0.4-0.5-1.9-2.5-2-2.7L25.7,30
					c0,0-2-2.6-3.2-4C13.3,14.3,7.4,4.6,14.3,0.9c2-1.1,2.9-0.9,2.9-0.9c-7.5,4-2,11.1,4.6,19.6c2.5,3.2,6.5,8.6,6.5,8.6l0.1,0.1
					c0.4,0.6,1.4,2.1,2,3C33.4,35.6,36.5,37.6,40.8,33.9"/>
				<path class="st17" d="M29.2,19.8c-1.4-1.8-2.5-1.5-4.5,0.6c0,0-3.6,4.4-6.3,1.5c-0.7-0.8-1-1.4-1.2-1.7c2.4,3,5.9-1,5.9-1
					c2.3-2.3,4.5-2.6,5.7-0.2C28.9,19.2,29.2,19.8,29.2,19.8z"/>
			</g>
		</g>
	</g>
	<g>
		<g id="entrepreneurs_1_">
			<path class="st17" d="M55.7,36.3c-1.5,0-2.8,0-3.6-1.3c-0.4-0.7-0.5-1.8-0.5-3.6c0-1.8-0.1-3.3,0.8-4.3c0.9-1,2.8-1,4.7-1
				c2,0,3.4,0,4.2,0.7c1,0.8,1.1,2.3,1.1,3.4c0,0.6,0,1.4-0.6,1.8c-0.3,0.3-0.6,0.3-1,0.3h-5.5c0,0.3,0,0.6,0.2,0.8
				c0.3,0.5,1,0.5,1.7,0.5h4.9v2.7L55.7,36.3L55.7,36.3z M58.1,29.9c0.5,0,0.6-0.3,0.6-0.5c0-0.3-0.1-0.6-0.7-0.7
				c-0.3-0.1-0.8-0.1-1-0.1c-0.4,0-1,0-1.3,0.2c-0.4,0.2-0.4,0.6-0.4,1.1H58.1z"/>
			<path class="st17" d="M64.2,28c0-0.4,0-0.9,0.4-1.2c0.6-0.6,1.6-0.6,2.2-0.6h3.5c1.2,0,2.4,0.1,3.4,0.9c1.1,0.9,1.3,2.1,1.3,3
				v6.2h-3.7v-5.1c0-0.7-0.1-1.3-0.4-1.7c-0.3-0.4-0.8-0.6-1.5-0.6h-0.7c-0.2,0-0.4,0-0.5,0.2c-0.2,0.2-0.2,0.4-0.2,0.6v6.7h-3.7
				L64.2,28L64.2,28z"/>
			<path class="st17" d="M82.2,36.3c-0.7,0-2.1,0-3.1-0.7c-0.8-0.6-1.3-1.6-1.3-2.5v-4.3h-1.4v-2.6h1.4V23h3.7v3.2h2.9v2.6h-2.9v2.3
				c0,0.7,0.1,1.5,0.6,2c0.5,0.5,1.2,0.5,1.6,0.5h0.6v2.7C84.4,36.3,82.2,36.3,82.2,36.3z"/>
			<path class="st17" d="M86.9,30.4c0-1,0.1-2.4,1.2-3.3c1.1-0.9,2.7-1,3.7-1h2.5v2.6H93c-0.7,0-1.4,0.1-1.9,0.7
				c-0.4,0.6-0.5,1.3-0.5,1.9v4.8h-3.7V30.4z"/>
			<path class="st17" d="M100.2,36.3c-1.5,0-2.8,0-3.6-1.3c-0.4-0.7-0.5-1.8-0.5-3.6c0-1.8-0.1-3.3,0.8-4.3c0.9-1,2.8-1,4.7-1
				c2,0,3.4,0,4.2,0.7c1,0.8,1.1,2.3,1.1,3.4c0,0.6,0,1.4-0.6,1.8c-0.3,0.3-0.6,0.3-1,0.3h-5.5c0,0.3,0,0.6,0.2,0.8
				c0.3,0.5,1,0.5,1.7,0.5h4.9v2.7L100.2,36.3L100.2,36.3z M102.6,29.9c0.5,0,0.6-0.3,0.6-0.5c0-0.3-0.1-0.6-0.7-0.7
				c-0.3-0.1-0.8-0.1-1-0.1c-0.4,0-1,0-1.3,0.2c-0.4,0.2-0.4,0.6-0.4,1.1H102.6z"/>
			<path class="st17" d="M112.6,39.5h-3.7V28.1c0-0.6,0.1-1.1,0.7-1.6c0.5-0.3,0.9-0.4,1.4-0.4h4.7c0.7,0,2,0.1,2.9,1
				c1,1,1.1,2.7,1.1,3.7c0,0.9,0,2.8-0.8,4c-0.9,1.3-2.4,1.4-3.5,1.4h-2.8V39.5z M114.2,33.6c0.8,0,1.2-0.5,1.4-0.8
				c0.2-0.4,0.2-0.9,0.2-1.6c0-0.6,0-1.1-0.2-1.5c-0.3-0.8-1.1-0.9-1.3-0.9H113c-0.1,0-0.2,0.1-0.3,0.1c-0.1,0.1-0.1,0.2-0.1,0.3
				v4.2L114.2,33.6L114.2,33.6z"/>
			<path class="st17" d="M121.5,30.4c0-1,0.1-2.4,1.2-3.3c1.1-0.9,2.7-1,3.7-1h2.5v2.6h-1.3c-0.7,0-1.4,0.1-1.9,0.7
				c-0.4,0.6-0.5,1.3-0.5,1.9v4.8h-3.7C121.5,36.3,121.5,30.4,121.5,30.4z"/>
			<path class="st17" d="M134.9,36.3c-1.5,0-2.8,0-3.6-1.3c-0.4-0.7-0.5-1.8-0.5-3.6c0-1.8-0.1-3.3,0.8-4.3c0.9-1,2.9-1,4.7-1
				c2,0,3.4,0,4.2,0.7c1,0.8,1.1,2.3,1.1,3.4c0,0.6,0,1.4-0.6,1.8c-0.3,0.3-0.6,0.3-1,0.3h-5.5c0,0.3,0,0.6,0.2,0.8
				c0.3,0.5,1,0.5,1.7,0.5h4.9v2.7L134.9,36.3L134.9,36.3z M137.3,29.9c0.5,0,0.6-0.3,0.6-0.5c0-0.3-0.1-0.6-0.7-0.7
				c-0.3-0.1-0.8-0.1-1-0.1c-0.4,0-1,0-1.3,0.2c-0.4,0.2-0.4,0.6-0.4,1.1H137.3z"/>
			<path class="st17" d="M143.5,28c0-0.4,0-0.9,0.4-1.2c0.6-0.6,1.6-0.6,2.2-0.6h3.5c1.2,0,2.4,0.1,3.4,0.9c1.1,0.9,1.3,2.1,1.3,3
				v6.2h-3.7v-5.1c0-0.7-0.1-1.3-0.4-1.7c-0.3-0.4-0.8-0.6-1.5-0.6h-0.7c-0.2,0-0.4,0-0.5,0.2c-0.2,0.2-0.2,0.4-0.2,0.6v6.7h-3.7
				L143.5,28L143.5,28z"/>
			<path class="st17" d="M160.1,36.3c-1.5,0-2.8,0-3.6-1.3c-0.4-0.7-0.5-1.8-0.5-3.6c0-1.8-0.1-3.3,0.8-4.3c0.9-1,2.9-1,4.7-1
				c2,0,3.4,0,4.2,0.7c1,0.8,1.1,2.3,1.1,3.4c0,0.6,0,1.4-0.6,1.8c-0.3,0.3-0.6,0.3-1,0.3h-5.5c0,0.3,0,0.6,0.2,0.8
				c0.3,0.5,1,0.5,1.7,0.5h4.9v2.7L160.1,36.3L160.1,36.3z M162.5,29.9c0.5,0,0.6-0.3,0.6-0.5c0-0.3-0.1-0.6-0.7-0.7
				c-0.3-0.1-0.8-0.1-1-0.1c-0.4,0-1,0-1.3,0.2c-0.4,0.2-0.4,0.6-0.4,1.1H162.5z"/>
			<path class="st17" d="M172.4,26.2v5c0,1,0.2,1.4,0.4,1.7c0.4,0.6,1.1,0.6,1.6,0.6h0.7c0.3,0,0.5-0.1,0.6-0.2
				c0.2-0.2,0.2-0.4,0.2-0.6v-6.6h3.7v8c0,0.6-0.1,1.1-0.6,1.6c-0.5,0.4-1.2,0.5-1.6,0.5h-4.6c-1.4,0-2.3-0.4-2.8-0.9
				c-1-0.9-1.3-2.2-1.3-3.7v-5.5L172.4,26.2L172.4,26.2z"/>
			<path class="st17" d="M181.6,30.4c0-1,0.1-2.4,1.2-3.3c1.1-0.9,2.7-1,3.7-1h2.5v2.6h-1.3c-0.7,0-1.4,0.1-1.9,0.7
				c-0.4,0.6-0.5,1.3-0.5,1.9v4.8h-3.7V30.4z"/>
			<path class="st17" d="M190.4,33.6h5.5c0.1,0,0.2,0,0.2-0.1c0.1,0,0.1-0.1,0.1-0.2c0-0.1-0.1-0.2-0.2-0.2
				c-0.1-0.1-0.3-0.1-1.1-0.4l-2.2-0.7c-0.9-0.3-1.7-0.7-2.1-1.3c-0.3-0.5-0.4-1.2-0.4-1.7c0-0.6,0.1-1.3,0.5-1.8
				c0.5-0.8,1.3-1,2.3-1h6.7v2.6h-5.5c-0.1,0-0.3,0-0.4,0c-0.1,0-0.2,0-0.2,0.2c0,0.2,0.1,0.2,0.2,0.2c0.5,0.2,0.3,0.1,0.8,0.3
				l2.5,0.9c1.1,0.4,1.8,0.7,2.3,1.4c0.5,0.7,0.5,1.5,0.5,1.9c0,0.7-0.2,1.6-0.8,2.1c-0.5,0.4-1.1,0.5-1.7,0.5h-7.2L190.4,33.6
				L190.4,33.6z"/>
		</g>
		<g id="_x26__1_">
			<path class="st18" d="M198.4,15.1c0,0.6-0.1,0.8-0.2,0.9c-0.2,0.3-0.7,0.2-0.9,0.2h-3.1c-0.6,0-1.4,0-2-0.7
				c-0.5-0.6-0.6-1.5-0.6-2.1c0-0.6,0-1.2,0.3-1.6c0.2-0.3,0.6-0.6,1.1-0.7v0c-0.2,0-0.7-0.1-1-0.6c-0.4-0.5-0.4-1.2-0.4-1.8
				c0-0.6,0.1-1.5,0.6-2.1c0.3-0.3,0.9-0.6,1.7-0.6h4.4v0.7h-4.3c-0.4,0-0.9,0-1.2,0.4c-0.5,0.4-0.4,1.2-0.4,1.6
				c0,0.5,0,1.2,0.4,1.7c0.3,0.4,1,0.5,1.5,0.5h5.6v0.7h-1.7L198.4,15.1L198.4,15.1z M197.6,15.4c0.1-0.1,0.1-0.3,0.1-0.4v-3.6H194
				c-0.8,0-1.1,0.4-1.2,0.7c-0.2,0.3-0.2,0.8-0.2,1.4c0,0.5,0,1,0.2,1.4c0.4,0.6,1,0.6,1.4,0.6h2.8
				C197.3,15.5,197.5,15.5,197.6,15.4z"/>
		</g>
		<g id="shopping_1_">
			<path class="st17" d="M104.9,13.4h5.5c0.1,0,0.2,0,0.2-0.1c0.1,0,0.1-0.1,0.1-0.2c0-0.1-0.1-0.2-0.2-0.2
				c-0.1-0.1-0.3-0.1-1.1-0.4l-2.2-0.7c-0.9-0.3-1.7-0.7-2.1-1.3c-0.3-0.5-0.4-1.2-0.4-1.7c0-0.6,0.1-1.3,0.5-1.8
				c0.5-0.8,1.3-0.9,2.3-0.9h6.7v2.6h-5.5c-0.1,0-0.3,0-0.4,0c-0.1,0-0.2,0-0.2,0.2c0,0.2,0.1,0.2,0.2,0.2c0.5,0.2,0.3,0.1,0.8,0.3
				l2.5,0.9c1.1,0.4,1.8,0.7,2.3,1.4c0.5,0.7,0.5,1.5,0.5,1.9c0,0.7-0.2,1.6-0.8,2.1c-0.5,0.4-1.1,0.5-1.7,0.5h-7.2L104.9,13.4
				L104.9,13.4z"/>
			<path class="st17" d="M115.5,2.8h3.7V6h2.2c1.1,0,2.3,0,3.4,0.7c0.9,0.7,1.4,1.8,1.4,2.8v6.6h-3.7V11c0-0.5,0-1.2-0.6-1.7
				c-0.5-0.5-1-0.6-1.5-0.6h-1.2v7.4h-3.7V2.8z"/>
			<path class="st17" d="M137.4,7c1.3,1.1,1.3,3.1,1.3,4.1s-0.1,3-1.3,4.1c-1.1,1-2.9,1-4.5,1s-3.4-0.1-4.5-1
				c-1.3-1.1-1.3-3.1-1.3-4.1s0.1-3,1.3-4.1c1.1-1,2.9-1,4.5-1S136.3,6,137.4,7z M131.3,12.8c0.1,0.1,0.5,0.7,1.7,0.7
				c1,0,1.5-0.4,1.6-0.7c0.3-0.4,0.4-1,0.4-1.8c0-1.1-0.2-1.5-0.4-1.8c-0.2-0.2-0.6-0.6-1.7-0.6c-1,0-1.5,0.4-1.7,0.6
				c-0.1,0.2-0.4,0.6-0.4,1.8C130.9,12.2,131.1,12.6,131.3,12.8z"/>
			<path class="st17" d="M143.4,19.3h-3.7V8c0-0.6,0.1-1.1,0.7-1.6c0.5-0.3,0.9-0.4,1.4-0.4h4.7c0.7,0,2,0.1,2.9,1
				c1,1,1.1,2.7,1.1,3.7c0,0.9,0,2.8-0.8,4c-0.9,1.3-2.4,1.4-3.5,1.4h-2.8L143.4,19.3L143.4,19.3z M145,13.4c0.8,0,1.2-0.5,1.4-0.8
				c0.2-0.4,0.2-0.9,0.2-1.6c0-0.6,0-1.1-0.2-1.5c-0.3-0.8-1.1-0.9-1.3-0.9h-1.3c-0.1,0-0.2,0.1-0.3,0.1c-0.1,0.1-0.1,0.2-0.1,0.3
				v4.2L145,13.4L145,13.4z"/>
			<path class="st17" d="M155.1,19.3h-3.7V8c0-0.6,0.1-1.1,0.7-1.6c0.5-0.3,0.9-0.4,1.4-0.4h4.7c0.7,0,2,0.1,2.9,1
				c1,1,1.1,2.7,1.1,3.7c0,0.9,0,2.8-0.8,4c-0.9,1.3-2.4,1.4-3.5,1.4h-2.8L155.1,19.3L155.1,19.3z M156.7,13.4
				c0.8,0,1.2-0.5,1.4-0.8c0.2-0.4,0.2-0.9,0.2-1.6c0-0.6,0-1.1-0.2-1.5c-0.3-0.8-1.1-0.9-1.3-0.9h-1.3c-0.1,0-0.2,0.1-0.3,0.1
				c-0.1,0.1-0.1,0.2-0.1,0.3v4.2L156.7,13.4L156.7,13.4z"/>
			<path class="st17" d="M163,5V2.8h3.7V5H163z M163,6h3.7v10.1H163V6z"/>
			<path class="st17" d="M167.9,7.8c0-0.4,0-0.9,0.4-1.2c0.6-0.6,1.6-0.6,2.2-0.6h3.5c1.2,0,2.4,0.1,3.4,0.9c1.1,0.9,1.3,2.1,1.3,3
				v6.2h-3.7V11c0-0.7-0.1-1.3-0.4-1.7c-0.3-0.4-0.8-0.6-1.5-0.6h-0.7c-0.2,0-0.4,0-0.5,0.2c-0.2,0.2-0.2,0.4-0.2,0.6v6.7h-3.7
				L167.9,7.8L167.9,7.8z"/>
			<path class="st17" d="M180.3,17.1h4.5c0.4,0,1,0,1.4-0.3c0.2-0.2,0.4-0.5,0.4-0.7h-3.2c-1.1,0-2.2-0.1-3-1.3
				c-0.6-0.9-0.8-2.1-0.8-3.8c0-2,0.3-2.9,1-3.8c0.8-0.9,1.6-1.2,3.2-1.2h4.1c0.6,0,1.3,0,1.8,0.5c0.5,0.4,0.6,1.1,0.6,1.5v7
				c0,1.3-0.2,2.4-0.8,3.2c-0.8,1-2,1.3-3.6,1.3h-5.6L180.3,17.1L180.3,17.1z M186.6,9.5c0-0.3,0-0.5-0.3-0.6
				c-0.2-0.1-0.4-0.2-0.6-0.2h-0.4c-0.5,0-1.1,0-1.5,0.6c-0.2,0.2-0.4,0.7-0.4,1.9c0,0.9,0.2,1.4,0.4,1.7c0.5,0.6,1.2,0.5,1.7,0.5
				h1.1L186.6,9.5L186.6,9.5z"/>
		</g>
		<g id="reseau_1_">
			<path class="st18" d="M51.6,9.6c0-1,0.1-1.9,0.9-2.6c0.4-0.4,1.1-0.8,2.5-0.8h0.7V7H55c-0.6,0-1.4,0.1-1.9,0.7
				c-0.4,0.5-0.5,1.3-0.5,2.1v6.4h-1V9.6z"/>
			<g>
				<path class="st18" d="M59.5,16.2c-0.8,0-1.9-0.2-2.7-1.2c-0.8-1-0.8-2.3-0.8-3.8c0-1.4,0.1-3.1,1.3-4.2c0.9-0.8,2.1-0.9,3.2-0.9
					c0.7,0,1.7,0.1,2.6,0.6c0.4,0.2,1.6,1.1,1.6,3.2c0,0.3,0,1-0.4,1.3c-0.3,0.3-0.8,0.3-1.1,0.3h-6.1c0,0.6,0,1.5,0.2,2.1
					c0.2,0.8,0.9,1.7,2.2,1.7h4.9v0.9H59.5z M63.2,10.6c0.4,0,0.4-0.5,0.4-0.7c0-1-0.3-1.7-0.7-2.1C62.2,7,61.2,7,60.4,7
					c-1,0-2.1,0-2.8,1.2c-0.4,0.7-0.5,1.4-0.5,2.4H63.2z"/>
				<path class="st18" d="M58.3,6c-0.4,0.1-0.7,0.3-1,0.5c-0.1,0.1-0.1,0.1-0.2,0.2c0,0,0.2-1.4,0.8-1.9C58.4,4.4,59.1,4,60.4,4h0.7
					v0.9h-0.6c-0.6,0-1.4,0.1-1.9,0.7C58.5,5.7,58.3,6,58.3,6z"/>
			</g>
			<path class="st18" d="M66,15.3h5.8c0.6,0,1-0.2,1.2-0.5c0.2-0.2,0.2-0.8,0.2-1.2c0-0.6-0.2-0.9-0.4-1c-0.3-0.3-0.9-0.5-2.4-0.8
				l-1.7-0.4c-1.5-0.4-2.1-0.9-2.3-1.1c-0.4-0.5-0.6-1.1-0.6-1.7C65.8,8,66,7.5,66.4,7c0.6-0.8,1.5-0.9,2.4-0.9h4.8V7h-5.2
				c-0.2,0-0.8,0-1.1,0.3c-0.3,0.3-0.4,0.9-0.4,1.2c0,0.3,0,0.9,0.4,1.3c0.3,0.3,1.4,0.6,1.7,0.7l1.8,0.4c1.2,0.3,2.1,0.5,2.7,0.9
				c0.6,0.5,0.7,1.1,0.7,1.7c0,0.7-0.1,1.6-0.9,2.1c-0.5,0.3-1.2,0.4-1.6,0.4H66V15.3z"/>
			<path class="st18" d="M78.9,16.2c-0.8,0-1.9-0.2-2.7-1.2c-0.8-1-0.8-2.3-0.8-3.8c0-1.4,0.1-3.1,1.3-4.2c0.9-0.8,2.1-0.9,3.2-0.9
				c0.7,0,1.7,0.1,2.6,0.6c0.4,0.2,1.6,1.1,1.6,3.2c0,0.3,0,1-0.4,1.3c-0.3,0.3-0.8,0.3-1.1,0.3h-6.1c0,0.6,0,1.5,0.2,2.1
				c0.2,0.8,0.9,1.7,2.2,1.7h4.9v0.9H78.9z M82.6,10.6c0.4,0,0.4-0.5,0.4-0.7c0-1-0.3-1.7-0.7-2.1C81.6,7,80.6,7,79.8,7
				c-1,0-2.1,0-2.8,1.2c-0.4,0.7-0.5,1.4-0.5,2.4H82.6z"/>
			<path class="st18" d="M90.9,6.1c0.7,0,1.4,0.3,1.8,0.7c0.5,0.6,0.6,1.4,0.6,2v6c0,0.3,0,0.7-0.3,1c-0.3,0.3-0.8,0.3-1.1,0.3H88
				c-0.6,0-1.3,0-1.8-0.5c-0.8-0.7-0.9-2.1-0.9-2.7c0-0.8,0.1-1.8,0.8-2.4c0.6-0.5,1.3-0.5,1.9-0.5h4.4V8.7c0-0.3-0.1-0.9-0.4-1.2
				C91.7,7.2,91.4,7,90.9,7H86V6.1H90.9z M87.7,11.1c-0.6,0-0.9,0.3-1.1,0.5c-0.2,0.3-0.3,0.9-0.3,1.6c0,0.6,0.1,1.3,0.4,1.7
				c0.2,0.2,0.6,0.4,1,0.4h4.1c0.1,0,0.3,0,0.4-0.1c0.1-0.1,0.1-0.2,0.1-0.3v-3.8H87.7z"/>
			<path class="st18" d="M102.8,15.9c-0.4,0.3-1,0.3-1.5,0.3h-2.7c-1.1,0-1.8-0.1-2.4-0.7c-0.8-0.7-0.8-1.7-0.8-2.4v-7h1v6.7
				c0,1,0.2,1.5,0.4,1.8c0.4,0.6,1.2,0.7,2,0.7h2.8c0.2,0,0.5-0.1,0.7-0.2c0.2-0.2,0.2-0.5,0.2-0.6V6.1h1v8.5
				C103.2,15,103.2,15.6,102.8,15.9z"/>
		</g>
	</g>
</g>
</svg>
