<?xml version="1.0" encoding="utf-8"?>
<!-- Generator: Adobe Illustrator 22.0.1, SVG Export Plug-In . SVG Version: 6.00 Build 0)  -->
<svg version="1.1" id="LOGO_x27_S" xmlns="http://www.w3.org/2000/svg" xmlns:xlink="http://www.w3.org/1999/xlink" x="0px" y="0px"
	 width="42.5px" height="44.5px" viewBox="0 0 42.5 44.5" style="enable-background:new 0 0 42.5 44.5;" xml:space="preserve">
<style type="text/css">
	.st0{fill:url(#SVGID_1_);}
	.st1{fill:url(#SVGID_2_);}
	.st2{clip-path:url(#SVGID_4_);}
	.st3{fill:#EFF0F0;}
	.st4{fill:url(#SVGID_5_);}
	.st5{fill:url(#SVGID_6_);}
	.st6{fill:url(#SVGID_7_);}
	.st7{fill:url(#SVGID_8_);}
</style>
<g id="brand-sadvantage">
</g>
<g id="brand-se_1_">
</g>
<g id="brand-kn_1_">
</g>
<g id="brand-pn_1_">
</g>
<g id="brand-cn_1_">
</g>
<g id="brand-esn_1_">
</g>
<g id="osn-bol">
	<g id="osn-globe">
		
			<radialGradient id="SVGID_1_" cx="346.4424" cy="257.5524" r="16.9904" gradientTransform="matrix(0.9331 0 0 -0.9331 -289.6782 249.8764)" gradientUnits="userSpaceOnUse">
			<stop  offset="0" style="stop-color:#FFFFFF"/>
			<stop  offset="1" style="stop-color:#E0E1E2"/>
		</radialGradient>
		<path class="st0" d="M42.5,22.5c0-11.7-9.5-21.2-21.2-21.2c-5.2,0-9.9,1.9-13.6,4.9l29.9,29.9C40.6,32.4,42.5,27.7,42.5,22.5z"/>
		
			<radialGradient id="SVGID_2_" cx="318.3271" cy="230.7991" r="21.6001" gradientTransform="matrix(0.9331 0 0 -0.9331 -289.6782 249.8764)" gradientUnits="userSpaceOnUse">
			<stop  offset="0" style="stop-color:#FFFFFF"/>
			<stop  offset="1" style="stop-color:#E0E1E2"/>
		</radialGradient>
		<path class="st1" d="M7.6,6.2C3,10.1,0,16,0,22.5c0,11.7,9.5,21.2,21.2,21.2c6.6,0,12.4-3,16.3-7.6L7.6,6.2z"/>
	</g>
	<g id="osn-shadow">
		<g>
			<defs>
				<path id="SVGID_3_" d="M42.5,23.2c-0.4,11.7-10.2,20.9-22,20.5C8.8,43.3-0.4,33.5,0,21.8C0.5,10,10.3,0.9,22,1.3
					C33.7,1.7,42.9,11.5,42.5,23.2z"/>
			</defs>
			<clipPath id="SVGID_4_">
				<use xlink:href="#SVGID_3_"  style="overflow:visible;"/>
			</clipPath>
			<g class="st2">
				<path class="st3" d="M10.6,3.7C3.6,9.3,9,17.5,18,29.3c6.2,8.1,11.3,15.5,3.6,16.2c-1.4,0.1-2.3,0-2.5,0
					c7.7-0.3,2.7-6.6-3.5-14.3c-6-7.6-15.4-18.9-7.6-26.1C8.6,4.5,9.6,4,10.6,3.7"/>
				<g>
					<path class="st3" d="M15.2,1.9c-7.5,3.7-2.1,11.3,4.2,20C28.7,35,33.9,42,26.9,44.5c-1.1,0.4-2.3,0.6-2.9,0.7
						c6.6-2,2.7-7.6-4.1-16.9C11.1,16.4,5.3,6.2,12.3,2.8C13.1,2.4,14.1,2.1,15.2,1.9"/>
					<path class="st3" d="M15.2,1.9c-8.1,3.3-0.8,9.4,7.7,16.4c12.4,10.3,18.2,16,13.1,21c-1.2,1.2-2,1.6-2.4,1.9
						c5.2-4.9-0.1-9.7-12.7-20.4c-8.5-7.3-15.3-14.7-8.5-18C13.2,2.5,14,2.2,15.2,1.9"/>
					<path class="st3" d="M25.1,1.6c-8.9-1.3-3.6,5.8-1.7,8.5c3.1,4.2,6.6,8.1,9.6,12.4c1.1,1.6,2.7,4,3.8,6.6
						c2.4,5.8,0.9,8.4-1.1,10.4c-0.6,0.7-0.8,0.7-0.8,0.7c-0.8,0.7-1.9,1.4-1.9,1.4c4.9-4.2,3.3-10.3-7-23.7
						C19.5,9.5,13.4,0.9,22.5,1.2C23.3,1.2,24.3,1.5,25.1,1.6"/>
				</g>
			</g>
		</g>
	</g>
	<g id="osn">
		
			<radialGradient id="SVGID_5_" cx="341.9677" cy="221.9711" r="42.4309" gradientTransform="matrix(0.9331 0 0 -0.9331 -289.6782 249.8764)" gradientUnits="userSpaceOnUse">
			<stop  offset="0" style="stop-color:#E19526"/>
			<stop  offset="0.1424" style="stop-color:#E49925"/>
			<stop  offset="0.3045" style="stop-color:#EDA524"/>
			<stop  offset="0.456" style="stop-color:#FCB721"/>
			<stop  offset="0.5158" style="stop-color:#FBB726;stop-opacity:0.9506"/>
			<stop  offset="0.5703" style="stop-color:#F7B734;stop-opacity:0.9055"/>
			<stop  offset="0.6228" style="stop-color:#F2B747;stop-opacity:0.8621"/>
			<stop  offset="0.6737" style="stop-color:#EBB95F;stop-opacity:0.8199"/>
			<stop  offset="0.6978" style="stop-color:#E7B96C;stop-opacity:0.8"/>
			<stop  offset="0.7702" style="stop-color:#E8B969;stop-opacity:0.8479"/>
			<stop  offset="0.8393" style="stop-color:#EBB95F;stop-opacity:0.8937"/>
			<stop  offset="0.9071" style="stop-color:#F0B84E;stop-opacity:0.9385"/>
			<stop  offset="0.9737" style="stop-color:#F8B732;stop-opacity:0.9826"/>
			<stop  offset="1" style="stop-color:#FCB721"/>
		</radialGradient>
		<path class="st4" d="M10.6,2.9c-6.8,5.9-1.1,13.8,8.3,25.4c6.4,7.9,11.8,15.1,4.2,16.1c-1.4,0.2-2.3,0-2.5,0.1
			c7.7-0.5,2.5-6.7-4-14.2C10.3,22.9,0.5,11.8,8,4.4C8.7,3.8,9.6,3.3,10.6,2.9"/>
		<g>
			
				<radialGradient id="SVGID_6_" cx="341.9669" cy="221.9462" r="42.4365" gradientTransform="matrix(0.9331 0 0 -0.9331 -289.6782 249.8764)" gradientUnits="userSpaceOnUse">
				<stop  offset="0" style="stop-color:#4C4F53"/>
				<stop  offset="0.1155" style="stop-color:#4F5255"/>
				<stop  offset="0.2472" style="stop-color:#585B5E"/>
				<stop  offset="0.3862" style="stop-color:#67696D"/>
				<stop  offset="0.456" style="stop-color:#717377"/>
				<stop  offset="0.5278" style="stop-color:#75767A"/>
				<stop  offset="0.5932" style="stop-color:#7F7F83"/>
				<stop  offset="0.656" style="stop-color:#919093"/>
				<stop  offset="0.6978" style="stop-color:#A4A2A5"/>
				<stop  offset="0.7651" style="stop-color:#9E9D9F"/>
				<stop  offset="0.8293" style="stop-color:#919092"/>
				<stop  offset="0.8922" style="stop-color:#7C7C7F"/>
				<stop  offset="0.9541" style="stop-color:#626467"/>
				<stop  offset="1" style="stop-color:#4C4F53"/>
			</radialGradient>
			<path class="st5" d="M15.2,1c-7.4,4-1.7,11.3,4.9,19.9c9.8,12.7,15.2,19.5,8.3,22.2c-1.1,0.4-2.3,0.6-2.9,0.8
				c6.6-2.2,2.5-7.7-4.7-16.7C11.5,15.5,5.5,5.6,12.3,2C13.1,1.5,14.1,1.2,15.2,1"/>
			
				<radialGradient id="SVGID_7_" cx="449.9802" cy="702.1433" r="42.4132" gradientTransform="matrix(0.9102 -0.2051 -0.2058 -0.9132 -231.1395 774.142)" gradientUnits="userSpaceOnUse">
				<stop  offset="0" style="stop-color:#4C4F53;stop-opacity:0.85"/>
				<stop  offset="0.1155" style="stop-color:#4F5255;stop-opacity:0.888"/>
				<stop  offset="0.2472" style="stop-color:#585B5E;stop-opacity:0.9313"/>
				<stop  offset="0.3862" style="stop-color:#67696D;stop-opacity:0.977"/>
				<stop  offset="0.456" style="stop-color:#717377"/>
				<stop  offset="0.5278" style="stop-color:#75767A"/>
				<stop  offset="0.5932" style="stop-color:#7F7F83"/>
				<stop  offset="0.656" style="stop-color:#919093"/>
				<stop  offset="0.6978" style="stop-color:#A4A2A5"/>
				<stop  offset="0.7651" style="stop-color:#9E9D9F"/>
				<stop  offset="0.8293" style="stop-color:#919092"/>
				<stop  offset="0.8922" style="stop-color:#7C7C7F"/>
				<stop  offset="0.9541" style="stop-color:#626467"/>
				<stop  offset="1" style="stop-color:#4C4F53"/>
			</radialGradient>
			<path class="st6" d="M15.4,0.9c-7.8,3.6-0.4,9.4,8.1,16.2C36,27.1,41.9,32.6,37.1,37.8c-1.1,1.2-1.9,1.6-2.3,2
				c4.9-5-0.5-9.7-13.2-20C13,12.7,6,5.5,12.6,2C13.4,1.6,14.2,1.2,15.4,0.9"/>
			
				<radialGradient id="SVGID_8_" cx="341.9575" cy="221.947" r="42.4073" gradientTransform="matrix(0.9331 0 0 -0.9331 -289.6782 249.8764)" gradientUnits="userSpaceOnUse">
				<stop  offset="0" style="stop-color:#4C4F53"/>
				<stop  offset="0.1155" style="stop-color:#4F5255"/>
				<stop  offset="0.2472" style="stop-color:#585B5E"/>
				<stop  offset="0.3862" style="stop-color:#67696D"/>
				<stop  offset="0.456" style="stop-color:#717377"/>
				<stop  offset="0.5278" style="stop-color:#75767A"/>
				<stop  offset="0.5932" style="stop-color:#7F7F83"/>
				<stop  offset="0.656" style="stop-color:#919093"/>
				<stop  offset="0.6978" style="stop-color:#A4A2A5"/>
				<stop  offset="0.7651" style="stop-color:#9E9D9F"/>
				<stop  offset="0.8293" style="stop-color:#919092"/>
				<stop  offset="0.8922" style="stop-color:#7C7C7F"/>
				<stop  offset="0.9541" style="stop-color:#626467"/>
				<stop  offset="1" style="stop-color:#4C4F53"/>
			</radialGradient>
			<path class="st7" d="M25.1,0.3c-8.9-1-3.4,6-1.4,8.6C27,13,30.6,16.8,33.8,21c1.2,1.6,2.8,3.9,4,6.4c2.6,5.7,1.2,8.3-0.7,10.4
				c-0.6,0.7-0.8,0.8-0.8,0.8c-0.8,0.7-1.9,1.4-1.9,1.4c4.7-4.4,2.9-10.4-7.8-23.4C19.7,8.4,13.4,0,22.5,0C23.3,0,24.3,0.3,25.1,0.3
				"/>
		</g>
	</g>
</g>
</svg>
