<?xml version="1.0" encoding="utf-8"?>
<!-- Generator: Adobe Illustrator 22.0.1, SVG Export Plug-In . SVG Version: 6.00 Build 0)  -->
<svg version="1.1" id="LOGO_x27_S" xmlns="http://www.w3.org/2000/svg" xmlns:xlink="http://www.w3.org/1999/xlink" x="0px" y="0px"
	 width="42.5px" height="44.5px" viewBox="0 0 42.5 44.5" enable-background="new 0 0 42.5 44.5" xml:space="preserve">
<g id="osn-bol">
	<g display="none">
		<path display="inline" fill="#FFFFFF" d="M33.956,48.805c0,1.009-5.677,1.826-12.677,1.826c-7.002,0-12.679-0.817-12.679-1.826
			c0-1.008,5.677-1.826,12.679-1.826C28.279,46.979,33.956,47.797,33.956,48.805z"/>
		<path display="inline" fill="#FFFFFF" d="M21.279,50.623c-6.971,0-12.622-0.813-12.622-1.818c0-1.004,5.652-1.818,12.622-1.818
			c6.969,0,12.62,0.814,12.62,1.818C33.899,49.81,28.247,50.623,21.279,50.623z"/>
		<path display="inline" fill="#FEFEFE" d="M21.279,50.615c-6.939,0-12.565-0.809-12.565-1.809c0-0.999,5.626-1.809,12.565-1.809
			c6.937,0,12.563,0.81,12.563,1.809C33.842,49.805,28.216,50.615,21.279,50.615z"/>
		<path display="inline" fill="#FEFEFE" d="M21.279,50.606c-6.908,0-12.508-0.806-12.508-1.801c0-0.994,5.6-1.801,12.508-1.801
			c6.906,0,12.506,0.807,12.506,1.801C33.785,49.801,28.184,50.606,21.279,50.606z"/>
		<path display="inline" fill="#FEFEFE" d="M21.279,50.598c-6.876,0-12.451-0.802-12.451-1.792c0-0.99,5.575-1.792,12.451-1.792
			c6.874,0,12.449,0.803,12.449,1.792C33.728,49.796,28.153,50.598,21.279,50.598z"/>
		<path display="inline" fill="#FEFEFE" d="M21.279,50.589c-6.845,0-12.394-0.798-12.394-1.784c0-0.985,5.549-1.784,12.394-1.784
			c6.843,0,12.392,0.799,12.392,1.784C33.67,49.791,28.121,50.589,21.279,50.589z"/>
		<path display="inline" fill="#FDFDFD" d="M21.279,50.581c-6.813,0-12.337-0.794-12.337-1.775c0-0.98,5.524-1.775,12.337-1.775
			c6.811,0,12.335,0.795,12.335,1.775C33.613,49.787,28.09,50.581,21.279,50.581z"/>
		<path display="inline" fill="#FDFDFD" d="M21.279,50.572c-6.782,0-12.28-0.79-12.28-1.767c0-0.976,5.498-1.767,12.28-1.767
			c6.78,0,12.278,0.791,12.278,1.767C33.556,49.782,28.058,50.572,21.279,50.572z"/>
		<path display="inline" fill="#FDFDFD" d="M21.279,50.564c-6.75,0-12.223-0.787-12.223-1.759c0-0.971,5.473-1.759,12.223-1.759
			c6.748,0,12.221,0.788,12.221,1.759C33.499,49.777,28.027,50.564,21.279,50.564z"/>
		<path display="inline" fill="#FDFDFD" d="M21.279,50.555c-6.719,0-12.165-0.783-12.165-1.75c0-0.966,5.447-1.75,12.165-1.75
			c6.716,0,12.164,0.784,12.164,1.75C33.442,49.773,27.995,50.555,21.279,50.555z"/>
		<path display="inline" fill="#FCFCFC" d="M21.279,50.547c-6.687,0-12.108-0.779-12.108-1.742c0-0.962,5.421-1.742,12.108-1.742
			c6.685,0,12.106,0.78,12.106,1.742C33.385,49.768,27.964,50.547,21.279,50.547z"/>
		<path display="inline" fill="#FCFCFC" d="M21.279,50.539c-6.655,0-12.051-0.775-12.051-1.733c0-0.957,5.396-1.733,12.051-1.733
			c6.653,0,12.049,0.776,12.049,1.733C33.328,49.763,27.932,50.539,21.279,50.539z"/>
		<path display="inline" fill="#FCFCFC" d="M21.279,50.53c-6.624,0-11.994-0.771-11.994-1.725c0-0.952,5.37-1.725,11.994-1.725
			c6.622,0,11.992,0.772,11.992,1.725C33.271,49.759,27.9,50.53,21.279,50.53z"/>
		<path display="inline" fill="#FBFBFC" d="M21.279,50.522c-6.592,0-11.937-0.768-11.937-1.716c0-0.947,5.345-1.716,11.937-1.716
			c6.59,0,11.935,0.769,11.935,1.716C33.214,49.754,27.869,50.522,21.279,50.522z"/>
		<path display="inline" fill="#FBFBFB" d="M21.279,50.513c-6.561,0-11.88-0.764-11.88-1.708c0-0.943,5.319-1.708,11.88-1.708
			c6.559,0,11.878,0.765,11.878,1.708C33.157,49.749,27.837,50.513,21.279,50.513z"/>
		<path display="inline" fill="#FBFBFB" d="M21.279,50.505c-6.529,0-11.823-0.76-11.823-1.699c0-0.938,5.294-1.699,11.823-1.699
			c6.527,0,11.821,0.761,11.821,1.699C33.1,49.745,27.806,50.505,21.279,50.505z"/>
		<path display="inline" fill="#FBFBFB" d="M21.279,50.496c-6.498,0-11.766-0.756-11.766-1.691c0-0.933,5.268-1.691,11.766-1.691
			c6.496,0,11.764,0.757,11.764,1.691C33.043,49.74,27.774,50.496,21.279,50.496z"/>
		<path display="inline" fill="#FAFAFB" d="M21.279,50.488c-6.466,0-11.709-0.752-11.709-1.682c0-0.929,5.242-1.682,11.709-1.682
			c6.464,0,11.707,0.754,11.707,1.682C32.985,49.735,27.743,50.488,21.279,50.488z"/>
		<path display="inline" fill="#FAFAFA" d="M21.279,50.479c-6.435,0-11.652-0.749-11.652-1.674c0-0.924,5.217-1.674,11.652-1.674
			c6.433,0,11.65,0.75,11.65,1.674C32.928,49.731,27.711,50.479,21.279,50.479z"/>
		<path display="inline" fill="#FAFAFA" d="M21.279,50.471c-6.403,0-11.595-0.745-11.595-1.665c0-0.919,5.191-1.665,11.595-1.665
			c6.401,0,11.593,0.746,11.593,1.665C32.871,49.726,27.68,50.471,21.279,50.471z"/>
		<path display="inline" fill="#F9FAFA" d="M21.279,50.462c-6.372,0-11.538-0.741-11.538-1.657c0-0.915,5.166-1.657,11.538-1.657
			c6.37,0,11.536,0.742,11.536,1.657C32.814,49.721,27.648,50.462,21.279,50.462z"/>
		<path display="inline" fill="#F9F9FA" d="M21.279,50.454c-6.34,0-11.48-0.737-11.48-1.648c0-0.91,5.14-1.648,11.48-1.648
			c6.338,0,11.479,0.738,11.479,1.648C32.757,49.717,27.617,50.454,21.279,50.454z"/>
		<path display="inline" fill="#F9F9F9" d="M21.279,50.445c-6.309,0-11.423-0.733-11.423-1.64c0-0.905,5.115-1.64,11.423-1.64
			c6.307,0,11.421,0.735,11.421,1.64C32.7,49.712,27.585,50.445,21.279,50.445z"/>
		<path display="inline" fill="#F9F9F9" d="M21.279,50.437c-6.277,0-11.366-0.73-11.366-1.631c0-0.901,5.089-1.631,11.366-1.631
			c6.275,0,11.364,0.731,11.364,1.631C32.643,49.707,27.554,50.437,21.279,50.437z"/>
		<path display="inline" fill="#F8F9F9" d="M21.279,50.428c-6.246,0-11.309-0.726-11.309-1.623c0-0.896,5.064-1.623,11.309-1.623
			c6.244,0,11.307,0.727,11.307,1.623C32.586,49.703,27.522,50.428,21.279,50.428z"/>
		<path display="inline" fill="#F8F8F8" d="M21.279,50.42c-6.214,0-11.252-0.722-11.252-1.615c0-0.891,5.038-1.615,11.252-1.615
			c6.212,0,11.25,0.723,11.25,1.615C32.529,49.698,27.491,50.42,21.279,50.42z"/>
		<path display="inline" fill="#F8F8F8" d="M21.279,50.411c-6.183,0-11.195-0.718-11.195-1.606c0-0.887,5.012-1.606,11.195-1.606
			c6.181,0,11.193,0.719,11.193,1.606C32.472,49.693,27.459,50.411,21.279,50.411z"/>
		<path display="inline" fill="#F8F8F8" d="M21.279,50.403c-6.151,0-11.138-0.714-11.138-1.598c0-0.882,4.987-1.598,11.138-1.598
			c6.149,0,11.136,0.716,11.136,1.598C32.415,49.689,27.428,50.403,21.279,50.403z"/>
		<path display="inline" fill="#F7F7F8" d="M21.279,50.395c-6.12,0-11.081-0.711-11.081-1.589c0-0.877,4.961-1.589,11.081-1.589
			c6.118,0,11.079,0.712,11.079,1.589C32.358,49.684,27.396,50.395,21.279,50.395z"/>
		<path display="inline" fill="#F7F7F7" d="M21.279,50.386c-6.088,0-11.024-0.707-11.024-1.581c0-0.873,4.936-1.581,11.024-1.581
			c6.086,0,11.022,0.708,11.022,1.581C32.3,49.679,27.365,50.386,21.279,50.386z"/>
		<path display="inline" fill="#F7F7F7" d="M21.279,50.378c-6.057,0-10.967-0.703-10.967-1.572c0-0.868,4.91-1.572,10.967-1.572
			c6.054,0,10.965,0.704,10.965,1.572C32.243,49.675,27.333,50.378,21.279,50.378z"/>
		<path display="inline" fill="#F6F7F7" d="M21.279,50.369c-6.025,0-10.91-0.699-10.91-1.564c0-0.863,4.885-1.564,10.91-1.564
			c6.023,0,10.908,0.7,10.908,1.564C32.186,49.67,27.302,50.369,21.279,50.369z"/>
		<path display="inline" fill="#F6F6F7" d="M21.279,50.361c-5.994,0-10.853-0.696-10.853-1.555c0-0.859,4.859-1.555,10.853-1.555
			c5.991,0,10.851,0.697,10.851,1.555C32.129,49.665,27.27,50.361,21.279,50.361z"/>
		<path display="inline" fill="#F6F6F6" d="M21.279,50.352c-5.962,0-10.795-0.692-10.795-1.547c0-0.854,4.833-1.547,10.795-1.547
			c5.96,0,10.794,0.693,10.794,1.547C32.072,49.66,27.239,50.352,21.279,50.352z"/>
		<path display="inline" fill="#F6F6F6" d="M21.279,50.344c-5.931,0-10.738-0.688-10.738-1.538c0-0.849,4.808-1.538,10.738-1.538
			c5.928,0,10.736,0.689,10.736,1.538C32.015,49.656,27.207,50.344,21.279,50.344z"/>
		<path display="inline" fill="#F5F6F6" d="M21.279,50.335c-5.899,0-10.681-0.684-10.681-1.53c0-0.845,4.782-1.53,10.681-1.53
			c5.897,0,10.679,0.685,10.679,1.53C31.958,49.651,27.175,50.335,21.279,50.335z"/>
		<path display="inline" fill="#F5F5F6" d="M21.279,50.327c-5.868,0-10.624-0.68-10.624-1.521c0-0.84,4.757-1.521,10.624-1.521
			c5.865,0,10.622,0.682,10.622,1.521C31.901,49.646,27.144,50.327,21.279,50.327z"/>
		<path display="inline" fill="#F5F5F5" d="M21.279,50.318c-5.836,0-10.567-0.677-10.567-1.513c0-0.835,4.731-1.513,10.567-1.513
			c5.834,0,10.565,0.678,10.565,1.513C31.844,49.642,27.112,50.318,21.279,50.318z"/>
		<path display="inline" fill="#F4F5F5" d="M21.279,50.31c-5.804,0-10.51-0.673-10.51-1.504c0-0.831,4.706-1.504,10.51-1.504
			c5.802,0,10.508,0.674,10.508,1.504C31.787,49.637,27.081,50.31,21.279,50.31z"/>
		<path display="inline" fill="#F4F4F5" d="M21.279,50.301c-5.773,0-10.453-0.669-10.453-1.496c0-0.826,4.68-1.496,10.453-1.496
			c5.771,0,10.451,0.67,10.451,1.496C31.73,49.632,27.049,50.301,21.279,50.301z"/>
		<path display="inline" fill="#F4F4F5" d="M21.279,50.293c-5.741,0-10.396-0.665-10.396-1.487c0-0.821,4.654-1.487,10.396-1.487
			c5.739,0,10.394,0.666,10.394,1.487C31.673,49.628,27.018,50.293,21.279,50.293z"/>
		<path display="inline" fill="#F4F4F4" d="M21.279,50.284c-5.71,0-10.339-0.661-10.339-1.479c0-0.816,4.629-1.479,10.339-1.479
			c5.708,0,10.337,0.663,10.337,1.479C31.616,49.623,26.986,50.284,21.279,50.284z"/>
		<path display="inline" fill="#F3F4F4" d="M21.279,50.276c-5.678,0-10.282-0.658-10.282-1.471c0-0.812,4.603-1.471,10.282-1.471
			c5.676,0,10.28,0.659,10.28,1.471C31.558,49.618,26.955,50.276,21.279,50.276z"/>
		<path display="inline" fill="#F3F3F4" d="M21.279,50.268c-5.647,0-10.225-0.654-10.225-1.462c0-0.807,4.578-1.462,10.225-1.462
			c5.645,0,10.223,0.655,10.223,1.462C31.501,49.614,26.923,50.268,21.279,50.268z"/>
		<path display="inline" fill="#F3F3F3" d="M21.279,50.259c-5.615,0-10.168-0.65-10.168-1.454c0-0.802,4.552-1.454,10.168-1.454
			c5.613,0,10.166,0.651,10.166,1.454C31.444,49.609,26.892,50.259,21.279,50.259z"/>
		<path display="inline" fill="#F3F3F3" d="M21.279,50.251c-5.584,0-10.11-0.646-10.11-1.445c0-0.798,4.527-1.445,10.11-1.445
			c5.582,0,10.109,0.647,10.109,1.445C31.387,49.604,26.86,50.251,21.279,50.251z"/>
		<path display="inline" fill="#F2F3F3" d="M21.279,50.242c-5.552,0-10.053-0.642-10.053-1.437c0-0.793,4.501-1.437,10.053-1.437
			c5.55,0,10.052,0.644,10.052,1.437C31.33,49.6,26.829,50.242,21.279,50.242z"/>
		<path display="inline" fill="#F2F2F3" d="M21.279,50.234c-5.521,0-9.996-0.639-9.996-1.428c0-0.788,4.475-1.428,9.996-1.428
			c5.519,0,9.994,0.64,9.994,1.428C31.273,49.595,26.797,50.234,21.279,50.234z"/>
		<path display="inline" fill="#F2F2F2" d="M21.279,50.225c-5.489,0-9.939-0.635-9.939-1.42c0-0.784,4.45-1.42,9.939-1.42
			c5.487,0,9.937,0.636,9.937,1.42C31.216,49.59,26.766,50.225,21.279,50.225z"/>
		<path display="inline" fill="#F1F2F2" d="M21.279,50.217c-5.458,0-9.882-0.631-9.882-1.411c0-0.779,4.424-1.411,9.882-1.411
			c5.456,0,9.88,0.632,9.88,1.411C31.159,49.586,26.734,50.217,21.279,50.217z"/>
		<path display="inline" fill="#F1F2F2" d="M21.279,50.208c-5.426,0-9.825-0.627-9.825-1.403c0-0.774,4.399-1.403,9.825-1.403
			c5.424,0,9.823,0.628,9.823,1.403C31.102,49.581,26.703,50.208,21.279,50.208z"/>
		<path display="inline" fill="#F1F1F2" d="M21.279,50.2c-5.395,0-9.768-0.623-9.768-1.394c0-0.77,4.373-1.394,9.768-1.394
			c5.393,0,9.766,0.625,9.766,1.394C31.045,49.576,26.671,50.2,21.279,50.2z"/>
		<path display="inline" fill="#F1F1F1" d="M21.279,50.191c-5.363,0-9.711-0.62-9.711-1.386c0-0.765,4.348-1.386,9.711-1.386
			c5.361,0,9.709,0.621,9.709,1.386C30.988,49.572,26.64,50.191,21.279,50.191z"/>
		<path display="inline" fill="#F0F1F1" d="M21.279,50.183c-5.332,0-9.654-0.616-9.654-1.377c0-0.76,4.322-1.377,9.654-1.377
			c5.329,0,9.652,0.617,9.652,1.377C30.931,49.567,26.608,50.183,21.279,50.183z"/>
		<path display="inline" fill="#F0F0F1" d="M21.279,50.174c-5.3,0-9.597-0.612-9.597-1.369c0-0.756,4.297-1.369,9.597-1.369
			c5.298,0,9.595,0.613,9.595,1.369C30.873,49.562,26.577,50.174,21.279,50.174z"/>
		<path display="inline" fill="#F0F0F1" d="M21.279,50.166c-5.269,0-9.54-0.608-9.54-1.36c0-0.751,4.271-1.36,9.54-1.36
			c5.266,0,9.538,0.61,9.538,1.36C30.816,49.558,26.545,50.166,21.279,50.166z"/>
		<path display="inline" fill="#F0F0F0" d="M21.279,50.157c-5.237,0-9.483-0.604-9.483-1.352c0-0.746,4.245-1.352,9.483-1.352
			c5.235,0,9.481,0.606,9.481,1.352C30.759,49.553,26.513,50.157,21.279,50.157z"/>
		<path display="inline" fill="#EFF0F0" d="M21.279,50.149c-5.206,0-9.425-0.601-9.425-1.344c0-0.742,4.22-1.344,9.425-1.344
			c5.203,0,9.424,0.602,9.424,1.344C30.702,49.548,26.482,50.149,21.279,50.149z"/>
		<path display="inline" fill="#EFEFF0" d="M21.279,50.14c-5.174,0-9.368-0.597-9.368-1.335c0-0.737,4.194-1.335,9.368-1.335
			c5.172,0,9.367,0.598,9.367,1.335C30.645,49.544,26.45,50.14,21.279,50.14z"/>
		<path display="inline" fill="#EFEFF0" d="M21.279,50.132c-5.143,0-9.311-0.593-9.311-1.327c0-0.732,4.169-1.327,9.311-1.327
			c5.14,0,9.309,0.594,9.309,1.327C30.588,49.539,26.419,50.132,21.279,50.132z"/>
		<path display="inline" fill="#EEEFEF" d="M21.279,50.124c-5.111,0-9.254-0.589-9.254-1.318c0-0.728,4.143-1.318,9.254-1.318
			c5.109,0,9.252,0.591,9.252,1.318C30.531,49.534,26.387,50.124,21.279,50.124z"/>
		<path display="inline" fill="#EEEFEF" d="M21.279,50.115c-5.08,0-9.197-0.585-9.197-1.31c0-0.723,4.118-1.31,9.197-1.31
			c5.077,0,9.195,0.587,9.195,1.31C30.474,49.53,26.356,50.115,21.279,50.115z"/>
		<path display="inline" fill="#EEEEEF" d="M21.279,50.107c-5.048,0-9.14-0.582-9.14-1.301c0-0.718,4.092-1.301,9.14-1.301
			c5.046,0,9.138,0.583,9.138,1.301C30.417,49.525,26.324,50.107,21.279,50.107z"/>
		<path display="inline" fill="#EEEEEF" d="M21.279,50.098c-5.017,0-9.083-0.578-9.083-1.293c0-0.714,4.066-1.293,9.083-1.293
			c5.014,0,9.081,0.579,9.081,1.293C30.36,49.52,26.293,50.098,21.279,50.098z"/>
		<path display="inline" fill="#EDEEEE" d="M21.279,50.09c-4.985,0-9.026-0.574-9.026-1.284c0-0.709,4.041-1.284,9.026-1.284
			c4.983,0,9.024,0.575,9.024,1.284C30.303,49.516,26.261,50.09,21.279,50.09z"/>
		<path display="inline" fill="#EDEDEE" d="M21.279,50.081c-4.954,0-8.969-0.57-8.969-1.276c0-0.704,4.015-1.276,8.969-1.276
			c4.951,0,8.967,0.572,8.967,1.276C30.246,49.511,26.23,50.081,21.279,50.081z"/>
		<path display="inline" fill="#EDEDEE" d="M21.279,50.073c-4.922,0-8.912-0.566-8.912-1.267c0-0.699,3.99-1.267,8.912-1.267
			c4.92,0,8.91,0.568,8.91,1.267C30.188,49.506,26.198,50.073,21.279,50.073z"/>
		<path display="inline" fill="#ECEDED" d="M21.279,50.064c-4.89,0-8.855-0.563-8.855-1.259c0-0.695,3.964-1.259,8.855-1.259
			c4.888,0,8.853,0.564,8.853,1.259C30.131,49.502,26.167,50.064,21.279,50.064z"/>
		<path display="inline" fill="#ECEDED" d="M21.279,50.056c-4.859,0-8.798-0.559-8.798-1.25c0-0.69,3.939-1.25,8.798-1.25
			c4.857,0,8.796,0.56,8.796,1.25C30.074,49.497,26.135,50.056,21.279,50.056z"/>
		<path display="inline" fill="#ECECED" d="M21.279,50.047c-4.827,0-8.74-0.555-8.74-1.242c0-0.685,3.913-1.242,8.74-1.242
			c4.825,0,8.739,0.556,8.739,1.242C30.017,49.492,26.104,50.047,21.279,50.047z"/>
		<path display="inline" fill="#ECECED" d="M21.279,50.039c-4.796,0-8.683-0.551-8.683-1.233c0-0.681,3.887-1.233,8.683-1.233
			c4.794,0,8.682,0.553,8.682,1.233C29.96,49.488,26.072,50.039,21.279,50.039z"/>
		<path display="inline" fill="#EBECEC" d="M21.279,50.03c-4.764,0-8.626-0.548-8.626-1.225c0-0.676,3.862-1.225,8.626-1.225
			c4.762,0,8.624,0.549,8.624,1.225C29.903,49.483,26.041,50.03,21.279,50.03z"/>
		<path display="inline" fill="#EBECEC" d="M21.279,50.022c-4.733,0-8.569-0.544-8.569-1.216c0-0.671,3.836-1.216,8.569-1.216
			c4.731,0,8.567,0.545,8.567,1.216C29.846,49.478,26.009,50.022,21.279,50.022z"/>
		<path display="inline" fill="#EBEBEC" d="M21.279,50.013c-4.701,0-8.512-0.54-8.512-1.208c0-0.667,3.811-1.208,8.512-1.208
			c4.699,0,8.51,0.541,8.51,1.208C29.789,49.474,25.978,50.013,21.279,50.013z"/>
		<path display="inline" fill="#EBEBEC" d="M21.279,50.005c-4.67,0-8.455-0.536-8.455-1.2c0-0.662,3.785-1.2,8.455-1.2
			c4.667,0,8.453,0.538,8.453,1.2C29.732,49.469,25.946,50.005,21.279,50.005z"/>
		<path display="inline" fill="#EAEBEB" d="M21.279,49.997c-4.638,0-8.398-0.532-8.398-1.191c0-0.657,3.76-1.191,8.398-1.191
			c4.636,0,8.396,0.534,8.396,1.191C29.675,49.464,25.915,49.997,21.279,49.997z"/>
		<path display="inline" fill="#EAEAEB" d="M21.279,49.988c-4.607,0-8.341-0.529-8.341-1.183c0-0.653,3.734-1.183,8.341-1.183
			c4.604,0,8.339,0.53,8.339,1.183C29.618,49.459,25.883,49.988,21.279,49.988z"/>
		<path display="inline" fill="#EAEAEB" d="M21.279,49.98c-4.575,0-8.284-0.525-8.284-1.174c0-0.648,3.709-1.174,8.284-1.174
			c4.573,0,8.282,0.526,8.282,1.174C29.561,49.455,25.852,49.98,21.279,49.98z"/>
		<path display="inline" fill="#E9EAEB" d="M21.279,49.971c-4.544,0-8.227-0.521-8.227-1.166c0-0.643,3.683-1.166,8.227-1.166
			c4.541,0,8.225,0.522,8.225,1.166C29.504,49.45,25.82,49.971,21.279,49.971z"/>
		<path display="inline" fill="#E9EAEA" d="M21.279,49.963c-4.512,0-8.17-0.517-8.17-1.157c0-0.639,3.657-1.157,8.17-1.157
			c4.51,0,8.168,0.519,8.168,1.157C29.446,49.445,25.788,49.963,21.279,49.963z"/>
		<path display="inline" fill="#E9E9EA" d="M21.279,49.954c-4.481,0-8.113-0.513-8.113-1.149c0-0.634,3.632-1.149,8.113-1.149
			c4.478,0,8.111,0.515,8.111,1.149C29.389,49.441,25.757,49.954,21.279,49.954z"/>
		<path display="inline" fill="#E9E9EA" d="M21.279,49.946c-4.449,0-8.055-0.51-8.055-1.14c0-0.629,3.606-1.14,8.055-1.14
			c4.447,0,8.054,0.511,8.054,1.14C29.332,49.436,25.725,49.946,21.279,49.946z"/>
		<path display="inline" fill="#E8E9EA" d="M21.279,49.937c-4.418,0-7.998-0.506-7.998-1.132c0-0.625,3.581-1.132,7.998-1.132
			c4.415,0,7.997,0.507,7.997,1.132C29.275,49.431,25.694,49.937,21.279,49.937z"/>
		<path display="inline" fill="#E8E9E9" d="M21.279,49.929c-4.386,0-7.941-0.502-7.941-1.123c0-0.62,3.555-1.123,7.941-1.123
			c4.384,0,7.94,0.503,7.94,1.123C29.218,49.427,25.662,49.929,21.279,49.929z"/>
		<path display="inline" fill="#E8E8E9" d="M21.279,49.92c-4.355,0-7.884-0.498-7.884-1.115c0-0.615,3.53-1.115,7.884-1.115
			c4.352,0,7.882,0.5,7.882,1.115C29.161,49.422,25.631,49.92,21.279,49.92z"/>
		<path display="inline" fill="#E8E8E9" d="M21.279,49.912c-4.323,0-7.827-0.494-7.827-1.106c0-0.611,3.504-1.106,7.827-1.106
			c4.321,0,7.825,0.496,7.825,1.106C29.104,49.417,25.599,49.912,21.279,49.912z"/>
		<path display="inline" fill="#E7E8E9" d="M21.279,49.903c-4.292,0-7.77-0.491-7.77-1.098c0-0.606,3.478-1.098,7.77-1.098
			c4.289,0,7.768,0.492,7.768,1.098C29.047,49.413,25.568,49.903,21.279,49.903z"/>
		<path display="inline" fill="#E7E8E8" d="M21.279,49.895c-4.26,0-7.713-0.487-7.713-1.089c0-0.601,3.453-1.089,7.713-1.089
			c4.258,0,7.711,0.488,7.711,1.089C28.99,49.408,25.536,49.895,21.279,49.895z"/>
		<path display="inline" fill="#E7E7E8" d="M21.279,49.886c-4.229,0-7.656-0.483-7.656-1.081c0-0.597,3.427-1.081,7.656-1.081
			c4.226,0,7.654,0.484,7.654,1.081C28.933,49.403,25.505,49.886,21.279,49.886z"/>
		<path display="inline" fill="#E6E7E8" d="M21.279,49.878c-4.197,0-7.599-0.479-7.599-1.073c0-0.592,3.402-1.073,7.599-1.073
			c4.195,0,7.597,0.481,7.597,1.073C28.876,49.399,25.473,49.878,21.279,49.878z"/>
		<path display="inline" fill="#E6E7E7" d="M21.279,49.869c-4.166,0-7.542-0.475-7.542-1.064c0-0.587,3.376-1.064,7.542-1.064
			c4.163,0,7.54,0.477,7.54,1.064C28.819,49.394,25.442,49.869,21.279,49.869z"/>
		<path display="inline" fill="#E6E6E7" d="M21.279,49.861c-4.134,0-7.485-0.472-7.485-1.056c0-0.582,3.351-1.056,7.485-1.056
			c4.132,0,7.483,0.473,7.483,1.056C28.761,49.389,25.41,49.861,21.279,49.861z"/>
		<path display="inline" fill="#E6E6E7" d="M21.279,49.853c-4.103,0-7.428-0.468-7.428-1.047c0-0.578,3.325-1.047,7.428-1.047
			c4.1,0,7.426,0.469,7.426,1.047C28.704,49.385,25.379,49.853,21.279,49.853z"/>
		<path display="inline" fill="#E5E6E7" d="M21.279,49.844c-4.071,0-7.37-0.464-7.37-1.039c0-0.573,3.299-1.039,7.37-1.039
			c4.069,0,7.369,0.466,7.369,1.039C28.647,49.38,25.347,49.844,21.279,49.844z"/>
		<path display="inline" fill="#E5E6E6" d="M21.279,49.836c-4.039,0-7.313-0.46-7.313-1.03c0-0.568,3.274-1.03,7.313-1.03
			c4.037,0,7.312,0.462,7.312,1.03C28.59,49.375,25.316,49.836,21.279,49.836z"/>
		<path display="inline" fill="#E5E5E6" d="M21.279,49.827c-4.008,0-7.256-0.456-7.256-1.022c0-0.564,3.248-1.022,7.256-1.022
			c4.006,0,7.255,0.458,7.255,1.022C28.533,49.371,25.284,49.827,21.279,49.827z"/>
		<path display="inline" fill="#E4E5E6" d="M21.279,49.819c-3.976,0-7.199-0.453-7.199-1.013c0-0.559,3.223-1.013,7.199-1.013
			c3.974,0,7.197,0.454,7.197,1.013C28.476,49.366,25.253,49.819,21.279,49.819z"/>
		<path display="inline" fill="#E4E5E6" d="M21.279,49.81c-3.945,0-7.142-0.449-7.142-1.005c0-0.554,3.197-1.005,7.142-1.005
			c3.942,0,7.14,0.45,7.14,1.005C28.419,49.361,25.221,49.81,21.279,49.81z"/>
		<path display="inline" fill="#E4E5E5" d="M21.279,49.802c-3.913,0-7.085-0.445-7.085-0.996c0-0.55,3.172-0.996,7.085-0.996
			c3.911,0,7.083,0.447,7.083,0.996C28.362,49.357,25.19,49.802,21.279,49.802z"/>
		<path display="inline" fill="#E4E4E5" d="M21.279,49.793c-3.882,0-7.028-0.441-7.028-0.988c0-0.545,3.146-0.988,7.028-0.988
			c3.879,0,7.026,0.443,7.026,0.988C28.305,49.352,25.158,49.793,21.279,49.793z"/>
		<path display="inline" fill="#E3E4E5" d="M21.279,49.785c-3.85,0-6.971-0.437-6.971-0.979c0-0.54,3.121-0.979,6.971-0.979
			c3.848,0,6.969,0.439,6.969,0.979C28.248,49.347,25.126,49.785,21.279,49.785z"/>
		<path display="inline" fill="#E3E4E5" d="M21.279,49.776c-3.819,0-6.914-0.434-6.914-0.971c0-0.536,3.095-0.971,6.914-0.971
			c3.816,0,6.912,0.435,6.912,0.971C28.191,49.343,25.095,49.776,21.279,49.776z"/>
		<path display="inline" fill="#E3E3E4" d="M21.279,49.768c-3.787,0-6.857-0.43-6.857-0.962c0-0.531,3.069-0.962,6.857-0.962
			c3.785,0,6.855,0.431,6.855,0.962C28.134,49.338,25.063,49.768,21.279,49.768z"/>
		<path display="inline" fill="#E3E3E4" d="M21.279,49.759c-3.756,0-6.8-0.426-6.8-0.954c0-0.526,3.044-0.954,6.8-0.954
			c3.753,0,6.798,0.428,6.798,0.954C28.077,49.333,25.032,49.759,21.279,49.759z"/>
		<path display="inline" fill="#E2E3E4" d="M21.279,49.751c-3.724,0-6.743-0.422-6.743-0.945c0-0.522,3.018-0.945,6.743-0.945
			c3.722,0,6.741,0.424,6.741,0.945C28.019,49.329,25,49.751,21.279,49.751z"/>
		<path display="inline" fill="#E2E3E4" d="M21.279,49.742c-3.693,0-6.685-0.419-6.685-0.937c0-0.517,2.993-0.937,6.685-0.937
			c3.69,0,6.684,0.42,6.684,0.937C27.962,49.324,24.969,49.742,21.279,49.742z"/>
		<path display="inline" fill="#E2E2E3" d="M21.279,49.734c-3.661,0-6.628-0.415-6.628-0.929c0-0.512,2.967-0.929,6.628-0.929
			c3.659,0,6.627,0.416,6.627,0.929C27.905,49.319,24.937,49.734,21.279,49.734z"/>
		<path display="inline" fill="#E1E2E3" d="M21.279,49.725c-3.63,0-6.571-0.411-6.571-0.92c0-0.508,2.942-0.92,6.571-0.92
			c3.627,0,6.57,0.412,6.57,0.92C27.848,49.315,24.906,49.725,21.279,49.725z"/>
		<path display="inline" fill="#E1E2E3" d="M21.279,49.717c-3.598,0-6.514-0.407-6.514-0.912c0-0.503,2.916-0.912,6.514-0.912
			c3.596,0,6.512,0.409,6.512,0.912C27.791,49.31,24.874,49.717,21.279,49.717z"/>
		<path display="inline" fill="#E1E2E3" d="M21.279,49.709c-3.567,0-6.457-0.403-6.457-0.903c0-0.498,2.89-0.903,6.457-0.903
			c3.564,0,6.455,0.405,6.455,0.903C27.734,49.305,24.843,49.709,21.279,49.709z"/>
		<path display="inline" fill="#E1E1E2" d="M21.279,49.7c-3.535,0-6.4-0.4-6.4-0.895c0-0.494,2.865-0.895,6.4-0.895
			c3.533,0,6.398,0.401,6.398,0.895C27.677,49.301,24.811,49.7,21.279,49.7z"/>
		<path display="inline" fill="#E0E1E2" d="M21.279,49.692c-3.504,0-6.343-0.396-6.343-0.886c0-0.489,2.839-0.886,6.343-0.886
			c3.501,0,6.341,0.397,6.341,0.886C27.62,49.296,24.78,49.692,21.279,49.692z"/>
		<path display="inline" fill="#E0E1E2" d="M21.279,49.683c-3.472,0-6.286-0.392-6.286-0.878c0-0.484,2.814-0.878,6.286-0.878
			c3.47,0,6.284,0.394,6.284,0.878C27.563,49.291,24.748,49.683,21.279,49.683z"/>
		<path display="inline" fill="#E0E1E1" d="M21.279,49.675c-3.441,0-6.229-0.388-6.229-0.869c0-0.48,2.788-0.869,6.229-0.869
			c3.438,0,6.227,0.39,6.227,0.869C27.506,49.287,24.717,49.675,21.279,49.675z"/>
		<path display="inline" fill="#DFE0E1" d="M21.279,49.666c-3.409,0-6.172-0.384-6.172-0.861c0-0.475,2.763-0.861,6.172-0.861
			c3.407,0,6.17,0.386,6.17,0.861C27.449,49.282,24.685,49.666,21.279,49.666z"/>
		<path display="inline" fill="#DFE0E1" d="M21.279,49.658c-3.378,0-6.115-0.381-6.115-0.852c0-0.47,2.737-0.852,6.115-0.852
			c3.375,0,6.113,0.382,6.113,0.852C27.392,49.277,24.654,49.658,21.279,49.658z"/>
		<path display="inline" fill="#DFE0E1" d="M21.279,49.649c-3.346,0-6.058-0.377-6.058-0.844c0-0.465,2.711-0.844,6.058-0.844
			c3.344,0,6.056,0.378,6.056,0.844C27.334,49.272,24.622,49.649,21.279,49.649z"/>
		<path display="inline" fill="#DFDFE0" d="M21.279,49.641c-3.315,0-6-0.373-6-0.835c0-0.461,2.686-0.835,6-0.835
			c3.312,0,5.999,0.375,5.999,0.835C27.277,49.268,24.591,49.641,21.279,49.641z"/>
		<path display="inline" fill="#DEDFE0" d="M21.279,49.632c-3.283,0-5.943-0.369-5.943-0.827c0-0.456,2.66-0.827,5.943-0.827
			c3.28,0,5.942,0.371,5.942,0.827C27.22,49.263,24.559,49.632,21.279,49.632z"/>
		<path display="inline" fill="#DEDFE0" d="M21.279,49.624c-3.252,0-5.886-0.365-5.886-0.818c0-0.451,2.635-0.818,5.886-0.818
			c3.249,0,5.885,0.367,5.885,0.818C27.163,49.258,24.528,49.624,21.279,49.624z"/>
		<path display="inline" fill="#DEDFE0" d="M21.279,49.615c-3.22,0-5.829-0.362-5.829-0.81c0-0.447,2.609-0.81,5.829-0.81
			c3.217,0,5.828,0.363,5.828,0.81C27.106,49.254,24.496,49.615,21.279,49.615z"/>
		<path display="inline" fill="#DEDEDF" d="M21.279,49.607c-3.189,0-5.772-0.358-5.772-0.801c0-0.442,2.584-0.801,5.772-0.801
			c3.186,0,5.77,0.359,5.77,0.801C27.049,49.249,24.465,49.607,21.279,49.607z"/>
		<path display="inline" fill="#DDDEDF" d="M21.279,49.598c-3.157,0-5.715-0.354-5.715-0.793c0-0.437,2.558-0.793,5.715-0.793
			c3.154,0,5.713,0.356,5.713,0.793C26.992,49.244,24.433,49.598,21.279,49.598z"/>
		<path display="inline" fill="#DDDEDF" d="M21.279,49.59c-3.125,0-5.658-0.35-5.658-0.785c0-0.433,2.533-0.785,5.658-0.785
			c3.123,0,5.656,0.352,5.656,0.785C26.935,49.24,24.401,49.59,21.279,49.59z"/>
		<path display="inline" fill="#DDDEDF" d="M21.279,49.582c-3.094,0-5.601-0.346-5.601-0.776c0-0.428,2.507-0.776,5.601-0.776
			c3.091,0,5.599,0.348,5.599,0.776C26.878,49.235,24.37,49.582,21.279,49.582z"/>
		<path display="inline" fill="#DCDDDE" d="M21.279,49.573c-3.062,0-5.544-0.343-5.544-0.768c0-0.423,2.481-0.768,5.544-0.768
			c3.06,0,5.542,0.344,5.542,0.768C26.821,49.23,24.338,49.573,21.279,49.573z"/>
		<path display="inline" fill="#DCDDDE" d="M21.279,49.565c-3.031,0-5.487-0.339-5.487-0.759c0-0.419,2.456-0.759,5.487-0.759
			c3.028,0,5.485,0.34,5.485,0.759C26.764,49.226,24.307,49.565,21.279,49.565z"/>
		<path display="inline" fill="#DCDDDE" d="M21.279,49.556c-2.999,0-5.43-0.335-5.43-0.751c0-0.414,2.43-0.751,5.43-0.751
			c2.997,0,5.428,0.337,5.428,0.751C26.707,49.221,24.275,49.556,21.279,49.556z"/>
		<path display="inline" fill="#DCDCDE" d="M21.279,49.548c-2.968,0-5.373-0.331-5.373-0.742c0-0.409,2.405-0.742,5.373-0.742
			c2.965,0,5.371,0.333,5.371,0.742C26.649,49.216,24.244,49.548,21.279,49.548z"/>
		<path display="inline" fill="#DBDCDD" d="M21.279,49.539c-2.936,0-5.315-0.327-5.315-0.734c0-0.405,2.379-0.734,5.315-0.734
			c2.934,0,5.314,0.329,5.314,0.734C26.592,49.212,24.212,49.539,21.279,49.539z"/>
		<path display="inline" fill="#DBDCDD" d="M21.279,49.531c-2.905,0-5.258-0.324-5.258-0.725c0-0.4,2.354-0.725,5.258-0.725
			c2.902,0,5.257,0.325,5.257,0.725C26.535,49.207,24.181,49.531,21.279,49.531z"/>
		<path display="inline" fill="#DBDCDD" d="M21.279,49.522c-2.873,0-5.201-0.32-5.201-0.717c0-0.395,2.328-0.717,5.201-0.717
			c2.871,0,5.2,0.322,5.2,0.717C26.478,49.202,24.149,49.522,21.279,49.522z"/>
		<path display="inline" fill="#DBDBDC" d="M21.279,49.514c-2.842,0-5.144-0.316-5.144-0.708c0-0.391,2.302-0.708,5.144-0.708
			c2.839,0,5.143,0.318,5.143,0.708C26.421,49.198,24.118,49.514,21.279,49.514z"/>
		<path display="inline" fill="#DADBDC" d="M21.279,49.505c-2.81,0-5.087-0.312-5.087-0.7c0-0.386,2.277-0.7,5.087-0.7
			c2.808,0,5.085,0.314,5.085,0.7C26.364,49.193,24.086,49.505,21.279,49.505z"/>
		<path display="inline" fill="#DADBDC" d="M21.279,49.497c-2.779,0-5.03-0.308-5.03-0.691c0-0.381,2.251-0.691,5.03-0.691
			c2.776,0,5.028,0.31,5.028,0.691C26.307,49.188,24.055,49.497,21.279,49.497z"/>
		<path display="inline" fill="#DADBDC" d="M21.279,49.488c-2.747,0-4.973-0.305-4.973-0.683c0-0.377,2.226-0.683,4.973-0.683
			c2.745,0,4.971,0.306,4.971,0.683C26.25,49.184,24.023,49.488,21.279,49.488z"/>
		<path display="inline" fill="#D9DADB" d="M21.279,49.48c-2.716,0-4.916-0.301-4.916-0.674c0-0.372,2.2-0.674,4.916-0.674
			c2.713,0,4.914,0.303,4.914,0.674C26.193,49.179,23.992,49.48,21.279,49.48z"/>
		<path display="inline" fill="#D9DADB" d="M21.279,49.471c-2.684,0-4.859-0.297-4.859-0.666c0-0.367,2.175-0.666,4.859-0.666
			c2.682,0,4.857,0.299,4.857,0.666C26.136,49.174,23.96,49.471,21.279,49.471z"/>
		<path display="inline" fill="#D9DADB" d="M21.279,49.463c-2.653,0-4.802-0.293-4.802-0.658c0-0.363,2.149-0.658,4.802-0.658
			c2.65,0,4.8,0.295,4.8,0.658C26.079,49.17,23.929,49.463,21.279,49.463z"/>
		<path display="inline" fill="#D9DADB" d="M21.279,49.454c-2.621,0-4.745-0.29-4.745-0.649c0-0.358,2.123-0.649,4.745-0.649
			c2.619,0,4.743,0.291,4.743,0.649C26.022,49.165,23.897,49.454,21.279,49.454z"/>
		<path display="inline" fill="#D8D9DA" d="M21.279,49.446c-2.59,0-4.688-0.286-4.688-0.641c0-0.353,2.098-0.641,4.688-0.641
			c2.587,0,4.686,0.287,4.686,0.641C25.965,49.16,23.866,49.446,21.279,49.446z"/>
		<path display="inline" fill="#D8D9DA" d="M21.279,49.438c-2.558,0-4.63-0.282-4.63-0.632c0-0.348,2.072-0.632,4.63-0.632
			c2.555,0,4.629,0.284,4.629,0.632C25.907,49.156,23.834,49.438,21.279,49.438z"/>
		<path display="inline" fill="#D8D9DA" d="M21.279,49.429c-2.527,0-4.573-0.278-4.573-0.624c0-0.344,2.047-0.624,4.573-0.624
			c2.524,0,4.572,0.28,4.572,0.624C25.85,49.151,23.803,49.429,21.279,49.429z"/>
		<path display="inline" fill="#D7D8DA" d="M21.279,49.421c-2.495,0-4.516-0.274-4.516-0.615c0-0.339,2.021-0.615,4.516-0.615
			c2.492,0,4.515,0.276,4.515,0.615C25.793,49.146,23.771,49.421,21.279,49.421z"/>
		<path display="inline" fill="#D7D8D9" d="M21.279,49.412c-2.464,0-4.459-0.271-4.459-0.607c0-0.334,1.996-0.607,4.459-0.607
			c2.461,0,4.458,0.272,4.458,0.607C25.736,49.142,23.739,49.412,21.279,49.412z"/>
		<path display="inline" fill="#D7D8D9" d="M21.279,49.404c-2.432,0-4.402-0.267-4.402-0.598c0-0.33,1.97-0.598,4.402-0.598
			c2.429,0,4.401,0.268,4.401,0.598C25.679,49.137,23.708,49.404,21.279,49.404z"/>
		<path display="inline" fill="#D7D8D9" d="M21.279,49.395c-2.401,0-4.345-0.263-4.345-0.59c0-0.325,1.944-0.59,4.345-0.59
			c2.398,0,4.343,0.265,4.343,0.59C25.622,49.132,23.676,49.395,21.279,49.395z"/>
		<path display="inline" fill="#D6D7D9" d="M21.279,49.387c-2.369,0-4.288-0.259-4.288-0.581c0-0.32,1.919-0.581,4.288-0.581
			c2.366,0,4.286,0.261,4.286,0.581C25.565,49.128,23.645,49.387,21.279,49.387z"/>
		<path display="inline" fill="#D6D7D8" d="M21.279,49.378c-2.338,0-4.231-0.255-4.231-0.573c0-0.316,1.893-0.573,4.231-0.573
			c2.335,0,4.229,0.257,4.229,0.573C25.508,49.123,23.613,49.378,21.279,49.378z"/>
		<path display="inline" fill="#D6D7D8" d="M21.279,49.37c-2.306,0-4.174-0.252-4.174-0.564c0-0.311,1.868-0.564,4.174-0.564
			c2.303,0,4.172,0.253,4.172,0.564C25.451,49.118,23.582,49.37,21.279,49.37z"/>
		<path display="inline" fill="#D6D7D8" d="M21.279,49.361c-2.274,0-4.117-0.248-4.117-0.556c0-0.306,1.842-0.556,4.117-0.556
			c2.272,0,4.115,0.25,4.115,0.556C25.394,49.114,23.55,49.361,21.279,49.361z"/>
		<path display="inline" fill="#D5D6D8" d="M21.279,49.353c-2.243,0-4.06-0.244-4.06-0.547c0-0.302,1.817-0.547,4.06-0.547
			c2.24,0,4.058,0.246,4.058,0.547C25.337,49.109,23.519,49.353,21.279,49.353z"/>
		<path display="inline" fill="#D5D6D7" d="M21.279,49.344c-2.211,0-4.003-0.24-4.003-0.539c0-0.297,1.791-0.539,4.003-0.539
			c2.209,0,4.001,0.242,4.001,0.539C25.28,49.104,23.487,49.344,21.279,49.344z"/>
		<path display="inline" fill="#D5D6D7" d="M21.279,49.336c-2.18,0-3.945-0.236-3.945-0.53c0-0.292,1.766-0.53,3.945-0.53
			c2.177,0,3.944,0.238,3.944,0.53C25.222,49.1,23.456,49.336,21.279,49.336z"/>
		<path display="inline" fill="#D4D5D7" d="M21.279,49.327c-2.148,0-3.888-0.233-3.888-0.522c0-0.288,1.74-0.522,3.888-0.522
			c2.146,0,3.887,0.234,3.887,0.522C25.165,49.095,23.424,49.327,21.279,49.327z"/>
		<path display="inline" fill="#D4D5D6" d="M21.279,49.319c-2.117,0-3.831-0.229-3.831-0.514c0-0.283,1.714-0.514,3.831-0.514
			c2.114,0,3.83,0.231,3.83,0.514C25.108,49.09,23.393,49.319,21.279,49.319z"/>
		<path display="inline" fill="#D4D5D6" d="M21.279,49.311c-2.085,0-3.774-0.225-3.774-0.505c0-0.278,1.689-0.505,3.774-0.505
			c2.083,0,3.773,0.227,3.773,0.505C25.051,49.085,23.361,49.311,21.279,49.311z"/>
		<path display="inline" fill="#D4D5D6" d="M21.279,49.302c-2.054,0-3.717-0.221-3.717-0.497c0-0.274,1.663-0.497,3.717-0.497
			c2.051,0,3.716,0.223,3.716,0.497C24.994,49.081,23.33,49.302,21.279,49.302z"/>
		<path display="inline" fill="#D3D4D6" d="M21.279,49.294c-2.022,0-3.66-0.217-3.66-0.488c0-0.269,1.638-0.488,3.66-0.488
			c2.02,0,3.658,0.219,3.658,0.488C24.937,49.076,23.298,49.294,21.279,49.294z"/>
		<path display="inline" fill="#D3D4D5" d="M21.279,49.285c-1.991,0-3.603-0.214-3.603-0.48c0-0.264,1.612-0.48,3.603-0.48
			c1.988,0,3.601,0.215,3.601,0.48C24.88,49.071,23.267,49.285,21.279,49.285z"/>
		<path display="inline" fill="#D3D4D5" d="M21.279,49.277c-1.959,0-3.546-0.21-3.546-0.471c0-0.26,1.587-0.471,3.546-0.471
			c1.957,0,3.544,0.212,3.544,0.471C24.823,49.067,23.235,49.277,21.279,49.277z"/>
		<path display="inline" fill="#D2D4D5" d="M21.279,49.268c-1.928,0-3.489-0.206-3.489-0.463c0-0.255,1.561-0.463,3.489-0.463
			c1.925,0,3.487,0.208,3.487,0.463C24.766,49.062,23.204,49.268,21.279,49.268z"/>
		<path display="inline" fill="#D2D3D5" d="M21.279,49.26c-1.896,0-3.432-0.202-3.432-0.454c0-0.25,1.535-0.454,3.432-0.454
			c1.893,0,3.43,0.204,3.43,0.454C24.709,49.057,23.172,49.26,21.279,49.26z"/>
		<path display="inline" fill="#D2D3D4" d="M21.279,49.251c-1.865,0-3.375-0.198-3.375-0.446c0-0.246,1.51-0.446,3.375-0.446
			c1.862,0,3.373,0.2,3.373,0.446C24.652,49.053,23.141,49.251,21.279,49.251z"/>
		<path display="inline" fill="#D2D3D4" d="M21.279,49.243c-1.833,0-3.318-0.195-3.318-0.437c0-0.241,1.484-0.437,3.318-0.437
			c1.83,0,3.316,0.196,3.316,0.437C24.595,49.048,23.109,49.243,21.279,49.243z"/>
		<path display="inline" fill="#D1D2D4" d="M21.279,49.234c-1.802,0-3.26-0.191-3.26-0.429c0-0.236,1.459-0.429,3.26-0.429
			c1.799,0,3.259,0.193,3.259,0.429C24.537,49.043,23.078,49.234,21.279,49.234z"/>
		<path display="inline" fill="#D1D2D4" d="M21.279,49.226c-1.77,0-3.203-0.187-3.203-0.42c0-0.232,1.433-0.42,3.203-0.42
			c1.767,0,3.202,0.189,3.202,0.42C24.48,49.039,23.046,49.226,21.279,49.226z"/>
		<path display="inline" fill="#D1D2D3" d="M21.279,49.217c-1.739,0-3.146-0.183-3.146-0.412c0-0.227,1.408-0.412,3.146-0.412
			c1.736,0,3.145,0.185,3.145,0.412C24.423,49.034,23.014,49.217,21.279,49.217z"/>
		<path display="inline" fill="#D1D2D3" d="M21.279,49.209c-1.707,0-3.089-0.179-3.089-0.403c0-0.222,1.382-0.403,3.089-0.403
			c1.704,0,3.088,0.181,3.088,0.403C24.366,49.029,22.983,49.209,21.279,49.209z"/>
		<path display="inline" fill="#D0D1D3" d="M21.279,49.2c-1.676,0-3.032-0.176-3.032-0.395c0-0.217,1.356-0.395,3.032-0.395
			c1.673,0,3.031,0.178,3.031,0.395C24.309,49.025,22.951,49.2,21.279,49.2z"/>
		<path display="inline" fill="#D0D1D3" d="M21.279,49.192c-1.644,0-2.975-0.172-2.975-0.387c0-0.213,1.331-0.387,2.975-0.387
			c1.641,0,2.973,0.174,2.973,0.387C24.252,49.02,22.92,49.192,21.279,49.192z"/>
		<path display="inline" fill="#D0D1D2" d="M21.279,49.183c-1.613,0-2.918-0.168-2.918-0.378c0-0.208,1.305-0.378,2.918-0.378
			c1.61,0,2.916,0.17,2.916,0.378C24.195,49.015,22.888,49.183,21.279,49.183z"/>
		<path display="inline" fill="#CFD1D2" d="M21.279,49.175c-1.581,0-2.861-0.164-2.861-0.37c0-0.203,1.28-0.37,2.861-0.37
			c1.578,0,2.859,0.166,2.859,0.37C24.138,49.011,22.857,49.175,21.279,49.175z"/>
		<path display="inline" fill="#CFD0D2" d="M21.279,49.167c-1.55,0-2.804-0.161-2.804-0.361c0-0.199,1.254-0.361,2.804-0.361
			c1.547,0,2.802,0.162,2.802,0.361C24.081,49.006,22.825,49.167,21.279,49.167z"/>
		<path display="inline" fill="#CFD0D2" d="M21.279,49.158c-1.518,0-2.747-0.157-2.747-0.353c0-0.194,1.229-0.353,2.747-0.353
			c1.515,0,2.745,0.159,2.745,0.353C24.024,49.001,22.794,49.158,21.279,49.158z"/>
		<path display="inline" fill="#CFD0D1" d="M21.279,49.15c-1.487,0-2.69-0.153-2.69-0.344c0-0.189,1.203-0.344,2.69-0.344
			c1.484,0,2.688,0.155,2.688,0.344C23.967,48.997,22.762,49.15,21.279,49.15z"/>
		<path display="inline" fill="#CED0D1" d="M21.279,49.141c-1.455,0-2.633-0.149-2.633-0.336c0-0.185,1.178-0.336,2.633-0.336
			c1.452,0,2.631,0.151,2.631,0.336C23.91,48.992,22.731,49.141,21.279,49.141z"/>
		<path display="inline" fill="#CECFD1" d="M21.279,49.133c-1.424,0-2.575-0.145-2.575-0.327c0-0.18,1.152-0.327,2.575-0.327
			c1.421,0,2.574,0.147,2.574,0.327C23.853,48.987,22.699,49.133,21.279,49.133z"/>
		<path display="inline" fill="#CECFD0" d="M21.279,49.124c-1.392,0-2.518-0.142-2.518-0.319c0-0.175,1.126-0.319,2.518-0.319
			c1.389,0,2.517,0.143,2.517,0.319C23.795,48.983,22.668,49.124,21.279,49.124z"/>
		<path display="inline" fill="#CECFD0" d="M21.279,49.116c-1.36,0-2.461-0.138-2.461-0.31c0-0.171,1.101-0.31,2.461-0.31
			c1.358,0,2.46,0.14,2.46,0.31C23.738,48.978,22.636,49.116,21.279,49.116z"/>
		<path display="inline" fill="#CDCED0" d="M21.279,49.107c-1.329,0-2.404-0.134-2.404-0.302c0-0.166,1.075-0.302,2.404-0.302
			c1.326,0,2.403,0.136,2.403,0.302C23.681,48.973,22.605,49.107,21.279,49.107z"/>
		<path display="inline" fill="#CDCED0" d="M21.279,49.099c-1.297,0-2.347-0.13-2.347-0.293c0-0.161,1.05-0.293,2.347-0.293
			c1.295,0,2.346,0.132,2.346,0.293C23.624,48.969,22.573,49.099,21.279,49.099z"/>
		<path display="inline" fill="#CDCECF" d="M21.279,49.09c-1.266,0-2.29-0.126-2.29-0.285c0-0.157,1.024-0.285,2.29-0.285
			c1.263,0,2.289,0.128,2.289,0.285C23.567,48.964,22.542,49.09,21.279,49.09z"/>
		<path display="inline" fill="#CCCECF" d="M21.279,49.082c-1.234,0-2.233-0.123-2.233-0.276c0-0.152,0.999-0.276,2.233-0.276
			c1.232,0,2.231,0.124,2.231,0.276C23.51,48.959,22.51,49.082,21.279,49.082z"/>
		<path display="inline" fill="#CCCDCF" d="M21.279,49.073c-1.203,0-2.176-0.119-2.176-0.268c0-0.147,0.973-0.268,2.176-0.268
			c1.2,0,2.174,0.121,2.174,0.268C23.453,48.955,22.479,49.073,21.279,49.073z"/>
		<path display="inline" fill="#CCCDCF" d="M21.279,49.065c-1.171,0-2.119-0.115-2.119-0.259c0-0.143,0.947-0.259,2.119-0.259
			c1.168,0,2.117,0.117,2.117,0.259C23.396,48.95,22.447,49.065,21.279,49.065z"/>
		<path display="inline" fill="#CCCDCE" d="M21.279,49.056c-1.14,0-2.062-0.111-2.062-0.251c0-0.138,0.922-0.251,2.062-0.251
			c1.137,0,2.06,0.113,2.06,0.251C23.339,48.945,22.416,49.056,21.279,49.056z"/>
		<path display="inline" fill="#CBCDCE" d="M21.279,49.048c-1.108,0-2.005-0.107-2.005-0.243c0-0.133,0.896-0.243,2.005-0.243
			c1.105,0,2.003,0.109,2.003,0.243C23.282,48.941,22.384,49.048,21.279,49.048z"/>
		<path display="inline" fill="#CBCCCE" d="M21.279,49.039c-1.077,0-1.948-0.104-1.948-0.234c0-0.129,0.871-0.234,1.948-0.234
			c1.074,0,1.946,0.106,1.946,0.234C23.225,48.936,22.352,49.039,21.279,49.039z"/>
		<path display="inline" fill="#CBCCCE" d="M21.279,49.031c-1.045,0-1.89-0.1-1.89-0.226c0-0.124,0.845-0.226,1.89-0.226
			c1.042,0,1.889,0.102,1.889,0.226C23.168,48.931,22.321,49.031,21.279,49.031z"/>
		<path display="inline" fill="#CACCCD" d="M21.279,49.023c-1.014,0-1.833-0.096-1.833-0.217c0-0.119,0.82-0.217,1.833-0.217
			c1.011,0,1.832,0.098,1.832,0.217C23.11,48.927,22.289,49.023,21.279,49.023z"/>
		<path display="inline" fill="#CACBCD" d="M21.279,49.014c-0.982,0-1.776-0.092-1.776-0.209c0-0.115,0.794-0.209,1.776-0.209
			c0.979,0,1.775,0.094,1.775,0.209C23.053,48.922,22.258,49.014,21.279,49.014z"/>
		<path display="inline" fill="#CACBCD" d="M21.279,49.006c-0.951,0-1.719-0.088-1.719-0.2c0-0.11,0.768-0.2,1.719-0.2
			c0.948,0,1.718,0.09,1.718,0.2C22.996,48.917,22.226,49.006,21.279,49.006z"/>
		<path display="inline" fill="#CACBCD" d="M21.279,48.997c-0.919,0-1.662-0.085-1.662-0.192c0-0.105,0.743-0.192,1.662-0.192
			c0.916,0,1.661,0.087,1.661,0.192C22.939,48.913,22.195,48.997,21.279,48.997z"/>
		<path display="inline" fill="#C9CBCC" d="M21.279,48.989c-0.888,0-1.605-0.081-1.605-0.183c0-0.1,0.717-0.183,1.605-0.183
			c0.885,0,1.604,0.083,1.604,0.183C22.882,48.908,22.163,48.989,21.279,48.989z"/>
		<path display="inline" fill="#C9CACC" d="M21.279,48.98c-0.856,0-1.548-0.077-1.548-0.175c0-0.096,0.692-0.175,1.548-0.175
			c0.853,0,1.546,0.079,1.546,0.175C22.825,48.903,22.132,48.98,21.279,48.98z"/>
		<path display="inline" fill="#C9CACC" d="M21.279,48.972c-0.825,0-1.491-0.073-1.491-0.166c0-0.091,0.666-0.166,1.491-0.166
			c0.822,0,1.489,0.075,1.489,0.166C22.768,48.899,22.1,48.972,21.279,48.972z"/>
		<path display="inline" fill="#C9CACB" d="M21.279,48.963c-0.793,0-1.434-0.069-1.434-0.158c0-0.086,0.641-0.158,1.434-0.158
			c0.79,0,1.432,0.071,1.432,0.158C22.711,48.894,22.069,48.963,21.279,48.963z"/>
		<path display="inline" fill="#C8CACB" d="M21.279,48.955c-0.762,0-1.377-0.066-1.377-0.149c0-0.082,0.615-0.149,1.377-0.149
			c0.759,0,1.375,0.068,1.375,0.149C22.654,48.889,22.037,48.955,21.279,48.955z"/>
		<path display="inline" fill="#C8C9CB" d="M21.279,48.946c-0.73,0-1.32-0.062-1.32-0.141c0-0.077,0.59-0.141,1.32-0.141
			c0.727,0,1.318,0.064,1.318,0.141C22.597,48.884,22.006,48.946,21.279,48.946z"/>
		<path display="inline" fill="#C8C9CB" d="M21.279,48.938c-0.699,0-1.263-0.058-1.263-0.132c0-0.072,0.564-0.132,1.263-0.132
			c0.696,0,1.261,0.06,1.261,0.132C22.54,48.88,21.974,48.938,21.279,48.938z"/>
		<path display="inline" fill="#C7C9CA" d="M21.279,48.929c-0.667,0-1.205-0.054-1.205-0.124c0-0.068,0.538-0.124,1.205-0.124
			c0.664,0,1.204,0.056,1.204,0.124C22.483,48.875,21.943,48.929,21.279,48.929z"/>
		<path display="inline" fill="#C7C9CA" d="M21.279,48.921c-0.636,0-1.148-0.05-1.148-0.115c0-0.063,0.513-0.115,1.148-0.115
			c0.633,0,1.147,0.052,1.147,0.115C22.425,48.87,21.911,48.921,21.279,48.921z"/>
		<path display="inline" fill="#C7C8CA" d="M21.279,48.912c-0.604,0-1.091-0.047-1.091-0.107c0-0.058,0.487-0.107,1.091-0.107
			c0.601,0,1.09,0.049,1.09,0.107C22.368,48.866,21.88,48.912,21.279,48.912z"/>
		<path display="inline" fill="#C7C8CA" d="M22.311,48.805c0,0.056-0.463,0.099-1.033,0.099c-0.573,0-1.034-0.043-1.034-0.099
			c0-0.054,0.462-0.099,1.034-0.099C21.848,48.707,22.311,48.752,22.311,48.805z"/>
	</g>
	<g id="osn-globe">
		
			<radialGradient id="SVGID_1_" cx="541.2653" cy="-204.3273" r="16.9826" gradientTransform="matrix(0.9331 0 0 0.9331 -471.4558 200.2085)" gradientUnits="userSpaceOnUse">
			<stop  offset="0" style="stop-color:#FFFFFF"/>
			<stop  offset="1" style="stop-color:#E0E1E2"/>
		</radialGradient>
		<path fill="url(#SVGID_1_)" d="M42.491,22.527c0-11.727-9.506-21.232-21.231-21.232c-5.17,0-9.907,1.85-13.589,4.921L37.57,36.113
			C40.641,32.431,42.491,27.696,42.491,22.527z"/>
		
			<radialGradient id="SVGID_2_" cx="513.1631" cy="-177.5863" r="21.5902" gradientTransform="matrix(0.9331 0 0 0.9331 -471.4558 200.2085)" gradientUnits="userSpaceOnUse">
			<stop  offset="0" style="stop-color:#FFFFFF"/>
			<stop  offset="1" style="stop-color:#E0E1E2"/>
		</radialGradient>
		<path fill="url(#SVGID_2_)" d="M7.671,6.215c-4.67,3.895-7.643,9.755-7.643,16.312c0,11.725,9.506,21.231,21.232,21.231
			c6.556,0,12.416-2.974,16.31-7.644L7.671,6.215z"/>
		<g opacity="0.2">
			<path fill="#B3B1B3" d="M10.407,29.286c0.037,0.025,0.067,0.052,0.096,0.082c0.027,0.032,0.05,0.067,0.07,0.105l-2.731,1.883
				l-0.557,0.383c-0.14,0.095-0.277,0.182-0.412,0.261c-0.135,0.075-0.268,0.144-0.399,0.202c-0.13,0.059-0.261,0.108-0.387,0.147
				c-0.127,0.04-0.251,0.069-0.374,0.091c-0.048,0.007-0.094,0.014-0.138,0.019c-0.044,0.003-0.085,0.006-0.127,0.006
				c-0.006,0.001-0.013,0.001-0.018,0.002c-0.032,0.001-0.037,0.001-0.042,0.001c-0.046-0.001-0.052-0.002-0.058-0.003
				c-0.037-0.001-0.071-0.004-0.106-0.009c-0.054-0.01-0.106-0.02-0.151-0.038c-0.047-0.017-0.089-0.036-0.127-0.061
				c-0.039-0.025-0.072-0.053-0.102-0.088c-0.03-0.033-0.056-0.069-0.076-0.112L7.315,30.4l0.55-0.378
				c0.152-0.105,0.303-0.201,0.449-0.284c0.146-0.086,0.292-0.163,0.434-0.227c0.143-0.067,0.282-0.124,0.419-0.171
				c0.137-0.047,0.272-0.085,0.404-0.112c0.058-0.012,0.112-0.02,0.164-0.027c0.052-0.007,0.103-0.013,0.15-0.016
				c0.049-0.003,0.095-0.004,0.137-0.003c0.044,0.003,0.086,0.005,0.124,0.012c0.051,0.009,0.099,0.019,0.142,0.034
				C10.333,29.245,10.373,29.262,10.407,29.286z"/>
			<path fill="#B3B1B3" d="M20.081,41.715c0.111-0.014,0.223-0.027,0.336-0.042c0.009-0.001,0.205-0.035,0.215-0.036
				c-0.007,0.006-0.031,0.02-0.073,0.041c-0.097,0.047-0.144,0.068-0.196,0.089c-0.111,0.043-0.141,0.052-0.171,0.061
				c-1.056,0.327-1.982,0.449-2.031,0.455c-0.106,0.016-0.211,0.028-0.317,0.041c-0.031,0.004-0.061,0.008-0.091,0.01
				c-0.079,0.009-0.158,0.017-0.237,0.023c-0.03,0.004-0.061,0.006-0.092,0.01c-0.104,0.008-0.209,0.016-0.313,0.02
				c-0.133,0.009-0.224,0.011-0.316,0.015c-0.034,0.001-0.067,0.002-0.101,0.003c-0.075,0.003-0.15,0.003-0.225,0.004
				c-0.033,0-0.065,0-0.098,0c-0.1,0-0.201-0.001-0.301-0.003c-0.136-0.004-0.272-0.01-0.407-0.018
				c-0.033-0.002-0.067-0.004-0.1-0.006c-0.101-0.008-0.202-0.014-0.302-0.022c-0.045-0.005-0.089-0.009-0.133-0.013
				c-0.095-0.01-0.19-0.02-0.285-0.032c-0.041-0.005-0.081-0.01-0.122-0.015c-0.12-0.016-0.239-0.032-0.358-0.051
				c-0.174-0.028-0.306-0.052-0.438-0.077c-0.037-0.009-0.075-0.016-0.111-0.022c-0.095-0.02-0.191-0.04-0.285-0.062
				c-0.044-0.009-0.089-0.018-0.132-0.029c-0.094-0.023-0.188-0.046-0.281-0.07c-0.039-0.009-0.077-0.019-0.115-0.029
				c-0.13-0.035-0.26-0.07-0.39-0.11c-1.794-0.536-3.503-1.444-5.044-2.667c-1.541-1.221-2.914-2.753-4.036-4.538
				C2.409,32.86,1.54,30.827,1.004,28.6c-0.265-1.103-0.436-2.205-0.519-3.294c-0.011-0.143-0.02-0.287-0.028-0.43
				c-0.003-0.05-0.005-0.101-0.007-0.149c-0.004-0.095-0.009-0.188-0.012-0.282c-0.002-0.058-0.003-0.113-0.004-0.17
				C0.432,24.186,0.43,24.1,0.429,24.012c0-0.059-0.001-0.116-0.001-0.174c0-0.086,0-0.171,0-0.255
				c0.001-0.09,0.001-0.179,0.003-0.268c0.007-0.246,0.014-0.41,0.022-0.572c0.002-0.044,0.004-0.087,0.007-0.131
				c0.01-0.174,0.021-0.346,0.036-0.518c0.088-1.051,0.351-2.986,0.908-4.461c0.85-2.245,1.596-3.505,1.636-3.572
				c-0.342,0.893-0.729,2-0.973,3.063c-0.242,1.064-0.405,2.163-0.478,3.288c-0.073,1.124-0.059,2.273,0.051,3.436
				c0.109,1.162,0.312,2.337,0.615,3.512c0.607,2.356,1.56,4.505,2.772,6.385C6.24,35.622,7.71,37.229,9.352,38.5
				c1.642,1.276,3.454,2.217,5.348,2.762c0.133,0.039,0.267,0.075,0.4,0.108c0.042,0.012,0.085,0.02,0.126,0.031
				c0.091,0.023,0.183,0.045,0.273,0.065c0.049,0.011,0.097,0.022,0.145,0.033c0.089,0.018,0.179,0.037,0.268,0.055
				c0.044,0.009,0.089,0.018,0.133,0.026c0.105,0.02,0.211,0.037,0.317,0.055c0.027,0.004,0.054,0.01,0.081,0.014
				c0.132,0.021,0.264,0.039,0.397,0.056c0.033,0.005,0.067,0.008,0.1,0.011c0.101,0.012,0.201,0.023,0.301,0.032
				c0.045,0.005,0.09,0.009,0.134,0.012c0.091,0.009,0.181,0.015,0.272,0.02c0.046,0.002,0.094,0.006,0.141,0.008
				c0.095,0.006,0.189,0.01,0.284,0.012c0.029,0,0.058,0.003,0.088,0.004c0.076,0.001,0.111,0.002,0.145,0.002
				c0.075,0,0.151,0.001,0.227,0c0.036,0,0.074,0,0.111,0c0.082-0.001,0.164-0.003,0.246-0.006c0.026,0,0.054-0.001,0.081-0.002
				c0.109-0.004,0.218-0.01,0.327-0.016c0.026-0.002,0.051-0.004,0.077-0.006c0.084-0.006,0.169-0.012,0.254-0.018
				c0.038-0.005,0.076-0.008,0.114-0.011c0.078-0.007,0.156-0.015,0.234-0.023C20.011,41.722,20.046,41.718,20.081,41.715z"/>
		</g>
	</g>
	<g id="osn-shadow">
		<defs>
			<path id="SVGID_3_" d="M42.514,23.238c-0.409,11.718-10.241,20.887-21.959,20.476C8.836,43.306-0.332,33.473,0.076,21.754
				C0.485,10.036,10.318,0.868,22.036,1.278C33.756,1.687,42.923,11.518,42.514,23.238z"/>
		</defs>
		<clipPath id="SVGID_4_">
			<use xlink:href="#SVGID_3_"  overflow="visible"/>
		</clipPath>
		<g clip-path="url(#SVGID_4_)">
			<path fill="#EFF0F0" d="M10.573,3.713c-6.972,5.62-1.591,13.793,7.411,25.622c6.163,8.099,11.281,15.518,3.596,16.219
				c-1.419,0.13-2.289-0.032-2.462-0.028c7.714-0.278,2.684-6.558-3.521-14.33C9.558,23.637,0.215,12.259,7.965,5.136
				C8.622,4.532,9.581,4.007,10.573,3.713"/>
			<g>
				<path fill="#EFF0F0" d="M15.232,1.946c-7.542,3.712-2.12,11.261,4.159,20.003c9.365,13.045,14.528,20.057,7.51,22.513
					c-1.143,0.397-2.325,0.555-2.929,0.673c6.633-1.959,2.73-7.62-4.088-16.858C11.078,16.35,5.354,6.234,12.352,2.821
					C13.163,2.426,14.143,2.092,15.232,1.946"/>
				<path fill="#EFF0F0" d="M15.223,1.919c-8.101,3.318-0.798,9.384,7.657,16.406c12.362,10.27,18.185,15.996,13.068,20.98
					c-1.198,1.167-1.996,1.575-2.427,1.886c5.221-4.871-0.142-9.649-12.653-20.352C12.36,13.561,5.558,6.163,12.377,2.871
					C13.188,2.48,13.997,2.151,15.223,1.919"/>
				<path fill="#EFF0F0" d="M25.15,1.642c-8.889-1.293-3.641,5.837-1.666,8.52c3.103,4.214,6.61,8.113,9.63,12.391
					c1.128,1.597,2.697,4.034,3.761,6.576c2.413,5.755,0.884,8.373-1.086,10.381c-0.641,0.652-0.798,0.742-0.798,0.742
					c-0.846,0.712-1.914,1.382-1.914,1.382c4.856-4.236,3.297-10.311-7.024-23.653C19.499,9.505,13.425,0.927,22.528,1.205
					C23.354,1.231,24.332,1.521,25.15,1.642"/>
			</g>
		</g>
	</g>
	<g id="osn">
		
			<radialGradient id="SVGID_5_" cx="536.7928" cy="-168.7625" r="42.4113" gradientTransform="matrix(0.9331 0 0 0.9331 -471.4558 200.2085)" gradientUnits="userSpaceOnUse">
			<stop  offset="0" style="stop-color:#E19526"/>
			<stop  offset="0.1529" style="stop-color:#E59A25"/>
			<stop  offset="0.3269" style="stop-color:#F0A823"/>
			<stop  offset="0.456" style="stop-color:#FCB721"/>
			<stop  offset="0.5155" style="stop-color:#FBB724;stop-opacity:0.9508"/>
			<stop  offset="0.5697" style="stop-color:#F8B730;stop-opacity:0.906"/>
			<stop  offset="0.622" style="stop-color:#F3B842;stop-opacity:0.8627"/>
			<stop  offset="0.6727" style="stop-color:#ECB95C;stop-opacity:0.8208"/>
			<stop  offset="0.6978" style="stop-color:#E7B96C;stop-opacity:0.8"/>
			<stop  offset="0.7698" style="stop-color:#E8B968;stop-opacity:0.8477"/>
			<stop  offset="0.8386" style="stop-color:#EBB95D;stop-opacity:0.8932"/>
			<stop  offset="0.9061" style="stop-color:#F1B849;stop-opacity:0.9378"/>
			<stop  offset="0.9723" style="stop-color:#F9B72E;stop-opacity:0.9817"/>
			<stop  offset="1" style="stop-color:#FCB721"/>
		</radialGradient>
		<path fill="url(#SVGID_5_)" d="M10.625,2.925c-6.772,5.859-1.112,13.84,8.3,25.349c6.441,7.877,11.815,15.115,4.16,16.086
			c-1.412,0.176-2.288,0.044-2.461,0.054c7.7-0.546,2.451-6.649-4.022-14.196c-6.297-7.346-16.033-18.39-8.535-25.78
			C8.702,3.812,9.643,3.252,10.625,2.925"/>
		<g enable-background="new    ">
			<g>
				<path fill="#E19526" d="M10.53,29.084l-2.73,1.883L7.243,31.35c-0.089,0.061-0.178,0.117-0.265,0.172
					c0.091-0.057,0.182-0.113,0.272-0.169c0.087-0.053,0.175-0.111,0.264-0.172L8.072,30.8l2.73-1.883L10.53,29.084z"/>
				<path fill="#E19526" d="M10.801,28.917c-0.011-0.023-0.024-0.045-0.038-0.065c-0.001-0.002-0.003-0.005-0.004-0.007
					c-0.008-0.012-0.018-0.022-0.026-0.034c-0.004-0.005-0.009-0.009-0.012-0.014c-0.004-0.003-0.009-0.006-0.013-0.01
					c-0.011-0.011-0.022-0.021-0.035-0.03c-0.003-0.003-0.006-0.007-0.009-0.01c-0.009-0.006-0.018-0.013-0.026-0.018
					c-0.005-0.004-0.011-0.008-0.017-0.011c-0.009-0.005-0.019-0.01-0.027-0.015c-0.006-0.003-0.011-0.006-0.017-0.009
					c-0.002,0-0.002-0.001-0.004-0.002c-0.017-0.008-0.035-0.015-0.053-0.021c-0.004-0.001-0.007-0.003-0.01-0.003
					c-0.004-0.002-0.009-0.003-0.012-0.004c-0.025-0.008-0.049-0.014-0.076-0.018c-0.005-0.001-0.009-0.002-0.013-0.004
					c-0.01-0.001-0.02-0.003-0.031-0.005c-0.001,0-0.002,0-0.004,0c-0.012-0.003-0.026-0.004-0.04-0.006
					c-0.006-0.001-0.011-0.001-0.017-0.002c-0.02-0.001-0.041-0.003-0.063-0.004c-0.042-0.001-0.088-0.001-0.137,0.003
					c-0.048,0.003-0.098,0.009-0.15,0.016c-0.052,0.007-0.107,0.016-0.163,0.027c-0.133,0.027-0.267,0.065-0.405,0.113
					c-0.138,0.046-0.276,0.103-0.418,0.17c-0.143,0.064-0.288,0.142-0.435,0.226c-0.052,0.03-0.105,0.062-0.159,0.096l-0.271,0.168
					c0.053-0.033,0.106-0.065,0.159-0.095c0.147-0.085,0.293-0.163,0.436-0.227c0.141-0.067,0.281-0.124,0.418-0.17
					c0.137-0.048,0.272-0.086,0.405-0.113c0.057-0.012,0.111-0.019,0.163-0.027c0.052-0.007,0.102-0.013,0.15-0.016
					c0.048-0.003,0.095-0.003,0.137-0.003c0.021,0.001,0.042,0.003,0.062,0.004c0.007,0,0.014,0.002,0.021,0.003
					c0.014,0.002,0.028,0.003,0.04,0.005c0.015,0.003,0.029,0.006,0.043,0.009c0.026,0.006,0.052,0.012,0.076,0.019
					c0.007,0.003,0.016,0.005,0.022,0.007c0.02,0.008,0.039,0.016,0.058,0.024c0.005,0.003,0.012,0.006,0.017,0.008
					c0.015,0.008,0.03,0.016,0.044,0.025c0.012,0.009,0.023,0.019,0.035,0.027c0.013,0.011,0.025,0.021,0.036,0.031
					c0.008,0.009,0.017,0.015,0.024,0.023c0.01,0.014,0.02,0.026,0.03,0.041c0.015,0.02,0.028,0.042,0.039,0.064L10.801,28.917z"/>
			</g>
			<path fill="#FCB721" d="M10.366,28.897c0.036,0.025,0.067,0.052,0.095,0.082c0.027,0.032,0.05,0.067,0.069,0.105l-2.73,1.883
				L7.243,31.35c-0.14,0.095-0.277,0.182-0.412,0.261c-0.135,0.075-0.268,0.143-0.399,0.202c-0.13,0.059-0.262,0.107-0.388,0.147
				c-0.126,0.04-0.25,0.069-0.373,0.09c-0.048,0.007-0.094,0.015-0.138,0.02c-0.045,0.003-0.086,0.006-0.127,0.006
				c-0.006,0.001-0.012,0.001-0.018,0.002c-0.031,0.001-0.036,0.001-0.042,0.001c-0.047-0.002-0.052-0.002-0.058-0.003
				c-0.038-0.001-0.072-0.004-0.106-0.009c-0.055-0.01-0.107-0.02-0.152-0.038c-0.047-0.017-0.088-0.037-0.126-0.062
				c-0.039-0.023-0.073-0.052-0.103-0.087c-0.03-0.034-0.056-0.07-0.076-0.112l2.548-1.756l0.55-0.378
				c0.152-0.104,0.303-0.201,0.448-0.284c0.147-0.085,0.293-0.163,0.436-0.227c0.141-0.067,0.281-0.124,0.418-0.17
				c0.137-0.048,0.272-0.086,0.405-0.113c0.057-0.012,0.111-0.019,0.163-0.027c0.052-0.007,0.102-0.013,0.15-0.016
				c0.048-0.003,0.095-0.003,0.137-0.003c0.044,0.003,0.085,0.004,0.124,0.012c0.051,0.009,0.098,0.02,0.142,0.034
				C10.29,28.856,10.331,28.873,10.366,28.897z"/>
			<path fill="#E19526" d="M21.109,41.404c-0.113,0.016-0.224,0.029-0.336,0.042c-0.035,0.004-0.07,0.008-0.105,0.011
				c-0.078,0.01-0.155,0.017-0.233,0.024c-0.038,0.003-0.077,0.007-0.116,0.01c-0.084,0.006-0.168,0.013-0.253,0.019
				c-0.026,0.002-0.051,0.004-0.077,0.005c-0.109,0.007-0.219,0.012-0.327,0.016c-0.027,0.002-0.055,0.002-0.082,0.002
				c-0.082,0.004-0.164,0.005-0.245,0.006c-0.038,0.001-0.075,0.001-0.112,0.001c-0.076,0-0.151,0-0.226-0.001
				c-0.034,0-0.069-0.001-0.145-0.002c-0.002,0-0.005,0-0.007,0c-0.027,0-0.054-0.003-0.081-0.004
				c-0.096-0.002-0.189-0.006-0.284-0.012c-0.047-0.002-0.094-0.005-0.141-0.007c-0.09-0.006-0.181-0.013-0.272-0.02
				c-0.045-0.003-0.089-0.008-0.135-0.012c-0.1-0.01-0.2-0.02-0.3-0.031c-0.033-0.005-0.067-0.008-0.101-0.012
				c-0.132-0.018-0.264-0.035-0.397-0.056c-0.027-0.004-0.055-0.009-0.081-0.015c-0.101-0.016-0.201-0.032-0.301-0.052
				c-0.005-0.001-0.01-0.001-0.016-0.003c-0.044-0.007-0.089-0.017-0.134-0.025c-0.089-0.018-0.179-0.037-0.268-0.056
				c-0.048-0.011-0.096-0.021-0.144-0.032c-0.091-0.02-0.183-0.043-0.274-0.065c-0.042-0.01-0.084-0.02-0.126-0.031
				c-0.133-0.034-0.265-0.07-0.399-0.108c-0.138-0.04-0.274-0.082-0.411-0.125c-0.554-0.178-1.101-0.388-1.636-0.633
				c-0.549-0.248-1.086-0.532-1.612-0.846c-0.567-0.34-1.118-0.717-1.652-1.13c-0.013-0.009-0.025-0.018-0.038-0.028
				c-0.604-0.468-1.186-0.982-1.739-1.538c-0.735-0.738-1.421-1.55-2.049-2.43c-0.184-0.258-0.362-0.52-0.535-0.789
				c-1.213-1.88-2.166-4.027-2.772-6.384c-0.302-1.175-0.506-2.35-0.615-3.512c-0.054-0.576-0.085-1.15-0.093-1.718
				c-0.009-0.579,0.006-1.152,0.043-1.719c0.039-0.592,0.102-1.176,0.188-1.753c0.078-0.518,0.174-1.031,0.29-1.534
				c0.064-0.279,0.139-0.562,0.219-0.843c0.226-0.787,0.502-1.561,0.754-2.219l-0.271,0.168c-0.252,0.659-0.528,1.432-0.754,2.219
				c-0.081,0.281-0.155,0.564-0.22,0.844c-0.115,0.504-0.211,1.016-0.289,1.534c-0.087,0.576-0.15,1.161-0.188,1.752
				c-0.037,0.567-0.052,1.141-0.043,1.719c0.008,0.568,0.038,1.141,0.093,1.718c0.109,1.163,0.313,2.337,0.615,3.512
				c0.607,2.356,1.56,4.505,2.772,6.383c0.173,0.269,0.352,0.533,0.536,0.791c0.628,0.878,1.313,1.691,2.049,2.43
				c0.553,0.555,1.134,1.07,1.739,1.538c0.012,0.009,0.025,0.019,0.037,0.028c0.533,0.412,1.085,0.789,1.652,1.128
				c0.525,0.315,1.063,0.597,1.612,0.847c0.536,0.243,1.083,0.455,1.636,0.633c0.137,0.043,0.274,0.084,0.412,0.125
				c0.133,0.039,0.266,0.074,0.399,0.109c0.042,0.011,0.084,0.019,0.126,0.03c0.092,0.022,0.183,0.046,0.274,0.065
				c0.048,0.012,0.097,0.021,0.145,0.033c0.09,0.019,0.178,0.037,0.268,0.055c0.044,0.009,0.088,0.018,0.133,0.026
				c0.005,0.001,0.011,0.002,0.015,0.003c0.101,0.018,0.201,0.035,0.302,0.052c0.027,0.005,0.054,0.01,0.081,0.013
				c0.133,0.021,0.265,0.04,0.398,0.057c0.033,0.004,0.066,0.008,0.1,0.012c0.1,0.012,0.201,0.022,0.301,0.031
				c0.044,0.005,0.089,0.009,0.134,0.012c0.091,0.007,0.181,0.016,0.272,0.02c0.046,0.003,0.094,0.005,0.141,0.009
				c0.094,0.004,0.189,0.008,0.284,0.011c0.027,0.001,0.055,0.002,0.081,0.003c0.002,0.001,0.004,0.001,0.007,0.001
				c0.076,0.001,0.11,0.001,0.145,0.001c0.075,0.001,0.15,0.002,0.226,0.002c0.037-0.001,0.074-0.001,0.111-0.001
				c0.081-0.001,0.164-0.004,0.246-0.006c0.026-0.001,0.055-0.001,0.081-0.001c0.109-0.005,0.218-0.01,0.328-0.018
				c0.025-0.001,0.051-0.004,0.077-0.005c0.084-0.005,0.169-0.012,0.254-0.019c0.038-0.004,0.076-0.007,0.114-0.01
				c0.078-0.008,0.156-0.016,0.233-0.023c0.036-0.004,0.07-0.008,0.105-0.012c0.111-0.012,0.224-0.025,0.336-0.041
				c0.009-0.002,0.205-0.035,0.215-0.036c0,0,0,0-0.001,0.001c-0.001,0.001-0.004,0.004-0.009,0.006l0.272-0.168
				c0.004-0.003,0.007-0.004,0.009-0.006c0-0.001,0-0.001,0-0.001C21.314,41.369,21.118,41.403,21.109,41.404z"/>
			
				<radialGradient id="SVGID_6_" cx="1538.0535" cy="-77.9264" r="82.5936" gradientTransform="matrix(0.4491 0 0 0.4491 -676.1091 77.756)" gradientUnits="userSpaceOnUse">
				<stop  offset="0" style="stop-color:#E19526"/>
				<stop  offset="0.1529" style="stop-color:#E59A25"/>
				<stop  offset="0.3269" style="stop-color:#F0A823"/>
				<stop  offset="0.456" style="stop-color:#FCB721"/>
				<stop  offset="0.5155" style="stop-color:#FBB724;stop-opacity:0.9508"/>
				<stop  offset="0.5697" style="stop-color:#F8B730;stop-opacity:0.906"/>
				<stop  offset="0.622" style="stop-color:#F3B842;stop-opacity:0.8627"/>
				<stop  offset="0.6727" style="stop-color:#ECB95C;stop-opacity:0.8208"/>
				<stop  offset="0.6978" style="stop-color:#E7B96C;stop-opacity:0.8"/>
				<stop  offset="0.7698" style="stop-color:#E8B968;stop-opacity:0.8477"/>
				<stop  offset="0.8386" style="stop-color:#EBB95D;stop-opacity:0.8932"/>
				<stop  offset="0.9061" style="stop-color:#F1B849;stop-opacity:0.9378"/>
				<stop  offset="0.9723" style="stop-color:#F9B72E;stop-opacity:0.9817"/>
				<stop  offset="1" style="stop-color:#FCB721"/>
			</radialGradient>
			<path fill="url(#SVGID_6_)" d="M20.501,41.613c0.111-0.012,0.224-0.025,0.336-0.041c0.009-0.002,0.205-0.035,0.215-0.036
				c-0.006,0.005-0.031,0.019-0.073,0.041c-0.098,0.047-0.145,0.069-0.196,0.089c-0.112,0.041-0.141,0.053-0.172,0.061
				c-1.056,0.325-1.982,0.448-2.03,0.455c-0.106,0.015-0.212,0.028-0.318,0.04c-0.031,0.004-0.062,0.007-0.092,0.011
				c-0.078,0.008-0.158,0.017-0.236,0.023c-0.03,0.003-0.061,0.006-0.092,0.008c-0.104,0.009-0.208,0.017-0.313,0.022
				c-0.133,0.008-0.224,0.012-0.316,0.015c-0.034,0.001-0.067,0.002-0.101,0.002c-0.075,0.003-0.15,0.004-0.225,0.005
				c-0.033,0-0.066,0-0.099,0c-0.1,0-0.201,0-0.301-0.004c-0.136-0.002-0.271-0.008-0.407-0.017c-0.033-0.002-0.066-0.004-0.1-0.007
				c-0.101-0.006-0.202-0.014-0.303-0.022c-0.044-0.003-0.088-0.008-0.132-0.013c-0.096-0.009-0.191-0.019-0.286-0.031
				c-0.041-0.005-0.081-0.01-0.121-0.015c-0.12-0.015-0.239-0.032-0.359-0.052c-0.173-0.027-0.306-0.051-0.437-0.078
				c-0.038-0.006-0.075-0.014-0.111-0.02c-0.096-0.02-0.191-0.04-0.286-0.061c-0.044-0.011-0.089-0.019-0.133-0.031
				c-0.094-0.021-0.187-0.045-0.281-0.069c-0.038-0.01-0.076-0.019-0.114-0.029c-0.13-0.035-0.261-0.071-0.39-0.11
				c-1.794-0.535-3.503-1.444-5.044-2.668c-1.541-1.22-2.915-2.753-4.036-4.536c-1.121-1.784-1.99-3.819-2.526-6.045
				c-0.265-1.102-0.436-2.204-0.519-3.293c-0.011-0.143-0.02-0.287-0.028-0.431c-0.003-0.05-0.005-0.099-0.006-0.148
				c-0.005-0.095-0.009-0.189-0.013-0.282c-0.001-0.057-0.003-0.113-0.004-0.17c-0.002-0.088-0.004-0.176-0.005-0.263
				c0-0.059-0.001-0.116-0.001-0.175c0-0.085,0-0.17,0-0.255c0.001-0.089,0.002-0.179,0.003-0.267
				c0.007-0.246,0.014-0.409,0.022-0.573c0.001-0.044,0.004-0.087,0.007-0.13c0.01-0.174,0.022-0.347,0.037-0.519
				c0.088-1.05,0.35-2.985,0.908-4.46c0.849-2.245,1.595-3.505,1.635-3.572c-0.342,0.893-0.729,2-0.973,3.063
				c-0.243,1.063-0.404,2.164-0.477,3.287c-0.073,1.125-0.059,2.274,0.05,3.437c0.109,1.163,0.313,2.337,0.615,3.512
				c0.607,2.356,1.56,4.505,2.772,6.383c1.212,1.878,2.682,3.486,4.324,4.759c1.642,1.274,3.453,2.216,5.349,2.761
				c0.133,0.039,0.266,0.074,0.399,0.109c0.042,0.011,0.084,0.019,0.126,0.03c0.092,0.022,0.183,0.046,0.274,0.065
				c0.048,0.012,0.097,0.021,0.145,0.033c0.09,0.019,0.178,0.037,0.268,0.055c0.044,0.009,0.088,0.018,0.133,0.026
				c0.105,0.019,0.211,0.038,0.317,0.055c0.027,0.005,0.054,0.01,0.081,0.013c0.133,0.021,0.265,0.04,0.398,0.057
				c0.033,0.004,0.066,0.008,0.1,0.012c0.1,0.012,0.201,0.022,0.301,0.031c0.044,0.005,0.089,0.009,0.134,0.012
				c0.091,0.007,0.181,0.016,0.272,0.02c0.046,0.003,0.094,0.005,0.141,0.009c0.094,0.004,0.189,0.008,0.284,0.011
				c0.029,0.001,0.059,0.002,0.088,0.004c0.076,0.001,0.11,0.001,0.145,0.001c0.075,0.001,0.15,0.002,0.226,0.002
				c0.037-0.001,0.074-0.001,0.111-0.001c0.081-0.001,0.164-0.004,0.246-0.006c0.026-0.001,0.055-0.001,0.081-0.001
				c0.109-0.005,0.218-0.01,0.328-0.018c0.025-0.001,0.051-0.004,0.077-0.005c0.084-0.005,0.169-0.012,0.254-0.019
				c0.038-0.004,0.076-0.007,0.114-0.01c0.078-0.008,0.156-0.016,0.233-0.023C20.431,41.621,20.465,41.617,20.501,41.613z"/>
		</g>
		<g>
			
				<radialGradient id="SVGID_7_" cx="536.7919" cy="-168.7375" r="42.417" gradientTransform="matrix(0.9331 0 0 0.9331 -471.4558 200.2085)" gradientUnits="userSpaceOnUse">
				<stop  offset="0" style="stop-color:#4C4F53"/>
				<stop  offset="0.1431" style="stop-color:#505457"/>
				<stop  offset="0.3058" style="stop-color:#5E6164"/>
				<stop  offset="0.456" style="stop-color:#717377"/>
				<stop  offset="0.5272" style="stop-color:#75767A"/>
				<stop  offset="0.5922" style="stop-color:#808184"/>
				<stop  offset="0.6546" style="stop-color:#939295"/>
				<stop  offset="0.6978" style="stop-color:#A4A2A5"/>
				<stop  offset="0.7643" style="stop-color:#A09FA1"/>
				<stop  offset="0.8278" style="stop-color:#959497"/>
				<stop  offset="0.8901" style="stop-color:#828285"/>
				<stop  offset="0.9512" style="stop-color:#67696C"/>
				<stop  offset="1" style="stop-color:#4C4F53"/>
			</radialGradient>
			<path fill="url(#SVGID_7_)" d="M15.217,0.996c-7.408,3.972-1.724,11.329,4.855,19.845c9.817,12.71,15.22,19.539,8.291,22.237
				c-1.127,0.439-2.303,0.636-2.903,0.777c6.561-2.188,2.463-7.711-4.674-16.706C11.57,15.536,5.495,5.627,12.371,1.971
				C13.167,1.547,14.136,1.18,15.217,0.996"/>
			
				<radialGradient id="SVGID_8_" cx="550.0429" cy="-13.8468" r="42.3937" gradientTransform="matrix(0.9102 -0.2051 0.2058 0.9132 -463.8566 166.0944)" gradientUnits="userSpaceOnUse">
				<stop  offset="0" style="stop-color:#4C4F53;stop-opacity:0.85"/>
				<stop  offset="0.1431" style="stop-color:#505457;stop-opacity:0.8971"/>
				<stop  offset="0.3058" style="stop-color:#5E6164;stop-opacity:0.9506"/>
				<stop  offset="0.456" style="stop-color:#717377"/>
				<stop  offset="0.5272" style="stop-color:#75767A"/>
				<stop  offset="0.5922" style="stop-color:#808184"/>
				<stop  offset="0.6546" style="stop-color:#939295"/>
				<stop  offset="0.6978" style="stop-color:#A4A2A5"/>
				<stop  offset="0.7643" style="stop-color:#A09FA1"/>
				<stop  offset="0.8278" style="stop-color:#959497"/>
				<stop  offset="0.8901" style="stop-color:#828285"/>
				<stop  offset="0.9512" style="stop-color:#67696C"/>
				<stop  offset="1" style="stop-color:#4C4F53"/>
			</radialGradient>
			<path fill="url(#SVGID_8_)" d="M15.379,0.943c-7.824,3.553-0.434,9.413,8.124,16.2c12.513,9.919,18.438,15.483,13.603,20.617
				c-1.133,1.207-1.901,1.633-2.312,1.958c4.944-5.025-0.497-9.649-13.172-20.003c-8.619-7.04-15.568-14.246-8.999-17.735
				C13.404,1.564,14.185,1.209,15.379,0.943"/>
			
				<radialGradient id="SVGID_9_" cx="536.7824" cy="-168.7383" r="42.3878" gradientTransform="matrix(0.9331 0 0 0.9331 -471.4558 200.2085)" gradientUnits="userSpaceOnUse">
				<stop  offset="0" style="stop-color:#4C4F53"/>
				<stop  offset="0.1431" style="stop-color:#505457"/>
				<stop  offset="0.3058" style="stop-color:#5E6164"/>
				<stop  offset="0.456" style="stop-color:#717377"/>
				<stop  offset="0.5272" style="stop-color:#75767A"/>
				<stop  offset="0.5922" style="stop-color:#808184"/>
				<stop  offset="0.6546" style="stop-color:#939295"/>
				<stop  offset="0.6978" style="stop-color:#A4A2A5"/>
				<stop  offset="0.7643" style="stop-color:#A09FA1"/>
				<stop  offset="0.8278" style="stop-color:#959497"/>
				<stop  offset="0.8901" style="stop-color:#828285"/>
				<stop  offset="0.9512" style="stop-color:#67696C"/>
				<stop  offset="1" style="stop-color:#4C4F53"/>
			</radialGradient>
			<path fill="url(#SVGID_9_)" d="M25.121,0.345c-8.929-0.981-3.436,5.962-1.367,8.574c3.247,4.104,6.889,7.878,10.057,12.047
				c1.183,1.558,2.836,3.939,3.987,6.44c2.613,5.669,1.178,8.336-0.722,10.412c-0.62,0.675-0.771,0.771-0.771,0.771
				c-0.821,0.739-1.867,1.447-1.867,1.447c4.706-4.405,2.937-10.419-7.844-23.395c-6.848-8.24-13.217-16.601-4.109-16.641
				C23.312-0.002,24.3,0.254,25.121,0.345"/>
		</g>
	</g>
</g>
</svg>
