<?xml version="1.0" encoding="utf-8"?>
<!-- Generator: Adobe Illustrator 22.0.1, SVG Export Plug-In . SVG Version: 6.00 Build 0)  -->
<svg version="1.1" id="LOGO_x27_S" xmlns="http://www.w3.org/2000/svg" xmlns:xlink="http://www.w3.org/1999/xlink" x="0px" y="0px"
	 width="200.2px" height="44.5px" viewBox="0 0 200.2 44.5" style="enable-background:new 0 0 200.2 44.5;" xml:space="preserve">
<style type="text/css">
	.st0{display:none;}
	.st1{display:inline;fill:#4C4F53;}
	.st2{font-family:'MagistralC';}
	.st3{font-size:14.6798px;}
	.st4{display:inline;fill:#E72C6A;}
	.st5{font-family:'MagistralBlackC';}
	.st6{font-size:19px;}
	.st7{display:inline;fill:#EFF0F0;}
	.st8{fill:#FFFFFF;}
</style>
<g id="brand-sa_1_">
</g>
<g id="brand-sadvantage">
</g>
<g id="brand-se_1_">
</g>
<g id="brand-rebatenetwork">
</g>
<g id="brand-pn_1_">
</g>
<g id="brand-cn_1_">
</g>
<g id="brand-eshopn">
</g>
<g id="TypeFont__x28_MagistralBlackC_Regular_en_MagistralC_Regular_x29_" class="st0">
	<text transform="matrix(1 0 0 1 189.4473 16.2148)" class="st1 st2 st3">&amp;</text>
	<text transform="matrix(1 0 0 1 51.2603 16.1498)" class="st4 st5 st6">rabais</text>
	<text transform="matrix(1 0 0 1 137.2603 36.1498)" class="st1 st2 st6">reseau</text>
</g>
<g id="TypeFont__x28_MagistralBlackC_Regular_en_MagistralC_Regular_x29__copy" class="st0">
	<text transform="matrix(1 0 0 1 189.4473 16.2148)" class="st1 st2 st3">&amp;</text>
	<text transform="matrix(1 0 0 1 51.2603 16.1498)" class="st7 st5 st6">ondernemers</text>
	<text transform="matrix(1 0 0 1 137.2603 36.1498)" class="st1 st2 st6">netwerk</text>
</g>
<g>
	<path class="st8" d="M21.8,19.6c0.1,0.2,0.2,0.3,0.4,0.5c0.6-0.5,0.9-0.9,0.9-0.9c2.3-2.3,4.5-2.6,5.7-0.2c0.1,0.2,0.4,0.8,0.4,0.8
		c-1.4-1.8-2.5-1.5-4.5,0.6c0,0-0.5,0.6-1.3,1.3c2.3,3,4.9,6.5,4.9,6.5l0.1,0.1c0.4,0.6,1.4,2.1,2,3c2.3,3.3,4.7,5.2,7.6,4.3
		c2.8-3.6,4.5-8.1,4.5-13.1c0-11.7-9.5-21.2-21.2-21.2c-2.5,0-4.8,0.4-7,1.2C11.8,6.7,16.4,12.7,21.8,19.6z"/>
	<path class="st8" d="M36,37.8c-2.8,0.7-5.5-1.3-8.2-5c-0.4-0.5-1.9-2.5-2-2.7L25.7,30c0,0-2-2.6-3.2-4c-0.8-1.1-1.7-2.1-2.4-3.2
		c-0.6-0.1-1.1-0.4-1.7-0.9c-0.7-0.8-1-1.4-1.2-1.7c0.5,0.7,1.1,1,1.7,1.1c-5.5-7.5-8.8-13.7-7.2-17.7c-1.1,0.6-2.2,1.3-3.2,2
		C5.6,11.2,11,18.5,19,28.3c5.1,6.3,9.6,12.2,7.3,14.8C30,42.2,33.4,40.3,36,37.8z"/>
	<path class="st8" d="M0.4,18.8c-0.2,1.2-0.3,2.4-0.3,3.7c0,10.3,7.4,19,17.2,20.8c-1-1.5-3.4-5-6-8C7.3,30.7,2,24.5,0.4,18.8z"/>
	<path class="st8" d="M6,7.8C4.6,9.3,3.4,11.1,2.4,13c-0.6,5.2,4.3,11.8,11.2,20.3c4.1,5.1,5.9,7.9,6.8,10.4c0.3,0,0.6,0,0.9,0
		c0.9,0,1.7-0.1,2.6-0.2c2.4-2.1-2-7.2-7.2-13.2C11.3,23.9,3.4,14.9,6,7.8z"/>
	<path class="st8" d="M55.7,36.3c-1.5,0-2.8,0-3.6-1.3c-0.4-0.7-0.5-1.8-0.5-3.6c0-1.8-0.1-3.3,0.8-4.3c0.9-1,2.8-1,4.7-1
		c2,0,3.4,0,4.2,0.7c1,0.8,1.1,2.3,1.1,3.4c0,0.6,0,1.4-0.6,1.8c-0.3,0.3-0.6,0.3-1,0.3h-5.5c0,0.3,0,0.6,0.2,0.8
		c0.3,0.5,1,0.5,1.7,0.5h4.9v2.7H55.7L55.7,36.3z M58.1,29.9c0.5,0,0.6-0.3,0.6-0.5c0-0.3-0.1-0.6-0.7-0.7c-0.3-0.1-0.8-0.1-1-0.1
		c-0.4,0-1,0-1.3,0.2c-0.4,0.2-0.4,0.6-0.4,1.1H58.1z"/>
	<path class="st8" d="M64.2,28c0-0.4,0-0.9,0.4-1.2c0.6-0.6,1.6-0.6,2.2-0.6h3.5c1.2,0,2.4,0.1,3.4,0.9c1.1,0.9,1.3,2.1,1.3,3v6.2
		h-3.7v-5.1c0-0.7-0.1-1.3-0.4-1.7c-0.3-0.4-0.8-0.6-1.5-0.6h-0.7c-0.2,0-0.4,0-0.5,0.2C68,29.3,68,29.5,68,29.7v6.7h-3.7L64.2,28
		L64.2,28z"/>
	<path class="st8" d="M82.2,36.3c-0.7,0-2.1,0-3.1-0.7c-0.8-0.6-1.3-1.6-1.3-2.5v-4.3h-1.4v-2.6h1.4V23h3.7v3.2h2.9v2.6h-2.9v2.3
		c0,0.7,0.1,1.5,0.6,2s1.2,0.5,1.6,0.5h0.6v2.7C84.4,36.3,82.2,36.3,82.2,36.3z"/>
	<path class="st8" d="M86.9,30.4c0-1,0.1-2.4,1.2-3.3s2.7-1,3.7-1h2.5v2.6H93c-0.7,0-1.4,0.1-1.9,0.7c-0.4,0.6-0.5,1.3-0.5,1.9v4.8
		h-3.7V30.4z"/>
	<path class="st8" d="M100.2,36.3c-1.5,0-2.8,0-3.6-1.3c-0.4-0.7-0.5-1.8-0.5-3.6c0-1.8-0.1-3.3,0.8-4.3c0.9-1,2.8-1,4.7-1
		c2,0,3.4,0,4.2,0.7c1,0.8,1.1,2.3,1.1,3.4c0,0.6,0,1.4-0.6,1.8c-0.3,0.3-0.6,0.3-1,0.3h-5.5c0,0.3,0,0.6,0.2,0.8
		c0.3,0.5,1,0.5,1.7,0.5h4.9v2.7H100.2L100.2,36.3z M102.6,29.9c0.5,0,0.6-0.3,0.6-0.5c0-0.3-0.1-0.6-0.7-0.7
		c-0.3-0.1-0.8-0.1-1-0.1c-0.4,0-1,0-1.3,0.2c-0.4,0.2-0.4,0.6-0.4,1.1H102.6z"/>
	<path class="st8" d="M112.6,39.5h-3.7V28.1c0-0.6,0.1-1.1,0.7-1.6c0.5-0.3,0.9-0.4,1.4-0.4h4.7c0.7,0,2,0.1,2.9,1
		c1,1,1.1,2.7,1.1,3.7c0,0.9,0,2.8-0.8,4c-0.9,1.3-2.4,1.4-3.5,1.4h-2.8C112.6,36.2,112.6,39.5,112.6,39.5z M114.2,33.6
		c0.8,0,1.2-0.5,1.4-0.8c0.2-0.4,0.2-0.9,0.2-1.6c0-0.6,0-1.1-0.2-1.5c-0.3-0.8-1.1-0.9-1.3-0.9H113c-0.1,0-0.2,0.1-0.3,0.1
		c-0.1,0.1-0.1,0.2-0.1,0.3v4.2L114.2,33.6L114.2,33.6z"/>
	<path class="st8" d="M121.5,30.4c0-1,0.1-2.4,1.2-3.3s2.7-1,3.7-1h2.5v2.6h-1.3c-0.7,0-1.4,0.1-1.9,0.7c-0.4,0.6-0.5,1.3-0.5,1.9
		v4.8h-3.7C121.5,36.3,121.5,30.4,121.5,30.4z"/>
	<path class="st8" d="M134.9,36.3c-1.5,0-2.8,0-3.6-1.3c-0.4-0.7-0.5-1.8-0.5-3.6c0-1.8-0.1-3.3,0.8-4.3c0.9-1,2.9-1,4.7-1
		c2,0,3.4,0,4.2,0.7c1,0.8,1.1,2.3,1.1,3.4c0,0.6,0,1.4-0.6,1.8c-0.3,0.3-0.6,0.3-1,0.3h-5.5c0,0.3,0,0.6,0.2,0.8
		c0.3,0.5,1,0.5,1.7,0.5h4.9v2.7H134.9L134.9,36.3z M137.3,29.9c0.5,0,0.6-0.3,0.6-0.5c0-0.3-0.1-0.6-0.7-0.7
		c-0.3-0.1-0.8-0.1-1-0.1c-0.4,0-1,0-1.3,0.2c-0.4,0.2-0.4,0.6-0.4,1.1H137.3z"/>
	<path class="st8" d="M143.5,28c0-0.4,0-0.9,0.4-1.2c0.6-0.6,1.6-0.6,2.2-0.6h3.5c1.2,0,2.4,0.1,3.4,0.9c1.1,0.9,1.3,2.1,1.3,3v6.2
		h-3.7v-5.1c0-0.7-0.1-1.3-0.4-1.7c-0.3-0.4-0.8-0.6-1.5-0.6H148c-0.2,0-0.4,0-0.5,0.2c-0.2,0.2-0.2,0.4-0.2,0.6v6.7h-3.7L143.5,28
		L143.5,28z"/>
	<path class="st8" d="M160.1,36.3c-1.5,0-2.8,0-3.6-1.3c-0.4-0.7-0.5-1.8-0.5-3.6c0-1.8-0.1-3.3,0.8-4.3c0.9-1,2.9-1,4.7-1
		c2,0,3.4,0,4.2,0.7c1,0.8,1.1,2.3,1.1,3.4c0,0.6,0,1.4-0.6,1.8c-0.3,0.3-0.6,0.3-1,0.3h-5.5c0,0.3,0,0.6,0.2,0.8
		c0.3,0.5,1,0.5,1.7,0.5h4.9v2.7H160.1L160.1,36.3z M162.5,29.9c0.5,0,0.6-0.3,0.6-0.5c0-0.3-0.1-0.6-0.7-0.7
		c-0.3-0.1-0.8-0.1-1-0.1c-0.4,0-1,0-1.3,0.2c-0.4,0.2-0.4,0.6-0.4,1.1H162.5z"/>
	<path class="st8" d="M172.4,26.2v5c0,1,0.2,1.4,0.4,1.7c0.4,0.6,1.1,0.6,1.6,0.6h0.7c0.3,0,0.5-0.1,0.6-0.2
		c0.2-0.2,0.2-0.4,0.2-0.6v-6.6h3.7v8c0,0.6-0.1,1.1-0.6,1.6c-0.5,0.4-1.2,0.5-1.6,0.5h-4.6c-1.4,0-2.3-0.4-2.8-0.9
		c-1-0.9-1.3-2.2-1.3-3.7v-5.5L172.4,26.2L172.4,26.2z"/>
	<path class="st8" d="M181.6,30.4c0-1,0.1-2.4,1.2-3.3c1.1-0.9,2.7-1,3.7-1h2.5v2.6h-1.3c-0.7,0-1.4,0.1-1.9,0.7
		c-0.4,0.6-0.5,1.3-0.5,1.9v4.8h-3.7V30.4z"/>
	<path class="st8" d="M190.4,33.6h5.5c0.1,0,0.2,0,0.2-0.1c0.1,0,0.1-0.1,0.1-0.2c0-0.1-0.1-0.2-0.2-0.2c-0.1-0.1-0.3-0.1-1.1-0.4
		l-2.2-0.7c-0.9-0.3-1.7-0.7-2.1-1.3c-0.3-0.5-0.4-1.2-0.4-1.7c0-0.6,0.1-1.3,0.5-1.8c0.5-0.8,1.3-1,2.3-1h6.7v2.6h-5.5
		c-0.1,0-0.3,0-0.4,0c-0.1,0-0.2,0-0.2,0.2s0.1,0.2,0.2,0.2c0.5,0.2,0.3,0.1,0.8,0.3l2.5,0.9c1.1,0.4,1.8,0.7,2.3,1.4
		s0.5,1.5,0.5,1.9c0,0.7-0.2,1.6-0.8,2.1c-0.5,0.4-1.1,0.5-1.7,0.5h-7.2L190.4,33.6L190.4,33.6z"/>
	<path class="st8" d="M198.4,15.1c0,0.6-0.1,0.8-0.2,0.9c-0.2,0.3-0.7,0.2-0.9,0.2h-3.1c-0.6,0-1.4,0-2-0.7
		c-0.5-0.6-0.6-1.5-0.6-2.1c0-0.6,0-1.2,0.3-1.6c0.2-0.3,0.6-0.6,1.1-0.7l0,0c-0.2,0-0.7-0.1-1-0.6c-0.4-0.5-0.4-1.2-0.4-1.8
		s0.1-1.5,0.6-2.1c0.3-0.3,0.9-0.6,1.7-0.6h4.4v0.7H194c-0.4,0-0.9,0-1.2,0.4c-0.5,0.4-0.4,1.2-0.4,1.6c0,0.5,0,1.2,0.4,1.7
		c0.3,0.4,1,0.5,1.5,0.5h5.6v0.7h-1.7L198.4,15.1L198.4,15.1z M197.6,15.4c0.1-0.1,0.1-0.3,0.1-0.4v-3.6H194c-0.8,0-1.1,0.4-1.2,0.7
		c-0.2,0.3-0.2,0.8-0.2,1.4c0,0.5,0,1,0.2,1.4c0.4,0.6,1,0.6,1.4,0.6h2.8C197.3,15.5,197.5,15.5,197.6,15.4z"/>
	<path class="st8" d="M104.9,13.4h5.5c0.1,0,0.2,0,0.2-0.1c0.1,0,0.1-0.1,0.1-0.2c0-0.1-0.1-0.2-0.2-0.2c-0.1-0.1-0.3-0.1-1.1-0.4
		l-2.2-0.7c-0.9-0.3-1.7-0.7-2.1-1.3c-0.3-0.5-0.4-1.2-0.4-1.7c0-0.6,0.1-1.3,0.5-1.8c0.5-0.8,1.3-0.9,2.3-0.9h6.7v2.6h-5.5
		c-0.1,0-0.3,0-0.4,0s-0.2,0-0.2,0.2s0.1,0.2,0.2,0.2c0.5,0.2,0.3,0.1,0.8,0.3l2.5,0.9c1.1,0.4,1.8,0.7,2.3,1.4s0.5,1.5,0.5,1.9
		c0,0.7-0.2,1.6-0.8,2.1c-0.5,0.4-1.1,0.5-1.7,0.5h-7.2L104.9,13.4L104.9,13.4z"/>
	<path class="st8" d="M115.5,2.8h3.7V6h2.2c1.1,0,2.3,0,3.4,0.7c0.9,0.7,1.4,1.8,1.4,2.8v6.6h-3.7V11c0-0.5,0-1.2-0.6-1.7
		c-0.5-0.5-1-0.6-1.5-0.6h-1.2v7.4h-3.7C115.5,16.1,115.5,2.8,115.5,2.8z"/>
	<path class="st8" d="M137.4,7c1.3,1.1,1.3,3.1,1.3,4.1s-0.1,3-1.3,4.1c-1.1,1-2.9,1-4.5,1s-3.4-0.1-4.5-1c-1.3-1.1-1.3-3.1-1.3-4.1
		s0.1-3,1.3-4.1c1.1-1,2.9-1,4.5-1S136.3,6,137.4,7z M131.3,12.8c0.1,0.1,0.5,0.7,1.7,0.7c1,0,1.5-0.4,1.6-0.7
		c0.3-0.4,0.4-1,0.4-1.8c0-1.1-0.2-1.5-0.4-1.8c-0.2-0.2-0.6-0.6-1.7-0.6c-1,0-1.5,0.4-1.7,0.6c-0.1,0.2-0.4,0.6-0.4,1.8
		C130.9,12.2,131.1,12.6,131.3,12.8z"/>
	<path class="st8" d="M143.4,19.3h-3.7V8c0-0.6,0.1-1.1,0.7-1.6c0.5-0.3,0.9-0.4,1.4-0.4h4.7c0.7,0,2,0.1,2.9,1c1,1,1.1,2.7,1.1,3.7
		c0,0.9,0,2.8-0.8,4c-0.9,1.3-2.4,1.4-3.5,1.4h-2.8L143.4,19.3L143.4,19.3z M145,13.4c0.8,0,1.2-0.5,1.4-0.8
		c0.2-0.4,0.2-0.9,0.2-1.6c0-0.6,0-1.1-0.2-1.5c-0.3-0.8-1.1-0.9-1.3-0.9h-1.3c-0.1,0-0.2,0.1-0.3,0.1c-0.1,0.1-0.1,0.2-0.1,0.3v4.2
		L145,13.4L145,13.4z"/>
	<path class="st8" d="M155.1,19.3h-3.7V8c0-0.6,0.1-1.1,0.7-1.6c0.5-0.3,0.9-0.4,1.4-0.4h4.7c0.7,0,2,0.1,2.9,1c1,1,1.1,2.7,1.1,3.7
		c0,0.9,0,2.8-0.8,4c-0.9,1.3-2.4,1.4-3.5,1.4h-2.8L155.1,19.3L155.1,19.3z M156.7,13.4c0.8,0,1.2-0.5,1.4-0.8
		c0.2-0.4,0.2-0.9,0.2-1.6c0-0.6,0-1.1-0.2-1.5c-0.3-0.8-1.1-0.9-1.3-0.9h-1.3c-0.1,0-0.2,0.1-0.3,0.1c-0.1,0.1-0.1,0.2-0.1,0.3v4.2
		L156.7,13.4L156.7,13.4z"/>
	<path class="st8" d="M163,5V2.8h3.7V5H163z M163,6h3.7v10.1H163V6z"/>
	<path class="st8" d="M167.9,7.8c0-0.4,0-0.9,0.4-1.2c0.6-0.6,1.6-0.6,2.2-0.6h3.5c1.2,0,2.4,0.1,3.4,0.9c1.1,0.9,1.3,2.1,1.3,3v6.2
		H175V11c0-0.7-0.1-1.3-0.4-1.7c-0.3-0.4-0.8-0.6-1.5-0.6h-0.7c-0.2,0-0.4,0-0.5,0.2c-0.2,0.2-0.2,0.4-0.2,0.6v6.7H168L167.9,7.8
		L167.9,7.8z"/>
	<path class="st8" d="M180.3,17.1h4.5c0.4,0,1,0,1.4-0.3c0.2-0.2,0.4-0.5,0.4-0.7h-3.2c-1.1,0-2.2-0.1-3-1.3
		c-0.6-0.9-0.8-2.1-0.8-3.8c0-2,0.3-2.9,1-3.8c0.8-0.9,1.6-1.2,3.2-1.2h4.1c0.6,0,1.3,0,1.8,0.5c0.5,0.4,0.6,1.1,0.6,1.5v7
		c0,1.3-0.2,2.4-0.8,3.2c-0.8,1-2,1.3-3.6,1.3h-5.6L180.3,17.1L180.3,17.1z M186.6,9.5c0-0.3,0-0.5-0.3-0.6
		c-0.2-0.1-0.4-0.2-0.6-0.2h-0.4c-0.5,0-1.1,0-1.5,0.6c-0.2,0.2-0.4,0.7-0.4,1.9c0,0.9,0.2,1.4,0.4,1.7c0.5,0.6,1.2,0.5,1.7,0.5h1.1
		V9.5L186.6,9.5z"/>
	<path class="st8" d="M51.6,9.6c0-1,0.1-1.9,0.9-2.6c0.4-0.4,1.1-0.8,2.5-0.8h0.7V7H55c-0.6,0-1.4,0.1-1.9,0.7
		c-0.4,0.5-0.5,1.3-0.5,2.1v6.4h-1V9.6z"/>
	<g>
		<path class="st8" d="M59.5,16.2c-0.8,0-1.9-0.2-2.7-1.2S56,12.7,56,11.2c0-1.4,0.1-3.1,1.3-4.2c0.9-0.8,2.1-0.9,3.2-0.9
			c0.7,0,1.7,0.1,2.6,0.6c0.4,0.2,1.6,1.1,1.6,3.2c0,0.3,0,1-0.4,1.3c-0.3,0.3-0.8,0.3-1.1,0.3h-6.1c0,0.6,0,1.5,0.2,2.1
			c0.2,0.8,0.9,1.7,2.2,1.7h4.9v0.9H59.5z M63.2,10.6c0.4,0,0.4-0.5,0.4-0.7c0-1-0.3-1.7-0.7-2.1C62.2,7,61.2,7,60.4,7
			c-1,0-2.1,0-2.8,1.2c-0.4,0.7-0.5,1.4-0.5,2.4H63.2z"/>
		<path class="st8" d="M58.3,6c-0.4,0.1-0.7,0.3-1,0.5c-0.1,0.1-0.1,0.1-0.2,0.2c0,0,0.2-1.4,0.8-1.9C58.4,4.4,59.1,4,60.4,4h0.7
			v0.9h-0.6c-0.6,0-1.4,0.1-1.9,0.7C58.5,5.7,58.3,6,58.3,6z"/>
	</g>
	<path class="st8" d="M66,15.3h5.8c0.6,0,1-0.2,1.2-0.5c0.2-0.2,0.2-0.8,0.2-1.2c0-0.6-0.2-0.9-0.4-1c-0.3-0.3-0.9-0.5-2.4-0.8
		l-1.7-0.4c-1.5-0.4-2.1-0.9-2.3-1.1c-0.4-0.5-0.6-1.1-0.6-1.7C65.8,8,66,7.5,66.4,7c0.6-0.8,1.5-0.9,2.4-0.9h4.8V7h-5.2
		c-0.2,0-0.8,0-1.1,0.3c-0.3,0.3-0.4,0.9-0.4,1.2s0,0.9,0.4,1.3c0.3,0.3,1.4,0.6,1.7,0.7l1.8,0.4c1.2,0.3,2.1,0.5,2.7,0.9
		c0.6,0.5,0.7,1.1,0.7,1.7c0,0.7-0.1,1.6-0.9,2.1c-0.5,0.3-1.2,0.4-1.6,0.4H66V15.3z"/>
	<path class="st8" d="M78.9,16.2c-0.8,0-1.9-0.2-2.7-1.2c-0.8-1-0.8-2.3-0.8-3.8c0-1.4,0.1-3.1,1.3-4.2c0.9-0.8,2.1-0.9,3.2-0.9
		c0.7,0,1.7,0.1,2.6,0.6c0.4,0.2,1.6,1.1,1.6,3.2c0,0.3,0,1-0.4,1.3c-0.3,0.3-0.8,0.3-1.1,0.3h-6.1c0,0.6,0,1.5,0.2,2.1
		c0.2,0.8,0.9,1.7,2.2,1.7h4.9v0.9H78.9z M82.6,10.6c0.4,0,0.4-0.5,0.4-0.7c0-1-0.3-1.7-0.7-2.1C81.6,7,80.6,7,79.8,7
		c-1,0-2.1,0-2.8,1.2c-0.4,0.7-0.5,1.4-0.5,2.4H82.6z"/>
	<path class="st8" d="M90.9,6.1c0.7,0,1.4,0.3,1.8,0.7c0.5,0.6,0.6,1.4,0.6,2v6c0,0.3,0,0.7-0.3,1c-0.3,0.3-0.8,0.3-1.1,0.3H88
		c-0.6,0-1.3,0-1.8-0.5c-0.8-0.7-0.9-2.1-0.9-2.7c0-0.8,0.1-1.8,0.8-2.4C86.7,10,87.4,10,88,10h4.4V8.7c0-0.3-0.1-0.9-0.4-1.2
		C91.7,7.2,91.4,7,90.9,7H86V6.1H90.9z M87.7,11.1c-0.6,0-0.9,0.3-1.1,0.5c-0.2,0.3-0.3,0.9-0.3,1.6c0,0.6,0.1,1.3,0.4,1.7
		c0.2,0.2,0.6,0.4,1,0.4h4.1c0.1,0,0.3,0,0.4-0.1s0.1-0.2,0.1-0.3v-3.8C92.3,11.1,87.7,11.1,87.7,11.1z"/>
	<path class="st8" d="M102.8,15.9c-0.4,0.3-1,0.3-1.5,0.3h-2.7c-1.1,0-1.8-0.1-2.4-0.7c-0.8-0.7-0.8-1.7-0.8-2.4v-7h1v6.7
		c0,1,0.2,1.5,0.4,1.8c0.4,0.6,1.2,0.7,2,0.7h2.8c0.2,0,0.5-0.1,0.7-0.2c0.2-0.2,0.2-0.5,0.2-0.6V6.1h1v8.5
		C103.2,15,103.2,15.6,102.8,15.9z"/>
</g>
</svg>
