<?xml version="1.0" encoding="utf-8"?>
<!-- Generator: Adobe Illustrator 22.0.1, SVG Export Plug-In . SVG Version: 6.00 Build 0)  -->
<svg version="1.1" id="LOGO_x27_S" xmlns="http://www.w3.org/2000/svg" xmlns:xlink="http://www.w3.org/1999/xlink" x="0px" y="0px"
	 width="172.758px" height="43.964px" viewBox="0 0 172.758 43.964" enable-background="new 0 0 172.758 43.964"
	 xml:space="preserve">
<g id="brand-sadvantage">
</g>
<g id="brand-se_1_">
</g>
<g id="brand-kn_1_">
</g>
<g id="brand-cn_1_">
</g>
<g id="brand-esn_1_">
</g>
<g display="none">
	<path display="inline" fill="#FFFFFF" d="M33.706,48.699c0,1.003-5.64,1.814-12.594,1.814c-6.956,0-12.596-0.812-12.596-1.814
		c0-1.002,5.64-1.814,12.596-1.814C28.067,46.885,33.706,47.697,33.706,48.699z"/>
	<path display="inline" fill="#FFFFFF" d="M21.112,50.505c-6.925,0-12.539-0.808-12.539-1.806c0-0.997,5.614-1.806,12.539-1.806
		c6.923,0,12.537,0.809,12.537,1.806C33.649,49.697,28.035,50.505,21.112,50.505z"/>
	<path display="inline" fill="#FEFEFE" d="M21.112,50.496c-6.893,0-12.482-0.804-12.482-1.797c0-0.992,5.589-1.797,12.482-1.797
		c6.891,0,12.48,0.805,12.48,1.797C33.592,49.692,28.004,50.496,21.112,50.496z"/>
	<path display="inline" fill="#FEFEFE" d="M21.112,50.488c-6.862,0-12.425-0.8-12.425-1.789c0-0.988,5.563-1.789,12.425-1.789
		c6.86,0,12.423,0.801,12.423,1.789C33.535,49.688,27.972,50.488,21.112,50.488z"/>
	<path display="inline" fill="#FEFEFE" d="M21.112,50.479c-6.83,0-12.368-0.796-12.368-1.78c0-0.983,5.538-1.78,12.368-1.78
		c6.828,0,12.366,0.797,12.366,1.78C33.478,49.683,27.941,50.479,21.112,50.479z"/>
	<path display="inline" fill="#FEFEFE" d="M21.112,50.471c-6.799,0-12.311-0.793-12.311-1.772c0-0.978,5.512-1.772,12.311-1.772
		c6.797,0,12.309,0.794,12.309,1.772C33.421,49.678,27.909,50.471,21.112,50.471z"/>
	<path display="inline" fill="#FDFDFD" d="M21.112,50.463c-6.767,0-12.254-0.789-12.254-1.764c0-0.974,5.487-1.764,12.254-1.764
		c6.765,0,12.252,0.79,12.252,1.764C33.364,49.674,27.878,50.463,21.112,50.463z"/>
	<path display="inline" fill="#FDFDFD" d="M21.112,50.454c-6.736,0-12.197-0.785-12.197-1.755c0-0.969,5.461-1.755,12.197-1.755
		c6.734,0,12.195,0.786,12.195,1.755C33.307,49.669,27.846,50.454,21.112,50.454z"/>
	<path display="inline" fill="#FDFDFD" d="M21.112,50.446c-6.704,0-12.14-0.781-12.14-1.747c0-0.964,5.436-1.747,12.14-1.747
		c6.702,0,12.138,0.782,12.138,1.747C33.25,49.664,27.815,50.446,21.112,50.446z"/>
	<path display="inline" fill="#FCFDFD" d="M21.112,50.437c-6.673,0-12.083-0.777-12.083-1.738c0-0.96,5.41-1.738,12.083-1.738
		c6.671,0,12.081,0.779,12.081,1.738C33.193,49.66,27.783,50.437,21.112,50.437z"/>
	<path display="inline" fill="#FCFCFC" d="M21.112,50.429c-6.642,0-12.026-0.774-12.026-1.73c0-0.955,5.385-1.73,12.026-1.73
		c6.64,0,12.024,0.775,12.024,1.73C33.137,49.655,27.752,50.429,21.112,50.429z"/>
	<path display="inline" fill="#FCFCFC" d="M21.112,50.42c-6.61,0-11.969-0.77-11.969-1.721c0-0.95,5.359-1.721,11.969-1.721
		c6.608,0,11.967,0.771,11.967,1.721C33.08,49.65,27.72,50.42,21.112,50.42z"/>
	<path display="inline" fill="#FCFCFC" d="M21.112,50.412c-6.579,0-11.912-0.766-11.912-1.713c0-0.946,5.334-1.713,11.912-1.713
		c6.577,0,11.91,0.767,11.91,1.713C33.023,49.646,27.689,50.412,21.112,50.412z"/>
	<path display="inline" fill="#FBFBFC" d="M21.112,50.403c-6.547,0-11.855-0.762-11.855-1.704c0-0.941,5.308-1.704,11.855-1.704
		c6.545,0,11.853,0.763,11.853,1.704C32.966,49.641,27.657,50.403,21.112,50.403z"/>
	<path display="inline" fill="#FBFBFB" d="M21.112,50.395c-6.516,0-11.798-0.759-11.798-1.696c0-0.936,5.283-1.696,11.798-1.696
		c6.514,0,11.796,0.76,11.796,1.696C32.909,49.636,27.626,50.395,21.112,50.395z"/>
	<path display="inline" fill="#FBFBFB" d="M21.112,50.386c-6.484,0-11.741-0.755-11.741-1.687c0-0.932,5.257-1.687,11.741-1.687
		c6.482,0,11.739,0.756,11.739,1.687C32.852,49.632,27.594,50.386,21.112,50.386z"/>
	<path display="inline" fill="#FBFBFB" d="M21.112,50.378c-6.453,0-11.684-0.751-11.684-1.679c0-0.927,5.231-1.679,11.684-1.679
		c6.451,0,11.682,0.752,11.682,1.679C32.795,49.627,27.563,50.378,21.112,50.378z"/>
	<path display="inline" fill="#FAFAFB" d="M21.112,50.37c-6.421,0-11.627-0.747-11.627-1.671c0-0.922,5.206-1.671,11.627-1.671
		c6.419,0,11.625,0.748,11.625,1.671C32.738,49.622,27.532,50.37,21.112,50.37z"/>
	<path display="inline" fill="#FAFAFA" d="M21.112,50.361c-6.39,0-11.57-0.743-11.57-1.662c0-0.918,5.18-1.662,11.57-1.662
		c6.388,0,11.568,0.744,11.568,1.662C32.681,49.618,27.5,50.361,21.112,50.361z"/>
	<path display="inline" fill="#FAFAFA" d="M21.112,50.353c-6.358,0-11.513-0.74-11.513-1.654c0-0.913,5.155-1.654,11.513-1.654
		c6.356,0,11.511,0.741,11.511,1.654C32.624,49.613,27.469,50.353,21.112,50.353z"/>
	<path display="inline" fill="#F9FAFA" d="M21.112,50.344c-6.327,0-11.456-0.736-11.456-1.645c0-0.908,5.129-1.645,11.456-1.645
		c6.325,0,11.454,0.737,11.454,1.645C32.567,49.608,27.437,50.344,21.112,50.344z"/>
	<path display="inline" fill="#F9F9F9" d="M21.112,50.336c-6.295,0-11.399-0.732-11.399-1.637c0-0.904,5.104-1.637,11.399-1.637
		c6.293,0,11.397,0.733,11.397,1.637C32.51,49.604,27.406,50.336,21.112,50.336z"/>
	<path display="inline" fill="#F9F9F9" d="M21.112,50.327c-6.264,0-11.342-0.728-11.342-1.628c0-0.899,5.078-1.628,11.342-1.628
		c6.262,0,11.34,0.729,11.34,1.628C32.453,49.599,27.374,50.327,21.112,50.327z"/>
	<path display="inline" fill="#F9F9F9" d="M21.112,50.319c-6.233,0-11.285-0.724-11.285-1.62c0-0.894,5.053-1.62,11.285-1.62
		c6.23,0,11.283,0.726,11.283,1.62C32.396,49.594,27.343,50.319,21.112,50.319z"/>
	<path display="inline" fill="#F8F8F9" d="M21.112,50.31c-6.201,0-11.228-0.721-11.228-1.611c0-0.89,5.027-1.611,11.228-1.611
		c6.199,0,11.226,0.722,11.226,1.611C32.339,49.59,27.311,50.31,21.112,50.31z"/>
	<path display="inline" fill="#F8F8F8" d="M21.112,50.302c-6.17,0-11.171-0.717-11.171-1.603c0-0.885,5.002-1.603,11.171-1.603
		c6.167,0,11.169,0.718,11.169,1.603C32.282,49.585,27.28,50.302,21.112,50.302z"/>
	<path display="inline" fill="#F8F8F8" d="M21.112,50.293c-6.138,0-11.114-0.713-11.114-1.594c0-0.88,4.976-1.594,11.114-1.594
		c6.136,0,11.112,0.714,11.112,1.594C32.225,49.58,27.248,50.293,21.112,50.293z"/>
	<path display="inline" fill="#F7F8F8" d="M21.112,50.285c-6.107,0-11.057-0.709-11.057-1.586c0-0.876,4.951-1.586,11.057-1.586
		c6.105,0,11.055,0.71,11.055,1.586C32.168,49.576,27.217,50.285,21.112,50.285z"/>
	<path display="inline" fill="#F7F7F8" d="M21.112,50.277c-6.075,0-11-0.705-11-1.578c0-0.871,4.925-1.578,11-1.578
		c6.073,0,10.998,0.707,10.998,1.578C32.111,49.571,27.185,50.277,21.112,50.277z"/>
	<path display="inline" fill="#F7F7F7" d="M21.112,50.268c-6.044,0-10.943-0.702-10.943-1.569c0-0.866,4.9-1.569,10.943-1.569
		c6.042,0,10.941,0.703,10.941,1.569C32.054,49.566,27.154,50.268,21.112,50.268z"/>
	<path display="inline" fill="#F7F7F7" d="M21.112,50.26c-6.012,0-10.886-0.698-10.886-1.561c0-0.862,4.874-1.561,10.886-1.561
		c6.01,0,10.884,0.699,10.884,1.561C31.997,49.562,27.122,50.26,21.112,50.26z"/>
	<path display="inline" fill="#F6F7F7" d="M21.112,50.251c-5.981,0-10.829-0.694-10.829-1.552c0-0.857,4.849-1.552,10.829-1.552
		c5.979,0,10.827,0.695,10.827,1.552C31.94,49.557,27.091,50.251,21.112,50.251z"/>
	<path display="inline" fill="#F6F6F7" d="M21.112,50.243c-5.949,0-10.772-0.69-10.772-1.544c0-0.852,4.823-1.544,10.772-1.544
		c5.947,0,10.771,0.691,10.771,1.544C31.883,49.552,27.06,50.243,21.112,50.243z"/>
	<path display="inline" fill="#F6F6F6" d="M21.112,50.234c-5.918,0-10.715-0.687-10.715-1.535c0-0.848,4.798-1.535,10.715-1.535
		c5.916,0,10.714,0.688,10.714,1.535C31.826,49.548,27.028,50.234,21.112,50.234z"/>
	<path display="inline" fill="#F6F6F6" d="M21.112,50.226c-5.886,0-10.658-0.683-10.658-1.527c0-0.843,4.772-1.527,10.658-1.527
		c5.884,0,10.657,0.684,10.657,1.527C31.769,49.543,26.997,50.226,21.112,50.226z"/>
	<path display="inline" fill="#F5F6F6" d="M21.112,50.217c-5.855,0-10.601-0.679-10.601-1.518c0-0.838,4.747-1.518,10.601-1.518
		c5.853,0,10.6,0.68,10.6,1.518C31.712,49.538,26.965,50.217,21.112,50.217z"/>
	<path display="inline" fill="#F5F5F6" d="M21.112,50.209c-5.823,0-10.544-0.675-10.544-1.51c0-0.834,4.721-1.51,10.544-1.51
		c5.821,0,10.543,0.676,10.543,1.51C31.655,49.534,26.934,50.209,21.112,50.209z"/>
	<path display="inline" fill="#F5F5F5" d="M21.112,50.2c-5.792,0-10.487-0.671-10.487-1.501c0-0.829,4.695-1.501,10.487-1.501
		c5.79,0,10.486,0.673,10.486,1.501C31.598,49.529,26.902,50.2,21.112,50.2z"/>
	<path display="inline" fill="#F4F5F5" d="M21.112,50.192c-5.761,0-10.43-0.668-10.43-1.493c0-0.824,4.67-1.493,10.43-1.493
		c5.758,0,10.429,0.669,10.429,1.493C31.541,49.524,26.871,50.192,21.112,50.192z"/>
	<path display="inline" fill="#F4F4F5" d="M21.112,50.184c-5.729,0-10.373-0.664-10.373-1.485c0-0.82,4.644-1.485,10.373-1.485
		c5.727,0,10.372,0.665,10.372,1.485C31.484,49.52,26.839,50.184,21.112,50.184z"/>
	<path display="inline" fill="#F4F4F4" d="M21.112,50.175c-5.698,0-10.317-0.66-10.317-1.476c0-0.815,4.619-1.476,10.317-1.476
		c5.695,0,10.315,0.661,10.315,1.476C31.427,49.515,26.808,50.175,21.112,50.175z"/>
	<path display="inline" fill="#F4F4F4" d="M21.112,50.167c-5.666,0-10.26-0.656-10.26-1.468c0-0.81,4.593-1.468,10.26-1.468
		c5.664,0,10.258,0.657,10.258,1.468C31.37,49.51,26.776,50.167,21.112,50.167z"/>
	<path display="inline" fill="#F3F4F4" d="M21.112,50.158c-5.635,0-10.203-0.652-10.203-1.459c0-0.805,4.568-1.459,10.203-1.459
		c5.632,0,10.201,0.654,10.201,1.459C31.313,49.506,26.745,50.158,21.112,50.158z"/>
	<path display="inline" fill="#F3F3F4" d="M21.112,50.15c-5.603,0-10.146-0.649-10.146-1.451c0-0.801,4.542-1.451,10.146-1.451
		c5.601,0,10.144,0.65,10.144,1.451C31.256,49.501,26.713,50.15,21.112,50.15z"/>
	<path display="inline" fill="#F3F3F3" d="M21.112,50.141c-5.572,0-10.089-0.645-10.089-1.442c0-0.796,4.517-1.442,10.089-1.442
		c5.57,0,10.087,0.646,10.087,1.442C31.199,49.496,26.682,50.141,21.112,50.141z"/>
	<path display="inline" fill="#F2F3F3" d="M21.112,50.133c-5.54,0-10.032-0.641-10.032-1.434c0-0.791,4.491-1.434,10.032-1.434
		c5.538,0,10.03,0.642,10.03,1.434C31.142,49.492,26.65,50.133,21.112,50.133z"/>
	<path display="inline" fill="#F2F3F3" d="M21.112,50.124c-5.509,0-9.975-0.637-9.975-1.425c0-0.787,4.466-1.425,9.975-1.425
		c5.507,0,9.973,0.639,9.973,1.425C31.085,49.487,26.619,50.124,21.112,50.124z"/>
	<path display="inline" fill="#F2F2F3" d="M21.112,50.116c-5.477,0-9.918-0.634-9.918-1.417c0-0.782,4.44-1.417,9.918-1.417
		c5.475,0,9.916,0.635,9.916,1.417C31.028,49.482,26.587,50.116,21.112,50.116z"/>
	<path display="inline" fill="#F2F2F2" d="M21.112,50.107c-5.446,0-9.861-0.63-9.861-1.408c0-0.777,4.415-1.408,9.861-1.408
		c5.444,0,9.859,0.631,9.859,1.408C30.971,49.478,26.556,50.107,21.112,50.107z"/>
	<path display="inline" fill="#F1F2F2" d="M21.112,50.099c-5.414,0-9.804-0.626-9.804-1.4c0-0.773,4.389-1.4,9.804-1.4
		c5.412,0,9.802,0.627,9.802,1.4C30.914,49.473,26.525,50.099,21.112,50.099z"/>
	<path display="inline" fill="#F1F1F2" d="M21.112,50.09c-5.383,0-9.747-0.622-9.747-1.392c0-0.768,4.364-1.392,9.747-1.392
		c5.381,0,9.745,0.623,9.745,1.392C30.857,49.468,26.493,50.09,21.112,50.09z"/>
	<path display="inline" fill="#F1F1F2" d="M21.112,50.082c-5.351,0-9.69-0.618-9.69-1.383c0-0.763,4.338-1.383,9.69-1.383
		c5.349,0,9.688,0.62,9.688,1.383C30.8,49.464,26.462,50.082,21.112,50.082z"/>
	<path display="inline" fill="#F1F1F1" d="M21.112,50.074c-5.32,0-9.633-0.615-9.633-1.375c0-0.759,4.313-1.375,9.633-1.375
		c5.318,0,9.631,0.616,9.631,1.375C30.743,49.459,26.43,50.074,21.112,50.074z"/>
	<path display="inline" fill="#F0F1F1" d="M21.112,50.065c-5.289,0-9.576-0.611-9.576-1.366c0-0.754,4.287-1.366,9.576-1.366
		c5.286,0,9.574,0.612,9.574,1.366C30.686,49.454,26.399,50.065,21.112,50.065z"/>
	<path display="inline" fill="#F0F0F1" d="M21.112,50.057c-5.257,0-9.519-0.607-9.519-1.358c0-0.749,4.262-1.358,9.519-1.358
		c5.255,0,9.517,0.608,9.517,1.358C30.629,49.45,26.367,50.057,21.112,50.057z"/>
	<path display="inline" fill="#F0F0F1" d="M21.112,50.048c-5.226,0-9.462-0.603-9.462-1.349c0-0.745,4.236-1.349,9.462-1.349
		c5.223,0,9.46,0.604,9.46,1.349C30.572,49.445,26.336,50.048,21.112,50.048z"/>
	<path display="inline" fill="#EFF0F0" d="M21.112,50.04c-5.194,0-9.405-0.599-9.405-1.341c0-0.74,4.211-1.341,9.405-1.341
		c5.192,0,9.403,0.601,9.403,1.341C30.515,49.44,26.304,50.04,21.112,50.04z"/>
	<path display="inline" fill="#EFF0F0" d="M21.112,50.031c-5.163,0-9.348-0.596-9.348-1.332c0-0.735,4.185-1.332,9.348-1.332
		c5.16,0,9.346,0.597,9.346,1.332C30.458,49.436,26.273,50.031,21.112,50.031z"/>
	<path display="inline" fill="#EFEFF0" d="M21.112,50.023c-5.131,0-9.291-0.592-9.291-1.324c0-0.731,4.159-1.324,9.291-1.324
		c5.129,0,9.289,0.593,9.289,1.324C30.401,49.431,26.241,50.023,21.112,50.023z"/>
	<path display="inline" fill="#EFEFEF" d="M21.112,50.014c-5.1,0-9.234-0.588-9.234-1.315c0-0.726,4.134-1.315,9.234-1.315
		c5.097,0,9.232,0.589,9.232,1.315C30.344,49.426,26.21,50.014,21.112,50.014z"/>
	<path display="inline" fill="#EEEFEF" d="M21.112,50.006c-5.068,0-9.177-0.584-9.177-1.307c0-0.721,4.108-1.307,9.177-1.307
		c5.066,0,9.175,0.586,9.175,1.307C30.287,49.422,26.178,50.006,21.112,50.006z"/>
	<path display="inline" fill="#EEEEEF" d="M21.112,49.997c-5.037,0-9.12-0.58-9.12-1.299c0-0.717,4.083-1.299,9.12-1.299
		c5.035,0,9.118,0.582,9.118,1.299C30.23,49.417,26.147,49.997,21.112,49.997z"/>
	<path display="inline" fill="#EEEEEF" d="M21.112,49.989c-5.005,0-9.063-0.577-9.063-1.29c0-0.712,4.057-1.29,9.063-1.29
		c5.003,0,9.061,0.578,9.061,1.29C30.173,49.412,26.115,49.989,21.112,49.989z"/>
	<path display="inline" fill="#EDEEEE" d="M21.112,49.981c-4.974,0-9.006-0.573-9.006-1.282c0-0.707,4.032-1.282,9.006-1.282
		c4.972,0,9.004,0.574,9.004,1.282C30.116,49.408,26.084,49.981,21.112,49.981z"/>
	<path display="inline" fill="#EDEEEE" d="M21.112,49.972c-4.942,0-8.949-0.569-8.949-1.273c0-0.703,4.006-1.273,8.949-1.273
		c4.94,0,8.947,0.57,8.947,1.273C30.059,49.403,26.052,49.972,21.112,49.972z"/>
	<path display="inline" fill="#EDEDEE" d="M21.112,49.964c-4.911,0-8.892-0.565-8.892-1.265c0-0.698,3.981-1.265,8.892-1.265
		c4.909,0,8.89,0.567,8.89,1.265C30.002,49.398,26.021,49.964,21.112,49.964z"/>
	<path display="inline" fill="#EDEDEE" d="M21.112,49.955c-4.88,0-8.835-0.562-8.835-1.256c0-0.693,3.955-1.256,8.835-1.256
		c4.877,0,8.833,0.563,8.833,1.256C29.945,49.394,25.99,49.955,21.112,49.955z"/>
	<path display="inline" fill="#ECEDED" d="M21.112,49.947c-4.848,0-8.778-0.558-8.778-1.248c0-0.689,3.93-1.248,8.778-1.248
		c4.846,0,8.776,0.559,8.776,1.248C29.888,49.389,25.958,49.947,21.112,49.947z"/>
	<path display="inline" fill="#ECEDED" d="M21.112,49.938c-4.817,0-8.721-0.554-8.721-1.239c0-0.684,3.904-1.239,8.721-1.239
		c4.814,0,8.719,0.555,8.719,1.239C29.831,49.384,25.927,49.938,21.112,49.938z"/>
	<path display="inline" fill="#ECECED" d="M21.112,49.93c-4.785,0-8.664-0.55-8.664-1.231c0-0.679,3.879-1.231,8.664-1.231
		c4.783,0,8.662,0.552,8.662,1.231C29.774,49.38,25.895,49.93,21.112,49.93z"/>
	<path display="inline" fill="#ECECED" d="M21.112,49.921c-4.754,0-8.607-0.546-8.607-1.222c0-0.675,3.853-1.222,8.607-1.222
		c4.751,0,8.605,0.548,8.605,1.222C29.717,49.375,25.864,49.921,21.112,49.921z"/>
	<path display="inline" fill="#EBECEC" d="M21.112,49.913c-4.722,0-8.55-0.543-8.55-1.214c0-0.67,3.828-1.214,8.55-1.214
		c4.72,0,8.548,0.544,8.548,1.214C29.66,49.37,25.832,49.913,21.112,49.913z"/>
	<path display="inline" fill="#EBEBEC" d="M21.112,49.904c-4.691,0-8.493-0.539-8.493-1.206c0-0.665,3.802-1.206,8.493-1.206
		c4.688,0,8.491,0.54,8.491,1.206C29.603,49.366,25.801,49.904,21.112,49.904z"/>
	<path display="inline" fill="#EBEBEC" d="M21.112,49.896c-4.659,0-8.436-0.535-8.436-1.197c0-0.661,3.777-1.197,8.436-1.197
		c4.657,0,8.434,0.536,8.434,1.197C29.546,49.361,25.769,49.896,21.112,49.896z"/>
	<path display="inline" fill="#EAEBEC" d="M21.112,49.888c-4.628,0-8.379-0.531-8.379-1.189c0-0.656,3.751-1.189,8.379-1.189
		c4.625,0,8.377,0.533,8.377,1.189C29.489,49.356,25.738,49.888,21.112,49.888z"/>
	<path display="inline" fill="#EAEBEB" d="M21.112,49.879c-4.596,0-8.322-0.527-8.322-1.18c0-0.651,3.726-1.18,8.322-1.18
		c4.594,0,8.32,0.529,8.32,1.18C29.432,49.352,25.706,49.879,21.112,49.879z"/>
	<path display="inline" fill="#EAEAEB" d="M21.112,49.871c-4.565,0-8.265-0.524-8.265-1.172c0-0.647,3.7-1.172,8.265-1.172
		c4.563,0,8.263,0.525,8.263,1.172C29.375,49.347,25.675,49.871,21.112,49.871z"/>
	<path display="inline" fill="#EAEAEB" d="M21.112,49.862c-4.533,0-8.208-0.52-8.208-1.163c0-0.642,3.675-1.163,8.208-1.163
		c4.531,0,8.206,0.521,8.206,1.163C29.318,49.342,25.643,49.862,21.112,49.862z"/>
	<path display="inline" fill="#E9EAEB" d="M21.112,49.854c-4.502,0-8.151-0.516-8.151-1.155c0-0.637,3.649-1.155,8.151-1.155
		c4.5,0,8.149,0.517,8.149,1.155C29.261,49.338,25.612,49.854,21.112,49.854z"/>
	<path display="inline" fill="#E9EAEA" d="M21.112,49.845c-4.47,0-8.094-0.512-8.094-1.146c0-0.633,3.624-1.146,8.094-1.146
		c4.468,0,8.092,0.514,8.092,1.146C29.204,49.333,25.58,49.845,21.112,49.845z"/>
	<path display="inline" fill="#E9E9EA" d="M21.112,49.837c-4.439,0-8.037-0.509-8.037-1.138c0-0.628,3.598-1.138,8.037-1.138
		c4.437,0,8.035,0.51,8.035,1.138C29.148,49.328,25.549,49.837,21.112,49.837z"/>
	<path display="inline" fill="#E8E9EA" d="M21.112,49.828c-4.408,0-7.98-0.505-7.98-1.129c0-0.623,3.572-1.129,7.98-1.129
		c4.405,0,7.978,0.506,7.978,1.129C29.091,49.324,25.517,49.828,21.112,49.828z"/>
	<path display="inline" fill="#E8E9E9" d="M21.112,49.82c-4.376,0-7.923-0.501-7.923-1.121c0-0.619,3.547-1.121,7.923-1.121
		c4.374,0,7.921,0.502,7.921,1.121C29.034,49.319,25.486,49.82,21.112,49.82z"/>
	<path display="inline" fill="#E8E8E9" d="M21.112,49.811c-4.345,0-7.866-0.497-7.866-1.113c0-0.614,3.521-1.113,7.866-1.113
		c4.342,0,7.864,0.499,7.864,1.113C28.977,49.314,25.455,49.811,21.112,49.811z"/>
	<path display="inline" fill="#E8E8E9" d="M21.112,49.803c-4.313,0-7.809-0.493-7.809-1.104c0-0.609,3.496-1.104,7.809-1.104
		c4.311,0,7.807,0.495,7.807,1.104C28.92,49.31,25.423,49.803,21.112,49.803z"/>
	<path display="inline" fill="#E7E8E9" d="M21.112,49.795c-4.282,0-7.752-0.49-7.752-1.096c0-0.605,3.47-1.096,7.752-1.096
		c4.279,0,7.75,0.491,7.75,1.096C28.863,49.305,25.392,49.795,21.112,49.795z"/>
	<path display="inline" fill="#E7E8E8" d="M21.112,49.786c-4.25,0-7.695-0.486-7.695-1.087c0-0.6,3.445-1.087,7.695-1.087
		c4.248,0,7.693,0.487,7.693,1.087C28.806,49.3,25.36,49.786,21.112,49.786z"/>
	<path display="inline" fill="#E7E7E8" d="M21.112,49.778c-4.219,0-7.638-0.482-7.638-1.079c0-0.595,3.419-1.079,7.638-1.079
		c4.216,0,7.636,0.483,7.636,1.079C28.749,49.296,25.329,49.778,21.112,49.778z"/>
	<path display="inline" fill="#E7E7E8" d="M21.112,49.769c-4.187,0-7.581-0.478-7.581-1.07c0-0.591,3.394-1.07,7.581-1.07
		c4.185,0,7.579,0.48,7.579,1.07C28.692,49.291,25.297,49.769,21.112,49.769z"/>
	<path display="inline" fill="#E6E7E8" d="M21.112,49.761c-4.156,0-7.524-0.474-7.524-1.062c0-0.586,3.368-1.062,7.524-1.062
		c4.153,0,7.522,0.476,7.522,1.062C28.635,49.286,25.266,49.761,21.112,49.761z"/>
	<path display="inline" fill="#E6E7E7" d="M21.112,49.752c-4.124,0-7.467-0.471-7.467-1.053c0-0.581,3.343-1.053,7.467-1.053
		c4.122,0,7.465,0.472,7.465,1.053C28.578,49.282,25.234,49.752,21.112,49.752z"/>
	<path display="inline" fill="#E6E6E7" d="M21.112,49.744c-4.093,0-7.41-0.467-7.41-1.045c0-0.577,3.317-1.045,7.41-1.045
		c4.09,0,7.408,0.468,7.408,1.045C28.521,49.277,25.203,49.744,21.112,49.744z"/>
	<path display="inline" fill="#E5E6E7" d="M21.112,49.735c-4.061,0-7.353-0.463-7.353-1.036c0-0.572,3.292-1.036,7.353-1.036
		c4.059,0,7.351,0.465,7.351,1.036C28.464,49.272,25.171,49.735,21.112,49.735z"/>
	<path display="inline" fill="#E5E6E7" d="M21.112,49.727c-4.03,0-7.296-0.459-7.296-1.028c0-0.567,3.266-1.028,7.296-1.028
		c4.028,0,7.294,0.461,7.294,1.028C28.407,49.268,25.14,49.727,21.112,49.727z"/>
	<path display="inline" fill="#E5E6E6" d="M21.112,49.718c-3.998,0-7.239-0.455-7.239-1.02c0-0.563,3.241-1.02,7.239-1.02
		c3.996,0,7.237,0.457,7.237,1.02C28.35,49.263,25.108,49.718,21.112,49.718z"/>
	<path display="inline" fill="#E5E5E6" d="M21.112,49.71c-3.967,0-7.182-0.452-7.182-1.011c0-0.558,3.215-1.011,7.182-1.011
		c3.965,0,7.18,0.453,7.18,1.011C28.293,49.258,25.077,49.71,21.112,49.71z"/>
	<path display="inline" fill="#E4E5E6" d="M21.112,49.702c-3.936,0-7.125-0.448-7.125-1.003c0-0.553,3.19-1.003,7.125-1.003
		c3.933,0,7.123,0.449,7.123,1.003C28.236,49.254,25.045,49.702,21.112,49.702z"/>
	<path display="inline" fill="#E4E5E6" d="M21.112,49.693c-3.904,0-7.068-0.444-7.068-0.994c0-0.549,3.164-0.994,7.068-0.994
		c3.902,0,7.066,0.446,7.066,0.994C28.179,49.249,25.014,49.693,21.112,49.693z"/>
	<path display="inline" fill="#E4E4E5" d="M21.112,49.685c-3.873,0-7.011-0.44-7.011-0.986c0-0.544,3.139-0.986,7.011-0.986
		c3.87,0,7.009,0.442,7.009,0.986C28.122,49.244,24.982,49.685,21.112,49.685z"/>
	<path display="inline" fill="#E4E4E5" d="M21.112,49.676c-3.841,0-6.954-0.437-6.954-0.977c0-0.539,3.113-0.977,6.954-0.977
		c3.839,0,6.952,0.438,6.952,0.977C28.065,49.24,24.951,49.676,21.112,49.676z"/>
	<path display="inline" fill="#E3E4E5" d="M21.112,49.668c-3.81,0-6.897-0.433-6.897-0.969c0-0.535,3.088-0.969,6.897-0.969
		c3.807,0,6.895,0.434,6.895,0.969C28.008,49.235,24.92,49.668,21.112,49.668z"/>
	<path display="inline" fill="#E3E4E4" d="M21.112,49.659c-3.778,0-6.84-0.429-6.84-0.96c0-0.53,3.062-0.96,6.84-0.96
		c3.776,0,6.838,0.43,6.838,0.96C27.951,49.23,24.888,49.659,21.112,49.659z"/>
	<path display="inline" fill="#E3E3E4" d="M21.112,49.651c-3.747,0-6.783-0.425-6.783-0.952c0-0.525,3.036-0.952,6.783-0.952
		c3.744,0,6.782,0.427,6.782,0.952C27.894,49.226,24.857,49.651,21.112,49.651z"/>
	<path display="inline" fill="#E2E3E4" d="M21.112,49.642c-3.715,0-6.726-0.421-6.726-0.943c0-0.521,3.011-0.943,6.726-0.943
		c3.713,0,6.725,0.423,6.725,0.943C27.837,49.221,24.825,49.642,21.112,49.642z"/>
	<path display="inline" fill="#E2E3E4" d="M21.112,49.634c-3.684,0-6.669-0.418-6.669-0.935c0-0.516,2.985-0.935,6.669-0.935
		c3.681,0,6.668,0.419,6.668,0.935C27.78,49.216,24.794,49.634,21.112,49.634z"/>
	<path display="inline" fill="#E2E3E3" d="M21.112,49.625c-3.652,0-6.612-0.414-6.612-0.926c0-0.511,2.96-0.926,6.612-0.926
		c3.65,0,6.611,0.415,6.611,0.926C27.723,49.212,24.762,49.625,21.112,49.625z"/>
	<path display="inline" fill="#E2E2E3" d="M21.112,49.617c-3.621,0-6.555-0.41-6.555-0.918c0-0.506,2.934-0.918,6.555-0.918
		c3.618,0,6.554,0.412,6.554,0.918C27.666,49.207,24.731,49.617,21.112,49.617z"/>
	<path display="inline" fill="#E1E2E3" d="M21.112,49.609c-3.589,0-6.498-0.406-6.498-0.91c0-0.502,2.909-0.91,6.498-0.91
		c3.587,0,6.497,0.408,6.497,0.91C27.609,49.202,24.699,49.609,21.112,49.609z"/>
	<path display="inline" fill="#E1E2E3" d="M21.112,49.6c-3.558,0-6.441-0.402-6.441-0.901c0-0.497,2.883-0.901,6.441-0.901
		c3.555,0,6.44,0.404,6.44,0.901C27.552,49.198,24.668,49.6,21.112,49.6z"/>
	<path display="inline" fill="#E1E1E2" d="M21.112,49.592c-3.527,0-6.384-0.399-6.384-0.893c0-0.492,2.858-0.893,6.384-0.893
		c3.524,0,6.383,0.4,6.383,0.893C27.495,49.193,24.636,49.592,21.112,49.592z"/>
	<path display="inline" fill="#E0E1E2" d="M21.112,49.583c-3.495,0-6.327-0.395-6.327-0.884c0-0.488,2.832-0.884,6.327-0.884
		c3.493,0,6.326,0.396,6.326,0.884C27.438,49.188,24.605,49.583,21.112,49.583z"/>
	<path display="inline" fill="#E0E1E2" d="M21.112,49.575c-3.464,0-6.27-0.391-6.27-0.876c0-0.483,2.807-0.876,6.27-0.876
		c3.461,0,6.269,0.393,6.269,0.876C27.381,49.184,24.573,49.575,21.112,49.575z"/>
	<path display="inline" fill="#E0E1E2" d="M21.112,49.566c-3.432,0-6.213-0.387-6.213-0.867c0-0.478,2.781-0.867,6.213-0.867
		c3.43,0,6.212,0.389,6.212,0.867C27.324,49.179,24.542,49.566,21.112,49.566z"/>
	<path display="inline" fill="#E0E0E1" d="M21.112,49.558c-3.401,0-6.156-0.384-6.156-0.859c0-0.474,2.756-0.859,6.156-0.859
		c3.398,0,6.155,0.385,6.155,0.859C27.267,49.174,24.51,49.558,21.112,49.558z"/>
	<path display="inline" fill="#DFE0E1" d="M21.112,49.549c-3.369,0-6.099-0.38-6.099-0.85c0-0.469,2.73-0.85,6.099-0.85
		c3.367,0,6.098,0.381,6.098,0.85C27.21,49.17,24.479,49.549,21.112,49.549z"/>
	<path display="inline" fill="#DFE0E1" d="M21.112,49.541c-3.338,0-6.042-0.376-6.042-0.842c0-0.464,2.705-0.842,6.042-0.842
		c3.335,0,6.041,0.377,6.041,0.842C27.153,49.165,24.447,49.541,21.112,49.541z"/>
	<path display="inline" fill="#DFE0E1" d="M21.112,49.532c-3.306,0-5.985-0.372-5.985-0.833c0-0.46,2.679-0.833,5.985-0.833
		c3.304,0,5.984,0.374,5.984,0.833C27.096,49.16,24.416,49.532,21.112,49.532z"/>
	<path display="inline" fill="#DFDFE0" d="M21.112,49.524c-3.275,0-5.928-0.368-5.928-0.825c0-0.455,2.654-0.825,5.928-0.825
		c3.272,0,5.927,0.37,5.927,0.825C27.039,49.156,24.385,49.524,21.112,49.524z"/>
	<path display="inline" fill="#DEDFE0" d="M21.112,49.516c-3.243,0-5.871-0.365-5.871-0.817c0-0.45,2.628-0.817,5.871-0.817
		c3.241,0,5.87,0.366,5.87,0.817C26.982,49.151,24.353,49.516,21.112,49.516z"/>
	<path display="inline" fill="#DEDFE0" d="M21.112,49.507c-3.212,0-5.814-0.361-5.814-0.808c0-0.446,2.603-0.808,5.814-0.808
		c3.209,0,5.813,0.362,5.813,0.808C26.925,49.146,24.322,49.507,21.112,49.507z"/>
	<path display="inline" fill="#DEDEDF" d="M21.112,49.499c-3.18,0-5.757-0.357-5.757-0.8c0-0.441,2.577-0.8,5.757-0.8
		c3.178,0,5.756,0.359,5.756,0.8C26.868,49.142,24.29,49.499,21.112,49.499z"/>
	<path display="inline" fill="#DDDEDF" d="M21.112,49.49c-3.149,0-5.7-0.353-5.7-0.791c0-0.436,2.552-0.791,5.7-0.791
		c3.146,0,5.699,0.355,5.699,0.791C26.811,49.137,24.259,49.49,21.112,49.49z"/>
	<path display="inline" fill="#DDDEDF" d="M21.112,49.482c-3.117,0-5.643-0.349-5.643-0.783c0-0.432,2.526-0.783,5.643-0.783
		c3.115,0,5.642,0.351,5.642,0.783C26.754,49.132,24.227,49.482,21.112,49.482z"/>
	<path display="inline" fill="#DDDEDF" d="M21.112,49.473c-3.086,0-5.586-0.346-5.586-0.774c0-0.427,2.5-0.774,5.586-0.774
		c3.083,0,5.585,0.347,5.585,0.774C26.697,49.128,24.196,49.473,21.112,49.473z"/>
	<path display="inline" fill="#DDDDDE" d="M21.112,49.465c-3.055,0-5.53-0.342-5.53-0.766c0-0.422,2.475-0.766,5.53-0.766
		c3.052,0,5.528,0.343,5.528,0.766C26.64,49.123,24.164,49.465,21.112,49.465z"/>
	<path display="inline" fill="#DCDDDE" d="M21.112,49.456c-3.023,0-5.473-0.338-5.473-0.757c0-0.418,2.449-0.757,5.473-0.757
		c3.02,0,5.471,0.34,5.471,0.757C26.583,49.118,24.133,49.456,21.112,49.456z"/>
	<path display="inline" fill="#DCDDDE" d="M21.112,49.448c-2.992,0-5.416-0.334-5.416-0.749c0-0.413,2.424-0.749,5.416-0.749
		c2.989,0,5.414,0.336,5.414,0.749C26.526,49.114,24.101,49.448,21.112,49.448z"/>
	<path display="inline" fill="#DCDDDE" d="M21.112,49.439c-2.96,0-5.359-0.33-5.359-0.74c0-0.408,2.398-0.74,5.359-0.74
		c2.958,0,5.357,0.332,5.357,0.74C26.469,49.109,24.07,49.439,21.112,49.439z"/>
	<path display="inline" fill="#DBDCDD" d="M21.112,49.431c-2.929,0-5.302-0.327-5.302-0.732c0-0.404,2.373-0.732,5.302-0.732
		c2.926,0,5.3,0.328,5.3,0.732C26.412,49.104,24.038,49.431,21.112,49.431z"/>
	<path display="inline" fill="#DBDCDD" d="M21.112,49.423c-2.897,0-5.245-0.323-5.245-0.724c0-0.399,2.347-0.724,5.245-0.724
		c2.895,0,5.243,0.325,5.243,0.724C26.355,49.1,24.007,49.423,21.112,49.423z"/>
	<path display="inline" fill="#DBDCDD" d="M21.112,49.414c-2.866,0-5.188-0.319-5.188-0.715c0-0.394,2.322-0.715,5.188-0.715
		c2.863,0,5.186,0.321,5.186,0.715C26.298,49.095,23.975,49.414,21.112,49.414z"/>
	<path display="inline" fill="#DBDBDD" d="M21.112,49.406c-2.834,0-5.131-0.315-5.131-0.707c0-0.39,2.296-0.707,5.131-0.707
		c2.832,0,5.129,0.317,5.129,0.707C26.241,49.09,23.944,49.406,21.112,49.406z"/>
	<path display="inline" fill="#DADBDC" d="M21.112,49.397c-2.803,0-5.074-0.312-5.074-0.698c0-0.385,2.271-0.698,5.074-0.698
		c2.8,0,5.072,0.313,5.072,0.698C26.184,49.086,23.912,49.397,21.112,49.397z"/>
	<path display="inline" fill="#DADBDC" d="M21.112,49.389c-2.771,0-5.017-0.308-5.017-0.69c0-0.38,2.245-0.69,5.017-0.69
		c2.769,0,5.015,0.309,5.015,0.69C26.127,49.081,23.881,49.389,21.112,49.389z"/>
	<path display="inline" fill="#DADBDC" d="M21.112,49.38c-2.74,0-4.96-0.304-4.96-0.681c0-0.376,2.22-0.681,4.96-0.681
		c2.737,0,4.958,0.306,4.958,0.681C26.07,49.076,23.85,49.38,21.112,49.38z"/>
	<path display="inline" fill="#DADADC" d="M21.112,49.372c-2.708,0-4.903-0.3-4.903-0.673c0-0.371,2.194-0.673,4.903-0.673
		c2.706,0,4.901,0.302,4.901,0.673C26.013,49.072,23.818,49.372,21.112,49.372z"/>
	<path display="inline" fill="#D9DADB" d="M21.112,49.363c-2.677,0-4.846-0.296-4.846-0.664c0-0.366,2.169-0.664,4.846-0.664
		c2.674,0,4.844,0.298,4.844,0.664C25.956,49.067,23.787,49.363,21.112,49.363z"/>
	<path display="inline" fill="#D9DADB" d="M21.112,49.355c-2.645,0-4.789-0.293-4.789-0.656c0-0.362,2.143-0.656,4.789-0.656
		c2.643,0,4.787,0.294,4.787,0.656C25.899,49.062,23.755,49.355,21.112,49.355z"/>
	<path display="inline" fill="#D9DADB" d="M21.112,49.346c-2.614,0-4.732-0.289-4.732-0.647c0-0.357,2.118-0.647,4.732-0.647
		c2.611,0,4.73,0.29,4.73,0.647C25.842,49.058,23.724,49.346,21.112,49.346z"/>
	<path display="inline" fill="#D8D9DA" d="M21.112,49.338c-2.583,0-4.675-0.285-4.675-0.639c0-0.352,2.092-0.639,4.675-0.639
		c2.58,0,4.673,0.287,4.673,0.639C25.785,49.053,23.692,49.338,21.112,49.338z"/>
	<path display="inline" fill="#D8D9DA" d="M21.112,49.33c-2.551,0-4.618-0.281-4.618-0.631c0-0.348,2.067-0.631,4.618-0.631
		c2.548,0,4.616,0.283,4.616,0.631C25.728,49.048,23.661,49.33,21.112,49.33z"/>
	<path display="inline" fill="#D8D9DA" d="M21.112,49.321c-2.52,0-4.561-0.277-4.561-0.622c0-0.343,2.041-0.622,4.561-0.622
		c2.517,0,4.559,0.279,4.559,0.622C25.671,49.044,23.629,49.321,21.112,49.321z"/>
	<path display="inline" fill="#D8D9DA" d="M21.112,49.313c-2.488,0-4.504-0.274-4.504-0.614c0-0.338,2.016-0.614,4.504-0.614
		c2.485,0,4.502,0.275,4.502,0.614C25.614,49.039,23.598,49.313,21.112,49.313z"/>
	<path display="inline" fill="#D7D8D9" d="M21.112,49.304c-2.457,0-4.447-0.27-4.447-0.605c0-0.334,1.99-0.605,4.447-0.605
		c2.454,0,4.445,0.272,4.445,0.605C25.557,49.034,23.566,49.304,21.112,49.304z"/>
	<path display="inline" fill="#D7D8D9" d="M21.112,49.296c-2.425,0-4.39-0.266-4.39-0.597c0-0.329,1.965-0.597,4.39-0.597
		c2.423,0,4.388,0.268,4.388,0.597C25.5,49.03,23.535,49.296,21.112,49.296z"/>
	<path display="inline" fill="#D7D8D9" d="M21.112,49.287c-2.394,0-4.333-0.262-4.333-0.588c0-0.324,1.939-0.588,4.333-0.588
		c2.391,0,4.331,0.264,4.331,0.588C25.443,49.025,23.503,49.287,21.112,49.287z"/>
	<path display="inline" fill="#D6D7D9" d="M21.112,49.279c-2.362,0-4.276-0.259-4.276-0.58c0-0.32,1.913-0.58,4.276-0.58
		c2.36,0,4.274,0.26,4.274,0.58C25.386,49.02,23.472,49.279,21.112,49.279z"/>
	<path display="inline" fill="#D6D7D8" d="M21.112,49.27c-2.331,0-4.219-0.255-4.219-0.571c0-0.315,1.888-0.571,4.219-0.571
		c2.328,0,4.217,0.256,4.217,0.571C25.329,49.016,23.44,49.27,21.112,49.27z"/>
	<path display="inline" fill="#D6D7D8" d="M21.112,49.262c-2.299,0-4.162-0.251-4.162-0.563c0-0.31,1.862-0.563,4.162-0.563
		c2.297,0,4.16,0.253,4.16,0.563C25.272,49.011,23.409,49.262,21.112,49.262z"/>
	<path display="inline" fill="#D6D7D8" d="M21.112,49.253c-2.268,0-4.105-0.247-4.105-0.554c0-0.306,1.837-0.554,4.105-0.554
		c2.265,0,4.103,0.249,4.103,0.554C25.215,49.006,23.377,49.253,21.112,49.253z"/>
	<path display="inline" fill="#D5D6D8" d="M21.112,49.245c-2.236,0-4.048-0.243-4.048-0.546c0-0.301,1.811-0.546,4.048-0.546
		c2.234,0,4.046,0.245,4.046,0.546C25.159,49.002,23.346,49.245,21.112,49.245z"/>
	<path display="inline" fill="#D5D6D7" d="M21.112,49.237c-2.205,0-3.991-0.24-3.991-0.538c0-0.296,1.786-0.538,3.991-0.538
		c2.202,0,3.989,0.241,3.989,0.538C25.102,48.997,23.315,49.237,21.112,49.237z"/>
	<path display="inline" fill="#D5D6D7" d="M21.112,49.228c-2.174,0-3.934-0.236-3.934-0.529c0-0.292,1.76-0.529,3.934-0.529
		c2.171,0,3.932,0.238,3.932,0.529C25.045,48.992,23.283,49.228,21.112,49.228z"/>
	<path display="inline" fill="#D5D6D7" d="M21.112,49.22c-2.142,0-3.877-0.232-3.877-0.521c0-0.287,1.735-0.521,3.877-0.521
		c2.139,0,3.875,0.234,3.875,0.521C24.988,48.988,23.252,49.22,21.112,49.22z"/>
	<path display="inline" fill="#D4D5D7" d="M21.112,49.211c-2.111,0-3.82-0.228-3.82-0.512c0-0.282,1.709-0.512,3.82-0.512
		c2.108,0,3.818,0.23,3.818,0.512C24.931,48.983,23.22,49.211,21.112,49.211z"/>
	<path display="inline" fill="#D4D5D6" d="M21.112,49.203c-2.079,0-3.763-0.224-3.763-0.504c0-0.278,1.684-0.504,3.763-0.504
		c2.076,0,3.761,0.226,3.761,0.504C24.874,48.978,23.189,49.203,21.112,49.203z"/>
	<path display="inline" fill="#D4D5D6" d="M21.112,49.194c-2.048,0-3.706-0.221-3.706-0.495c0-0.273,1.658-0.495,3.706-0.495
		c2.045,0,3.704,0.222,3.704,0.495C24.817,48.974,23.157,49.194,21.112,49.194z"/>
	<path display="inline" fill="#D3D4D6" d="M21.112,49.186c-2.016,0-3.649-0.217-3.649-0.487c0-0.268,1.633-0.487,3.649-0.487
		c2.013,0,3.647,0.219,3.647,0.487C24.76,48.969,23.126,49.186,21.112,49.186z"/>
	<path display="inline" fill="#D3D4D5" d="M21.112,49.177c-1.985,0-3.592-0.213-3.592-0.478c0-0.264,1.607-0.478,3.592-0.478
		c1.982,0,3.59,0.215,3.59,0.478C24.703,48.964,23.094,49.177,21.112,49.177z"/>
	<path display="inline" fill="#D3D4D5" d="M21.112,49.169c-1.953,0-3.535-0.209-3.535-0.47c0-0.259,1.582-0.47,3.535-0.47
		c1.95,0,3.533,0.211,3.533,0.47C24.646,48.96,23.063,49.169,21.112,49.169z"/>
	<path display="inline" fill="#D3D4D5" d="M21.112,49.16c-1.922,0-3.478-0.205-3.478-0.461c0-0.254,1.556-0.461,3.478-0.461
		c1.919,0,3.476,0.207,3.476,0.461C24.589,48.955,23.031,49.16,21.112,49.16z"/>
	<path display="inline" fill="#D2D3D5" d="M21.112,49.152c-1.89,0-3.421-0.202-3.421-0.453c0-0.25,1.531-0.453,3.421-0.453
		c1.888,0,3.419,0.203,3.419,0.453C24.532,48.95,23,49.152,21.112,49.152z"/>
	<path display="inline" fill="#D2D3D4" d="M21.112,49.144c-1.859,0-3.364-0.198-3.364-0.445c0-0.245,1.505-0.445,3.364-0.445
		c1.856,0,3.362,0.2,3.362,0.445C24.475,48.946,22.968,49.144,21.112,49.144z"/>
	<path display="inline" fill="#D2D3D4" d="M21.112,49.135c-1.827,0-3.307-0.194-3.307-0.436c0-0.24,1.48-0.436,3.307-0.436
		c1.825,0,3.305,0.196,3.305,0.436C24.418,48.941,22.937,49.135,21.112,49.135z"/>
	<path display="inline" fill="#D1D3D4" d="M21.112,49.127c-1.796,0-3.25-0.19-3.25-0.428c0-0.236,1.454-0.428,3.25-0.428
		c1.793,0,3.248,0.192,3.248,0.428C24.361,48.936,22.905,49.127,21.112,49.127z"/>
	<path display="inline" fill="#D1D2D4" d="M21.112,49.118c-1.764,0-3.193-0.187-3.193-0.419c0-0.231,1.429-0.419,3.193-0.419
		c1.762,0,3.191,0.188,3.191,0.419C24.304,48.932,22.874,49.118,21.112,49.118z"/>
	<path display="inline" fill="#D1D2D3" d="M21.112,49.11c-1.733,0-3.136-0.183-3.136-0.411c0-0.226,1.403-0.411,3.136-0.411
		c1.73,0,3.134,0.185,3.134,0.411C24.247,48.927,22.843,49.11,21.112,49.11z"/>
	<path display="inline" fill="#D1D2D3" d="M21.112,49.101c-1.702,0-3.079-0.179-3.079-0.402c0-0.222,1.377-0.402,3.079-0.402
		c1.699,0,3.077,0.181,3.077,0.402C24.19,48.922,22.811,49.101,21.112,49.101z"/>
	<path display="inline" fill="#D0D1D3" d="M21.112,49.093c-1.67,0-3.022-0.175-3.022-0.394c0-0.217,1.352-0.394,3.022-0.394
		c1.667,0,3.02,0.177,3.02,0.394C24.133,48.918,22.78,49.093,21.112,49.093z"/>
	<path display="inline" fill="#D0D1D3" d="M21.112,49.084c-1.639,0-2.965-0.171-2.965-0.385c0-0.212,1.326-0.385,2.965-0.385
		c1.636,0,2.963,0.173,2.963,0.385C24.076,48.913,22.748,49.084,21.112,49.084z"/>
	<path display="inline" fill="#D0D1D2" d="M21.112,49.076c-1.607,0-2.908-0.168-2.908-0.377c0-0.207,1.301-0.377,2.908-0.377
		c1.604,0,2.906,0.169,2.906,0.377C24.019,48.908,22.717,49.076,21.112,49.076z"/>
	<path display="inline" fill="#D0D1D2" d="M21.112,49.067c-1.576,0-2.851-0.164-2.851-0.368c0-0.203,1.275-0.368,2.851-0.368
		c1.573,0,2.849,0.166,2.849,0.368C23.962,48.904,22.685,49.067,21.112,49.067z"/>
	<path display="inline" fill="#CFD0D2" d="M21.112,49.059c-1.544,0-2.794-0.16-2.794-0.36c0-0.198,1.25-0.36,2.794-0.36
		c1.541,0,2.793,0.162,2.793,0.36C23.905,48.899,22.654,49.059,21.112,49.059z"/>
	<path display="inline" fill="#CFD0D2" d="M21.112,49.051c-1.513,0-2.737-0.156-2.737-0.352c0-0.193,1.224-0.352,2.737-0.352
		c1.51,0,2.736,0.158,2.736,0.352C23.848,48.894,22.622,49.051,21.112,49.051z"/>
	<path display="inline" fill="#CFD0D1" d="M21.112,49.042c-1.481,0-2.68-0.152-2.68-0.343c0-0.189,1.199-0.343,2.68-0.343
		c1.478,0,2.679,0.154,2.679,0.343C23.791,48.89,22.591,49.042,21.112,49.042z"/>
	<path display="inline" fill="#CED0D1" d="M21.112,49.034c-1.45,0-2.623-0.149-2.623-0.335c0-0.184,1.173-0.335,2.623-0.335
		c1.447,0,2.622,0.151,2.622,0.335C23.734,48.885,22.559,49.034,21.112,49.034z"/>
	<path display="inline" fill="#CECFD1" d="M21.112,49.025c-1.418,0-2.566-0.145-2.566-0.326c0-0.179,1.148-0.326,2.566-0.326
		c1.415,0,2.565,0.147,2.565,0.326C23.677,48.88,22.528,49.025,21.112,49.025z"/>
	<path display="inline" fill="#CECFD0" d="M21.112,49.017c-1.387,0-2.509-0.141-2.509-0.318c0-0.175,1.122-0.318,2.509-0.318
		c1.384,0,2.508,0.143,2.508,0.318C23.62,48.876,22.496,49.017,21.112,49.017z"/>
	<path display="inline" fill="#CECFD0" d="M21.112,49.008c-1.355,0-2.452-0.137-2.452-0.309c0-0.17,1.097-0.309,2.452-0.309
		c1.353,0,2.451,0.139,2.451,0.309C23.563,48.871,22.465,49.008,21.112,49.008z"/>
	<path display="inline" fill="#CDCED0" d="M21.112,49c-1.324,0-2.395-0.134-2.395-0.301c0-0.165,1.071-0.301,2.395-0.301
		c1.321,0,2.394,0.135,2.394,0.301C23.506,48.866,22.433,49,21.112,49z"/>
	<path display="inline" fill="#CDCED0" d="M21.112,48.991c-1.292,0-2.338-0.13-2.338-0.292c0-0.161,1.046-0.292,2.338-0.292
		c1.29,0,2.337,0.132,2.337,0.292C23.449,48.862,22.402,48.991,21.112,48.991z"/>
	<path display="inline" fill="#CDCECF" d="M21.112,48.983c-1.261,0-2.281-0.126-2.281-0.284c0-0.156,1.02-0.284,2.281-0.284
		c1.258,0,2.28,0.128,2.28,0.284C23.392,48.857,22.37,48.983,21.112,48.983z"/>
	<path display="inline" fill="#CCCECF" d="M21.112,48.974c-1.23,0-2.224-0.122-2.224-0.275c0-0.151,0.995-0.275,2.224-0.275
		c1.227,0,2.223,0.124,2.223,0.275C23.335,48.852,22.339,48.974,21.112,48.974z"/>
	<path display="inline" fill="#CCCDCF" d="M21.112,48.966c-1.198,0-2.167-0.118-2.167-0.267c0-0.147,0.969-0.267,2.167-0.267
		c1.195,0,2.166,0.12,2.166,0.267C23.278,48.848,22.308,48.966,21.112,48.966z"/>
	<path display="inline" fill="#CCCDCF" d="M21.112,48.958c-1.167,0-2.11-0.115-2.11-0.259c0-0.142,0.944-0.259,2.11-0.259
		c1.164,0,2.109,0.116,2.109,0.259C23.221,48.843,22.276,48.958,21.112,48.958z"/>
	<path display="inline" fill="#CCCDCE" d="M21.112,48.949c-1.135,0-2.053-0.111-2.053-0.25c0-0.137,0.918-0.25,2.053-0.25
		c1.132,0,2.052,0.113,2.052,0.25C23.164,48.838,22.245,48.949,21.112,48.949z"/>
	<path display="inline" fill="#CBCDCE" d="M21.112,48.941c-1.104,0-1.996-0.107-1.996-0.242c0-0.133,0.893-0.242,1.996-0.242
		c1.101,0,1.995,0.109,1.995,0.242C23.107,48.834,22.213,48.941,21.112,48.941z"/>
	<path display="inline" fill="#CBCCCE" d="M21.112,48.932c-1.072,0-1.939-0.103-1.939-0.233c0-0.128,0.867-0.233,1.939-0.233
		c1.069,0,1.938,0.105,1.938,0.233C23.05,48.829,22.182,48.932,21.112,48.932z"/>
	<path display="inline" fill="#CBCCCE" d="M21.112,48.924c-1.041,0-1.882-0.099-1.882-0.225c0-0.123,0.842-0.225,1.882-0.225
		c1.038,0,1.881,0.101,1.881,0.225C22.993,48.824,22.15,48.924,21.112,48.924z"/>
	<path display="inline" fill="#CBCCCD" d="M21.112,48.915c-1.009,0-1.825-0.096-1.825-0.216c0-0.119,0.816-0.216,1.825-0.216
		c1.006,0,1.824,0.098,1.824,0.216C22.936,48.82,22.119,48.915,21.112,48.915z"/>
	<path display="inline" fill="#CACBCD" d="M21.112,48.907c-0.978,0-1.768-0.092-1.768-0.208c0-0.114,0.79-0.208,1.768-0.208
		c0.975,0,1.767,0.094,1.767,0.208C22.879,48.815,22.087,48.907,21.112,48.907z"/>
	<path display="inline" fill="#CACBCD" d="M21.112,48.898c-0.946,0-1.711-0.088-1.711-0.199c0-0.109,0.765-0.199,1.711-0.199
		c0.943,0,1.71,0.09,1.71,0.199C22.822,48.81,22.056,48.898,21.112,48.898z"/>
	<path display="inline" fill="#CACBCD" d="M21.112,48.89c-0.915,0-1.654-0.084-1.654-0.191c0-0.105,0.739-0.191,1.654-0.191
		c0.912,0,1.653,0.086,1.653,0.191C22.765,48.806,22.024,48.89,21.112,48.89z"/>
	<path display="inline" fill="#C9CBCC" d="M21.112,48.881c-0.883,0-1.597-0.08-1.597-0.182c0-0.1,0.714-0.182,1.597-0.182
		c0.88,0,1.596,0.082,1.596,0.182C22.708,48.801,21.993,48.881,21.112,48.881z"/>
	<path display="inline" fill="#C9CACC" d="M21.112,48.873c-0.852,0-1.54-0.077-1.54-0.174c0-0.095,0.688-0.174,1.54-0.174
		c0.849,0,1.539,0.079,1.539,0.174C22.651,48.796,21.961,48.873,21.112,48.873z"/>
	<path display="inline" fill="#C9CACC" d="M21.112,48.865c-0.82,0-1.483-0.073-1.483-0.166c0-0.091,0.663-0.166,1.483-0.166
		c0.818,0,1.482,0.075,1.482,0.166C22.594,48.792,21.93,48.865,21.112,48.865z"/>
	<path display="inline" fill="#C9CACC" d="M21.112,48.856c-0.789,0-1.426-0.069-1.426-0.157c0-0.086,0.637-0.157,1.426-0.157
		c0.786,0,1.425,0.071,1.425,0.157C22.537,48.787,21.898,48.856,21.112,48.856z"/>
	<path display="inline" fill="#C8CACB" d="M21.112,48.848c-0.758,0-1.369-0.065-1.369-0.149c0-0.081,0.612-0.149,1.369-0.149
		c0.755,0,1.368,0.067,1.368,0.149C22.48,48.782,21.867,48.848,21.112,48.848z"/>
	<path display="inline" fill="#C8C9CB" d="M21.112,48.839c-0.726,0-1.312-0.062-1.312-0.14c0-0.077,0.586-0.14,1.312-0.14
		c0.723,0,1.311,0.063,1.311,0.14C22.423,48.778,21.835,48.839,21.112,48.839z"/>
	<path display="inline" fill="#C8C9CB" d="M21.112,48.831c-0.695,0-1.255-0.058-1.255-0.132c0-0.072,0.561-0.132,1.255-0.132
		c0.692,0,1.254,0.06,1.254,0.132C22.366,48.773,21.804,48.831,21.112,48.831z"/>
	<path display="inline" fill="#C7C9CA" d="M21.112,48.822c-0.663,0-1.198-0.054-1.198-0.123c0-0.067,0.535-0.123,1.198-0.123
		c0.66,0,1.197,0.056,1.197,0.123C22.309,48.768,21.773,48.822,21.112,48.822z"/>
	<path display="inline" fill="#C7C9CA" d="M21.112,48.814c-0.632,0-1.141-0.05-1.141-0.115c0-0.063,0.51-0.115,1.141-0.115
		c0.629,0,1.14,0.052,1.14,0.115C22.252,48.764,21.741,48.814,21.112,48.814z"/>
	<path display="inline" fill="#C7C8CA" d="M21.112,48.805c-0.6,0-1.084-0.046-1.084-0.106c0-0.058,0.484-0.106,1.084-0.106
		c0.597,0,1.083,0.048,1.083,0.106C22.195,48.759,21.71,48.805,21.112,48.805z"/>
	<path display="inline" fill="#C7C8CA" d="M22.138,48.699c0,0.055-0.46,0.098-1.026,0.098c-0.569,0-1.027-0.043-1.027-0.098
		c0-0.053,0.459-0.098,1.027-0.098C21.678,48.601,22.138,48.646,22.138,48.699z"/>
</g>
<g>
	<path fill="#FFFFFF" d="M21.451,19.8c-2.498-2.04-4.851-4.093-6.774-6.066c1.48,2.267,3.36,4.694,5.325,7.226
		c8.104,10.451,13.192,16.905,10.817,20.349c1.938-1.01,3.698-2.31,5.224-3.845C37.684,33.197,32.181,28.565,21.451,19.8z"/>
	<path fill="#FFFFFF" d="M20.299,1.535c-1.209,1.879,1.845,5.742,3.269,7.541c3.226,4.078,6.844,7.826,9.992,11.969
		c1.176,1.548,2.816,3.914,3.962,6.399c1.296,2.813,1.59,4.881,1.323,6.505c2.103-3.28,3.339-7.168,3.339-11.352
		c0-11.652-9.444-21.097-21.096-21.097C20.823,1.5,20.563,1.525,20.299,1.535z"/>
	<path fill="#FFFFFF" d="M23.32,17.246c3.805,3.016,6.994,5.626,9.454,7.944c-1.597-2.438-3.711-5.224-6.384-8.44
		c-5.066-6.096-9.863-12.258-8.249-15.024c-1.947,0.273-3.807,0.807-5.545,1.574c-0.239,0.329-0.435,0.669-0.58,1.023
		C11.351,7.75,17.013,12.244,23.32,17.246z"/>
	<path fill="#FFFFFF" d="M20.714,27.239C13.221,17.836,7.806,9.555,9.744,4.834C8.996,5.313,8.269,5.822,7.589,6.389L7.591,6.39
		C4.63,8.861,2.36,12.13,1.103,15.866c4.159-10.285,18.173,8.059,14.012,11.859c-2.234,2.041-5.578-0.941-5.578-0.941
		c6.531,3.428,5.156-5.545-2.475-11.18c-0.897-0.662-3.666-1.937-5.548,0.795c0,0,2.653,3.511,4.084,5.336
		c9.866,12.567,14.833,19.635,8.901,20.161c-0.673,0.058-1.336-0.098-2.593-0.647c-0.236-0.103-0.972-0.5-1.211-0.723
		c0,0,10.273,5.501-4.369-12.5c-2.27-2.792-6.079-8.076-6.143-8.165C0.067,20.757,0,21.669,0,22.596
		c0,11.648,9.444,21.093,21.094,21.093c2.299,0,4.51-0.375,6.581-1.056C30.617,39.926,26.756,34.823,20.714,27.239z"/>
</g>
<g>
	<path fill="#FFFFFF" d="M57.684,26.531h-4.64c-0.471,0-0.962,0.038-1.415,0.358c-0.585,0.415-0.679,0.981-0.679,1.548v11.299h3.697
		v-3.207h2.735c1.038,0,2.547-0.094,3.452-1.377c0.774-1.113,0.812-3.055,0.812-3.924c0-0.962-0.076-2.622-1.075-3.659
		C59.645,26.605,58.344,26.531,57.684,26.531z M57.646,33.076c-0.17,0.321-0.565,0.773-1.377,0.773h-1.622v-4.168
		c0-0.114,0.057-0.265,0.133-0.339c0.056-0.057,0.226-0.133,0.302-0.133h1.301c0.227,0,1,0.038,1.321,0.849
		c0.15,0.397,0.17,0.887,0.17,1.453C57.873,32.152,57.854,32.679,57.646,33.076z"/>
	<path fill="#FFFFFF" d="M63.741,27.474c-1.113,0.905-1.188,2.301-1.188,3.263v5.791h3.696v-4.772c0-0.566,0.057-1.321,0.491-1.906
		c0.472-0.623,1.151-0.716,1.868-0.716h1.283v-2.604h-2.452C66.457,26.531,64.834,26.568,63.741,27.474z"/>
	<path fill="#FFFFFF" d="M76.003,26.417c-1.584,0-3.358,0.056-4.452,1.018c-1.245,1.113-1.321,3.094-1.321,4.094
		c0,1,0.076,2.981,1.321,4.093c1.094,0.963,2.867,1.019,4.452,1.019c1.585,0,3.357-0.056,4.452-1.019
		c1.245-1.112,1.32-3.093,1.32-4.093c0-1-0.075-2.981-1.32-4.094C79.361,26.473,77.588,26.417,76.003,26.417z M77.626,33.284
		c-0.17,0.245-0.623,0.68-1.622,0.68c-1.132,0-1.566-0.566-1.642-0.68c-0.15-0.208-0.358-0.66-0.358-1.754
		c0-1.169,0.226-1.604,0.358-1.792c0.189-0.245,0.622-0.642,1.642-0.642c1.018,0,1.453,0.397,1.641,0.642
		c0.189,0.264,0.359,0.735,0.359,1.792C78.003,32.246,77.927,32.868,77.626,33.284z"/>
	<path fill="#FFFFFF" d="M93.606,26.531h-8.583c-0.792,0-1.472,0.038-1.981,0.679c-0.302,0.377-0.358,0.812-0.358,1.113v8.206h3.697
		v-6.735c0-0.188,0.019-0.415,0.095-0.509c0.056-0.057,0.17-0.15,0.49-0.15h1.415v7.394h3.698v-7.394h0.415
		c0.566,0,0.981,0.208,1.189,0.433c0.358,0.377,0.396,1,0.396,1.415v5.546h3.698v-6.3c0-0.925-0.359-2.038-1.056-2.698
		C95.964,26.832,94.737,26.531,93.606,26.531z"/>
	<path fill="#FFFFFF" d="M104.454,26.417c-1.585,0-3.358,0.056-4.452,1.018c-1.245,1.113-1.321,3.094-1.321,4.094
		c0,1,0.076,2.981,1.321,4.093c1.094,0.963,2.867,1.019,4.452,1.019c1.584,0,3.357-0.056,4.452-1.019
		c1.245-1.112,1.32-3.093,1.32-4.093c0-1-0.075-2.981-1.32-4.094C107.811,26.473,106.038,26.417,104.454,26.417z M106.076,33.284
		c-0.17,0.245-0.622,0.68-1.622,0.68c-1.132,0-1.566-0.566-1.642-0.68c-0.15-0.208-0.358-0.66-0.358-1.754
		c0-1.169,0.226-1.604,0.358-1.792c0.189-0.245,0.623-0.642,1.642-0.642c1.018,0,1.453,0.397,1.641,0.642
		c0.189,0.264,0.359,0.735,0.359,1.792C106.453,32.246,106.378,32.868,106.076,33.284z"/>
	<path fill="#FFFFFF" d="M116.161,26.57h-3.584c-0.303,0-0.718,0.037-0.981,0.376c-0.208,0.264-0.226,0.661-0.226,0.925v8.696h0.98
		v-8.735c0-0.076,0-0.225,0.057-0.301c0.056-0.076,0.17-0.076,0.264-0.076h3.546c0.642,0,1.207,0.093,1.622,0.623
		c0.339,0.432,0.433,0.943,0.433,1.792v6.697h0.981v-6.943c0-1.377-0.471-2.017-0.774-2.32
		C117.878,26.702,117.104,26.57,116.161,26.57z"/>
	<path fill="#FFFFFF" d="M127.914,31.907c0.283,0,0.755-0.037,1.057-0.301c0.396-0.341,0.415-1.02,0.415-1.303
		c0-2.093-1.207-2.923-1.604-3.169c-0.811-0.471-1.848-0.564-2.547-0.564c-1,0-2.225,0.132-3.131,0.886
		c-1.264,1.055-1.339,2.754-1.339,4.15c0,1.47,0.037,2.735,0.811,3.733c0.774,1.02,1.83,1.228,2.641,1.228h4.904V35.68h-4.904
		c-1.321,0-2-0.923-2.226-1.734c-0.151-0.529-0.188-1.453-0.17-2.038H127.914z M122.293,28.663c0.698-1.169,1.774-1.206,2.773-1.206
		c0.886,0,1.868,0.018,2.584,0.867c0.339,0.396,0.679,1.057,0.679,2.038c0,0.132,0.019,0.659-0.415,0.659h-6.093
		C121.84,30.04,121.897,29.324,122.293,28.663z"/>
	<path fill="#FFFFFF" d="M145.083,35.399c-0.038,0.132-0.113,0.301-0.207,0.301c-0.113,0-0.17-0.227-0.189-0.283l-2.131-8.13
		c-0.188-0.698-0.603-0.83-0.906-0.83c-0.302,0-0.717,0.132-0.905,0.83l-2.132,8.13c-0.018,0.056-0.075,0.283-0.188,0.283
		c-0.094,0-0.17-0.169-0.208-0.301l-2.245-8.828h-0.718h-0.264h-2.49v-3.208h-0.98v3.208h-1.377v0.886h1.377v5.752
		c0,1.189,0.056,2.17,0.679,2.773c0.622,0.622,1.566,0.586,2.415,0.586h0.754V35.68h-0.529c-1.112,0-1.547-0.093-1.773-0.244
		c-0.623-0.434-0.566-1.585-0.566-2.434v-5.545h2.724l2.218,8.394c0.113,0.434,0.34,0.83,0.962,0.83
		c0.736,0,0.944-0.566,1.019-0.849l2.075-7.81c0.018-0.113,0.076-0.339,0.15-0.339c0.076,0,0.133,0.227,0.151,0.339l2.075,7.81
		c0.076,0.283,0.283,0.849,1.018,0.849c0.623,0,0.849-0.396,0.962-0.83l2.452-9.28h-0.98L145.083,35.399z"/>
	<path fill="#FFFFFF" d="M153.63,26.456c-1.264,0-2.716,0.132-3.698,1.094c-1.094,1.076-1.244,2.849-1.244,3.962
		c0,2.168,0.603,3.396,1.244,4.036c1.095,1.076,2.811,1.133,3.698,1.133c0.887,0,2.604-0.056,3.697-1.133
		c0.642-0.64,1.245-1.868,1.245-4.036c0-1.113-0.151-2.886-1.245-3.962C156.347,26.588,154.894,26.456,153.63,26.456z
		 M156.705,34.832c-0.792,0.867-2.056,0.962-3.075,0.962c-1.018,0-2.283-0.095-3.075-0.962c-0.829-0.906-0.811-2.415-0.811-3.225
		c0-0.869,0-2.453,0.792-3.34c0.774-0.849,2.151-0.925,3.093-0.925c0.944,0,2.32,0.076,3.094,0.925
		c0.792,0.886,0.792,2.471,0.792,3.34C157.516,32.418,157.535,33.926,156.705,34.832z"/>
	<path fill="#FFFFFF" d="M160.97,27.381c-0.754,0.716-0.886,1.604-0.886,2.622v6.565h0.98V30.23c0-0.813,0.094-1.567,0.509-2.075
		c0.548-0.642,1.378-0.698,1.925-0.698h0.603V26.57h-0.679C162.083,26.57,161.385,26.985,160.97,27.381z"/>
	<path fill="#FFFFFF" d="M168.157,32.303c-0.264-0.244-0.528-0.603-0.528-0.943c0-0.169,0.076-0.452,0.339-0.718l4.339-4.073h-1.321
		l-3.622,3.394c-0.491,0.471-0.792,0.886-0.792,1.435c0,0.679,0.547,1.226,0.773,1.433l4.056,3.735h1.359L168.157,32.303z"/>
	<rect x="164.856" y="23.362" fill="#FFFFFF" width="0.98" height="13.205"/>
</g>
</svg>
