<?xml version="1.0" encoding="utf-8"?>
<!-- Generator: Adobe Illustrator 22.0.1, SVG Export Plug-In . SVG Version: 6.00 Build 0)  -->
<svg version="1.1" id="LOGO_x27_S" xmlns="http://www.w3.org/2000/svg" xmlns:xlink="http://www.w3.org/1999/xlink" x="0px" y="0px"
	 width="164.455px" height="43.263px" viewBox="0 0 164.455 43.263" enable-background="new 0 0 164.455 43.263"
	 xml:space="preserve">
<g id="brand-sa_1_">
</g>
<g id="brand-sadvantage">
</g>
<g id="brand-se_1_">
</g>
<g id="brand-rebatenetwork">
</g>
<g id="brand-pn_1_">
	<g id="pn-bol">
		<g id="pn-globe">
			
				<radialGradient id="SVGID_1_" cx="-2137.2407" cy="-31.8473" r="19.3434" gradientTransform="matrix(0.8197 0 0 0.8197 1785.4825 34.9457)" gradientUnits="userSpaceOnUse">
				<stop  offset="0" style="stop-color:#FFFFFF"/>
				<stop  offset="1" style="stop-color:#E0E1E2"/>
			</radialGradient>
			<path fill="url(#SVGID_1_)" d="M42.483,21.825c0-11.734-9.511-21.246-21.245-21.246c-5.173,0-9.911,1.852-13.596,4.924
				L37.56,35.419C40.633,31.733,42.483,26.996,42.483,21.825z"/>
			
				<radialGradient id="SVGID_2_" cx="-2169.2434" cy="-1.3889" r="24.5907" gradientTransform="matrix(0.8197 0 0 0.8197 1785.4825 34.9457)" gradientUnits="userSpaceOnUse">
				<stop  offset="0" style="stop-color:#FFFFFF"/>
				<stop  offset="1" style="stop-color:#E0E1E2"/>
			</radialGradient>
			<path fill="url(#SVGID_2_)" d="M7.646,5.503C2.975,9.399,0,15.263,0,21.825c0,11.73,9.51,21.242,21.243,21.242
				c6.56,0,12.423-2.976,16.32-7.649L7.646,5.503z"/>
		</g>
		<g id="pn-shadow">
			<defs>
				<path id="SVGID_29_" d="M42.506,22.536c-0.41,11.724-10.247,20.899-21.972,20.487C8.809,42.614-0.365,32.777,0.045,21.052
					C0.455,9.326,10.291,0.153,22.017,0.563C33.743,0.972,42.916,10.81,42.506,22.536z"/>
			</defs>
			<clipPath id="SVGID_4_">
				<use xlink:href="#SVGID_29_"  overflow="visible"/>
			</clipPath>
			<g clip-path="url(#SVGID_4_)">
				<path fill="#F0F0F0" d="M11.783,6.491c2.675-3.883,6.611-2.071,7.885-1.13c10.846,8.008,12.8,20.761,3.518,15.889
					c0,0,4.753,4.237,7.928,1.337c6.504-5.94-18.25-36.902-21.23-11.187c0,0,5.322,7.754,8.74,11.616
					c19.084,21.565,7.1,20.929,7.1,20.929c0.34,0.316,2.395-0.111,2.75-0.2c0.745-0.186,1.183-0.351,2.031-0.8
					c6.922-3.656,1.105-11.009-12.916-28.87C15.553,11.481,11.783,6.491,11.783,6.491z"/>
				<path fill="#E0E1E2" d="M4.359,8.398c-6.775,5.861-1.039,13.787,8.304,25.36c4.575,5.668,6.283,8.152,7.106,10.838
					c0,0-0.705,0-1.135,0c-1.24,0-1.834-0.25-1.834-0.25s-3.138-4.768-6.46-8.643C4.04,28.354-5.7,17.304,1.801,9.911
					C2.436,9.285,3.376,8.725,4.359,8.398"/>
			</g>
		</g>
		<g id="pn">
			
				<linearGradient id="SVGID_5_" gradientUnits="userSpaceOnUse" x1="46.9573" y1="37.1289" x2="15.5302" y2="18.9844" gradientTransform="matrix(1.0025 0.0021 0.0021 1.0018 -8.1783 -6.7551)">
				<stop  offset="0" style="stop-color:#67328F"/>
				<stop  offset="0.005" style="stop-color:#69328F"/>
				<stop  offset="0.0905" style="stop-color:#7F328D"/>
				<stop  offset="0.1805" style="stop-color:#8F328C"/>
				<stop  offset="0.2758" style="stop-color:#9A318B"/>
				<stop  offset="0.3799" style="stop-color:#A1318A"/>
				<stop  offset="0.5098" style="stop-color:#A3318A"/>
				<stop  offset="0.5147" style="stop-color:#A3318A"/>
				<stop  offset="0.6935" style="stop-color:#A3318A"/>
				<stop  offset="0.7817" style="stop-color:#A1318A"/>
				<stop  offset="0.8425" style="stop-color:#9B318B"/>
				<stop  offset="0.895" style="stop-color:#91328B"/>
				<stop  offset="0.9429" style="stop-color:#82328D"/>
				<stop  offset="0.9872" style="stop-color:#6E328E"/>
				<stop  offset="1" style="stop-color:#67328F"/>
			</linearGradient>
			<path fill="url(#SVGID_5_)" d="M12.7,5.158c2.675-3.883,6.611-2.071,7.885-1.13c10.846,8.008,12.8,20.761,3.518,15.889
				c0,0,4.753,4.237,7.928,1.337c6.504-5.94-18.25-36.902-21.23-11.187c0,0,5.322,7.754,8.74,11.616
				c19.084,21.565,7.1,20.929,7.1,20.929c0.34,0.316,2.395-0.111,2.75-0.2c0.745-0.187,1.183-0.352,2.031-0.8
				c6.922-3.656,1.105-11.009-12.916-28.87C16.47,10.148,12.7,5.158,12.7,5.158z"/>
			
				<radialGradient id="SVGID_6_" cx="340.5802" cy="-155.613" r="39.6725" gradientTransform="matrix(0.9331 0 0 0.9331 -294.6288 186.9698)" gradientUnits="userSpaceOnUse">
				<stop  offset="0" style="stop-color:#4C4F53"/>
				<stop  offset="0.1155" style="stop-color:#4F5255"/>
				<stop  offset="0.2472" style="stop-color:#585B5E"/>
				<stop  offset="0.3862" style="stop-color:#67696D"/>
				<stop  offset="0.456" style="stop-color:#717377"/>
				<stop  offset="0.5278" style="stop-color:#75767A"/>
				<stop  offset="0.5932" style="stop-color:#7F7F83"/>
				<stop  offset="0.656" style="stop-color:#919093"/>
				<stop  offset="0.6978" style="stop-color:#A4A2A5"/>
				<stop  offset="0.7651" style="stop-color:#9E9D9F"/>
				<stop  offset="0.8293" style="stop-color:#919092"/>
				<stop  offset="0.8922" style="stop-color:#7C7C7F"/>
				<stop  offset="0.9541" style="stop-color:#626467"/>
				<stop  offset="1" style="stop-color:#4C4F53"/>
			</radialGradient>
			<path fill="url(#SVGID_6_)" d="M5.276,7.064c-6.775,5.861-1.039,13.787,8.304,25.36c4.575,5.668,6.283,8.152,7.106,10.838
				c0,0-0.705,0-1.135,0c-1.24,0-1.834-0.25-1.834-0.25s-3.138-4.768-6.46-8.643c-6.3-7.35-16.04-18.399-8.539-25.792
				C3.353,7.952,4.293,7.392,5.276,7.064"/>
		</g>
	</g>
	<g id="promonetwork">
		<g id="promo_3_">
			<path fill="#A3318A" d="M108.483,39.085h-3.723V27.706c0-0.57,0.095-1.141,0.684-1.559c0.456-0.322,0.95-0.36,1.425-0.36h4.673
				c0.665,0,1.976,0.075,2.907,1.045c1.007,1.044,1.083,2.716,1.083,3.685c0,0.875-0.038,2.831-0.817,3.952
				c-0.912,1.292-2.432,1.387-3.477,1.387h-2.755V39.085z M110.117,33.157c0.817,0,1.216-0.455,1.387-0.778
				c0.209-0.399,0.229-0.931,0.229-1.577c0-0.569-0.02-1.063-0.171-1.463c-0.323-0.816-1.102-0.854-1.33-0.854h-1.311
				c-0.076,0-0.247,0.076-0.304,0.134c-0.076,0.075-0.134,0.227-0.134,0.342v4.197H110.117z"/>
			<path fill="#A3318A" d="M116.445,30.023c0-0.969,0.075-2.375,1.196-3.286c1.102-0.912,2.735-0.95,3.724-0.95h2.47v2.622h-1.292
				c-0.722,0-1.405,0.094-1.881,0.721c-0.437,0.59-0.494,1.35-0.494,1.92v4.806h-3.723V30.023z"/>
			<path fill="#A3318A" d="M134.474,26.698c1.254,1.121,1.329,3.116,1.329,4.123c0,1.007-0.075,3.002-1.329,4.122
				c-1.103,0.97-2.888,1.026-4.483,1.026s-3.382-0.057-4.483-1.026c-1.254-1.12-1.33-3.115-1.33-4.122
				c0-1.007,0.076-3.002,1.33-4.123c1.102-0.969,2.888-1.025,4.483-1.025S133.372,25.729,134.474,26.698z M128.337,32.588
				c0.076,0.114,0.514,0.685,1.653,0.685c1.007,0,1.463-0.438,1.634-0.685c0.304-0.418,0.38-1.045,0.38-1.767
				c0-1.065-0.171-1.539-0.361-1.805c-0.189-0.247-0.627-0.646-1.652-0.646c-1.026,0-1.463,0.399-1.653,0.646
				c-0.133,0.19-0.36,0.627-0.36,1.805C127.977,31.923,128.186,32.379,128.337,32.588z"/>
			<path fill="#A3318A" d="M136.718,27.592c0-0.304,0.057-0.741,0.36-1.121c0.513-0.646,1.197-0.684,1.995-0.684h8.644
				c1.14,0,2.375,0.304,3.135,1.007c0.702,0.664,1.063,1.785,1.063,2.717v6.345h-3.724v-5.585c0-0.418-0.038-1.045-0.398-1.425
				c-0.209-0.227-0.627-0.436-1.197-0.436h-0.418v7.446h-3.724v-7.446h-1.425c-0.322,0-0.436,0.094-0.493,0.151
				c-0.076,0.095-0.096,0.323-0.096,0.513v6.782h-3.723V27.592z"/>
			<path fill="#A3318A" d="M163.125,26.698c1.254,1.121,1.329,3.116,1.329,4.123c0,1.007-0.075,3.002-1.329,4.122
				c-1.102,0.97-2.888,1.026-4.483,1.026s-3.382-0.057-4.483-1.026c-1.254-1.12-1.33-3.115-1.33-4.122
				c0-1.007,0.076-3.002,1.33-4.123c1.102-0.969,2.888-1.025,4.483-1.025S162.023,25.729,163.125,26.698z M156.989,32.588
				c0.076,0.114,0.514,0.685,1.653,0.685c1.007,0,1.463-0.438,1.634-0.685c0.304-0.418,0.38-1.045,0.38-1.767
				c0-1.065-0.171-1.539-0.361-1.805c-0.189-0.247-0.627-0.646-1.652-0.646c-1.026,0-1.463,0.399-1.653,0.646
				c-0.133,0.19-0.36,0.627-0.36,1.805C156.628,31.923,156.837,32.379,156.989,32.588z"/>
		</g>
		<g id="reseau_3_">
			<path fill="#4C4F53" d="M51.31,29.397c0-1.025,0.133-1.92,0.893-2.641c0.418-0.398,1.121-0.816,2.47-0.816h0.684v0.893h-0.607
				c-0.551,0-1.387,0.057-1.938,0.703c-0.418,0.512-0.513,1.271-0.513,2.09v6.383H51.31V29.397z"/>
			<g>
				<path fill="#4C4F53" d="M59.213,36.009c-0.817,0-1.881-0.209-2.66-1.236c-0.779-1.006-0.816-2.279-0.816-3.76
					c0-1.406,0.075-3.117,1.349-4.18c0.912-0.76,2.146-0.893,3.153-0.893c0.703,0,1.748,0.094,2.565,0.568
					c0.399,0.248,1.615,1.084,1.615,3.191c0,0.285-0.02,0.969-0.418,1.313c-0.305,0.266-0.779,0.303-1.064,0.303H56.8
					c-0.019,0.59,0.019,1.52,0.171,2.053c0.228,0.816,0.912,1.746,2.242,1.746h4.938v0.895H59.213z M62.936,30.423
					c0.438,0,0.418-0.531,0.418-0.664c0-0.988-0.342-1.654-0.684-2.053c-0.722-0.856-1.71-0.873-2.603-0.873
					c-1.007,0-2.09,0.037-2.793,1.215c-0.398,0.666-0.456,1.387-0.475,2.375H62.936z"/>
				<path fill="#4C4F53" d="M58.02,25.796c-0.367,0.135-0.671,0.271-0.984,0.531c-0.084,0.07-0.098,0.098-0.172,0.172
					c0,0,0.249-1.352,0.823-1.896c0.418-0.4,1.121-0.818,2.47-0.818h0.684v0.893h-0.607c-0.551,0-1.387,0.059-1.938,0.705
					C58.215,25.478,58.02,25.796,58.02,25.796z"/>
			</g>
			<path fill="#4C4F53" d="M65.731,35.114h5.774c0.589,0,0.988-0.209,1.179-0.475c0.171-0.246,0.246-0.816,0.246-1.158
				c0-0.57-0.228-0.892-0.38-1.045c-0.322-0.305-0.911-0.455-2.374-0.797l-1.748-0.4c-1.539-0.361-2.09-0.854-2.317-1.121
				c-0.438-0.492-0.551-1.119-0.551-1.672c0-0.664,0.151-1.178,0.513-1.633c0.627-0.816,1.481-0.873,2.432-0.873h4.825v0.893h-5.225
				c-0.228,0-0.798,0.018-1.12,0.342c-0.343,0.342-0.361,0.93-0.361,1.197c0,0.342,0.038,0.93,0.418,1.31
				c0.342,0.342,1.387,0.607,1.729,0.684l1.824,0.418c1.216,0.285,2.09,0.475,2.679,0.949c0.627,0.494,0.722,1.084,0.722,1.748
				c0,0.703-0.133,1.633-0.874,2.146c-0.494,0.342-1.178,0.381-1.577,0.381h-5.813V35.114z"/>
			<path fill="#4C4F53" d="M78.613,36.009c-0.817,0-1.881-0.209-2.66-1.236c-0.778-1.006-0.816-2.279-0.816-3.76
				c0-1.406,0.075-3.117,1.349-4.18c0.912-0.76,2.146-0.893,3.153-0.893c0.703,0,1.748,0.094,2.564,0.568
				c0.399,0.248,1.615,1.084,1.615,3.191c0,0.285-0.02,0.969-0.418,1.313c-0.305,0.266-0.779,0.303-1.064,0.303H76.2
				c-0.019,0.59,0.019,1.52,0.171,2.053c0.228,0.816,0.912,1.746,2.242,1.746h4.939v0.895H78.613z M82.335,30.423
				c0.438,0,0.418-0.531,0.418-0.664c0-0.988-0.342-1.654-0.684-2.053c-0.722-0.856-1.71-0.873-2.603-0.873
				c-1.007,0-2.09,0.037-2.793,1.215c-0.398,0.666-0.456,1.387-0.475,2.375H82.335z"/>
			<path fill="#4C4F53" d="M90.658,25.94c0.684,0,1.367,0.266,1.767,0.701c0.531,0.57,0.607,1.406,0.607,2.014v6.023
				c0,0.266-0.019,0.74-0.342,1.045c-0.304,0.285-0.798,0.285-1.14,0.285h-3.876c-0.569,0-1.272-0.02-1.823-0.457
				c-0.836-0.684-0.893-2.051-0.893-2.66c0-0.816,0.113-1.766,0.836-2.373c0.551-0.457,1.311-0.533,1.88-0.533h4.37v-1.5
				c0-0.322-0.134-0.892-0.38-1.197c-0.209-0.246-0.59-0.455-1.064-0.455h-4.882V25.94H90.658z M87.447,30.878
				c-0.589,0-0.95,0.285-1.101,0.494c-0.247,0.324-0.323,0.855-0.323,1.559c0,0.607,0.057,1.33,0.398,1.748
				c0.209,0.246,0.57,0.436,0.988,0.436h4.065c0.114,0,0.304,0,0.437-0.113c0.134-0.113,0.134-0.209,0.134-0.342v-3.781H87.447z"/>
			<path fill="#4C4F53" d="M102.475,35.704c-0.381,0.305-0.97,0.305-1.521,0.305h-2.735c-1.064,0-1.805-0.096-2.45-0.686
				c-0.798-0.721-0.836-1.709-0.836-2.355V25.94h0.987v6.725c0,1.045,0.19,1.52,0.399,1.785c0.437,0.59,1.178,0.664,1.994,0.664
				h2.793c0.247,0,0.513-0.057,0.665-0.209c0.189-0.189,0.189-0.475,0.189-0.625v-8.34h0.988v8.473
				C102.95,34.812,102.893,35.362,102.475,35.704z"/>
		</g>
	</g>
</g>
<g id="brand-cn_1_">
</g>
<g id="brand-eshopn">
</g>
<g id="brand-esn">
</g>
<g id="TypeFont__x28_MagistralBlackC_Regular_en_MagistralC_Regular_x29_" display="none">
</g>
<g id="TypeFont__x28_MagistralBlackC_Regular_en_MagistralC_Regular_x29__copy" display="none">
</g>
</svg>
