<?xml version="1.0" encoding="utf-8"?>
<!-- Generator: Adobe Illustrator 22.0.1, SVG Export Plug-In . SVG Version: 6.00 Build 0)  -->
<svg version="1.1" id="LOGO_x27_S" xmlns="http://www.w3.org/2000/svg" xmlns:xlink="http://www.w3.org/1999/xlink" x="0px" y="0px"
	 width="172.758px" height="43.964px" viewBox="0 0 172.758 43.964" enable-background="new 0 0 172.758 43.964"
	 xml:space="preserve">
<g id="brand-sadvantage">
</g>
<g id="brand-se_1_">
</g>
<g id="brand-kn_1_">
</g>
<g id="brand-pn_1_">
	<g>
		<path fill="#FFFFFF" d="M21.602,19.724c-2.515-2.054-4.885-4.122-6.822-6.109c1.49,2.283,3.384,4.728,5.362,7.277
			c8.162,10.525,13.286,17.025,10.894,20.493c1.951-1.017,3.724-2.326,5.261-3.872C37.95,33.215,32.408,28.55,21.602,19.724z"/>
		<path fill="#FFFFFF" d="M20.442,1.329c-1.217,1.892,1.858,5.783,3.292,7.594c3.249,4.106,6.893,7.882,10.063,12.054
			c1.185,1.559,2.836,3.941,3.99,6.444c1.306,2.833,1.601,4.916,1.333,6.551c2.118-3.304,3.363-7.219,3.363-11.433
			c0-11.734-9.511-21.246-21.245-21.246C20.97,1.294,20.708,1.32,20.442,1.329z"/>
		<path fill="#FFFFFF" d="M20.86,27.216C13.314,17.746,7.861,9.407,9.812,4.652c-0.753,0.482-1.485,0.995-2.17,1.566l0.001,0.001
			C4.662,8.707,2.376,12,1.11,15.762c4.189-10.357,18.301,8.116,14.111,11.943c-2.25,2.056-5.618-0.947-5.618-0.947
			c6.577,3.452,5.192-5.584-2.493-11.259c-0.903-0.667-3.692-1.95-5.587,0.801c0,0,2.671,3.536,4.113,5.374
			c9.935,12.656,14.938,19.773,8.964,20.304c-0.678,0.059-1.345-0.099-2.611-0.651c-0.237-0.104-0.978-0.504-1.22-0.729
			c0,0,10.346,5.54-4.399-12.588c-2.286-2.812-6.123-8.134-6.187-8.223C0.067,20.688,0,21.606,0,22.54
			c0,11.73,9.51,21.242,21.243,21.242c2.316,0,4.542-0.378,6.628-1.063C30.833,39.992,26.945,34.853,20.86,27.216z"/>
		<path fill="#FFFFFF" d="M23.485,17.151c3.832,3.038,7.044,5.666,9.521,8c-1.608-2.455-3.738-5.261-6.429-8.5
			c-5.102-6.139-9.933-12.344-8.307-15.13c-1.961,0.275-3.834,0.813-5.585,1.585c-0.241,0.331-0.438,0.674-0.584,1.031
			C11.431,7.589,17.133,12.114,23.485,17.151z"/>
	</g>
	<g id="promo_1_">
		<g id="promo_2_">
			<path fill="#FFFFFF" d="M55.033,39.8H51.31V28.421c0-0.57,0.095-1.141,0.684-1.559c0.456-0.322,0.95-0.36,1.425-0.36h4.673
				c0.665,0,1.976,0.075,2.907,1.045c1.007,1.044,1.083,2.716,1.083,3.685c0,0.875-0.038,2.831-0.817,3.952
				c-0.912,1.292-2.432,1.387-3.477,1.387h-2.755V39.8z M56.667,33.872c0.817,0,1.216-0.455,1.387-0.778
				c0.209-0.399,0.228-0.931,0.228-1.577c0-0.569-0.019-1.063-0.171-1.463c-0.323-0.816-1.102-0.854-1.33-0.854h-1.31
				c-0.076,0-0.247,0.076-0.304,0.134c-0.076,0.075-0.134,0.227-0.134,0.342v4.197H56.667z"/>
			<path fill="#FFFFFF" d="M62.995,30.738c0-0.969,0.075-2.375,1.196-3.286c1.102-0.912,2.735-0.95,3.724-0.95h2.47v2.622h-1.292
				c-0.722,0-1.405,0.094-1.881,0.721c-0.437,0.59-0.494,1.35-0.494,1.92v4.806h-3.723V30.738z"/>
			<path fill="#FFFFFF" d="M81.024,27.413c1.254,1.121,1.329,3.116,1.329,4.123c0,1.007-0.075,3.002-1.329,4.122
				c-1.103,0.97-2.888,1.026-4.483,1.026s-3.382-0.057-4.483-1.026c-1.254-1.12-1.33-3.115-1.33-4.122
				c0-1.007,0.076-3.002,1.33-4.123c1.102-0.969,2.888-1.025,4.483-1.025S79.921,26.444,81.024,27.413z M74.887,33.303
				c0.076,0.114,0.514,0.685,1.653,0.685c1.007,0,1.463-0.438,1.634-0.685c0.304-0.418,0.38-1.045,0.38-1.767
				c0-1.065-0.171-1.539-0.361-1.805c-0.189-0.247-0.627-0.646-1.652-0.646c-1.026,0-1.463,0.399-1.653,0.646
				c-0.133,0.19-0.36,0.627-0.36,1.805C74.527,32.638,74.736,33.094,74.887,33.303z"/>
			<path fill="#FFFFFF" d="M83.268,28.307c0-0.304,0.057-0.741,0.36-1.121c0.513-0.645,1.197-0.684,1.995-0.684h8.644
				c1.14,0,2.375,0.304,3.135,1.007c0.702,0.664,1.063,1.785,1.063,2.717v6.345h-3.724v-5.585c0-0.418-0.038-1.045-0.398-1.425
				c-0.209-0.227-0.627-0.436-1.197-0.436h-0.418v7.446h-3.724v-7.446H87.58c-0.322,0-0.437,0.094-0.493,0.151
				c-0.076,0.095-0.096,0.323-0.096,0.513v6.782h-3.723V28.307z"/>
			<path fill="#FFFFFF" d="M109.675,27.413c1.254,1.121,1.329,3.116,1.329,4.123c0,1.007-0.075,3.002-1.329,4.122
				c-1.103,0.97-2.888,1.026-4.483,1.026c-1.596,0-3.382-0.057-4.483-1.026c-1.254-1.12-1.33-3.115-1.33-4.122
				c0-1.007,0.076-3.002,1.33-4.123c1.102-0.969,2.888-1.025,4.483-1.025C106.788,26.388,108.573,26.444,109.675,27.413z
				 M103.539,33.303c0.076,0.114,0.514,0.685,1.653,0.685c1.007,0,1.463-0.438,1.634-0.685c0.304-0.418,0.38-1.045,0.38-1.767
				c0-1.065-0.171-1.539-0.361-1.805c-0.19-0.247-0.627-0.646-1.652-0.646c-1.026,0-1.463,0.399-1.653,0.646
				c-0.133,0.19-0.36,0.627-0.36,1.805C103.178,32.638,103.387,33.094,103.539,33.303z"/>
		</g>
	</g>
	<g id="netwerk_25_">
		<g id="netwerk_26_">
			<path fill="#FFFFFF" d="M112.208,27.813c0-0.266,0.019-0.665,0.228-0.931c0.266-0.342,0.684-0.38,0.988-0.38h3.609
				c0.949,0,1.729,0.133,2.336,0.741c0.305,0.304,0.779,0.949,0.779,2.336v6.991h-0.988v-6.744c0-0.854-0.095-1.367-0.437-1.805
				c-0.418-0.531-0.987-0.627-1.634-0.627h-3.571c-0.095,0-0.209,0-0.266,0.076c-0.058,0.076-0.058,0.229-0.058,0.304v8.796h-0.987
				V27.813z"/>
			<path fill="#FFFFFF" d="M125.146,36.57c-0.817,0-1.881-0.209-2.66-1.234c-0.779-1.007-0.816-2.28-0.816-3.762
				c0-1.405,0.075-3.115,1.349-4.18c0.912-0.76,2.146-0.893,3.153-0.893c0.703,0,1.748,0.095,2.565,0.57
				c0.399,0.247,1.615,1.083,1.615,3.191c0,0.285-0.02,0.969-0.418,1.311c-0.305,0.266-0.779,0.304-1.064,0.304h-6.136
				c-0.019,0.589,0.019,1.521,0.171,2.052c0.228,0.817,0.912,1.748,2.242,1.748h4.938v0.893H125.146z M128.869,30.985
				c0.438,0,0.418-0.532,0.418-0.665c0-0.987-0.342-1.652-0.684-2.052c-0.722-0.854-1.71-0.874-2.603-0.874
				c-1.007,0-2.09,0.038-2.793,1.216c-0.398,0.665-0.456,1.387-0.475,2.375H128.869z"/>
			<path fill="#FFFFFF" d="M135.615,36.57c-0.854,0-1.805,0.038-2.432-0.589c-0.627-0.607-0.684-1.596-0.684-2.792v-5.795h-1.387
				v-0.893h1.387v-3.229h0.987v3.229h2.773v0.893h-2.773v5.586c0,0.854-0.057,2.014,0.57,2.45c0.228,0.152,0.665,0.247,1.785,0.247
				h0.532v0.893H135.615z"/>
			<path fill="#FFFFFF" d="M139.244,35.393c0.038,0.133,0.114,0.304,0.209,0.304c0.114,0,0.171-0.228,0.189-0.284l2.148-8.189
				c0.189-0.702,0.607-0.836,0.911-0.836c0.305,0,0.723,0.134,0.912,0.836l2.146,8.189c0.02,0.057,0.076,0.284,0.191,0.284
				c0.095,0,0.171-0.171,0.209-0.304l2.261-8.891h0.987l-2.47,9.347c-0.113,0.437-0.342,0.836-0.969,0.836
				c-0.74,0-0.949-0.57-1.025-0.854l-2.09-7.865c-0.019-0.114-0.076-0.342-0.152-0.342c-0.075,0-0.133,0.228-0.151,0.342
				l-2.09,7.865c-0.076,0.284-0.285,0.854-1.026,0.854c-0.626,0-0.855-0.399-0.969-0.836l-2.47-9.347h0.988L139.244,35.393z"/>
			<path fill="#FFFFFF" d="M153.266,36.57c-0.817,0-1.881-0.209-2.66-1.234c-0.778-1.007-0.816-2.28-0.816-3.762
				c0-1.405,0.075-3.115,1.349-4.18c0.912-0.76,2.146-0.893,3.153-0.893c0.703,0,1.748,0.095,2.564,0.57
				c0.399,0.247,1.615,1.083,1.615,3.191c0,0.285-0.02,0.969-0.418,1.311c-0.305,0.266-0.779,0.304-1.064,0.304h-6.136
				c-0.019,0.589,0.019,1.521,0.171,2.052c0.228,0.817,0.912,1.748,2.242,1.748h4.938v0.893H153.266z M156.989,30.985
				c0.438,0,0.418-0.532,0.418-0.665c0-0.987-0.342-1.652-0.684-2.052c-0.722-0.854-1.71-0.874-2.602-0.874
				c-1.007,0-2.09,0.038-2.793,1.216c-0.398,0.665-0.456,1.387-0.475,2.375H156.989z"/>
			<path fill="#FFFFFF" d="M159.992,29.96c0-1.026,0.133-1.919,0.893-2.641c0.418-0.399,1.121-0.817,2.47-0.817h0.684v0.893h-0.607
				c-0.551,0-1.387,0.058-1.938,0.703c-0.418,0.513-0.513,1.273-0.513,2.09v6.383h-0.987V29.96z"/>
			<path fill="#FFFFFF" d="M164.798,36.57V23.272h0.987V36.57H164.798z M171.39,36.57l-4.085-3.761
				c-0.227-0.209-0.778-0.761-0.778-1.444c0-0.551,0.304-0.969,0.798-1.443l3.647-3.42h1.33l-4.37,4.104
				c-0.266,0.266-0.342,0.551-0.342,0.722c0,0.342,0.267,0.703,0.532,0.95l4.636,4.293H171.39z"/>
		</g>
	</g>
</g>
<g id="brand-cn_1_">
</g>
<g id="brand-esn_1_">
</g>
<g id="brand-osn_1_">
</g>
</svg>
