<?xml version="1.0" encoding="utf-8"?>
<!-- Generator: Adobe Illustrator 22.0.1, SVG Export Plug-In . SVG Version: 6.00 Build 0)  -->
<svg version="1.1" id="LOGO_x27_S" xmlns="http://www.w3.org/2000/svg" xmlns:xlink="http://www.w3.org/1999/xlink" x="0px" y="0px"
	 width="164.455px" height="43.263px" viewBox="0 0 164.455 43.263" enable-background="new 0 0 164.455 43.263"
	 xml:space="preserve">
<g id="brand-sa_1_">
</g>
<g id="brand-sadvantage">
</g>
<g id="brand-se_1_">
</g>
<g id="brand-rebatenetwork">
</g>
<g>
	<path fill="#FFFFFF" d="M20.585,4.028c-1.274-0.941-5.21-2.753-7.885,1.13c0,0,3.77,4.99,5.806,7.584
		c2.051,2.613,3.921,4.995,5.607,7.18C33.383,24.778,31.427,12.033,20.585,4.028z"/>
	<path fill="#FFFFFF" d="M11.257,34.369C7.255,29.7,1.872,23.54,0.394,17.771C0.141,19.084,0,20.438,0,21.825
		c0,10.459,7.567,19.134,17.523,20.896C16.8,41.644,14.099,37.685,11.257,34.369z"/>
	<path fill="#FFFFFF" d="M19.541,21.683c-3.418-3.862-8.74-11.616-8.74-11.616c0.444-3.829,1.373-6.394,2.607-7.979
		c-2.106,0.837-4.054,1.987-5.766,3.415l0.002,0.002C5.482,7.309,3.69,9.538,2.381,12.06C1.718,17.274,6.656,23.847,13.58,32.424
		c4.446,5.508,6.181,8.009,7.031,10.611c0.212,0.006,0.418,0.032,0.632,0.032c3.035,0,5.917-0.644,8.528-1.791
		C31.228,39.266,30.656,34.243,19.541,21.683z"/>
	<path fill="#FFFFFF" d="M42.483,21.825c0-11.734-9.511-21.246-21.245-21.246c-0.33,0-0.652,0.029-0.979,0.044
		c7.482,3.091,15.889,16.871,11.772,20.631c-3.103,2.834-7.702-1.139-7.908-1.32c7.362,9.54,11.103,15.2,10.035,18.75
		c1.252-0.961,2.396-2.055,3.406-3.266l-0.001-0.001C40.634,31.731,42.483,26.995,42.483,21.825z"/>
</g>
<g>
	<path fill="#FFFFFF" d="M111.542,25.787h-4.673c-0.475,0-0.969,0.038-1.425,0.36c-0.589,0.418-0.684,0.989-0.684,1.559v11.379
		h3.723v-3.229h2.755c1.045,0,2.565-0.095,3.477-1.387c0.779-1.121,0.817-3.077,0.817-3.952c0-0.969-0.076-2.641-1.083-3.685
		C113.518,25.862,112.207,25.787,111.542,25.787z M111.504,32.379c-0.171,0.323-0.57,0.778-1.387,0.778v0.001h-1.634v-4.197
		c0-0.115,0.058-0.267,0.134-0.342c0.057-0.058,0.228-0.134,0.304-0.134h1.311c0.228,0,1.007,0.038,1.33,0.854
		c0.151,0.4,0.171,0.894,0.171,1.463C111.733,31.448,111.713,31.98,111.504,32.379z"/>
	<path fill="#FFFFFF" d="M117.641,26.737c-1.121,0.911-1.196,2.317-1.196,3.286v5.833h3.723V31.05c0-0.57,0.057-1.33,0.494-1.92
		c0.476-0.627,1.159-0.721,1.881-0.721h1.292v-2.622h-2.47C120.376,25.787,118.743,25.825,117.641,26.737z"/>
	<path fill="#FFFFFF" d="M129.991,25.673c-1.595,0-3.381,0.056-4.483,1.025c-1.254,1.121-1.33,3.116-1.33,4.123
		c0,1.007,0.076,3.002,1.33,4.122c1.101,0.969,2.888,1.026,4.483,1.026c1.595,0,3.38-0.056,4.483-1.026
		c1.254-1.12,1.329-3.115,1.329-4.122c0-1.007-0.075-3.002-1.329-4.123C133.372,25.729,131.586,25.673,129.991,25.673z
		 M131.624,32.588c-0.171,0.247-0.627,0.685-1.634,0.685c-1.139,0-1.577-0.571-1.653-0.685c-0.151-0.209-0.36-0.665-0.359-1.767
		c0-1.178,0.227-1.615,0.36-1.805c0.19-0.247,0.627-0.646,1.653-0.646c1.025,0,1.463,0.399,1.652,0.646
		c0.19,0.266,0.361,0.74,0.361,1.805C132.004,31.543,131.928,32.17,131.624,32.588z"/>
	<path fill="#FFFFFF" d="M147.717,25.787h-8.644c-0.798,0-1.482,0.038-1.995,0.684c-0.303,0.38-0.36,0.817-0.36,1.121h-0.001v8.264
		h3.723v-6.782c0-0.19,0.02-0.418,0.096-0.513c0.057-0.057,0.171-0.151,0.493-0.151h1.425v7.446h3.724V28.41h0.418
		c0.57,0,0.988,0.209,1.197,0.436c0.36,0.38,0.398,1.007,0.398,1.425v5.585h3.724v-6.345c0-0.932-0.361-2.053-1.063-2.717
		C150.092,26.091,148.857,25.787,147.717,25.787z"/>
	<path fill="#FFFFFF" d="M163.125,26.698c-1.102-0.969-2.888-1.025-4.483-1.025c-1.595,0-3.381,0.056-4.483,1.025
		c-1.254,1.121-1.33,3.116-1.33,4.123c0,1.007,0.076,3.002,1.33,4.122c1.101,0.969,2.888,1.026,4.483,1.026
		c1.595,0,3.381-0.056,4.483-1.026c1.254-1.12,1.329-3.115,1.329-4.122C164.454,29.814,164.379,27.819,163.125,26.698z
		 M160.276,32.588c-0.171,0.247-0.627,0.685-1.634,0.685c-1.139,0-1.577-0.571-1.653-0.685c-0.152-0.209-0.361-0.665-0.359-1.767
		c0-1.178,0.227-1.615,0.36-1.805c0.19-0.247,0.627-0.646,1.653-0.646c1.025,0,1.463,0.399,1.652,0.646
		c0.19,0.266,0.361,0.74,0.361,1.805C160.656,31.543,160.58,32.17,160.276,32.588z"/>
	<path fill="#FFFFFF" d="M52.203,26.756c-0.76,0.721-0.893,1.616-0.893,2.641v6.612h0.989v-6.383c0-0.819,0.095-1.578,0.513-2.09
		c0.551-0.646,1.387-0.703,1.938-0.703h0.607V25.94h-0.684C53.324,25.94,52.621,26.358,52.203,26.756z"/>
	<path fill="#FFFFFF" d="M62.937,31.315c0.285,0,0.759-0.037,1.064-0.303c0.398-0.344,0.418-1.028,0.418-1.313
		c0-2.107-1.216-2.943-1.615-3.191c-0.817-0.474-1.862-0.568-2.565-0.568c-1.007,0-2.241,0.133-3.153,0.893
		c-1.274,1.063-1.349,2.774-1.349,4.18c0,1.481,0.037,2.754,0.816,3.76c0.779,1.027,1.843,1.236,2.66,1.236h4.938v-0.895h-4.938
		c-1.33,0-2.014-0.93-2.242-1.746c-0.152-0.533-0.19-1.463-0.171-2.053H62.937z M57.274,28.048c0.703-1.178,1.786-1.215,2.793-1.215
		c0.893,0,1.881,0.017,2.603,0.873c0.342,0.399,0.684,1.065,0.684,2.053c0,0.133,0.02,0.664-0.418,0.664h-6.137
		C56.818,29.435,56.876,28.714,57.274,28.048z"/>
	<path fill="#FFFFFF" d="M57.036,26.327c0.313-0.26,0.617-0.396,0.984-0.531c0,0,0.195-0.318,0.276-0.413
		c0.551-0.646,1.387-0.705,1.938-0.705h0.607v-0.893h-0.684c-1.349,0-2.052,0.418-2.47,0.818c-0.574,0.544-0.823,1.896-0.823,1.896
		C56.938,26.425,56.952,26.397,57.036,26.327z"/>
	<path fill="#FFFFFF" d="M70.595,30.784l-1.824-0.418c-0.342-0.077-1.387-0.342-1.729-0.684c-0.38-0.38-0.418-0.968-0.418-1.31
		c0-0.267,0.018-0.855,0.361-1.197c0.322-0.324,0.892-0.342,1.12-0.342h5.225V25.94h-4.825c-0.951,0-1.805,0.057-2.432,0.873
		c-0.362,0.455-0.513,0.969-0.513,1.633c0,0.553,0.113,1.18,0.551,1.672c0.227,0.267,0.778,0.76,2.317,1.121l1.748,0.4
		c1.463,0.342,2.052,0.492,2.374,0.797c0.152,0.153,0.38,0.475,0.38,1.045c0,0.342-0.075,0.912-0.246,1.158
		c-0.191,0.266-0.59,0.475-1.179,0.475h-5.773v0.894h5.813c0.399,0,1.083-0.039,1.577-0.381c0.741-0.513,0.874-1.443,0.874-2.146
		c0-0.664-0.095-1.254-0.722-1.748C72.685,31.259,71.811,31.069,70.595,30.784z"/>
	<path fill="#FFFFFF" d="M82.336,31.315c0.285,0,0.759-0.037,1.064-0.303c0.398-0.344,0.418-1.028,0.418-1.313
		c0-2.107-1.216-2.943-1.615-3.191c-0.816-0.474-1.861-0.568-2.564-0.568c-1.007,0-2.241,0.133-3.153,0.893
		c-1.274,1.063-1.349,2.774-1.349,4.18c0,1.481,0.038,2.754,0.816,3.76c0.779,1.027,1.843,1.236,2.66,1.236h4.939v-0.895h-4.939
		c-1.33,0-2.014-0.93-2.242-1.746c-0.152-0.533-0.19-1.463-0.171-2.053H82.336z M76.673,28.048c0.703-1.178,1.786-1.215,2.793-1.215
		c0.893,0,1.881,0.017,2.603,0.873c0.342,0.399,0.684,1.065,0.684,2.053c0,0.133,0.02,0.664-0.418,0.664h-6.137
		C76.217,29.435,76.275,28.714,76.673,28.048z"/>
	<path fill="#FFFFFF" d="M90.658,25.94h-4.94v0.893H90.6c0.474,0,0.855,0.209,1.064,0.455c0.246,0.305,0.38,0.875,0.38,1.197v1.5
		h-4.37c-0.569,0-1.329,0.076-1.88,0.533c-0.723,0.607-0.836,1.557-0.836,2.373c0,0.609,0.057,1.976,0.893,2.66
		c0.551,0.437,1.254,0.457,1.823,0.457h3.876c0.342,0,0.836,0,1.14-0.285c0.323-0.305,0.342-0.779,0.342-1.045v-6.023
		c0-0.608-0.076-1.444-0.607-2.014C92.025,26.206,91.342,25.94,90.658,25.94z M92.045,34.66c0,0.133,0,0.229-0.134,0.342
		c-0.133,0.113-0.323,0.113-0.437,0.113h-4.065c-0.418,0-0.779-0.19-0.988-0.436c-0.341-0.418-0.398-1.141-0.398-1.748
		c0-0.704,0.076-1.235,0.323-1.559c0.151-0.209,0.512-0.494,1.101-0.494v0.001h4.598V34.66z"/>
	<path fill="#FFFFFF" d="M101.96,34.28c0,0.15,0,0.436-0.189,0.625c-0.152,0.152-0.418,0.209-0.665,0.209h-2.793
		c-0.816,0-1.557-0.074-1.994-0.664c-0.209-0.265-0.399-0.74-0.399-1.785V25.94h-0.987v7.028c0,0.646,0.038,1.634,0.836,2.355
		c0.645,0.59,1.386,0.686,2.45,0.686h2.735c0.551,0,1.14,0,1.521-0.305c0.418-0.342,0.475-0.892,0.473-1.291V25.94h-0.988V34.28z"/>
</g>
<g id="brand-cn_1_">
</g>
<g id="brand-eshopn">
</g>
<g id="brand-esn">
</g>
<g id="TypeFont__x28_MagistralBlackC_Regular_en_MagistralC_Regular_x29_" display="none">
</g>
<g id="TypeFont__x28_MagistralBlackC_Regular_en_MagistralC_Regular_x29__copy" display="none">
</g>
</svg>
