<?xml version="1.0" encoding="utf-8"?>
<!-- Generator: Adobe Illustrator 22.0.1, SVG Export Plug-In . SVG Version: 6.00 Build 0)  -->
<svg version="1.1" id="LOGO_x27_S" xmlns="http://www.w3.org/2000/svg" xmlns:xlink="http://www.w3.org/1999/xlink" x="0px" y="0px"
	 width="172.758px" height="43.964px" viewBox="0 0 172.758 43.964" enable-background="new 0 0 172.758 43.964"
	 xml:space="preserve">
<g id="brand-sadvantage">
</g>
<g id="brand-se_1_">
</g>
<g id="brand-kn_1_">
</g>
<g id="brand-pn_1_">
	<g id="pn-bol">
		<g id="pn-globe">
			
				<radialGradient id="SVGID_1_" cx="-2137.2407" cy="-31.1325" r="19.3434" gradientTransform="matrix(0.8197 0 0 0.8197 1785.4825 35.0746)" gradientUnits="userSpaceOnUse">
				<stop  offset="0" style="stop-color:#FFFFFF"/>
				<stop  offset="1" style="stop-color:#E0E1E2"/>
			</radialGradient>
			<path fill="url(#SVGID_1_)" d="M42.483,22.54c0-11.734-9.511-21.246-21.245-21.246c-5.173,0-9.911,1.852-13.596,4.924
				L37.56,36.134C40.633,32.448,42.483,27.711,42.483,22.54z"/>
			
				<radialGradient id="SVGID_2_" cx="-2169.2434" cy="-0.674" r="24.5907" gradientTransform="matrix(0.8197 0 0 0.8197 1785.4825 35.0746)" gradientUnits="userSpaceOnUse">
				<stop  offset="0" style="stop-color:#FFFFFF"/>
				<stop  offset="1" style="stop-color:#E0E1E2"/>
			</radialGradient>
			<path fill="url(#SVGID_2_)" d="M7.646,6.218C2.975,10.114,0,15.978,0,22.54c0,11.731,9.51,21.242,21.243,21.242
				c6.56,0,12.423-2.976,16.32-7.648L7.646,6.218z"/>
		</g>
		<g id="pn-shadow">
			<defs>
				<path id="SVGID_26_" d="M42.506,23.251c-0.41,11.724-10.247,20.898-21.972,20.487C8.809,43.329-0.365,33.492,0.045,21.767
					C0.455,10.041,10.291,0.868,22.017,1.277C33.743,1.687,42.916,11.524,42.506,23.251z"/>
			</defs>
			<clipPath id="SVGID_4_">
				<use xlink:href="#SVGID_26_"  overflow="visible"/>
			</clipPath>
			<g clip-path="url(#SVGID_4_)">
				<g>
					<path fill="#EFF0F0" d="M9.324,28.241c6.553,3.434,5.189-5.584-2.463-11.233c-1.085-0.801-4.903-2.489-6.611,3.063l-0.25,1.316
						c1.958-18.266,19.532,3.577,14.925,7.789C12.676,31.232,9.324,28.241,9.324,28.241z"/>
					<path fill="#EFF0F0" d="M0.948,17.319c1.311,1.869,2.842,3.832,4.428,5.855c9.885,12.613,14.86,19.708,8.899,20.25
						c-0.676,0.061-1.697-0.369-2.571-0.781c-0.234-0.11-0.456-0.218-0.661-0.316c-0.223-0.107-0.422-0.202-0.587-0.271
						c0,0,10.309,5.507-4.361-12.558C3.8,26.673-0.007,21.45-0.007,21.45s0.281-1.706,0.413-2.267
						C0.518,18.711,0.948,17.319,0.948,17.319z"/>
				</g>
				<g>
					<path fill="#EFF0F0" d="M15.207,1.946c-7.545,3.714-2.121,11.268,4.162,20.016c9.372,13.053,14.537,20.067,7.515,22.524
						c-1.143,0.397-2.326,0.556-2.93,0.675c6.636-1.96,2.731-7.625-4.092-16.867C11.051,16.358,5.324,6.236,12.326,2.823
						C13.138,2.427,14.119,2.091,15.207,1.946"/>
					<path fill="#EFF0F0" d="M15.198,1.92c-8.105,3.319-0.797,9.39,7.661,16.415C35.23,28.61,41.056,34.341,35.937,39.328
						c-1.198,1.167-1.998,1.575-2.428,1.886c5.224-4.873-0.142-9.654-12.66-20.364C12.334,13.567,5.529,6.165,12.352,2.872
						C13.162,2.48,13.974,2.151,15.198,1.92"/>
					<path fill="#EFF0F0" d="M25.132,1.642c-8.894-1.295-3.643,5.84-1.667,8.525c3.104,4.217,6.614,8.118,9.636,12.398
						c1.128,1.598,2.698,4.036,3.764,6.578c2.414,5.76,0.885,8.378-1.087,10.389c-0.642,0.651-0.797,0.742-0.797,0.742
						c-0.847,0.711-1.917,1.381-1.917,1.381c4.858-4.238,3.3-10.315-7.028-23.666C19.477,9.51,13.401,0.927,22.509,1.204
						C23.335,1.231,24.314,1.521,25.132,1.642"/>
				</g>
			</g>
		</g>
		<g id="pn">
			
				<linearGradient id="SVGID_5_" gradientUnits="userSpaceOnUse" x1="28.9898" y1="40.4712" x2="6.2914" y2="27.3663" gradientTransform="matrix(1.0025 0.0021 0.0021 1.0018 -8.1798 -6.7564)">
				<stop  offset="0" style="stop-color:#67328F"/>
				<stop  offset="0.005" style="stop-color:#69328F"/>
				<stop  offset="0.0905" style="stop-color:#7F328D"/>
				<stop  offset="0.1805" style="stop-color:#8F328C"/>
				<stop  offset="0.2758" style="stop-color:#9A318B"/>
				<stop  offset="0.3799" style="stop-color:#A1318A"/>
				<stop  offset="0.5098" style="stop-color:#A3318A"/>
				<stop  offset="0.5147" style="stop-color:#A3318A"/>
				<stop  offset="0.6935" style="stop-color:#A3318A"/>
				<stop  offset="0.7817" style="stop-color:#A1318A"/>
				<stop  offset="0.8425" style="stop-color:#9B318B"/>
				<stop  offset="0.895" style="stop-color:#91328B"/>
				<stop  offset="0.9429" style="stop-color:#82328D"/>
				<stop  offset="0.9872" style="stop-color:#6E328E"/>
				<stop  offset="1" style="stop-color:#67328F"/>
			</linearGradient>
			<path fill="url(#SVGID_5_)" d="M1.524,16.299c1.896-2.751,4.684-1.468,5.587-0.801c7.685,5.675,9.07,14.711,2.493,11.259
				c0,0,3.368,3.003,5.618,0.947C19.831,23.495,2.29,1.556,0.178,19.777c0,0,3.887,5.396,6.193,8.231
				c14.745,18.128,4.399,12.588,4.399,12.588c0.241,0.225,0.982,0.625,1.22,0.729c1.266,0.553,1.934,0.71,2.611,0.651
				c5.975-0.53,0.972-7.647-8.964-20.304C4.195,19.835,1.524,16.299,1.524,16.299z"/>
			<g>
				
					<radialGradient id="SVGID_6_" cx="-2117.4604" cy="10.2157" r="48.3152" gradientTransform="matrix(0.8247 0 0 0.8212 1775.8267 34.4763)" gradientUnits="userSpaceOnUse">
					<stop  offset="0" style="stop-color:#4C4F53"/>
					<stop  offset="0.1155" style="stop-color:#4F5255"/>
					<stop  offset="0.2472" style="stop-color:#585B5E"/>
					<stop  offset="0.3862" style="stop-color:#67696D"/>
					<stop  offset="0.456" style="stop-color:#717377"/>
					<stop  offset="0.5278" style="stop-color:#75767A"/>
					<stop  offset="0.5932" style="stop-color:#7F7F83"/>
					<stop  offset="0.656" style="stop-color:#919093"/>
					<stop  offset="0.6978" style="stop-color:#A4A2A5"/>
					<stop  offset="0.7651" style="stop-color:#9E9D9F"/>
					<stop  offset="0.8293" style="stop-color:#919092"/>
					<stop  offset="0.8922" style="stop-color:#7C7C7F"/>
					<stop  offset="0.9541" style="stop-color:#626467"/>
					<stop  offset="1" style="stop-color:#4C4F53"/>
				</radialGradient>
				<path fill="url(#SVGID_6_)" d="M15.253,0.996c-7.456,3.983-1.735,11.358,4.889,19.896c9.88,12.741,15.321,19.589,8.347,22.292
					c-1.136,0.442-2.32,0.64-2.923,0.779c6.605-2.193,2.48-7.729-4.706-16.748C11.583,15.573,5.466,5.638,12.39,1.974
					C13.191,1.548,14.167,1.181,15.253,0.996"/>
				
					<radialGradient id="SVGID_7_" cx="-2080.1589" cy="-1011.8179" r="48.2996" gradientTransform="matrix(0.7995 -0.1802 0.1807 0.8022 1879.8518 477.4947)" gradientUnits="userSpaceOnUse">
					<stop  offset="0" style="stop-color:#4C4F53;stop-opacity:0.85"/>
					<stop  offset="0.1155" style="stop-color:#4F5255;stop-opacity:0.888"/>
					<stop  offset="0.2472" style="stop-color:#585B5E;stop-opacity:0.9313"/>
					<stop  offset="0.3862" style="stop-color:#67696D;stop-opacity:0.977"/>
					<stop  offset="0.456" style="stop-color:#717377"/>
					<stop  offset="0.5278" style="stop-color:#75767A"/>
					<stop  offset="0.5932" style="stop-color:#7F7F83"/>
					<stop  offset="0.656" style="stop-color:#919093"/>
					<stop  offset="0.6978" style="stop-color:#A4A2A5"/>
					<stop  offset="0.7651" style="stop-color:#9E9D9F"/>
					<stop  offset="0.8293" style="stop-color:#919092"/>
					<stop  offset="0.8922" style="stop-color:#7C7C7F"/>
					<stop  offset="0.9541" style="stop-color:#626467"/>
					<stop  offset="1" style="stop-color:#4C4F53"/>
				</radialGradient>
				<path fill="url(#SVGID_7_)" d="M15.356,0.943c-7.83,3.555-0.435,9.417,8.128,16.208c12.52,9.924,18.449,15.491,13.612,20.629
					c-1.134,1.207-1.903,1.635-2.314,1.959c4.946-5.028-0.498-9.656-13.18-20.016C12.979,12.681,6.025,5.471,12.599,1.979
					C13.378,1.563,14.163,1.208,15.356,0.943"/>
				
					<radialGradient id="SVGID_8_" cx="-2142.3464" cy="9.4043" r="48.2789" gradientTransform="matrix(0.8197 0 0 0.8197 1785.4825 35.0746)" gradientUnits="userSpaceOnUse">
					<stop  offset="0" style="stop-color:#4C4F53"/>
					<stop  offset="0.1155" style="stop-color:#4F5255"/>
					<stop  offset="0.2472" style="stop-color:#585B5E"/>
					<stop  offset="0.3862" style="stop-color:#67696D"/>
					<stop  offset="0.456" style="stop-color:#717377"/>
					<stop  offset="0.5278" style="stop-color:#75767A"/>
					<stop  offset="0.5932" style="stop-color:#7F7F83"/>
					<stop  offset="0.656" style="stop-color:#919093"/>
					<stop  offset="0.6978" style="stop-color:#A4A2A5"/>
					<stop  offset="0.7651" style="stop-color:#9E9D9F"/>
					<stop  offset="0.8293" style="stop-color:#919092"/>
					<stop  offset="0.8922" style="stop-color:#7C7C7F"/>
					<stop  offset="0.9541" style="stop-color:#626467"/>
					<stop  offset="1" style="stop-color:#4C4F53"/>
				</radialGradient>
				<path fill="url(#SVGID_8_)" d="M25.103,0.345c-8.934-0.981-3.438,5.965-1.369,8.579c3.249,4.106,6.893,7.882,10.063,12.054
					c1.185,1.559,2.836,3.941,3.99,6.444c2.614,5.672,1.179,8.341-0.724,10.417c-0.619,0.678-0.77,0.774-0.77,0.774
					c-0.823,0.738-1.869,1.447-1.869,1.447c4.709-4.407,2.938-10.426-7.849-23.408C19.726,8.407,13.354,0.04,22.465,0
					C23.292-0.003,24.28,0.253,25.103,0.345"/>
			</g>
		</g>
	</g>
	<g id="promonetwerk">
		<g id="promo_3_">
			<g id="promo">
				<path fill="#A3318A" d="M55.033,39.8H51.31V28.421c0-0.57,0.095-1.141,0.684-1.559c0.456-0.322,0.95-0.36,1.425-0.36h4.673
					c0.665,0,1.976,0.075,2.907,1.045c1.007,1.044,1.083,2.716,1.083,3.685c0,0.875-0.038,2.831-0.817,3.952
					c-0.912,1.292-2.432,1.387-3.477,1.387h-2.755V39.8z M56.667,33.872c0.817,0,1.216-0.455,1.387-0.778
					c0.209-0.399,0.228-0.931,0.228-1.577c0-0.569-0.019-1.063-0.171-1.463c-0.323-0.816-1.102-0.854-1.33-0.854h-1.31
					c-0.076,0-0.247,0.076-0.304,0.134c-0.076,0.075-0.134,0.227-0.134,0.342v4.197H56.667z"/>
				<path fill="#A3318A" d="M62.995,30.738c0-0.969,0.075-2.375,1.196-3.286c1.102-0.912,2.735-0.95,3.724-0.95h2.47v2.622h-1.292
					c-0.722,0-1.405,0.094-1.881,0.721c-0.437,0.59-0.494,1.35-0.494,1.92v4.806h-3.723V30.738z"/>
				<path fill="#A3318A" d="M81.024,27.413c1.254,1.121,1.329,3.116,1.329,4.123c0,1.007-0.075,3.002-1.329,4.122
					c-1.103,0.97-2.888,1.026-4.483,1.026s-3.382-0.057-4.483-1.026c-1.254-1.12-1.33-3.115-1.33-4.122
					c0-1.007,0.076-3.002,1.33-4.123c1.102-0.969,2.888-1.025,4.483-1.025S79.921,26.444,81.024,27.413z M74.887,33.303
					c0.076,0.114,0.514,0.685,1.653,0.685c1.007,0,1.463-0.438,1.634-0.685c0.304-0.418,0.38-1.045,0.38-1.767
					c0-1.065-0.171-1.539-0.361-1.805c-0.189-0.247-0.627-0.646-1.652-0.646c-1.026,0-1.463,0.399-1.653,0.646
					c-0.133,0.19-0.36,0.627-0.36,1.805C74.527,32.638,74.736,33.094,74.887,33.303z"/>
				<path fill="#A3318A" d="M83.268,28.307c0-0.304,0.057-0.741,0.36-1.121c0.513-0.646,1.197-0.684,1.995-0.684h8.644
					c1.14,0,2.375,0.304,3.135,1.007c0.702,0.664,1.063,1.785,1.063,2.717v6.345h-3.724v-5.585c0-0.418-0.038-1.045-0.398-1.425
					c-0.209-0.227-0.627-0.437-1.197-0.437h-0.418v7.446h-3.724v-7.446H87.58c-0.322,0-0.437,0.094-0.493,0.151
					c-0.076,0.095-0.096,0.323-0.096,0.513v6.782h-3.723V28.307z"/>
				<path fill="#A3318A" d="M109.675,27.413c1.254,1.121,1.329,3.116,1.329,4.123c0,1.007-0.075,3.002-1.329,4.122
					c-1.103,0.97-2.888,1.026-4.483,1.026c-1.596,0-3.382-0.057-4.483-1.026c-1.254-1.12-1.33-3.115-1.33-4.122
					c0-1.007,0.076-3.002,1.33-4.123c1.102-0.969,2.888-1.025,4.483-1.025C106.788,26.388,108.573,26.444,109.675,27.413z
					 M103.539,33.303c0.076,0.114,0.514,0.685,1.653,0.685c1.007,0,1.463-0.438,1.634-0.685c0.304-0.418,0.38-1.045,0.38-1.767
					c0-1.065-0.171-1.539-0.361-1.805c-0.19-0.247-0.627-0.646-1.652-0.646c-1.026,0-1.463,0.399-1.653,0.646
					c-0.133,0.19-0.36,0.627-0.36,1.805C103.178,32.638,103.387,33.094,103.539,33.303z"/>
			</g>
		</g>
		<g id="netwerk_12_">
			<g id="netwerk_13_">
				<path fill="#4C4F53" d="M112.208,27.813c0-0.266,0.019-0.665,0.228-0.931c0.266-0.342,0.684-0.38,0.988-0.38h3.609
					c0.949,0,1.729,0.133,2.336,0.741c0.305,0.304,0.779,0.949,0.779,2.336v6.991h-0.988v-6.744c0-0.854-0.095-1.367-0.437-1.805
					c-0.418-0.531-0.987-0.627-1.634-0.627h-3.571c-0.095,0-0.209,0-0.266,0.076c-0.058,0.076-0.058,0.229-0.058,0.304v8.796h-0.987
					V27.813z"/>
				<path fill="#4C4F53" d="M125.146,36.57c-0.817,0-1.881-0.209-2.66-1.234c-0.779-1.007-0.816-2.28-0.816-3.762
					c0-1.405,0.075-3.115,1.349-4.18c0.912-0.76,2.146-0.893,3.153-0.893c0.703,0,1.748,0.095,2.565,0.57
					c0.399,0.247,1.615,1.083,1.615,3.191c0,0.285-0.02,0.969-0.418,1.311c-0.305,0.266-0.779,0.304-1.064,0.304h-6.136
					c-0.019,0.589,0.019,1.521,0.171,2.052c0.228,0.817,0.912,1.748,2.242,1.748h4.938v0.893H125.146z M128.869,30.985
					c0.438,0,0.418-0.532,0.418-0.665c0-0.987-0.342-1.652-0.684-2.052c-0.722-0.854-1.71-0.874-2.603-0.874
					c-1.007,0-2.09,0.038-2.793,1.216c-0.398,0.665-0.456,1.387-0.475,2.375H128.869z"/>
				<path fill="#4C4F53" d="M135.615,36.57c-0.854,0-1.805,0.038-2.432-0.589c-0.627-0.607-0.684-1.596-0.684-2.792v-5.795h-1.387
					v-0.893h1.387v-3.229h0.987v3.229h2.773v0.893h-2.773v5.586c0,0.854-0.057,2.014,0.57,2.45c0.228,0.152,0.665,0.247,1.785,0.247
					h0.532v0.893H135.615z"/>
				<path fill="#4C4F53" d="M139.244,35.393c0.038,0.133,0.114,0.304,0.209,0.304c0.114,0,0.171-0.228,0.189-0.284l2.148-8.188
					c0.189-0.702,0.607-0.836,0.911-0.836c0.305,0,0.723,0.134,0.912,0.836l2.146,8.188c0.02,0.057,0.076,0.284,0.191,0.284
					c0.095,0,0.171-0.171,0.209-0.304l2.261-8.891h0.987l-2.47,9.347c-0.113,0.437-0.342,0.836-0.969,0.836
					c-0.74,0-0.949-0.57-1.025-0.854l-2.09-7.865c-0.019-0.114-0.076-0.342-0.152-0.342c-0.075,0-0.133,0.228-0.151,0.342
					l-2.09,7.865c-0.076,0.284-0.285,0.854-1.026,0.854c-0.626,0-0.855-0.399-0.969-0.836l-2.47-9.347h0.988L139.244,35.393z"/>
				<path fill="#4C4F53" d="M153.266,36.57c-0.817,0-1.881-0.209-2.66-1.234c-0.778-1.007-0.816-2.28-0.816-3.762
					c0-1.405,0.075-3.115,1.349-4.18c0.912-0.76,2.146-0.893,3.153-0.893c0.703,0,1.748,0.095,2.564,0.57
					c0.399,0.247,1.615,1.083,1.615,3.191c0,0.285-0.02,0.969-0.418,1.311c-0.305,0.266-0.779,0.304-1.064,0.304h-6.136
					c-0.019,0.589,0.019,1.521,0.171,2.052c0.228,0.817,0.912,1.748,2.242,1.748h4.938v0.893H153.266z M156.989,30.985
					c0.438,0,0.418-0.532,0.418-0.665c0-0.987-0.342-1.652-0.684-2.052c-0.722-0.854-1.71-0.874-2.602-0.874
					c-1.007,0-2.09,0.038-2.793,1.216c-0.398,0.665-0.456,1.387-0.475,2.375H156.989z"/>
				<path fill="#4C4F53" d="M159.992,29.96c0-1.026,0.133-1.919,0.893-2.641c0.418-0.399,1.121-0.817,2.47-0.817h0.684v0.893h-0.607
					c-0.551,0-1.387,0.058-1.938,0.703c-0.418,0.513-0.513,1.273-0.513,2.09v6.383h-0.987V29.96z"/>
				<path fill="#4C4F53" d="M164.798,36.57V23.272h0.987V36.57H164.798z M171.39,36.57l-4.085-3.761
					c-0.227-0.209-0.778-0.761-0.778-1.444c0-0.551,0.304-0.969,0.798-1.443l3.647-3.42h1.33l-4.37,4.104
					c-0.266,0.266-0.342,0.551-0.342,0.722c0,0.342,0.267,0.703,0.532,0.95l4.636,4.293H171.39z"/>
			</g>
		</g>
	</g>
</g>
<g id="brand-cn_1_">
</g>
<g id="brand-esn_1_">
</g>
<g id="brand-osn_1_">
</g>
</svg>
