<?xml version="1.0" encoding="utf-8"?>
<!-- Generator: Adobe Illustrator 25.4.8, SVG Export Plug-In . SVG Version: 6.00 Build 0)  -->
<svg version="1.1" id="Laag_1" xmlns="http://www.w3.org/2000/svg" xmlns:xlink="http://www.w3.org/1999/xlink" x="0px" y="0px"
	 viewBox="0 0 141.7 19.3" style="enable-background:new 0 0 141.7 19.3;" xml:space="preserve">
<style type="text/css">
	.st0{fill:#A82880;}
	.st1{display:none;fill:#868686;}
	.st2{fill:#868686;}
	.st3{fill:#EDEDED;}
	.st4{fill:#A72880;}
	.st5{fill:#515254;}
</style>
<g id="promonetwerk">
	<g id="promo_3_">
		<g id="promo">
			<path class="st4" d="M4.3,19.3H0V6c0-0.7,0.1-1.3,0.8-1.8c0.5-0.4,1.1-0.4,1.7-0.4h5.5c0.8,0,2.3,0.1,3.4,1.2
				c1.2,1.2,1.3,3.2,1.3,4.3c0,1,0,3.3-1,4.6c-1.1,1.5-2.8,1.6-4.1,1.6H4.3V19.3z M6.3,12.4c1,0,1.4-0.5,1.6-0.9
				c0.2-0.5,0.3-1.1,0.3-1.8c0-0.7,0-1.2-0.2-1.7c-0.4-1-1.3-1-1.6-1H4.9C4.8,6.9,4.6,7,4.5,7.1C4.4,7.2,4.3,7.3,4.3,7.5v4.9H6.3z"
				/>
			<path class="st4" d="M13.6,8.7c0-1.1,0.1-2.8,1.4-3.8c1.3-1.1,3.2-1.1,4.3-1.1h2.9v3.1h-1.5c-0.8,0-1.6,0.1-2.2,0.8
				C18,8.4,18,9.2,18,9.9v5.6h-4.3V8.7z"/>
			<path class="st4" d="M34.7,4.8c1.5,1.3,1.6,3.6,1.6,4.8c0,1.2-0.1,3.5-1.6,4.8c-1.3,1.1-3.4,1.2-5.2,1.2s-3.9-0.1-5.2-1.2
				c-1.5-1.3-1.6-3.6-1.6-4.8c0-1.2,0.1-3.5,1.6-4.8c1.3-1.1,3.4-1.2,5.2-1.2S33.4,3.7,34.7,4.8z M27.5,11.7
				c0.1,0.1,0.6,0.8,1.9,0.8c1.2,0,1.7-0.5,1.9-0.8c0.4-0.5,0.4-1.2,0.4-2.1c0-1.2-0.2-1.8-0.4-2.1c-0.2-0.3-0.7-0.8-1.9-0.8
				c-1.2,0-1.7,0.5-1.9,0.8c-0.2,0.2-0.4,0.7-0.4,2.1C27.1,10.9,27.3,11.5,27.5,11.7z"/>
			<path class="st4" d="M37.3,5.9c0-0.4,0.1-0.9,0.4-1.3c0.6-0.8,1.4-0.8,2.3-0.8h10.1c1.3,0,2.8,0.4,3.7,1.2C54.6,5.7,55,7,55,8.1
				v7.4h-4.3V9c0-0.5,0-1.2-0.5-1.7c-0.2-0.3-0.7-0.5-1.4-0.5h-0.5v8.7H44V6.8h-1.7c-0.4,0-0.5,0.1-0.6,0.2
				c-0.1,0.1-0.1,0.4-0.1,0.6v7.9h-4.3V5.9z"/>
			<path class="st4" d="M68.1,4.8c1.5,1.3,1.6,3.6,1.6,4.8c0,1.2-0.1,3.5-1.6,4.8c-1.3,1.1-3.4,1.2-5.2,1.2c-1.9,0-3.9-0.1-5.2-1.2
				c-1.5-1.3-1.6-3.6-1.6-4.8c0-1.2,0.1-3.5,1.6-4.8c1.3-1.1,3.4-1.2,5.2-1.2C64.7,3.6,66.8,3.7,68.1,4.8z M61,11.7
				c0.1,0.1,0.6,0.8,1.9,0.8c1.2,0,1.7-0.5,1.9-0.8c0.4-0.5,0.4-1.2,0.4-2.1c0-1.2-0.2-1.8-0.4-2.1c-0.2-0.3-0.7-0.8-1.9-0.8
				c-1.2,0-1.7,0.5-1.9,0.8c-0.2,0.2-0.4,0.7-0.4,2.1C60.5,10.9,60.8,11.5,61,11.7z"/>
		</g>
	</g>
	<g id="netwerk_12_">
		<g id="netwerk_13_">
			<path class="st5" d="M71.1,5.3c0-0.3,0-0.8,0.3-1.1c0.3-0.4,0.8-0.4,1.2-0.4h4.2c1.1,0,2,0.2,2.7,0.9c0.4,0.4,0.9,1.1,0.9,2.7
				v8.2h-1.2V7.6c0-1-0.1-1.6-0.5-2.1c-0.5-0.6-1.2-0.7-1.9-0.7h-4.2c-0.1,0-0.2,0-0.3,0.1c-0.1,0.1-0.1,0.3-0.1,0.4v10.3h-1.2V5.3z
				"/>
			<path class="st5" d="M86.2,15.5c-1,0-2.2-0.2-3.1-1.4c-0.9-1.2-1-2.7-1-4.4c0-1.6,0.1-3.6,1.6-4.9c1.1-0.9,2.5-1,3.7-1
				c0.8,0,2,0.1,3,0.7c0.5,0.3,1.9,1.3,1.9,3.7c0,0.3,0,1.1-0.5,1.5C91.4,10,90.8,10,90.5,10h-7.2c0,0.7,0,1.8,0.2,2.4
				c0.3,1,1.1,2,2.6,2h5.8v1H86.2z M90.5,9C91,9,91,8.4,91,8.2c0-1.2-0.4-1.9-0.8-2.4c-0.8-1-2-1-3-1c-1.2,0-2.4,0-3.3,1.4
				C83.4,7,83.4,7.8,83.4,9H90.5z"/>
			<path class="st5" d="M98.4,15.5c-1,0-2.1,0-2.8-0.7c-0.7-0.7-0.8-1.9-0.8-3.3V4.8h-1.6v-1h1.6V0h1.2v3.8h3.2v1h-3.2v6.5
				c0,1-0.1,2.4,0.7,2.9c0.3,0.2,0.8,0.3,2.1,0.3h0.6v1H98.4z"/>
			<path class="st5" d="M102.6,14.1c0,0.2,0.1,0.4,0.2,0.4c0.1,0,0.2-0.3,0.2-0.3l2.5-9.6c0.2-0.8,0.7-1,1.1-1c0.4,0,0.8,0.2,1.1,1
				l2.5,9.6c0,0.1,0.1,0.3,0.2,0.3c0.1,0,0.2-0.2,0.2-0.4l2.6-10.4h1.2l-2.9,10.9c-0.1,0.5-0.4,1-1.1,1c-0.9,0-1.1-0.7-1.2-1
				l-2.4-9.2c0-0.1-0.1-0.4-0.2-0.4c-0.1,0-0.2,0.3-0.2,0.4l-2.4,9.2c-0.1,0.3-0.3,1-1.2,1c-0.7,0-1-0.5-1.1-1L98.8,3.8h1.2
				L102.6,14.1z"/>
			<path class="st5" d="M119,15.5c-1,0-2.2-0.2-3.1-1.4c-0.9-1.2-1-2.7-1-4.4c0-1.6,0.1-3.6,1.6-4.9c1.1-0.9,2.5-1,3.7-1
				c0.8,0,2,0.1,3,0.7c0.5,0.3,1.9,1.3,1.9,3.7c0,0.3,0,1.1-0.5,1.5c-0.4,0.3-0.9,0.4-1.2,0.4h-7.2c0,0.7,0,1.8,0.2,2.4
				c0.3,1,1.1,2,2.6,2h5.8v1H119z M123.3,9c0.5,0,0.5-0.6,0.5-0.8c0-1.2-0.4-1.9-0.8-2.4c-0.8-1-2-1-3-1c-1.2,0-2.4,0-3.3,1.4
				c-0.5,0.8-0.5,1.6-0.6,2.8H123.3z"/>
			<path class="st5" d="M126.8,7.8c0-1.2,0.2-2.2,1-3.1c0.5-0.5,1.3-1,2.9-1h0.8v1h-0.7c-0.6,0-1.6,0.1-2.3,0.8
				c-0.5,0.6-0.6,1.5-0.6,2.4v7.4h-1.2V7.8z"/>
			<path class="st5" d="M132.4,15.5V0h1.2v15.5H132.4z M140.1,15.5l-4.8-4.4c-0.3-0.2-0.9-0.9-0.9-1.7c0-0.6,0.4-1.1,0.9-1.7l4.3-4
				h1.6l-5.1,4.8c-0.3,0.3-0.4,0.6-0.4,0.8c0,0.4,0.3,0.8,0.6,1.1l5.4,5H140.1z"/>
		</g>
	</g>
</g>
</svg>
