<?xml version="1.0" encoding="utf-8"?>
<!-- Generator: Adobe Illustrator 26.0.1, SVG Export Plug-In . SVG Version: 6.00 Build 0)  -->
<svg version="1.1" id="réseaupromo" xmlns="http://www.w3.org/2000/svg" xmlns:xlink="http://www.w3.org/1999/xlink" x="0px"
	 y="0px" viewBox="0 0 695.1 156.3" style="enable-background:new 0 0 695.1 156.3;" xml:space="preserve">
<style type="text/css">
	.st0{fill:#A72880;}
	.st1{display:none;}
	.st2{display:inline;fill:#A72880;}
	.st3{font-family:'MagistralBlackC';}
	.st4{font-size:30px;}
	.st5{display:inline;fill:#515254;}
	.st6{font-family:'MagistralC';}
	.st7{display:inline;}
	.st8{fill:#515254;}
	.st9{display:none;fill:#515254;}
	.st10{fill:#868686;}
	.st11{fill:#ECECEC;}
	.st12{fill:#838585;}
</style>
<path id="Marker_00000031185075544031548280000000608770648482518411_" class="st0" d="M100,31.8c-25.6,0-46.4,20.7-46.4,46.4
	s20.7,46.4,46.4,46.4s46.4-20.7,46.4-46.4C146.4,52.6,125.6,31.8,100,31.8 M153.9,76.7c0,32-23.9,49.9-53.9,79.6
	c-30.6-29.5-53.9-47-53.9-79.6c0-29.7,24.1-53.9,53.9-53.9C129.7,22.8,153.9,47,153.9,76.7"/>
<g id="TypeFont__x28_MagistralBlackC_Regular_en_MagistralC_Regular_30pt_x29_" class="st1">
	<text transform="matrix(1 0 0 1 94.3456 180.4086)" class="st2 st3 st4">promo</text>
</g>
<g id="TypeFont__x28_MagistralBlackC_Regular_en_MagistralC_Regular_30pt_x29__00000116229655012510679910000015226289302246433974_" class="st1">
	<text transform="matrix(1 0 0 1 8.8708 180.2791)" class="st5 st6 st4">reseau</text>
</g>
<g id="TypeFont__x28_MagistralBlackC_Regular_en_MagistralC_Regular_80pt_x29__00000173159026482397899370000018324638520909847196_">
	<g>
		<path class="st0" d="M458,108.2h-15.7V60.2c0-2.4,0.4-4.8,2.9-6.6c1.9-1.4,4-1.5,6-1.5h19.7c2.8,0,8.3,0.3,12.2,4.4
			c4.2,4.4,4.6,11.4,4.6,15.5c0,3.7-0.2,11.9-3.4,16.6c-3.8,5.4-10.2,5.8-14.6,5.8H458V108.2z M464.9,83.2c3.4,0,5.1-1.9,5.8-3.3
			c0.9-1.7,1-3.9,1-6.6c0-2.4-0.1-4.5-0.7-6.2c-1.4-3.4-4.6-3.6-5.6-3.6h-5.5c-0.3,0-1,0.3-1.3,0.6c-0.3,0.3-0.6,1-0.6,1.4v17.7
			H464.9z"/>
		<path class="st0" d="M491.5,70c0-4.1,0.3-10,5-13.8c4.6-3.8,11.5-4,15.7-4h10.4v11h-5.4c-3,0-5.9,0.4-7.9,3
			c-1.8,2.5-2.1,5.7-2.1,8.1v20.2h-15.7V70z"/>
		<path class="st0" d="M567.4,56c5.3,4.7,5.6,13.1,5.6,17.4c0,4.2-0.3,12.6-5.6,17.4c-4.6,4.1-12.2,4.3-18.9,4.3
			c-6.7,0-14.2-0.2-18.9-4.3c-5.3-4.7-5.6-13.1-5.6-17.4c0-4.2,0.3-12.6,5.6-17.4c4.6-4.1,12.2-4.3,18.9-4.3
			C555.3,51.7,562.8,51.9,567.4,56z M541.6,80.8c0.3,0.5,2.2,2.9,7,2.9c4.2,0,6.2-1.8,6.9-2.9c1.3-1.8,1.6-4.4,1.6-7.4
			c0-4.5-0.7-6.5-1.5-7.6c-0.8-1-2.6-2.7-7-2.7c-4.3,0-6.2,1.7-7,2.7c-0.6,0.8-1.5,2.6-1.5,7.6C540.1,78,540.9,79.9,541.6,80.8z"/>
		<path class="st0" d="M576.9,59.8c0-1.3,0.2-3.1,1.5-4.7c2.2-2.7,5-2.9,8.4-2.9h36.4c4.8,0,10,1.3,13.2,4.2c3,2.8,4.5,7.5,4.5,11.4
			v26.7h-15.7V71c0-1.8-0.2-4.4-1.7-6c-0.9-1-2.6-1.8-5-1.8h-1.8v31.4H601V63.2h-6c-1.4,0-1.8,0.4-2.1,0.6c-0.3,0.4-0.4,1.4-0.4,2.2
			v28.6h-15.7V59.8z"/>
		<path class="st0" d="M688.1,56c5.3,4.7,5.6,13.1,5.6,17.4c0,4.2-0.3,12.6-5.6,17.4c-4.6,4.1-12.2,4.3-18.9,4.3
			c-6.7,0-14.2-0.2-18.9-4.3c-5.3-4.7-5.6-13.1-5.6-17.4c0-4.2,0.3-12.6,5.6-17.4c4.6-4.1,12.2-4.3,18.9-4.3
			C675.9,51.7,683.4,51.9,688.1,56z M662.2,80.8c0.3,0.5,2.2,2.9,7,2.9c4.2,0,6.2-1.8,6.9-2.9c1.3-1.8,1.6-4.4,1.6-7.4
			c0-4.5-0.7-6.5-1.5-7.6c-0.8-1-2.6-2.7-7-2.7c-4.3,0-6.2,1.7-7,2.7c-0.6,0.8-1.5,2.6-1.5,7.6C660.7,78,661.6,79.9,662.2,80.8z"/>
	</g>
</g>
<g id="TypeFont__x28_MagistralBlackC_Regular_en_MagistralC_Regular_80pt_x29_">
	<g>
		<path class="st8" d="M217,66.7c0-4.3,0.6-8.1,3.8-11.1c1.8-1.7,4.7-3.4,10.4-3.4h2.9v3.8h-2.6c-2.3,0-5.8,0.2-8.2,3
			c-1.8,2.2-2.2,5.4-2.2,8.8v26.9H217V66.7z"/>
		<path class="st8" d="M250.3,94.6c-3.4,0-7.9-0.9-11.2-5.2c-3.3-4.2-3.4-9.6-3.4-15.8c0-5.9,0.3-13.1,5.7-17.6
			c3.8-3.2,9-3.8,13.3-3.8c3,0,7.4,0.4,10.8,2.4c1.7,1,6.8,4.6,6.8,13.4c0,1.2-0.1,4.1-1.8,5.5c-1.3,1.1-3.3,1.3-4.5,1.3h-25.8
			c-0.1,2.5,0.1,6.4,0.7,8.6c1,3.4,3.8,7.4,9.4,7.4h20.8v3.8H250.3z M266,71c1.8,0,1.8-2.2,1.8-2.8c0-4.2-1.4-7-2.9-8.6
			c-3-3.6-7.2-3.7-11-3.7c-4.2,0-8.8,0.2-11.8,5.1c-1.7,2.8-1.9,5.8-2,10H266z"/>
		<path class="st8" d="M277.8,90.8h24.3c2.5,0,4.2-0.9,5-2c0.7-1,1-3.4,1-4.9c0-2.4-1-3.8-1.6-4.4c-1.4-1.3-3.8-1.9-10-3.4l-7.4-1.7
			c-6.5-1.5-8.8-3.6-9.8-4.7c-1.8-2.1-2.3-4.7-2.3-7c0-2.8,0.6-5,2.2-6.9c2.6-3.4,6.2-3.7,10.2-3.7h20.3v3.8h-22
			c-1,0-3.4,0.1-4.7,1.4c-1.4,1.4-1.5,3.9-1.5,5c0,1.4,0.2,3.9,1.8,5.5c1.4,1.4,5.8,2.6,7.3,2.9l7.7,1.8c5.1,1.2,8.8,2,11.3,4
			c2.6,2.1,3,4.6,3,7.4c0,3-0.6,6.9-3.7,9c-2.1,1.4-5,1.6-6.6,1.6h-24.5V90.8z"/>
		<path class="st8" d="M332,94.6c-3.4,0-7.9-0.9-11.2-5.2c-3.3-4.2-3.4-9.6-3.4-15.8c0-5.9,0.3-13.1,5.7-17.6
			c3.8-3.2,9-3.8,13.3-3.8c3,0,7.4,0.4,10.8,2.4c1.7,1,6.8,4.6,6.8,13.4c0,1.2-0.1,4.1-1.8,5.5c-1.3,1.1-3.3,1.3-4.5,1.3h-25.8
			c-0.1,2.5,0.1,6.4,0.7,8.6c1,3.4,3.8,7.4,9.4,7.4h20.8v3.8H332z M347.7,71c1.8,0,1.8-2.2,1.8-2.8c0-4.2-1.4-7-2.9-8.6
			c-3-3.6-7.2-3.7-11-3.7c-4.2,0-8.8,0.2-11.8,5.1c-1.7,2.8-1.9,5.8-2,10H347.7z"/>
		<path class="st8" d="M382.7,52.2c2.9,0,5.8,1.1,7.4,3c2.2,2.4,2.6,5.9,2.6,8.5V89c0,1.1-0.1,3.1-1.4,4.4c-1.3,1.2-3.4,1.2-4.8,1.2
			h-16.3c-2.4,0-5.4-0.1-7.7-1.9c-3.5-2.9-3.8-8.6-3.8-11.2c0-3.4,0.5-7.4,3.5-10c2.3-1.9,5.5-2.2,7.9-2.2h18.4v-6.3
			c0-1.4-0.6-3.8-1.6-5c-0.9-1-2.5-1.9-4.5-1.9h-20.6v-3.8H382.7z M369.2,73c-2.5,0-4,1.2-4.6,2.1c-1,1.4-1.4,3.6-1.4,6.6
			c0,2.6,0.2,5.6,1.7,7.4c0.9,1,2.4,1.8,4.2,1.8h17.1c0.5,0,1.3,0,1.8-0.5c0.6-0.5,0.6-0.9,0.6-1.4V73H369.2z"/>
		<path class="st8" d="M432.5,93.3c-1.6,1.3-4.1,1.3-6.4,1.3h-11.5c-4.5,0-7.6-0.4-10.3-2.9c-3.4-3-3.5-7.2-3.5-9.9V52.2h4.2v28.3
			c0,4.4,0.8,6.4,1.7,7.5c1.8,2.5,5,2.8,8.4,2.8h11.8c1,0,2.2-0.2,2.8-0.9c0.8-0.8,0.8-2,0.8-2.6V52.2h4.2v35.7
			C434.5,89.5,434.2,91.8,432.5,93.3z"/>
	</g>
</g>
<path class="st8" d="M243.3,49.4c-1.6,0.6-2.8,1.1-4.2,2.2c-0.4,0.3-0.4,0.4-0.7,0.7c0,0,1.1-5.7,3.5-8c1.8-1.7,4.7-3.5,10.4-3.5
	h2.9v3.8h-2.6c-2.3,0-5.9,0.2-8.2,3C244.1,48,243.3,49.4,243.3,49.4z"/>
<path class="st10" d="M80.6,140.1l-12.1-12.3c-17.5-8.1-47.3-9.4-48.2-9.5l-0.1,0c-8.5,0-10.2-3.3-10.2-8.9V21
	c0-6,5.5-10.2,10.7-10.7l0.5-0.1c0.1,0,14-2.3,45.4,7.7c6.4,2,11.3,4.5,14.3,6.9C86.7,22.4,92,22,92,22c-4.7-7-15.4-11.4-22.4-13.6
	C37.5-1.8,22,0,19.6,0.4C8.6,1.4,0,10.5,0,21v88.4c0,7.1,2,18.6,20.1,18.9c5.6,0.1,22,1.3,45.6,8.8c0,0,5.5,2,6.7,2.4
	C73.6,140.1,78.4,141.2,80.6,140.1z"/>
<path class="st10" d="M119.3,140.1l12.1-12.3c17.5-8.1,47.3-9.4,48.2-9.5l0.1,0c8.5,0,10.2-3.3,10.2-8.9V21c0-6-5.5-10.2-10.7-10.7
	l-0.5-0.1c-0.1,0-14-2.3-45.4,7.7c-6.4,2-11.3,4.5-14.3,6.9c-5.8-2.4-11.1-2.7-11.1-2.7c4.7-7,15.4-11.4,22.4-13.6
	c32.1-10.2,47.5-8.4,50-8c11,1.1,19.6,10.1,19.6,20.6v88.4c0,7.1-2,18.6-20.1,18.9c-5.6,0.1-22,1.3-45.6,8.8c0,0-5.5,2-6.7,2.4
	C126.3,140.1,121.5,141.2,119.3,140.1z"/>
<g id="pn-bol">
	<g id="cn-globe_00000075161438073193203980000000483579960668822927_">
		<path class="st11" d="M142.4,78.9c0-23.5-19-42.5-42.5-42.5c-10.3,0-19.8,3.7-27.2,9.8l59.8,59.8
			C138.7,98.7,142.4,89.2,142.4,78.9z"/>
		<path class="st11" d="M72.7,46.3c-9.3,7.8-15.3,19.5-15.3,32.6c0,23.5,19,42.5,42.5,42.5c13.1,0,24.8-5.9,32.6-15.3L72.7,46.3z"/>
	</g>
	<g id="cn-shadow_00000168111986306248135600000013471872268150342557_">
		<defs>
			<path id="SVGID_1_" d="M142.5,80.3c-0.8,23.4-20.5,41.8-43.9,41c-23.5-0.8-41.8-20.5-41-43.9c0.8-23.4,20.5-41.8,43.9-41
				S143.3,56.9,142.5,80.3z"/>
		</defs>
		<clipPath id="SVGID_00000151545745638464715660000012830753093808880548_">
			<use xlink:href="#SVGID_1_"  style="overflow:visible;"/>
		</clipPath>
	</g>
	<g id="pn_00000060723012939224396280000016547242517006767507_">
		<path class="st0" d="M82.8,45.5c5.3-7.8,13.2-4.1,15.8-2.3c21.7,16,25.6,41.5,7,31.8c0,0,9.5,8.5,15.9,2.7
			C134.5,65.9,85,3.9,79,55.4c0,0,10.6,15.5,17.5,23.2c38.2,43.1,14.2,41.9,14.2,41.9c0.7,0.6,4.8-0.2,5.5-0.4
			c1.5-0.4,2.4-0.7,4.1-1.6c13.8-7.3,2.2-22-25.8-57.7C90.4,55.5,82.8,45.5,82.8,45.5z"/>
		<path class="st12" d="M68,49.4c-13.6,11.7-2.1,27.6,16.6,50.7c9.1,11.3,12.6,16.3,14.2,21.7c0,0-1.4,0-2.3,0
			c-2.5,0-3.7-0.5-3.7-0.5s-6.3-9.5-12.9-17.3C67.3,89.3,47.9,67.2,62.9,52.4C64.1,51.1,66,50,68,49.4"/>
	</g>
</g>
</svg>
