<svg id="Laag_1" data-name="Laag 1" xmlns="http://www.w3.org/2000/svg" viewBox="0 0 240.94 115.71"><defs><style>.cls-1{fill:#fbb90a;}.cls-2{fill:#fbb907;}.cls-3{fill:#ada8aa;}</style></defs><title>logo_pl_nl</title><path class="cls-1" d="M105.08,53.29A30.68,30.68,0,1,0,135.76,84a30.68,30.68,0,0,0-30.68-30.68M140.69,83c0,21.18-15.81,33-35.61,52.62C84.82,116.07,69.47,104.51,69.47,83a35.61,35.61,0,1,1,71.22,0" transform="translate(0 -20.1)"/><path class="cls-2" d="M198,50.8a15.24,15.24,0,1,1,15.24-15.24A15.26,15.26,0,0,1,198,50.8m0-26.23a11,11,0,1,0,11,11,11,11,0,0,0-11-11" transform="translate(0 -20.1)"/><path class="cls-2" d="M225.67,96.71a15.24,15.24,0,1,1,15.24-15.24,15.26,15.26,0,0,1-15.24,15.24m0-26.23a11,11,0,1,0,11,11,11,11,0,0,0-11-11" transform="translate(0 -20.1)"/><rect class="cls-2" x="165.6" y="56.41" width="92.11" height="4.19" transform="translate(38.87 173.92) rotate(-53.56)"/><path class="cls-3" d="M62.91,96.77a38.38,38.38,0,0,1-5.43-75,38.37,38.37,0,0,1,42.89,16.68l-3.6,2.25A34.14,34.14,0,1,0,63.45,92.55Z" transform="translate(0 -20.1)"/><path class="cls-3" d="M146.2,96.77l-.54-4.21a34.13,34.13,0,1,0-33.32-51.9l-3.61-2.24A38.39,38.39,0,1,1,146.2,96.77" transform="translate(0 -20.1)"/><polygon class="cls-3" points="0 0 20.89 0 20.89 76.8 11.2 76.8 11.2 9.69 0 9.69 0 0"/><rect class="cls-3" x="145.93" y="89.34" width="2.78" height="26.01"/><path class="cls-3" d="M152.84,126.54a9.25,9.25,0,1,1,9.22,9.27,9.14,9.14,0,0,1-9.22-9.27m15.71,0a6.47,6.47,0,1,0-6.48,6.77,6.6,6.6,0,0,0,6.48-6.77" transform="translate(0 -20.1)"/><polygon class="cls-3" points="181.77 106.73 178.17 110.39 178.17 115.35 175.46 115.35 175.46 89.34 178.17 89.34 178.17 107.22 187.65 97.53 191.14 97.53 183.76 105.08 191.17 115.35 187.97 115.35 181.77 106.73"/><path class="cls-3" d="M192.42,126.54a9,9,0,0,1,9.12-9.26,8.48,8.48,0,0,1,6.56,3.28v-2.93h2.74v17.82H208.1v-2.92a8.42,8.42,0,0,1-6.56,3.28,9.09,9.09,0,0,1-9.12-9.27m15.93,0a6.66,6.66,0,0,0-6.67-6.77,6.77,6.77,0,1,0,6.67,6.77" transform="translate(0 -20.1)"/><path class="cls-3" d="M214.94,126.54a9,9,0,0,1,9.12-9.26,8.46,8.46,0,0,1,6.55,3.28v-2.93h2.75v17.82h-2.75v-2.92a8.4,8.4,0,0,1-6.55,3.28,9.09,9.09,0,0,1-9.12-9.27m15.92,0a6.57,6.57,0,1,0-6.66,6.77,6.66,6.66,0,0,0,6.66-6.77" transform="translate(0 -20.1)"/><rect class="cls-3" x="238.16" y="89.34" width="2.78" height="26.01"/></svg>