<svg id="Laag_2" data-name="Laag 2" xmlns="http://www.w3.org/2000/svg" viewBox="0 0 240.91 115.7"><defs><style>.cls-1{fill:#fff;}</style></defs><title>logo_pl_invert_fr</title><path class="cls-1" d="M105.08,53.29A30.68,30.68,0,1,0,135.76,84a30.68,30.68,0,0,0-30.68-30.68M140.69,83c0,21.18-15.81,33-35.61,52.62C84.82,116.07,69.47,104.51,69.47,83a35.61,35.61,0,1,1,71.22,0" transform="translate(0 -20.1)"/><path class="cls-1" d="M198,50.8a15.24,15.24,0,1,1,15.24-15.24A15.26,15.26,0,0,1,198,50.8m0-26.23a11,11,0,1,0,11,11,11,11,0,0,0-11-11" transform="translate(0 -20.1)"/><path class="cls-1" d="M225.67,96.71a15.24,15.24,0,1,1,15.24-15.24,15.26,15.26,0,0,1-15.24,15.24m0-26.23a11,11,0,1,0,11,11,11,11,0,0,0-11-11" transform="translate(0 -20.1)"/><rect class="cls-1" x="165.59" y="56.4" width="92.11" height="4.19" transform="translate(38.88 173.93) rotate(-53.56)"/><path class="cls-1" d="M62.91,96.77a38.38,38.38,0,1,1,37.46-58.35l-3.6,2.24a34.13,34.13,0,1,0-33.32,51.9Z" transform="translate(0 -20.1)"/><path class="cls-1" d="M146.2,96.77l-.54-4.21a34.13,34.13,0,1,0-33.33-51.9l-3.6-2.24A38.39,38.39,0,1,1,146.2,96.77" transform="translate(0 -20.1)"/><polygon class="cls-1" points="0 0 20.89 0 20.89 76.8 11.2 76.8 11.2 9.69 0 9.69 0 0"/><rect class="cls-1" x="145.92" y="89.35" width="2.78" height="25.99"/><path class="cls-1" d="M152.15,126.54a9.24,9.24,0,1,1,9.22,9.26,9.14,9.14,0,0,1-9.22-9.26m15.7,0a6.47,6.47,0,1,0-6.48,6.76,6.59,6.59,0,0,0,6.48-6.76" transform="translate(0 -20.1)"/><path class="cls-1" d="M173.55,126.54a9.1,9.1,0,0,1,9.32-9.26,8.83,8.83,0,0,1,8.33,5.31l-2.49,1.07a6.11,6.11,0,0,0-5.87-3.88A6.76,6.76,0,0,0,183,133.3a6.2,6.2,0,0,0,5.87-4.12l2.53,1.06a8.84,8.84,0,0,1-8.47,5.56,9.13,9.13,0,0,1-9.36-9.26" transform="translate(0 -20.1)"/><path class="cls-1" d="M193.77,126.54a9,9,0,0,1,9.11-9.26,8.49,8.49,0,0,1,6.55,3.28v-2.92h2.74v17.8h-2.74v-2.92a8.37,8.37,0,0,1-6.55,3.28,9.08,9.08,0,0,1-9.11-9.26m15.91,0A6.57,6.57,0,1,0,203,133.3a6.65,6.65,0,0,0,6.66-6.76" transform="translate(0 -20.1)"/><rect class="cls-1" x="216.3" y="89.35" width="2.78" height="25.99"/><path class="cls-1" d="M222.53,126.68a9.07,9.07,0,0,1,9.22-9.4c5.13,0,9.11,3.53,9.11,9v1.17H225.2a6.75,6.75,0,0,0,12.71,2.24l2.38,1.18a8.92,8.92,0,0,1-8.4,5c-5.66,0-9.36-3.88-9.36-9.12m2.81-1.78h12.71c-.5-3.2-2.85-5.16-6.3-5.16a6.53,6.53,0,0,0-6.41,5.16" transform="translate(0 -20.1)"/></svg>