<?xml version="1.0" standalone="no"?>
<!DOCTYPE svg PUBLIC "-//W3C//DTD SVG 20010904//EN"
 "http://www.w3.org/TR/2001/REC-SVG-20010904/DTD/svg10.dtd">
<svg version="1.0" xmlns="http://www.w3.org/2000/svg"
 width="700.000000pt" height="700.000000pt" viewBox="0 0 700.000000 700.000000"
 preserveAspectRatio="xMidYMid meet">
<metadata>
Created by potrace 1.11, written by Peter Selinger 2001-2013
</metadata>
<g transform="translate(0.000000,700.000000) scale(0.100000,-0.100000)"
fill="#000000" stroke="none">
<path d="M3538 6994 c-2 -1 -26 -5 -53 -7 -180 -18 -332 -81 -413 -173 -42
-47 -53 -54 -97 -60 -28 -3 -59 -8 -70 -11 -11 -2 -51 -10 -90 -18 -169 -34
-508 -137 -606 -184 -23 -12 -45 -19 -47 -16 -19 19 187 202 297 265 99 56
100 59 13 39 -348 -83 -625 -265 -741 -488 -38 -73 -44 -80 -140 -144 -56 -36
-101 -64 -101 -60 0 10 89 142 134 198 22 28 73 83 113 123 40 39 68 72 62 72
-22 0 -181 -80 -248 -125 -122 -82 -262 -234 -359 -390 -50 -82 -107 -198
-118 -240 -3 -14 -37 -60 -76 -102 -89 -99 -229 -284 -300 -393 -293 -456
-452 -897 -523 -1452 -24 -184 -24 -611 0 -748 2 -14 7 -47 10 -75 37 -308
157 -718 286 -978 16 -33 27 -63 24 -67 -3 -4 2 -11 11 -14 9 -4 14 -9 11 -12
-3 -4 1 -13 9 -22 9 -8 13 -23 11 -33 -3 -10 0 -17 5 -16 14 3 50 -62 42 -75
-4 -6 -3 -8 3 -5 5 3 18 -11 28 -31 11 -20 32 -55 47 -76 16 -21 28 -43 28
-48 0 -5 11 -21 24 -35 14 -15 23 -30 20 -35 -3 -4 -1 -8 5 -8 5 0 20 -17 32
-37 13 -21 25 -40 28 -43 4 -3 22 -25 41 -50 19 -25 38 -46 42 -48 4 -2 8 -8
8 -13 0 -9 7 -18 65 -82 19 -20 35 -42 35 -48 0 -5 4 -7 10 -4 6 3 10 -4 10
-16 0 -12 3 -19 6 -16 11 10 76 -61 68 -74 -4 -7 -3 -9 4 -5 6 3 18 -1 27 -10
13 -14 14 -19 3 -26 -9 -6 -6 -7 10 -3 16 5 22 2 22 -9 0 -9 5 -16 11 -16 7 0
37 -25 68 -55 31 -30 73 -68 93 -86 21 -17 36 -35 33 -39 -3 -5 0 -12 6 -16 8
-4 9 -3 5 4 -10 17 9 15 23 -1 6 -8 7 -18 3 -22 -4 -5 -2 -5 5 -2 6 4 18 0 26
-8 9 -8 18 -15 22 -15 3 0 16 -9 28 -21 12 -11 59 -45 104 -76 59 -40 80 -60
76 -72 -4 -13 -3 -13 5 -2 8 11 22 5 71 -28 35 -22 67 -41 72 -41 5 0 9 -5 9
-11 0 -5 4 -8 9 -4 5 3 12 1 16 -5 3 -5 21 -17 40 -26 19 -9 32 -21 28 -27 -3
-5 -1 -7 4 -4 6 4 64 -18 128 -49 222 -105 512 -210 655 -238 14 -2 54 -11 90
-20 36 -8 81 -17 100 -20 19 -3 46 -8 60 -11 43 -8 114 -18 243 -32 84 -9 553
-11 614 -2 89 13 -1 -36 -134 -72 -73 -20 -106 -26 -182 -34 -24 -2 -47 -7
-50 -11 -11 -12 332 5 421 21 158 28 310 88 375 147 21 19 231 84 240 74 7 -7
-224 -126 -245 -126 -6 0 -14 -5 -18 -12 -4 -6 -3 -9 2 -6 5 4 25 9 44 12 141
23 379 99 485 154 79 41 156 96 205 144 25 25 86 66 135 93 160 85 444 274
525 347 14 13 39 34 55 46 32 25 92 79 163 146 47 45 47 34 -1 -49 -46 -78
-96 -144 -167 -219 l-65 -70 70 49 c78 55 85 61 196 157 220 192 385 435 438
646 14 56 36 109 67 160 185 305 351 720 408 1022 3 14 8 36 11 50 65 288 82
743 41 1068 -14 105 -18 132 -42 256 -116 595 -428 1196 -854 1641 -496 519
-1108 849 -1835 989 -212 41 -315 50 -547 51 -87 0 -158 2 -158 6 0 10 65 66
104 88 83 47 178 65 358 65 152 1 194 5 135 13 -12 2 -53 8 -92 14 -62 10
-340 21 -347 13z"/>
<path d="M1193 995 c0 -8 4 -12 9 -9 5 3 6 10 3 15 -9 13 -12 11 -12 -6z"/>
</g>
</svg>
