<?xml version="1.0" encoding="utf-8"?>
<!-- Generator: Adobe Illustrator 25.4.1, SVG Export Plug-In . SVG Version: 6.00 Build 0)  -->
<svg version="1.1" id="promonetwerk" xmlns="http://www.w3.org/2000/svg" xmlns:xlink="http://www.w3.org/1999/xlink" x="0px"
	 y="0px" viewBox="0 0 861 156.3" style="enable-background:new 0 0 861 156.3;" xml:space="preserve">
<style type="text/css">
	.st0{display:none;}
	.st1{display:inline;fill:#A72880;}
	.st2{font-family:'ArialMT';}
	.st3{font-size:30px;}
	.st4{display:inline;fill:#515254;}
	.st5{fill:#003856;}
	.st6{fill:#1794D2;}
	.st7{fill:#A8AAAC;}
	.st8{fill:#4C4F53;}
	.st9{fill:#FFFFFF;}
	.st10{fill:#1E93D2;}
	.st11{fill:#868686;}
	.st12{fill:#EDEDED;}
</style>
<g id="TypeFont__x28_MagistralBlackC_Regular_en_MagistralC_Regular_30pt_x29_" class="st0">
	<text transform="matrix(1 0 0 1 2.8348 180.4086)" class="st1 st2 st3">promo</text>
</g>
<g id="TypeFont__x28_MagistralBlackC_Regular_en_MagistralC_Regular_30pt_x29__00000116229655012510679910000015226289302246433974_" class="st0">
	<text transform="matrix(1 0 0 1 98.5902 180.2791)" class="st4 st2 st3">netwerk</text>
</g>
<g id="catalogusnetwerk">
	<g id="catalogus_3_">
		<g id="catalogus">
			<path class="st5" d="M229.1,95.7c-3.6,0-9.1-0.5-12.9-5c-3.3-3.8-3.8-9.1-3.8-15.5c0-6.1,0.3-12.7,4.7-17.2
				c3.3-3.4,7.7-4.4,12.7-4.4h22.6v10.6H237c-5.3,0-7.1,2.3-8.1,5.1c-0.5,1.6-0.7,3.4-0.7,5.6c0,4.8,0.9,6.6,1.3,7.3
				c1.9,3.1,5.9,2.9,8.4,2.9h15.4v10.6C253.2,95.7,229.1,95.7,229.1,95.7z"/>
			<path class="st5" d="M287,53.6c5.2,0,8.6,1.8,10.4,3.7c3.5,3.4,4,8.4,4,11.8v17.6c0,2.2-0.2,4.8-2,6.7c-2,2-4.8,2.2-7.1,2.2
				h-24.8c-2.7,0-5.5-0.2-7.7-2.2c-3.3-3-3.4-8.5-3.4-11.8c0-3.7,0.3-8.1,3.7-10.6c2.3-1.7,5-1.8,7.4-1.8h18.5v-0.6
				c0-0.7-0.1-1.8-0.8-2.8c-1.2-1.6-3.2-1.6-4.8-1.6h-21.1V53.6H287z M274.8,79.2c-0.5,0-1.6,0.1-2.3,0.7c-0.5,0.5-0.6,1.3-0.6,2
				c0,0.6,0.1,1.3,0.6,1.8c0.5,0.5,1.4,0.7,2.1,0.7h8.1c0.8,0,1.8-0.2,2.3-0.5c0.7-0.5,0.8-1.3,0.8-2v-2.7L274.8,79.2L274.8,79.2z"
				/>
			<path class="st5" d="M327.9,95.7c-3.1,0-8.8,0-13.1-2.9c-3.5-2.3-5.3-6.5-5.3-10.3V64.4h-5.9V53.6h5.9V40h15.6v13.5h12v10.8h-12
				V74c0,3.1,0.4,6.3,2.7,8.4c2.1,1.9,4.8,2,6.8,2h2.3v11.3L327.9,95.7L327.9,95.7z"/>
			<path class="st5" d="M369.2,53.6c5.2,0,8.6,1.8,10.4,3.7c3.5,3.4,4,8.4,4,11.8v17.6c0,2.2-0.2,4.8-2,6.7c-2,2-4.8,2.2-7.1,2.2
				h-24.8c-2.7,0-5.5-0.2-7.7-2.2c-3.3-3-3.4-8.5-3.4-11.8c0-3.7,0.3-8.1,3.7-10.6c2.3-1.7,5-1.8,7.4-1.8h18.4v-0.6
				c0-0.7-0.1-1.8-0.8-2.8c-1.2-1.6-3.2-1.6-4.8-1.6h-21.1V53.6H369.2z M356.9,79.2c-0.5,0-1.6,0.1-2.3,0.7c-0.5,0.5-0.6,1.3-0.6,2
				c0,0.6,0.1,1.3,0.6,1.8c0.5,0.5,1.4,0.7,2.1,0.7h8.1c0.8,0,1.8-0.2,2.3-0.5c0.7-0.5,0.8-1.3,0.8-2v-2.7L356.9,79.2L356.9,79.2z"
				/>
			<path class="st5" d="M388.3,40h15.6v55.6h-15.6V40z"/>
			<path class="st5" d="M450.8,57.4c5.2,4.7,5.6,13.1,5.6,17.2c0,4.2-0.3,12.5-5.6,17.2c-4.6,4.1-12,4.3-18.8,4.3
				c-6.6,0-14.2-0.2-18.8-4.3c-5.2-4.7-5.6-13.1-5.6-17.2c0-4.2,0.3-12.5,5.6-17.2c4.6-4.1,12-4.3,18.8-4.3
				C438.6,53.1,446.1,53.3,450.8,57.4z M425.1,82c0.3,0.5,2.1,2.9,6.9,2.9c4.2,0,6.1-1.8,6.8-2.9c1.3-1.7,1.6-4.4,1.6-7.4
				c0-4.5-0.7-6.4-1.5-7.5c-0.8-1-2.7-2.7-6.9-2.7c-4.3,0-6.1,1.6-6.9,2.7c-0.5,0.8-1.5,2.7-1.5,7.5C423.5,79.2,424.4,81.1,425.1,82
				z"/>
			<path class="st5" d="M462.1,99.8h18.8c1.6,0,4.1,0.1,5.7-1.1c0.9-0.7,1.6-1.9,1.8-3.1h-13.5c-4.5,0-9.3-0.3-12.5-5.3
				c-2.3-3.6-3.3-8.6-3.3-15.9c0-8.2,1.2-12.2,4.3-15.8c3.2-3.8,6.7-5.1,13.4-5.1h17.3c2.4,0,5.3,0.2,7.4,1.9
				c2.1,1.8,2.4,4.5,2.4,6.3V91c0,5.6-0.6,10.1-3.4,13.5c-3.2,4.1-8.5,5.6-14.9,5.6h-23.6C462.1,110,462.1,99.8,462.1,99.8z
				 M488.4,68.2c0-1.1-0.2-2-1.2-2.7c-0.8-0.5-1.6-0.6-2.4-0.6h-1.7c-2.2,0-4.6,0.2-6.3,2.3c-0.7,0.9-1.6,2.7-1.6,7.9
				c0,3.8,0.6,5.9,1.7,7.2c2,2.3,4.9,2.1,7.1,2.1h4.5C488.4,84.4,488.4,68.2,488.4,68.2z"/>
			<path class="st5" d="M524.3,53.6v21c0,4,0.6,5.9,1.5,7.2c1.7,2.5,4.8,2.7,6.6,2.7h2.9c1.3,0,2.1-0.3,2.7-0.9
				c0.8-0.8,0.8-1.7,0.8-2.5V53.7h15.6v33.6c0,2.3-0.3,4.8-2.7,6.6c-2.1,1.7-5.1,1.9-6.8,1.9h-19.1c-5.9,0-9.6-1.7-11.7-3.6
				c-4.4-3.6-5.3-9.2-5.3-15.6v-23H524.3z"/>
			<path class="st5" d="M558.6,84.4h22.9c0.2,0,0.7-0.2,0.9-0.3c0.2-0.2,0.4-0.4,0.4-0.8c0-0.5-0.4-0.8-0.7-0.9
				c-0.5-0.3-1.4-0.5-4.8-1.6l-9.1-3c-3.8-1.3-7-3-8.7-5.6c-1.2-2-1.6-5-1.6-7c0-2.7,0.5-5.3,2-7.5c2.2-3.4,5.4-4,9.8-4H598v10.8
				h-22.9c-0.5,0-1.2-0.1-1.8,0.1c-0.4,0.1-0.7,0.2-0.7,0.7c0,0.6,0.4,0.8,0.9,0.9c1.9,0.6,1.3,0.5,3.2,1.2l10.6,3.6
				c4.5,1.5,7.7,2.7,9.7,5.7c2,2.9,2.1,6.3,2.1,8.1c0,3.1-0.6,6.6-3.5,9c-2.2,1.7-4.8,2-6.9,2h-30.1L558.6,84.4L558.6,84.4z"/>
		</g>
		<g id="catalogus_1_">
			<g>
				<path class="st5" d="M228.2,94.9c-3.6,0-9.1-0.5-12.9-5c-3.3-3.8-3.8-9.1-3.8-15.5c0-6.1,0.3-12.7,4.7-17.2
					c3.3-3.4,7.7-4.4,12.7-4.4h22.6v10.6h-15.4c-5.3,0-7.1,2.3-8.1,5.1c-0.5,1.6-0.7,3.4-0.7,5.6c0,4.8,0.9,6.6,1.3,7.3
					c1.9,3.1,5.9,2.9,8.4,2.9h15.4v10.6C252.4,94.9,228.2,94.9,228.2,94.9z"/>
				<path class="st5" d="M252.8,95h-24.5c-3.8,0-9.2-0.5-13.1-5.1c-3.1-3.7-3.8-8.7-3.8-15.6c0-6.3,0.4-12.8,4.8-17.4
					c2.9-3.1,7-4.5,12.8-4.5h22.8v11h-15.6c-5.6,0-7.1,2.7-7.8,4.9c-0.5,1.5-0.7,3.1-0.7,5.5c0,5,0.9,6.6,1.3,7.2
					c1.5,2.4,4.3,2.7,7.1,2.7h1h15.6L252.8,95L252.8,95z M229,52.9c-5.9,0-9.7,1.3-12.6,4.3c-4.3,4.5-4.6,10.9-4.6,17.1
					c0,6.8,0.6,11.7,3.7,15.3c3.8,4.5,9.1,4.9,12.7,4.9h24.1V84.4H236c-1.9,0-5.6,0-7.5-3c-0.3-0.6-1.3-2.3-1.3-7.4
					c0-2.4,0.2-4.1,0.7-5.6c0.8-2.4,2.4-5.2,8.2-5.2h15.2V52.9H229z"/>
			</g>
			<g>
				<path class="st5" d="M286.2,52.7c5.2,0,8.6,1.8,10.4,3.7c3.5,3.4,4,8.4,4,11.8v17.6c0,2.2-0.2,4.8-2,6.7c-2,2-4.8,2.2-7.1,2.2
					h-24.8c-2.7,0-5.5-0.2-7.7-2.2c-3.3-3-3.4-8.5-3.4-11.8c0-3.7,0.3-8.1,3.7-10.6c2.3-1.7,5-1.8,7.4-1.8H285v-0.6
					c0-0.7-0.1-1.8-0.8-2.8c-1.2-1.6-3.2-1.6-4.8-1.6h-21.1V52.7H286.2z M273.9,78.3c-0.5,0-1.6,0.1-2.3,0.7c-0.5,0.5-0.6,1.3-0.6,2
					c0,0.6,0.1,1.3,0.6,1.8c0.5,0.5,1.4,0.7,2.1,0.7h8.1c0.8,0,1.8-0.2,2.3-0.5c0.7-0.5,0.8-1.3,0.8-2v-2.7L273.9,78.3L273.9,78.3z"
					/>
				<path class="st5" d="M291.3,95h-24.8c-2.7,0-5.6-0.2-7.8-2.3c-3.5-3.1-3.5-9.3-3.5-12c0-4.1,0.5-8.3,3.8-10.8
					c2.3-1.7,4.8-1.9,7.6-1.9h18.2v-0.5c0-0.7-0.1-1.7-0.8-2.7c-1.1-1.5-2.9-1.6-4.6-1.6H258V52.6h28.1c6.2,0,9.5,2.6,10.6,3.8
					c2.7,2.7,4.1,6.6,4.1,12v17.6c0,2.3-0.2,4.8-2.1,6.9C296.6,94.9,293.8,95,291.3,95z M266.5,68.5c-2.7,0-5.2,0.2-7.4,1.8
					c-3.1,2.4-3.6,6.4-3.6,10.5c0,2.6,0,8.7,3.4,11.7c2.2,2,4.9,2.2,7.6,2.2h24.8c2.3,0,5.1-0.2,7-2.2c1.9-2,2-4.5,2-6.6V68.2
					c0-5.3-1.3-9.2-3.9-11.7c-1.1-1.1-4.2-3.6-10.2-3.6h-27.7V63h21c1.7,0,3.8,0.2,4.9,1.7c0.9,1.1,0.9,2.5,0.9,2.9v0.9L266.5,68.5
					L266.5,68.5z M281.9,83.8h-8.1c-0.9,0-1.7-0.3-2.3-0.8c-0.6-0.6-0.7-1.3-0.7-2c0-0.8,0.1-1.5,0.7-2.1c0.8-0.7,2-0.8,2.4-0.8
					h11.3V81c0,0.8-0.1,1.6-0.9,2.2C283.8,83.6,282.7,83.8,281.9,83.8z M273.9,78.5c-0.4,0-1.5,0.1-2.2,0.6
					c-0.5,0.5-0.5,1.1-0.5,1.8c0,0.6,0.1,1.2,0.5,1.6c0.5,0.4,1.3,0.6,2,0.6h8.2c0.8,0,1.7-0.2,2.2-0.5c0.6-0.5,0.7-1.1,0.7-1.9
					v-2.4L273.9,78.5L273.9,78.5z"/>
			</g>
			<g>
				<path class="st5" d="M327.1,94.9c-3.1,0-8.8,0-13.1-2.9c-3.5-2.3-5.3-6.5-5.3-10.3V63.5h-5.9V52.7h5.9V39.3h15.6v13.5h12v10.8
					h-12v9.6c0,3.1,0.4,6.3,2.7,8.4c2.1,1.9,4.8,2,6.8,2h2.3v11.3L327.1,94.9L327.1,94.9z"/>
				<path class="st5" d="M336.3,95h-9.2c-3.1,0-8.8,0-13.1-2.9c-3.4-2.3-5.4-6.3-5.4-10.5V63.7h-5.9V52.6h5.9V39h16v13.5h12v11.2
					h-12v9.4c0,2.7,0.3,6.2,2.7,8.3c2,1.8,4.5,2,6.7,2h2.5L336.3,95L336.3,95z M303,63.4h5.9v18.3c0,4.1,2,8,5.2,10.2
					c4.2,2.8,9.9,2.8,12.9,2.8h8.8V83.8h-2.1c-2.3,0-4.8-0.2-7-2c-2.4-2.2-2.7-5.7-2.7-8.6v-9.8h12V52.9h-12V39.4h-15.2v13.5H303
					V63.4L303,63.4z"/>
			</g>
			<g>
				<path class="st5" d="M368.3,52.7c5.2,0,8.6,1.8,10.4,3.7c3.5,3.4,4,8.4,4,11.8v17.6c0,2.2-0.2,4.8-2,6.7c-2,2-4.8,2.2-7.1,2.2
					h-24.8c-2.7,0-5.5-0.2-7.7-2.2c-3.3-3-3.4-8.5-3.4-11.8c0-3.7,0.3-8.1,3.7-10.6c2.3-1.7,5-1.8,7.4-1.8h18.5v-0.6
					c0-0.7-0.1-1.8-0.8-2.8c-1.2-1.6-3.2-1.6-4.8-1.6h-21.1V52.7H368.3z M356,78.3c-0.5,0-1.6,0.1-2.3,0.7c-0.5,0.5-0.6,1.3-0.6,2
					c0,0.6,0.1,1.3,0.6,1.8c0.5,0.5,1.4,0.7,2.1,0.7h8.1c0.8,0,1.8-0.2,2.3-0.5c0.7-0.5,0.8-1.3,0.8-2v-2.7L356,78.3L356,78.3z"/>
				<path class="st5" d="M373.5,95h-24.8c-2.7,0-5.6-0.2-7.8-2.3c-3.5-3.1-3.5-9.3-3.5-12c0-4.1,0.5-8.3,3.8-10.8
					c2.3-1.7,4.8-1.9,7.6-1.9h18.2v-0.5c0-0.7-0.1-1.7-0.8-2.7c-1.1-1.5-2.9-1.6-4.6-1.6h-21.4V52.6h28.1c6.2,0,9.5,2.6,10.6,3.8
					c2.7,2.7,4.1,6.6,4.1,12v17.6c0,2.3-0.2,4.8-2.1,6.9C378.7,94.9,375.9,95,373.5,95z M348.7,68.5c-2.7,0-5.2,0.2-7.4,1.8
					c-3.1,2.4-3.6,6.4-3.6,10.5c0,2.6,0,8.7,3.4,11.7c2.2,2,4.9,2.2,7.6,2.2h24.8c2.3,0,5.1-0.2,7-2.2c1.9-2,2-4.5,2-6.6V68.2
					c0-5.3-1.3-9.2-3.9-11.7c-1.1-1.1-4.2-3.6-10.2-3.6h-27.7V63h21c1.7,0,3.8,0.2,4.9,1.7c0.9,1.1,0.9,2.5,0.9,2.9v0.9L348.7,68.5
					L348.7,68.5z M364,83.8h-8.1c-0.9,0-1.7-0.3-2.3-0.8c-0.6-0.6-0.7-1.3-0.7-2c0-0.8,0.1-1.5,0.7-2.1c0.8-0.7,2-0.8,2.4-0.8h11.3
					V81c0,0.8-0.1,1.6-0.9,2.2C365.9,83.6,364.9,83.8,364,83.8z M356,78.5c-0.4,0-1.5,0.1-2.2,0.6c-0.5,0.5-0.5,1.1-0.5,1.8
					c0,0.6,0.1,1.2,0.5,1.6c0.5,0.4,1.3,0.6,2,0.6h8.1c0.8,0,1.7-0.2,2.2-0.5c0.6-0.5,0.7-1.1,0.7-1.9v-2.4L356,78.5L356,78.5z"/>
			</g>
			<g>
				<path class="st5" d="M387.5,39.3H403v55.6h-15.6V39.3z"/>
				<path class="st5" d="M403.2,95h-16V39h16V95z M387.6,94.6h15.2V39.4h-15.2V94.6L387.6,94.6z"/>
			</g>
			<g>
				<path class="st5" d="M449.9,56.5c5.2,4.7,5.6,13.1,5.6,17.2s-0.3,12.5-5.6,17.2c-4.6,4.1-12,4.3-18.8,4.3S417,95,412.3,91
					c-5.2-4.7-5.6-13.1-5.6-17.2s0.3-12.5,5.6-17.2c4.6-4.1,12-4.3,18.8-4.3S445.3,52.5,449.9,56.5z M424.2,81.2
					c0.3,0.5,2.1,2.9,6.9,2.9c4.2,0,6.1-1.8,6.8-2.9c1.3-1.7,1.6-4.4,1.6-7.4c0-4.5-0.7-6.4-1.5-7.5c-0.8-1-2.7-2.7-6.9-2.7
					c-4.3,0-6.1,1.6-6.9,2.7c-0.5,0.8-1.5,2.7-1.5,7.5C422.8,78.4,423.6,80.3,424.2,81.2z"/>
				<path class="st5" d="M431.1,95.5c-7,0-14.3-0.3-18.9-4.4c-5.6-5-5.6-14.3-5.6-17.4s0-12.4,5.6-17.4c4.5-4,11.8-4.3,18.9-4.3
					c7,0,14.3,0.3,18.9,4.3c5.6,5,5.6,14.3,5.6,17.4c0,3.1,0,12.4-5.6,17.4C445.4,95.2,438.2,95.5,431.1,95.5z M431.1,52.5
					c-7,0-14.2,0.3-18.6,4.2c-5.5,4.9-5.5,14.1-5.5,17.1s0,12.2,5.5,17.1c4.5,3.9,11.7,4.2,18.6,4.2c7,0,14.2-0.3,18.6-4.2
					c5.5-4.9,5.5-14.1,5.5-17.1c0-3.1,0-12.2-5.5-17.1C445.3,52.8,438.1,52.5,431.1,52.5z M431.1,84.2c-4.8,0-6.7-2.4-7.1-3
					c-1-1.4-1.6-3.9-1.6-7.5c0-3.7,0.5-6.2,1.6-7.7c1.4-1.8,3.8-2.8,7.1-2.8c3.2,0,5.7,0.9,7,2.8c1.1,1.5,1.6,3.9,1.6,7.7
					c0,2.4-0.2,5.6-1.6,7.5C437.5,82.2,435.7,84.2,431.1,84.2z M431.1,63.7c-3.1,0-5.4,0.9-6.7,2.7c-0.9,1.4-1.5,3.9-1.5,7.4
					c0,3.4,0.5,5.9,1.5,7.3c0.3,0.5,2.1,2.7,6.7,2.7c4.3,0,6.1-2,6.6-2.7c1.1-1.5,1.6-3.8,1.6-7.3c0-3.7-0.5-6-1.5-7.4
					C436.6,64.7,434.3,63.7,431.1,63.7z"/>
			</g>
			<g>
				<path class="st5" d="M461.2,98.9H480c1.6,0,4.1,0.1,5.7-1.1c0.9-0.7,1.6-1.9,1.8-3.1h-13.5c-4.5,0-9.3-0.3-12.5-5.3
					c-2.3-3.6-3.3-8.6-3.3-15.9c0-8.2,1.2-12.2,4.3-15.8c3.2-3.8,6.7-5.1,13.4-5.1h17.3c2.4,0,5.3,0.2,7.4,1.9
					c2.1,1.8,2.4,4.5,2.4,6.3v29.2c0,5.6-0.6,10.1-3.4,13.5c-3.2,4.1-8.5,5.6-14.9,5.6h-23.6L461.2,98.9L461.2,98.9z M487.5,67.3
					c0-1.1-0.2-2-1.2-2.7c-0.8-0.5-1.6-0.6-2.4-0.6h-1.8c-2.2,0-4.6,0.2-6.3,2.3c-0.7,0.9-1.6,2.7-1.6,7.9c0,3.8,0.6,5.9,1.7,7.2
					c2,2.3,4.9,2.1,7.1,2.1h4.5C487.5,83.5,487.5,67.3,487.5,67.3z"/>
				<path class="st5" d="M484.9,109.3h-23.8V98.8h19.6c1.7,0,3.7-0.1,4.9-1.1c0.8-0.6,1.4-1.6,1.7-2.7h-13.1
					c-4.6,0-9.5-0.4-12.8-5.4c-2.3-3.5-3.3-8.4-3.3-16c0-8.1,1.1-12.3,4.4-16c3.2-3.8,6.9-5.2,13.5-5.2h17.3c2.7,0,5.5,0.2,7.5,2
					c1.7,1.4,2.5,3.6,2.5,6.5v29.2c0,4.8-0.4,9.9-3.4,13.5C497,107.5,492.1,109.3,484.9,109.3z M461.5,109h23.4
					c7,0,11.9-1.8,14.8-5.5c2.9-3.6,3.3-8.5,3.3-13.3V61c0-2.8-0.8-4.8-2.4-6.2c-2-1.6-4.6-1.9-7.3-1.9h-17.3c-6.6,0-10,1.3-13.2,5
					c-3.1,3.6-4.2,7.7-4.2,15.6c0,7.4,1,12.3,3.2,15.8c3.1,4.8,7.8,5.2,12.4,5.2h13.7l-0.1,0.2c-0.2,1.2-1,2.4-1.9,3.1
					c-1.4,1.1-3.4,1.2-5.2,1.2h-19.2L461.5,109L461.5,109z M482.3,83.8c-2.2,0-4.7-0.2-6.4-2.2c-1.2-1.4-1.8-3.8-1.8-7.4
					c0-4,0.5-6.6,1.7-8c1.7-2.2,4.1-2.3,6.4-2.3h1.7c0.8,0,1.7,0.1,2.6,0.7c1.1,0.7,1.3,1.6,1.3,2.9v16.4L482.3,83.8z M482.1,64.2
					c-2.2,0-4.5,0.2-6.1,2.2c-1.1,1.3-1.6,3.9-1.6,7.7c0,3.4,0.5,5.8,1.7,7.1c1.6,1.9,3.9,2,6.1,2h5.1v-16c0-1.1-0.2-1.9-1.1-2.5
					c-0.8-0.5-1.6-0.6-2.3-0.6H482.1z"/>
			</g>
			<g>
				<path class="st5" d="M523.5,52.7v21c0,4,0.6,5.9,1.5,7.2c1.7,2.5,4.8,2.7,6.6,2.7h2.9c1.3,0,2.1-0.3,2.7-0.9
					c0.8-0.8,0.8-1.7,0.8-2.6V52.7h15.6v33.6c0,2.3-0.3,4.8-2.7,6.6c-2.1,1.7-5.1,1.9-6.8,1.9H525c-5.9,0-9.6-1.7-11.7-3.6
					c-4.4-3.6-5.3-9.2-5.3-15.6V52.7H523.5L523.5,52.7z"/>
				<path class="st5" d="M544.1,95H525c-6.3,0-9.9-2-11.9-3.6c-4.8-3.9-5.4-10.2-5.4-15.7V52.6h16v21.2c0,3.4,0.5,5.6,1.5,7.1
					c1.6,2.3,4.3,2.5,6.4,2.5h2.9c1.2,0,2-0.2,2.6-0.8c0.7-0.7,0.7-1.6,0.7-2.4V52.6h16v33.7c0,2.4-0.3,4.8-2.7,6.8
					C548.6,95,545.2,95,544.1,95z M508.1,52.9v22.8c0,5.5,0.6,11.7,5.2,15.4c1.9,1.6,5.5,3.5,11.7,3.5h19.1c1.9,0,4.6-0.2,6.7-1.9
					c2.1-1.7,2.6-3.8,2.6-6.5V52.9h-15.2v27.2c0,0.8,0,1.8-0.9,2.7c-0.6,0.6-1.6,0.9-2.8,0.9h-2.9c-2.3,0-5.1-0.3-6.7-2.7
					c-1.1-1.6-1.6-3.8-1.6-7.4V52.9H508.1z"/>
			</g>
			<g>
				<path class="st5" d="M557.8,83.5h22.9c0.2,0,0.7-0.2,0.9-0.3c0.2-0.2,0.4-0.4,0.4-0.8c0-0.5-0.4-0.8-0.7-0.9
					c-0.5-0.3-1.4-0.5-4.8-1.6l-9.1-3c-3.8-1.3-7-3-8.7-5.6c-1.2-2-1.6-5-1.6-7c0-2.7,0.5-5.3,2-7.5c2.2-3.4,5.4-4,9.8-4h28.2v10.8
					h-22.9c-0.5,0-1.2-0.1-1.8,0.1c-0.4,0.1-0.7,0.2-0.7,0.7c0,0.6,0.4,0.8,0.9,0.9c1.9,0.6,1.3,0.5,3.2,1.2l10.6,3.6
					c4.5,1.5,7.7,2.7,9.7,5.7c2,2.9,2.1,6.3,2.1,8.1c0,3.1-0.6,6.6-3.5,9c-2.2,1.7-4.8,2-6.9,2h-30.1L557.8,83.5L557.8,83.5z"/>
				<path class="st5" d="M587.9,95h-30.4V83.3h23.2c0.2,0,0.6-0.2,0.9-0.3c0.2-0.2,0.3-0.3,0.3-0.6c0-0.4-0.3-0.6-0.6-0.8
					c-0.4-0.2-1-0.5-2.7-0.9c-0.5-0.2-1.3-0.4-2.1-0.7l-9.1-3c-4.5-1.5-7.4-3.3-8.8-5.6c-1.2-2-1.6-5-1.6-7.2c0-3.1,0.7-5.7,2-7.7
					c2.3-3.4,5.5-4.1,9.9-4.1h28.3v11.2h-23.1c-0.2,0-0.5,0-0.9,0c-0.4,0-0.6,0-0.9,0.1c-0.4,0.1-0.5,0.2-0.5,0.5
					c0,0.5,0.2,0.6,0.7,0.8c1,0.3,1.3,0.5,1.6,0.6c0.3,0.2,0.6,0.2,1.5,0.5l10.6,3.6c4.5,1.5,7.7,2.8,9.8,5.8c2.2,3.1,2.2,7,2.2,8.2
					c0,4.2-1.2,7.2-3.6,9.2C592.7,94.8,590.1,95,587.9,95z M558,94.6h29.9c2.1,0,4.6-0.2,6.8-2c2.3-1.9,3.4-4.8,3.4-8.8
					c0-1.3,0-4.9-2.1-8c-2-2.9-5.2-4.1-9.6-5.6l-10.6-3.6c-0.9-0.3-1.2-0.5-1.6-0.5c-0.3-0.2-0.6-0.3-1.6-0.6c-0.5-0.2-1-0.3-1-1.2
					c0-0.7,0.5-0.9,0.9-0.9c0.4-0.1,0.8-0.1,1-0.1c0.2,0,0.3,0,0.5,0c0.2,0,0.3,0,0.4,0H597V52.9H569c-4.3,0-7.4,0.6-9.6,3.9
					c-1.3,1.9-2,4.4-2,7.4c0,2.1,0.4,5,1.6,7c1.3,2.3,4.1,4,8.5,5.5l9.1,3c0.9,0.3,1.6,0.5,2.1,0.7c1.7,0.5,2.3,0.8,2.7,1
					c0.2,0.2,0.9,0.4,0.9,1.1c0,0.5-0.2,0.8-0.5,0.9c-0.2,0.2-0.8,0.3-1.1,0.3H558V94.6L558,94.6z"/>
			</g>
		</g>
		<g id="catalogus_2_">
			<path class="st6" d="M228.2,94.9c-3.6,0-9.1-0.5-12.9-5c-3.3-3.8-3.8-9.1-3.8-15.5c0-6.1,0.3-12.7,4.7-17.2
				c3.3-3.4,7.7-4.4,12.7-4.4h22.6v10.6h-15.4c-5.3,0-7.1,2.3-8.1,5.1c-0.5,1.6-0.7,3.4-0.7,5.6c0,4.8,0.9,6.6,1.3,7.3
				c1.9,3.1,5.9,2.9,8.4,2.9h15.4v10.6C252.4,94.9,228.2,94.9,228.2,94.9z"/>
			<path class="st6" d="M286.2,52.7c5.2,0,8.6,1.8,10.4,3.7c3.5,3.4,4,8.4,4,11.8v17.6c0,2.2-0.2,4.8-2,6.7c-2,2-4.8,2.2-7.1,2.2
				h-24.8c-2.7,0-5.5-0.2-7.7-2.2c-3.3-3-3.4-8.5-3.4-11.8c0-3.7,0.3-8.1,3.7-10.6c2.3-1.7,5-1.8,7.4-1.8H285v-0.6
				c0-0.7-0.1-1.8-0.8-2.8c-1.2-1.6-3.2-1.6-4.8-1.6h-21.1V52.7H286.2z M273.9,78.3c-0.5,0-1.6,0.1-2.3,0.7c-0.5,0.5-0.6,1.3-0.6,2
				c0,0.6,0.1,1.3,0.6,1.8c0.5,0.5,1.4,0.7,2.1,0.7h8.1c0.8,0,1.8-0.2,2.3-0.5c0.7-0.5,0.8-1.3,0.8-2v-2.7L273.9,78.3L273.9,78.3z"
				/>
			<path class="st6" d="M327.1,94.9c-3.1,0-8.8,0-13.1-2.9c-3.5-2.3-5.3-6.5-5.3-10.3V63.5h-5.9V52.7h5.9V39.3h15.6v13.5h12v10.8
				h-12v9.6c0,3.1,0.4,6.3,2.7,8.4c2.1,1.9,4.8,2,6.8,2h2.3v11.3L327.1,94.9L327.1,94.9z"/>
			<path class="st6" d="M368.3,52.7c5.2,0,8.6,1.8,10.4,3.7c3.5,3.4,4,8.4,4,11.8v17.6c0,2.2-0.2,4.8-2,6.7c-2,2-4.8,2.2-7.1,2.2
				h-24.8c-2.7,0-5.5-0.2-7.7-2.2c-3.3-3-3.4-8.5-3.4-11.8c0-3.7,0.3-8.1,3.7-10.6c2.3-1.7,5-1.8,7.4-1.8h18.5v-0.6
				c0-0.7-0.1-1.8-0.8-2.8c-1.2-1.6-3.2-1.6-4.8-1.6h-21.1V52.7H368.3z M356,78.3c-0.5,0-1.6,0.1-2.3,0.7c-0.5,0.5-0.6,1.3-0.6,2
				c0,0.6,0.1,1.3,0.6,1.8c0.5,0.5,1.4,0.7,2.1,0.7h8.1c0.8,0,1.8-0.2,2.3-0.5c0.7-0.5,0.8-1.3,0.8-2v-2.7L356,78.3L356,78.3z"/>
			<path class="st6" d="M387.5,39.3H403v55.6h-15.6V39.3z"/>
			<path class="st6" d="M449.9,56.5c5.2,4.7,5.6,13.1,5.6,17.2s-0.3,12.5-5.6,17.2c-4.6,4.1-12,4.3-18.8,4.3S417,95,412.3,91
				c-5.2-4.7-5.6-13.1-5.6-17.2s0.3-12.5,5.6-17.2c4.6-4.1,12-4.3,18.8-4.3S445.3,52.5,449.9,56.5z M424.2,81.2
				c0.3,0.5,2.1,2.9,6.9,2.9c4.2,0,6.1-1.8,6.8-2.9c1.3-1.7,1.6-4.4,1.6-7.4c0-4.5-0.7-6.4-1.5-7.5c-0.8-1-2.7-2.7-6.9-2.7
				c-4.3,0-6.1,1.6-6.9,2.7c-0.5,0.8-1.5,2.7-1.5,7.5C422.8,78.4,423.6,80.3,424.2,81.2z"/>
			<path class="st6" d="M461.2,98.9H480c1.6,0,4.1,0.1,5.7-1.1c0.9-0.7,1.6-1.9,1.8-3.1h-13.5c-4.5,0-9.3-0.3-12.5-5.3
				c-2.3-3.6-3.3-8.6-3.3-15.9c0-8.2,1.2-12.2,4.3-15.8c3.2-3.8,6.7-5.1,13.4-5.1h17.3c2.4,0,5.3,0.2,7.4,1.9
				c2.1,1.8,2.4,4.5,2.4,6.3v29.2c0,5.6-0.6,10.1-3.4,13.5c-3.2,4.1-8.5,5.6-14.9,5.6h-23.6L461.2,98.9L461.2,98.9z M487.5,67.3
				c0-1.1-0.2-2-1.2-2.7c-0.8-0.5-1.6-0.6-2.4-0.6h-1.8c-2.2,0-4.6,0.2-6.3,2.3c-0.7,0.9-1.6,2.7-1.6,7.9c0,3.8,0.6,5.9,1.7,7.2
				c2,2.3,4.9,2.1,7.1,2.1h4.5C487.5,83.5,487.5,67.3,487.5,67.3z"/>
			<path class="st6" d="M523.5,52.7v21c0,4,0.6,5.9,1.5,7.2c1.7,2.5,4.8,2.7,6.6,2.7h2.9c1.3,0,2.1-0.3,2.7-0.9
				c0.8-0.8,0.8-1.7,0.8-2.6V52.7h15.6v33.6c0,2.3-0.3,4.8-2.7,6.6c-2.1,1.7-5.1,1.9-6.8,1.9H525c-5.9,0-9.6-1.7-11.7-3.6
				c-4.4-3.6-5.3-9.2-5.3-15.6V52.7H523.5L523.5,52.7z"/>
			<path class="st6" d="M557.8,83.5h22.9c0.2,0,0.7-0.2,0.9-0.3c0.2-0.2,0.4-0.4,0.4-0.8c0-0.5-0.4-0.8-0.7-0.9
				c-0.5-0.3-1.4-0.5-4.8-1.6l-9.1-3c-3.8-1.3-7-3-8.7-5.6c-1.2-2-1.6-5-1.6-7c0-2.7,0.5-5.3,2-7.5c2.2-3.4,5.4-4,9.8-4h28.2v10.8
				h-22.9c-0.5,0-1.2-0.1-1.8,0.1c-0.4,0.1-0.7,0.2-0.7,0.7c0,0.6,0.4,0.8,0.9,0.9c1.9,0.6,1.3,0.5,3.2,1.2l10.6,3.6
				c4.5,1.5,7.7,2.7,9.7,5.7c2,2.9,2.1,6.3,2.1,8.1c0,3.1-0.6,6.6-3.5,9c-2.2,1.7-4.8,2-6.9,2h-30.1L557.8,83.5L557.8,83.5z"/>
		</g>
	</g>
	<g id="netwerk_8_">
		<g id="netwerk_11_">
			<path class="st7" d="M602.8,59.1c0-1.1,0.1-2.8,0.9-3.9c1.1-1.4,2.9-1.6,4.1-1.6H623c4,0,7.2,0.5,9.8,3.1c1.3,1.3,3.3,4,3.3,9.8
				v29.3h-4.1V67.6c0-3.6-0.4-5.7-1.8-7.5c-1.7-2.2-4.1-2.7-6.8-2.7h-14.9c-0.4,0-0.9,0-1.1,0.3S607,58.7,607,59v36.8h-4.1
				L602.8,59.1L602.8,59.1z"/>
			<path class="st7" d="M656.9,95.7c-3.4,0-7.9-0.9-11.1-5.2c-3.3-4.2-3.4-9.5-3.4-15.7c0-5.9,0.3-13.1,5.6-17.4
				c3.8-3.2,9-3.8,13.2-3.8c3,0,7.3,0.4,10.7,2.3c1.6,1,6.7,4.5,6.7,13.4c0,1.2-0.1,4.1-1.7,5.5c-1.3,1.1-3.3,1.3-4.5,1.3h-25.7
				c-0.1,2.4,0.1,6.3,0.7,8.6c0.9,3.4,3.8,7.3,9.4,7.3h20.7v3.8L656.9,95.7L656.9,95.7z M672.5,72.3c1.8,0,1.7-2.2,1.7-2.8
				c0-4.1-1.4-6.9-2.9-8.6c-3.1-3.6-7.1-3.7-10.9-3.7c-4.2,0-8.8,0.2-11.7,5.1c-1.6,2.8-1.9,5.8-2,9.9L672.5,72.3L672.5,72.3z"/>
			<path class="st7" d="M700.7,95.7c-3.6,0-7.5,0.2-10.2-2.4c-2.7-2.6-2.9-6.6-2.9-11.7V57.3h-5.8v-3.8h5.8V40h4.1v13.5h11.6v3.8
				h-11.6v23.4c0,3.6-0.2,8.4,2.3,10.2c0.9,0.6,2.8,1,7.4,1h2.2v3.8C703.9,95.7,700.7,95.7,700.7,95.7z"/>
			<path class="st7" d="M715.9,90.7c0.2,0.5,0.5,1.3,0.9,1.3c0.5,0,0.7-0.9,0.8-1.2l9-34.3c0.8-3,2.5-3.5,3.8-3.5
				c1.3,0,3.1,0.5,3.8,3.5l9,34.3c0.1,0.2,0.3,1.2,0.8,1.2c0.4,0,0.7-0.7,0.9-1.3l9.5-37.2h4.1l-10.3,39.1c-0.5,1.8-1.4,3.5-4.1,3.5
				c-3.1,0-4-2.3-4.3-3.6l-8.8-32.9c-0.1-0.5-0.3-1.4-0.6-1.4c-0.3,0-0.5,0.9-0.6,1.4l-8.8,32.9c-0.3,1.2-1.2,3.6-4.3,3.6
				c-2.6,0-3.6-1.6-4.1-3.5l-10.3-39.1h4.1L715.9,90.7z"/>
			<path class="st7" d="M774.5,95.7c-3.4,0-7.9-0.9-11.1-5.2c-3.3-4.2-3.4-9.5-3.4-15.7c0-5.9,0.3-13.1,5.6-17.4
				c3.8-3.2,9-3.8,13.2-3.8c3,0,7.3,0.4,10.7,2.3c1.6,1,6.7,4.5,6.7,13.4c0,1.2-0.1,4.1-1.7,5.5c-1.3,1.1-3.3,1.3-4.5,1.3h-25.7
				c-0.1,2.4,0.1,6.3,0.7,8.6c0.9,3.4,3.8,7.3,9.4,7.3h20.7v3.8L774.5,95.7L774.5,95.7z M790.1,72.3c1.8,0,1.7-2.2,1.7-2.8
				c0-4.1-1.4-6.9-2.9-8.6c-3.1-3.6-7.1-3.7-10.9-3.7c-4.2,0-8.8,0.2-11.7,5.1c-1.6,2.8-1.9,5.8-2,9.9L790.1,72.3L790.1,72.3z"/>
			<path class="st7" d="M802.7,68c0-4.3,0.5-8.1,3.8-11c1.7-1.6,4.7-3.4,10.3-3.4h2.9v3.8h-2.5c-2.3,0-5.8,0.2-8.1,3
				c-1.7,2.1-2.1,5.3-2.1,8.8v26.7h-4.1L802.7,68L802.7,68z"/>
			<path class="st7" d="M822.7,95.7V40h4.1v55.6H822.7z M850.3,95.7l-17.1-15.7c-0.9-0.9-3.3-3.2-3.3-6c0-2.3,1.3-4.1,3.4-6
				l15.3-14.3h5.6l-18.3,17.1c-1.1,1.1-1.4,2.3-1.4,3.1c0,1.4,1.1,3,2.2,4L856,95.7L850.3,95.7L850.3,95.7z"/>
		</g>
		<g id="netwerk_10_">
			<g>
				<path class="st8" d="M602,58.2c0-1.1,0.1-2.8,0.9-3.9c1.1-1.4,2.9-1.6,4.1-1.6h15.1c4,0,7.2,0.5,9.8,3.1c1.3,1.3,3.3,4,3.3,9.8
					v29.3h-4.1V66.6c0-3.6-0.4-5.7-1.8-7.5c-1.7-2.2-4.1-2.7-6.8-2.7h-14.9c-0.4,0-0.9,0-1.1,0.3s-0.2,0.9-0.2,1.3v36.8H602
					L602,58.2L602,58.2z"/>
				<path class="st7" d="M635.4,95h-4.5V66.6c0-3.8-0.5-5.7-1.8-7.4c-1.6-2.1-3.8-2.6-6.6-2.6h-14.9c-0.4,0-0.8,0-0.9,0.2
					c-0.2,0.2-0.2,0.9-0.2,1.2v37h-4.5V58.2c0-1.3,0.1-2.9,1-4c1.2-1.5,3-1.6,4.3-1.6h15c3.5,0,7.1,0.4,9.9,3.1
					c2.2,2.2,3.3,5.6,3.3,9.9L635.4,95L635.4,95z M631.3,94.6h3.8v-29c0-4.3-1.1-7.5-3.2-9.6c-2.7-2.7-6.2-3.1-9.6-3.1h-15.1
					c-1.3,0-2.9,0.2-4,1.5c-0.8,1-0.9,2.6-0.9,3.8v36.5h3.7V58c0-0.4,0-1,0.3-1.4c0.3-0.4,0.9-0.4,1.3-0.4h14.9c2.5,0,5.2,0.3,7,2.7
					c1.6,2,1.9,4.3,1.9,7.7L631.3,94.6L631.3,94.6z"/>
			</g>
			<g>
				<path class="st8" d="M656.1,94.9c-3.4,0-7.9-0.9-11.1-5.2c-3.3-4.2-3.4-9.5-3.4-15.7c0-5.9,0.3-13.1,5.6-17.4
					c3.8-3.2,9-3.8,13.2-3.8c3,0,7.3,0.4,10.7,2.3c1.6,1,6.7,4.5,6.7,13.4c0,1.2-0.1,4.1-1.7,5.5c-1.3,1.1-3.3,1.3-4.5,1.3H646
					c-0.1,2.4,0.1,6.3,0.7,8.6c0.9,3.4,3.8,7.3,9.4,7.3h20.7v3.8L656.1,94.9L656.1,94.9z M671.7,71.5c1.8,0,1.7-2.2,1.7-2.8
					c0-4.1-1.4-6.9-2.9-8.6c-3.1-3.6-7.1-3.7-10.9-3.7c-4.2,0-8.8,0.2-11.7,5.1c-1.6,2.8-1.9,5.8-2,9.9L671.7,71.5L671.7,71.5z"/>
				<path class="st7" d="M677,95h-20.9c-4.8,0-8.6-1.8-11.3-5.2c-3.2-4.1-3.4-9.2-3.4-15.9c0-6.3,0.5-13.2,5.7-17.6
					c4.1-3.4,9.5-3.8,13.3-3.8c3.1,0,7.4,0.4,10.8,2.4c3.1,2,6.9,5.9,6.9,13.5c0,2.7-0.6,4.6-1.8,5.6c-1,0.9-2.6,1.3-4.6,1.3h-25.4
					c-0.1,2.6,0.2,6.3,0.7,8.3c0.5,1.6,2.5,7.2,9.2,7.2H677L677,95L677,95z M660.4,52.9c-3.7,0-9.1,0.4-13.1,3.7
					c-5.2,4.3-5.6,11.2-5.6,17.3c0,6.6,0.2,11.6,3.4,15.6c2.6,3.4,6.3,5.1,11,5.1h20.4v-3.3h-20.4c-5.6,0-8.6-3.8-9.5-7.4
					c-0.6-2.1-0.8-6-0.7-8.6V75h25.9c1.9,0,3.4-0.4,4.3-1.3c1.1-0.9,1.6-2.7,1.6-5.3c0-7.5-3.6-11.3-6.6-13.1
					C667.7,53.3,663.4,52.9,660.4,52.9z M671.7,71.7h-25.9v-0.2c0.1-3.9,0.2-7.1,2-10c3.1-5.2,8-5.2,11.9-5.2c3.5,0,7.9,0,11,3.8
					c1.3,1.6,2.9,4.3,2.9,8.7v0.1c0,0.5,0,1.7-0.7,2.4C672.6,71.6,672.2,71.7,671.7,71.7z M646.2,71.3h25.4c0.4,0,0.7-0.1,0.9-0.4
					c0.5-0.5,0.5-1.7,0.5-2.1v-0.1c0-4.3-1.6-7-2.8-8.4c-3.1-3.6-7.3-3.6-10.7-3.6c-3.8,0-8.5,0-11.5,5
					C646.5,64.4,646.3,67.5,646.2,71.3z"/>
			</g>
			<g>
				<path class="st8" d="M699.9,94.9c-3.6,0-7.5,0.2-10.2-2.4c-2.7-2.5-2.9-6.6-2.9-11.7V56.5H681v-3.8h5.8V39.3h4.1v13.5h11.6v3.8
					H691v23.4c0,3.6-0.2,8.4,2.3,10.2c0.9,0.6,2.8,1,7.4,1h2.2V95L699.9,94.9L699.9,94.9z"/>
				<path class="st7" d="M698.7,95c-3.5,0-6.8-0.2-9.2-2.5c-2.7-2.6-2.9-6.9-2.9-11.8v-24h-5.9v-4.1h5.8V39h4.5v13.5h11.6v4.1h-11.6
					v23.9c0,3.4,0,7.6,2.3,9.2c1,0.7,3.2,1,7.4,1h2.4V95L698.7,95z M681.3,56.2h5.8v24.4c0,4.8,0.2,9,2.8,11.5
					c2.2,2.2,5.5,2.4,8.8,2.4h4.1v-3.3h-2c-4.2,0-6.4-0.3-7.6-1.1c-2.5-1.7-2.5-6.1-2.5-9.6v-0.8V56.2h11.6v-3.3h-11.6V39.4h-3.7
					v13.5h-5.8V56.2L681.3,56.2z"/>
			</g>
			<g>
				<path class="st8" d="M715.1,89.9c0.2,0.5,0.5,1.3,0.9,1.3c0.5,0,0.7-0.9,0.8-1.2l9-34.3c0.8-3,2.5-3.5,3.8-3.5
					c1.3,0,3.1,0.5,3.8,3.5l9,34.3c0.1,0.2,0.3,1.2,0.8,1.2c0.4,0,0.7-0.7,0.9-1.3l9.5-37.2h4.1l-10.3,39.1
					c-0.5,1.8-1.4,3.5-4.1,3.5c-3.1,0-4-2.3-4.3-3.6L730.2,59c-0.1-0.5-0.3-1.4-0.6-1.4c-0.3,0-0.5,0.9-0.6,1.4l-8.8,32.9
					c-0.3,1.2-1.2,3.6-4.3,3.6c-2.6,0-3.6-1.6-4.1-3.5l-10.3-39.1h4.1L715.1,89.9z"/>
				<path class="st7" d="M743.2,95.5c-2.3,0-3.8-1.3-4.5-3.8l-8.8-32.9c-0.1-0.6-0.3-1.3-0.5-1.3c-0.1,0.1-0.3,0.6-0.4,1.3
					l-8.8,32.9c-0.6,2.5-2.2,3.8-4.5,3.8c-3,0-3.8-2.1-4.2-3.7l-10.4-39.3h4.5v0.2l9.5,37.2c0.2,0.7,0.5,1.1,0.7,1.1
					c0.2,0,0.3-0.2,0.5-0.9v-0.1l9-34.3c0.8-3.1,2.7-3.7,4-3.7c1.4,0,3.2,0.6,4,3.7l9,34.3c0.2,0.6,0.4,0.9,0.5,0.9
					c0.2,0,0.5-0.4,0.7-1.1l9.5-37.3h4.5l-0.1,0.2l-10.3,39.1C747,93.5,746.1,95.5,743.2,95.5z M729.5,57.3c0.5,0,0.8,1.1,0.9,1.6
					l8.8,32.9c0.6,2.3,2,3.4,4.1,3.4c2.7,0,3.4-1.8,3.8-3.4l10.2-38.9h-3.8l-9.4,37c-0.2,0.5-0.5,1.4-1.1,1.4
					c-0.5,0-0.9-0.9-0.9-1.3V90l-9-34.3c-0.6-2.2-1.8-3.4-3.6-3.4c-1.8,0-3,1.1-3.6,3.4l-9,34.3c-0.2,0.4-0.4,1.3-0.9,1.3
					c-0.6,0-0.9-1-1.1-1.4l-9.4-37h-3.7l10.2,38.8c0.4,1.6,1.3,3.4,3.8,3.4c2.1,0,3.5-1.2,4.1-3.4l8.8-32.9
					C728.8,58.3,729,57.3,729.5,57.3z"/>
			</g>
			<g>
				<path class="st8" d="M773.7,94.9c-3.4,0-7.9-0.9-11.1-5.2c-3.3-4.2-3.4-9.5-3.4-15.7c0-5.9,0.3-13.1,5.6-17.4
					c3.8-3.2,9-3.8,13.2-3.8c3,0,7.3,0.4,10.7,2.3c1.6,1,6.7,4.5,6.7,13.4c0,1.2-0.1,4.1-1.7,5.5c-1.3,1.1-3.3,1.3-4.5,1.3h-25.7
					c-0.1,2.4,0.1,6.3,0.7,8.6c0.9,3.4,3.8,7.3,9.4,7.3h20.7v3.8L773.7,94.9L773.7,94.9z M789.2,71.5c1.8,0,1.7-2.2,1.7-2.8
					c0-4.1-1.4-6.9-2.9-8.6c-3.1-3.6-7.1-3.7-10.9-3.7c-4.2,0-8.8,0.2-11.7,5.1c-1.6,2.8-1.9,5.8-2,9.9L789.2,71.5L789.2,71.5z"/>
				<path class="st7" d="M794.5,95h-20.9c-4.8,0-8.6-1.8-11.3-5.2c-3.2-4.1-3.4-9.2-3.4-15.9c0-6.3,0.5-13.2,5.7-17.6
					c4.1-3.4,9.5-3.8,13.3-3.8c3.1,0,7.4,0.4,10.8,2.4c3.1,2,6.9,5.9,6.9,13.5c0,2.7-0.6,4.6-1.8,5.6c-1,0.9-2.6,1.3-4.6,1.3h-25.4
					c-0.1,2.6,0.2,6.3,0.7,8.3c0.5,1.6,2.5,7.2,9.2,7.2h20.9L794.5,95L794.5,95z M778,52.9c-3.7,0-9.1,0.4-13.1,3.7
					c-5.2,4.3-5.6,11.2-5.6,17.3c0,6.6,0.2,11.6,3.4,15.6c2.6,3.4,6.3,5.1,11,5.1h20.4v-3.3h-20.4c-5.6,0-8.6-3.8-9.5-7.4
					c-0.6-2.1-0.8-6-0.7-8.6V75h25.9c1.9,0,3.4-0.4,4.3-1.3c1.1-0.9,1.6-2.7,1.6-5.3c0-7.5-3.6-11.3-6.6-13.1
					C785.2,53.3,780.9,52.9,778,52.9z M789.2,71.7h-25.9v-0.2c0.1-3.9,0.2-7.1,2-10c3.1-5.2,8-5.2,11.9-5.2c3.5,0,7.9,0,11,3.8
					c1.3,1.6,2.9,4.3,2.9,8.7v0.1c0,0.5,0,1.7-0.7,2.4C790.2,71.6,789.8,71.7,789.2,71.7z M763.8,71.3h25.4c0.4,0,0.7-0.1,0.9-0.4
					c0.5-0.5,0.5-1.7,0.5-2.1v-0.1c0-4.3-1.6-7-2.8-8.4c-3.1-3.6-7.3-3.6-10.7-3.6c-3.8,0-8.5,0-11.5,5
					C764.1,64.4,763.9,67.5,763.8,71.3z"/>
			</g>
			<g>
				<path class="st8" d="M801.8,67.2c0-4.3,0.5-8.1,3.8-11c1.7-1.6,4.7-3.4,10.3-3.4h2.9v3.8h-2.5c-2.3,0-5.8,0.2-8.1,3
					c-1.7,2.1-2.1,5.3-2.1,8.8v26.7h-4.1L801.8,67.2L801.8,67.2z"/>
				<path class="st7" d="M806.1,95h-4.5V67.2c0-4.5,0.6-8.2,3.8-11.2c2.4-2.3,5.9-3.4,10.5-3.4h3.1v4.1h-2.7c-2.6,0-5.8,0.3-8,2.9
					c-1.9,2.3-2.1,5.8-2.1,8.6L806.1,95L806.1,95z M802.1,94.6h3.7V68.1c0-2.9,0.2-6.5,2.2-8.8c2.3-2.7,5.6-3.1,8.3-3.1h2.3v-3.3
					h-2.7c-4.5,0-7.8,1.1-10.2,3.4c-3.1,2.9-3.7,6.4-3.7,10.9V94.6z"/>
			</g>
			<g>
				<path class="st8" d="M821.9,94.9V39.3h4.1v55.6C826.1,94.9,821.9,94.9,821.9,94.9z M849.5,94.9l-17.1-15.7
					c-0.9-0.9-3.3-3.2-3.3-6c0-2.3,1.3-4.1,3.4-6l15.3-14.3h5.6L835,69.9c-1.1,1.1-1.4,2.3-1.4,3.1c0,1.4,1.1,3,2.2,4l19.4,17.9
					L849.5,94.9L849.5,94.9z"/>
				<path class="st7" d="M855.7,95h-6.3l-0.1-0.1l-17.1-15.7c-2.2-2-3.3-4.1-3.3-6.2c0-2.4,1.3-4.2,3.4-6.2l15.3-14.4h6.2l-0.4,0.4
					L835.1,70c-1.3,1.3-1.3,2.5-1.3,2.9c0,1.2,0.8,2.6,2.2,3.8L855.7,95z M849.5,94.6h5.1L835.7,77c-0.7-0.6-2.3-2.3-2.3-4.1
					c0-0.4,0.1-1.8,1.5-3.1l17.9-16.8h-4.9l-15.2,14.2c-2,1.9-3.3,3.6-3.3,5.9c0,2,1.1,4,3.2,5.9L849.5,94.6z M826.2,95h-4.5V39h4.5
					V95z M822.1,94.6h3.7V39.4h-3.7V94.6z"/>
			</g>
		</g>
		<g id="netwerk_9_">
			<path class="st8" d="M602,58.2c0-1.1,0.1-2.8,0.9-3.9c1.1-1.4,2.9-1.6,4.1-1.6h15.1c4,0,7.2,0.5,9.8,3.1c1.3,1.3,3.3,4,3.3,9.8
				v29.3h-4.1V66.6c0-3.6-0.4-5.7-1.8-7.5c-1.7-2.2-4.1-2.7-6.8-2.7h-14.9c-0.4,0-0.9,0-1.1,0.3s-0.2,0.9-0.2,1.3v36.8H602L602,58.2
				L602,58.2z"/>
			<path class="st8" d="M656.1,94.9c-3.4,0-7.9-0.9-11.1-5.2c-3.3-4.2-3.4-9.5-3.4-15.7c0-5.9,0.3-13.1,5.6-17.4
				c3.8-3.2,9-3.8,13.2-3.8c3,0,7.3,0.4,10.7,2.3c1.6,1,6.7,4.5,6.7,13.4c0,1.2-0.1,4.1-1.7,5.5c-1.3,1.1-3.3,1.3-4.5,1.3H646
				c-0.1,2.4,0.1,6.3,0.7,8.6c0.9,3.4,3.8,7.3,9.4,7.3h20.7v3.8L656.1,94.9L656.1,94.9z M671.7,71.5c1.8,0,1.7-2.2,1.7-2.8
				c0-4.1-1.4-6.9-2.9-8.6c-3.1-3.6-7.1-3.7-10.9-3.7c-4.2,0-8.8,0.2-11.7,5.1c-1.6,2.8-1.9,5.8-2,9.9L671.7,71.5L671.7,71.5z"/>
			<path class="st8" d="M699.9,94.9c-3.6,0-7.5,0.2-10.2-2.4c-2.7-2.5-2.9-6.6-2.9-11.7V56.5H681v-3.8h5.8V39.3h4.1v13.5h11.6v3.8
				H691v23.4c0,3.6-0.2,8.4,2.3,10.2c0.9,0.6,2.8,1,7.4,1h2.2V95L699.9,94.9L699.9,94.9z"/>
			<path class="st8" d="M715.1,89.9c0.2,0.5,0.5,1.3,0.9,1.3c0.5,0,0.7-0.9,0.8-1.2l9-34.3c0.8-3,2.5-3.5,3.8-3.5
				c1.3,0,3.1,0.5,3.8,3.5l9,34.3c0.1,0.2,0.3,1.2,0.8,1.2c0.4,0,0.7-0.7,0.9-1.3l9.5-37.2h4.1l-10.3,39.1c-0.5,1.8-1.4,3.5-4.1,3.5
				c-3.1,0-4-2.3-4.3-3.6L730.2,59c-0.1-0.5-0.3-1.4-0.6-1.4c-0.3,0-0.5,0.9-0.6,1.4l-8.8,32.9c-0.3,1.2-1.2,3.6-4.3,3.6
				c-2.6,0-3.6-1.6-4.1-3.5l-10.3-39.1h4.1L715.1,89.9z"/>
			<path class="st8" d="M773.7,94.9c-3.4,0-7.9-0.9-11.1-5.2c-3.3-4.2-3.4-9.5-3.4-15.7c0-5.9,0.3-13.1,5.6-17.4
				c3.8-3.2,9-3.8,13.2-3.8c3,0,7.3,0.4,10.7,2.3c1.6,1,6.7,4.5,6.7,13.4c0,1.2-0.1,4.1-1.7,5.5c-1.3,1.1-3.3,1.3-4.5,1.3h-25.7
				c-0.1,2.4,0.1,6.3,0.7,8.6c0.9,3.4,3.8,7.3,9.4,7.3h20.7v3.8L773.7,94.9L773.7,94.9z M789.2,71.5c1.8,0,1.7-2.2,1.7-2.8
				c0-4.1-1.4-6.9-2.9-8.6c-3.1-3.6-7.1-3.7-10.9-3.7c-4.2,0-8.8,0.2-11.7,5.1c-1.6,2.8-1.9,5.8-2,9.9L789.2,71.5L789.2,71.5z"/>
			<path class="st8" d="M801.8,67.2c0-4.3,0.5-8.1,3.8-11c1.7-1.6,4.7-3.4,10.3-3.4h2.9v3.8h-2.5c-2.3,0-5.8,0.2-8.1,3
				c-1.7,2.1-2.1,5.3-2.1,8.8v26.7h-4.1L801.8,67.2L801.8,67.2z"/>
			<path class="st8" d="M821.9,94.9V39.3h4.1v55.6C826.1,94.9,821.9,94.9,821.9,94.9z M849.5,94.9l-17.1-15.7
				c-0.9-0.9-3.3-3.2-3.3-6c0-2.3,1.3-4.1,3.4-6l15.3-14.3h5.6L835,69.9c-1.1,1.1-1.4,2.3-1.4,3.1c0,1.4,1.1,3,2.2,4l19.4,17.9
				L849.5,94.9L849.5,94.9z"/>
		</g>
	</g>
</g>
<polygon class="st9" points="104.4,21.8 99.9,25.5 92,25.5 89.2,22.2 67.8,17.7 48.7,13.1 16.9,6.8 10.7,11.6 8.6,20 8.6,68.8 
	7.9,115.7 28.8,122.4 61.4,131 77.8,136.3 115.5,135.8 130,128.9 184.5,118.5 187.4,108.8 185.3,9.7 172,6.8 132.7,13.9 "/>
<path class="st10" d="M96.4,31.8c-24.8,0-44.7,20-44.7,44.7s20,44.7,44.7,44.7s44.7-20,44.7-44.7C141.3,51.7,121.1,31.8,96.4,31.8
	 M148.4,75c0,30.9-23.1,48.1-52,76.8c-29.5-28.5-52-45.4-52-76.8c0-28.7,23.3-52,52-52C125.1,23,148.4,46.3,148.4,75"/>
<path class="st11" d="M114.9,24.3c0,0,7.7-6.3,32.2-10.8s28.7-3.3,28.7-3.3s5.4,0.4,7.1,6.1c0.2,0.9,0.4,1.9,0.4,2.8l0.6,89.2
	c0,0,0.1,5.7-6.7,7c-3.9,0-22.6,2.5-28.2,3.6c-5.7,1.2-19.4,4.4-22.9,6.1l-10.6,10.7c0,0,3,1.5,10.4-1.5c7.9-3.3,31.5-8.4,31.5-8.4
	s16.7-1.9,22-2.6c5.6-0.6,5.7-1.4,5.7-1.4s7.1-4,8.1-13.8c0.9-10-0.7-91.6-0.7-91.6s-0.1-11.3-15.5-14.5
	c-17.4-3.6-51.3,8.1-56.7,10.4c-5.4,2.3-10.9,4.9-13.7,7.5c-2.6,2.5-2.1,1.9-2.1,1.9S109,22,114.9,24.3"/>
<path class="st11" d="M78.5,24.7c0,0-7.7-6.3-32.2-10.8s-28.7-3.2-28.7-3.2s-6.5,0.5-7.5,7.7l-0.6,90.4c0,0-0.1,5.7,6.7,7
	c3.9,0,22.6,2.5,28.2,3.6s19.4,4.4,22.9,6.1l10.5,10.7c0,0-3,1.5-10.4-1.5c-7.9-3.3-31.5-8.4-31.5-8.4s-16.7-1.9-22-2.6
	c-5.6-0.6-5.7-1.4-5.7-1.4s-7.1-4-8.1-13.8c-0.6-10,1-91.7,1-91.7S1.2,5.6,16.7,2.5C34.1-1.1,68,10.6,73.4,12.8
	c5.4,2.3,10.9,4.9,13.7,7.5c2.6,2.5,2.1,1.9,2.1,1.9S84.4,22.5,78.5,24.7"/>
<path class="st12" d="M136.1,76.3c0-21.8-17.6-39.5-39.5-39.5c-9.6,0-18.4,3.4-25.2,9.1l55.5,55.5C132.6,94.6,136.1,85.9,136.1,76.3
	"/>
<path class="st12" d="M71.4,46c-8.7,7.3-14.2,18-14.2,30.3c0,21.8,17.6,39.5,39.5,39.5c12.2,0,23.1-5.5,30.3-14.2L71.4,46z"/>
<path class="st10" d="M93.6,111.3c-1.3-0.4-2.5-0.7-3.6-1.2c-1.4-0.6-2.7-1.1-4-1.9c-1.5-0.8-3-1.8-4.5-2.7
	c-2.3-1.5-4.5-3.4-6.4-5.4c-2.1-2.2-4-4.7-5.6-7.4c-1.3-2.2-2.3-4.5-3.2-6.9c-0.5-1.4-0.8-2.6-1.1-4.1l-0.1-0.2
	c-0.2-1.2-0.5-2.5-0.6-3.6c0-0.5-0.1-0.8-0.1-1.3c0-0.7-0.1-1.5-0.1-2.3c0-1.2,0.1-2.5,0.2-3.6c0.1-1.3,0.2-2.6,0.6-3.9
	c0.2-1.5,0.6-2.8,1-4.2c0.5-1.8,1-3.3,1.5-4.8c0.8-2.1,1.6-4,2.5-5.4c1.4-2.7,2.6-4.3,2.7-4.6l-1.1,0.6c-0.2,0.2-1.3,1.9-2.7,4.6
	c-0.7,1.5-1.6,3.3-2.5,5.4c-0.6,1.5-1.1,3-1.5,4.8c-0.4,1.4-0.7,2.8-1,4.2c-0.2,1.3-0.4,2.5-0.6,3.9c-0.1,1.2-0.2,2.3-0.2,3.6
	c0,0.7,0,1.5,0.1,2.3c0,0.5,0.1,0.8,0.1,1.3c0.1,1.3,0.2,2.5,0.6,3.6v0.1c0.2,1.5,0.6,2.8,1.1,4.2c0.8,2.3,1.9,4.7,3.2,6.9
	c1.5,2.7,3.5,5.1,5.6,7.4c1.9,2,4,3.9,6.4,5.4c1.5,1,2.9,1.9,4.5,2.7c1.3,0.6,2.6,1.3,4,1.8c1.2,0.5,2.5,0.9,3.6,1.2l0,0
	c1.2,0.4,2.3,0.6,3.5,0.8c1.1,0.2,2.3,0.4,3.5,0.5c0.8,0.1,1.8,0.1,2.6,0.2l1.1-0.6c-0.8,0-1.8-0.1-2.6-0.2
	c-1.2-0.1-2.3-0.2-3.5-0.5C95.8,111.8,94.8,111.5,93.6,111.3L93.6,111.3z"/>
<path class="st10" d="M63.5,77.1c1.2,20.3,19.3,35.7,38.6,36.2c-0.6,0.1-0.8,0.2-1,0.2c-1.2,0.2-1.3,0.2-1.3,0.2c-0.1,0-0.2,0-0.2,0
	c-0.2,0-0.2,0-0.4,0s-0.2,0-0.2,0c-0.5,0-0.6,0-0.6,0c-0.2,0-0.2,0-0.2,0c-0.2,0-0.2,0-0.2,0c-0.2,0-0.2,0-0.2,0c-0.2,0-0.2,0-0.4,0
	s-0.2,0-0.4,0c-0.4,0-0.6,0-0.6,0c-0.1,0-0.1,0-0.2,0c-0.2,0-0.4,0-0.6,0c-0.2,0-0.5,0-0.6,0c-15.6-0.6-30.6-12.4-34.2-27.5
	c0-0.1,0-0.1,0-0.2c0-0.2-0.1-0.2-0.1-0.2c0-0.1,0-0.2-0.1-0.2c0-0.2-0.1-0.2-0.1-0.4s-0.1-0.2-0.1-0.5c0-0.2-0.1-0.4-0.1-0.5
	c0-0.2-0.1-0.4-0.1-0.6c0-0.2-0.1-0.4-0.1-0.6c-0.1-0.5-0.1-0.8-0.2-1.2c0-0.2-0.1-0.6-0.1-0.7c0-0.4-0.1-0.6-0.1-0.7
	c0-0.2,0-0.5-0.1-0.6c0-0.4,0-0.6-0.1-0.8c0-0.4,0-0.6,0-0.8c0-0.2,0-0.6,0-0.7v-0.4c0-0.1,0-0.2,0-0.2s0-0.2,0-0.4s0-0.2,0-0.2
	c0-0.1,0-0.2,0-0.4c0-0.1,0-0.1,0-0.2c0-0.2,0-0.2,0-0.5s0-0.6,0-0.7c0-0.2,0-0.5,0-0.6c0-0.2,0-0.5,0-0.6c0-0.1,0-0.1,0-0.2
	c0-0.2,0-0.2,0-0.5c0-0.1,0-0.2,0-0.2s0-0.2,0-0.4s0-0.2,0-0.2c0-0.2,0-0.2,0.1-0.5c0-0.1,0-0.1,0-0.2c0-0.2,0-0.4,0.1-0.5
	c0.1-0.6,0.2-1,0.2-1.5c0-0.1,0-0.1,0-0.2c0-0.2,0.1-0.4,0.1-0.5c0-0.1,0-0.2,0.1-0.2c0-0.2,0.1-0.2,0.1-0.5c0-0.1,0-0.2,0.1-0.2
	c0-0.2,0.1-0.2,0.1-0.5c0-0.1,0-0.2,0.1-0.2c0-0.2,0.1-0.2,0.1-0.5c0-0.1,0-0.2,0.1-0.2c0-0.2,0.1-0.4,0.2-0.5c0-0.1,0-0.1,0.1-0.2
	c0.1-0.2,0.2-0.5,0.2-0.7c0.1-0.2,0.2-0.5,0.2-0.7c0-0.1,0.1-0.2,0.1-0.2c0.1-0.2,0.1-0.4,0.2-0.5c0-0.1,0.1-0.2,0.1-0.2
	c0.1-0.2,0.1-0.2,0.2-0.5c0-0.1,0.1-0.2,0.1-0.2c0.1-0.2,0.1-0.2,0.2-0.5c0-0.1,0.1-0.2,0.1-0.2c0.1-0.2,0.1-0.2,0.2-0.5
	c0-0.1,0.1-0.2,0.1-0.2c0.1-0.2,0.2-0.2,0.2-0.5c0-0.1,0.1-0.2,0.1-0.2c0.1-0.2,0.2-0.5,0.4-0.7c0.1-0.2,0.2-0.5,0.4-0.7
	c0-0.1,0.1-0.2,0.1-0.2c0.1-0.2,0.2-0.2,0.2-0.5c0.1-0.1,0.1-0.2,0.2-0.2c0.1-0.2,0.2-0.2,0.2-0.5c0.1-0.1,0.1-0.2,0.2-0.2
	c0.1-0.1,0.2-0.2,0.2-0.5c0.1-0.1,0.1-0.2,0.2-0.2c0.1-0.2,0.2-0.2,0.2-0.5c0.1-0.1,0.1-0.2,0.2-0.2c0.1-0.2,0.2-0.2,0.2-0.5
	c0.1-0.1,0.1-0.2,0.2-0.2c0.2-0.2,0.4-0.5,0.5-0.7c2.7-3.5,5.3-5.6,5.4-5.7C71.4,49.2,62.6,61.8,63.5,77.1"/>
<path class="st11" d="M85.5,36.3c-13.8,7.4-3.2,21.1,9.1,36.9c18.4,23.7,28.5,36.3,15.5,41.3c-2.1,0.8-4.3,1.2-5.4,1.5
	c12.3-4,4.6-14.3-8.7-31.1C78.7,63.4,67.4,45,80.2,38.2C81.7,37.3,83.5,36.7,85.5,36.3"/>
<path class="st11" d="M85.7,36.2c-14.5,6.6-0.8,17.4,15,30.1C124,84.7,135,95,126,104.6c-2.1,2.2-3.5,3-4.3,3.6
	c9.1-9.4-0.9-17.9-24.5-37.1c-15.9-13-28.9-26.5-16.7-32.9C82,37.4,83.5,36.7,85.7,36.2"/>
<path class="st11" d="M103.8,35.1c-16.6-1.9-6.4,11.1-2.6,15.9c6.1,7.6,12.8,14.6,18.7,22.4c2.2,2.9,5.3,7.4,7.4,11.9
	c4.9,10.5,2.2,15.5-1.4,19.3c-1.2,1.3-1.5,1.5-1.5,1.5c-1.5,1.4-3.5,2.7-3.5,2.7c8.7-8.2,5.4-19.3-14.6-43.4
	c-12.8-15.3-24.5-30.7-7.6-30.8C100.5,34.5,102.3,34.9,103.8,35.1"/>
</svg>
