<?xml version="1.0" encoding="utf-8"?>
<!-- Generator: Adobe Illustrator 25.4.1, SVG Export Plug-In . SVG Version: 6.00 Build 0)  -->
<svg version="1.1" id="Laag_1" xmlns="http://www.w3.org/2000/svg" xmlns:xlink="http://www.w3.org/1999/xlink" x="0px" y="0px"
	 viewBox="0 0 136.4 106.4" style="enable-background:new 0 0 136.4 106.4;" xml:space="preserve">
<style type="text/css">
	.st0{fill:#FFFFFF;}
	.st1{fill:#1E93D2;}
	.st2{fill:#868686;}
	.st3{fill:#EDEDED;}
</style>
<polygon class="st0" points="73.5,14.5 70.3,17.2 64.7,17.2 62.7,14.8 47.6,11.6 34.1,8.4 11.6,3.9 7.3,7.3 5.8,13.3 5.8,47.8 
	5.3,80.9 20,85.6 43.1,91.7 54.7,95.4 81.3,95.1 91.5,90.2 130.1,82.9 132.1,76 130.6,6 121.2,3.9 93.5,9 "/>
<path class="st1" d="M67.8,21.6c-17.5,0-31.6,14.1-31.6,31.6s14.1,31.6,31.6,31.6s31.6-14.1,31.6-31.6
	C99.5,35.7,85.3,21.6,67.8,21.6 M104.6,52.1c0,21.8-16.3,34-36.7,54.3C47,86.3,31.1,74.3,31.1,52.1c0-20.3,16.5-36.7,36.7-36.7
	S104.6,31.9,104.6,52.1"/>
<path class="st2" d="M80.9,16.3c0,0,5.4-4.5,22.8-7.6s20.3-2.3,20.3-2.3s3.8,0.3,5,4.3c0.1,0.6,0.3,1.3,0.3,2l0.4,63
	c0,0,0.1,4-4.7,4.9c-2.8,0-16,1.8-19.9,2.5c-4,0.8-13.7,3.1-16.2,4.3L81.3,95c0,0,2.1,1.1,7.3-1.1c5.6-2.3,22.3-5.9,22.3-5.9
	s11.8-1.3,15.5-1.8c4-0.4,4-1,4-1s5-2.8,5.7-9.8c0.6-7.1-0.5-64.7-0.5-64.7s-0.1-8-11-10.2c-12.3-2.5-36.2,5.7-40.1,7.3
	c-3.8,1.6-7.7,3.5-9.7,5.3c-1.8,1.8-1.5,1.3-1.5,1.3S76.7,14.7,80.9,16.3"/>
<path class="st2" d="M55.2,16.6c0,0-5.4-4.5-22.8-7.6S12.1,6.7,12.1,6.7s-4.6,0.4-5.3,5.4L6.4,76c0,0-0.1,4,4.7,4.9
	c2.8,0,16,1.8,19.9,2.5c4,0.8,13.7,3.1,16.2,4.3l7.4,7.6c0,0-2.1,1.1-7.3-1.1c-5.6-2.3-22.3-5.9-22.3-5.9S13.3,87,9.5,86.5
	c-4-0.4-4-1-4-1s-5-2.8-5.7-9.8C-0.7,68.7,0.5,11,0.5,11s0.1-7.9,11-10.1c12.3-2.5,36.2,5.7,40.1,7.3c3.8,1.6,7.7,3.5,9.7,5.3
	c1.8,1.8,1.5,1.3,1.5,1.3S59.3,15,55.2,16.6"/>
<path class="st3" d="M95.9,53.1c0-15.4-12.4-27.9-27.9-27.9c-6.8,0-13,2.4-17.8,6.4l39.2,39.2C93.4,66,95.9,59.8,95.9,53.1"/>
<path class="st3" d="M50.1,31.6c-6.1,5.2-10,12.7-10,21.4C40.1,68.5,52.5,81,68,81c8.6,0,16.3-3.9,21.4-10L50.1,31.6z"/>
<path class="st1" d="M65.8,77.8c-0.9-0.3-1.8-0.5-2.5-0.8c-1-0.4-1.9-0.8-2.8-1.3c-1.1-0.6-2.1-1.3-3.2-1.9
	c-1.6-1.1-3.2-2.4-4.5-3.8c-1.5-1.6-2.8-3.3-4-5.2c-0.9-1.6-1.6-3.2-2.3-4.9c-0.4-1-0.6-1.8-0.8-2.9l-0.1-0.1
	c-0.1-0.8-0.4-1.8-0.4-2.5c0-0.4-0.1-0.6-0.1-0.9c0-0.5-0.1-1.1-0.1-1.6c0-0.8,0.1-1.8,0.1-2.5c0.1-0.9,0.1-1.8,0.4-2.8
	c0.1-1.1,0.4-2,0.7-3c0.4-1.3,0.7-2.3,1.1-3.4c0.6-1.5,1.1-2.8,1.8-3.8c1-1.9,1.8-3,1.9-3.3l-0.8,0.4c-0.1,0.1-0.9,1.3-1.9,3.3
	c-0.5,1.1-1.1,2.3-1.8,3.8c-0.4,1.1-0.8,2.1-1.1,3.4c-0.3,1-0.5,2-0.7,3c-0.1,0.9-0.3,1.8-0.4,2.8c-0.1,0.8-0.1,1.6-0.1,2.5
	c0,0.5,0,1.1,0.1,1.6c0,0.4,0.1,0.6,0.1,0.9c0.1,0.9,0.1,1.8,0.4,2.5v0.1c0.1,1.1,0.4,2,0.8,3c0.6,1.6,1.3,3.3,2.3,4.9
	c1.1,1.9,2.5,3.6,4,5.2c1.3,1.4,2.8,2.8,4.5,3.8c1.1,0.7,2,1.3,3.2,1.9c0.9,0.4,1.8,0.9,2.8,1.3c0.8,0.4,1.8,0.6,2.5,0.8l0,0
	c0.8,0.3,1.6,0.4,2.5,0.6c0.8,0.1,1.6,0.3,2.5,0.4c0.6,0.1,1.3,0.1,1.8,0.1l0.8-0.4c-0.6,0-1.3-0.1-1.8-0.1
	c-0.8-0.1-1.6-0.1-2.5-0.4C67.4,78.1,66.7,77.9,65.8,77.8L65.8,77.8z"/>
<path class="st1" d="M44.6,53.6C45.4,68,58.2,78.8,71.8,79.2c-0.4,0.1-0.6,0.1-0.7,0.1c-0.8,0.1-0.9,0.1-0.9,0.1c-0.1,0-0.1,0-0.1,0
	c-0.1,0-0.1,0-0.3,0s-0.1,0-0.1,0c-0.4,0-0.4,0-0.4,0c-0.1,0-0.1,0-0.1,0c-0.1,0-0.1,0-0.1,0c-0.1,0-0.1,0-0.1,0c-0.1,0-0.1,0-0.3,0
	s-0.1,0-0.3,0c-0.3,0-0.4,0-0.4,0c-0.1,0-0.1,0-0.1,0c-0.1,0-0.3,0-0.4,0c-0.1,0-0.4,0-0.4,0c-11-0.4-21.6-8.8-24.2-19.4
	c0-0.1,0-0.1,0-0.1c0-0.1-0.1-0.1-0.1-0.1c0-0.1,0-0.1-0.1-0.1c0-0.1-0.1-0.1-0.1-0.3c0-0.1-0.1-0.1-0.1-0.4c0-0.1-0.1-0.3-0.1-0.4
	c0-0.1-0.1-0.3-0.1-0.4s-0.1-0.3-0.1-0.4c-0.1-0.4-0.1-0.6-0.1-0.8c0-0.1-0.1-0.4-0.1-0.5c0-0.3-0.1-0.4-0.1-0.5
	c0-0.1,0-0.4-0.1-0.4c0-0.3,0-0.4-0.1-0.6c0-0.3,0-0.4,0-0.6c0-0.1,0-0.4,0-0.5v-0.3c0-0.1,0-0.1,0-0.1s0-0.1,0-0.3
	c0-0.1,0-0.1,0-0.1c0-0.1,0-0.1,0-0.3c0-0.1,0-0.1,0-0.1c0-0.1,0-0.1,0-0.4s0-0.4,0-0.5c0-0.1,0-0.4,0-0.4c0-0.1,0-0.4,0-0.4
	c0-0.1,0-0.1,0-0.1c0-0.1,0-0.1,0-0.4c0-0.1,0-0.1,0-0.1s0-0.1,0-0.3c0-0.1,0-0.1,0-0.1c0-0.1,0-0.1,0.1-0.4c0-0.1,0-0.1,0-0.1
	c0-0.1,0-0.3,0.1-0.4c0.1-0.4,0.1-0.7,0.1-1.1c0-0.1,0-0.1,0-0.1c0-0.1,0.1-0.3,0.1-0.4c0-0.1,0-0.1,0.1-0.1c0-0.1,0.1-0.1,0.1-0.4
	c0-0.1,0-0.1,0.1-0.1c0-0.1,0.1-0.1,0.1-0.4c0-0.1,0-0.1,0.1-0.1c0-0.1,0.1-0.1,0.1-0.4c0-0.1,0-0.1,0.1-0.1c0-0.1,0.1-0.3,0.1-0.4
	c0-0.1,0-0.1,0.1-0.1c0.1-0.1,0.1-0.4,0.1-0.5c0.1-0.1,0.1-0.4,0.1-0.5c0-0.1,0.1-0.1,0.1-0.1c0.1-0.1,0.1-0.3,0.1-0.4
	c0-0.1,0.1-0.1,0.1-0.1c0.1-0.1,0.1-0.1,0.1-0.4c0-0.1,0.1-0.1,0.1-0.1c0.1-0.1,0.1-0.1,0.1-0.4c0-0.1,0.1-0.1,0.1-0.1
	c0.1-0.1,0.1-0.1,0.1-0.4c0-0.1,0.1-0.1,0.1-0.1c0.1-0.1,0.1-0.1,0.1-0.4c0-0.1,0.1-0.1,0.1-0.1c0.1-0.1,0.1-0.4,0.3-0.5
	c0.1-0.1,0.1-0.4,0.3-0.5c0-0.1,0.1-0.1,0.1-0.1c0.1-0.1,0.1-0.1,0.1-0.4c0.1-0.1,0.1-0.1,0.1-0.1c0.1-0.1,0.1-0.1,0.1-0.4
	c0.1-0.1,0.1-0.1,0.1-0.1c0.1-0.1,0.1-0.1,0.1-0.4c0.1-0.1,0.1-0.1,0.1-0.1c0.1-0.1,0.1-0.1,0.1-0.4c0.1-0.1,0.1-0.1,0.1-0.1
	c0.1-0.1,0.1-0.1,0.1-0.4c0.1-0.1,0.1-0.1,0.1-0.1c0.1-0.1,0.3-0.4,0.4-0.5c1.9-2.5,3.7-4,3.8-4C50.1,33.9,43.9,42.8,44.6,53.6"/>
<path class="st2" d="M60.1,24.8c-9.8,5.2-2.3,14.9,6.4,26.1c13,16.7,20.1,25.6,11,29.2c-1.5,0.6-3,0.8-3.8,1.1
	c8.7-2.8,3.3-10.1-6.1-22c-12.2-15.2-20.2-28.2-11.2-33C57.4,25.5,58.7,25.1,60.1,24.8"/>
<path class="st2" d="M60.2,24.7C50,29.4,59.7,37,70.8,46C87.3,59,95.1,66.3,88.7,73c-1.5,1.6-2.5,2.1-3,2.5
	C92.1,69,85,62.9,68.4,49.4C57.1,40.2,48,30.7,56.6,26.1C57.6,25.6,58.7,25.1,60.2,24.7"/>
<path class="st2" d="M73,23.9c-11.7-1.3-4.5,7.8-1.8,11.2c4.3,5.4,9,10.3,13.2,15.8c1.6,2,3.7,5.2,5.2,8.4c3.5,7.4,1.6,11-1,13.6
	c-0.8,0.9-1.1,1.1-1.1,1.1c-1.1,1-2.5,1.9-2.5,1.9c6.1-5.8,3.8-13.6-10.3-30.7c-9-10.8-17.3-21.7-5.4-21.8
	C70.7,23.5,72,23.8,73,23.9"/>
</svg>
