<?xml version="1.0" encoding="utf-8"?>
<!-- Generator: Adobe Illustrator 25.4.1, SVG Export Plug-In . SVG Version: 6.00 Build 0)  -->
<svg version="1.1" id="réseaupromo" xmlns="http://www.w3.org/2000/svg" xmlns:xlink="http://www.w3.org/1999/xlink" x="0px"
	 y="0px" viewBox="0 0 850.6 156.3" style="enable-background:new 0 0 850.6 156.3;" xml:space="preserve">
<style type="text/css">
	.st0{fill:#1794D2;}
	.st1{display:none;}
	.st2{display:inline;fill:#A72880;}
	.st3{font-family:'ArialMT';}
	.st4{font-size:30px;}
	.st5{display:inline;fill:#515254;}
	.st6{fill:#868686;}
	.st7{fill:url(#SVGID_1_);}
	.st8{fill:url(#SVGID_00000163767073150531786770000015101449428641825971_);}
	.st9{clip-path:url(#SVGID_00000063620817900351178590000017627099476310352516_);}
	.st10{fill:#F0F0F0;}
	.st11{clip-path:url(#SVGID_00000168107297642206013190000011657601456648949639_);fill:#E0E1E2;}
	.st12{fill:url(#SVGID_00000024711265083700531580000015594556561923694210_);}
	.st13{fill:url(#SVGID_00000156573768888833634350000011493959402191270037_);}
	.st14{fill:url(#SVGID_00000115507460008491583900000003114858436732201127_);}
	.st15{fill:#4C4F53;}
</style>
<path id="Marker_00000031185075544031548280000000608770648482518411_" class="st0" d="M100,31.8c-25.6,0-46.4,20.7-46.4,46.4
	s20.7,46.4,46.4,46.4s46.4-20.7,46.4-46.4C146.4,52.6,125.6,31.8,100,31.8 M153.9,76.7c0,32-23.9,49.9-53.9,79.6
	c-30.6-29.5-53.9-47-53.9-79.6c0-29.7,24.1-53.9,53.9-53.9C129.7,22.8,153.9,47,153.9,76.7"/>
<g id="TypeFont__x28_MagistralBlackC_Regular_en_MagistralC_Regular_30pt_x29_" class="st1">
	<text transform="matrix(1 0 0 1 94.3456 180.4086)" class="st2 st3 st4">promo</text>
</g>
<g id="TypeFont__x28_MagistralBlackC_Regular_en_MagistralC_Regular_30pt_x29__00000116229655012510679910000015226289302246433974_" class="st1">
	<text transform="matrix(1 0 0 1 8.8708 180.2791)" class="st5 st3 st4">reseau</text>
</g>
<path class="st6" d="M80.6,140.1l-12.1-12.3c-17.5-8.1-47.3-9.4-48.2-9.5h-0.1c-8.5,0-10.2-3.3-10.2-8.9V21c0-6,5.5-10.2,10.7-10.7
	l0.5-0.1c0.1,0,14-2.3,45.4,7.7c6.4,2,11.3,4.5,14.3,6.9C86.7,22.4,92,22,92,22c-4.7-7-15.4-11.4-22.4-13.6C37.5-1.8,22,0,19.6,0.4
	C8.6,1.4,0,10.5,0,21v88.4c0,7.1,2,18.6,20.1,18.9c5.6,0.1,22,1.3,45.6,8.8c0,0,5.5,2,6.7,2.4C73.6,140.1,78.4,141.2,80.6,140.1z"/>
<path class="st6" d="M119.3,140.1l12.1-12.3c17.5-8.1,47.3-9.4,48.2-9.5h0.1c8.5,0,10.2-3.3,10.2-8.9V21c0-6-5.5-10.2-10.7-10.7
	l-0.5-0.1c-0.1,0-14-2.3-45.4,7.7c-6.4,2-11.3,4.5-14.3,6.9c-5.8-2.4-11.1-2.7-11.1-2.7c4.7-7,15.4-11.4,22.4-13.6
	c32.1-10.2,47.5-8.4,50-8c11,1.1,19.6,10.1,19.6,20.6v88.4c0,7.1-2,18.6-20.1,18.9c-5.6,0.1-22,1.3-45.6,8.8c0,0-5.5,2-6.7,2.4
	C126.3,140.1,121.5,141.2,119.3,140.1z"/>
<g id="cn-bol_1_">
	<g id="cn-globe_1_">
		
			<radialGradient id="SVGID_1_" cx="1259.4264" cy="104.8149" r="42.0167" gradientTransform="matrix(0.8195 0 0 -0.8195 -905.296 135.9227)" gradientUnits="userSpaceOnUse">
			<stop  offset="0" style="stop-color:#FFFFFF"/>
			<stop  offset="1" style="stop-color:#E0E1E2"/>
		</radialGradient>
		<path class="st7" d="M146.2,78.2c0-25.5-20.7-46.2-46.2-46.2c-11.2,0-21.5,4-29.5,10.8l65,65C142.2,99.8,146.2,89.4,146.2,78.2z"
			/>
		
			<radialGradient id="SVGID_00000056420678954385608810000009327457701684514447_" cx="1189.9023" cy="38.6557" r="53.4149" gradientTransform="matrix(0.8195 0 0 -0.8195 -905.296 135.9227)" gradientUnits="userSpaceOnUse">
			<stop  offset="0" style="stop-color:#FFFFFF"/>
			<stop  offset="1" style="stop-color:#E0E1E2"/>
		</radialGradient>
		<path style="fill:url(#SVGID_00000056420678954385608810000009327457701684514447_);" d="M70.4,42.8
			c-10.1,8.4-16.7,21.1-16.7,35.5c0,25.5,20.7,46.2,46.2,46.2c14.3,0,27-6.5,35.5-16.7L70.4,42.8z"/>
	</g>
	<g id="cn-shadow_1_">
		<g>
			<defs>
				<path id="SVGID_00000116936399514203965650000011069358735505689246_" d="M146.2,79.7c-0.8,25.5-22.2,45.4-47.7,44.5
					S53.1,102.1,54,76.5C54.8,51,76.1,31.2,101.7,32C127.2,32.9,147,54.4,146.2,79.7z"/>
			</defs>
			<clipPath id="SVGID_00000067955290147892614160000014126542353177285557_">
				<use xlink:href="#SVGID_00000116936399514203965650000011069358735505689246_"  style="overflow:visible;"/>
			</clipPath>
			<g style="clip-path:url(#SVGID_00000067955290147892614160000014126542353177285557_);">
				<path class="st10" d="M128.7,106.1c-1.5,0-3,0-4.6-0.2s-3.4-0.4-5.1-0.8c-2.1-0.4-4-1.1-6.1-1.7c-3.2-1.1-6.3-2.5-9.3-4.4
					c-3.2-1.9-6.3-4.4-9.1-7.2c-2.3-2.3-4.2-4.6-6.1-7.4c-1.1-1.5-1.9-3-2.7-4.6l-0.2-0.2c-0.6-1.5-1.5-2.7-2.1-4.4
					c-0.2-0.4-0.4-1.1-0.6-1.5c-0.4-0.8-0.6-1.9-0.8-2.7c-0.4-1.5-0.8-3-1.3-4.4c-0.4-1.7-0.6-3.4-0.8-4.9c0-2.1-0.2-4-0.2-5.7
					c-0.2-2.3-0.2-4.4,0-6.3c0.2-2.7,0.4-5.3,0.6-7.4c0.4-3.8,1.3-6.1,1.3-6.5l-1.1,1.1c0,0.4-0.6,2.7-1.3,6.5
					c-0.2,2.1-0.6,4.6-0.6,7.4c0,1.9,0,4.2,0,6.3c0,1.7,0.2,3.6,0.4,5.5c0.2,1.7,0.4,3.2,0.8,4.9c0.4,1.5,0.6,3,1.3,4.4
					c0.2,0.8,0.6,1.9,0.8,2.7c0.2,0.4,0.4,1.1,0.6,1.5c0.6,1.5,1.3,3,2.1,4.4l0,0c0.8,1.7,1.9,3.2,3,4.9c1.9,2.7,3.8,5.1,6.1,7.4
					c2.7,2.7,5.9,5.1,9.1,7.2c3,1.9,6.1,3.4,9.3,4.4c1.9,0.6,4,1.3,6.1,1.7c1.7,0.4,3.4,0.6,5.1,0.8l0,0c1.5,0.2,3,0.2,4.6,0.2l0,0
					c1.5,0,2.7,0,4.2-0.2c1.3-0.2,2.7-0.4,4-0.6c1.1-0.2,1.9-0.4,3-0.6l1.1-1.1c-1.1,0.2-1.9,0.4-3,0.6c-1.3,0.2-2.7,0.4-4,0.6
					C131.4,106.1,130.1,106.1,128.7,106.1L128.7,106.1z"/>
				<path class="st10" d="M82,74.6c9.1,24.5,35.2,37.1,57,31c-0.6,0.4-0.8,0.4-1.1,0.6c-1.3,0.6-1.3,0.6-1.5,0.6c0,0-0.2,0-0.2,0.2
					c-0.2,0-0.2,0.2-0.4,0.2s-0.2,0-0.2,0.2c-0.4,0.2-0.6,0.2-0.6,0.2c-0.2,0-0.2,0.2-0.4,0.2s-0.2,0-0.4,0.2c-0.2,0-0.2,0-0.4,0.2
					c-0.2,0-0.2,0.2-0.4,0.2s-0.4,0.2-0.4,0.2c-0.4,0.2-0.6,0.2-0.6,0.2H132c-0.2,0-0.4,0.2-0.6,0.2c-0.4,0-0.6,0.2-0.8,0.2
					c-17.3,4.2-38.6-5.3-48.5-22.6c0,0,0-0.2-0.2-0.2c0-0.2-0.2-0.2-0.2-0.4c0-0.2-0.2-0.2-0.2-0.4c0-0.2-0.2-0.2-0.2-0.4
					C81,85.2,81,85,81,85c-0.2-0.2-0.2-0.4-0.2-0.6c-0.2-0.2-0.2-0.4-0.2-0.6c-0.2-0.2-0.2-0.4-0.4-0.6c-0.2-0.6-0.4-1.1-0.6-1.5
					c-0.2-0.4-0.2-0.6-0.4-0.8c-0.2-0.4-0.2-0.6-0.4-0.8c-0.2-0.2-0.2-0.6-0.4-0.8C78,78.7,78,78.4,77.8,78s-0.2-0.6-0.4-1.1
					c0.2-0.2,0-0.4,0-0.6l-0.2-0.4v-0.2c0-0.2,0-0.2-0.2-0.4v-0.2c0-0.2,0-0.2-0.2-0.4v-0.2c0-0.2-0.2-0.4-0.2-0.6
					c-0.2-0.4-0.2-0.6-0.2-0.8c0-0.2-0.2-0.4-0.2-0.8s-0.2-0.6-0.2-0.8v-0.2c0-0.2,0-0.4-0.2-0.6v-0.2c0-0.2,0-0.4-0.2-0.4v-0.2
					c0-0.2,0-0.4-0.2-0.6v-0.2c0-0.2,0-0.4-0.2-0.6c-0.2-0.8-0.2-1.3-0.2-1.9V66c0-0.2,0-0.4,0-0.6v-0.2c0-0.2,0-0.4,0-0.6
					c0-0.2,0-0.2,0-0.4s0-0.4,0-0.6c0-0.2,0-0.2,0-0.4c0-0.2,0-0.4,0-0.6c0-0.2,0-0.2,0-0.4s0-0.4,0-0.6v-0.2c0-0.2,0-0.6,0-0.8
					c0-0.4,0-0.6,0-0.8v-0.2c0-0.2,0-0.4,0-0.6s0-0.2,0-0.4c0-0.2,0-0.4,0-0.6s0-0.2,0-0.4c0-0.2,0-0.4,0-0.6s0-0.2,0-0.4
					c0-0.2,0-0.4,0-0.6c0-0.2,0-0.2,0-0.4c0-0.2,0-0.4,0-0.6c0-0.2,0-0.2,0-0.4c0-0.4,0-0.6,0.2-1.1c0-0.4,0-0.6,0.2-1.1
					c0-0.2,0-0.2,0-0.4c0-0.2,0-0.4,0.2-0.6c0-0.2,0-0.2,0-0.4c0-0.2,0-0.4,0.2-0.6c0-0.2,0-0.2,0-0.4c0-0.2,0-0.4,0.2-0.6
					c0-0.2,0-0.2,0-0.4c0-0.2,0-0.4,0.2-0.6c0-0.2,0-0.2,0-0.4c0-0.2,0.2-0.4,0.2-0.6c0-0.2,0-0.2,0-0.4c0-0.4,0.2-0.6,0.2-1.1
					c1.7-5.3,3.8-8.7,4-8.9C80.1,37.5,75.1,56.1,82,74.6z"/>
			</g>
		</g>
		<g>
			<defs>
				<path id="SVGID_00000116230063412393095850000002744877814899150751_" d="M146.2,79.7c-0.8,25.5-22.2,45.4-47.7,44.5
					S53.1,102.1,54,76.5C54.8,51,76.1,31.2,101.7,32C127.2,32.9,147,54.4,146.2,79.7z"/>
			</defs>
			<clipPath id="SVGID_00000109005850484031064340000000821003641352011149_">
				<use xlink:href="#SVGID_00000116230063412393095850000002744877814899150751_"  style="overflow:visible;"/>
			</clipPath>
			<path style="clip-path:url(#SVGID_00000109005850484031064340000000821003641352011149_);fill:#E0E1E2;" d="M65.4,51.2
				c-14.8,12.7-2.3,30,17.9,55.1c9.9,12.2,13.7,17.7,15.4,23.6c0,0-1.5,0-2.5,0c-2.7,0-4-0.6-4-0.6s-6.8-10.3-13.9-18.8
				C64.7,94.7,43.4,70.6,59.7,54.6C61.1,53.3,63.3,52.1,65.4,51.2"/>
		</g>
	</g>
	<g id="cn_1_">
		<g>
			
				<linearGradient id="SVGID_00000175309479184124629460000000385612460437921202_" gradientUnits="userSpaceOnUse" x1="-111.3046" y1="-594.5612" x2="-81.0905" y2="-564.347" gradientTransform="matrix(0.955 -0.2967 -0.3261 -1.0498 12.529 -563.265)">
				<stop  offset="0" style="stop-color:#004F7E"/>
				<stop  offset="0.2" style="stop-color:#006B96"/>
				<stop  offset="0.62" style="stop-color:#8DCBE0"/>
				<stop  offset="0.85" style="stop-color:#009AC6"/>
				<stop  offset="1" style="stop-color:#004F7E"/>
			</linearGradient>
			<path style="fill:url(#SVGID_00000175309479184124629460000000385612460437921202_);" d="M131,103.1c-1.5,0-3,0-4.6-0.2
				c-1.7-0.2-3.4-0.4-5.1-0.8c-2.1-0.4-4-1.1-6.1-1.7c-3.2-1.1-6.3-2.5-9.3-4.4c-3.2-1.9-6.3-4.4-9.1-7.2c-2.3-2.3-4.2-4.6-6.1-7.4
				c-1.1-1.5-1.9-3-2.7-4.6v-0.4c-0.6-1.5-1.5-2.7-2.1-4.4c-0.2-0.4-0.4-1.1-0.6-1.5c-0.4-0.8-0.6-1.9-0.8-2.7
				c-0.4-1.5-0.8-3-1.3-4.4c-0.4-1.7-0.6-3.4-0.8-4.9c-0.2-1.9-0.4-3.8-0.4-5.5c-0.2-2.3-0.2-4.4,0-6.3c0.2-2.7,0.4-5.3,0.6-7.4
				c0.6-4,1.3-6.3,1.3-6.8l-1.1,1.1c0,0.4-0.6,2.7-1.3,6.5c-0.2,2.1-0.6,4.6-0.6,7.4c0,1.9,0,4.2,0,6.3c0,1.7,0.2,3.6,0.4,5.5
				c0.2,1.7,0.4,3.2,0.8,4.9c0.4,1.5,0.6,3,1.3,4.4c0.2,0.8,0.6,1.9,0.8,2.7c0.2,0.4,0.4,1.1,0.6,1.5c0.6,1.5,1.3,3,2.1,4.4l0,0
				c0.8,1.7,1.9,3.2,3,4.9c1.9,2.7,3.8,5.1,6.1,7.4c2.7,2.7,5.9,5.1,9.1,7.2c3,1.9,6.1,3.4,9.3,4.4c1.9,0.6,4,1.3,6.1,1.7
				c1.7,0.4,3.4,0.6,5.1,0.8l0,0c1.5,0.2,3,0.2,4.6,0.2l0,0c1.5,0,2.7,0,4.2-0.2c1.3-0.2,2.7-0.4,4-0.6c1.1-0.2,1.9-0.4,3-0.6
				l1.1-1.1c-1.1,0.2-1.9,0.4-3,0.6c-1.3,0.2-2.7,0.4-4,0.6C133.9,102.9,132.5,103.1,131,103.1L131,103.1z"/>
			
				<linearGradient id="SVGID_00000075143170488345395570000011153570073843522483_" gradientUnits="userSpaceOnUse" x1="-115.1215" y1="-597.9208" x2="-82.2578" y2="-565.0568" gradientTransform="matrix(0.955 -0.2967 -0.3261 -1.0498 12.529 -563.265)">
				<stop  offset="0" style="stop-color:#004F7E"/>
				<stop  offset="0.2" style="stop-color:#006B96"/>
				<stop  offset="0.62" style="stop-color:#8DCBE0"/>
				<stop  offset="0.85" style="stop-color:#009AC6"/>
				<stop  offset="1" style="stop-color:#004F7E"/>
			</linearGradient>
			<path style="fill:url(#SVGID_00000075143170488345395570000011153570073843522483_);" d="M84.4,71.7c9.1,24.5,35.2,37.1,57,31
				c-0.6,0.4-0.8,0.4-1.1,0.6c-1.3,0.4-1.3,0.4-1.3,0.4s-0.2,0-0.2,0.2c-0.2,0-0.2,0.2-0.4,0.2s-0.2,0-0.2,0.2
				c-0.4,0.2-0.6,0.2-0.6,0.2c-0.2,0-0.2,0.2-0.4,0.2s-0.2,0-0.4,0.2c-0.2,0-0.2,0-0.4,0.2c-0.2,0-0.2,0.2-0.4,0.2s-0.4,0.2-0.4,0.2
				c-0.4,0.2-0.6,0.2-0.6,0.2h-0.2c-0.2,0-0.4,0.2-0.6,0.2c-0.4,0-0.6,0.2-0.8,0.2c-17.7,4.6-38.8-4.6-48.7-21.9c0,0,0-0.2-0.2-0.2
				c0-0.2-0.2-0.2-0.2-0.4c0-0.2-0.2-0.2-0.2-0.4c0-0.2-0.2-0.2-0.2-0.4c-0.2-0.2-0.2-0.4-0.2-0.4c-0.2-0.2-0.2-0.4-0.2-0.6
				c-0.2-0.2-0.2-0.4-0.2-0.6c-0.2-0.2-0.2-0.4-0.4-0.6c-0.2-0.6-0.4-1.1-0.6-1.5c0-0.6-0.2-0.8-0.2-1.1c-0.2-0.4-0.2-0.6-0.4-0.8
				C81,77,81,76.5,80.8,76.3c-0.2-0.4-0.2-0.6-0.4-1.1c-0.2-0.4-0.2-0.6-0.4-1.1s-0.2-0.6-0.4-0.8L79.3,73v-0.2c0-0.2,0-0.2-0.2-0.4
				v-0.2c0-0.2,0-0.2-0.2-0.4v-0.2c0-0.2-0.2-0.4-0.2-0.6c-0.2-0.4-0.2-0.6-0.2-0.8s-0.2-0.4-0.2-0.8c0-0.4-0.2-0.6-0.2-0.8v-0.2
				c0-0.2,0-0.4-0.2-0.6v-0.2c0-0.2,0-0.4-0.2-0.4v-0.2c0-0.2,0-0.4-0.2-0.6v-0.2c0-0.2,0-0.4-0.2-0.6C77,64.3,77,63.9,77,63.3V63
				c0-0.2,0-0.4,0-0.6v-0.2c0-0.2,0-0.4,0-0.6c0-0.2,0-0.2,0-0.4c0-0.2,0-0.4,0-0.6c0-0.2,0-0.2,0-0.4s0-0.4,0-0.6s0-0.2,0-0.4
				c0-0.2,0-0.4,0-0.6v-0.2c0-0.2,0-0.6,0-0.8c0-0.4,0-0.6,0-0.8v-0.2c0-0.2,0-0.4,0-0.6s0-0.2,0-0.4c0-0.2,0-0.4,0-0.6s0-0.2,0-0.4
				c0-0.2,0-0.4,0-0.6s0-0.2,0-0.4c0-0.2,0-0.4,0-0.6c0-0.2,0-0.2,0-0.4c0-0.2,0-0.4,0-0.6c0-0.2,0-0.2,0-0.4c0-0.4,0-0.6,0.2-1.1
				c0.2-0.4,0.2-0.8,0.2-1.1c0-0.2,0-0.2,0-0.4c0-0.2,0-0.4,0.2-0.6c0-0.2,0-0.2,0-0.4c0-0.2,0-0.4,0.2-0.6c0-0.2,0-0.2,0-0.4
				c0-0.2,0-0.4,0.2-0.6c0-0.2,0-0.2,0-0.4c0-0.2,0-0.4,0.2-0.6c0-0.2,0-0.2,0-0.4s0.2-0.4,0.2-0.6s0-0.2,0-0.4
				c0-0.4,0.2-0.6,0.2-1.1c1.7-5.3,3.8-8.7,4-8.9C82.5,34.6,77.6,53.1,84.4,71.7z"/>
		</g>
		
			<radialGradient id="SVGID_00000132062859747104737200000014678584684830392510_" cx="607.4352" cy="215.608" r="86.1606" gradientTransform="matrix(0.9331 0 0 -0.9331 -462.625 322.7227)" gradientUnits="userSpaceOnUse">
			<stop  offset="0" style="stop-color:#4C4F53"/>
			<stop  offset="0.1431" style="stop-color:#505457"/>
			<stop  offset="0.3058" style="stop-color:#5E6164"/>
			<stop  offset="0.456" style="stop-color:#717377"/>
			<stop  offset="0.5272" style="stop-color:#75767A"/>
			<stop  offset="0.5922" style="stop-color:#808184"/>
			<stop  offset="0.6546" style="stop-color:#939295"/>
			<stop  offset="0.6978" style="stop-color:#A4A2A5"/>
			<stop  offset="0.7643" style="stop-color:#A09FA1"/>
			<stop  offset="0.8278" style="stop-color:#959497"/>
			<stop  offset="0.8901" style="stop-color:#828285"/>
			<stop  offset="0.9512" style="stop-color:#67696C"/>
			<stop  offset="1" style="stop-color:#4C4F53"/>
		</radialGradient>
		<path style="fill:url(#SVGID_00000132062859747104737200000014678584684830392510_);" d="M65.4,46.2c-14.8,12.7-2.3,30,17.9,55.1
			c9.9,12.2,13.7,17.7,15.4,23.6c0,0-1.5,0-2.5,0c-2.7,0-4-0.6-4-0.6s-6.8-10.3-13.9-18.8c-13.5-16-34.8-39.9-18.6-55.9
			C61.1,48.1,63.3,46.8,65.4,46.2"/>
	</g>
</g>
<g id="cataloguenetwork">
	<g id="catalogue">
		<path class="st0" d="M459.3,93.3c-3.8,0-9.2-0.4-13.4-5c-3.3-3.8-3.8-9.2-3.8-15.9c0-6.3,0.4-13,5-17.6c3.3-3.3,7.9-4.6,13-4.6
			h23.4V61h-15.9c-5.4,0-7.5,2.5-8.4,5.4c-0.4,1.7-0.8,3.3-0.8,5.9c0,5,0.8,6.7,1.3,7.5c2.1,3.3,6.3,2.9,8.8,2.9h15.9v10.9h-25.1
			V93.3z"/>
		<path class="st0" d="M519.1,50.2c5.4,0,8.8,1.7,10.9,3.8c3.8,3.3,4.2,8.8,4.2,12.1v18c0,2.1,0,5-2.1,7.1c-2.1,2.1-5,2.1-7.5,2.1
			H499c-2.5,0-5.4,0-7.9-2.1c-3.3-2.9-3.3-8.8-3.3-12.1c0-3.8,0.4-8.4,3.8-10.9c2.5-1.7,5-1.7,7.5-1.7h18.8v-0.8
			c0-0.8,0-2.1-0.8-2.9c-1.3-1.7-3.3-1.7-5-1.7h-21.7V50.2C490.3,50.2,519.1,50.2,519.1,50.2z M506.6,76.5c-0.4,0-1.7,0-2.5,0.8
			c-0.4,0.4-0.8,1.3-0.8,2.1c0,0.8,0,1.3,0.8,2.1c0.4,0.4,1.7,0.8,2.1,0.8h8.4c0.8,0,1.7,0,2.5-0.4c0.8-0.4,0.8-1.3,0.8-2.1v-2.5
			h-11.3V76.5z"/>
		<path class="st0" d="M561.4,93.3c-3.3,0-9.2,0-13.4-2.9c-3.8-2.5-5.4-6.7-5.4-10.5V61h-6.3V49.8h6.3V36h15.9v13.8H571V61h-12.5v10
			c0,3.3,0.4,6.7,2.9,8.8c2.1,2.1,5,2.1,7.1,2.1h2.5v11.7h-9.6V93.3z"/>
		<path class="st0" d="M603.6,50.2c5.4,0,8.8,1.7,10.9,3.8c3.8,3.3,4.2,8.8,4.2,12.1v18c0,2.1,0,5-2.1,7.1c-2.1,2.1-5,2.1-7.5,2.1
			h-25.5c-2.5,0-5.4,0-7.9-2.1c-3.3-2.9-3.3-8.8-3.3-12.1c0-3.8,0.4-8.4,3.8-10.9c2.5-1.7,5-1.7,7.5-1.7h18.8v-0.8
			c0-0.8,0-2.1-0.8-2.9c-1.3-1.7-3.3-1.7-5-1.7h-21.7V50.2C574.7,50.2,603.6,50.2,603.6,50.2z M591.1,76.5c-0.4,0-1.7,0-2.5,0.8
			c-0.4,0.4-0.8,1.3-0.8,2.1c0,0.8,0,1.3,0.8,2.1c0.4,0.4,1.7,0.8,2.1,0.8h8.4c0.8,0,1.7,0,2.5-0.4c0.8-0.4,0.8-1.3,0.8-2.1v-2.5
			h-11.3V76.5z"/>
		<path class="st0" d="M623.3,36h15.9v57.3h-15.9V36z"/>
		<path class="st0" d="M687.7,53.9c5.4,5,5.9,13.4,5.9,17.6c0,4.2-0.4,13-5.9,17.6c-4.6,4.2-12.5,4.6-19.2,4.6s-14.6-0.4-19.2-4.6
			c-5.4-5-5.9-13.4-5.9-17.6c0-4.2,0.4-13,5.9-17.6c4.6-4.2,12.5-4.6,19.2-4.6C675.1,49.3,683.1,49.8,687.7,53.9z M661.3,79.4
			c0.4,0.4,2.1,2.9,7.1,2.9c4.2,0,6.3-2.1,7.1-2.9c1.3-1.7,1.7-4.6,1.7-7.5c0-4.6-0.8-6.7-1.7-7.9c-0.8-1.3-2.5-2.9-7.1-2.9
			c-4.6,0-6.3,1.7-7.1,2.9c-0.4,0.8-1.7,2.5-1.7,7.9C659.6,76.5,660.5,78.6,661.3,79.4z"/>
		<path class="st0" d="M699.4,97.4h19.2c1.7,0,4.2,0,5.9-1.3c0.8-0.8,1.7-2.1,2.1-2.9h-13.8c-4.6,0-9.6-0.4-13-5.4
			c-2.5-3.8-3.3-8.8-3.3-16.3c0-8.4,1.3-12.5,4.6-16.3c3.3-3.8,7.1-5.4,13.8-5.4h18c2.5,0,5.4,0,7.5,2.1c2.1,1.7,2.5,4.6,2.5,6.7
			v30.1c0,5.9-0.8,10.5-3.3,13.8c-3.3,4.2-8.8,5.9-15.5,5.9h-24.3V97.4H699.4z M726.6,65.2c0-1.3,0-2.1-1.3-2.9
			c-0.8-0.4-1.7-0.8-2.5-0.8h-1.7c-2.1,0-4.6,0-6.3,2.5c-0.8,0.8-1.7,2.9-1.7,7.9c0,3.8,0.8,6.3,1.7,7.5c2.1,2.5,5,2.1,7.5,2.1h4.6
			V65.2H726.6z"/>
		<path class="st0" d="M763.4,50.2v21.7c0,4.2,0.8,6.3,1.7,7.5c1.7,2.5,5,2.5,6.7,2.5h2.9c1.3,0,2.1-0.4,2.9-0.8
			c0.8-0.8,0.8-1.7,0.8-2.5v-28h15.9v34.7c0,2.5-0.4,5-2.5,6.7c-2.1,1.7-5.4,2.1-7.1,2.1H765c-6.3,0-10-1.7-12.1-3.8
			c-4.6-3.8-5.4-9.6-5.4-15.9V50.6h15.9V50.2z"/>
		<path class="st0" d="M815.7,93.3c-6.3,0-12.1,0-15.5-5.4c-1.7-2.9-2.1-7.5-2.1-15.5c0-7.9-0.4-14.2,3.3-18.4
			c4.2-4.2,12.1-4.2,20.5-4.2c8.8,0,14.6,0,18,2.9c4.2,3.3,4.6,9.6,4.6,14.6c0,2.9,0,5.9-2.5,7.9c-1.3,1.3-2.9,1.3-4.2,1.3H814
			c0,1.3,0,2.5,0.8,3.3c1.3,2.1,4.2,2.1,7.1,2.1h20.9v11.7h-27.2V93.3z M826.1,66.1c2.1,0,2.5-1.7,2.5-2.1c0-1.3-0.4-2.5-2.9-2.9
			c-1.3-0.4-3.3-0.4-4.2-0.4c-1.7,0-4.6,0-5.4,0.8c-1.7,0.8-1.7,2.5-1.7,5h11.7V66.1z"/>
	</g>
	<g id="reseau_2_">
		<path class="st15" d="M214.6,64.8c0-4.6,0.4-8.4,3.8-11.3c1.7-1.7,5-3.3,10.5-3.3h2.9v3.8h-2.5c-2.5,0-5.9,0.4-8.4,2.9
			c-1.7,2.1-2.1,5.4-2.1,9.2v27.6h-4.2C214.6,93.7,214.6,64.8,214.6,64.8z"/>
		<g>
			<path class="st15" d="M248.5,93.3c-3.3,0-7.9-0.8-11.3-5.4c-3.3-4.2-3.3-9.6-3.3-16.3c0-5.9,0.4-13.4,5.9-18
				c3.8-3.3,9.2-3.8,13.4-3.8c2.9,0,7.5,0.4,10.9,2.5c1.7,1.3,7.1,4.6,7.1,13.8c0,1.3,0,4.2-1.7,5.9c-1.3,1.3-3.3,1.3-4.6,1.3h-26.3
				c0,2.5,0,6.7,0.8,8.8c0.8,3.3,3.8,7.5,9.6,7.5h21.3v3.8H248.5z M264.4,69c2.1,0,1.7-2.1,1.7-2.9c0-4.2-1.7-7.1-2.9-8.8
				c-2.9-3.8-7.5-3.8-11.3-3.8c-4.2,0-9.2,0-12.1,5.4c-1.7,2.9-2.1,5.9-2.1,10C237.6,69,264.4,69,264.4,69z"/>
			<path class="st15" d="M243.5,49.3c-1.7,0.4-2.9,1.3-4.2,2.1c-0.4,0.4-0.4,0.4-0.8,0.8c0,0,1.3-5.9,3.3-8.4
				c1.7-1.7,5-3.3,10.5-3.3h2.9v3.8h-2.5c-2.5,0-5.9,0.4-8.4,2.9C244.3,48.1,243.5,49.3,243.5,49.3z"/>
		</g>
		<path class="st15" d="M276.5,89.5h24.7c2.5,0,4.2-0.8,5-2.1c0.8-1.3,1.3-3.3,1.3-5c0-2.5-0.8-3.8-1.7-4.6c-1.3-1.3-3.8-2.1-10-3.3
			l-7.5-1.7c-6.7-1.7-9.2-3.8-10-5c-2.1-2.1-2.5-5-2.5-7.1c0-2.9,0.8-5,2.1-7.1c2.5-3.3,6.3-3.8,10.5-3.8h20.9v3.8h-22.6
			c-0.8,0-3.3,0-5,1.7c-1.7,1.7-1.7,4.2-1.7,5c0,1.7,0,4.2,1.7,5.4c1.7,1.7,5.9,2.5,7.5,2.9l7.9,1.7c5.4,1.3,9.2,2.1,11.7,4.2
			c2.5,2.1,2.9,4.6,2.9,7.5c0,2.9-0.4,7.1-3.8,9.2c-2.1,1.7-5,1.7-6.7,1.7h-25.1v-3.3H276.5z"/>
		<path class="st15" d="M332.2,93.3c-3.3,0-7.9-0.8-11.3-5.4c-3.3-4.2-3.3-9.6-3.3-16.3c0-5.9,0.4-13.4,5.9-18
			c3.8-3.3,9.2-3.8,13.4-3.8c2.9,0,7.5,0.4,10.9,2.5c1.7,1.3,7.1,4.6,7.1,13.8c0,1.3,0,4.2-1.7,5.9c-1.3,1.3-3.3,1.3-4.6,1.3h-26.3
			c0,2.5,0,6.7,0.8,8.8c0.8,3.3,3.8,7.5,9.6,7.5h21.3v3.8H332.2z M348.1,69c2.1,0,1.7-2.1,1.7-2.9c0-4.2-1.7-7.1-2.9-8.8
			c-2.9-3.8-7.5-3.8-11.3-3.8c-4.2,0-9.2,0-12.1,5.4c-1.7,2.9-2.1,5.9-2.1,10C321.3,69,348.1,69,348.1,69z"/>
		<path class="st15" d="M384,49.8c2.9,0,5.9,1.3,7.5,2.9c2.1,2.5,2.5,5.9,2.5,8.8v25.9c0,1.3,0,3.3-1.7,4.6c-1.3,1.3-3.3,1.3-5,1.3
			h-16.7c-2.5,0-5.4,0-7.9-2.1c-3.8-2.9-3.8-8.8-3.8-11.3c0-3.3,0.4-7.5,3.8-10c2.5-2.1,5.4-2.1,7.9-2.1h18.8v-6.3
			c0-1.3-0.4-3.8-1.7-5c-0.8-1.3-2.5-2.1-4.6-2.1h-20.9v-3.8H384V49.8z M369.8,71.1c-2.5,0-4.2,1.3-4.6,2.1
			c-1.3,1.3-1.3,3.8-1.3,6.7c0,2.5,0.4,5.9,1.7,7.5c0.8,1.3,2.5,1.7,4.2,1.7h17.6c0.4,0,1.3,0,1.7-0.4c0.4-0.4,0.4-0.8,0.4-1.7V70.7
			h-19.7V71.1z"/>
		<path class="st15" d="M434.6,92c-1.7,1.3-4.2,1.3-6.7,1.3h-11.7c-4.6,0-7.9-0.4-10.5-2.9c-3.3-2.9-3.8-7.5-3.8-10V50.2h4.2V79
			c0,4.6,0.8,6.7,1.7,7.5c1.7,2.5,5,2.9,8.8,2.9h12.1c1.3,0,2.1-0.4,2.9-0.8c0.8-0.8,0.8-2.1,0.8-2.5v-36h4.2v36.4
			C436.7,88.2,436.3,90.3,434.6,92z"/>
	</g>
</g>
</svg>
