<?xml version="1.0" encoding="utf-8"?>
<!-- Generator: Adobe Illustrator 22.0.1, SVG Export Plug-In . SVG Version: 6.00 Build 0)  -->
<svg version="1.1" id="LOGO_x27_S" xmlns="http://www.w3.org/2000/svg" xmlns:xlink="http://www.w3.org/1999/xlink" x="0px" y="0px"
	 width="205.213px" height="43.961px" viewBox="0 0 205.213 43.961" enable-background="new 0 0 205.213 43.961"
	 xml:space="preserve">
<g id="brand-sadvantage">
</g>
<g id="brand-se_1_">
</g>
<g id="brand-kn_1_">
</g>
<g id="brand-pn_1_">
</g>
<g id="brand-cn_1_">
	<g id="cn-bol">
		<g id="cn-globe">
			
				<radialGradient id="SVGID_1_" cx="592.5803" cy="-52.4565" r="19.3465" gradientTransform="matrix(0.8195 0 0 0.8195 -452.0326 52.5427)" gradientUnits="userSpaceOnUse">
				<stop  offset="0" style="stop-color:#FFFFFF"/>
				<stop  offset="1" style="stop-color:#E0E1E2"/>
			</radialGradient>
			<path fill="url(#SVGID_1_)" d="M42.483,22.537c0-11.733-9.51-21.243-21.243-21.243c-5.172,0-9.911,1.852-13.596,4.923
				l29.915,29.914C40.634,32.447,42.483,27.709,42.483,22.537z"/>
			
				<radialGradient id="SVGID_2_" cx="560.5682" cy="-21.9936" r="24.5948" gradientTransform="matrix(0.8195 0 0 0.8195 -452.0326 52.5427)" gradientUnits="userSpaceOnUse">
				<stop  offset="0" style="stop-color:#FFFFFF"/>
				<stop  offset="1" style="stop-color:#E0E1E2"/>
			</radialGradient>
			<path fill="url(#SVGID_2_)" d="M7.645,6.217C2.974,10.114,0,15.978,0,22.537c0,11.731,9.509,21.241,21.241,21.241
				c6.56,0,12.422-2.975,16.32-7.648L7.645,6.217z"/>
		</g>
		<g id="cn-shadow">
			<defs>
				<path id="SVGID_34_" d="M42.506,23.249c-0.41,11.723-10.246,20.897-21.969,20.486C8.811,43.325-0.36,33.489,0.048,21.764
					C0.458,10.04,10.293,0.868,22.019,1.277S42.916,11.523,42.506,23.249z"/>
			</defs>
			<clipPath id="SVGID_4_">
				<use xlink:href="#SVGID_34_"  overflow="visible"/>
			</clipPath>
			<g clip-path="url(#SVGID_4_)">
				<path fill="#F3F3F3" d="M23.73,42.512c-10.571-0.265-20.35-8.58-20.827-19.553c-0.361-8.288,4.79-15.5,4.79-15.5
					s-1.848,1.636-3.024,3.077c-5.887,7.231-3.832,15.95-3.512,17.365c1.855,8.222,9.955,14.615,18.476,14.912
					C22.008,42.896,23.73,42.512,23.73,42.512z"/>
				<g>
					<path fill="#EFF0F0" d="M15.21,1.946c-7.545,3.713-2.121,11.267,4.162,20.014c9.371,13.051,14.536,20.066,7.515,22.523
						c-1.144,0.398-2.327,0.557-2.931,0.674c6.637-1.96,2.732-7.624-4.09-16.866C11.054,16.357,5.325,6.235,12.329,2.822
						C13.141,2.427,14.122,2.091,15.21,1.946"/>
					<path fill="#EFF0F0" d="M15.201,1.92c-8.104,3.319-0.798,9.388,7.661,16.413C35.23,28.608,41.057,34.338,35.938,39.325
						c-1.199,1.168-1.998,1.575-2.43,1.886c5.225-4.872-0.141-9.653-12.657-20.362C12.336,13.566,5.533,6.165,12.354,2.872
						C13.165,2.479,13.975,2.151,15.201,1.92"/>
					<path fill="#EFF0F0" d="M25.134,1.642c-8.893-1.294-3.643,5.84-1.668,8.524c3.105,4.217,6.614,8.117,9.636,12.397
						c1.128,1.599,2.698,4.036,3.763,6.578c2.414,5.759,0.886,8.377-1.086,10.387c-0.642,0.651-0.798,0.742-0.798,0.742
						c-0.846,0.712-1.916,1.383-1.916,1.383c4.857-4.239,3.3-10.316-7.027-23.665C19.48,9.509,13.404,0.927,22.51,1.205
						C23.337,1.231,24.315,1.52,25.134,1.642"/>
				</g>
			</g>
		</g>
		<g id="cn">
			<g>
				<linearGradient id="SVGID_5_" gradientUnits="userSpaceOnUse" x1="7.2669" y1="33.8896" x2="21.1793" y2="19.9772">
					<stop  offset="0" style="stop-color:#00507E"/>
					<stop  offset="0.2" style="stop-color:#046B97"/>
					<stop  offset="0.62" style="stop-color:#8FCBE1"/>
					<stop  offset="0.85" style="stop-color:#059BC7"/>
					<stop  offset="1" style="stop-color:#00507E"/>
				</linearGradient>
				<path fill="url(#SVGID_5_)" d="M19.587,41.363c-0.672-0.19-1.334-0.413-1.983-0.665c-0.727-0.285-1.44-0.607-2.134-0.965
					c-0.835-0.433-1.644-0.916-2.418-1.448c-1.242-0.854-2.399-1.833-3.441-2.921c-1.152-1.202-2.166-2.535-3.007-3.979
					c-0.682-1.168-1.25-2.409-1.684-3.71c-0.253-0.758-0.435-1.403-0.594-2.2L4.3,25.345c-0.13-0.65-0.228-1.313-0.291-1.984
					c-0.021-0.227-0.039-0.454-0.052-0.682c-0.024-0.414-0.035-0.823-0.034-1.229c0.001-0.662,0.033-1.313,0.092-1.95
					c0.065-0.706,0.163-1.395,0.286-2.064c0.144-0.785,0.323-1.542,0.525-2.265c0.256-0.915,0.548-1.772,0.853-2.563
					c0.435-1.123,0.896-2.106,1.313-2.914C7.741,8.249,8.354,7.36,8.439,7.237L7.866,7.526C7.78,7.649,7.168,8.536,6.419,9.983
					c-0.419,0.809-0.879,1.793-1.313,2.914c-0.306,0.79-0.599,1.649-0.855,2.564c-0.202,0.722-0.38,1.478-0.525,2.265
					c-0.122,0.668-0.22,1.357-0.286,2.063c-0.059,0.637-0.091,1.288-0.092,1.95c-0.001,0.405,0.01,0.815,0.034,1.229
					c0.014,0.229,0.031,0.455,0.052,0.681c0.063,0.673,0.161,1.335,0.29,1.985l0.006,0.041c0.16,0.796,0.362,1.533,0.615,2.29
					c0.435,1.301,1.001,2.541,1.683,3.711c0.841,1.442,1.855,2.776,3.007,3.978c1.043,1.087,2.199,2.066,3.442,2.921
					c0.774,0.533,1.582,1.017,2.417,1.449c0.694,0.357,1.407,0.68,2.134,0.963l0,0c0.649,0.253,1.311,0.476,1.982,0.666l0.024,0.007
					c0.628,0.178,1.24,0.32,1.882,0.44c0.618,0.115,1.242,0.204,1.869,0.263c0.465,0.043,0.933,0.072,1.401,0.084l0.574-0.289
					c-0.468-0.012-0.935-0.041-1.401-0.085c-0.627-0.059-1.251-0.146-1.869-0.261c-0.643-0.121-1.264-0.267-1.892-0.444
					L19.587,41.363z"/>
				<linearGradient id="SVGID_6_" gradientUnits="userSpaceOnUse" x1="5.5132" y1="35.4404" x2="20.6466" y2="20.3071">
					<stop  offset="0" style="stop-color:#00507E"/>
					<stop  offset="0.2" style="stop-color:#046B97"/>
					<stop  offset="0.62" style="stop-color:#8FCBE1"/>
					<stop  offset="0.85" style="stop-color:#059BC7"/>
					<stop  offset="1" style="stop-color:#00507E"/>
				</linearGradient>
				<path fill="url(#SVGID_6_)" d="M3.383,22.968c0.636,10.93,10.393,19.213,20.807,19.479c-0.323,0.063-0.429,0.08-0.553,0.1
					c-0.637,0.087-0.674,0.092-0.712,0.095c-0.048,0.006-0.086,0.011-0.123,0.015c-0.083,0.008-0.13,0.013-0.177,0.018
					c-0.087,0.008-0.118,0.011-0.149,0.014c-0.255,0.02-0.286,0.021-0.317,0.024c-0.103,0.007-0.137,0.009-0.173,0.011
					c-0.096,0.006-0.133,0.009-0.169,0.01c-0.104,0.006-0.136,0.007-0.17,0.008c-0.116,0.005-0.148,0.007-0.18,0.007
					c-0.119,0.004-0.155,0.005-0.19,0.006c-0.217,0.005-0.286,0.005-0.355,0.005c-0.036,0.001-0.071,0.001-0.107,0.001
					c-0.094,0-0.19-0.001-0.286-0.003c-0.168-0.003-0.267-0.005-0.368-0.009C11.763,42.45,3.69,36.081,1.738,27.892
					c-0.007-0.031-0.016-0.066-0.024-0.104c-0.018-0.076-0.028-0.121-0.04-0.173c-0.012-0.05-0.024-0.105-0.036-0.163
					c-0.019-0.087-0.03-0.141-0.042-0.197c-0.021-0.103-0.034-0.167-0.047-0.231c-0.023-0.123-0.036-0.188-0.048-0.256
					c-0.023-0.125-0.036-0.2-0.049-0.277c-0.023-0.132-0.036-0.219-0.051-0.308c-0.038-0.247-0.066-0.446-0.092-0.653
					c-0.021-0.173-0.033-0.274-0.044-0.377c-0.02-0.186-0.032-0.296-0.042-0.408C1.21,24.606,1.2,24.491,1.191,24.374
					c-0.015-0.193-0.023-0.316-0.03-0.439c-0.011-0.194-0.017-0.328-0.023-0.463c-0.005-0.145-0.009-0.279-0.012-0.415l-0.003-0.192
					c-0.002-0.043-0.002-0.086-0.002-0.129c0-0.066,0-0.131,0-0.198c0-0.038,0-0.078,0-0.117c0-0.068,0-0.138,0.002-0.206
					c0.001-0.034,0.001-0.069,0.002-0.104c0.001-0.085,0.004-0.171,0.006-0.258c0.005-0.171,0.01-0.281,0.016-0.393
					c0.006-0.123,0.012-0.226,0.018-0.331c0.012-0.17,0.018-0.254,0.024-0.338c0.003-0.035,0.005-0.07,0.008-0.105
					c0.006-0.076,0.013-0.152,0.02-0.229c0.004-0.043,0.009-0.087,0.013-0.13c0.008-0.073,0.015-0.146,0.023-0.22
					c0.004-0.041,0.009-0.082,0.014-0.123c0.009-0.079,0.019-0.16,0.029-0.24c0.004-0.037,0.009-0.073,0.014-0.11
					c0.012-0.09,0.025-0.18,0.038-0.271c0.047-0.324,0.088-0.565,0.133-0.81c0.006-0.03,0.012-0.061,0.018-0.093
					c0.017-0.089,0.034-0.177,0.052-0.267c0.008-0.042,0.018-0.085,0.026-0.127c0.017-0.08,0.034-0.159,0.052-0.239
					c0.01-0.045,0.02-0.091,0.03-0.137c0.019-0.078,0.038-0.157,0.057-0.236c0.011-0.046,0.022-0.093,0.034-0.138
					c0.019-0.079,0.04-0.158,0.061-0.236c0.012-0.046,0.023-0.092,0.036-0.138c0.024-0.089,0.05-0.179,0.075-0.267
					c0.01-0.035,0.02-0.07,0.03-0.105c0.036-0.126,0.075-0.251,0.114-0.377c0.045-0.142,0.083-0.26,0.123-0.376
					c0.013-0.038,0.027-0.077,0.04-0.116c0.03-0.088,0.061-0.176,0.093-0.263c0.017-0.046,0.033-0.091,0.05-0.137
					c0.03-0.079,0.06-0.16,0.091-0.24c0.02-0.05,0.04-0.101,0.059-0.15c0.031-0.079,0.063-0.157,0.095-0.235
					c0.02-0.048,0.039-0.097,0.06-0.145c0.034-0.08,0.069-0.161,0.104-0.241c0.021-0.049,0.042-0.096,0.063-0.144
					c0.038-0.086,0.078-0.172,0.118-0.258c0.019-0.041,0.037-0.082,0.057-0.123c0.06-0.126,0.122-0.252,0.185-0.378
					c0.073-0.144,0.134-0.262,0.196-0.379c0.022-0.042,0.045-0.083,0.068-0.124c0.046-0.086,0.093-0.172,0.141-0.258
					c0.027-0.047,0.055-0.094,0.082-0.141c0.045-0.079,0.091-0.158,0.137-0.237c0.03-0.05,0.062-0.102,0.093-0.154
					c0.045-0.074,0.091-0.148,0.138-0.223c0.033-0.052,0.066-0.104,0.1-0.157c0.05-0.077,0.1-0.154,0.15-0.23
					c0.032-0.047,0.063-0.097,0.096-0.145c0.057-0.083,0.114-0.166,0.173-0.248c0.029-0.043,0.058-0.086,0.088-0.127
					c0.088-0.124,0.178-0.248,0.271-0.371C6.348,8.708,7.79,7.586,7.866,7.526C7.618,7.886,2.902,14.712,3.383,22.968z"/>
			</g>
			<g>
				
					<radialGradient id="SVGID_7_" cx="595.8032" cy="-12.8934" r="48.3216" gradientTransform="matrix(0.8245 0 0 0.8212 -461.6815 53.4507)" gradientUnits="userSpaceOnUse">
					<stop  offset="0" style="stop-color:#4C4F53"/>
					<stop  offset="0.1155" style="stop-color:#4F5255"/>
					<stop  offset="0.2472" style="stop-color:#585B5E"/>
					<stop  offset="0.3862" style="stop-color:#67696D"/>
					<stop  offset="0.456" style="stop-color:#717377"/>
					<stop  offset="0.5278" style="stop-color:#75767A"/>
					<stop  offset="0.5932" style="stop-color:#7F7F83"/>
					<stop  offset="0.656" style="stop-color:#919093"/>
					<stop  offset="0.6978" style="stop-color:#A4A2A5"/>
					<stop  offset="0.7651" style="stop-color:#9E9D9F"/>
					<stop  offset="0.8293" style="stop-color:#919092"/>
					<stop  offset="0.8922" style="stop-color:#7C7C7F"/>
					<stop  offset="0.9541" style="stop-color:#626467"/>
					<stop  offset="1" style="stop-color:#4C4F53"/>
				</radialGradient>
				<path fill="url(#SVGID_7_)" d="M15.256,0.996C7.8,4.979,13.521,12.353,20.143,20.891c9.881,12.741,15.321,19.587,8.347,22.292
					c-1.135,0.44-2.318,0.639-2.921,0.778c6.602-2.194,2.478-7.73-4.706-16.748C11.585,15.573,5.469,5.638,12.391,1.974
					C13.193,1.548,14.169,1.182,15.256,0.996"/>
				
					<radialGradient id="SVGID_8_" cx="608.5147" cy="-432.5732" r="48.2936" gradientTransform="matrix(0.7995 -0.1802 0.1807 0.8021 -374.4113 497.2765)" gradientUnits="userSpaceOnUse">
					<stop  offset="0" style="stop-color:#4C4F53;stop-opacity:0.85"/>
					<stop  offset="0.1155" style="stop-color:#4F5255;stop-opacity:0.888"/>
					<stop  offset="0.2472" style="stop-color:#585B5E;stop-opacity:0.9313"/>
					<stop  offset="0.3862" style="stop-color:#67696D;stop-opacity:0.977"/>
					<stop  offset="0.456" style="stop-color:#717377"/>
					<stop  offset="0.5278" style="stop-color:#75767A"/>
					<stop  offset="0.5932" style="stop-color:#7F7F83"/>
					<stop  offset="0.656" style="stop-color:#919093"/>
					<stop  offset="0.6978" style="stop-color:#A4A2A5"/>
					<stop  offset="0.7651" style="stop-color:#9E9D9F"/>
					<stop  offset="0.8293" style="stop-color:#919092"/>
					<stop  offset="0.8922" style="stop-color:#7C7C7F"/>
					<stop  offset="0.9541" style="stop-color:#626467"/>
					<stop  offset="1" style="stop-color:#4C4F53"/>
				</radialGradient>
				<path fill="url(#SVGID_8_)" d="M15.358,0.942c-7.83,3.555-0.435,9.418,8.127,16.207c12.519,9.924,18.448,15.492,13.611,20.628
					c-1.133,1.206-1.903,1.633-2.313,1.958c4.945-5.027-0.498-9.654-13.179-20.013C12.981,12.679,6.028,5.47,12.601,1.979
					C13.382,1.563,14.164,1.208,15.358,0.942"/>
				
					<radialGradient id="SVGID_9_" cx="587.474" cy="-11.914" r="48.289" gradientTransform="matrix(0.8195 0 0 0.8195 -452.0326 52.5427)" gradientUnits="userSpaceOnUse">
					<stop  offset="0" style="stop-color:#4C4F53"/>
					<stop  offset="0.1155" style="stop-color:#4F5255"/>
					<stop  offset="0.2472" style="stop-color:#585B5E"/>
					<stop  offset="0.3862" style="stop-color:#67696D"/>
					<stop  offset="0.456" style="stop-color:#717377"/>
					<stop  offset="0.5278" style="stop-color:#75767A"/>
					<stop  offset="0.5932" style="stop-color:#7F7F83"/>
					<stop  offset="0.656" style="stop-color:#919093"/>
					<stop  offset="0.6978" style="stop-color:#A4A2A5"/>
					<stop  offset="0.7651" style="stop-color:#9E9D9F"/>
					<stop  offset="0.8293" style="stop-color:#919092"/>
					<stop  offset="0.8922" style="stop-color:#7C7C7F"/>
					<stop  offset="0.9541" style="stop-color:#626467"/>
					<stop  offset="1" style="stop-color:#4C4F53"/>
				</radialGradient>
				<path fill="url(#SVGID_9_)" d="M25.105,0.345c-8.933-0.982-3.438,5.965-1.369,8.578c3.25,4.106,6.892,7.883,10.063,12.053
					c1.183,1.56,2.835,3.941,3.99,6.444c2.615,5.671,1.178,8.34-0.724,10.417c-0.619,0.677-0.771,0.771-0.771,0.771
					c-0.821,0.739-1.867,1.447-1.867,1.447c4.708-4.407,2.938-10.425-7.849-23.406C19.729,8.406,13.356,0.04,22.466,0
					C23.295-0.003,24.282,0.253,25.105,0.345"/>
			</g>
		</g>
	</g>
	<g id="catalogusnetwerk">
		<g id="catalogus_3_">
			<g id="catalogus_2_">
				<path fill="#1794D2" d="M55.281,36.382c-0.855,0-2.166-0.114-3.078-1.196c-0.778-0.912-0.893-2.166-0.893-3.705
					c0-1.463,0.076-3.039,1.121-4.122c0.778-0.817,1.843-1.045,3.039-1.045h5.415v2.546H57.2c-1.273,0-1.71,0.569-1.919,1.215
					c-0.133,0.399-0.171,0.817-0.171,1.33c0,1.159,0.209,1.577,0.304,1.748c0.456,0.74,1.425,0.684,1.995,0.684h3.686v2.546H55.281z
					"/>
				<path fill="#1794D2" d="M69.131,26.313c1.234,0,2.051,0.437,2.488,0.874c0.836,0.816,0.95,2.014,0.95,2.83v4.218
					c0,0.532-0.038,1.14-0.494,1.614c-0.476,0.494-1.14,0.532-1.71,0.532h-5.927c-0.627,0-1.312-0.038-1.843-0.532
					c-0.779-0.703-0.817-2.032-0.817-2.83c0-0.874,0.076-1.938,0.874-2.546c0.551-0.418,1.197-0.437,1.786-0.437h4.407v-0.152
					c0-0.171-0.02-0.438-0.19-0.665c-0.285-0.38-0.76-0.399-1.14-0.399h-5.054v-2.507H69.131z M66.206,32.431
					c-0.114,0-0.38,0.019-0.551,0.171c-0.134,0.133-0.152,0.304-0.152,0.475c0,0.152,0.019,0.305,0.152,0.438
					c0.133,0.113,0.342,0.17,0.513,0.17h1.938c0.19,0,0.437-0.037,0.551-0.133c0.171-0.133,0.19-0.322,0.19-0.494v-0.626H66.206z"/>
				<path fill="#1794D2" d="M78.917,36.382c-0.741,0-2.09,0-3.116-0.685c-0.836-0.569-1.272-1.557-1.272-2.469v-4.332h-1.425v-2.583
					h1.425v-3.23h3.724v3.23h2.868v2.583h-2.868v2.299c0,0.741,0.095,1.519,0.646,2.014c0.514,0.456,1.159,0.475,1.634,0.475h0.551
					v2.698H78.917z"/>
				<path fill="#1794D2" d="M88.778,26.313c1.234,0,2.051,0.437,2.488,0.874c0.836,0.816,0.95,2.014,0.95,2.83v4.218
					c0,0.532-0.038,1.14-0.494,1.614c-0.476,0.494-1.14,0.532-1.71,0.532h-5.927c-0.627,0-1.312-0.038-1.843-0.532
					c-0.779-0.703-0.817-2.032-0.817-2.83c0-0.874,0.076-1.938,0.874-2.546c0.551-0.418,1.197-0.437,1.786-0.437h4.407v-0.152
					c0-0.171-0.02-0.438-0.19-0.665c-0.285-0.38-0.76-0.399-1.14-0.399h-5.054v-2.507H88.778z M85.852,32.431
					c-0.114,0-0.38,0.019-0.551,0.171c-0.134,0.133-0.152,0.304-0.152,0.475c0,0.152,0.019,0.305,0.152,0.438
					c0.133,0.113,0.342,0.17,0.513,0.17h1.938c0.19,0,0.437-0.037,0.551-0.133c0.171-0.133,0.19-0.322,0.19-0.494v-0.626H85.852z"/>
				<path fill="#1794D2" d="M93.357,23.084h3.723v13.298h-3.723V23.084z"/>
				<path fill="#1794D2" d="M108.29,27.225c1.254,1.121,1.329,3.116,1.329,4.123c0,1.007-0.075,3.002-1.329,4.122
					c-1.103,0.97-2.888,1.026-4.483,1.026c-1.596,0-3.382-0.057-4.483-1.026c-1.254-1.12-1.33-3.115-1.33-4.122
					c0-1.007,0.076-3.002,1.33-4.123c1.102-0.969,2.888-1.025,4.483-1.025C105.402,26.199,107.187,26.256,108.29,27.225z
					 M102.153,33.114c0.076,0.114,0.514,0.685,1.653,0.685c1.007,0,1.463-0.438,1.634-0.685c0.304-0.418,0.38-1.045,0.38-1.767
					c0-1.064-0.171-1.539-0.361-1.805c-0.189-0.247-0.627-0.647-1.652-0.647c-1.026,0-1.463,0.4-1.653,0.647
					c-0.133,0.189-0.36,0.627-0.36,1.805C101.792,32.449,102.001,32.905,102.153,33.114z"/>
				<path fill="#1794D2" d="M111.007,37.369h4.483c0.398,0,0.987,0.02,1.367-0.266c0.209-0.171,0.381-0.455,0.438-0.722h-3.211
					c-1.063,0-2.223-0.076-3.001-1.272c-0.551-0.855-0.779-2.053-0.779-3.8c0-1.956,0.285-2.926,1.026-3.78
					c0.76-0.892,1.614-1.216,3.191-1.216h4.142c0.589,0,1.272,0.038,1.767,0.456c0.513,0.437,0.589,1.082,0.589,1.52v6.973
					c0,1.329-0.152,2.412-0.798,3.21c-0.76,0.969-2.033,1.329-3.571,1.329h-5.643V37.369z M117.295,29.809
					c0-0.266-0.038-0.475-0.285-0.646c-0.19-0.134-0.398-0.152-0.589-0.152h-0.418c-0.532,0-1.102,0.038-1.501,0.552
					c-0.171,0.209-0.398,0.664-0.398,1.88c0,0.894,0.151,1.425,0.418,1.729c0.475,0.551,1.178,0.512,1.71,0.512h1.063V29.809z"/>
				<path fill="#1794D2" d="M125.884,26.313v5.015c0,0.95,0.152,1.426,0.361,1.728c0.418,0.59,1.14,0.627,1.577,0.627h0.684
					c0.304,0,0.513-0.075,0.646-0.209c0.19-0.189,0.19-0.418,0.19-0.607v-6.554h3.724v8.017c0,0.57-0.076,1.14-0.627,1.596
					c-0.514,0.418-1.216,0.456-1.634,0.456h-4.559c-1.425,0-2.299-0.418-2.812-0.854c-1.045-0.855-1.272-2.204-1.272-3.724v-5.49
					H125.884z"/>
				<path fill="#1794D2" d="M134.092,33.684h5.49c0.057,0,0.171-0.037,0.227-0.075c0.058-0.038,0.096-0.095,0.096-0.19
					c0-0.133-0.096-0.189-0.172-0.228c-0.133-0.076-0.342-0.134-1.14-0.399l-2.165-0.703c-0.912-0.303-1.691-0.702-2.071-1.329
					c-0.285-0.476-0.38-1.196-0.38-1.69c0-0.627,0.114-1.273,0.475-1.805c0.532-0.799,1.292-0.95,2.337-0.95h6.726v2.583h-5.472
					c-0.133,0-0.285-0.018-0.436,0.02c-0.096,0.019-0.171,0.038-0.171,0.171c0,0.151,0.095,0.19,0.209,0.228
					c0.455,0.152,0.322,0.133,0.76,0.285l2.545,0.855c1.064,0.36,1.843,0.664,2.318,1.367c0.475,0.684,0.513,1.501,0.513,1.938
					c0,0.741-0.152,1.596-0.836,2.146c-0.532,0.418-1.14,0.476-1.652,0.476h-7.2V33.684z"/>
			</g>
		</g>
		<g id="netwerk_8_">
			<g id="netwerk_9_">
				<path fill="#4C4F53" d="M144.662,27.622c0-0.266,0.018-0.665,0.227-0.931c0.266-0.342,0.684-0.38,0.988-0.38h3.609
					c0.949,0,1.729,0.133,2.336,0.741c0.305,0.304,0.779,0.949,0.779,2.336v6.991h-0.988v-6.744c0-0.855-0.095-1.367-0.437-1.805
					c-0.418-0.531-0.987-0.627-1.634-0.627h-3.571c-0.095,0-0.209,0-0.266,0.076c-0.058,0.076-0.058,0.229-0.058,0.304v8.796h-0.987
					V27.622z"/>
				<path fill="#4C4F53" d="M157.601,36.38c-0.817,0-1.881-0.209-2.66-1.234c-0.779-1.007-0.816-2.28-0.816-3.762
					c0-1.405,0.075-3.115,1.349-4.18c0.912-0.76,2.146-0.893,3.153-0.893c0.703,0,1.748,0.095,2.564,0.57
					c0.399,0.247,1.615,1.083,1.615,3.191c0,0.285-0.02,0.969-0.418,1.31c-0.305,0.266-0.779,0.304-1.064,0.304h-6.136
					c-0.019,0.589,0.019,1.521,0.171,2.052c0.228,0.817,0.912,1.748,2.242,1.748h4.938v0.892H157.601z M161.323,30.795
					c0.437,0,0.418-0.532,0.418-0.665c0-0.987-0.342-1.652-0.684-2.052c-0.722-0.854-1.71-0.874-2.603-0.874
					c-1.007,0-2.09,0.038-2.793,1.216c-0.399,0.665-0.456,1.387-0.475,2.375H161.323z"/>
				<path fill="#4C4F53" d="M168.069,36.38c-0.855,0-1.805,0.038-2.432-0.589c-0.627-0.608-0.684-1.596-0.684-2.792v-5.795h-1.387
					v-0.893h1.387v-3.229h0.987v3.229h2.773v0.893h-2.773v5.586c0,0.854-0.057,2.014,0.57,2.45c0.228,0.152,0.665,0.247,1.785,0.247
					h0.532v0.892H168.069z"/>
				<path fill="#4C4F53" d="M171.698,35.202c0.038,0.133,0.114,0.304,0.209,0.304c0.114,0,0.171-0.227,0.189-0.284l2.147-8.188
					c0.189-0.702,0.607-0.836,0.911-0.836c0.305,0,0.723,0.134,0.912,0.836l2.146,8.188c0.02,0.057,0.076,0.284,0.19,0.284
					c0.095,0,0.171-0.171,0.209-0.304l2.261-8.891h0.987l-2.47,9.347c-0.113,0.437-0.342,0.836-0.969,0.836
					c-0.74,0-0.949-0.57-1.025-0.854l-2.09-7.865c-0.019-0.114-0.076-0.342-0.152-0.342c-0.075,0-0.133,0.227-0.151,0.342
					l-2.09,7.865c-0.076,0.284-0.285,0.854-1.026,0.854c-0.626,0-0.855-0.399-0.969-0.836l-2.47-9.347h0.988L171.698,35.202z"/>
				<path fill="#4C4F53" d="M185.721,36.38c-0.817,0-1.881-0.209-2.66-1.234c-0.778-1.007-0.816-2.28-0.816-3.762
					c0-1.405,0.075-3.115,1.349-4.18c0.912-0.76,2.147-0.893,3.153-0.893c0.703,0,1.748,0.095,2.564,0.57
					c0.399,0.247,1.615,1.083,1.615,3.191c0,0.285-0.02,0.969-0.418,1.31c-0.305,0.266-0.779,0.304-1.064,0.304h-6.136
					c-0.019,0.589,0.018,1.521,0.171,2.052c0.228,0.817,0.912,1.748,2.242,1.748h4.939v0.892H185.721z M189.443,30.795
					c0.438,0,0.418-0.532,0.418-0.665c0-0.987-0.342-1.652-0.684-2.052c-0.722-0.854-1.71-0.874-2.603-0.874
					c-1.007,0-2.09,0.038-2.793,1.216c-0.399,0.665-0.456,1.387-0.475,2.375H189.443z"/>
				<path fill="#4C4F53" d="M192.446,29.77c0-1.026,0.133-1.919,0.893-2.641c0.418-0.399,1.121-0.817,2.47-0.817h0.684v0.893h-0.607
					c-0.551,0-1.387,0.058-1.938,0.703c-0.418,0.513-0.513,1.273-0.513,2.09v6.383h-0.987V29.77z"/>
				<path fill="#4C4F53" d="M197.253,36.38V23.082h0.987V36.38H197.253z M203.845,36.38l-4.085-3.761
					c-0.227-0.209-0.778-0.761-0.778-1.444c0-0.551,0.304-0.969,0.798-1.443l3.647-3.42h1.33l-4.37,4.104
					c-0.266,0.266-0.342,0.551-0.342,0.722c0,0.342,0.267,0.703,0.532,0.95l4.636,4.293H203.845z"/>
			</g>
		</g>
	</g>
</g>
<g id="brand-esn_1_">
</g>
<g id="brand-osn_1_">
</g>
</svg>
