<?xml version="1.0" encoding="utf-8"?>
<!-- Generator: Adobe Illustrator 22.0.1, SVG Export Plug-In . SVG Version: 6.00 Build 0)  -->
<svg version="1.1" id="LOGO_x27_S" xmlns="http://www.w3.org/2000/svg" xmlns:xlink="http://www.w3.org/1999/xlink" x="0px" y="0px"
	 width="205.213px" height="43.961px" viewBox="0 0 205.213 43.961" enable-background="new 0 0 205.213 43.961"
	 xml:space="preserve">
<g id="brand-sadvantage">
</g>
<g id="brand-se_1_">
</g>
<g id="brand-kn_1_">
</g>
<g id="brand-pn_1_">
</g>
<g id="brand-cn_1_">
	<g>
		<path fill="#FFFFFF" d="M21.605,19.723c-2.516-2.055-4.887-4.124-6.825-6.111c1.49,2.283,3.384,4.729,5.363,7.279
			c8.16,10.521,13.282,17.019,10.896,20.488c1.951-1.017,3.723-2.327,5.261-3.874C37.946,33.209,32.406,28.545,21.605,19.723z"/>
		<path fill="#FFFFFF" d="M20.444,1.329c-1.217,1.893,1.858,5.783,3.292,7.593c3.25,4.105,6.892,7.883,10.063,12.053
			c1.183,1.56,2.835,3.941,3.99,6.444c1.306,2.833,1.601,4.916,1.332,6.551c2.118-3.303,3.362-7.219,3.362-11.434
			c0-11.733-9.51-21.243-21.243-21.243C20.972,1.294,20.71,1.32,20.444,1.329z"/>
		<path fill="#FFFFFF" d="M23.486,17.149c3.834,3.039,7.046,5.669,9.524,8.003c-1.608-2.456-3.739-5.263-6.432-8.503
			c-5.101-6.138-9.932-12.342-8.307-15.128c-1.96,0.275-3.832,0.812-5.582,1.584c-0.242,0.333-0.441,0.678-0.587,1.037
			C11.44,7.594,17.139,12.117,23.486,17.149z"/>
		<path fill="#FFFFFF" d="M20.862,27.213C13.317,17.746,7.863,9.406,9.814,4.651C9.061,5.133,8.33,5.646,7.645,6.217
			C2.974,10.114,0,15.977,0,22.537c0,11.731,9.509,21.241,21.241,21.241c2.319,0,4.547-0.378,6.635-1.065
			C30.831,39.985,26.944,34.847,20.862,27.213z M23.637,42.546c-0.637,0.087-0.674,0.092-0.712,0.095
			c-0.048,0.006-0.086,0.011-0.123,0.015c-0.083,0.008-0.13,0.013-0.177,0.018c-0.087,0.008-0.118,0.011-0.15,0.014
			c-0.255,0.02-0.286,0.021-0.317,0.024c-0.103,0.007-0.137,0.009-0.173,0.011c-0.096,0.006-0.133,0.009-0.169,0.01
			c-0.104,0.006-0.136,0.007-0.17,0.008c-0.116,0.005-0.148,0.007-0.18,0.007c-0.119,0.004-0.155,0.005-0.19,0.006
			c-0.217,0.005-0.286,0.005-0.355,0.005c-0.036,0.001-0.071,0.001-0.107,0.001c-0.094,0-0.19-0.001-0.286-0.003
			c-0.168-0.003-0.267-0.005-0.368-0.009C11.763,42.45,3.69,36.081,1.738,27.892c-0.007-0.031-0.016-0.067-0.024-0.105
			c-0.018-0.076-0.028-0.121-0.04-0.173c-0.012-0.05-0.024-0.106-0.036-0.163c-0.019-0.087-0.03-0.141-0.042-0.197
			c-0.021-0.103-0.034-0.167-0.047-0.231c-0.023-0.123-0.036-0.188-0.048-0.256c-0.023-0.125-0.036-0.2-0.049-0.277
			c-0.023-0.132-0.036-0.219-0.051-0.308c-0.038-0.247-0.066-0.446-0.092-0.653c-0.021-0.173-0.033-0.273-0.044-0.377
			c-0.021-0.186-0.032-0.296-0.042-0.408C1.21,24.606,1.2,24.491,1.191,24.374c-0.015-0.193-0.023-0.316-0.03-0.44
			c-0.011-0.194-0.017-0.328-0.023-0.463c-0.005-0.144-0.009-0.279-0.012-0.415l-0.003-0.192c-0.001-0.043-0.001-0.086-0.002-0.129
			c0-0.066,0-0.131,0-0.198c0-0.038,0-0.078,0-0.117c0-0.068,0-0.138,0.002-0.206c0-0.034,0-0.069,0.002-0.104
			c0.001-0.085,0.004-0.171,0.006-0.258c0.005-0.171,0.01-0.281,0.016-0.393c0.006-0.123,0.012-0.227,0.018-0.331
			c0.012-0.17,0.018-0.254,0.024-0.338c0.003-0.035,0.005-0.07,0.008-0.106c0.006-0.076,0.013-0.152,0.02-0.229
			c0.004-0.043,0.009-0.087,0.013-0.13c0.008-0.073,0.015-0.146,0.023-0.22c0.004-0.041,0.009-0.082,0.014-0.123
			c0.009-0.079,0.018-0.16,0.029-0.24c0.004-0.037,0.009-0.073,0.014-0.11c0.012-0.09,0.025-0.18,0.038-0.271
			c0.047-0.324,0.088-0.565,0.133-0.81c0.006-0.03,0.012-0.062,0.018-0.093c0.017-0.089,0.034-0.177,0.052-0.267
			c0.008-0.042,0.018-0.085,0.026-0.127c0.017-0.08,0.034-0.159,0.052-0.239c0.01-0.045,0.02-0.091,0.03-0.137
			c0.019-0.078,0.038-0.157,0.057-0.236c0.011-0.046,0.022-0.093,0.034-0.138c0.019-0.079,0.04-0.158,0.061-0.236
			c0.012-0.046,0.023-0.092,0.036-0.138c0.024-0.089,0.05-0.179,0.075-0.267c0.01-0.035,0.02-0.07,0.03-0.105
			c0.036-0.126,0.075-0.251,0.114-0.377c0.045-0.143,0.083-0.26,0.123-0.376c0.013-0.038,0.027-0.077,0.04-0.116
			c0.03-0.088,0.061-0.176,0.093-0.263c0.017-0.046,0.033-0.091,0.05-0.137c0.03-0.079,0.06-0.16,0.091-0.24
			c0.02-0.05,0.04-0.101,0.059-0.15c0.031-0.079,0.063-0.157,0.095-0.235c0.02-0.048,0.039-0.097,0.06-0.145
			c0.034-0.08,0.069-0.161,0.104-0.241c0.021-0.049,0.042-0.096,0.063-0.144c0.038-0.086,0.078-0.172,0.118-0.258
			c0.018-0.041,0.037-0.082,0.057-0.123c0.06-0.126,0.122-0.252,0.185-0.378c0.073-0.144,0.134-0.262,0.196-0.379
			c0.022-0.042,0.045-0.083,0.068-0.124c0.046-0.086,0.093-0.172,0.141-0.258c0.027-0.047,0.055-0.094,0.082-0.141
			c0.045-0.079,0.091-0.158,0.137-0.237c0.03-0.05,0.062-0.103,0.093-0.154c0.045-0.074,0.091-0.148,0.138-0.223
			c0.033-0.052,0.066-0.104,0.1-0.157c0.05-0.077,0.1-0.154,0.15-0.23c0.032-0.047,0.063-0.097,0.096-0.145
			c0.057-0.083,0.114-0.166,0.173-0.248c0.029-0.043,0.058-0.086,0.088-0.127c0.088-0.124,0.178-0.248,0.271-0.371
			C6.348,8.708,7.79,7.586,7.866,7.526l0.574-0.289C8.355,7.36,7.741,8.249,6.993,9.694c-0.418,0.809-0.878,1.791-1.313,2.914
			c-0.305,0.791-0.598,1.648-0.854,2.563c-0.202,0.723-0.381,1.479-0.525,2.265c-0.123,0.669-0.22,1.357-0.286,2.064
			c-0.059,0.638-0.091,1.288-0.092,1.95c-0.001,0.405,0.01,0.815,0.034,1.229c0.013,0.228,0.031,0.455,0.052,0.682
			c0.063,0.672,0.161,1.334,0.291,1.984l0.026,0.131c0.16,0.797,0.341,1.442,0.594,2.2c0.434,1.301,1.002,2.542,1.684,3.71
			c0.841,1.443,1.855,2.776,3.007,3.979c1.043,1.088,2.199,2.066,3.441,2.921c0.774,0.532,1.582,1.016,2.418,1.448
			c0.694,0.358,1.406,0.68,2.134,0.965c0.649,0.252,1.311,0.475,1.983,0.665l0.015,0.004c0.628,0.178,1.249,0.323,1.892,0.444
			c0.618,0.114,1.242,0.202,1.869,0.261c0.466,0.044,0.933,0.073,1.401,0.085l-0.574,0.289
			C23.867,42.509,23.761,42.526,23.637,42.546z"/>
	</g>
	<g id="catalogus_1_">
		<g id="catalogus_4_">
			<path fill="#FFFFFF" d="M55.281,36.382c-0.855,0-2.166-0.114-3.078-1.196c-0.778-0.912-0.893-2.166-0.893-3.705
				c0-1.463,0.076-3.039,1.121-4.122c0.778-0.817,1.843-1.045,3.039-1.045h5.415v2.546H57.2c-1.273,0-1.71,0.569-1.919,1.215
				c-0.133,0.399-0.171,0.817-0.171,1.33c0,1.159,0.209,1.577,0.304,1.748c0.456,0.74,1.425,0.684,1.995,0.684h3.686v2.546H55.281z"
				/>
			<path fill="#FFFFFF" d="M69.131,26.313c1.234,0,2.051,0.437,2.488,0.874c0.836,0.816,0.95,2.014,0.95,2.83v4.218
				c0,0.532-0.038,1.14-0.494,1.614c-0.476,0.494-1.14,0.532-1.71,0.532h-5.927c-0.627,0-1.312-0.038-1.843-0.532
				c-0.779-0.703-0.817-2.032-0.817-2.83c0-0.874,0.076-1.938,0.874-2.546c0.551-0.418,1.197-0.437,1.786-0.437h4.407v-0.152
				c0-0.171-0.02-0.438-0.19-0.665c-0.285-0.38-0.76-0.399-1.14-0.399h-5.054v-2.507H69.131z M66.206,32.431
				c-0.114,0-0.38,0.019-0.551,0.171c-0.134,0.133-0.152,0.304-0.152,0.475c0,0.152,0.019,0.305,0.152,0.438
				c0.133,0.113,0.342,0.17,0.513,0.17h1.938c0.19,0,0.437-0.037,0.551-0.133c0.171-0.133,0.19-0.322,0.19-0.494v-0.626H66.206z"/>
			<path fill="#FFFFFF" d="M78.917,36.382c-0.741,0-2.09,0-3.116-0.685c-0.836-0.569-1.272-1.557-1.272-2.469v-4.332h-1.425v-2.583
				h1.425v-3.229h3.724v3.229h2.868v2.583h-2.868v2.299c0,0.741,0.095,1.52,0.646,2.014c0.514,0.456,1.159,0.475,1.634,0.475h0.551
				v2.698H78.917z"/>
			<path fill="#FFFFFF" d="M88.778,26.313c1.234,0,2.051,0.437,2.488,0.874c0.836,0.816,0.95,2.014,0.95,2.83v4.218
				c0,0.532-0.038,1.14-0.494,1.614c-0.476,0.494-1.14,0.532-1.71,0.532h-5.927c-0.627,0-1.312-0.038-1.843-0.532
				c-0.779-0.703-0.817-2.032-0.817-2.83c0-0.874,0.076-1.938,0.874-2.546c0.551-0.418,1.197-0.437,1.786-0.437h4.407v-0.152
				c0-0.171-0.02-0.438-0.19-0.665c-0.285-0.38-0.76-0.399-1.14-0.399h-5.054v-2.507H88.778z M85.852,32.431
				c-0.114,0-0.38,0.019-0.551,0.171c-0.134,0.133-0.152,0.304-0.152,0.475c0,0.152,0.019,0.305,0.152,0.438
				c0.133,0.113,0.342,0.17,0.513,0.17h1.938c0.19,0,0.437-0.037,0.551-0.133c0.171-0.133,0.19-0.322,0.19-0.494v-0.626H85.852z"/>
			<path fill="#FFFFFF" d="M93.357,23.084h3.723v13.298h-3.723V23.084z"/>
			<path fill="#FFFFFF" d="M108.29,27.225c1.254,1.121,1.329,3.116,1.329,4.123c0,1.007-0.075,3.002-1.329,4.122
				c-1.103,0.97-2.888,1.026-4.483,1.026c-1.596,0-3.382-0.057-4.483-1.026c-1.254-1.12-1.33-3.115-1.33-4.122
				c0-1.007,0.076-3.002,1.33-4.123c1.102-0.969,2.888-1.025,4.483-1.025C105.402,26.199,107.187,26.256,108.29,27.225z
				 M102.153,33.114c0.076,0.114,0.514,0.685,1.653,0.685c1.007,0,1.463-0.438,1.634-0.685c0.304-0.418,0.38-1.045,0.38-1.767
				c0-1.064-0.171-1.539-0.361-1.805c-0.189-0.247-0.627-0.646-1.652-0.646c-1.026,0-1.463,0.399-1.653,0.646
				c-0.133,0.19-0.36,0.627-0.36,1.805C101.792,32.449,102.001,32.905,102.153,33.114z"/>
			<path fill="#FFFFFF" d="M111.007,37.369h4.483c0.398,0,0.987,0.02,1.367-0.266c0.209-0.171,0.381-0.455,0.438-0.722h-3.211
				c-1.063,0-2.223-0.076-3.001-1.273c-0.551-0.855-0.779-2.053-0.779-3.8c0-1.956,0.285-2.926,1.026-3.78
				c0.76-0.892,1.614-1.216,3.191-1.216h4.142c0.589,0,1.272,0.038,1.767,0.456c0.513,0.436,0.589,1.082,0.589,1.519v6.973
				c0,1.329-0.152,2.412-0.798,3.21c-0.76,0.969-2.033,1.329-3.571,1.329h-5.643V37.369z M117.295,29.809
				c0-0.266-0.038-0.475-0.285-0.646c-0.19-0.134-0.398-0.152-0.589-0.152h-0.418c-0.532,0-1.102,0.038-1.501,0.552
				c-0.171,0.209-0.398,0.664-0.398,1.88c0,0.894,0.151,1.425,0.418,1.729c0.475,0.551,1.178,0.512,1.71,0.512h1.063V29.809z"/>
			<path fill="#FFFFFF" d="M125.884,26.313v5.015c0,0.95,0.152,1.426,0.361,1.728c0.418,0.59,1.14,0.627,1.577,0.627h0.684
				c0.304,0,0.513-0.075,0.646-0.209c0.19-0.19,0.19-0.418,0.19-0.608v-6.554h3.724v8.017c0,0.57-0.076,1.14-0.627,1.596
				c-0.514,0.418-1.216,0.456-1.634,0.456h-4.559c-1.425,0-2.299-0.418-2.812-0.854c-1.045-0.856-1.272-2.204-1.272-3.724v-5.49
				H125.884z"/>
			<path fill="#FFFFFF" d="M134.092,33.683h5.49c0.057,0,0.171-0.037,0.227-0.075c0.058-0.038,0.096-0.095,0.096-0.19
				c0-0.133-0.096-0.189-0.172-0.228c-0.133-0.076-0.342-0.134-1.14-0.399l-2.165-0.703c-0.912-0.303-1.691-0.702-2.071-1.329
				c-0.285-0.476-0.38-1.196-0.38-1.69c0-0.627,0.114-1.273,0.475-1.805c0.532-0.799,1.292-0.95,2.337-0.95h6.726v2.583h-5.472
				c-0.133,0-0.285-0.019-0.436,0.02c-0.096,0.019-0.171,0.038-0.171,0.171c0,0.151,0.095,0.19,0.209,0.227
				c0.455,0.152,0.322,0.133,0.76,0.285l2.545,0.855c1.064,0.36,1.843,0.664,2.318,1.367c0.475,0.684,0.513,1.501,0.513,1.938
				c0,0.741-0.152,1.596-0.836,2.146c-0.532,0.418-1.14,0.476-1.652,0.476h-7.2V33.683z"/>
		</g>
	</g>
	<g id="netwerk_11_">
		<g id="netwerk_14_">
			<path fill="#FFFFFF" d="M144.662,27.622c0-0.266,0.018-0.665,0.227-0.931c0.266-0.342,0.684-0.38,0.988-0.38h3.609
				c0.949,0,1.729,0.133,2.336,0.741c0.305,0.304,0.779,0.949,0.779,2.336v6.991h-0.988v-6.744c0-0.854-0.095-1.367-0.437-1.805
				c-0.418-0.531-0.987-0.627-1.634-0.627h-3.571c-0.095,0-0.209,0-0.266,0.076c-0.058,0.076-0.058,0.229-0.058,0.304v8.796h-0.987
				V27.622z"/>
			<path fill="#FFFFFF" d="M157.601,36.38c-0.817,0-1.881-0.209-2.66-1.234c-0.779-1.007-0.816-2.28-0.816-3.762
				c0-1.405,0.075-3.115,1.349-4.18c0.912-0.76,2.146-0.893,3.153-0.893c0.703,0,1.748,0.095,2.564,0.57
				c0.399,0.247,1.615,1.083,1.615,3.191c0,0.285-0.02,0.969-0.418,1.31c-0.305,0.266-0.779,0.304-1.064,0.304h-6.136
				c-0.019,0.589,0.019,1.521,0.171,2.052c0.228,0.817,0.912,1.748,2.242,1.748h4.938v0.892H157.601z M161.323,30.795
				c0.437,0,0.418-0.532,0.418-0.665c0-0.987-0.342-1.652-0.684-2.052c-0.722-0.854-1.71-0.874-2.603-0.874
				c-1.007,0-2.09,0.038-2.793,1.216c-0.399,0.665-0.456,1.387-0.475,2.375H161.323z"/>
			<path fill="#FFFFFF" d="M168.069,36.38c-0.855,0-1.805,0.038-2.432-0.589c-0.627-0.608-0.684-1.596-0.684-2.792v-5.795h-1.387
				v-0.893h1.387v-3.229h0.987v3.229h2.773v0.893h-2.773v5.586c0,0.854-0.057,2.014,0.57,2.45c0.228,0.152,0.665,0.247,1.785,0.247
				h0.532v0.892H168.069z"/>
			<path fill="#FFFFFF" d="M171.698,35.202c0.038,0.133,0.114,0.304,0.209,0.304c0.114,0,0.171-0.227,0.189-0.284l2.147-8.188
				c0.189-0.702,0.607-0.836,0.911-0.836c0.305,0,0.723,0.134,0.912,0.836l2.146,8.188c0.02,0.057,0.076,0.284,0.19,0.284
				c0.095,0,0.171-0.171,0.209-0.304l2.261-8.891h0.987l-2.47,9.347c-0.113,0.437-0.342,0.836-0.969,0.836
				c-0.74,0-0.949-0.57-1.025-0.854l-2.09-7.865c-0.019-0.114-0.076-0.342-0.152-0.342c-0.075,0-0.133,0.228-0.151,0.342
				l-2.09,7.865c-0.076,0.284-0.285,0.854-1.026,0.854c-0.626,0-0.855-0.399-0.969-0.836l-2.47-9.347h0.988L171.698,35.202z"/>
			<path fill="#FFFFFF" d="M185.721,36.38c-0.817,0-1.881-0.209-2.66-1.234c-0.778-1.007-0.816-2.28-0.816-3.762
				c0-1.405,0.075-3.115,1.349-4.18c0.912-0.76,2.147-0.893,3.153-0.893c0.703,0,1.748,0.095,2.564,0.57
				c0.399,0.247,1.615,1.083,1.615,3.191c0,0.285-0.02,0.969-0.418,1.31c-0.305,0.266-0.779,0.304-1.064,0.304h-6.136
				c-0.019,0.589,0.018,1.521,0.171,2.052c0.228,0.817,0.912,1.748,2.242,1.748h4.939v0.892H185.721z M189.443,30.795
				c0.438,0,0.418-0.532,0.418-0.665c0-0.987-0.342-1.652-0.684-2.052c-0.722-0.854-1.71-0.874-2.603-0.874
				c-1.007,0-2.09,0.038-2.793,1.216c-0.399,0.665-0.456,1.387-0.475,2.375H189.443z"/>
			<path fill="#FFFFFF" d="M192.446,29.77c0-1.026,0.133-1.919,0.893-2.641c0.418-0.399,1.121-0.817,2.47-0.817h0.684v0.893h-0.607
				c-0.551,0-1.387,0.058-1.938,0.703c-0.418,0.513-0.513,1.273-0.513,2.09v6.383h-0.987V29.77z"/>
			<path fill="#FFFFFF" d="M197.253,36.38V23.082h0.987V36.38H197.253z M203.845,36.38l-4.085-3.761
				c-0.227-0.209-0.778-0.761-0.778-1.444c0-0.551,0.304-0.969,0.798-1.443l3.647-3.42h1.33l-4.37,4.104
				c-0.266,0.266-0.342,0.551-0.342,0.722c0,0.342,0.267,0.703,0.532,0.95l4.636,4.293H203.845z"/>
		</g>
	</g>
</g>
<g id="brand-esn_1_">
</g>
<g id="brand-osn_1_">
</g>
</svg>
