<?xml version="1.0" encoding="utf-8"?>
<!-- Generator: Adobe Illustrator 22.0.1, SVG Export Plug-In . SVG Version: 6.00 Build 0)  -->
<svg version="1.1" id="LOGO_x27_S" xmlns="http://www.w3.org/2000/svg" xmlns:xlink="http://www.w3.org/1999/xlink" x="0px" y="0px"
	 width="205.213px" height="43.961px" viewBox="0 0 205.213 43.961" enable-background="new 0 0 205.213 43.961"
	 xml:space="preserve">
<g id="brand-sadvantage">
</g>
<g id="brand-se_1_">
</g>
<g id="brand-kn_1_">
</g>
<g id="brand-pn_1_">
</g>
<g id="brand-esn_1_">
</g>
<g>
	<path fill="#FFFFFF" d="M21.306,19.773c-2.482-2.027-4.82-4.067-6.73-6.026c1.469,2.252,3.338,4.663,5.288,7.178
		c8.038,10.365,13.088,16.77,10.752,20.194c1.917-1,3.664-2.277,5.176-3.795C37.434,33.083,31.969,28.484,21.306,19.773z"/>
	<path fill="#FFFFFF" d="M23.16,17.235c3.78,2.997,6.948,5.589,9.391,7.892c-1.586-2.422-3.686-5.188-6.341-8.384
		C21.183,10.694,16.422,4.58,18.015,1.83c-1.929,0.271-3.775,0.792-5.497,1.55c-0.241,0.331-0.439,0.673-0.584,1.03
		C11.283,7.814,16.902,12.273,23.16,17.235z"/>
	<path fill="#FFFFFF" d="M20.156,1.641c-1.189,1.868,1.838,5.698,3.25,7.482c3.204,4.049,6.797,7.774,9.924,11.886
		c1.166,1.538,2.796,3.887,3.934,6.355c1.289,2.796,1.58,4.852,1.313,6.465c2.089-3.258,3.316-7.123,3.316-11.281
		c0-11.569-9.378-20.947-20.947-20.947C20.68,1.601,20.421,1.631,20.156,1.641z"/>
	<path fill="#FFFFFF" d="M20.574,27.16C13.131,17.822,7.752,9.597,9.68,4.908C3.865,8.631,0,15.132,0,22.548
		c0,11.569,9.378,20.947,20.947,20.947c2.293,0,4.493-0.381,6.558-1.062C30.392,39.739,26.561,34.676,20.574,27.16z M7.757,7.746
		l0.566-0.285C8.239,7.582,7.635,8.459,6.897,9.884c-0.412,0.798-0.866,1.766-1.295,2.874c-0.301,0.78-0.59,1.626-0.842,2.528
		c-0.199,0.712-0.376,1.459-0.518,2.233c-0.122,0.66-0.218,1.339-0.282,2.035c-0.058,0.629-0.09,1.27-0.091,1.923
		c-0.002,0.4,0.009,0.804,0.033,1.212c0.013,0.224,0.03,0.449,0.051,0.672c0.063,0.663,0.158,1.316,0.287,1.957l0.027,0.129
		c0.157,0.786,0.337,1.423,0.586,2.17c0.428,1.283,0.988,2.507,1.66,3.659c0.83,1.423,1.83,2.738,2.966,3.923
		c1.029,1.072,2.169,2.037,3.394,2.88c0.763,0.525,1.56,1.001,2.384,1.428c0.684,0.353,1.387,0.67,2.104,0.951
		c0.64,0.249,1.293,0.468,1.955,0.656l0.017,0.003c0.619,0.175,1.231,0.319,1.865,0.438c0.609,0.113,1.224,0.199,1.843,0.257
		c0.459,0.044,0.919,0.072,1.381,0.084l-0.566,0.285c-0.027-0.001-0.053-0.004-0.079-0.005c0.026,0.001,0.052,0.005,0.078,0.006
		c-0.319,0.062-0.423,0.079-0.546,0.098c-0.628,0.086-0.665,0.09-0.702,0.093c-0.048,0.006-0.084,0.011-0.121,0.014
		c-0.082,0.008-0.128,0.013-0.175,0.017c-0.086,0.008-0.116,0.011-0.147,0.014c-0.251,0.019-0.282,0.021-0.313,0.024
		c-0.101,0.007-0.135,0.009-0.171,0.011c-0.095,0.006-0.131,0.009-0.167,0.01c-0.103,0.006-0.134,0.007-0.168,0.008
		c-0.115,0.005-0.146,0.007-0.178,0.007c-0.117,0.004-0.153,0.005-0.188,0.006c-0.214,0.005-0.282,0.005-0.35,0.005
		c-0.036,0.001-0.07,0.001-0.105,0.001c-0.092,0-0.187-0.001-0.282-0.003c-0.165-0.003-0.263-0.005-0.363-0.009
		C11.6,42.186,3.639,35.905,1.714,27.829c-0.007-0.031-0.015-0.066-0.024-0.103c-0.018-0.075-0.028-0.119-0.039-0.171
		c-0.012-0.049-0.024-0.104-0.036-0.161c-0.019-0.086-0.03-0.139-0.041-0.194c-0.021-0.101-0.033-0.165-0.046-0.228
		c-0.023-0.121-0.036-0.185-0.048-0.252c-0.023-0.123-0.035-0.197-0.048-0.274c-0.023-0.13-0.036-0.216-0.05-0.303
		c-0.037-0.244-0.065-0.44-0.091-0.644c-0.021-0.171-0.033-0.27-0.044-0.372c-0.02-0.184-0.031-0.292-0.041-0.403
		c-0.012-0.135-0.022-0.248-0.031-0.364c-0.014-0.191-0.023-0.312-0.03-0.433c-0.011-0.192-0.017-0.324-0.023-0.456
		c-0.005-0.142-0.009-0.275-0.012-0.409l-0.003-0.19c-0.001-0.042-0.001-0.085-0.002-0.127c0-0.065,0-0.129,0-0.195
		c0-0.038,0-0.077,0-0.116c0-0.067,0-0.136,0.002-0.203c0-0.034,0-0.068,0.001-0.103c0.001-0.084,0.004-0.169,0.006-0.254
		c0.005-0.169,0.01-0.277,0.015-0.387c0.006-0.121,0.012-0.223,0.017-0.326c0.012-0.168,0.017-0.25,0.024-0.333
		c0.002-0.035,0.005-0.069,0.008-0.104c0.006-0.075,0.013-0.15,0.02-0.226c0.004-0.042,0.009-0.086,0.013-0.128
		c0.008-0.072,0.014-0.144,0.023-0.217c0.004-0.04,0.009-0.081,0.014-0.121c0.009-0.078,0.018-0.158,0.028-0.237
		c0.004-0.037,0.009-0.072,0.013-0.109c0.012-0.089,0.025-0.177,0.038-0.267c0.047-0.32,0.087-0.558,0.131-0.798
		c0.006-0.03,0.012-0.061,0.018-0.092c0.016-0.088,0.033-0.174,0.051-0.263c0.008-0.041,0.017-0.084,0.026-0.125
		c0.016-0.079,0.034-0.157,0.051-0.236c0.01-0.044,0.02-0.09,0.03-0.135c0.018-0.077,0.037-0.155,0.056-0.233
		c0.011-0.045,0.022-0.092,0.034-0.136c0.019-0.078,0.04-0.156,0.06-0.233c0.012-0.045,0.023-0.091,0.036-0.136
		c0.024-0.088,0.049-0.176,0.074-0.263c0.01-0.035,0.019-0.069,0.029-0.104c0.036-0.124,0.074-0.248,0.113-0.372
		c0.044-0.141,0.082-0.256,0.121-0.371c0.013-0.038,0.027-0.076,0.04-0.115c0.03-0.087,0.06-0.173,0.091-0.259
		c0.016-0.045,0.033-0.09,0.049-0.135c0.029-0.078,0.059-0.158,0.09-0.237c0.019-0.049,0.039-0.099,0.058-0.148
		c0.03-0.078,0.062-0.155,0.094-0.232c0.02-0.047,0.039-0.095,0.059-0.143c0.034-0.079,0.068-0.159,0.103-0.238
		c0.021-0.048,0.041-0.094,0.062-0.142c0.038-0.085,0.077-0.17,0.117-0.254c0.018-0.04,0.037-0.081,0.056-0.121
		c0.059-0.124,0.12-0.249,0.183-0.373c0.072-0.142,0.132-0.258,0.194-0.374c0.022-0.041,0.045-0.082,0.067-0.122
		c0.046-0.085,0.092-0.169,0.139-0.254c0.027-0.046,0.054-0.092,0.08-0.139c0.045-0.078,0.09-0.156,0.135-0.234
		c0.03-0.049,0.061-0.101,0.092-0.152c0.044-0.073,0.09-0.145,0.136-0.22c0.032-0.051,0.065-0.103,0.098-0.155
		c0.049-0.076,0.098-0.152,0.148-0.227c0.032-0.046,0.063-0.095,0.094-0.143c0.056-0.082,0.113-0.164,0.17-0.245
		c0.029-0.042,0.057-0.085,0.087-0.125c0.087-0.122,0.176-0.245,0.267-0.366c1.393-1.859,2.815-2.965,2.89-3.024"/>
</g>
<path fill="#FFFFFF" d="M54.514,36.202c-0.844,0-2.136-0.113-3.035-1.18c-0.768-0.899-0.88-2.136-0.88-3.654
	c0-1.443,0.075-2.997,1.106-4.065c0.768-0.806,1.817-1.031,2.997-1.031h5.34v2.511h-3.634c-1.256,0-1.686,0.562-1.892,1.198
	c-0.131,0.394-0.169,0.806-0.169,1.312c0,1.143,0.206,1.555,0.299,1.724c0.45,0.73,1.405,0.674,1.967,0.674h3.635v2.511H54.514z"/>
<path fill="#FFFFFF" d="M68.173,26.273c1.217,0,2.022,0.431,2.454,0.862c0.824,0.805,0.937,1.986,0.937,2.791v4.159
	c0,0.525-0.038,1.124-0.487,1.592c-0.469,0.487-1.124,0.525-1.686,0.525h-5.845c-0.618,0-1.293-0.038-1.817-0.525
	c-0.768-0.693-0.806-2.004-0.806-2.791c0-0.862,0.075-1.911,0.862-2.511c0.543-0.412,1.181-0.43,1.761-0.43h4.346v-0.15
	c0-0.169-0.019-0.431-0.188-0.656c-0.281-0.375-0.749-0.394-1.124-0.394h-4.984v-2.472C61.596,26.273,68.173,26.273,68.173,26.273z
	 M65.288,32.305c-0.113,0-0.375,0.018-0.543,0.169c-0.132,0.131-0.15,0.299-0.15,0.468c0,0.15,0.018,0.3,0.15,0.431
	c0.131,0.112,0.337,0.168,0.506,0.168h1.911c0.188,0,0.431-0.037,0.543-0.131c0.169-0.131,0.188-0.318,0.188-0.487v-0.617
	L65.288,32.305L65.288,32.305z"/>
<path fill="#FFFFFF" d="M77.823,36.202c-0.731,0-2.061,0-3.073-0.675c-0.824-0.561-1.255-1.535-1.255-2.434V28.82H72.09v-2.547
	h1.405v-3.185h3.672v3.185h2.828v2.547h-2.828v2.267c0,0.731,0.093,1.498,0.637,1.986c0.507,0.45,1.143,0.468,1.611,0.468h0.543
	v2.661C79.958,36.202,77.823,36.202,77.823,36.202z"/>
<path fill="#FFFFFF" d="M87.547,26.273c1.217,0,2.022,0.431,2.454,0.862c0.824,0.805,0.937,1.986,0.937,2.791v4.159
	c0,0.525-0.038,1.124-0.487,1.592c-0.469,0.487-1.124,0.525-1.686,0.525H82.92c-0.618,0-1.293-0.038-1.817-0.525
	c-0.769-0.693-0.806-2.004-0.806-2.791c0-0.862,0.075-1.911,0.862-2.511c0.543-0.412,1.181-0.43,1.761-0.43h4.346v-0.15
	c0-0.169-0.019-0.431-0.188-0.656c-0.281-0.375-0.749-0.394-1.124-0.394H80.97v-2.472C80.97,26.273,87.547,26.273,87.547,26.273z
	 M84.662,32.305c-0.113,0-0.375,0.018-0.543,0.169c-0.132,0.131-0.15,0.299-0.15,0.468c0,0.15,0.018,0.3,0.15,0.431
	c0.131,0.112,0.337,0.168,0.506,0.168h1.911c0.188,0,0.43-0.037,0.543-0.131c0.169-0.131,0.188-0.318,0.188-0.487v-0.617
	L84.662,32.305L84.662,32.305z"/>
<path fill="#FFFFFF" d="M92.063,23.088h3.671v13.114h-3.671V23.088z"/>
<path fill="#FFFFFF" d="M106.788,27.171c1.237,1.106,1.311,3.073,1.311,4.066s-0.074,2.96-1.311,4.065
	c-1.087,0.956-2.848,1.012-4.421,1.012c-1.574,0-3.335-0.056-4.421-1.012c-1.237-1.105-1.312-3.072-1.312-4.065
	c0-0.993,0.075-2.96,1.312-4.066c1.086-0.955,2.848-1.011,4.421-1.011C103.941,26.16,105.701,26.216,106.788,27.171z
	 M100.737,32.979c0.075,0.113,0.507,0.675,1.63,0.675c0.993,0,1.443-0.431,1.611-0.675c0.299-0.412,0.375-1.03,0.375-1.742
	c0-1.05-0.169-1.518-0.356-1.78c-0.187-0.244-0.618-0.638-1.629-0.638c-1.012,0-1.443,0.394-1.63,0.638
	c-0.131,0.187-0.355,0.618-0.355,1.78C100.381,32.324,100.588,32.773,100.737,32.979z"/>
<path fill="#FFFFFF" d="M109.469,37.175h4.421c0.393,0,0.974,0.019,1.348-0.262c0.206-0.169,0.376-0.449,0.431-0.712h-3.166
	c-1.049,0-2.192-0.075-2.959-1.255c-0.543-0.844-0.768-2.024-0.768-3.747c0-1.929,0.281-2.885,1.012-3.728
	c0.749-0.88,1.592-1.199,3.147-1.199h4.084c0.581,0,1.255,0.038,1.742,0.45c0.506,0.43,0.581,1.067,0.581,1.498v6.876
	c0,1.311-0.15,2.379-0.787,3.165c-0.749,0.955-2.005,1.311-3.522,1.311h-5.564C109.469,39.572,109.469,37.175,109.469,37.175z
	 M115.67,29.72c0-0.262-0.038-0.468-0.281-0.637c-0.187-0.132-0.393-0.15-0.581-0.15h-0.412c-0.525,0-1.086,0.038-1.48,0.544
	c-0.169,0.206-0.393,0.655-0.393,1.854c0,0.881,0.149,1.405,0.412,1.706c0.468,0.543,1.161,0.505,1.686,0.505h1.049V29.72z"/>
<path fill="#FFFFFF" d="M124.139,26.273v4.945c0,0.937,0.15,1.406,0.356,1.705c0.412,0.582,1.124,0.618,1.555,0.618h0.674
	c0.299,0,0.506-0.074,0.637-0.206c0.188-0.187,0.188-0.412,0.188-0.599v-6.463h3.672v7.905c0,0.562-0.075,1.124-0.618,1.574
	c-0.507,0.412-1.199,0.45-1.611,0.45h-4.496c-1.405,0-2.267-0.412-2.773-0.843c-1.03-0.844-1.255-2.174-1.255-3.672v-5.414
	C120.468,26.273,124.139,26.273,124.139,26.273z"/>
<path fill="#FFFFFF" d="M136.152,36.202c-1.48,0-2.736,0-3.523-1.293c-0.43-0.711-0.506-1.76-0.506-3.559
	c0-1.816-0.093-3.296,0.806-4.214c0.918-0.937,2.81-0.975,4.683-0.975c2.004,0,3.316,0.038,4.103,0.674
	c0.955,0.768,1.068,2.249,1.068,3.335c0,0.637-0.038,1.367-0.6,1.817c-0.318,0.262-0.637,0.281-0.974,0.281h-5.414
	c-0.018,0.262,0.038,0.599,0.169,0.805c0.319,0.507,0.993,0.468,1.649,0.468h4.814v2.661
	C142.427,36.202,136.152,36.202,136.152,36.202z M138.512,29.945c0.524,0,0.599-0.337,0.599-0.525c0-0.263-0.131-0.561-0.674-0.675
	c-0.299-0.056-0.787-0.074-0.975-0.074c-0.431,0-1.011,0.018-1.274,0.169c-0.375,0.206-0.43,0.599-0.393,1.106h2.717V29.945z"/>
<path fill="#FFFFFF" d="M144.233,27.791c0-0.262,0.018-0.657,0.224-0.919c0.262-0.337,0.674-0.374,0.975-0.374h3.559
	c0.936,0,1.705,0.131,2.304,0.73c0.3,0.3,0.768,0.936,0.768,2.304v6.895h-0.975v-6.651c0-0.844-0.093-1.35-0.43-1.78
	c-0.412-0.526-0.974-0.618-1.611-0.618h-3.522c-0.093,0-0.206,0-0.262,0.075c-0.057,0.075-0.057,0.223-0.057,0.299v8.675h-0.974
	L144.233,27.791L144.233,27.791z"/>
<path fill="#FFFFFF" d="M156.992,36.427c-0.806,0-1.855-0.206-2.623-1.219c-0.768-0.992-0.805-2.248-0.805-3.708
	c0-1.387,0.074-3.074,1.33-4.122c0.9-0.749,2.117-0.88,3.11-0.88c0.693,0,1.724,0.092,2.529,0.561
	c0.394,0.245,1.593,1.069,1.593,3.147c0,0.281-0.019,0.955-0.412,1.294c-0.3,0.262-0.768,0.299-1.05,0.299h-6.051
	c-0.018,0.582,0.018,1.499,0.169,2.024c0.224,0.805,0.899,1.722,2.211,1.722h4.87v0.882H156.992z M160.663,30.919
	c0.431,0,0.412-0.524,0.412-0.655c0-0.975-0.337-1.631-0.674-2.024c-0.712-0.844-1.686-0.861-2.566-0.861
	c-0.993,0-2.061,0.037-2.754,1.198c-0.393,0.657-0.45,1.367-0.468,2.342C154.613,30.919,160.663,30.919,160.663,30.919z"/>
<path fill="#FFFFFF" d="M167.316,36.427c-0.843,0-1.78,0.037-2.398-0.582c-0.618-0.599-0.674-1.574-0.674-2.754v-5.713h-1.367v-0.88
	h1.367v-3.186h0.974v3.186h2.735v0.88h-2.735v5.507c0,0.844-0.056,1.986,0.562,2.417c0.224,0.15,0.656,0.243,1.76,0.243h0.525v0.882
	C168.065,36.427,167.316,36.427,167.316,36.427z"/>
<path fill="#FFFFFF" d="M170.894,35.266c0.038,0.131,0.113,0.299,0.206,0.299c0.113,0,0.169-0.225,0.187-0.281l2.118-8.074
	c0.187-0.693,0.599-0.824,0.899-0.824s0.713,0.131,0.899,0.824l2.117,8.074c0.019,0.056,0.075,0.281,0.188,0.281
	c0.093,0,0.169-0.168,0.206-0.299l2.229-8.767h0.974l-2.435,9.216c-0.112,0.431-0.337,0.824-0.955,0.824
	c-0.73,0-0.936-0.562-1.011-0.844l-2.061-7.756c-0.018-0.112-0.075-0.337-0.15-0.337c-0.074,0-0.131,0.225-0.149,0.337l-2.061,7.756
	c-0.075,0.281-0.281,0.844-1.012,0.844c-0.617,0-0.843-0.393-0.955-0.824l-2.435-9.216h0.975L170.894,35.266z"/>
<path fill="#FFFFFF" d="M182.529,27.471c0.975-0.955,2.417-1.086,3.672-1.086c1.256,0,2.698,0.131,3.672,1.086
	c1.086,1.069,1.237,2.829,1.237,3.935c0,2.153-0.599,3.372-1.237,4.008c-1.086,1.069-2.791,1.125-3.672,1.125
	c-0.88,0-2.585-0.056-3.672-1.125c-0.637-0.636-1.236-1.855-1.236-4.008C181.294,30.3,181.443,28.54,182.529,27.471z
	 M183.148,34.703c0.787,0.861,2.043,0.955,3.054,0.955c1.012,0,2.267-0.094,3.054-0.955c0.824-0.9,0.806-2.398,0.806-3.203
	c0-0.863,0-2.436-0.787-3.317c-0.768-0.844-2.136-0.919-3.073-0.919c-0.936,0-2.304,0.075-3.072,0.919
	c-0.787,0.88-0.787,2.454-0.787,3.317C182.343,32.305,182.324,33.804,183.148,34.703z"/>
<path fill="#FFFFFF" d="M192.61,29.907c0-1.011,0.131-1.893,0.88-2.604c0.412-0.393,1.106-0.805,2.435-0.805h0.674v0.88H196
	c-0.543,0-1.367,0.056-1.912,0.693c-0.412,0.505-0.506,1.254-0.506,2.061v6.294h-0.974v-6.519H192.61z"/>
<path fill="#FFFFFF" d="M197.35,36.427V23.313h0.974v13.114C198.324,36.427,197.35,36.427,197.35,36.427z M203.851,36.427
	l-4.028-3.71c-0.224-0.206-0.768-0.749-0.768-1.423c0-0.545,0.299-0.957,0.787-1.425l3.597-3.371h1.312l-4.31,4.045
	c-0.262,0.264-0.337,0.545-0.337,0.713c0,0.337,0.263,0.693,0.525,0.936l4.571,4.235H203.851z"/>
</svg>
