<?xml version="1.0" encoding="utf-8"?>
<!-- Generator: Adobe Illustrator 22.0.1, SVG Export Plug-In . SVG Version: 6.00 Build 0)  -->
<svg version="1.1" id="LOGO_x27_S" xmlns="http://www.w3.org/2000/svg" xmlns:xlink="http://www.w3.org/1999/xlink" x="0px" y="0px"
	 width="205.2px" height="44px" viewBox="0 0 205.2 44" style="enable-background:new 0 0 205.2 44;" xml:space="preserve">
<style type="text/css">
	.st0{fill:url(#SVGID_1_);}
	.st1{fill:url(#SVGID_2_);}
	.st2{clip-path:url(#SVGID_4_);}
	.st3{fill:#F0F0F0;}
	.st4{clip-path:url(#SVGID_4_);fill:#E0E1E2;}
	.st5{fill:url(#SVGID_5_);}
	.st6{fill:url(#SVGID_6_);}
	.st7{fill:url(#SVGID_7_);}
	.st8{fill:#1794D2;}
	.st9{fill:#4C4F53;}
</style>
<g id="brand-sadvantage">
</g>
<g id="brand-se_1_">
</g>
<g id="brand-kn_1_">
</g>
<g id="brand-pn_1_">
</g>
<g id="brand-esn_1_">
</g>
<g id="brand-osn_1_">
</g>
<g>
	<g id="cn-bol_1_">
		<g id="cn-globe_1_">
			
				<radialGradient id="SVGID_1_" cx="1158.9229" cy="-75.1065" r="19.9116" gradientTransform="matrix(0.8195 0 0 0.8195 -914.321 70.0824)" gradientUnits="userSpaceOnUse">
				<stop  offset="0" style="stop-color:#FFFFFF"/>
				<stop  offset="1" style="stop-color:#E0E1E2"/>
			</radialGradient>
			<path class="st0" d="M44.6,21.9C44.6,9.8,34.8,0,22.7,0c-5.3,0-10.2,1.9-14,5.1l30.8,30.8C42.7,32.1,44.6,27.2,44.6,21.9z"/>
			
				<radialGradient id="SVGID_2_" cx="1125.9756" cy="-43.7538" r="25.3132" gradientTransform="matrix(0.8195 0 0 0.8195 -914.321 70.0824)" gradientUnits="userSpaceOnUse">
				<stop  offset="0" style="stop-color:#FFFFFF"/>
				<stop  offset="1" style="stop-color:#E0E1E2"/>
			</radialGradient>
			<path class="st1" d="M8.7,5.1c-4.8,4-7.9,10-7.9,16.8c0,12.1,9.8,21.9,21.9,21.9c6.8,0,12.8-3.1,16.8-7.9L8.7,5.1z"/>
		</g>
		<g id="cn-shadow_1_">
			<defs>
				<path id="SVGID_3_" d="M44.6,22.6C44.2,34.7,34.1,44.1,22,43.7C9.9,43.3,0.5,33.2,0.9,21.1C1.3,9,11.4-0.4,23.5,0
					S45,10.6,44.6,22.6z"/>
			</defs>
			<clipPath id="SVGID_4_">
				<use xlink:href="#SVGID_3_"  style="overflow:visible;"/>
			</clipPath>
			<g class="st2">
				<path class="st3" d="M36.3,35.1c-0.7,0-1.4,0-2.2-0.1c-0.8-0.1-1.6-0.2-2.4-0.4c-1-0.2-1.9-0.5-2.9-0.8c-1.5-0.5-3-1.2-4.4-2.1
					c-1.5-0.9-3-2.1-4.3-3.4c-1.1-1.1-2-2.2-2.9-3.5c-0.5-0.7-0.9-1.4-1.3-2.2l-0.1-0.1c-0.3-0.7-0.7-1.3-1-2.1
					c-0.1-0.2-0.2-0.5-0.3-0.7c-0.2-0.4-0.3-0.9-0.4-1.3c-0.2-0.7-0.4-1.4-0.6-2.1c-0.2-0.8-0.3-1.6-0.4-2.3
					C13.1,13,13,12.1,13,11.3c-0.1-1.1-0.1-2.1,0-3c0.1-1.3,0.2-2.5,0.3-3.5c0.2-1.8,0.6-2.9,0.6-3.1l-0.5,0.5
					c0,0.2-0.3,1.3-0.6,3.1c-0.1,1-0.3,2.2-0.3,3.5c0,0.9,0,2,0,3c0,0.8,0.1,1.7,0.2,2.6c0.1,0.8,0.2,1.5,0.4,2.3
					c0.2,0.7,0.3,1.4,0.6,2.1c0.1,0.4,0.3,0.9,0.4,1.3c0.1,0.2,0.2,0.5,0.3,0.7c0.3,0.7,0.6,1.4,1,2.1l0,0c0.4,0.8,0.9,1.5,1.4,2.3
					c0.9,1.3,1.8,2.4,2.9,3.5c1.3,1.3,2.8,2.4,4.3,3.4c1.4,0.9,2.9,1.6,4.4,2.1c0.9,0.3,1.9,0.6,2.9,0.8c0.8,0.2,1.6,0.3,2.4,0.4
					l0,0c0.7,0.1,1.4,0.1,2.2,0.1l0,0c0.7,0,1.3,0,2-0.1c0.6-0.1,1.3-0.2,1.9-0.3c0.5-0.1,0.9-0.2,1.4-0.3l0.5-0.5
					c-0.5,0.1-0.9,0.2-1.4,0.3c-0.6,0.1-1.3,0.2-1.9,0.3C37.6,35.1,37,35.1,36.3,35.1L36.3,35.1z"/>
				<path class="st3" d="M14.2,20.2c4.3,11.6,16.7,17.6,27,14.7c-0.3,0.2-0.4,0.2-0.5,0.3c-0.6,0.3-0.6,0.3-0.7,0.3
					c0,0-0.1,0-0.1,0.1c-0.1,0-0.1,0.1-0.2,0.1c-0.1,0-0.1,0-0.1,0.1c-0.2,0.1-0.3,0.1-0.3,0.1c-0.1,0-0.1,0.1-0.2,0.1
					c-0.1,0-0.1,0-0.2,0.1c-0.1,0-0.1,0-0.2,0.1c-0.1,0-0.1,0.1-0.2,0.1c-0.1,0-0.2,0.1-0.2,0.1c-0.2,0.1-0.3,0.1-0.3,0.1
					c0,0-0.1,0-0.1,0c-0.1,0-0.2,0.1-0.3,0.1c-0.2,0-0.3,0.1-0.4,0.1C29,38.7,18.9,34.2,14.2,26c0,0,0-0.1-0.1-0.1
					c0-0.1-0.1-0.1-0.1-0.2c0-0.1-0.1-0.1-0.1-0.2c0-0.1-0.1-0.1-0.1-0.2c-0.1-0.1-0.1-0.2-0.1-0.2c-0.1-0.1-0.1-0.2-0.1-0.3
					c-0.1-0.1-0.1-0.2-0.1-0.3c-0.1-0.1-0.1-0.2-0.2-0.3c-0.1-0.3-0.2-0.5-0.3-0.7c-0.1-0.2-0.1-0.3-0.2-0.4
					c-0.1-0.2-0.1-0.3-0.2-0.4c-0.1-0.1-0.1-0.3-0.2-0.4c-0.1-0.2-0.1-0.3-0.2-0.5c-0.1-0.2-0.1-0.3-0.2-0.5
					C12.1,21.2,12,21.1,12,21l-0.1-0.2c0,0,0-0.1,0-0.1c0-0.1,0-0.1-0.1-0.2c0,0,0-0.1,0-0.1c0-0.1,0-0.1-0.1-0.2c0,0,0-0.1,0-0.1
					c0-0.1-0.1-0.2-0.1-0.3c-0.1-0.2-0.1-0.3-0.1-0.4c0-0.1-0.1-0.2-0.1-0.4c0-0.2-0.1-0.3-0.1-0.4c0,0,0-0.1,0-0.1
					c0-0.1,0-0.2-0.1-0.3c0,0,0-0.1,0-0.1c0-0.1,0-0.2-0.1-0.2c0,0,0-0.1,0-0.1c0-0.1,0-0.2-0.1-0.3c0,0,0-0.1,0-0.1
					c0-0.1,0-0.2-0.1-0.3c-0.1-0.4-0.1-0.6-0.1-0.9c0,0,0-0.1,0-0.1c0-0.1,0-0.2,0-0.3c0,0,0-0.1,0-0.1c0-0.1,0-0.2,0-0.3
					c0-0.1,0-0.1,0-0.2c0-0.1,0-0.2,0-0.3c0-0.1,0-0.1,0-0.2c0-0.1,0-0.2,0-0.3c0-0.1,0-0.1,0-0.2c0-0.1,0-0.2,0-0.3
					c0,0,0-0.1,0-0.1c0-0.1,0-0.3,0-0.4c0-0.2,0-0.3,0-0.4c0,0,0-0.1,0-0.1c0-0.1,0-0.2,0-0.3c0-0.1,0-0.1,0-0.2c0-0.1,0-0.2,0-0.3
					c0-0.1,0-0.1,0-0.2c0-0.1,0-0.2,0-0.3c0-0.1,0-0.1,0-0.2c0-0.1,0-0.2,0-0.3c0-0.1,0-0.1,0-0.2c0-0.1,0-0.2,0-0.3
					c0-0.1,0-0.1,0-0.2c0-0.2,0-0.3,0.1-0.5c0-0.2,0-0.3,0.1-0.5c0-0.1,0-0.1,0-0.2c0-0.1,0-0.2,0.1-0.3c0-0.1,0-0.1,0-0.2
					c0-0.1,0-0.2,0.1-0.3c0-0.1,0-0.1,0-0.2c0-0.1,0-0.2,0.1-0.3c0-0.1,0-0.1,0-0.2c0-0.1,0-0.2,0.1-0.3c0-0.1,0-0.1,0-0.2
					c0-0.1,0.1-0.2,0.1-0.3c0-0.1,0-0.1,0-0.2c0-0.2,0.1-0.3,0.1-0.5c0.8-2.5,1.8-4.1,1.9-4.2C13.3,2.6,10.9,11.4,14.2,20.2z"/>
			</g>
			<path class="st4" d="M6.3,9.1c-7,6-1.1,14.2,8.5,26.1c4.7,5.8,6.5,8.4,7.3,11.2c0,0-0.7,0-1.2,0c-1.3,0-1.9-0.3-1.9-0.3
				s-3.2-4.9-6.6-8.9C6,29.7-4.1,18.3,3.6,10.7C4.3,10.1,5.3,9.5,6.3,9.1"/>
		</g>
		<g id="cn_1_">
			<g>
				
					<linearGradient id="SVGID_5_" gradientUnits="userSpaceOnUse" x1="-66.4714" y1="732.0275" x2="-52.153" y2="717.7091" gradientTransform="matrix(0.955 -0.2967 0.3261 1.0498 -152.409 -758.8347)">
					<stop  offset="0" style="stop-color:#004F7E"/>
					<stop  offset="0.2" style="stop-color:#006B96"/>
					<stop  offset="0.62" style="stop-color:#8DCBE0"/>
					<stop  offset="0.85" style="stop-color:#009AC6"/>
					<stop  offset="1" style="stop-color:#004F7E"/>
				</linearGradient>
				<path class="st5" d="M37.4,33.7c-0.7,0-1.4,0-2.2-0.1c-0.8-0.1-1.6-0.2-2.4-0.4c-1-0.2-1.9-0.5-2.9-0.8c-1.5-0.5-3-1.2-4.4-2.1
					c-1.5-0.9-3-2.1-4.3-3.4c-1.1-1.1-2-2.2-2.9-3.5c-0.5-0.7-0.9-1.4-1.3-2.2L17,21c-0.3-0.7-0.7-1.3-1-2.1
					c-0.1-0.2-0.2-0.5-0.3-0.7c-0.2-0.4-0.3-0.9-0.4-1.3c-0.2-0.7-0.4-1.4-0.6-2.1c-0.2-0.8-0.3-1.6-0.4-2.3
					c-0.1-0.9-0.2-1.8-0.2-2.6c-0.1-1.1-0.1-2.1,0-3c0.1-1.3,0.2-2.5,0.3-3.5C14.7,1.5,15,0.4,15,0.2l-0.5,0.5
					c0,0.2-0.3,1.3-0.6,3.1c-0.1,1-0.3,2.2-0.3,3.5c0,0.9,0,2,0,3c0,0.8,0.1,1.7,0.2,2.6c0.1,0.8,0.2,1.5,0.4,2.3
					c0.2,0.7,0.3,1.4,0.6,2.1c0.1,0.4,0.3,0.9,0.4,1.3c0.1,0.2,0.2,0.5,0.3,0.7c0.3,0.7,0.6,1.4,1,2.1l0,0c0.4,0.8,0.9,1.5,1.4,2.3
					c0.9,1.3,1.8,2.4,2.9,3.5c1.3,1.3,2.8,2.4,4.3,3.4c1.4,0.9,2.9,1.6,4.4,2.1c0.9,0.3,1.9,0.6,2.9,0.8c0.8,0.2,1.6,0.3,2.4,0.4
					l0,0c0.7,0.1,1.4,0.1,2.2,0.1l0,0c0.7,0,1.3,0,2-0.1c0.6-0.1,1.3-0.2,1.9-0.3c0.5-0.1,0.9-0.2,1.4-0.3l0.5-0.5
					c-0.5,0.1-0.9,0.2-1.4,0.3c-0.6,0.1-1.3,0.2-1.9,0.3C38.8,33.6,38.1,33.7,37.4,33.7L37.4,33.7z"/>
				
					<linearGradient id="SVGID_6_" gradientUnits="userSpaceOnUse" x1="-68.2766" y1="733.6232" x2="-52.7026" y2="718.0491" gradientTransform="matrix(0.955 -0.2967 0.3261 1.0498 -152.409 -758.8347)">
					<stop  offset="0" style="stop-color:#004F7E"/>
					<stop  offset="0.2" style="stop-color:#006B96"/>
					<stop  offset="0.62" style="stop-color:#8DCBE0"/>
					<stop  offset="0.85" style="stop-color:#009AC6"/>
					<stop  offset="1" style="stop-color:#004F7E"/>
				</linearGradient>
				<path class="st6" d="M15.3,18.8c4.3,11.6,16.7,17.6,27,14.7c-0.3,0.2-0.4,0.2-0.5,0.3C41.2,34,41.2,34,41.2,34
					c0,0-0.1,0-0.1,0.1c-0.1,0-0.1,0.1-0.2,0.1c-0.1,0-0.1,0-0.1,0.1c-0.2,0.1-0.3,0.1-0.3,0.1c-0.1,0-0.1,0.1-0.2,0.1
					c-0.1,0-0.1,0-0.2,0.1c-0.1,0-0.1,0-0.2,0.1c-0.1,0-0.1,0.1-0.2,0.1c-0.1,0-0.2,0.1-0.2,0.1c-0.2,0.1-0.3,0.1-0.3,0.1
					c0,0-0.1,0-0.1,0c-0.1,0-0.2,0.1-0.3,0.1c-0.2,0-0.3,0.1-0.4,0.1c-8.4,2.2-18.4-2.2-23.1-10.4c0,0,0-0.1-0.1-0.1
					c0-0.1-0.1-0.1-0.1-0.2c0-0.1-0.1-0.1-0.1-0.2c0-0.1-0.1-0.1-0.1-0.2c-0.1-0.1-0.1-0.2-0.1-0.2c-0.1-0.1-0.1-0.2-0.1-0.3
					c-0.1-0.1-0.1-0.2-0.1-0.3c-0.1-0.1-0.1-0.2-0.2-0.3c-0.1-0.3-0.2-0.5-0.3-0.7C14.1,22,14,21.9,14,21.8
					c-0.1-0.2-0.1-0.3-0.2-0.4c-0.1-0.1-0.1-0.3-0.2-0.4c-0.1-0.2-0.1-0.3-0.2-0.5c-0.1-0.2-0.1-0.3-0.2-0.5
					c-0.1-0.2-0.1-0.3-0.2-0.4l-0.1-0.2c0,0,0-0.1,0-0.1c0-0.1,0-0.1-0.1-0.2c0,0,0-0.1,0-0.1c0-0.1,0-0.1-0.1-0.2c0,0,0-0.1,0-0.1
					c0-0.1-0.1-0.2-0.1-0.3c-0.1-0.2-0.1-0.3-0.1-0.4c0-0.1-0.1-0.2-0.1-0.4c0-0.2-0.1-0.3-0.1-0.4c0,0,0-0.1,0-0.1
					c0-0.1,0-0.2-0.1-0.3c0,0,0-0.1,0-0.1c0-0.1,0-0.2-0.1-0.2c0,0,0-0.1,0-0.1c0-0.1,0-0.2-0.1-0.3c0,0,0-0.1,0-0.1
					c0-0.1,0-0.2-0.1-0.3c-0.1-0.4-0.1-0.6-0.1-0.9c0,0,0-0.1,0-0.1c0-0.1,0-0.2,0-0.3c0,0,0-0.1,0-0.1c0-0.1,0-0.2,0-0.3
					c0-0.1,0-0.1,0-0.2c0-0.1,0-0.2,0-0.3c0-0.1,0-0.1,0-0.2c0-0.1,0-0.2,0-0.3c0-0.1,0-0.1,0-0.2c0-0.1,0-0.2,0-0.3
					c0,0,0-0.1,0-0.1c0-0.1,0-0.3,0-0.4c0-0.2,0-0.3,0-0.4c0,0,0-0.1,0-0.1c0-0.1,0-0.2,0-0.3c0-0.1,0-0.1,0-0.2c0-0.1,0-0.2,0-0.3
					c0-0.1,0-0.1,0-0.2c0-0.1,0-0.2,0-0.3c0-0.1,0-0.1,0-0.2c0-0.1,0-0.2,0-0.3c0-0.1,0-0.1,0-0.2c0-0.1,0-0.2,0-0.3
					c0-0.1,0-0.1,0-0.2c0-0.2,0-0.3,0.1-0.5C12,8.3,12,8.1,12,8c0-0.1,0-0.1,0-0.2c0-0.1,0-0.2,0.1-0.3c0-0.1,0-0.1,0-0.2
					c0-0.1,0-0.2,0.1-0.3c0-0.1,0-0.1,0-0.2c0-0.1,0-0.2,0.1-0.3c0-0.1,0-0.1,0-0.2c0-0.1,0-0.2,0.1-0.3c0-0.1,0-0.1,0-0.2
					c0-0.1,0.1-0.2,0.1-0.3c0-0.1,0-0.1,0-0.2c0-0.2,0.1-0.3,0.1-0.5c0.8-2.5,1.8-4.1,1.9-4.2C14.4,1.2,12.1,10,15.3,18.8z"/>
			</g>
			
				<radialGradient id="SVGID_7_" cx="525.8402" cy="-169.0993" r="40.8313" gradientTransform="matrix(0.9331 0 0 0.9331 -465.97 200.2085)" gradientUnits="userSpaceOnUse">
				<stop  offset="0" style="stop-color:#4C4F53"/>
				<stop  offset="0.1431" style="stop-color:#505457"/>
				<stop  offset="0.3058" style="stop-color:#5E6164"/>
				<stop  offset="0.456" style="stop-color:#717377"/>
				<stop  offset="0.5272" style="stop-color:#75767A"/>
				<stop  offset="0.5922" style="stop-color:#808184"/>
				<stop  offset="0.6546" style="stop-color:#939295"/>
				<stop  offset="0.6978" style="stop-color:#A4A2A5"/>
				<stop  offset="0.7643" style="stop-color:#A09FA1"/>
				<stop  offset="0.8278" style="stop-color:#959497"/>
				<stop  offset="0.8901" style="stop-color:#828285"/>
				<stop  offset="0.9512" style="stop-color:#67696C"/>
				<stop  offset="1" style="stop-color:#4C4F53"/>
			</radialGradient>
			<path class="st7" d="M6.3,6.7c-7,6-1.1,14.2,8.5,26.1c4.7,5.8,6.5,8.4,7.3,11.2c0,0-0.7,0-1.2,0c-1.3,0-1.9-0.3-1.9-0.3
				s-3.2-4.9-6.6-8.9C6,27.2-4.1,15.9,3.6,8.3C4.3,7.6,5.3,7,6.3,6.7"/>
		</g>
	</g>
	<g id="cataloguenetwork">
		<g id="catalogue">
			<path class="st8" d="M112.2,36.5c-0.9,0-2.2-0.1-3.2-1.2c-0.8-0.9-0.9-2.2-0.9-3.8c0-1.5,0.1-3.1,1.2-4.2
				c0.8-0.8,1.9-1.1,3.1-1.1h5.6v2.6h-3.8c-1.3,0-1.8,0.6-2,1.3c-0.1,0.4-0.2,0.8-0.2,1.4c0,1.2,0.2,1.6,0.3,1.8
				c0.5,0.8,1.5,0.7,2.1,0.7h3.8v2.6H112.2z"/>
			<path class="st8" d="M126.5,26.2c1.3,0,2.1,0.4,2.6,0.9c0.9,0.8,1,2.1,1,2.9v4.3c0,0.5,0,1.2-0.5,1.7c-0.5,0.5-1.2,0.5-1.8,0.5
				h-6.1c-0.6,0-1.3,0-1.9-0.5c-0.8-0.7-0.8-2.1-0.8-2.9c0-0.9,0.1-2,0.9-2.6c0.6-0.4,1.2-0.4,1.8-0.4h4.5v-0.2c0-0.2,0-0.5-0.2-0.7
				c-0.3-0.4-0.8-0.4-1.2-0.4h-5.2v-2.6H126.5z M123.5,32.5c-0.1,0-0.4,0-0.6,0.2c-0.1,0.1-0.2,0.3-0.2,0.5c0,0.2,0,0.3,0.2,0.5
				c0.1,0.1,0.4,0.2,0.5,0.2h2c0.2,0,0.4,0,0.6-0.1c0.2-0.1,0.2-0.3,0.2-0.5v-0.6H123.5z"/>
			<path class="st8" d="M136.6,36.5c-0.8,0-2.2,0-3.2-0.7c-0.9-0.6-1.3-1.6-1.3-2.5v-4.5h-1.5v-2.7h1.5v-3.3h3.8v3.3h3v2.7h-3v2.4
				c0,0.8,0.1,1.6,0.7,2.1c0.5,0.5,1.2,0.5,1.7,0.5h0.6v2.8H136.6z"/>
			<path class="st8" d="M146.7,26.2c1.3,0,2.1,0.4,2.6,0.9c0.9,0.8,1,2.1,1,2.9v4.3c0,0.5,0,1.2-0.5,1.7c-0.5,0.5-1.2,0.5-1.8,0.5
				h-6.1c-0.6,0-1.3,0-1.9-0.5c-0.8-0.7-0.8-2.1-0.8-2.9c0-0.9,0.1-2,0.9-2.6c0.6-0.4,1.2-0.4,1.8-0.4h4.5v-0.2c0-0.2,0-0.5-0.2-0.7
				c-0.3-0.4-0.8-0.4-1.2-0.4h-5.2v-2.6H146.7z M143.7,32.5c-0.1,0-0.4,0-0.6,0.2c-0.1,0.1-0.2,0.3-0.2,0.5c0,0.2,0,0.3,0.2,0.5
				c0.1,0.1,0.4,0.2,0.5,0.2h2c0.2,0,0.4,0,0.6-0.1c0.2-0.1,0.2-0.3,0.2-0.5v-0.6H143.7z"/>
			<path class="st8" d="M151.4,22.8h3.8v13.7h-3.8V22.8z"/>
			<path class="st8" d="M166.8,27.1c1.3,1.2,1.4,3.2,1.4,4.2s-0.1,3.1-1.4,4.2c-1.1,1-3,1.1-4.6,1.1c-1.6,0-3.5-0.1-4.6-1.1
				c-1.3-1.2-1.4-3.2-1.4-4.2s0.1-3.1,1.4-4.2c1.1-1,3-1.1,4.6-1.1C163.8,26,165.7,26.1,166.8,27.1z M160.5,33.2
				c0.1,0.1,0.5,0.7,1.7,0.7c1,0,1.5-0.5,1.7-0.7c0.3-0.4,0.4-1.1,0.4-1.8c0-1.1-0.2-1.6-0.4-1.9c-0.2-0.3-0.6-0.7-1.7-0.7
				c-1.1,0-1.5,0.4-1.7,0.7c-0.1,0.2-0.4,0.6-0.4,1.9C160.1,32.5,160.3,33,160.5,33.2z"/>
			<path class="st8" d="M169.6,37.5h4.6c0.4,0,1,0,1.4-0.3c0.2-0.2,0.4-0.5,0.5-0.7h-3.3c-1.1,0-2.3-0.1-3.1-1.3
				c-0.6-0.9-0.8-2.1-0.8-3.9c0-2,0.3-3,1.1-3.9c0.8-0.9,1.7-1.3,3.3-1.3h4.3c0.6,0,1.3,0,1.8,0.5c0.5,0.4,0.6,1.1,0.6,1.6v7.2
				c0,1.4-0.2,2.5-0.8,3.3c-0.8,1-2.1,1.4-3.7,1.4h-5.8V37.5z M176.1,29.8c0-0.3,0-0.5-0.3-0.7c-0.2-0.1-0.4-0.2-0.6-0.2h-0.4
				c-0.5,0-1.1,0-1.5,0.6c-0.2,0.2-0.4,0.7-0.4,1.9c0,0.9,0.2,1.5,0.4,1.8c0.5,0.6,1.2,0.5,1.8,0.5h1.1V29.8z"/>
			<path class="st8" d="M184.9,26.2v5.2c0,1,0.2,1.5,0.4,1.8c0.4,0.6,1.2,0.6,1.6,0.6h0.7c0.3,0,0.5-0.1,0.7-0.2
				c0.2-0.2,0.2-0.4,0.2-0.6v-6.7h3.8v8.3c0,0.6-0.1,1.2-0.6,1.6c-0.5,0.4-1.3,0.5-1.7,0.5h-4.7c-1.5,0-2.4-0.4-2.9-0.9
				c-1.1-0.9-1.3-2.3-1.3-3.8v-5.7H184.9z"/>
			<path class="st8" d="M197.4,36.5c-1.5,0-2.9,0-3.7-1.3c-0.4-0.7-0.5-1.8-0.5-3.7c0-1.9-0.1-3.4,0.8-4.4c1-1,2.9-1,4.9-1
				c2.1,0,3.5,0,4.3,0.7c1,0.8,1.1,2.3,1.1,3.5c0,0.7,0,1.4-0.6,1.9c-0.3,0.3-0.7,0.3-1,0.3h-5.7c0,0.3,0,0.6,0.2,0.8
				c0.3,0.5,1,0.5,1.7,0.5h5v2.8H197.4z M199.9,30c0.5,0,0.6-0.4,0.6-0.5c0-0.3-0.1-0.6-0.7-0.7c-0.3-0.1-0.8-0.1-1-0.1
				c-0.4,0-1.1,0-1.3,0.2c-0.4,0.2-0.4,0.6-0.4,1.2H199.9z"/>
		</g>
		<g id="reseau_2_">
			<path class="st9" d="M53.7,29.7c0-1.1,0.1-2,0.9-2.7c0.4-0.4,1.2-0.8,2.5-0.8h0.7v0.9h-0.6c-0.6,0-1.4,0.1-2,0.7
				c-0.4,0.5-0.5,1.3-0.5,2.2v6.6h-1V29.7z"/>
			<g>
				<path class="st9" d="M61.8,36.5c-0.8,0-1.9-0.2-2.7-1.3c-0.8-1-0.8-2.3-0.8-3.9c0-1.4,0.1-3.2,1.4-4.3c0.9-0.8,2.2-0.9,3.2-0.9
					c0.7,0,1.8,0.1,2.6,0.6c0.4,0.3,1.7,1.1,1.7,3.3c0,0.3,0,1-0.4,1.4c-0.3,0.3-0.8,0.3-1.1,0.3h-6.3c0,0.6,0,1.6,0.2,2.1
					c0.2,0.8,0.9,1.8,2.3,1.8h5.1v0.9H61.8z M65.6,30.7c0.5,0,0.4-0.5,0.4-0.7c0-1-0.4-1.7-0.7-2.1c-0.7-0.9-1.8-0.9-2.7-0.9
					c-1,0-2.2,0-2.9,1.3c-0.4,0.7-0.5,1.4-0.5,2.4H65.6z"/>
				<path class="st9" d="M60.6,26c-0.4,0.1-0.7,0.3-1,0.5c-0.1,0.1-0.1,0.1-0.2,0.2c0,0,0.3-1.4,0.8-2c0.4-0.4,1.2-0.8,2.5-0.8h0.7
					v0.9h-0.6c-0.6,0-1.4,0.1-2,0.7C60.8,25.7,60.6,26,60.6,26z"/>
			</g>
			<path class="st9" d="M68.5,35.6h5.9c0.6,0,1-0.2,1.2-0.5c0.2-0.3,0.3-0.8,0.3-1.2c0-0.6-0.2-0.9-0.4-1.1
				c-0.3-0.3-0.9-0.5-2.4-0.8l-1.8-0.4c-1.6-0.4-2.2-0.9-2.4-1.2c-0.5-0.5-0.6-1.2-0.6-1.7c0-0.7,0.2-1.2,0.5-1.7
				c0.6-0.8,1.5-0.9,2.5-0.9h5v0.9h-5.4c-0.2,0-0.8,0-1.2,0.4c-0.4,0.4-0.4,1-0.4,1.2c0,0.4,0,1,0.4,1.3c0.4,0.4,1.4,0.6,1.8,0.7
				l1.9,0.4c1.3,0.3,2.2,0.5,2.8,1c0.6,0.5,0.7,1.1,0.7,1.8c0,0.7-0.1,1.7-0.9,2.2c-0.5,0.4-1.2,0.4-1.6,0.4h-6V35.6z"/>
			<path class="st9" d="M81.8,36.5c-0.8,0-1.9-0.2-2.7-1.3c-0.8-1-0.8-2.3-0.8-3.9c0-1.4,0.1-3.2,1.4-4.3c0.9-0.8,2.2-0.9,3.2-0.9
				c0.7,0,1.8,0.1,2.6,0.6c0.4,0.3,1.7,1.1,1.7,3.3c0,0.3,0,1-0.4,1.4c-0.3,0.3-0.8,0.3-1.1,0.3h-6.3c0,0.6,0,1.6,0.2,2.1
				c0.2,0.8,0.9,1.8,2.3,1.8h5.1v0.9H81.8z M85.6,30.7c0.5,0,0.4-0.5,0.4-0.7c0-1-0.4-1.7-0.7-2.1c-0.7-0.9-1.8-0.9-2.7-0.9
				c-1,0-2.2,0-2.9,1.3c-0.4,0.7-0.5,1.4-0.5,2.4H85.6z"/>
			<path class="st9" d="M94.2,26.1c0.7,0,1.4,0.3,1.8,0.7c0.5,0.6,0.6,1.4,0.6,2.1v6.2c0,0.3,0,0.8-0.4,1.1
				c-0.3,0.3-0.8,0.3-1.2,0.3h-4c-0.6,0-1.3,0-1.9-0.5c-0.9-0.7-0.9-2.1-0.9-2.7c0-0.8,0.1-1.8,0.9-2.4c0.6-0.5,1.3-0.5,1.9-0.5h4.5
				v-1.5c0-0.3-0.1-0.9-0.4-1.2c-0.2-0.3-0.6-0.5-1.1-0.5h-5v-0.9H94.2z M90.8,31.2c-0.6,0-1,0.3-1.1,0.5c-0.3,0.3-0.3,0.9-0.3,1.6
				c0,0.6,0.1,1.4,0.4,1.8c0.2,0.3,0.6,0.4,1,0.4H95c0.1,0,0.3,0,0.4-0.1c0.1-0.1,0.1-0.2,0.1-0.4v-3.9H90.8z"/>
			<path class="st9" d="M106.3,36.2c-0.4,0.3-1,0.3-1.6,0.3h-2.8c-1.1,0-1.9-0.1-2.5-0.7c-0.8-0.7-0.9-1.8-0.9-2.4v-7.2h1v6.9
				c0,1.1,0.2,1.6,0.4,1.8c0.4,0.6,1.2,0.7,2.1,0.7h2.9c0.3,0,0.5-0.1,0.7-0.2c0.2-0.2,0.2-0.5,0.2-0.6v-8.6h1v8.7
				C106.8,35.3,106.7,35.8,106.3,36.2z"/>
		</g>
	</g>
</g>
</svg>
