<?xml version="1.0" encoding="utf-8"?>
<!-- Generator: Adobe Illustrator 22.0.1, SVG Export Plug-In . SVG Version: 6.00 Build 0)  -->
<svg version="1.1" id="LOGO_x27_S" xmlns="http://www.w3.org/2000/svg" xmlns:xlink="http://www.w3.org/1999/xlink" x="0px" y="0px"
	 width="205.2px" height="44px" viewBox="0 0 205.2 44" enable-background="new 0 0 205.2 44" xml:space="preserve">
<path fill="#FFFFFF" d="M12.4,34.8C8.316,29.95,2.731,23.593,1.221,17.653C0.95,19.025,0.8,20.443,0.8,21.9
	c0,10.781,7.782,19.73,18.037,21.554C18.151,42.421,15.352,38.273,12.4,34.8z"/>
<g id="brand-sadvantage">
</g>
<g id="brand-se_1_">
</g>
<g id="brand-kn_1_">
</g>
<g id="brand-pn_1_">
</g>
<g id="brand-esn_1_">
</g>
<g id="brand-osn_1_">
</g>
<g>
	<path fill="#FFFFFF" d="M15.3,18.8c4.128,11.137,15.717,17.088,25.751,14.981C43.295,30.35,44.6,26.266,44.6,21.9
		C44.6,9.8,34.8,0,22.7,0c-2.982,0-5.827,0.62-8.431,1.715C13.74,4.439,12.688,11.617,15.3,18.8z"/>
	<path fill="#FFFFFF" d="M40.5,34.4c-0.1,0-0.1,0.1-0.2,0.1c-0.1,0-0.1,0-0.2,0.1c-0.1,0-0.1,0-0.2,0.1c-0.1,0-0.1,0.1-0.2,0.1
		c-0.1,0-0.2,0.1-0.2,0.1C39.3,35,39.2,35,39.2,35h-0.1c-0.1,0-0.2,0.1-0.3,0.1c-0.2,0-0.3,0.1-0.4,0.1C30,37.4,20,33,15.3,24.8
		c0,0,0-0.1-0.1-0.1c0-0.1-0.1-0.1-0.1-0.2c0-0.1-0.1-0.1-0.1-0.2c0-0.1-0.1-0.1-0.1-0.2c-0.1-0.1-0.1-0.2-0.1-0.2
		c-0.1-0.1-0.1-0.2-0.1-0.3c-0.1-0.1-0.1-0.2-0.1-0.3c-0.1-0.1-0.1-0.2-0.2-0.3c-0.1-0.3-0.2-0.5-0.3-0.7c0-0.3-0.1-0.4-0.1-0.5
		c-0.1-0.2-0.1-0.3-0.2-0.4c-0.1-0.1-0.1-0.3-0.2-0.4c-0.1-0.2-0.1-0.3-0.2-0.5c-0.1-0.2-0.1-0.3-0.2-0.5c-0.1-0.2-0.1-0.3-0.2-0.4
		l-0.1-0.2v-0.1c0-0.1,0-0.1-0.1-0.2V19c0-0.1,0-0.1-0.1-0.2v-0.1c0-0.1-0.1-0.2-0.1-0.3c-0.1-0.2-0.1-0.3-0.1-0.4s-0.1-0.2-0.1-0.4
		c0-0.2-0.1-0.3-0.1-0.4v-0.1c0-0.1,0-0.2-0.1-0.3v-0.1c0-0.1,0-0.2-0.1-0.2v-0.1c0-0.1,0-0.2-0.1-0.3V16c0-0.1,0-0.2-0.1-0.3
		c-0.1-0.4-0.1-0.6-0.1-0.9v-0.1c0-0.1,0-0.2,0-0.3v-0.1c0-0.1,0-0.2,0-0.3s0-0.1,0-0.2c0-0.1,0-0.2,0-0.3s0-0.1,0-0.2
		c0-0.1,0-0.2,0-0.3s0-0.1,0-0.2c0-0.1,0-0.2,0-0.3v-0.1c0-0.1,0-0.3,0-0.4c0-0.2,0-0.3,0-0.4v-0.1c0-0.1,0-0.2,0-0.3
		c0-0.1,0-0.1,0-0.2s0-0.2,0-0.3c0-0.1,0-0.1,0-0.2s0-0.2,0-0.3c0-0.1,0-0.1,0-0.2s0-0.2,0-0.3c0-0.1,0-0.1,0-0.2s0-0.2,0-0.3
		c0-0.1,0-0.1,0-0.2c0-0.2,0-0.3,0.1-0.5C12,8.3,12,8.1,12,8s0-0.1,0-0.2c0-0.1,0-0.2,0.1-0.3c0-0.1,0-0.1,0-0.2
		c0-0.1,0-0.2,0.1-0.3c0-0.1,0-0.1,0-0.2c0-0.1,0-0.2,0.1-0.3c0-0.1,0-0.1,0-0.2c0-0.1,0-0.2,0.1-0.3c0-0.1,0-0.1,0-0.2
		c0-0.1,0.1-0.2,0.1-0.3s0-0.1,0-0.2c0-0.2,0.1-0.3,0.1-0.5c0.378-1.18,0.797-2.15,1.148-2.866C11.921,2.76,10.22,3.82,8.7,5.1
		c-2.2,1.833-4.036,4.09-5.387,6.648C2.555,17.126,7.649,23.936,14.8,32.8c4.578,5.65,6.402,8.264,7.233,10.983
		C22.255,43.79,22.476,43.8,22.7,43.8c6.8,0,12.8-3.1,16.8-7.9c0.421-0.5,0.816-1.021,1.191-1.558
		C40.576,34.386,40.5,34.4,40.5,34.4z"/>
</g>
<path fill="#FFFFFF" d="M112.2,36.5c-0.9,0-2.2-0.1-3.2-1.2c-0.8-0.9-0.9-2.2-0.9-3.8c0-1.5,0.1-3.1,1.2-4.2
	c0.8-0.8,1.9-1.1,3.1-1.1h5.6v2.6h-3.8c-1.3,0-1.8,0.6-2,1.3c-0.1,0.4-0.2,0.8-0.2,1.4c0,1.2,0.2,1.6,0.3,1.8
	c0.5,0.8,1.5,0.7,2.1,0.7h3.8v2.6h-6V36.5z"/>
<path fill="#FFFFFF" d="M126.5,26.2c1.3,0,2.1,0.4,2.6,0.9c0.9,0.8,1,2.1,1,2.9v4.3c0,0.5,0,1.2-0.5,1.7s-1.2,0.5-1.8,0.5h-6.1
	c-0.6,0-1.3,0-1.9-0.5c-0.8-0.7-0.8-2.1-0.8-2.9c0-0.9,0.1-2,0.9-2.6c0.6-0.4,1.2-0.4,1.8-0.4h4.5v-0.2c0-0.2,0-0.5-0.2-0.7
	c-0.3-0.4-0.8-0.4-1.2-0.4h-5.2v-2.6C119.6,26.2,126.5,26.2,126.5,26.2z M123.5,32.5c-0.1,0-0.4,0-0.6,0.2c-0.1,0.1-0.2,0.3-0.2,0.5
	s0,0.3,0.2,0.5c0.1,0.1,0.4,0.2,0.5,0.2h2c0.2,0,0.4,0,0.6-0.1s0.2-0.3,0.2-0.5v-0.6h-2.7V32.5z"/>
<path fill="#FFFFFF" d="M136.6,36.5c-0.8,0-2.2,0-3.2-0.7c-0.9-0.6-1.3-1.6-1.3-2.5v-4.5h-1.5v-2.7h1.5v-3.3h3.8v3.3h3v2.7h-3v2.4
	c0,0.8,0.1,1.6,0.7,2.1c0.5,0.5,1.2,0.5,1.7,0.5h0.6v2.8h-2.3V36.5z"/>
<path fill="#FFFFFF" d="M146.7,26.2c1.3,0,2.1,0.4,2.6,0.9c0.9,0.8,1,2.1,1,2.9v4.3c0,0.5,0,1.2-0.5,1.7s-1.2,0.5-1.8,0.5h-6.1
	c-0.6,0-1.3,0-1.9-0.5c-0.8-0.7-0.8-2.1-0.8-2.9c0-0.9,0.1-2,0.9-2.6c0.6-0.4,1.2-0.4,1.8-0.4h4.5v-0.2c0-0.2,0-0.5-0.2-0.7
	c-0.3-0.4-0.8-0.4-1.2-0.4h-5.2v-2.6C139.8,26.2,146.7,26.2,146.7,26.2z M143.7,32.5c-0.1,0-0.4,0-0.6,0.2c-0.1,0.1-0.2,0.3-0.2,0.5
	s0,0.3,0.2,0.5c0.1,0.1,0.4,0.2,0.5,0.2h2c0.2,0,0.4,0,0.6-0.1c0.2-0.1,0.2-0.3,0.2-0.5v-0.6h-2.7V32.5z"/>
<path fill="#FFFFFF" d="M151.4,22.8h3.8v13.7h-3.8V22.8z"/>
<path fill="#FFFFFF" d="M166.8,27.1c1.3,1.2,1.4,3.2,1.4,4.2c0,1-0.1,3.1-1.4,4.2c-1.1,1-3,1.1-4.6,1.1s-3.5-0.1-4.6-1.1
	c-1.3-1.2-1.4-3.2-1.4-4.2s0.1-3.1,1.4-4.2c1.1-1,3-1.1,4.6-1.1C163.8,26,165.7,26.1,166.8,27.1z M160.5,33.2
	c0.1,0.1,0.5,0.7,1.7,0.7c1,0,1.5-0.5,1.7-0.7c0.3-0.4,0.4-1.1,0.4-1.8c0-1.1-0.2-1.6-0.4-1.9s-0.6-0.7-1.7-0.7
	c-1.1,0-1.5,0.4-1.7,0.7c-0.1,0.2-0.4,0.6-0.4,1.9C160.1,32.5,160.3,33,160.5,33.2z"/>
<path fill="#FFFFFF" d="M169.6,37.5h4.6c0.4,0,1,0,1.4-0.3c0.2-0.2,0.4-0.5,0.5-0.7h-3.3c-1.1,0-2.3-0.1-3.1-1.3
	c-0.6-0.9-0.8-2.1-0.8-3.9c0-2,0.3-3,1.1-3.9s1.7-1.3,3.3-1.3h4.3c0.6,0,1.3,0,1.8,0.5c0.5,0.4,0.6,1.1,0.6,1.6v7.2
	c0,1.4-0.2,2.5-0.8,3.3c-0.8,1-2.1,1.4-3.7,1.4h-5.8v-2.6H169.6z M176.1,29.8c0-0.3,0-0.5-0.3-0.7c-0.2-0.1-0.4-0.2-0.6-0.2h-0.4
	c-0.5,0-1.1,0-1.5,0.6c-0.2,0.2-0.4,0.7-0.4,1.9c0,0.9,0.2,1.5,0.4,1.8c0.5,0.6,1.2,0.5,1.8,0.5h1.1v-3.9H176.1z"/>
<path fill="#FFFFFF" d="M184.9,26.2v5.2c0,1,0.2,1.5,0.4,1.8c0.4,0.6,1.2,0.6,1.6,0.6h0.7c0.3,0,0.5-0.1,0.7-0.2
	c0.2-0.2,0.2-0.4,0.2-0.6v-6.7h3.8v8.3c0,0.6-0.1,1.2-0.6,1.6c-0.5,0.4-1.3,0.5-1.7,0.5h-4.7c-1.5,0-2.4-0.4-2.9-0.9
	c-1.1-0.9-1.3-2.3-1.3-3.8v-5.7h3.8V26.2z"/>
<path fill="#FFFFFF" d="M197.4,36.5c-1.5,0-2.9,0-3.7-1.3c-0.4-0.7-0.5-1.8-0.5-3.7c0-1.9-0.1-3.4,0.8-4.4c1-1,2.9-1,4.9-1
	c2.1,0,3.5,0,4.3,0.7c1,0.8,1.1,2.3,1.1,3.5c0,0.7,0,1.4-0.6,1.9c-0.3,0.3-0.7,0.3-1,0.3H197c0,0.3,0,0.6,0.2,0.8
	c0.3,0.5,1,0.5,1.7,0.5h5v2.8h-6.5V36.5z M199.9,30c0.5,0,0.6-0.4,0.6-0.5c0-0.3-0.1-0.6-0.7-0.7c-0.3-0.1-0.8-0.1-1-0.1
	c-0.4,0-1.1,0-1.3,0.2c-0.4,0.2-0.4,0.6-0.4,1.2h2.8V30z"/>
<path fill="#FFFFFF" d="M53.7,29.7c0-1.1,0.1-2,0.9-2.7c0.4-0.4,1.2-0.8,2.5-0.8h0.7v0.9h-0.6c-0.6,0-1.4,0.1-2,0.7
	c-0.4,0.5-0.5,1.3-0.5,2.2v6.6h-1C53.7,36.6,53.7,29.7,53.7,29.7z"/>
<g>
	<path fill="#FFFFFF" d="M61.8,36.5c-0.8,0-1.9-0.2-2.7-1.3c-0.8-1-0.8-2.3-0.8-3.9c0-1.4,0.1-3.2,1.4-4.3c0.9-0.8,2.2-0.9,3.2-0.9
		c0.7,0,1.8,0.1,2.6,0.6c0.4,0.3,1.7,1.1,1.7,3.3c0,0.3,0,1-0.4,1.4c-0.3,0.3-0.8,0.3-1.1,0.3h-6.3c0,0.6,0,1.6,0.2,2.1
		c0.2,0.8,0.9,1.8,2.3,1.8H67v0.9H61.8z M65.6,30.7c0.5,0,0.4-0.5,0.4-0.7c0-1-0.4-1.7-0.7-2.1C64.6,27,63.5,27,62.6,27
		c-1,0-2.2,0-2.9,1.3c-0.4,0.7-0.5,1.4-0.5,2.4C59.2,30.7,65.6,30.7,65.6,30.7z"/>
	<path fill="#FFFFFF" d="M60.6,26c-0.4,0.1-0.7,0.3-1,0.5c-0.1,0.1-0.1,0.1-0.2,0.2c0,0,0.3-1.4,0.8-2c0.4-0.4,1.2-0.8,2.5-0.8h0.7
		v0.9h-0.6c-0.6,0-1.4,0.1-2,0.7C60.8,25.7,60.6,26,60.6,26z"/>
</g>
<path fill="#FFFFFF" d="M68.5,35.6h5.9c0.6,0,1-0.2,1.2-0.5s0.3-0.8,0.3-1.2c0-0.6-0.2-0.9-0.4-1.1c-0.3-0.3-0.9-0.5-2.4-0.8
	l-1.8-0.4c-1.6-0.4-2.2-0.9-2.4-1.2c-0.5-0.5-0.6-1.2-0.6-1.7c0-0.7,0.2-1.2,0.5-1.7c0.6-0.8,1.5-0.9,2.5-0.9h5V27h-5.4
	c-0.2,0-0.8,0-1.2,0.4c-0.4,0.4-0.4,1-0.4,1.2c0,0.4,0,1,0.4,1.3c0.4,0.4,1.4,0.6,1.8,0.7l1.9,0.4c1.3,0.3,2.2,0.5,2.8,1
	c0.6,0.5,0.7,1.1,0.7,1.8S76.8,35.5,76,36c-0.5,0.4-1.2,0.4-1.6,0.4h-6v-0.8H68.5z"/>
<path fill="#FFFFFF" d="M81.8,36.5c-0.8,0-1.9-0.2-2.7-1.3c-0.8-1-0.8-2.3-0.8-3.9c0-1.4,0.1-3.2,1.4-4.3c0.9-0.8,2.2-0.9,3.2-0.9
	c0.7,0,1.8,0.1,2.6,0.6c0.4,0.3,1.7,1.1,1.7,3.3c0,0.3,0,1-0.4,1.4c-0.3,0.3-0.8,0.3-1.1,0.3h-6.3c0,0.6,0,1.6,0.2,2.1
	c0.2,0.8,0.9,1.8,2.3,1.8H87v0.9H81.8z M85.6,30.7c0.5,0,0.4-0.5,0.4-0.7c0-1-0.4-1.7-0.7-2.1C84.6,27,83.5,27,82.6,27
	c-1,0-2.2,0-2.9,1.3c-0.4,0.7-0.5,1.4-0.5,2.4C79.2,30.7,85.6,30.7,85.6,30.7z"/>
<path fill="#FFFFFF" d="M94.2,26.1c0.7,0,1.4,0.3,1.8,0.7c0.5,0.6,0.6,1.4,0.6,2.1v6.2c0,0.3,0,0.8-0.4,1.1
	c-0.3,0.3-0.8,0.3-1.2,0.3h-4c-0.6,0-1.3,0-1.9-0.5c-0.9-0.7-0.9-2.1-0.9-2.7c0-0.8,0.1-1.8,0.9-2.4c0.6-0.5,1.3-0.5,1.9-0.5h4.5
	v-1.5c0-0.3-0.1-0.9-0.4-1.2c-0.2-0.3-0.6-0.5-1.1-0.5h-5v-0.9h5.2V26.1z M90.8,31.2c-0.6,0-1,0.3-1.1,0.5c-0.3,0.3-0.3,0.9-0.3,1.6
	c0,0.6,0.1,1.4,0.4,1.8c0.2,0.3,0.6,0.4,1,0.4H95c0.1,0,0.3,0,0.4-0.1s0.1-0.2,0.1-0.4v-3.9h-4.7V31.2z"/>
<path fill="#FFFFFF" d="M106.3,36.2c-0.4,0.3-1,0.3-1.6,0.3h-2.8c-1.1,0-1.9-0.1-2.5-0.7c-0.8-0.7-0.9-1.8-0.9-2.4v-7.2h1v6.9
	c0,1.1,0.2,1.6,0.4,1.8c0.4,0.6,1.2,0.7,2.1,0.7h2.9c0.3,0,0.5-0.1,0.7-0.2c0.2-0.2,0.2-0.5,0.2-0.6v-8.6h1v8.7
	C106.8,35.3,106.7,35.8,106.3,36.2z"/>
</svg>
