<?xml version="1.0" encoding="utf-8"?>
<!-- Generator: Adobe Illustrator 22.0.1, SVG Export Plug-In . SVG Version: 6.00 Build 0)  -->
<svg version="1.1" id="LOGO_x27_S" xmlns="http://www.w3.org/2000/svg" xmlns:xlink="http://www.w3.org/1999/xlink" x="0px" y="0px"
	 width="205.2px" height="44px" viewBox="0 0 205.2 44" enable-background="new 0 0 205.2 44" xml:space="preserve">
<g id="brand-sadvantage">
</g>
<g id="brand-se_1_">
</g>
<g id="brand-kn_1_">
</g>
<g id="brand-pn_1_">
</g>
<g id="brand-esn_1_">
</g>
<g id="brand-osn_1_">
</g>
<g>
	<g id="cn-bol">
		<g id="cn-globe">
			
				<radialGradient id="SVGID_1_" cx="1156.1226" cy="-73.6254" r="19.0783" gradientTransform="matrix(0.8195 0 0 0.8195 -914.321 70.0824)" gradientUnits="userSpaceOnUse">
				<stop  offset="0" style="stop-color:#FFFFFF"/>
				<stop  offset="1" style="stop-color:#E0E1E2"/>
			</radialGradient>
			<path fill="url(#SVGID_1_)" d="M41.894,22.549c0-11.571-9.378-20.949-20.948-20.949c-5.101,0-9.774,1.826-13.407,4.855
				L37.04,35.954C40.071,32.322,41.894,27.649,41.894,22.549z"/>
			
				<radialGradient id="SVGID_2_" cx="1124.5542" cy="-43.5848" r="24.2538" gradientTransform="matrix(0.8195 0 0 0.8195 -914.321 70.0824)" gradientUnits="userSpaceOnUse">
				<stop  offset="0" style="stop-color:#FFFFFF"/>
				<stop  offset="1" style="stop-color:#E0E1E2"/>
			</radialGradient>
			<path fill="url(#SVGID_2_)" d="M7.539,6.455C2.933,10.298,0,16.08,0,22.549c0,11.569,9.377,20.947,20.946,20.947
				c6.47,0,12.25-2.933,16.094-7.541L7.539,6.455z"/>
		</g>
		<g id="cn-shadow">
			<defs>
				<path id="SVGID_3_" d="M41.917,23.251c-0.404,11.56-10.104,20.607-21.665,20.202C8.689,43.049-0.355,33.349,0.047,21.786
					C0.451,10.225,10.151,1.18,21.714,1.584S42.321,11.688,41.917,23.251z"/>
			</defs>
			<clipPath id="SVGID_4_">
				<use xlink:href="#SVGID_3_"  overflow="visible"/>
			</clipPath>
			<g clip-path="url(#SVGID_4_)">
				<path fill="#F3F2F2" d="M23.401,42.247C12.977,41.986,3.333,33.785,2.863,22.965C2.507,14.792,7.586,7.68,7.586,7.68
					s-1.822,1.613-2.982,3.035c-5.806,7.131-3.779,15.729-3.464,17.124c1.83,8.108,9.817,14.413,18.219,14.705
					C21.703,42.625,23.401,42.247,23.401,42.247z"/>
				<g>
					<path fill="#EFF0F0" d="M14.999,2.243c-7.44,3.661-2.092,11.11,4.104,19.736c9.241,12.87,14.334,19.788,7.411,22.211
						c-1.129,0.393-2.294,0.549-2.89,0.664c6.545-1.933,2.694-7.518-4.034-16.632C10.901,16.455,5.251,6.473,12.158,3.107
						C12.959,2.717,13.926,2.386,14.999,2.243"/>
					<path fill="#EFF0F0" d="M14.99,2.218c-7.992,3.273-0.787,9.258,7.555,16.186C34.742,28.536,40.488,34.186,35.44,39.104
						c-1.183,1.152-1.971,1.553-2.396,1.86c5.152-4.805-0.139-9.519-12.482-20.08c-8.397-7.181-15.106-14.48-8.379-17.727
						C12.983,2.769,13.781,2.446,14.99,2.218"/>
					<path fill="#EFF0F0" d="M24.786,1.943c-8.77-1.276-3.592,5.759-1.644,8.406c3.062,4.158,6.522,8.005,9.502,12.226
						c1.112,1.577,2.661,3.98,3.711,6.487c2.381,5.679,0.874,8.261-1.071,10.243c-0.633,0.642-0.787,0.732-0.787,0.732
						c-0.834,0.702-1.889,1.364-1.889,1.364c4.79-4.181,3.254-10.173-6.93-23.337C19.21,9.701,13.218,1.238,22.198,1.513
						C23.014,1.539,23.978,1.823,24.786,1.943"/>
				</g>
			</g>
		</g>
		<g id="cn">
			<g>
				<linearGradient id="SVGID_5_" gradientUnits="userSpaceOnUse" x1="7.1662" y1="33.7441" x2="20.8858" y2="20.0245">
					<stop  offset="0" style="stop-color:#004F7E"/>
					<stop  offset="0.2" style="stop-color:#006B96"/>
					<stop  offset="0.62" style="stop-color:#8DCBE0"/>
					<stop  offset="0.85" style="stop-color:#009AC6"/>
					<stop  offset="1" style="stop-color:#004F7E"/>
				</linearGradient>
				<path fill="url(#SVGID_5_)" d="M19.316,41.114c-0.662-0.188-1.315-0.407-1.955-0.656c-0.717-0.281-1.42-0.598-2.104-0.951
					c-0.824-0.427-1.621-0.903-2.384-1.428c-1.225-0.843-2.365-1.808-3.394-2.88c-1.136-1.185-2.136-2.5-2.966-3.923
					c-0.672-1.152-1.232-2.376-1.66-3.659c-0.249-0.747-0.429-1.384-0.586-2.17L4.24,25.318c-0.129-0.641-0.224-1.294-0.287-1.957
					c-0.021-0.223-0.038-0.448-0.051-0.672c-0.024-0.408-0.035-0.812-0.033-1.212c0.001-0.653,0.033-1.294,0.091-1.923
					c0.064-0.696,0.16-1.375,0.282-2.035c0.142-0.774,0.319-1.521,0.518-2.233c0.252-0.902,0.541-1.748,0.842-2.528
					c0.429-1.108,0.883-2.076,1.295-2.874c0.738-1.425,1.342-2.302,1.426-2.423L7.757,7.746c-0.084,0.121-0.689,0.996-1.426,2.423
					c-0.413,0.797-0.867,1.768-1.294,2.874c-0.302,0.779-0.591,1.627-0.843,2.529c-0.199,0.712-0.375,1.458-0.518,2.233
					c-0.12,0.659-0.217,1.338-0.282,2.034c-0.058,0.628-0.09,1.27-0.091,1.923c-0.001,0.4,0.01,0.803,0.034,1.211
					c0.014,0.225,0.03,0.449,0.051,0.671c0.062,0.663,0.158,1.316,0.286,1.958l0.006,0.041c0.157,0.785,0.357,1.512,0.607,2.258
					c0.429,1.283,0.988,2.506,1.66,3.659c0.829,1.422,1.829,2.738,2.966,3.922c1.028,1.072,2.169,2.038,3.394,2.88
					c0.763,0.526,1.561,1.003,2.384,1.429c0.684,0.352,1.387,0.67,2.105,0.95l0,0c0.64,0.249,1.292,0.469,1.955,0.657l0.024,0.007
					c0.619,0.175,1.223,0.316,1.856,0.434c0.61,0.114,1.225,0.201,1.843,0.259c0.459,0.042,0.92,0.071,1.382,0.083l0.566-0.285
					c-0.462-0.012-0.922-0.04-1.381-0.084c-0.619-0.058-1.234-0.144-1.843-0.257c-0.634-0.119-1.246-0.263-1.865-0.438
					L19.316,41.114z"/>
				<linearGradient id="SVGID_6_" gradientUnits="userSpaceOnUse" x1="5.4368" y1="35.2734" x2="20.3604" y2="20.3498">
					<stop  offset="0" style="stop-color:#004F7E"/>
					<stop  offset="0.2" style="stop-color:#006B96"/>
					<stop  offset="0.62" style="stop-color:#8DCBE0"/>
					<stop  offset="0.85" style="stop-color:#009AC6"/>
					<stop  offset="1" style="stop-color:#004F7E"/>
				</linearGradient>
				<path fill="url(#SVGID_6_)" d="M3.336,22.974C3.963,33.752,13.585,41.92,23.855,42.182c-0.319,0.062-0.423,0.079-0.546,0.098
					c-0.628,0.086-0.665,0.09-0.702,0.093c-0.048,0.006-0.084,0.011-0.121,0.014c-0.082,0.008-0.128,0.013-0.175,0.017
					c-0.086,0.008-0.116,0.011-0.147,0.014c-0.251,0.019-0.282,0.021-0.313,0.024c-0.101,0.007-0.135,0.009-0.171,0.011
					c-0.095,0.006-0.131,0.009-0.167,0.01c-0.103,0.006-0.134,0.007-0.168,0.008c-0.115,0.005-0.146,0.007-0.178,0.007
					c-0.117,0.004-0.153,0.005-0.188,0.006c-0.214,0.005-0.282,0.005-0.35,0.005c-0.036,0.001-0.07,0.001-0.105,0.001
					c-0.092,0-0.187-0.001-0.282-0.003c-0.165-0.003-0.263-0.005-0.363-0.009C11.6,42.186,3.639,35.905,1.714,27.829
					c-0.007-0.031-0.015-0.066-0.024-0.103c-0.018-0.075-0.028-0.119-0.039-0.171c-0.012-0.049-0.024-0.104-0.036-0.161
					c-0.019-0.086-0.03-0.139-0.041-0.194c-0.021-0.101-0.033-0.165-0.046-0.228c-0.023-0.121-0.036-0.185-0.048-0.252
					c-0.023-0.123-0.035-0.197-0.048-0.274c-0.023-0.13-0.036-0.216-0.05-0.303c-0.037-0.244-0.065-0.44-0.091-0.644
					c-0.021-0.171-0.033-0.27-0.044-0.372c-0.02-0.184-0.031-0.292-0.041-0.403c-0.012-0.135-0.022-0.248-0.031-0.364
					c-0.014-0.191-0.023-0.312-0.03-0.433c-0.011-0.192-0.017-0.324-0.023-0.456c-0.005-0.142-0.009-0.275-0.012-0.409l-0.003-0.19
					c-0.001-0.042-0.001-0.085-0.002-0.127c0-0.065,0-0.129,0-0.195c0-0.038,0-0.077,0-0.116c0-0.067,0-0.136,0.002-0.203
					c0-0.034,0-0.068,0.001-0.103c0.001-0.084,0.004-0.169,0.006-0.254c0.005-0.169,0.01-0.277,0.015-0.387
					c0.006-0.121,0.012-0.223,0.017-0.326c0.012-0.168,0.017-0.25,0.024-0.333c0.002-0.035,0.005-0.069,0.008-0.104
					c0.006-0.075,0.013-0.15,0.02-0.226c0.004-0.042,0.009-0.086,0.013-0.128c0.008-0.072,0.014-0.144,0.023-0.217
					c0.004-0.04,0.009-0.081,0.014-0.121c0.009-0.078,0.018-0.158,0.028-0.237c0.004-0.037,0.009-0.072,0.013-0.109
					c0.012-0.089,0.025-0.177,0.038-0.267c0.047-0.32,0.087-0.558,0.131-0.798c0.006-0.03,0.012-0.061,0.018-0.092
					c0.016-0.088,0.033-0.174,0.051-0.263c0.008-0.041,0.017-0.084,0.026-0.125c0.016-0.079,0.034-0.157,0.051-0.236
					c0.01-0.044,0.02-0.09,0.03-0.135c0.018-0.077,0.037-0.155,0.056-0.233c0.011-0.045,0.022-0.092,0.034-0.136
					c0.019-0.078,0.04-0.156,0.06-0.233c0.012-0.045,0.023-0.091,0.036-0.136c0.024-0.088,0.049-0.176,0.074-0.263
					c0.01-0.035,0.019-0.069,0.029-0.104c0.036-0.124,0.074-0.248,0.113-0.372c0.044-0.141,0.082-0.256,0.121-0.371
					c0.013-0.038,0.027-0.076,0.04-0.115c0.03-0.087,0.06-0.173,0.091-0.259c0.016-0.045,0.033-0.09,0.049-0.135
					c0.029-0.078,0.059-0.158,0.09-0.237c0.019-0.049,0.039-0.099,0.058-0.148c0.03-0.078,0.062-0.155,0.094-0.232
					c0.02-0.047,0.039-0.095,0.059-0.143c0.034-0.079,0.068-0.159,0.103-0.238c0.021-0.048,0.041-0.094,0.062-0.142
					c0.038-0.085,0.077-0.17,0.117-0.254c0.018-0.04,0.037-0.081,0.056-0.121c0.059-0.124,0.12-0.249,0.183-0.373
					c0.072-0.142,0.132-0.258,0.194-0.374c0.022-0.041,0.045-0.082,0.067-0.122c0.046-0.085,0.092-0.169,0.139-0.254
					c0.027-0.046,0.054-0.092,0.08-0.139c0.045-0.078,0.09-0.156,0.135-0.234c0.03-0.049,0.061-0.101,0.092-0.152
					c0.044-0.073,0.09-0.145,0.136-0.22c0.032-0.051,0.065-0.103,0.098-0.155c0.049-0.076,0.098-0.152,0.148-0.227
					c0.032-0.046,0.063-0.095,0.094-0.143c0.056-0.082,0.113-0.164,0.17-0.245c0.029-0.042,0.057-0.085,0.087-0.125
					c0.087-0.122,0.176-0.245,0.267-0.366c1.393-1.859,2.815-2.965,2.89-3.024C7.512,8.101,2.862,14.832,3.336,22.974z"/>
			</g>
			<g>
				
					<radialGradient id="SVGID_7_" cx="1140.4641" cy="-34.3796" r="47.6517" gradientTransform="matrix(0.8245 0 0 0.8212 -911.1642 70.8252)" gradientUnits="userSpaceOnUse">
					<stop  offset="0" style="stop-color:#4C4F53"/>
					<stop  offset="0.1431" style="stop-color:#505457"/>
					<stop  offset="0.3058" style="stop-color:#5E6164"/>
					<stop  offset="0.456" style="stop-color:#717377"/>
					<stop  offset="0.5272" style="stop-color:#75767A"/>
					<stop  offset="0.5922" style="stop-color:#808184"/>
					<stop  offset="0.6546" style="stop-color:#939295"/>
					<stop  offset="0.6978" style="stop-color:#A4A2A5"/>
					<stop  offset="0.7643" style="stop-color:#A09FA1"/>
					<stop  offset="0.8278" style="stop-color:#959497"/>
					<stop  offset="0.8901" style="stop-color:#828285"/>
					<stop  offset="0.9512" style="stop-color:#67696C"/>
					<stop  offset="1" style="stop-color:#4C4F53"/>
				</radialGradient>
				<path fill="url(#SVGID_7_)" d="M15.045,1.306c-7.353,3.928-1.711,11.199,4.819,19.619c9.744,12.565,15.108,19.315,8.231,21.983
					c-1.12,0.434-2.286,0.63-2.88,0.768c6.51-2.164,2.443-7.623-4.641-16.516C11.425,15.682,5.393,5.884,12.219,2.271
					C13.01,1.851,13.973,1.489,15.045,1.306"/>
				
					<radialGradient id="SVGID_8_" cx="1121.5675" cy="233.8055" r="47.6242" gradientTransform="matrix(0.7995 -0.1802 0.1807 0.8021 -905.482 54.9869)" gradientUnits="userSpaceOnUse">
					<stop  offset="0" style="stop-color:#4C4F53;stop-opacity:0.85"/>
					<stop  offset="0.1431" style="stop-color:#505457;stop-opacity:0.8971"/>
					<stop  offset="0.3058" style="stop-color:#5E6164;stop-opacity:0.9506"/>
					<stop  offset="0.456" style="stop-color:#717377"/>
					<stop  offset="0.5272" style="stop-color:#75767A"/>
					<stop  offset="0.5922" style="stop-color:#808184"/>
					<stop  offset="0.6546" style="stop-color:#939295"/>
					<stop  offset="0.6978" style="stop-color:#A4A2A5"/>
					<stop  offset="0.7643" style="stop-color:#A09FA1"/>
					<stop  offset="0.8278" style="stop-color:#959497"/>
					<stop  offset="0.8901" style="stop-color:#828285"/>
					<stop  offset="0.9512" style="stop-color:#67696C"/>
					<stop  offset="1" style="stop-color:#4C4F53"/>
				</radialGradient>
				<path fill="url(#SVGID_8_)" d="M15.145,1.253c-7.721,3.505-0.428,9.287,8.015,15.982c12.345,9.786,18.192,15.277,13.423,20.342
					c-1.118,1.189-1.877,1.61-2.281,1.931c4.876-4.958-0.491-9.52-12.996-19.735C12.801,12.827,5.945,5.718,12.426,2.276
					C13.196,1.866,13.968,1.516,15.145,1.253"/>
				
					<radialGradient id="SVGID_9_" cx="1151.087" cy="-33.6449" r="47.6196" gradientTransform="matrix(0.8195 0 0 0.8195 -914.321 70.0824)" gradientUnits="userSpaceOnUse">
					<stop  offset="0" style="stop-color:#4C4F53"/>
					<stop  offset="0.1431" style="stop-color:#505457"/>
					<stop  offset="0.3058" style="stop-color:#5E6164"/>
					<stop  offset="0.456" style="stop-color:#717377"/>
					<stop  offset="0.5272" style="stop-color:#75767A"/>
					<stop  offset="0.5922" style="stop-color:#808184"/>
					<stop  offset="0.6546" style="stop-color:#939295"/>
					<stop  offset="0.6978" style="stop-color:#A4A2A5"/>
					<stop  offset="0.7643" style="stop-color:#A09FA1"/>
					<stop  offset="0.8278" style="stop-color:#959497"/>
					<stop  offset="0.8901" style="stop-color:#828285"/>
					<stop  offset="0.9512" style="stop-color:#67696C"/>
					<stop  offset="1" style="stop-color:#4C4F53"/>
				</radialGradient>
				<path fill="url(#SVGID_9_)" d="M24.757,0.664c-8.809-0.969-3.39,5.882-1.35,8.459c3.204,4.049,6.797,7.774,9.924,11.886
					c1.166,1.538,2.796,3.887,3.934,6.355c2.579,5.592,1.161,8.224-0.714,10.273c-0.611,0.667-0.76,0.761-0.76,0.761
					c-0.809,0.729-1.841,1.427-1.841,1.427c4.643-4.346,2.897-10.28-7.74-23.082C19.455,8.614,13.17,0.364,22.155,0.324
					C22.973,0.321,23.945,0.574,24.757,0.664"/>
			</g>
		</g>
	</g>
	<g id="cataloguenetwork_1_">
		<g id="catalogue_1_">
			<path fill="#1794D2" d="M54.514,36.202c-0.844,0-2.136-0.113-3.035-1.18c-0.768-0.899-0.88-2.136-0.88-3.654
				c0-1.443,0.075-2.997,1.106-4.065c0.768-0.806,1.817-1.031,2.997-1.031h5.34v2.511h-3.634c-1.256,0-1.686,0.562-1.892,1.198
				c-0.131,0.394-0.169,0.806-0.169,1.312c0,1.143,0.206,1.555,0.299,1.724c0.45,0.73,1.405,0.674,1.967,0.674h3.635v2.511H54.514z"
				/>
			<path fill="#1794D2" d="M68.173,26.273c1.217,0,2.022,0.431,2.454,0.862c0.824,0.805,0.937,1.986,0.937,2.791v4.159
				c0,0.525-0.038,1.124-0.487,1.592c-0.469,0.487-1.124,0.525-1.686,0.525h-5.845c-0.618,0-1.293-0.038-1.817-0.525
				c-0.768-0.693-0.806-2.004-0.806-2.791c0-0.862,0.075-1.911,0.862-2.511c0.543-0.412,1.181-0.43,1.761-0.43h4.346v-0.15
				c0-0.169-0.019-0.431-0.188-0.656c-0.281-0.375-0.749-0.394-1.124-0.394h-4.984v-2.472H68.173z M65.288,32.305
				c-0.113,0-0.375,0.018-0.543,0.169c-0.132,0.131-0.15,0.299-0.15,0.468c0,0.15,0.018,0.3,0.15,0.431
				c0.131,0.112,0.337,0.168,0.506,0.168h1.911c0.188,0,0.431-0.037,0.543-0.131c0.169-0.131,0.188-0.318,0.188-0.487v-0.617H65.288
				z"/>
			<path fill="#1794D2" d="M77.823,36.202c-0.731,0-2.061,0-3.073-0.675c-0.824-0.561-1.255-1.535-1.255-2.434V28.82H72.09v-2.547
				h1.405v-3.185h3.672v3.185h2.828v2.547h-2.828v2.267c0,0.731,0.093,1.498,0.637,1.986c0.507,0.45,1.143,0.468,1.611,0.468h0.543
				v2.661H77.823z"/>
			<path fill="#1794D2" d="M87.547,26.273c1.217,0,2.022,0.431,2.454,0.862c0.824,0.805,0.937,1.986,0.937,2.791v4.159
				c0,0.525-0.038,1.124-0.487,1.592c-0.469,0.487-1.124,0.525-1.686,0.525H82.92c-0.618,0-1.293-0.038-1.817-0.525
				c-0.769-0.693-0.806-2.004-0.806-2.791c0-0.862,0.075-1.911,0.862-2.511c0.543-0.412,1.181-0.43,1.761-0.43h4.346v-0.15
				c0-0.169-0.019-0.431-0.188-0.656c-0.281-0.375-0.749-0.394-1.124-0.394h-4.984v-2.472H87.547z M84.662,32.305
				c-0.113,0-0.375,0.018-0.543,0.169c-0.132,0.131-0.15,0.299-0.15,0.468c0,0.15,0.018,0.3,0.15,0.431
				c0.131,0.112,0.337,0.168,0.506,0.168h1.911c0.188,0,0.43-0.037,0.543-0.131c0.169-0.131,0.188-0.318,0.188-0.487v-0.617H84.662z
				"/>
			<path fill="#1794D2" d="M92.063,23.088h3.671v13.114h-3.671V23.088z"/>
			<path fill="#1794D2" d="M106.788,27.171c1.237,1.106,1.311,3.073,1.311,4.066c0,0.993-0.074,2.96-1.311,4.065
				c-1.087,0.956-2.848,1.012-4.421,1.012c-1.574,0-3.335-0.056-4.421-1.012c-1.237-1.105-1.312-3.072-1.312-4.065
				c0-0.993,0.075-2.96,1.312-4.066c1.086-0.955,2.848-1.011,4.421-1.011C103.941,26.16,105.701,26.216,106.788,27.171z
				 M100.737,32.979c0.075,0.113,0.507,0.675,1.63,0.675c0.993,0,1.443-0.431,1.611-0.675c0.299-0.412,0.375-1.03,0.375-1.742
				c0-1.05-0.169-1.518-0.356-1.78c-0.187-0.244-0.618-0.638-1.629-0.638c-1.012,0-1.443,0.394-1.63,0.638
				c-0.131,0.187-0.355,0.618-0.355,1.78C100.381,32.324,100.588,32.773,100.737,32.979z"/>
			<path fill="#1794D2" d="M109.469,37.175h4.421c0.393,0,0.974,0.019,1.348-0.262c0.206-0.169,0.376-0.449,0.431-0.712h-3.166
				c-1.049,0-2.192-0.075-2.959-1.255c-0.543-0.844-0.768-2.024-0.768-3.747c0-1.929,0.281-2.885,1.012-3.728
				c0.749-0.88,1.592-1.199,3.147-1.199h4.084c0.581,0,1.255,0.038,1.742,0.45c0.506,0.43,0.581,1.067,0.581,1.498v6.876
				c0,1.311-0.15,2.379-0.787,3.165c-0.749,0.955-2.005,1.311-3.522,1.311h-5.564V37.175z M115.67,29.72
				c0-0.262-0.038-0.468-0.281-0.637c-0.187-0.132-0.393-0.15-0.581-0.15h-0.412c-0.525,0-1.086,0.038-1.48,0.544
				c-0.169,0.206-0.393,0.655-0.393,1.854c0,0.881,0.149,1.405,0.412,1.706c0.468,0.543,1.161,0.505,1.686,0.505h1.049V29.72z"/>
			<path fill="#1794D2" d="M124.139,26.273v4.945c0,0.937,0.15,1.406,0.356,1.705c0.412,0.582,1.124,0.618,1.555,0.618h0.674
				c0.299,0,0.506-0.074,0.637-0.206c0.188-0.187,0.188-0.412,0.188-0.599v-6.463h3.672v7.905c0,0.562-0.075,1.124-0.618,1.574
				c-0.507,0.412-1.199,0.45-1.611,0.45h-4.496c-1.405,0-2.267-0.412-2.773-0.843c-1.03-0.844-1.255-2.174-1.255-3.672v-5.414
				H124.139z"/>
			<path fill="#1794D2" d="M136.152,36.202c-1.48,0-2.736,0-3.523-1.293c-0.43-0.711-0.506-1.76-0.506-3.559
				c0-1.816-0.093-3.296,0.806-4.214c0.918-0.937,2.81-0.975,4.683-0.975c2.004,0,3.316,0.038,4.103,0.674
				c0.955,0.768,1.068,2.249,1.068,3.335c0,0.637-0.038,1.367-0.6,1.817c-0.318,0.262-0.637,0.281-0.974,0.281h-5.414
				c-0.018,0.262,0.038,0.599,0.169,0.805c0.319,0.507,0.993,0.468,1.649,0.468h4.814v2.661H136.152z M138.512,29.945
				c0.524,0,0.599-0.337,0.599-0.525c0-0.263-0.131-0.561-0.674-0.675c-0.299-0.056-0.787-0.074-0.975-0.074
				c-0.431,0-1.011,0.018-1.274,0.169c-0.375,0.206-0.43,0.599-0.393,1.106H138.512z"/>
		</g>
		<g id="network_2_">
			<path fill="#4C4F53" d="M144.233,27.791c0-0.262,0.018-0.657,0.224-0.919c0.262-0.337,0.674-0.374,0.975-0.374h3.559
				c0.936,0,1.705,0.131,2.304,0.73c0.3,0.3,0.768,0.936,0.768,2.304v6.895h-0.975v-6.651c0-0.844-0.093-1.35-0.43-1.78
				c-0.412-0.526-0.974-0.618-1.611-0.618h-3.522c-0.093,0-0.206,0-0.262,0.075c-0.057,0.075-0.057,0.223-0.057,0.299v8.675h-0.974
				V27.791z"/>
			<path fill="#4C4F53" d="M156.992,36.427c-0.806,0-1.855-0.206-2.623-1.219c-0.768-0.992-0.805-2.248-0.805-3.708
				c0-1.387,0.074-3.074,1.33-4.122c0.9-0.749,2.117-0.88,3.11-0.88c0.693,0,1.724,0.092,2.529,0.561
				c0.394,0.245,1.593,1.069,1.593,3.147c0,0.281-0.019,0.955-0.412,1.294c-0.3,0.262-0.768,0.299-1.05,0.299h-6.051
				c-0.018,0.582,0.018,1.499,0.169,2.024c0.224,0.805,0.899,1.722,2.211,1.722h4.87v0.882H156.992z M160.663,30.919
				c0.431,0,0.412-0.524,0.412-0.655c0-0.975-0.337-1.631-0.674-2.024c-0.712-0.844-1.686-0.861-2.566-0.861
				c-0.993,0-2.061,0.037-2.754,1.198c-0.393,0.657-0.45,1.367-0.468,2.342H160.663z"/>
			<path fill="#4C4F53" d="M167.316,36.427c-0.843,0-1.78,0.037-2.398-0.582c-0.618-0.599-0.674-1.574-0.674-2.754v-5.713h-1.367
				v-0.88h1.367v-3.186h0.974v3.186h2.735v0.88h-2.735v5.507c0,0.844-0.056,1.986,0.562,2.417c0.224,0.15,0.656,0.243,1.76,0.243
				h0.525v0.882H167.316z"/>
			<path fill="#4C4F53" d="M170.894,35.266c0.038,0.131,0.113,0.299,0.206,0.299c0.113,0,0.169-0.225,0.187-0.281l2.118-8.074
				c0.187-0.693,0.599-0.824,0.899-0.824c0.3,0,0.713,0.131,0.899,0.824l2.117,8.074c0.019,0.056,0.075,0.281,0.188,0.281
				c0.093,0,0.169-0.168,0.206-0.299l2.229-8.767h0.974l-2.435,9.216c-0.112,0.431-0.337,0.824-0.955,0.824
				c-0.73,0-0.936-0.562-1.011-0.844l-2.061-7.756c-0.018-0.112-0.075-0.337-0.15-0.337c-0.074,0-0.131,0.225-0.149,0.337
				l-2.061,7.756c-0.075,0.281-0.281,0.844-1.012,0.844c-0.617,0-0.843-0.393-0.955-0.824l-2.435-9.216h0.975L170.894,35.266z"/>
			<path fill="#4C4F53" d="M182.529,27.471c0.975-0.955,2.417-1.086,3.672-1.086c1.256,0,2.698,0.131,3.672,1.086
				c1.086,1.069,1.237,2.829,1.237,3.935c0,2.153-0.599,3.372-1.237,4.008c-1.086,1.069-2.791,1.125-3.672,1.125
				c-0.88,0-2.585-0.056-3.672-1.125c-0.637-0.636-1.236-1.855-1.236-4.008C181.294,30.3,181.443,28.54,182.529,27.471z
				 M183.148,34.703c0.787,0.861,2.043,0.955,3.054,0.955c1.012,0,2.267-0.094,3.054-0.955c0.824-0.9,0.806-2.398,0.806-3.203
				c0-0.863,0-2.436-0.787-3.317c-0.768-0.844-2.136-0.919-3.073-0.919c-0.936,0-2.304,0.075-3.072,0.919
				c-0.787,0.88-0.787,2.454-0.787,3.317C182.343,32.305,182.324,33.804,183.148,34.703z"/>
			<path fill="#4C4F53" d="M192.61,29.907c0-1.011,0.131-1.893,0.88-2.604c0.412-0.393,1.106-0.805,2.435-0.805h0.674v0.88h-0.599
				c-0.543,0-1.367,0.056-1.912,0.693c-0.412,0.505-0.506,1.254-0.506,2.061v6.294h-0.974V29.907z"/>
			<path fill="#4C4F53" d="M197.35,36.427V23.313h0.974v13.114H197.35z M203.851,36.427l-4.028-3.71
				c-0.224-0.206-0.768-0.749-0.768-1.423c0-0.545,0.299-0.957,0.787-1.425l3.597-3.371h1.312l-4.31,4.045
				c-0.262,0.264-0.337,0.545-0.337,0.713c0,0.337,0.263,0.693,0.525,0.936l4.571,4.235H203.851z"/>
		</g>
	</g>
</g>
</svg>
